  0
SECTION
  2
HEADER
  9
$ACADVER
  1
AC1024
  9
$ACADMAINTVER
 70
6
  9
$DWGCODEPAGE
  3
ANSI_1252
  9
$LASTSAVEDBY
  1
ezdxf
  9
$INSBASE
 10
0.0
 20
0.0
 30
0.0
  9
$EXTMIN
 10
1e+20
 20
1e+20
 30
1e+20
  9
$EXTMAX
 10
-1e+20
 20
-1e+20
 30
-1e+20
  9
$LIMMIN
 10
0.0
 20
0.0
  9
$LIMMAX
 10
420.0
 20
297.0
  9
$ORTHOMODE
 70
0
  9
$REGENMODE
 70
1
  9
$FILLMODE
 70
1
  9
$QTEXTMODE
 70
0
  9
$MIRRTEXT
 70
1
  9
$LTSCALE
 40
1.0
  9
$ATTMODE
 70
1
  9
$TEXTSIZE
 40
2.5
  9
$TRACEWID
 40
1.0
  9
$TEXTSTYLE
  7
Standard
  9
$CLAYER
  8
0
  9
$CELTYPE
  6
ByLayer
  9
$CECOLOR
 62
256
  9
$CELTSCALE
 40
1.0
  9
$DISPSILH
 70
0
  9
$DIMSCALE
 40
1.0
  9
$DIMASZ
 40
2.5
  9
$DIMEXO
 40
0.625
  9
$DIMDLI
 40
3.75
  9
$DIMRND
 40
0.0
  9
$DIMDLE
 40
0.0
  9
$DIMEXE
 40
1.25
  9
$DIMTP
 40
0.0
  9
$DIMTM
 40
0.0
  9
$DIMTXT
 40
2.5
  9
$DIMCEN
 40
2.5
  9
$DIMTSZ
 40
0.0
  9
$DIMTOL
 70
0
  9
$DIMLIM
 70
0
  9
$DIMTIH
 70
0
  9
$DIMTOH
 70
0
  9
$DIMSE1
 70
0
  9
$DIMSE2
 70
0
  9
$DIMTAD
 70
1
  9
$DIMZIN
 70
8
  9
$DIMBLK
  1

  9
$DIMASO
 70
1
  9
$DIMSHO
 70
1
  9
$DIMPOST
  1

  9
$DIMAPOST
  1

  9
$DIMALT
 70
0
  9
$DIMALTD
 70
3
  9
$DIMALTF
 40
0.03937007874
  9
$DIMLFAC
 40
1.0
  9
$DIMTOFL
 70
1
  9
$DIMTVP
 40
0.0
  9
$DIMTIX
 70
0
  9
$DIMSOXD
 70
0
  9
$DIMSAH
 70
0
  9
$DIMBLK1
  1

  9
$DIMBLK2
  1

  9
$DIMSTYLE
  2
ISO-25
  9
$DIMCLRD
 70
0
  9
$DIMCLRE
 70
0
  9
$DIMCLRT
 70
0
  9
$DIMTFAC
 40
1.0
  9
$DIMGAP
 40
0.625
  9
$DIMJUST
 70
0
  9
$DIMSD1
 70
0
  9
$DIMSD2
 70
0
  9
$DIMTOLJ
 70
0
  9
$DIMTZIN
 70
8
  9
$DIMALTZ
 70
0
  9
$DIMALTTZ
 70
0
  9
$DIMUPT
 70
0
  9
$DIMDEC
 70
2
  9
$DIMTDEC
 70
2
  9
$DIMALTU
 70
2
  9
$DIMALTTD
 70
3
  9
$DIMTXSTY
  7
Standard
  9
$DIMAUNIT
 70
0
  9
$DIMADEC
 70
0
  9
$DIMALTRND
 40
0.0
  9
$DIMAZIN
 70
0
  9
$DIMDSEP
 70
44
  9
$DIMATFIT
 70
3
  9
$DIMFRAC
 70
0
  9
$DIMLDRBLK
  1

  9
$DIMLUNIT
 70
2
  9
$DIMLWD
 70
-2
  9
$DIMLWE
 70
-2
  9
$DIMTMOVE
 70
0
  9
$DIMFXL
 40
1.0
  9
$DIMFXLON
 70
0
  9
$DIMJOGANG
 40
0.785398163397
  9
$DIMTFILL
 70
0
  9
$DIMTFILLCLR
 70
0
  9
$DIMARCSYM
 70
0
  9
$DIMLTYPE
  6

  9
$DIMLTEX1
  6

  9
$DIMLTEX2
  6

  9
$DIMTXTDIRECTION
 70
0
  9
$LUNITS
 70
2
  9
$LUPREC
 70
4
  9
$SKETCHINC
 40
1.0
  9
$FILLETRAD
 40
10.0
  9
$AUNITS
 70
0
  9
$AUPREC
 70
2
  9
$MENU
  1
.
  9
$ELEVATION
 40
0.0
  9
$PELEVATION
 40
0.0
  9
$THICKNESS
 40
0.0
  9
$LIMCHECK
 70
0
  9
$CHAMFERA
 40
0.0
  9
$CHAMFERB
 40
0.0
  9
$CHAMFERC
 40
0.0
  9
$CHAMFERD
 40
0.0
  9
$SKPOLY
 70
0
  9
$TDCREATE
 40
2461319.437337963
  9
$TDUCREATE
 40
2458532.153996898
  9
$TDUPDATE
 40
2461319.437337963
  9
$TDUUPDATE
 40
2458532.1544311
  9
$TDINDWG
 40
0.0
  9
$TDUSRTIMER
 40
0.0
  9
$USRTIMER
 70
1
  9
$ANGBASE
 50
0.0
  9
$ANGDIR
 70
0
  9
$PDMODE
 70
0
  9
$PDSIZE
 40
0.0
  9
$PLINEWID
 40
0.0
  9
$SPLFRAME
 70
0
  9
$SPLINETYPE
 70
6
  9
$SPLINESEGS
 70
8
  9
$HANDSEED
  5
41
  9
$SURFTAB1
 70
6
  9
$SURFTAB2
 70
6
  9
$SURFTYPE
 70
6
  9
$SURFU
 70
6
  9
$SURFV
 70
6
  9
$UCSBASE
  2

  9
$UCSNAME
  2

  9
$UCSORG
 10
0.0
 20
0.0
 30
0.0
  9
$UCSXDIR
 10
1.0
 20
0.0
 30
0.0
  9
$UCSYDIR
 10
0.0
 20
1.0
 30
0.0
  9
$UCSORTHOREF
  2

  9
$UCSORTHOVIEW
 70
0
  9
$UCSORGTOP
 10
0.0
 20
0.0
 30
0.0
  9
$UCSORGBOTTOM
 10
0.0
 20
0.0
 30
0.0
  9
$UCSORGLEFT
 10
0.0
 20
0.0
 30
0.0
  9
$UCSORGRIGHT
 10
0.0
 20
0.0
 30
0.0
  9
$UCSORGFRONT
 10
0.0
 20
0.0
 30
0.0
  9
$UCSORGBACK
 10
0.0
 20
0.0
 30
0.0
  9
$PUCSBASE
  2

  9
$PUCSNAME
  2

  9
$PUCSORG
 10
0.0
 20
0.0
 30
0.0
  9
$PUCSXDIR
 10
1.0
 20
0.0
 30
0.0
  9
$PUCSYDIR
 10
0.0
 20
1.0
 30
0.0
  9
$PUCSORTHOREF
  2

  9
$PUCSORTHOVIEW
 70
0
  9
$PUCSORGTOP
 10
0.0
 20
0.0
 30
0.0
  9
$PUCSORGBOTTOM
 10
0.0
 20
0.0
 30
0.0
  9
$PUCSORGLEFT
 10
0.0
 20
0.0
 30
0.0
  9
$PUCSORGRIGHT
 10
0.0
 20
0.0
 30
0.0
  9
$PUCSORGFRONT
 10
0.0
 20
0.0
 30
0.0
  9
$PUCSORGBACK
 10
0.0
 20
0.0
 30
0.0
  9
$USERI1
 70
0
  9
$USERI2
 70
0
  9
$USERI3
 70
0
  9
$USERI4
 70
0
  9
$USERI5
 70
0
  9
$USERR1
 40
0.0
  9
$USERR2
 40
0.0
  9
$USERR3
 40
0.0
  9
$USERR4
 40
0.0
  9
$USERR5
 40
0.0
  9
$WORLDVIEW
 70
1
  9
$SHADEDGE
 70
3
  9
$SHADEDIF
 70
70
  9
$TILEMODE
 70
1
  9
$MAXACTVP
 70
64
  9
$PINSBASE
 10
0.0
 20
0.0
 30
0.0
  9
$PLIMCHECK
 70
0
  9
$PEXTMIN
 10
1e+20
 20
1e+20
 30
1e+20
  9
$PEXTMAX
 10
-1e+20
 20
-1e+20
 30
-1e+20
  9
$PLIMMIN
 10
0.0
 20
0.0
  9
$PLIMMAX
 10
420.0
 20
297.0
  9
$UNITMODE
 70
0
  9
$VISRETAIN
 70
1
  9
$PLINEGEN
 70
0
  9
$PSLTSCALE
 70
1
  9
$TREEDEPTH
 70
3020
  9
$CMLSTYLE
  2
Standard
  9
$CMLJUST
 70
0
  9
$CMLSCALE
 40
20.0
  9
$PROXYGRAPHICS
 70
1
  9
$MEASUREMENT
 70
1
  9
$CELWEIGHT
370
-1
  9
$ENDCAPS
280
0
  9
$JOINSTYLE
280
0
  9
$LWDISPLAY
290
0
  9
$INSUNITS
 70
4
  9
$HYPERLINKBASE
  1

  9
$STYLESHEET
  1

  9
$XEDIT
290
1
  9
$CEPSNTYPE
380
0
  9
$PSTYLEMODE
290
1
  9
$FINGERPRINTGUID
  2
{5FFAB48C-CE15-4334-B8E1-00908DA7AC2D}
  9
$VERSIONGUID
  2
{E798D0FD-F5F9-4DBC-84CB-A2470230557F}
  9
$EXTNAMES
290
1
  9
$PSVPSCALE
 40
0.0
  9
$OLESTARTUP
290
0
  9
$SORTENTS
280
127
  9
$INDEXCTL
280
0
  9
$HIDETEXT
280
1
  9
$XCLIPFRAME
280
1
  9
$HALOGAP
280
0
  9
$OBSCOLOR
 70
257
  9
$OBSLTYPE
280
0
  9
$INTERSECTIONDISPLAY
280
0
  9
$INTERSECTIONCOLOR
 70
257
  9
$DIMASSOC
280
2
  9
$PROJECTNAME
  1

  9
$CAMERADISPLAY
290
0
  9
$LENSLENGTH
 40
50.0
  9
$CAMERAHEIGHT
 40
0.0
  9
$STEPSPERSEC
 40
24.0
  9
$STEPSIZE
 40
100.0
  9
$3DDWFPREC
 40
2.0
  9
$PSOLWIDTH
 40
0.005
  9
$PSOLHEIGHT
 40
0.08
  9
$LOFTANG1
 40
1.570796326795
  9
$LOFTANG2
 40
1.570796326795
  9
$LOFTMAG1
 40
0.0
  9
$LOFTMAG2
 40
0.0
  9
$LOFTPARAM
 70
7
  9
$LOFTNORMALS
280
1
  9
$LATITUDE
 40
37.795
  9
$LONGITUDE
 40
-122.394
  9
$NORTHDIRECTION
 40
0.0
  9
$TIMEZONE
 70
-8000
  9
$LIGHTGLYPHDISPLAY
280
1
  9
$TILEMODELIGHTSYNCH
280
1
  9
$CMATERIAL
347
20
  9
$SOLIDHIST
280
0
  9
$SHOWHIST
280
1
  9
$DWFFRAME
280
2
  9
$DGNFRAME
280
2
  9
$REALWORLDSCALE
290
1
  9
$INTERFERECOLOR
 62
256
  9
$CSHADOW
280
0
  9
$SHADOWPLANELOCATION
 40
0.0
  0
ENDSEC
  0
SECTION
  2
CLASSES
  0
CLASS
  1
ACDBDICTIONARYWDFLT
  2
AcDbDictionaryWithDefault
  3
ObjectDBX Classes
 90
0
 91
0
280
0
281
0
  0
CLASS
  1
SUN
  2
AcDbSun
  3
SCENEOE
 90
1153
 91
0
280
0
281
0
  0
CLASS
  1
VISUALSTYLE
  2
AcDbVisualStyle
  3
ObjectDBX Classes
 90
4095
 91
0
280
0
281
0
  0
CLASS
  1
MATERIAL
  2
AcDbMaterial
  3
ObjectDBX Classes
 90
1153
 91
0
280
0
281
0
  0
CLASS
  1
SCALE
  2
AcDbScale
  3
ObjectDBX Classes
 90
1153
 91
0
280
0
281
0
  0
CLASS
  1
TABLESTYLE
  2
AcDbTableStyle
  3
ObjectDBX Classes
 90
4095
 91
0
280
0
281
0
  0
CLASS
  1
MLEADERSTYLE
  2
AcDbMLeaderStyle
  3
ACDB_MLEADERSTYLE_CLASS
 90
4095
 91
0
280
0
281
0
  0
CLASS
  1
DICTIONARYVAR
  2
AcDbDictionaryVar
  3
ObjectDBX Classes
 90
0
 91
0
280
0
281
0
  0
CLASS
  1
CELLSTYLEMAP
  2
AcDbCellStyleMap
  3
ObjectDBX Classes
 90
1152
 91
0
280
0
281
0
  0
CLASS
  1
MENTALRAYRENDERSETTINGS
  2
AcDbMentalRayRenderSettings
  3
SCENEOE
 90
1024
 91
0
280
0
281
0
  0
CLASS
  1
ACDBDETAILVIEWSTYLE
  2
AcDbDetailViewStyle
  3
ObjectDBX Classes
 90
1025
 91
0
280
0
281
0
  0
CLASS
  1
ACDBSECTIONVIEWSTYLE
  2
AcDbSectionViewStyle
  3
ObjectDBX Classes
 90
1025
 91
0
280
0
281
0
  0
CLASS
  1
RASTERVARIABLES
  2
AcDbRasterVariables
  3
ISM
 90
0
 91
0
280
0
281
0
  0
CLASS
  1
LAYOUT
  2
AcDbLayout
  3
ObjectDBX Classes
 90
0
 91
0
280
0
281
0
  0
CLASS
  1
ACDBPLACEHOLDER
  2
AcDbPlaceHolder
  3
ObjectDBX Classes
 90
0
 91
0
280
0
281
0
  0
ENDSEC
  0
SECTION
  2
TABLES
  0
TABLE
  2
VPORT
  5
8
330
0
100
AcDbSymbolTable
 70
1
  0
VPORT
  5
23
330
8
100
AcDbSymbolTableRecord
100
AcDbViewportTableRecord
  2
*Active
 70
0
 10
0.0
 20
0.0
 11
1.0
 21
1.0
 12
0.0
 22
0.0
 13
0.0
 23
0.0
 14
0.5
 24
0.5
 15
0.5
 25
0.5
 16
0.0
 26
0.0
 36
1.0
 17
0.0
 27
0.0
 37
0.0
 40
1000.0
 41
1.34
 42
50.0
 43
0.0
 44
0.0
 50
0.0
 51
0.0
 71
0
 72
1000
 73
1
 74
3
 75
0
 76
0
 77
0
 78
0
281
0
 65
0
146
0.0
  0
ENDTAB
  0
TABLE
  2
LTYPE
  5
2
330
0
100
AcDbSymbolTable
 70
3
  0
LTYPE
  5
24
330
2
100
AcDbSymbolTableRecord
100
AcDbLinetypeTableRecord
  2
ByBlock
 70
0
  3

 72
65
 73
0
 40
0.0
  0
LTYPE
  5
25
330
2
100
AcDbSymbolTableRecord
100
AcDbLinetypeTableRecord
  2
ByLayer
 70
0
  3

 72
65
 73
0
 40
0.0
  0
LTYPE
  5
26
330
2
100
AcDbSymbolTableRecord
100
AcDbLinetypeTableRecord
  2
Continuous
 70
0
  3

 72
65
 73
0
 40
0.0
  0
ENDTAB
  0
TABLE
  2
LAYER
  5
1
330
0
100
AcDbSymbolTable
 70
4
  0
LAYER
  5
27
330
1
100
AcDbSymbolTableRecord
100
AcDbLayerTableRecord
  2
0
 70
0
 62
7
  6
Continuous
370
-3
390
13
347
21
  0
LAYER
  5
28
330
1
100
AcDbSymbolTableRecord
100
AcDbLayerTableRecord
  2
Defpoints
 70
0
 62
7
  6
Continuous
290
0
370
-3
390
13
347
21
  0
LAYER
  5
2F
330
1
100
AcDbSymbolTableRecord
100
AcDbLayerTableRecord
  2
CUT
 70
0
 62
1
  6
Continuous
370
-3
390
13
347
21
  0
LAYER
  5
30
330
1
100
AcDbSymbolTableRecord
100
AcDbLayerTableRecord
  2
SCORE_OPTIONAL
 70
0
 62
5
  6
Continuous
370
-3
390
13
347
21
  0
ENDTAB
  0
TABLE
  2
STYLE
  5
5
330
0
100
AcDbSymbolTable
 70
1
  0
STYLE
  5
29
330
5
100
AcDbSymbolTableRecord
100
AcDbTextStyleTableRecord
  2
Standard
 70
0
 40
0.0
 41
1.0
 50
0.0
 71
0
 42
2.5
  3
txt
  4

  0
ENDTAB
  0
TABLE
  2
VIEW
  5
7
330
0
100
AcDbSymbolTable
 70
0
  0
ENDTAB
  0
TABLE
  2
UCS
  5
6
330
0
100
AcDbSymbolTable
 70
0
  0
ENDTAB
  0
TABLE
  2
APPID
  5
3
330
0
100
AcDbSymbolTable
 70
3
  0
APPID
  5
2A
330
3
100
AcDbSymbolTableRecord
100
AcDbRegAppTableRecord
  2
ACAD
 70
0
  0
APPID
  5
3E
330
3
100
AcDbSymbolTableRecord
100
AcDbRegAppTableRecord
  2
HATCHBACKGROUNDCOLOR
 70
0
  0
APPID
  5
3F
330
3
100
AcDbSymbolTableRecord
100
AcDbRegAppTableRecord
  2
EZDXF
 70
0
  0
ENDTAB
  0
TABLE
  2
DIMSTYLE
  5
4
330
0
100
AcDbSymbolTable
 70
1
100
AcDbDimStyleTable
  0
DIMSTYLE
105
2B
330
4
100
AcDbSymbolTableRecord
100
AcDbDimStyleTableRecord
  2
Standard
 70
0
 40
1.0
 41
2.5
 42
0.625
 43
3.75
 44
1.25
 45
0.0
 46
0.0
 47
0.0
 48
0.0
 49
2.5
140
2.5
141
2.5
142
0.0
143
0.03937007874
144
1.0
145
0.0
146
1.0
147
0.625
148
0.0
 69
0
 70
0
 71
0
 72
0
 73
0
 74
0
 75
0
 76
0
 77
1
 78
8
 79
3
170
0
171
3
172
1
173
0
174
0
175
0
176
0
177
0
178
0
179
2
271
2
272
2
273
2
274
3
275
0
276
0
277
2
278
44
279
0
280
0
281
0
282
0
283
0
284
8
285
0
286
0
288
0
289
3
290
0
371
-2
372
-2
  0
ENDTAB
  0
TABLE
  2
BLOCK_RECORD
  5
9
330
0
100
AcDbSymbolTable
 70
2
  0
BLOCK_RECORD
  5
17
330
9
100
AcDbSymbolTableRecord
100
AcDbBlockTableRecord
  2
*Model_Space
340
1A
 70
0
280
1
281
0
  0
BLOCK_RECORD
  5
1B
330
9
100
AcDbSymbolTableRecord
100
AcDbBlockTableRecord
  2
*Paper_Space
340
1E
 70
0
280
1
281
0
  0
ENDTAB
  0
ENDSEC
  0
SECTION
  2
BLOCKS
  0
BLOCK
  5
18
330
17
100
AcDbEntity
  8
0
100
AcDbBlockBegin
  2
*Model_Space
 70
0
 10
0.0
 20
0.0
 30
0.0
  3
*Model_Space
  1

  0
ENDBLK
  5
19
330
17
100
AcDbEntity
  8
0
100
AcDbBlockEnd
  0
BLOCK
  5
1C
330
1B
100
AcDbEntity
  8
0
100
AcDbBlockBegin
  2
*Paper_Space
 70
0
 10
0.0
 20
0.0
 30
0.0
  3
*Paper_Space
  1

  0
ENDBLK
  5
1D
330
1B
100
AcDbEntity
  8
0
100
AcDbBlockEnd
  0
ENDSEC
  0
SECTION
  2
ENTITIES
  0
LWPOLYLINE
  5
31
330
17
100
AcDbEntity
  8
CUT
100
AcDbPolyline
 90
145
 70
1
 10
4.28771564153007
 20
65.19086303879588
 10
3.9230493513148494
 20
65.06943401160454
 10
3.5669058571031655
 20
64.92490606583262
 10
3.220746598699136
 20
64.75787227392476
 10
2.8859920454557333
 20
64.56901806137965
 10
2.564015867358986
 20
64.35911839409692
 10
2.2561392981539834
 20
64.12903459829374
 10
1.963625713643733
 20
63.87971082604062
 10
1.6876754474089246
 20
63.61217018092027
 10
1.429420865222296
 20
63.327510519707694
 10
1.1899217183698774
 20
63.0268999472996
 10
0.9701607949467705
 20
62.711572023379645
 10
0.7710398869724777
 20
62.38282070048899
 10
0.5933760898747495
 20
62.04199501427407
 10
0.4378984495270828
 20
61.69049354769986
 10
0.30524497059879074
 20
61.329758691945194
 10
0.1959599984939313
 20
60.96127072753043
 10
0.11049198562233453
 20
60.58654174996561
 10
0.049191651168875694
 20
60.207109464845445
 10
0.012310541912400552
 20
59.82453087785288
 10
0.0
 20
59.44037590556458
 10
0.0
 20
6.000001813868408
 10
0.01284646056837957
 20
5.6075829198548774
 10
0.05133083175713793
 20
5.216844423790761
 10
0.11528831758061742
 20
4.829459527903467
 10
0.2044450422655908
 20
4.447087073789575
 10
0.3184192230293661
 20
4.071364439000533
 10
0.45672280493228
 20
3.703900525540476
 10
0.6187635508038705
 20
3.346268870300918
 10
0.803847577293368
 20
3.000000906934204
 10
1.011182326184728
 20
2.6665794080195013
 10
1.2398799582525895
 20
2.3474321356029577
 10
1.4889611551261366
 20
2.043925727301442
 10
1.7573593128807152
 20
1.7573598441504572
 10
2.043925109399587
 20
1.4889616052560655
 10
2.347431425947676
 20
1.239880333082425
 10
2.666578601882386
 20
1.0111826318766646
 10
2.9999999999999987
 20
0.8038478203056485
 10
3.346267858685993
 20
0.6187637378631337
 10
3.7038994058094614
 20
0.45672294300479166
 10
4.0713632081810305
 20
0.31841931929112377
 10
4.447085729384875
 20
0.2044451040716524
 10
4.82945806790323
 20
0.11528835243359481
 10
5.216842846679691
 20
0.05133084727503956
 10
5.607581224619141
 20
0.012846464452010764
 10
6.0
 20
0.0
 10
197.2
 20
0.0
 10
197.59241877538085
 20
0.012846464452010764
 10
197.9831571533203
 20
0.05133084727503956
 10
198.37054193209676
 20
0.11528835243359481
 10
198.75291427061512
 20
0.2044451040716524
 10
199.12863679181896
 20
0.31841931929112377
 10
199.49610059419052
 20
0.45672294300479166
 10
199.853732141314
 20
0.6187637378631337
 10
200.2
 20
0.8038478203056485
 10
200.5334213981176
 20
1.0111826318766646
 10
200.8525685740523
 20
1.239880333082425
 10
201.1560748906004
 20
1.4889616052560655
 10
201.44264068711928
 20
1.7573598441504572
 10
201.71103884487385
 20
2.043925727301442
 10
201.9601200417474
 20
2.3474321356029577
 10
202.18881767381527
 20
2.6665794080195013
 10
202.39615242270662
 20
3.000000906934204
 10
202.58123644919613
 20
3.346268870300918
 10
202.74327719506772
 20
3.703900525540476
 10
202.88158077697062
 20
4.071364439000533
 10
202.99555495773438
 20
4.447087073789589
 10
203.08471168241937
 20
4.829459527903467
 10
203.14866916824286
 20
5.216844423790761
 10
203.18715353943162
 20
5.6075829198548774
 10
203.2
 20
6.000001813868408
 10
203.2
 20
59.44037590556459
 10
203.1876894580876
 20
59.824530877852894
 10
203.1508083488311
 20
60.20710946484546
 10
203.08950801437766
 20
60.58654174996562
 10
203.00404000150607
 20
60.96127072753045
 10
202.8947550294012
 20
61.3297586919452
 10
202.76210155047292
 20
61.690493547699866
 10
202.60662391012525
 20
62.04199501427408
 10
202.42896011302753
 20
62.382820700489006
 10
202.22983920505322
 20
62.711572023379645
 10
202.01007828163011
 20
63.02689994729961
 10
201.7705791347777
 20
63.3275105197077
 10
201.51232455259108
 20
63.61217018092028
 10
201.23637428635627
 20
63.87971082604063
 10
200.943860701846
 20
64.12903459829374
 10
200.635984132641
 20
64.35911839409692
 10
200.31400795454425
 20
64.56901806137967
 10
199.97925340130087
 20
64.75787227392476
 10
199.63309414289682
 20
64.92490606583263
 10
199.27695064868516
 20
65.06943401160456
 10
198.91228435846995
 20
65.1908630387959
 10
198.54059168546775
 20
65.28869486169711
 10
196.55121374349363
 20
65.73789007461596
 10
193.18926663763926
 20
66.47394749236835
 10
189.86766900975147
 20
67.17393545701657
 10
186.5176605828292
 20
67.85262689336716
 10
181.4598161369815
 20
68.8256884974446
 10
178.1202685701947
 20
69.43430654607118
 10
174.75290502567066
 20
70.02085681225098
 10
169.67027386855
 20
70.85482305401689
 10
166.31528925766446
 20
71.37161322245178
 10
162.93310442091118
 20
71.86558095953795
 10
159.54715193422203
 20
72.33302522115281
 10
156.15763979430227
 20
72.77391729252051
 10
151.043791341881
 20
73.38807768277698
 10
147.64627127699353
 20
73.76229117943095
 10
144.24592262169597
 20
74.1098646870242
 10
140.8429542570399
 20
74.43077685435799
 10
137.46100874712312
 20
74.72307511914866
 10
132.3254443162161
 20
75.11628857354448
 10
128.9384210086787
 20
75.34226822099086
 10
125.52626369515448
 20
75.54316804649889
 10
120.38184616957075
 20
75.79537255113972
 10
116.96640040765155
 20
75.92919521714073
 10
113.57351495182664
 20
76.03559985278768
 10
108.42411532900049
 20
76.14660563244908
 10
105.00628401238328
 20
76.18669727554479
 10
101.61175654989088
 20
76.19999999999999
 10
96.46124957611136
 20
76.16972352664672
 10
93.0671130916049
 20
76.11651467175777
 10
89.64998930155491
 20
76.03624478267353
 10
86.2335995923485
 20
75.92919521714073
 10
82.81815383042905
 20
75.79537255113972
 10
77.67373630484556
 20
75.54316804649889
 10
74.26157899132134
 20
75.34226822099086
 10
70.87455568378387
 20
75.11628857354448
 10
65.73899125287652
 20
74.72307511914863
 10
62.33362808953411
 20
74.42866040164508
 10
58.95407737830502
 20
74.10986468702426
 10
55.55372872300665
 20
73.76229117943096
 10
52.15620865811908
 20
73.388077682777
 10
47.04236020569762
 20
72.77391729252048
 10
43.676152758249046
 20
72.33614886903679
 10
40.290175073791836
 20
71.86888716496873
 10
35.19509612871772
 20
71.1146924695413
 10
31.818952250915288
 20
70.58099692308001
 10
28.447094974328984
 20
70.02085681225091
 10
25.102879862175648
 20
69.43843158551888
 10
21.740183863019436
 20
68.82568849744477
 10
16.6823394171715
 20
67.8526268933673
 10
13.33233099024921
 20
67.17393545701671
 10
10.010733362361355
 20
66.47394749236852
 10
6.648786256506611
 20
65.737890074616
 10
4.65940831453226
 20
65.28869486169711
  0
LWPOLYLINE
  5
32
330
17
100
AcDbEntity
  8
CUT
100
AcDbPolyline
 90
127
 70
1
 10
178.62654093426775
 20
33.064590185218
 10
178.69897537718163
 20
33.52506437649516
 10
178.8081992078897
 20
33.94979823372255
 10
178.95401314510949
 20
34.33925363443751
 10
179.04891003648265
 20
34.536977622811
 10
179.24085383492465
 20
34.85843418373245
 10
179.47667740069335
 20
35.162371497347515
 10
179.7469090222891
 20
35.433846155165504
 10
180.04982879920723
 20
35.67434020458897
 10
180.38318015336088
 20
35.88575675945392
 10
180.7442752662122
 20
36.07044103175749
 10
181.13010931810967
 20
36.23113296038263
 10
181.537447250628
 20
36.3708837268386
 10
181.9685240605676
 20
36.49445883420534
 10
182.62724535612475
 20
36.65049049106664
 10
184.00506205858272
 20
36.91643044825513
 10
183.78797955933143
 20
35.53358212115337
 10
183.60323534481526
 20
34.65052793707358
 10
183.42051643910975
 20
34.01931251389484
 10
183.27788101147476
 20
33.63885409865388
 10
183.14384401711217
 20
33.343274064563126
 10
183.10336285626616
 20
33.1919936474059
 10
183.10981235848013
 20
32.99666093366229
 10
183.1786962900359
 20
32.81376350582179
 10
183.27405094156924
 20
32.68953798738994
 10
183.43292595066737
 20
32.57571709026941
 10
183.58122102826883
 20
32.52538758641847
 10
183.69825410255976
 20
32.51386295508058
 10
187.15735460779655
 20
32.51350164636825
 10
187.37888711261886
 20
32.48914786635428
 10
187.71071771805256
 20
32.38471548420717
 10
187.91213747495627
 20
32.380366973465065
 10
188.02966651325315
 20
32.41016614634436
 10
188.13880482943895
 20
32.46298558866827
 10
188.71952189183776
 20
32.88853324734022
 10
189.16858100956796
 20
33.15608767360032
 10
189.4070806074228
 20
33.27522013663308
 10
189.84217260269517
 20
33.451702331059764
 10
190.08333425931434
 20
33.5269123655927
 10
190.53375088364078
 20
33.62477119753397
 10
190.98369252385808
 20
33.668319669418366
 10
191.43317092769152
 20
33.659765417436695
 10
191.88230598536612
 20
33.60195027635737
 10
192.331262060117
 20
33.498268846374785
 10
192.7801837285975
 20
33.352615832464956
 10
193.44625788893396
 20
33.06865039539714
 10
193.90283382689748
 20
32.834412474516704
 10
194.57324220962215
 20
32.44515718026865
 10
196.14945269136385
 20
31.413863760895133
 10
194.57324220962215
 20
30.382568729892512
 10
193.90283382689748
 20
29.99331343564446
 10
193.44625788893396
 20
29.75907551476402
 10
192.7801837285975
 20
29.475110077696208
 10
192.331262060117
 20
29.32945706378638
 10
191.88230598536612
 20
29.225775633803792
 10
191.43317092769152
 20
29.16796049272447
 10
190.98369252385808
 20
29.159406240742797
 10
190.53375088364078
 20
29.202954712627196
 10
190.08333425931434
 20
29.300813544568463
 10
189.84217260269517
 20
29.3760235791014
 10
189.4070806074228
 20
29.552505773528082
 10
189.16858100956796
 20
29.671638236560845
 10
188.71952189183776
 20
29.939192662820943
 10
188.13880482943895
 20
30.364740321492896
 10
188.02966651325315
 20
30.417559763816804
 10
187.91213747495627
 20
30.447358936696098
 10
187.71071771805256
 20
30.443010425953993
 10
187.37888711261886
 20
30.338578043806883
 10
187.15735460779655
 20
30.314224263792916
 10
183.69825410255976
 20
30.31386295508058
 10
183.54299040751724
 20
30.293425880914988
 10
183.43292595066737
 20
30.252008819891756
 10
183.27405094156924
 20
30.138187922771223
 10
183.1786962900359
 20
30.013962404339374
 10
183.10981235848013
 20
29.831064976498872
 10
183.10336285626616
 20
29.635732262755262
 10
183.14384401711217
 20
29.484451845598038
 10
183.27788101147476
 20
29.188871811507283
 10
183.42051643910975
 20
28.808413396266324
 10
183.60323534481526
 20
28.17719797308758
 10
183.78797395909683
 20
27.294175079533346
 10
184.00506205858272
 20
25.911295461906036
 10
182.40289659812603
 20
26.226912055192493
 10
181.75456342405855
 20
26.391956250914156
 10
181.33940443473406
 20
26.521524593182583
 10
180.93429752434358
 20
26.67412432838899
 10
180.56044128676908
 20
26.846448376095893
 10
180.21285984576187
 20
27.04417923187721
 10
179.90751331328647
 20
27.259518807132274
 10
179.62037150368934
 20
27.512872562244098
 10
179.47667740069335
 20
27.66535441281365
 10
179.25142880623795
 20
27.953854243746548
 10
179.1362257527325
 20
28.13380026909247
 10
178.95401314510949
 20
28.48847227572365
 10
178.8081992078897
 20
28.877927676438617
 10
178.70189707818227
 20
29.288563418858104
 10
178.62124285557502
 20
29.80715308587562
 10
178.57801245861054
 20
29.954860384331475
 10
178.49862933304755
 20
30.086711181123462
 10
178.4184281620194
 20
30.169918915724132
 10
178.3237623969417
 20
30.236207284642916
 10
178.21814407325553
 20
30.283117034518426
 10
178.02853976675547
 20
30.31386295508058
 10
168.25976901653686
 20
30.318437029464278
 10
168.04070609782553
 20
30.359439406705057
 10
167.91860964903827
 20
30.40389300236982
 10
167.72991860034767
 20
30.50802053981765
 10
167.58051495714994
 20
30.631100486569814
 10
167.4426462844179
 20
30.796821298231222
 10
167.37646551573374
 20
30.90864155950007
 10
167.3052041792848
 20
31.08068164442792
 10
167.27185141254324
 20
31.213833353068324
 10
167.25359916584526
 20
31.4285743864113
 10
167.2775915282947
 20
31.64275006769946
 10
167.33677595724944
 20
31.834745555590622
 10
167.4384101651639
 20
32.02488978473512
 10
167.57518679916527
 20
32.191552595483806
 10
167.7543828165581
 20
32.33605183700875
 10
167.94579282963986
 20
32.43509254986496
 10
168.1528468375559
 20
32.49488798210569
 10
168.360239916996
 20
32.51386295508058
 10
178.06709534812845
 20
32.51510301391468
 10
178.181172335794
 20
32.53360154944628
 10
178.28958675905213
 20
32.57362738811663
 10
178.44692819227333
 20
32.68380351105839
 10
178.52161673537998
 20
32.77199294614144
 10
178.57801245861054
 20
32.87286552582969
  0
LWPOLYLINE
  5
33
330
17
100
AcDbEntity
  8
CUT
100
AcDbPolyline
 90
86
 70
1
 10
139.76680139522085
 20
40.627034629703374
 10
149.9269950948106
 20
40.62703631689131
 10
149.92699678199858
 20
40.36516396333097
 10
149.51188187024383
 20
40.360114386763904
 10
149.27309237813606
 20
40.3106425257982
 10
149.13636095463235
 20
40.25086133204491
 10
149.03026491708243
 20
40.18386833462533
 10
148.82307813515465
 20
39.98154322398221
 10
148.66357818015163
 20
39.72470637762026
 10
148.57466249336363
 20
39.46838302889584
 10
148.55326504050748
 20
39.21143451995578
 10
148.60081208875025
 20
38.94696318095043
 10
148.70037849577264
 20
38.714305408554615
 10
151.66805835013088
 20
33.36583881764431
 10
151.791926561619
 20
33.21206981038984
 10
151.9516489950168
 20
33.09597939011865
 10
152.12654057048428
 20
33.0279605349675
 10
152.32272824628714
 20
33.00563034750019
 10
152.47961718913567
 20
33.0252510663563
 10
152.66426323038357
 20
33.095208774014104
 10
152.81701729013866
 20
33.20420338422176
 10
152.94323078539222
 20
33.35605329375298
 10
156.0313677728648
 20
38.725704163511786
 10
156.12779363810247
 20
38.93849808458271
 10
156.17414105240059
 20
39.182443949033264
 10
156.15254534327082
 20
39.43362382727338
 10
156.0569501216911
 20
39.71024958873769
 10
155.90559709669253
 20
39.95696774607372
 10
155.80061418498713
 20
40.07467551044137
 10
155.68216699139853
 20
40.17741615654081
 10
155.5655664535937
 20
40.25241915181251
 10
155.43803015896583
 20
40.309719422982056
 10
155.19673771953123
 20
40.361102930519216
 10
154.79856236055454
 20
40.36516227614303
 10
154.79856067336658
 20
40.627034629703374
 10
161.35218515911058
 20
40.627036316891314
 10
161.35218684629848
 20
40.36516396333097
 10
160.81526177267304
 20
40.35924852950904
 10
160.45814650788202
 20
40.313248185704765
 10
160.03763154352708
 20
40.193576354596416
 10
159.6620265005051
 20
40.02118617957642
 10
159.34792532574505
 20
39.825912487524086
 10
159.05194634223906
 20
39.60454961427709
 10
158.76871685958116
 20
39.350665694833246
 10
158.53809545347352
 20
39.099235407625436
 10
158.31989944062803
 20
38.80253382238676
 10
153.28802642452553
 20
30.895304797082822
 10
153.2089835430259
 20
30.73470896604325
 10
153.17608128505987
 20
30.606856291587988
 10
153.16570107091104
 20
30.47523245868851
 10
153.16571397359613
 20
24.124699824692676
 10
153.17673917914868
 20
23.92395921422184
 10
153.20816226256878
 20
23.740318207242623
 10
153.2935657057043
 20
23.480480616536482
 10
153.4245988833518
 20
23.239337193528932
 10
153.6010791925374
 20
23.016618597201806
 10
153.81728180608832
 20
22.817479342687548
 10
154.10079281853146
 20
22.636065958778985
 10
154.4150105195054
 20
22.51743352229056
 10
154.71198419722734
 20
22.468506235789647
 10
155.16573431784215
 20
22.46256363401813
 10
155.1657360050301
 20
22.200691280457796
 10
145.7426513418468
 20
22.200689593269864
 10
145.7426496546588
 20
22.462561946830192
 10
146.21450371781455
 20
22.467925282554454
 10
146.51009287809157
 20
22.5153197481228
 10
146.81575846738315
 20
22.629251656217505
 10
147.10132380920197
 20
22.812265449260195
 10
147.31902150976921
 20
23.016758954200675
 10
147.49958212451745
 20
23.24987331330935
 10
147.63322023069296
 20
23.500190625792996
 10
147.72377951082225
 20
23.77804717657206
 10
147.76900991150669
 20
24.14836983866354
 10
147.76900991150669
 20
30.45527704641885
 10
147.73155825527033
 20
30.69824935825571
 10
147.6534466053272
 20
30.865690752586644
 10
142.88674252650085
 20
38.6588736116202
 10
142.555893271147
 20
39.112779695803454
 10
142.3188615458892
 20
39.37798805904429
 10
142.06358527351858
 20
39.611133076035294
 10
141.74054124646847
 20
39.854957234394845
 10
141.43933347864487
 20
40.03956724141543
 10
141.05898145228338
 20
40.20804949901987
 10
140.6673502988936
 20
40.314526322701774
 10
140.30901810308006
 20
40.359237861401645
 10
139.76680308240876
 20
40.36516227614303
  0
LWPOLYLINE
  5
34
330
17
100
AcDbEntity
  8
CUT
100
AcDbPolyline
 90
64
 70
1
 10
154.88740079933626
 20
62.909919535008854
 10
154.89991968274572
 20
62.6649081909334
 10
154.88836297301523
 20
62.419849578296365
 10
154.85284196757704
 20
62.1771037454996
 10
154.79369875313137
 20
61.93900846761212
 10
154.71150291116413
 20
61.70785673231527
 10
154.6070460325667
 20
61.485874657181284
 10
154.48133409418057
 20
61.275200050939034
 10
154.33557777069467
 20
61.07786182521549
 10
154.17118077518344
 20
60.895760455001
 10
153.98972634058137
 20
60.730649676036116
 10
153.7929619722864
 20
60.584119595380855
 10
153.58278261872707
 20
60.45758137781327
 10
153.36121242197532
 20
60.35225365554225
 10
153.13038522414735
 20
60.269150792110665
 10
152.8925240173424
 20
60.20907311352241
 10
152.64991953500888
 20
60.17259920066371
 10
152.40490819093358
 20
60.160080317254256
 10
152.15984957829625
 20
60.17163702698473
 10
151.9171037454997
 20
60.20715803242291
 10
151.67900846761148
 20
60.266301246868785
 10
151.44785673231482
 20
60.348497088836
 10
151.22587465718036
 20
60.45295396743372
 10
151.01520005093937
 20
60.57866590581915
 10
150.81786182521654
 20
60.72442222930444
 10
150.63576045500085
 20
60.888819224816615
 10
150.47064967603566
 20
61.07027365941913
 10
150.32411959538115
 20
61.267038027713156
 10
150.19758137781304
 20
61.47721738127327
 10
150.09225365554187
 20
61.69878757802552
 10
150.0091507921106
 20
61.92961477585273
 10
149.94907311352222
 20
62.16747598265836
 10
149.9125992006637
 20
62.41008046499108
 10
149.90008031725424
 20
62.655091809066576
 10
149.91163702698472
 20
62.900150421703614
 10
149.94715803242292
 20
63.14289625450038
 10
150.00630124686867
 20
63.38099153238817
 10
150.08849708883608
 20
63.612143267685404
 10
150.19295396743416
 20
63.834125342820464
 10
150.31866590581853
 20
64.04479994905965
 10
150.4644222293052
 20
64.24213817478437
 10
150.62881922481643
 20
64.42423954499891
 10
150.81027365941836
 20
64.58935032396369
 10
151.00703802771434
 20
64.73588040461968
 10
151.21721738127238
 20
64.86241862218644
 10
151.43878757802463
 20
64.96774634445774
 10
151.6696147758521
 20
65.05084920788916
 10
151.90747598265756
 20
65.11092688647757
 10
152.15008046499096
 20
65.14740079933625
 10
152.3950918090664
 20
65.15991968274572
 10
152.6401504217036
 20
65.14836297301525
 10
152.88289625450028
 20
65.11284196757707
 10
153.12099153238808
 20
65.05369875313131
 10
153.35214326768502
 20
64.97150291116404
 10
153.57412534281926
 20
64.86704603256644
 10
153.78479994906058
 20
64.74133409418081
 10
153.98213817478359
 20
64.5955777706954
 10
154.164239544998
 20
64.43118077518443
 10
154.32935032396364
 20
64.2497263405816
 10
154.47588040461923
 20
64.05296197228624
 10
154.60241862218635
 20
63.84278261872774
 10
154.70774634445755
 20
63.62121242197572
 10
154.79084920788918
 20
63.390385224147806
 10
154.8509268864777
 20
63.15252401734174
  0
LWPOLYLINE
  5
35
330
17
100
AcDbEntity
  8
CUT
100
AcDbPolyline
 90
61
 70
1
 10
123.83998114429582
 20
40.627034629703374
 10
133.28939113020792
 20
40.62703631689131
 10
133.28939281739585
 20
40.365163963330964
 10
132.79742922101707
 20
40.358271903009
 10
132.47785321190244
 20
40.30040570516133
 10
132.1552198847839
 20
40.16627346205871
 10
131.99933826997867
 20
40.06737284880615
 10
131.85726142364243
 20
39.95359938302557
 10
131.62570505637544
 20
39.70799233434764
 10
131.4580552667973
 20
39.45141818603754
 10
131.33888591835282
 20
39.1637004762552
 10
131.27474050665865
 20
38.8561074514838
 10
131.26303256054803
 20
38.67935607149762
 10
131.26303256054803
 20
24.302409812450115
 10
131.29713320159337
 20
24.070308049968475
 10
131.40087135858352
 20
23.85994787726014
 10
131.5724273959356
 20
23.68613544668792
 10
131.7907491513465
 20
23.576692100214586
 10
132.02285091382922
 20
23.542591459168875
 10
134.58260943945444
 20
23.54324541663305
 10
135.04351074160599
 20
23.56952264603472
 10
135.47128411791547
 20
23.630709216269146
 10
135.89307298659142
 20
23.72851051183693
 10
136.30386285114258
 20
23.862386484257577
 10
136.69672811038308
 20
24.029017005018467
 10
137.23534947465578
 20
24.324740086506928
 10
137.73617726870955
 20
24.680357414356962
 10
138.15335326262604
 20
25.048694164440732
 10
138.59251297844958
 20
25.523878021568635
 10
138.82558731259206
 20
25.820357443760784
 10
139.0456299769901
 20
26.138326500112512
 10
139.24516602612758
 20
26.468119735621904
 10
139.42937410148008
 20
26.817641169976156
 10
139.71908662003463
 20
27.492028764592725
 10
139.85441152697638
 20
27.884917321216236
 10
139.9772439480343
 20
28.306777679783124
 10
140.2391314782543
 20
28.306768489408107
 10
139.23904699816242
 20
22.20066681205852
 10
123.83998283148374
 20
22.200689593269864
 10
123.83998114429582
 20
22.462561946830206
 10
124.31988172001927
 20
22.4685043433741
 10
124.6388637381413
 20
22.523734054787766
 10
124.81041015305247
 20
22.582604314744756
 10
124.96650707071268
 20
22.657231447278626
 10
125.25686506473025
 20
22.860725510762542
 10
125.48632726015798
 20
23.09803086106102
 10
125.66740178971651
 20
23.368960057335748
 10
125.7867887847243
 20
23.65212668401874
 10
125.85371047314176
 20
23.963969189272852
 10
125.86634140114366
 20
24.148369838663328
 10
125.86634140114366
 20
38.67935607149784
 10
125.82557466447123
 20
39.02989944995924
 10
125.72218089937414
 20
39.346784390948784
 10
125.54866333133904
 20
39.64831294807908
 10
125.32205227675858
 20
39.90755974335908
 10
125.16776739486647
 20
40.039509578440246
 10
125.01386477770664
 20
40.14343032399925
 10
124.85207919175024
 20
40.22728596428441
 10
124.68248037051346
 20
40.29114210648762
 10
124.33998274030121
 20
40.357584707303396
 10
123.83998283148374
 20
40.36516227614304
  0
LWPOLYLINE
  5
36
330
17
100
AcDbEntity
  8
CUT
100
AcDbPolyline
 90
48
 70
1
 10
111.33919028465601
 20
40.627034629703374
 10
120.78860027056811
 20
40.62703631689131
 10
120.78860195775606
 20
40.36516396333097
 10
120.3087013820322
 20
40.35922156678705
 10
119.98971936391024
 20
40.30399185537331
 10
119.81817294899946
 20
40.24512159541644
 10
119.66207603133934
 20
40.17049446288263
 10
119.37171803732156
 20
39.96700039939858
 10
119.14225584189374
 20
39.72969504909995
 10
118.96118131233568
 20
39.45876585282603
 10
118.84179431732791
 20
39.175599226143454
 10
118.77487262891012
 20
38.863756720888404
 10
118.7622417009082
 20
38.67935607149784
 10
118.7622417009082
 20
24.14836983866332
 10
118.80300843758052
 20
23.79782646020255
 10
118.90640220267788
 20
23.480941519212045
 10
119.07991977071275
 20
23.179412962082182
 10
119.30653082529345
 20
22.92016616680194
 10
119.46081570718584
 20
22.78821633172059
 10
119.61471832434503
 20
22.684295586162037
 10
119.77650391030221
 20
22.600439945876495
 10
119.94610273153863
 20
22.53658380367348
 10
120.28860036175037
 20
22.470141202857796
 10
120.78860027056811
 20
22.46256363401814
 10
120.78860195775606
 20
22.20069128045779
 10
111.33919197184393
 20
22.200689593269864
 10
111.33919028465601
 20
22.462561946830206
 10
111.81909086037946
 20
22.4685043433741
 10
112.13807287850149
 20
22.523734054787766
 10
112.30961929341267
 20
22.582604314744756
 10
112.46571621107287
 20
22.657231447278626
 10
112.75607420509044
 20
22.860725510762542
 10
112.98553640051817
 20
23.09803086106102
 10
113.1666109300767
 20
23.368960057335748
 10
113.28599792508449
 20
23.65212668401874
 10
113.35291961350195
 20
23.963969189272852
 10
113.36555054150385
 20
24.148369838663328
 10
113.36555054150385
 20
38.67935607149784
 10
113.32478380483143
 20
39.02989944995924
 10
113.22139003973433
 20
39.346784390948784
 10
113.04787247169924
 20
39.64831294807908
 10
112.82126141711878
 20
39.90755974335908
 10
112.66697653522667
 20
40.039509578440246
 10
112.51307391806684
 20
40.14343032399925
 10
112.35128833211043
 20
40.22728596428441
 10
112.18168951087365
 20
40.29114210648762
 10
111.8391918806614
 20
40.357584707303396
 10
111.33919197184393
 20
40.36516227614304
  0
LWPOLYLINE
  5
37
330
17
100
AcDbEntity
  8
CUT
100
AcDbPolyline
 90
91
 70
1
 10
81.46368642400708
 20
22.4625619468302
 10
81.98998754515634
 20
22.465788557135234
 10
82.28985314288663
 20
22.501175264180894
 10
82.63285826072809
 20
22.600423234669286
 10
82.94073852332332
 20
22.753638468733385
 10
83.22928416036522
 20
22.96591020928375
 10
83.46084727152888
 20
23.219052044889473
 10
83.63604004323636
 20
23.515905772808438
 10
83.75534180046746
 20
23.856469543914102
 10
83.80659473124109
 20
24.12644080769787
 10
86.12317445582667
 20
40.99559008004208
 10
86.35015418487968
 20
40.99614204593734
 10
86.36990611144762
 20
40.982074305753194
 10
94.59128943682316
 20
29.75274363264348
 10
94.725786425554
 20
29.621411134075345
 10
94.86148118876127
 20
29.53971535413747
 10
95.0016745782784
 20
29.490621468173018
 10
95.18848244507194
 20
29.469633708361677
 10
95.34573899051361
 20
29.488545295743492
 10
95.52224454250414
 20
29.55322493144488
 10
95.65448669678324
 20
29.640398791363708
 10
95.78350323955604
 20
29.777118931975735
 10
103.30347180250772
 20
40.982059038919864
 10
103.32213493182026
 20
40.99614933531728
 10
103.54934608091968
 20
40.99560069578468
 10
105.94300313348803
 20
24.13966722137028
 10
105.99030691020016
 20
23.908312855630044
 10
106.0969437909976
 20
23.590668571583684
 10
106.25246033486896
 20
23.299065585635475
 10
106.44742952413307
 20
23.053392420002012
 10
106.6848956898195
 20
22.845211836033975
 10
107.01907095721508
 20
22.645251850995372
 10
107.19398029148041
 20
22.57381554992879
 10
107.3868536520429
 20
22.51747713128138
 10
107.72894929213102
 20
22.467570434571222
 10
108.28780941092833
 20
22.46256363401813
 10
108.28781109811625
 20
22.200691280457796
 10
98.94370240311933
 20
22.200689593269864
 10
98.94370071593141
 20
22.436236624101397
 10
99.39896375223474
 20
22.437705058781177
 10
99.57339230268346
 20
22.460748656718877
 10
99.78773973302981
 20
22.54252043771845
 10
99.98869014286987
 20
22.68824590394469
 10
100.15644719558699
 20
22.878683927770368
 10
100.28494932712857
 20
23.093809296114948
 10
100.36277499675023
 20
23.318690324177474
 10
100.39010284202001
 20
23.5465487888925
 10
99.63488843677035
 20
29.357534659800045
 10
99.5433513181654
 20
29.583584568797278
 10
99.3840950015689
 20
29.768287116327755
 10
99.17397620457054
 20
29.89209219129763
 10
99.0710198869723
 20
29.923621605689746
 10
98.92546041209565
 20
29.94224494822347
 10
98.74058176440933
 20
29.92463237505099
 10
98.59223307387953
 20
29.874855682212655
 10
98.43414797351441
 20
29.777390723656055
 10
98.29904021007245
 20
29.636203297812187
 10
94.92842943806035
 20
24.64148591818023
 10
94.62550180987063
 20
24.147805982282343
 10
94.45911010442963
 20
23.854953730512648
 10
94.27729884749749
 20
23.4867446011676
 10
94.07928573107837
 20
23.02577766945113
 10
93.96966478888723
 20
22.72396519071389
 10
93.89095788046379
 20
22.433999713016426
 10
93.8415226430695
 20
22.16716257148049
 10
93.81242260912559
 20
21.87563605949265
 10
93.80883772720831
 20
21.568908143837284
 10
93.56723948616265
 20
21.575916502631436
 10
87.82611788218574
 20
29.52331782333654
 10
87.72599674318487
 20
29.628401022148523
 10
87.57333756584987
 20
29.730566310736187
 10
87.43801532658861
 20
29.783050715170226
 10
87.28546643508506
 20
29.809175174350933
 10
87.1499946292636
 20
29.805880100617657
 10
87.00809393434083
 20
29.775369218497033
 10
86.79305785505817
 20
29.666041075081658
 10
86.68479660942623
 20
29.56936520507572
 10
86.61834454391635
 20
29.486141700705573
 10
86.54802714748848
 20
29.35916853461501
 10
86.50562084126969
 20
29.23046277376379
 10
85.80667508098948
 20
23.618197385735392
 10
85.8231908102007
 20
23.37632206403694
 10
85.89141081515865
 20
23.141951927735278
 10
86.0139533717217
 20
22.917086106407993
 10
86.18566698875522
 20
22.71043407505669
 10
86.38857002103735
 20
22.554431748769446
 10
86.60839475944856
 20
22.46461034205666
 10
86.79797617996499
 20
22.437724555634283
 10
87.25387655061577
 20
22.43623831128933
 10
87.25387823780369
 20
22.20069128045779
 10
81.47226544402797
 20
22.200128590280315
  0
LWPOLYLINE
  5
38
330
17
100
AcDbEntity
  8
CUT
100
AcDbPolyline
 90
45
 70
1
 10
66.98691841267909
 20
39.83033076095666
 10
67.29462886852778
 20
40.69862871263742
 10
67.3694745777199
 20
40.99357662091829
 10
67.40962940612307
 20
41.25885700950271
 10
67.64548866388144
 20
41.258823747231276
 10
76.06532227773619
 20
23.795327318269905
 10
76.22398804354492
 20
23.550007285927755
 10
76.41291106154608
 20
23.310684634072857
 10
76.60941462689642
 20
23.11222463448359
 10
76.8217448687881
 20
22.94606348967445
 10
77.23822068115464
 20
22.70533592269733
 10
77.62416620785085
 20
22.55155230271688
 10
77.99038027048513
 20
22.47535604477629
 10
78.41230555027937
 20
22.46256363401813
 10
78.41230723746732
 20
22.200691280457796
 10
68.43639079697917
 20
22.200689593269864
 10
68.43638910979124
 20
22.4625619468302
 10
68.80011048706007
 20
22.469939482270796
 10
69.05237234651948
 20
22.525002438003938
 10
69.31346847194936
 20
22.650997068669625
 10
69.55733627029777
 20
22.846768840091833
 10
69.68915861555412
 20
23.000253787643743
 10
69.77734033657876
 20
23.171527167417217
 10
69.82324841202336
 20
23.370655199374035
 10
69.825150078117
 20
23.56493210662645
 10
69.77533120122287
 20
23.836092389922563
 10
69.62553651747788
 20
24.297044652571465
 10
68.86143683070564
 20
26.118941231624405
 10
68.80633935118811
 20
26.222375962750526
 10
68.71606564285884
 20
26.337638221866726
 10
68.52171119453982
 20
26.484029030560308
 10
68.29070815464854
 20
26.56045884158035
 10
66.98392376782927
 20
26.570313464052937
 10
66.9839208007968
 20
27.535869184883175
 10
67.1890697565122
 20
27.55407928723114
 10
67.39675932577308
 20
27.613153372853354
 10
67.5889023788581
 20
27.71167114750851
 10
67.75809132137688
 20
27.845834505029565
 10
67.89780349720691
 20
28.010471113038854
 10
68.00265265317171
 20
28.199233819274163
 10
68.06859659254829
 20
28.404845350155774
 10
68.0930930118413
 20
28.619378867848866
 10
68.0751975129306
 20
28.83456356965312
 10
68.01414399171253
 20
29.045936034610264
 10
66.98393709132914
 20
31.51274719321541
  0
LWPOLYLINE
  5
39
330
17
100
AcDbEntity
  8
CUT
100
AcDbPolyline
 90
42
 70
1
 10
57.353428240965705
 20
22.4625619468302
 10
57.73192478212667
 20
22.46874657608184
 10
58.033426554922286
 20
22.514733315014055
 10
58.353318700530004
 20
22.61230009081322
 10
58.70565741933119
 20
22.77423056275242
 10
59.0022252747833
 20
22.953512801032524
 10
59.250734857284
 20
23.157695162601733
 10
59.47693135477238
 20
23.40338021153729
 10
59.696835286350705
 20
23.713091759756367
 10
64.78132718836704
 20
34.86145758884228
 10
64.78126888889592
 20
31.455426706813974
 10
63.744615769066904
 20
29.05870888485262
 10
63.68064402380629
 20
28.846729562645734
 10
63.660333446356915
 20
28.63037084776171
 10
63.68296391301435
 20
28.414242471462842
 10
63.74765174994829
 20
28.206783808554718
 10
63.851871028307485
 20
28.016095699116825
 10
63.991552196619274
 20
27.849624127124173
 10
64.16124098852238
 20
27.71386946987331
 10
64.3543114008063
 20
27.614132671432003
 10
64.56322442540053
 20
27.55430825152215
 10
64.7813012181833
 20
27.53595981834929
 10
64.7813026019344
 20
26.570314847804042
 10
63.45115705147721
 20
26.56568234279657
 10
63.31906044645472
 20
26.53992192047732
 10
63.185126828017495
 20
26.486616354835675
 10
62.99231909675199
 20
26.344384608880773
 10
62.90185373211013
 20
26.232153974576704
 10
62.84591054496742
 20
26.13123502762894
 10
62.04312245567463
 20
24.311042869709368
 10
61.89203942822157
 20
23.873015605376594
 10
61.842070979214654
 20
23.640868907438275
 10
61.83788159410994
 20
23.423569488174962
 10
61.88025960038624
 20
23.22840467089725
 10
61.978927953106215
 20
23.01864776906448
 10
62.11712169530282
 20
22.83839706082729
 10
62.33280395226378
 20
22.665979501340004
 10
62.630468643613845
 20
22.524530312539554
 10
62.877949491922635
 20
22.469102729175347
 10
63.2225943357608
 20
22.462563634018125
 10
63.22259602294874
 20
22.200691280457804
 10
57.36200726098667
 20
22.200128590280315
  0
LWPOLYLINE
  5
3A
330
17
100
AcDbEntity
  8
CUT
100
AcDbPolyline
 90
106
 70
1
 10
41.847813153701495
 20
40.627034629703374
 10
53.72430314184829
 20
40.632680250419206
 10
54.474141440305694
 20
40.68604035027855
 10
55.40378652514105
 20
40.81233629386613
 10
56.17533830398276
 20
40.9587737158746
 10
56.43689827450341
 20
41.02773481467122
 10
56.64126818985822
 20
41.10053676208429
 10
56.64126534074831
 20
35.679256517604266
 10
56.37939287933299
 20
35.67925640974929
 10
56.35990014347225
 20
36.33211077184621
 10
56.32351333387397
 20
36.63230911930328
 10
56.267568713039715
 20
36.919905420498864
 10
56.18758253378306
 20
37.207936422268666
 10
56.092290167974525
 20
37.46507670997632
 10
55.86646455036278
 20
37.901946634573584
 10
55.60226080564857
 20
38.26026447734641
 10
55.30294396848933
 20
38.55554222654444
 10
54.9332516218456
 20
38.81855329627557
 10
54.5265714282623
 20
39.021664672726786
 10
54.03101495223175
 20
39.182529658664784
 10
53.71110347040156
 20
39.247875233703276
 10
53.44681865834132
 20
39.28258834759372
 10
49.99144367272422
 20
39.284171310541694
 10
49.752235028304376
 20
39.23496298392782
 10
49.54911005296297
 20
39.117688724735316
 10
49.40870336798871
 20
38.967778032900306
 10
49.30212196206975
 20
38.74804492459465
 10
49.2708645699537
 20
38.52531609771118
 10
49.2718277104043
 20
32.66094851242705
 10
49.30212196206981
 20
32.47745893605403
 10
49.362086358321456
 20
32.3326920773639
 10
49.470411811268214
 20
32.18152408284998
 10
49.62086689577579
 20
32.05639490953089
 10
49.79858116075207
 20
31.974470050702358
 10
49.99144367272422
 20
31.94133255010722
 10
52.240524949181086
 20
31.943955472019297
 10
52.57446703464068
 20
31.97589811311599
 10
52.89812680314271
 20
32.040537304614865
 10
53.19239501133247
 20
32.13293707541162
 10
53.48162228691755
 20
32.26061562326537
 10
53.77170079622102
 20
32.43266114049532
 10
54.07030457025096
 20
32.66622750231455
 10
54.31582935421583
 20
32.91285525583652
 10
54.54520487878646
 20
33.21154576033984
 10
54.74493827447516
 20
33.57439964163853
 10
54.89304193296405
 20
33.99974828916803
 10
54.96731330922616
 20
34.42179244741137
 10
54.98414919537355
 20
34.94076492028221
 10
55.24602165678887
 20
34.94076502813719
 10
55.246023236121815
 20
27.62370776259094
 10
54.98415088256147
 20
27.623706075403014
 10
54.96560576842425
 20
28.112568400443962
 10
54.93207860223835
 20
28.35209597220708
 10
54.87703542009189
 20
28.597328839763072
 10
54.80799768096007
 20
28.816067218228483
 10
54.71830387284092
 20
29.032875175030227
 10
54.610230924690796
 20
29.239560307542163
 10
54.48381748032299
 20
29.43614149718831
 10
54.24107975741378
 20
29.732280718645868
 10
53.94714421534262
 20
30.004318652915643
 10
53.62505536353028
 20
30.227337375760882
 10
53.282868947226845
 20
30.397768180892022
 10
53.051379197813525
 20
30.48156464792514
 10
52.81772189395342
 20
30.54422677729619
 10
52.309524701900536
 20
30.616636663996132
 10
49.95226483821924
 20
30.620572216283406
 10
49.752235028304376
 20
30.57393180615206
 10
49.549110052963016
 20
30.45665754695959
 10
49.40870336798879
 20
30.306746855124658
 10
49.30496521099947
 20
30.096386682418228
 10
49.2708645699537
 20
29.86428491993542
 10
49.2708645699537
 20
24.148369838662923
 10
49.28606142976517
 20
23.943793921515287
 10
49.32514855787771
 20
23.740825972200305
 10
49.41502507172314
 20
23.480941519212585
 10
49.55148212959166
 20
23.232862818922847
 10
49.7412217211528
 20
22.994767893896892
 10
49.953096617912806
 20
22.800804008619963
 10
50.23203102723724
 20
22.625326092395284
 10
50.542445682740535
 20
22.512126970172076
 10
50.825370763645225
 20
22.467925282554496
 10
51.297223139613635
 20
22.46256363401813
 10
51.29722482680156
 20
22.20069128045779
 10
41.84781484088943
 20
22.200689593269864
 10
41.847813153701495
 20
22.462561946830206
 10
42.32771372942525
 20
22.46850434337412
 10
42.64669574754703
 20
22.52373405478778
 10
42.81824216245826
 20
22.5826043147448
 10
42.97433908011836
 20
22.657231447278626
 10
43.26469707413578
 20
22.8607255107624
 10
43.4941592695638
 20
23.098030861061197
 10
43.6752337991218
 20
23.368960057334988
 10
43.79462079412976
 20
23.652126684018093
 10
43.86154248254741
 20
23.963969189272476
 10
43.87417341054935
 20
24.14836983866293
 10
43.87417341054935
 20
38.67935607149823
 10
43.83340667387696
 20
39.02989944995909
 10
43.730012908779884
 20
39.346784390948656
 10
43.55649534074492
 20
39.648312948078825
 10
43.32988428616377
 20
39.90755974335956
 10
43.17559940427154
 20
40.03950957844073
 10
43.02169678711299
 20
40.143430323998864
 10
42.85991120115529
 20
40.22728596428469
 10
42.69031237991861
 20
40.29114210648779
 10
42.34781474970675
 20
40.35758470730341
 10
41.847814840889434
 20
40.36516227614303
  0
LWPOLYLINE
  5
3B
330
17
100
AcDbEntity
  8
CUT
100
AcDbPolyline
 90
64
 70
1
 10
53.29424615176175
 20
62.828400252195465
 10
53.298741785945175
 20
62.58311048387937
 10
53.279173170778755
 20
62.338561203634995
 10
53.235728762723824
 20
62.09710755471614
 10
53.168826955179064
 20
61.86107486775363
 10
53.079112049123424
 20
61.63273626655166
 10
52.9674480481455
 20
61.41429077666252
 10
52.83491033761595
 20
61.20784214756744
 10
52.68277532814015
 20
61.01537859242178
 10
52.51250816302477
 20
60.83875364047273
 10
52.325748608147364
 20
60.679668286560506
 10
52.12429526011428
 20
60.53965460960798
 10
51.91008822479287
 20
60.420061017863645
 10
51.68519043303088
 20
60.32203926299255
 10
51.45176777350429
 20
60.2465333480781
 10
51.21206823402648
 20
60.19427043635679
 10
50.96840025219553
 20
60.16575384823824
 10
50.72311048387914
 20
60.16125821405481
 10
50.47856120363484
 20
60.180826829221246
 10
50.237107554716225
 20
60.22427123727614
 10
50.001074867753616
 20
60.29117304482093
 10
49.77273626655169
 20
60.380887950876556
 10
49.55429077666223
 20
60.49255195185466
 10
49.34784214756754
 20
60.62508966238397
 10
49.15537859242204
 20
60.777224671859614
 10
48.97875364047296
 20
60.94749183697498
 10
48.819668286560315
 20
61.13425139185287
 10
48.67965460960786
 20
61.33570473988591
 10
48.56006101786365
 20
61.54991177520712
 10
48.46203926299255
 20
61.77480956696913
 10
48.386533348078075
 20
62.0082322264958
 10
48.33427043635684
 20
62.247931765973284
 10
48.30575384823825
 20
62.49159974780451
 10
48.30125821405482
 20
62.73688951612061
 10
48.32082682922123
 20
62.98143879636492
 10
48.36427123727617
 20
63.22289244528384
 10
48.43117304482085
 20
63.45892513224612
 10
48.52088795087663
 20
63.68726373344845
 10
48.632551951854715
 20
63.90570922333785
 10
48.76508966238404
 20
64.11215785243255
 10
48.91722467185973
 20
64.30462140757807
 10
49.0874918369752
 20
64.48124635952723
 10
49.27425139185278
 20
64.6403317134396
 10
49.47570473988582
 20
64.78034539039207
 10
49.68991177520712
 20
64.89993898213633
 10
49.914809566969105
 20
64.99796073700743
 10
50.14823222649551
 20
65.07346665192182
 10
50.38793176597343
 20
65.12572956364318
 10
50.631599747804415
 20
65.15424615176173
 10
50.87688951612086
 20
65.15874178594517
 10
51.12143879636496
 20
65.13917317077875
 10
51.36289244528375
 20
65.09572876272384
 10
51.59892513224638
 20
65.02882695517904
 10
51.827263733448305
 20
64.93911204912342
 10
52.04570922333767
 20
64.82744804814537
 10
52.25215785243261
 20
64.6949103376159
 10
52.4446214075781
 20
64.54277532814024
 10
52.621246359527284
 20
64.37250816302473
 10
52.78033171343953
 20
64.18574860814729
 10
52.920345390392136
 20
63.98429526011407
 10
53.039938982136384
 20
63.77008822479278
 10
53.13796073700755
 20
63.545190433030584
 10
53.213466651921856
 20
63.3117677735044
 10
53.26572956364319
 20
63.07206823402652
  0
LWPOLYLINE
  5
3C
330
17
100
AcDbEntity
  8
CUT
100
AcDbPolyline
 90
127
 70
1
 10
7.0581407891784815
 20
31.419322017202546
 10
8.626757790378253
 20
32.44515718026891
 10
9.297166173102847
 20
32.83441247451689
 10
9.753742111065861
 20
33.06865039539706
 10
10.419816271402297
 20
33.35261583246489
 10
10.868737939883003
 20
33.49826884637479
 10
11.31769401463378
 20
33.60195027635736
 10
11.766829072308463
 20
33.659765417436695
 10
12.216307476141928
 20
33.668319669418366
 10
12.666249116359298
 20
33.62477119753395
 10
13.116665740685823
 20
33.52691236559266
 10
13.357827397304746
 20
33.45170233105979
 10
13.792919392577287
 20
33.27522013663303
 10
14.031418990432076
 20
33.15608767360029
 10
14.48047810816237
 20
32.88853324734012
 10
15.061195170561037
 20
32.462985588668275
 10
15.170333486746832
 20
32.41016614634436
 10
15.287862525043714
 20
32.38036697346507
 10
15.489282281947412
 20
32.38471548420716
 10
15.821112887381178
 20
32.489147866354294
 10
16.04264539220345
 20
32.51350164636825
 10
19.501745897440234
 20
32.51386295508058
 10
19.61877897173115
 20
32.52538758641847
 10
19.73131616923693
 20
32.55951875667386
 10
19.897294023205948
 20
32.66270701729052
 10
20.021303709964087
 20
32.8137635058218
 10
20.090187641519858
 20
32.996660933662305
 10
20.096637143733844
 20
33.191993647405916
 10
20.0561559828878
 20
33.34327406456315
 10
19.922118988525266
 20
33.638854098653795
 10
19.77948356089018
 20
34.01931251389503
 10
19.59676465518498
 20
34.65052793707247
 10
19.412026040903246
 20
35.533550830627235
 10
19.194937941417244
 20
36.91643044825513
 10
20.797103401873546
 20
36.60081385496876
 10
21.44543657594071
 20
36.43576965924721
 10
21.860595565266323
 20
36.30620131697845
 10
22.26570247565672
 20
36.15360158177204
 10
22.639558713231125
 20
35.981277534065164
 10
22.98714015423798
 20
35.78354667828405
 10
23.292486686713627
 20
35.568207103028804
 10
23.579628496310644
 20
35.314853347917065
 10
23.72332259930645
 20
35.162371497347756
 10
23.948571193762053
 20
34.87387166641461
 10
24.063774247267723
 20
34.69392564106826
 10
24.24598685489061
 20
34.33925363443724
 10
24.39180079211023
 20
33.94979823372276
 10
24.498102921817566
 20
33.53916249130369
 10
24.578757144424955
 20
33.020572824285544
 10
24.62198754138944
 20
32.87286552582969
 10
24.678383264619992
 20
32.77199294614144
 10
24.78157183798058
 20
32.65780699443703
 10
24.876237603058286
 20
32.59151862551825
 10
24.98185592674446
 20
32.54460887564274
 10
25.171460233244513
 20
32.51386295508058
 10
34.969512166999316
 20
32.50640493583845
 10
35.16638423261719
 20
32.466324344764985
 10
35.36557475974596
 20
32.383816926932
 10
35.54484149803584
 20
32.26403472191722
 10
35.68754355092675
 20
32.12260916516713
 10
35.76552571791687
 20
32.01867434614321
 10
35.86587172702518
 20
31.82788169221083
 10
35.92814858745671
 20
31.61389255709306
 10
35.94640083415471
 20
31.39915152374943
 10
35.922408471705324
 20
31.184975842461775
 10
35.86322404275038
 20
30.992980354570157
 10
35.76158983483599
 20
30.802836125425934
 10
35.634832527940645
 20
30.64695909328188
 10
35.53904177248366
 20
30.55916503799913
 10
35.35900346618535
 20
30.440601272017787
 10
35.16638423261719
 20
30.36140156539618
 10
34.969512166999316
 20
30.321320974322717
 10
25.171460233244513
 20
30.31386295508058
 10
24.98185592674446
 20
30.283117034518426
 10
24.876237603058286
 20
30.236207284642916
 10
24.78157183798058
 20
30.169918915724132
 10
24.678383264619992
 20
30.055732964019725
 10
24.62198754138944
 20
29.954860384331475
 10
24.578757144424955
 20
29.80715308587562
 10
24.498102921817566
 20
29.28856341885747
 10
24.39180079211023
 20
28.877927676438404
 10
24.24598685489061
 20
28.48847227572392
 10
24.063774247267723
 20
28.1338002690929
 10
23.948571193762053
 20
27.953854243746555
 10
23.72332259930645
 20
27.665354412813407
 10
23.579628496310644
 20
27.512872562244098
 10
23.292486686713627
 20
27.25951880713236
 10
22.98714015423798
 20
27.044179231877116
 10
22.639558713231125
 20
26.846448376096
 10
22.26570247565672
 20
26.674124328389127
 10
21.860595565266323
 20
26.52152459318271
 10
21.44543657594071
 20
26.391956250913957
 10
20.797103401873546
 20
26.2269120551924
 10
19.194937941417244
 20
25.911295461906036
 10
19.412020440668755
 20
27.294143789008984
 10
19.59676465518498
 20
28.177197973088695
 10
19.77948356089018
 20
28.808413396266133
 10
19.922118988525266
 20
29.18887181150737
 10
20.0561559828878
 20
29.484451845598016
 10
20.096637143733844
 20
29.635732262755248
 10
20.090187641519858
 20
29.83106497649886
 10
20.03981556405696
 20
29.979345598330504
 10
19.925949058430742
 20
30.138187922771216
 10
19.76707404933262
 20
30.252008819891756
 10
19.65700959248276
 20
30.293425880914988
 10
19.501745897440234
 20
30.31386295508058
 10
16.04264539220345
 20
30.314224263792916
 10
15.821112887381178
 20
30.33857804380687
 10
15.489282281947412
 20
30.443010425954
 10
15.287862525043714
 20
30.44735893669609
 10
15.170333486746832
 20
30.417559763816804
 10
15.061195170561037
 20
30.36474032149289
 10
14.48047810816237
 20
29.939192662821043
 10
14.031418990432076
 20
29.671638236560874
 10
13.792919392577287
 20
29.552505773528132
 10
13.357827397304746
 20
29.37602357910137
 10
13.116665740685823
 20
29.300813544568506
 10
12.666249116359298
 20
29.20295471262721
 10
12.216307476141928
 20
29.159406240742797
 10
11.766829072308463
 20
29.16796049272447
 10
11.31769401463378
 20
29.225775633803806
 10
10.868737939883003
 20
29.32945706378637
 10
10.419816271402297
 20
29.47511007769627
 10
9.753742111065861
 20
29.759075514764106
 10
9.297166173102847
 20
29.993313435644275
 10
8.623256894044427
 20
30.384714395637296
 10
7.723885890314683
 20
30.96293118548128
  0
LWPOLYLINE
  5
3D
330
17
100
AcDbEntity
  8
SCORE_OPTIONAL
100
AcDbPolyline
 90
103
 70
1
 10
9.202604741762835
 20
62.205725507896716
 10
6.513780009756969
 20
61.59998448033692
 10
6.091523457269675
 20
61.4458950662134
 10
5.69249747106368
 20
61.23895931290886
 10
5.323283346133468
 20
60.982590294469816
 10
5.151780746684958
 20
60.83715965604476
 10
4.989970678536177
 20
60.68101640753237
 10
4.698056927251143
 20
60.33921163068733
 10
4.45235674239281
 20
59.962813486664324
 10
4.348134815023581
 20
59.76356238361654
 10
4.179096451670043
 20
59.347064874166435
 10
4.06483107718271
 20
58.912337870339144
 10
4.007223316030045
 20
58.46655149827472
 10
4.0
 20
58.241804894483145
 10
4.007493768664888
 20
7.2710890476945025
 10
4.0672515185886935
 20
6.817183872943545
 10
4.185744546767131
 20
6.374961871438927
 10
4.266421636210497
 20
6.160607986722184
 10
4.468911086754464
 20
5.75
 10
4.723263308980677
 20
5.369334998469483
 10
5.025126265847084
 20
5.025126265847078
 10
5.369334998469478
 20
4.723263308980677
 10
5.555504184431392
 20
4.589856356941098
 10
5.9519895842334964
 20
4.360945404635586
 10
6.374961871438934
 20
4.1857445467671255
 10
6.594133342141177
 20
4.119259607988255
 10
7.043158327229819
 20
4.029942985191667
 10
7.5
 20
4.0
 10
195.7
 20
4.0
 10
195.9289109523055
 20
4.007493768664887
 10
196.38281612705643
 20
4.067251518588691
 10
196.82503812856106
 20
4.1857445467671255
 10
197.2480104157665
 20
4.360945404635586
 10
197.45
 20
4.46891108675446
 10
197.83066500153052
 20
4.723263308980677
 10
198.00771035285024
 20
4.8685606738235805
 10
198.33143932617642
 20
5.192289647149764
 10
198.6101436430589
 20
5.555504184431385
 10
198.8390545953644
 20
5.951989584233502
 10
198.93357836378948
 20
6.160607986722184
 10
199.08074039201173
 20
6.594133342141177
 10
199.17005701480832
 20
7.043158327229818
 10
199.2
 20
7.5
 10
199.1927772609788
 20
58.466544021675574
 10
199.13517408734765
 20
58.912312902537565
 10
199.02091773642474
 20
59.34702373404641
 10
198.8518925334702
 20
59.76350722894567
 10
198.6308860562155
 20
60.15489470673309
 10
198.5019969212003
 20
60.3391411830178
 10
198.21010447022587
 20
60.68094056543602
 10
198.04830587597846
 20
60.83708277000564
 10
197.6963401338733
 20
61.11663265310649
 10
197.31145058393102
 20
61.3487706618482
 10
196.89998485668102
 20
61.52966835684718
 10
196.68639242652338
 20
61.59993532581311
 10
194.03355224442373
 20
62.19780937565306
 10
190.70899576066785
 20
62.91213301336641
 10
187.40580678452957
 20
63.594825909695004
 10
184.08392569965955
 20
64.25433211934369
 10
179.07817377678526
 20
65.19718389415434
 10
175.75750231432366
 20
65.78901830371358
 10
172.41878175204332
 20
66.35716205305008
 10
167.3890521301209
 20
67.16235865303622
 10
164.05339687246087
 20
67.66288924079929
 10
160.70034910524296
 20
68.13924302119327
 10
155.65042648295764
 20
68.80617856359977
 10
152.3022973960198
 20
69.21502869752287
 10
148.93744547706396
 20
69.5992340691388
 10
143.87112974764003
 20
70.1274067079023
 10
140.51304618346657
 20
70.44426874232931
 10
137.13892204818924
 20
70.73603660383996
 10
132.060025440097
 20
71.12504890721101
 10
128.6945142411329
 20
71.34968441436499
 10
125.31365680197554
 20
71.54879522048994
 10
120.22600101036407
 20
71.79835447008664
 10
116.85559460809256
 20
71.93059441947868
 10
113.47054784407365
 20
72.03689834618487
 10
108.37796115507855
 20
72.14681675725295
 10
105.00519566445271
 20
72.18656164287204
 10
101.61850670691557
 20
72.19997870011083
 10
98.23181661252259
 20
72.18685174020612
 10
94.84533342328821
 20
72.14718156953799
 10
89.75274081534128
 20
72.03753773031258
 10
86.3676883247683
 20
71.93141631179535
 10
82.99727479755686
 20
71.79935808128084
 10
77.90960555812254
 20
71.55007313787573
 10
74.52873738863593
 20
71.35114461420316
 10
71.16321408313401
 20
71.12669056213153
 10
66.08429650846503
 20
70.73795209289496
 10
62.710156647159195
 20
70.44636615093891
 10
59.352056003958765
 20
70.12968517126029
 10
54.28571180498187
 20
69.60178568852345
 10
50.92083917612966
 20
69.21776173667611
 10
47.572688050524796
 20
68.80909212092968
 10
42.52272947713407
 20
68.14242885090165
 10
39.169656031736594
 20
67.66625585397804
 10
35.833973792355884
 20
67.16590511198669
 10
30.80420076482529
 20
66.36097969585482
 10
27.465449575404687
 20
65.79301595765749
 10
24.144746208468728
 20
65.20136058613656
 10
19.138943458147494
 20
64.25877870260014
 10
15.8170268202191
 20
63.59945159630645
 10
12.513801040864056
 20
62.91693679556377
  0
ENDSEC
  0
SECTION
  2
OBJECTS
  0
DICTIONARY
  5
A
330
0
100
AcDbDictionary
281
1
  3
ACAD_COLOR
350
B
  3
ACAD_GROUP
350
C
  3
ACAD_LAYOUT
350
D
  3
ACAD_MATERIAL
350
E
  3
ACAD_MLEADERSTYLE
350
F
  3
ACAD_MLINESTYLE
350
10
  3
ACAD_PLOTSETTINGS
350
11
  3
ACAD_PLOTSTYLENAME
350
12
  3
ACAD_SCALELIST
350
14
  3
ACAD_TABLESTYLE
350
15
  3
ACAD_VISUALSTYLE
350
16
  3
EZDXF_META
350
2D
  0
DICTIONARY
  5
B
330
A
100
AcDbDictionary
281
1
  0
DICTIONARY
  5
C
330
A
100
AcDbDictionary
281
1
  0
DICTIONARY
  5
D
330
A
100
AcDbDictionary
281
1
  3
Model
350
1A
  3
Layout1
350
1E
  0
DICTIONARY
  5
E
330
A
100
AcDbDictionary
281
1
  3
ByBlock
350
1F
  3
ByLayer
350
20
  3
Global
350
21
  0
DICTIONARY
  5
F
330
A
100
AcDbDictionary
281
1
  3
Standard
350
2C
  0
DICTIONARY
  5
10
330
A
100
AcDbDictionary
281
1
  3
Standard
350
22
  0
DICTIONARY
  5
11
330
A
100
AcDbDictionary
281
1
  0
ACDBDICTIONARYWDFLT
  5
12
330
A
100
AcDbDictionary
281
1
  3
Normal
350
13
100
AcDbDictionaryWithDefault
340
13
  0
ACDBPLACEHOLDER
  5
13
330
12
  0
DICTIONARY
  5
14
330
A
100
AcDbDictionary
281
1
  0
DICTIONARY
  5
15
330
A
100
AcDbDictionary
281
1
  0
DICTIONARY
  5
16
330
A
100
AcDbDictionary
281
1
  0
LAYOUT
  5
1A
330
D
100
AcDbPlotSettings
  1

  4
A3
  6

 40
7.5
 41
20.0
 42
7.5
 43
20.0
 44
420.0
 45
297.0
 46
0.0
 47
0.0
 48
0.0
 49
0.0
140
0.0
141
0.0
142
1.0
143
1.0
 70
1024
 72
1
 73
0
 74
5
  7

 75
16
 76
0
 77
2
 78
300
147
1.0
148
0.0
149
0.0
100
AcDbLayout
  1
Model
 70
1
 71
0
 10
0.0
 20
0.0
 11
420.0
 21
297.0
 12
0.0
 22
0.0
 32
0.0
 14
1e+20
 24
1e+20
 34
1e+20
 15
-1e+20
 25
-1e+20
 35
-1e+20
146
0.0
 13
0.0
 23
0.0
 33
0.0
 16
1.0
 26
0.0
 36
0.0
 17
0.0
 27
1.0
 37
0.0
 76
1
330
17
  0
LAYOUT
  5
1E
330
D
100
AcDbPlotSettings
  1

  4
A3
  6

 40
7.5
 41
20.0
 42
7.5
 43
20.0
 44
420.0
 45
297.0
 46
0.0
 47
0.0
 48
0.0
 49
0.0
140
0.0
141
0.0
142
1.0
143
1.0
 70
0
 72
1
 73
0
 74
5
  7

 75
16
 76
0
 77
2
 78
300
147
1.0
148
0.0
149
0.0
100
AcDbLayout
  1
Layout1
 70
1
 71
1
 10
0.0
 20
0.0
 11
420.0
 21
297.0
 12
0.0
 22
0.0
 32
0.0
 14
1e+20
 24
1e+20
 34
1e+20
 15
-1e+20
 25
-1e+20
 35
-1e+20
146
0.0
 13
0.0
 23
0.0
 33
0.0
 16
1.0
 26
0.0
 36
0.0
 17
0.0
 27
1.0
 37
0.0
 76
1
330
1B
  0
MATERIAL
  5
1F
102
{ACAD_REACTORS
330
E
102
}
330
E
100
AcDbMaterial
  1
ByBlock
  2

 70
0
 40
1.0
 71
1
 41
1.0
 91
-1023410177
 42
1.0
 72
1
  3

 73
1
 74
1
 75
1
 44
0.5
 73
0
 45
1.0
 46
1.0
 77
1
  4

 78
1
 79
1
170
1
 48
1.0
171
1
  6

172
1
173
1
174
1
140
1.0
141
1.0
175
1
  7

176
1
177
1
178
1
143
1.0
179
1
  8

270
1
271
1
272
1
145
1.0
146
1.0
273
1
  9

274
1
275
1
276
1
 42
1.0
 72
1
  3

 73
1
 74
1
 75
1
 94
63
  0
MATERIAL
  5
20
102
{ACAD_REACTORS
330
E
102
}
330
E
100
AcDbMaterial
  1
ByLayer
  2

 70
0
 40
1.0
 71
1
 41
1.0
 91
-1023410177
 42
1.0
 72
1
  3

 73
1
 74
1
 75
1
 44
0.5
 73
0
 45
1.0
 46
1.0
 77
1
  4

 78
1
 79
1
170
1
 48
1.0
171
1
  6

172
1
173
1
174
1
140
1.0
141
1.0
175
1
  7

176
1
177
1
178
1
143
1.0
179
1
  8

270
1
271
1
272
1
145
1.0
146
1.0
273
1
  9

274
1
275
1
276
1
 42
1.0
 72
1
  3

 73
1
 74
1
 75
1
 94
63
  0
MATERIAL
  5
21
102
{ACAD_REACTORS
330
E
102
}
330
E
100
AcDbMaterial
  1
Global
  2

 70
0
 40
1.0
 71
1
 41
1.0
 91
-1023410177
 42
1.0
 72
1
  3

 73
1
 74
1
 75
1
 44
0.5
 73
0
 45
1.0
 46
1.0
 77
1
  4

 78
1
 79
1
170
1
 48
1.0
171
1
  6

172
1
173
1
174
1
140
1.0
141
1.0
175
1
  7

176
1
177
1
178
1
143
1.0
179
1
  8

270
1
271
1
272
1
145
1.0
146
1.0
273
1
  9

274
1
275
1
276
1
 42
1.0
 72
1
  3

 73
1
 74
1
 75
1
 94
63
  0
MLINESTYLE
  5
22
102
{ACAD_REACTORS
330
10
102
}
330
10
100
AcDbMlineStyle
  2
Standard
 70
0
  3

 62
256
 51
90.0
 52
90.0
 71
2
 49
0.5
 62
256
  6
BYLAYER
 49
-0.5
 62
256
  6
BYLAYER
  0
MLEADERSTYLE
  5
2C
102
{ACAD_REACTORS
330
F
102
}
330
F
100
AcDbMLeaderStyle
179
2
170
2
171
1
172
0
 90
2
 40
0.0
 41
0.0
173
1
 91
-1056964608
 92
-2
290
1
 42
2.0
291
1
 43
8.0
  3
Standard
 44
4.0
300

342
29
174
1
175
1
176
0
178
1
 93
-1056964608
 45
4.0
292
0
297
0
 46
4.0
 94
-1056964608
 47
1.0
 49
1.0
140
1.0
294
1
141
0.0
177
0
142
1.0
295
0
296
0
143
3.75
271
0
272
9
273
9
  0
DICTIONARY
  5
2D
330
A
100
AcDbDictionary
280
1
281
1
  3
CREATED_BY_EZDXF
350
2E
  3
WRITTEN_BY_EZDXF
350
40
  0
DICTIONARYVAR
  5
2E
330
2D
100
DictionaryVariables
280
0
  1
1.4.4 @ 2026-10-05T10:29:46.584145+00:00
  0
DICTIONARYVAR
  5
40
330
2D
100
DictionaryVariables
280
0
  1
1.4.4 @ 2026-10-05T10:29:46.600444+00:00
  0
ENDSEC
  0
EOF
