  0
SECTION
  2
HEADER
  9
$ACADVER
  1
AC1024
  9
$ACADMAINTVER
 70
6
  9
$DWGCODEPAGE
  3
ANSI_1252
  9
$LASTSAVEDBY
  1
ezdxf
  9
$INSBASE
 10
0.0
 20
0.0
 30
0.0
  9
$EXTMIN
 10
1e+20
 20
1e+20
 30
1e+20
  9
$EXTMAX
 10
-1e+20
 20
-1e+20
 30
-1e+20
  9
$LIMMIN
 10
0.0
 20
0.0
  9
$LIMMAX
 10
420.0
 20
297.0
  9
$ORTHOMODE
 70
0
  9
$REGENMODE
 70
1
  9
$FILLMODE
 70
1
  9
$QTEXTMODE
 70
0
  9
$MIRRTEXT
 70
1
  9
$LTSCALE
 40
1.0
  9
$ATTMODE
 70
1
  9
$TEXTSIZE
 40
2.5
  9
$TRACEWID
 40
1.0
  9
$TEXTSTYLE
  7
Standard
  9
$CLAYER
  8
0
  9
$CELTYPE
  6
ByLayer
  9
$CECOLOR
 62
256
  9
$CELTSCALE
 40
1.0
  9
$DISPSILH
 70
0
  9
$DIMSCALE
 40
1.0
  9
$DIMASZ
 40
2.5
  9
$DIMEXO
 40
0.625
  9
$DIMDLI
 40
3.75
  9
$DIMRND
 40
0.0
  9
$DIMDLE
 40
0.0
  9
$DIMEXE
 40
1.25
  9
$DIMTP
 40
0.0
  9
$DIMTM
 40
0.0
  9
$DIMTXT
 40
2.5
  9
$DIMCEN
 40
2.5
  9
$DIMTSZ
 40
0.0
  9
$DIMTOL
 70
0
  9
$DIMLIM
 70
0
  9
$DIMTIH
 70
0
  9
$DIMTOH
 70
0
  9
$DIMSE1
 70
0
  9
$DIMSE2
 70
0
  9
$DIMTAD
 70
1
  9
$DIMZIN
 70
8
  9
$DIMBLK
  1

  9
$DIMASO
 70
1
  9
$DIMSHO
 70
1
  9
$DIMPOST
  1

  9
$DIMAPOST
  1

  9
$DIMALT
 70
0
  9
$DIMALTD
 70
3
  9
$DIMALTF
 40
0.03937007874
  9
$DIMLFAC
 40
1.0
  9
$DIMTOFL
 70
1
  9
$DIMTVP
 40
0.0
  9
$DIMTIX
 70
0
  9
$DIMSOXD
 70
0
  9
$DIMSAH
 70
0
  9
$DIMBLK1
  1

  9
$DIMBLK2
  1

  9
$DIMSTYLE
  2
ISO-25
  9
$DIMCLRD
 70
0
  9
$DIMCLRE
 70
0
  9
$DIMCLRT
 70
0
  9
$DIMTFAC
 40
1.0
  9
$DIMGAP
 40
0.625
  9
$DIMJUST
 70
0
  9
$DIMSD1
 70
0
  9
$DIMSD2
 70
0
  9
$DIMTOLJ
 70
0
  9
$DIMTZIN
 70
8
  9
$DIMALTZ
 70
0
  9
$DIMALTTZ
 70
0
  9
$DIMUPT
 70
0
  9
$DIMDEC
 70
2
  9
$DIMTDEC
 70
2
  9
$DIMALTU
 70
2
  9
$DIMALTTD
 70
3
  9
$DIMTXSTY
  7
Standard
  9
$DIMAUNIT
 70
0
  9
$DIMADEC
 70
0
  9
$DIMALTRND
 40
0.0
  9
$DIMAZIN
 70
0
  9
$DIMDSEP
 70
44
  9
$DIMATFIT
 70
3
  9
$DIMFRAC
 70
0
  9
$DIMLDRBLK
  1

  9
$DIMLUNIT
 70
2
  9
$DIMLWD
 70
-2
  9
$DIMLWE
 70
-2
  9
$DIMTMOVE
 70
0
  9
$DIMFXL
 40
1.0
  9
$DIMFXLON
 70
0
  9
$DIMJOGANG
 40
0.785398163397
  9
$DIMTFILL
 70
0
  9
$DIMTFILLCLR
 70
0
  9
$DIMARCSYM
 70
0
  9
$DIMLTYPE
  6

  9
$DIMLTEX1
  6

  9
$DIMLTEX2
  6

  9
$DIMTXTDIRECTION
 70
0
  9
$LUNITS
 70
2
  9
$LUPREC
 70
4
  9
$SKETCHINC
 40
1.0
  9
$FILLETRAD
 40
10.0
  9
$AUNITS
 70
0
  9
$AUPREC
 70
2
  9
$MENU
  1
.
  9
$ELEVATION
 40
0.0
  9
$PELEVATION
 40
0.0
  9
$THICKNESS
 40
0.0
  9
$LIMCHECK
 70
0
  9
$CHAMFERA
 40
0.0
  9
$CHAMFERB
 40
0.0
  9
$CHAMFERC
 40
0.0
  9
$CHAMFERD
 40
0.0
  9
$SKPOLY
 70
0
  9
$TDCREATE
 40
2461319.437349537
  9
$TDUCREATE
 40
2458532.153996898
  9
$TDUPDATE
 40
2461319.437349537
  9
$TDUUPDATE
 40
2458532.1544311
  9
$TDINDWG
 40
0.0
  9
$TDUSRTIMER
 40
0.0
  9
$USRTIMER
 70
1
  9
$ANGBASE
 50
0.0
  9
$ANGDIR
 70
0
  9
$PDMODE
 70
0
  9
$PDSIZE
 40
0.0
  9
$PLINEWID
 40
0.0
  9
$SPLFRAME
 70
0
  9
$SPLINETYPE
 70
6
  9
$SPLINESEGS
 70
8
  9
$HANDSEED
  5
41
  9
$SURFTAB1
 70
6
  9
$SURFTAB2
 70
6
  9
$SURFTYPE
 70
6
  9
$SURFU
 70
6
  9
$SURFV
 70
6
  9
$UCSBASE
  2

  9
$UCSNAME
  2

  9
$UCSORG
 10
0.0
 20
0.0
 30
0.0
  9
$UCSXDIR
 10
1.0
 20
0.0
 30
0.0
  9
$UCSYDIR
 10
0.0
 20
1.0
 30
0.0
  9
$UCSORTHOREF
  2

  9
$UCSORTHOVIEW
 70
0
  9
$UCSORGTOP
 10
0.0
 20
0.0
 30
0.0
  9
$UCSORGBOTTOM
 10
0.0
 20
0.0
 30
0.0
  9
$UCSORGLEFT
 10
0.0
 20
0.0
 30
0.0
  9
$UCSORGRIGHT
 10
0.0
 20
0.0
 30
0.0
  9
$UCSORGFRONT
 10
0.0
 20
0.0
 30
0.0
  9
$UCSORGBACK
 10
0.0
 20
0.0
 30
0.0
  9
$PUCSBASE
  2

  9
$PUCSNAME
  2

  9
$PUCSORG
 10
0.0
 20
0.0
 30
0.0
  9
$PUCSXDIR
 10
1.0
 20
0.0
 30
0.0
  9
$PUCSYDIR
 10
0.0
 20
1.0
 30
0.0
  9
$PUCSORTHOREF
  2

  9
$PUCSORTHOVIEW
 70
0
  9
$PUCSORGTOP
 10
0.0
 20
0.0
 30
0.0
  9
$PUCSORGBOTTOM
 10
0.0
 20
0.0
 30
0.0
  9
$PUCSORGLEFT
 10
0.0
 20
0.0
 30
0.0
  9
$PUCSORGRIGHT
 10
0.0
 20
0.0
 30
0.0
  9
$PUCSORGFRONT
 10
0.0
 20
0.0
 30
0.0
  9
$PUCSORGBACK
 10
0.0
 20
0.0
 30
0.0
  9
$USERI1
 70
0
  9
$USERI2
 70
0
  9
$USERI3
 70
0
  9
$USERI4
 70
0
  9
$USERI5
 70
0
  9
$USERR1
 40
0.0
  9
$USERR2
 40
0.0
  9
$USERR3
 40
0.0
  9
$USERR4
 40
0.0
  9
$USERR5
 40
0.0
  9
$WORLDVIEW
 70
1
  9
$SHADEDGE
 70
3
  9
$SHADEDIF
 70
70
  9
$TILEMODE
 70
1
  9
$MAXACTVP
 70
64
  9
$PINSBASE
 10
0.0
 20
0.0
 30
0.0
  9
$PLIMCHECK
 70
0
  9
$PEXTMIN
 10
1e+20
 20
1e+20
 30
1e+20
  9
$PEXTMAX
 10
-1e+20
 20
-1e+20
 30
-1e+20
  9
$PLIMMIN
 10
0.0
 20
0.0
  9
$PLIMMAX
 10
420.0
 20
297.0
  9
$UNITMODE
 70
0
  9
$VISRETAIN
 70
1
  9
$PLINEGEN
 70
0
  9
$PSLTSCALE
 70
1
  9
$TREEDEPTH
 70
3020
  9
$CMLSTYLE
  2
Standard
  9
$CMLJUST
 70
0
  9
$CMLSCALE
 40
20.0
  9
$PROXYGRAPHICS
 70
1
  9
$MEASUREMENT
 70
1
  9
$CELWEIGHT
370
-1
  9
$ENDCAPS
280
0
  9
$JOINSTYLE
280
0
  9
$LWDISPLAY
290
0
  9
$INSUNITS
 70
4
  9
$HYPERLINKBASE
  1

  9
$STYLESHEET
  1

  9
$XEDIT
290
1
  9
$CEPSNTYPE
380
0
  9
$PSTYLEMODE
290
1
  9
$FINGERPRINTGUID
  2
{CFA9F7FA-93DB-49B7-9BC2-C13509666B30}
  9
$VERSIONGUID
  2
{EA9C348B-13F7-4FEB-9BCC-B656F41A5C01}
  9
$EXTNAMES
290
1
  9
$PSVPSCALE
 40
0.0
  9
$OLESTARTUP
290
0
  9
$SORTENTS
280
127
  9
$INDEXCTL
280
0
  9
$HIDETEXT
280
1
  9
$XCLIPFRAME
280
1
  9
$HALOGAP
280
0
  9
$OBSCOLOR
 70
257
  9
$OBSLTYPE
280
0
  9
$INTERSECTIONDISPLAY
280
0
  9
$INTERSECTIONCOLOR
 70
257
  9
$DIMASSOC
280
2
  9
$PROJECTNAME
  1

  9
$CAMERADISPLAY
290
0
  9
$LENSLENGTH
 40
50.0
  9
$CAMERAHEIGHT
 40
0.0
  9
$STEPSPERSEC
 40
24.0
  9
$STEPSIZE
 40
100.0
  9
$3DDWFPREC
 40
2.0
  9
$PSOLWIDTH
 40
0.005
  9
$PSOLHEIGHT
 40
0.08
  9
$LOFTANG1
 40
1.570796326795
  9
$LOFTANG2
 40
1.570796326795
  9
$LOFTMAG1
 40
0.0
  9
$LOFTMAG2
 40
0.0
  9
$LOFTPARAM
 70
7
  9
$LOFTNORMALS
280
1
  9
$LATITUDE
 40
37.795
  9
$LONGITUDE
 40
-122.394
  9
$NORTHDIRECTION
 40
0.0
  9
$TIMEZONE
 70
-8000
  9
$LIGHTGLYPHDISPLAY
280
1
  9
$TILEMODELIGHTSYNCH
280
1
  9
$CMATERIAL
347
20
  9
$SOLIDHIST
280
0
  9
$SHOWHIST
280
1
  9
$DWFFRAME
280
2
  9
$DGNFRAME
280
2
  9
$REALWORLDSCALE
290
1
  9
$INTERFERECOLOR
 62
256
  9
$CSHADOW
280
0
  9
$SHADOWPLANELOCATION
 40
0.0
  0
ENDSEC
  0
SECTION
  2
CLASSES
  0
CLASS
  1
ACDBDICTIONARYWDFLT
  2
AcDbDictionaryWithDefault
  3
ObjectDBX Classes
 90
0
 91
0
280
0
281
0
  0
CLASS
  1
SUN
  2
AcDbSun
  3
SCENEOE
 90
1153
 91
0
280
0
281
0
  0
CLASS
  1
VISUALSTYLE
  2
AcDbVisualStyle
  3
ObjectDBX Classes
 90
4095
 91
0
280
0
281
0
  0
CLASS
  1
MATERIAL
  2
AcDbMaterial
  3
ObjectDBX Classes
 90
1153
 91
0
280
0
281
0
  0
CLASS
  1
SCALE
  2
AcDbScale
  3
ObjectDBX Classes
 90
1153
 91
0
280
0
281
0
  0
CLASS
  1
TABLESTYLE
  2
AcDbTableStyle
  3
ObjectDBX Classes
 90
4095
 91
0
280
0
281
0
  0
CLASS
  1
MLEADERSTYLE
  2
AcDbMLeaderStyle
  3
ACDB_MLEADERSTYLE_CLASS
 90
4095
 91
0
280
0
281
0
  0
CLASS
  1
DICTIONARYVAR
  2
AcDbDictionaryVar
  3
ObjectDBX Classes
 90
0
 91
0
280
0
281
0
  0
CLASS
  1
CELLSTYLEMAP
  2
AcDbCellStyleMap
  3
ObjectDBX Classes
 90
1152
 91
0
280
0
281
0
  0
CLASS
  1
MENTALRAYRENDERSETTINGS
  2
AcDbMentalRayRenderSettings
  3
SCENEOE
 90
1024
 91
0
280
0
281
0
  0
CLASS
  1
ACDBDETAILVIEWSTYLE
  2
AcDbDetailViewStyle
  3
ObjectDBX Classes
 90
1025
 91
0
280
0
281
0
  0
CLASS
  1
ACDBSECTIONVIEWSTYLE
  2
AcDbSectionViewStyle
  3
ObjectDBX Classes
 90
1025
 91
0
280
0
281
0
  0
CLASS
  1
RASTERVARIABLES
  2
AcDbRasterVariables
  3
ISM
 90
0
 91
0
280
0
281
0
  0
CLASS
  1
LAYOUT
  2
AcDbLayout
  3
ObjectDBX Classes
 90
0
 91
0
280
0
281
0
  0
CLASS
  1
ACDBPLACEHOLDER
  2
AcDbPlaceHolder
  3
ObjectDBX Classes
 90
0
 91
0
280
0
281
0
  0
ENDSEC
  0
SECTION
  2
TABLES
  0
TABLE
  2
VPORT
  5
8
330
0
100
AcDbSymbolTable
 70
1
  0
VPORT
  5
23
330
8
100
AcDbSymbolTableRecord
100
AcDbViewportTableRecord
  2
*Active
 70
0
 10
0.0
 20
0.0
 11
1.0
 21
1.0
 12
0.0
 22
0.0
 13
0.0
 23
0.0
 14
0.5
 24
0.5
 15
0.5
 25
0.5
 16
0.0
 26
0.0
 36
1.0
 17
0.0
 27
0.0
 37
0.0
 40
1000.0
 41
1.34
 42
50.0
 43
0.0
 44
0.0
 50
0.0
 51
0.0
 71
0
 72
1000
 73
1
 74
3
 75
0
 76
0
 77
0
 78
0
281
0
 65
0
146
0.0
  0
ENDTAB
  0
TABLE
  2
LTYPE
  5
2
330
0
100
AcDbSymbolTable
 70
3
  0
LTYPE
  5
24
330
2
100
AcDbSymbolTableRecord
100
AcDbLinetypeTableRecord
  2
ByBlock
 70
0
  3

 72
65
 73
0
 40
0.0
  0
LTYPE
  5
25
330
2
100
AcDbSymbolTableRecord
100
AcDbLinetypeTableRecord
  2
ByLayer
 70
0
  3

 72
65
 73
0
 40
0.0
  0
LTYPE
  5
26
330
2
100
AcDbSymbolTableRecord
100
AcDbLinetypeTableRecord
  2
Continuous
 70
0
  3

 72
65
 73
0
 40
0.0
  0
ENDTAB
  0
TABLE
  2
LAYER
  5
1
330
0
100
AcDbSymbolTable
 70
4
  0
LAYER
  5
27
330
1
100
AcDbSymbolTableRecord
100
AcDbLayerTableRecord
  2
0
 70
0
 62
7
  6
Continuous
370
-3
390
13
347
21
  0
LAYER
  5
28
330
1
100
AcDbSymbolTableRecord
100
AcDbLayerTableRecord
  2
Defpoints
 70
0
 62
7
  6
Continuous
290
0
370
-3
390
13
347
21
  0
LAYER
  5
2F
330
1
100
AcDbSymbolTableRecord
100
AcDbLayerTableRecord
  2
CUT
 70
0
 62
1
  6
Continuous
370
-3
390
13
347
21
  0
LAYER
  5
30
330
1
100
AcDbSymbolTableRecord
100
AcDbLayerTableRecord
  2
SCORE_OPTIONAL
 70
0
 62
5
  6
Continuous
370
-3
390
13
347
21
  0
ENDTAB
  0
TABLE
  2
STYLE
  5
5
330
0
100
AcDbSymbolTable
 70
1
  0
STYLE
  5
29
330
5
100
AcDbSymbolTableRecord
100
AcDbTextStyleTableRecord
  2
Standard
 70
0
 40
0.0
 41
1.0
 50
0.0
 71
0
 42
2.5
  3
txt
  4

  0
ENDTAB
  0
TABLE
  2
VIEW
  5
7
330
0
100
AcDbSymbolTable
 70
0
  0
ENDTAB
  0
TABLE
  2
UCS
  5
6
330
0
100
AcDbSymbolTable
 70
0
  0
ENDTAB
  0
TABLE
  2
APPID
  5
3
330
0
100
AcDbSymbolTable
 70
3
  0
APPID
  5
2A
330
3
100
AcDbSymbolTableRecord
100
AcDbRegAppTableRecord
  2
ACAD
 70
0
  0
APPID
  5
3E
330
3
100
AcDbSymbolTableRecord
100
AcDbRegAppTableRecord
  2
HATCHBACKGROUNDCOLOR
 70
0
  0
APPID
  5
3F
330
3
100
AcDbSymbolTableRecord
100
AcDbRegAppTableRecord
  2
EZDXF
 70
0
  0
ENDTAB
  0
TABLE
  2
DIMSTYLE
  5
4
330
0
100
AcDbSymbolTable
 70
1
100
AcDbDimStyleTable
  0
DIMSTYLE
105
2B
330
4
100
AcDbSymbolTableRecord
100
AcDbDimStyleTableRecord
  2
Standard
 70
0
 40
1.0
 41
2.5
 42
0.625
 43
3.75
 44
1.25
 45
0.0
 46
0.0
 47
0.0
 48
0.0
 49
2.5
140
2.5
141
2.5
142
0.0
143
0.03937007874
144
1.0
145
0.0
146
1.0
147
0.625
148
0.0
 69
0
 70
0
 71
0
 72
0
 73
0
 74
0
 75
0
 76
0
 77
1
 78
8
 79
3
170
0
171
3
172
1
173
0
174
0
175
0
176
0
177
0
178
0
179
2
271
2
272
2
273
2
274
3
275
0
276
0
277
2
278
44
279
0
280
0
281
0
282
0
283
0
284
8
285
0
286
0
288
0
289
3
290
0
371
-2
372
-2
  0
ENDTAB
  0
TABLE
  2
BLOCK_RECORD
  5
9
330
0
100
AcDbSymbolTable
 70
2
  0
BLOCK_RECORD
  5
17
330
9
100
AcDbSymbolTableRecord
100
AcDbBlockTableRecord
  2
*Model_Space
340
1A
 70
0
280
1
281
0
  0
BLOCK_RECORD
  5
1B
330
9
100
AcDbSymbolTableRecord
100
AcDbBlockTableRecord
  2
*Paper_Space
340
1E
 70
0
280
1
281
0
  0
ENDTAB
  0
ENDSEC
  0
SECTION
  2
BLOCKS
  0
BLOCK
  5
18
330
17
100
AcDbEntity
  8
0
100
AcDbBlockBegin
  2
*Model_Space
 70
0
 10
0.0
 20
0.0
 30
0.0
  3
*Model_Space
  1

  0
ENDBLK
  5
19
330
17
100
AcDbEntity
  8
0
100
AcDbBlockEnd
  0
BLOCK
  5
1C
330
1B
100
AcDbEntity
  8
0
100
AcDbBlockBegin
  2
*Paper_Space
 70
0
 10
0.0
 20
0.0
 30
0.0
  3
*Paper_Space
  1

  0
ENDBLK
  5
1D
330
1B
100
AcDbEntity
  8
0
100
AcDbBlockEnd
  0
ENDSEC
  0
SECTION
  2
ENTITIES
  0
LWPOLYLINE
  5
31
330
17
100
AcDbEntity
  8
CUT
100
AcDbPolyline
 90
59
 70
1
 10
0.0005353766855149697
 20
2.485867236665854
 10
0.01817995686091681
 20
2.208227982011948
 10
0.05546851556606936
 20
1.9821725157011514
 10
0.12317428455088858
 20
1.7292651548205669
 10
0.2038081801226041
 20
1.5148344240628262
 10
0.3195086915463956
 20
1.2800071610023736
 10
0.44038920859775316
 20
1.0854416185268008
 10
0.5996381566921127
 20
0.8777187333132872
 10
0.7561199247435004
 20
0.7104954238033798
 10
0.9527974617409907
 20
0.5378595904232952
 10
1.1388669742022413
 20
0.40440481188359456
 10
1.3654148926538558
 20
0.2734903285985695
 10
1.5739216025101397
 20
0.17893267332603102
 10
1.821633792959847
 20
0.09477051031078076
 10
2.0445649042825993
 20
0.04274377596924239
 10
2.3039219261695436
 20
0.008568237949901913
 10
2.5163628268075855
 20
0.0
 10
175.2836371731924
 20
0.0
 10
175.6586061898731
 20
0.02674296102574658
 10
175.97836620704055
 20
0.09477051031090866
 10
176.3759111161335
 20
0.24452963972979092
 10
176.71552830225812
 20
0.4407830802384609
 10
176.97225141546036
 20
0.6433478616675785
 10
177.2626210261177
 20
0.9536496168170032
 10
177.48049130845362
 20
1.2800071610024304
 10
177.65579693902507
 20
1.6672609718805234
 10
177.74453148443396
 20
1.9821725157013361
 10
177.79571813314377
 20
2.371321445939458
 10
177.79999999999998
 20
50.76214747707961
 10
177.77222720537065
 20
51.14474098131627
 10
177.70159781314615
 20
51.47074924026779
 10
177.6142525010491
 20
51.72297223846141
 10
177.51616696977663
 20
51.93493333819091
 10
177.3804545021733
 20
52.164734260092494
 10
177.25340451027222
 20
52.34052586864073
 10
152.32220757117355
 20
84.0122691364312
 10
152.12102402366472
 20
84.2397716465027
 10
151.95638744624821
 20
84.39132804170785
 10
151.75253416675864
 20
84.54569106536951
 10
151.5620449829271
 20
84.6630451651226
 10
151.27344430488117
 20
84.80010574278629
 10
150.98542139863005
 20
84.89601712534184
 10
89.42382750630392
 20
101.54465340176726
 10
89.19616063675346
 20
101.58259168739524
 10
88.86701950179912
 20
101.6
 10
88.53845202767737
 20
101.57390352104788
 10
88.23180076866211
 20
101.51011225833304
 10
26.814578601370016
 20
84.89601712534187
 10
26.46747603959463
 20
84.77566974698094
 10
26.100806107524015
 20
84.58095426683994
 10
25.795202044915428
 20
84.34954289457424
 10
25.61268645240814
 20
84.17041468766826
 10
25.47779242882621
 20
84.0122691364309
 10
0.5465954897274451
 20
52.340525868640334
 10
0.4195454978268491
 20
52.16473426009273
 10
0.28383303022316336
 20
51.93493333819055
 10
0.1279990832450014
 20
51.56641601386256
 10
0.027772794629267242
 20
51.14474098131595
 10
0.0
 20
50.76214747707894
  0
LWPOLYLINE
  5
32
330
17
100
AcDbEntity
  8
CUT
100
AcDbPolyline
 90
109
 70
1
 10
116.14315778677995
 20
14.006246788398542
 10
116.95433609891546
 20
14.010682990482039
 10
117.41386781140933
 20
14.064213574205326
 10
117.68514596283424
 20
14.12883521714707
 10
117.95744523870634
 20
14.221521950062453
 10
118.18373833907005
 20
14.321882182088956
 10
118.42928016873262
 20
14.457291823009072
 10
118.67593634379159
 20
14.624262803330069
 10
118.87019771557081
 20
14.78153327523843
 10
119.07076648140017
 20
14.979898154269478
 10
119.22863967344055
 20
15.172266175649085
 10
119.38343912151727
 20
15.407129553426984
 10
119.50017826302181
 20
15.6309577853892
 10
119.610101532655
 20
15.904800362417063
 10
119.68529280929255
 20
16.15760625532934
 10
119.76486706750795
 20
16.575383007356407
 10
123.34586751435904
 20
42.65468776802116
 10
123.70216360082357
 20
42.65523973391642
 10
123.72191552739125
 20
42.64117199373262
 10
136.7588728170568
 20
24.832312876614438
 10
136.87460202694672
 20
24.710153354699955
 10
137.03235499298628
 20
24.607919960628294
 10
137.1814946709182
 20
24.554584928165553
 10
137.36830253771234
 20
24.533597168354206
 10
137.56399505285694
 20
24.56240530508363
 10
137.7108300958337
 20
24.621791661898342
 10
137.86427257038338
 20
24.730387574167054
 10
137.97491195197532
 20
24.85717529461789
 10
149.90878501545177
 20
42.641156726898075
 10
149.92744814476487
 20
42.655247023296354
 10
150.28397565127582
 20
42.65469838376375
 10
153.98516476211603
 20
16.588566564818947
 10
154.05754007751074
 20
16.238012427448012
 10
154.21882851411797
 20
15.756413475973048
 10
154.34220683022423
 20
15.499716902259152
 10
154.463955648914
 20
15.296044946200155
 10
154.60425055623915
 20
15.102017556342716
 10
154.7578914382379
 20
14.925014087157635
 10
154.92047297317447
 20
14.7674527278636
 10
155.13600930247333
 20
14.593317688169662
 10
155.39037054922642
 20
14.424369064690396
 10
155.64993723901347
 20
14.286913626623047
 10
155.92044097807707
 20
14.176770388644243
 10
156.21272079025576
 20
14.091401767312433
 10
156.48725524539154
 20
14.039627348133692
 10
156.73795045832532
 20
14.013976857641183
 10
157.6087661295145
 20
14.006248475586474
 10
157.6087678167024
 20
13.600691280457795
 10
143.1638472460296
 20
13.600689593269877
 10
143.16384555884167
 20
13.9655529815129
 10
143.8766416637016
 20
13.967684363160387
 10
144.1452717957017
 20
14.004712665281104
 10
144.32241856924972
 20
14.06076585365662
 10
144.48380117324427
 20
14.13745501545148
 10
144.63822078239392
 20
14.237215837935679
 10
144.78533375827902
 20
14.360074165444459
 10
145.05046935128357
 20
14.66500589082635
 10
145.24279765157198
 20
14.992945707105577
 10
145.359961879988
 20
15.3385682399432
 10
145.40089370564382
 20
15.68331846910013
 10
144.1069027375829
 20
25.66182972832462
 10
144.0273101785033
 20
25.892356581379673
 10
143.94519350919475
 20
26.013975832466187
 10
143.84850407514563
 20
26.1110456662782
 10
143.76111770609734
 20
26.17395615673817
 10
143.62923993509315
 20
26.23831952464606
 10
143.3898694856717
 20
26.285003498174177
 10
143.20499083798543
 20
26.26739092500162
 10
143.02141354095463
 20
26.200403068090836
 10
142.86138824986676
 20
26.088242900602268
 10
142.75196828958698
 20
25.96308754678931
 10
136.9501962049755
 20
17.363386460609476
 10
136.4565613187916
 20
16.557118848529527
 10
136.20163419083502
 20
16.10071475137333
 10
135.92209060419793
 20
15.526241116762634
 10
135.64386308801832
 20
14.874200431850738
 10
135.47456564232186
 20
14.407547328391033
 10
135.3517248981337
 20
13.95326237380317
 10
135.2692108863028
 20
13.491376226602043
 10
135.23153765968905
 20
13.085295457971824
 10
135.22712815953605
 20
12.624064524073276
 10
134.8562135610791
 20
12.631072882867187
 10
125.39113255220627
 20
25.735795149495118
 10
125.28644412852772
 20
25.849839393113214
 10
125.16066968235242
 20
25.940030525468444
 10
124.99118352072867
 20
26.01086139186613
 10
124.83863462922382
 20
26.03698585104702
 10
124.69355954408222
 20
26.032520336711585
 10
124.55206441914804
 20
26.000180720647677
 10
124.42790116287615
 20
25.945894870967933
 10
124.30807956770035
 20
25.863983293783235
 10
124.23145256658829
 20
25.7900216051149
 10
124.14535210804321
 20
25.673173703183622
 10
124.08670643360793
 20
25.55100925437131
 10
124.04937991583016
 20
25.410747170336563
 10
122.86389484069302
 20
15.934441274020799
 10
122.85751857835712
 20
15.67553799072654
 10
122.90399912936729
 20
15.313928917410081
 10
123.02381115216394
 20
14.975052716054321
 10
123.22312938419263
 20
14.643953154158226
 10
123.47292791564277
 20
14.360074165444246
 10
123.62004089152789
 20
14.237215837935537
 10
123.77446050067711
 20
14.137455015451579
 10
123.93584310467318
 20
14.06076585365608
 10
124.11298987822016
 20
14.004712665281033
 10
124.38162001022053
 20
13.967684363160373
 10
125.09441442789199
 20
13.965554668700833
 10
125.09441611507992
 20
13.600691280457795
 10
116.15173680680111
 20
13.60012859028032
  0
LWPOLYLINE
  5
33
330
17
100
AcDbEntity
  8
CUT
100
AcDbPolyline
 90
64
 70
1
 10
142.18740079933627
 20
77.31991953500889
 10
142.19991968274573
 20
77.07490819093341
 10
142.18836297301524
 20
76.82984957829635
 10
142.15284196757733
 20
76.58710374550105
 10
142.09369875313132
 20
76.34900846761191
 10
142.01150291116411
 20
76.11785673231518
 10
141.9070460325666
 20
75.89587465718104
 10
141.78133409418092
 20
75.68520005093954
 10
141.6355777706953
 20
75.48786182521627
 10
141.4711807751835
 20
75.30576045500106
 10
141.28972634058164
 20
75.14064967603635
 10
141.0929619722858
 20
74.99411959538044
 10
140.8827826187275
 20
74.8675813778135
 10
140.66121242197516
 20
74.76225365554217
 10
140.43038522414733
 20
74.67915079211066
 10
140.1925240173424
 20
74.6190731135224
 10
139.9499195350089
 20
74.58259920066372
 10
139.7049081909336
 20
74.57008031725425
 10
139.45984957829626
 20
74.58163702698474
 10
139.21710374549977
 20
74.6171580324229
 10
138.97900846761152
 20
74.67630124686877
 10
138.74785673231483
 20
74.758497088836
 10
138.52587465718037
 20
74.86295396743373
 10
138.3152000509398
 20
74.98866590581889
 10
138.1178618252162
 20
75.13442222930472
 10
137.93576045500123
 20
75.29881922481627
 10
137.7706496760362
 20
75.48027365941851
 10
137.62411959538068
 20
75.67703802771382
 10
137.49758137781353
 20
75.88721738127245
 10
137.39225365554245
 20
76.10878757802422
 10
137.30915079211061
 20
76.33961477585272
 10
137.24907311352254
 20
76.57747598265694
 10
137.2125992006637
 20
76.8200804649911
 10
137.20008031725425
 20
77.06509180906657
 10
137.21163702698473
 20
77.3101504217037
 10
137.24715803242287
 20
77.55289625450015
 10
137.30630124686854
 20
77.79099153238766
 10
137.38849708883626
 20
78.02214326768585
 10
137.49295396743338
 20
78.24412534281895
 10
137.61866590581957
 20
78.45479994906123
 10
137.76442222930467
 20
78.65213817478372
 10
137.92881922481646
 20
78.83423954499892
 10
138.11027365941834
 20
78.99935032396364
 10
138.30703802771419
 20
79.14588040461955
 10
138.51721738127284
 20
79.27241862218669
 10
138.7387875780248
 20
79.37774634445782
 10
138.96961477585265
 20
79.46084920788932
 10
139.20747598265757
 20
79.52092688647758
 10
139.4500804649911
 20
79.55740079933626
 10
139.69509180906638
 20
79.56991968274573
 10
139.94015042170372
 20
79.55836297301525
 10
140.1828962545002
 20
79.52284196757708
 10
140.42099153238846
 20
79.46369875313121
 10
140.65214326768483
 20
79.38150291116412
 10
140.8741253428196
 20
79.27704603256626
 10
141.08479994906097
 20
79.15133409418058
 10
141.28213817478377
 20
79.00557777069527
 10
141.46423954499872
 20
78.84118077518373
 10
141.6293503239638
 20
78.65972634058147
 10
141.77588040461953
 20
78.46296197228581
 10
141.90241862218645
 20
78.25278261872754
 10
142.00774634445804
 20
78.03121242197463
 10
142.0908492078892
 20
77.80038522414777
 10
142.15092688647775
 20
77.56252401734159
  0
LWPOLYLINE
  5
34
330
17
100
AcDbEntity
  8
CUT
100
AcDbPolyline
 90
220
 70
1
 10
79.7649299474448
 20
42.08497353948679
 10
95.81055991160501
 20
42.08520965820423
 10
96.73260930098837
 20
42.05887386782495
 10
97.6648148764378
 20
41.99185852896507
 10
98.7426327334211
 20
41.86545957320638
 10
99.69400740524618
 20
41.71040333963454
 10
100.61447455610727
 20
41.49847338736482
 10
101.3743536984254
 20
41.26558298002696
 10
102.22310708178748
 20
40.93483792286254
 10
103.03043819042561
 20
40.540494559229444
 10
103.35884878700263
 20
40.34896290791666
 10
103.6732571963741
 20
40.14201361513397
 10
104.1714833898623
 20
39.75830146831586
 10
104.53246722404496
 20
39.4286382745871
 10
104.8738812931319
 20
39.06702228022409
 10
105.19039253985163
 20
38.6779803373468
 10
105.41514242542102
 20
38.36266821354622
 10
105.67759904606683
 20
37.93368129226723
 10
105.85377837904429
 20
37.58160520239775
 10
106.00872854760497
 20
37.20661247415224
 10
106.13973570065795
 20
36.815223581621666
 10
106.24998104232142
 20
36.39683860515585
 10
106.35823341647908
 20
35.82488397745463
 10
106.41498393807073
 20
35.36165229054309
 10
106.45433359684166
 20
34.728486853880185
 10
106.4564773514316
 20
34.17406455997907
 10
106.43327205217955
 20
33.728068184796484
 10
106.37155905879847
 20
33.16472480998466
 10
106.29518509255233
 20
32.70501003380072
 10
106.1972278038205
 20
32.2498661097146
 10
106.07403673995574
 20
31.782261554621755
 10
105.92861937662809
 20
31.314685680118373
 10
105.75850800411588
 20
30.852905216524846
 10
105.607774572135
 20
30.51373037545025
 10
105.43440681247621
 20
30.17762206593362
 10
105.181553627987
 20
29.758605469120113
 10
104.9669502990718
 20
29.450534356307614
 10
104.65100179217805
 20
29.05429527706437
 10
104.30098346079974
 20
28.674658640510003
 10
103.91779670473703
 20
28.312435928566757
 10
103.59953393243822
 20
28.052749300969424
 10
103.25875743919758
 20
27.815767407780072
 10
102.89139577761088
 20
27.59792538404085
 10
102.49454617940845
 20
27.397889221336783
 10
101.8918816350462
 20
27.145378479171583
 10
101.72172360102432
 20
27.03076560186561
 10
101.59431289843207
 20
26.8825357444111
 10
101.49828000107158
 20
26.668844600315794
 10
101.47205607838781
 20
26.465369358417263
 10
101.51076972295408
 20
26.234312057810058
 10
101.59643346156513
 20
26.058621131282834
 10
101.72460548894004
 20
25.911049083880854
 10
102.16583278906938
 20
25.60910834176238
 10
102.54844927596874
 20
25.318099978789746
 10
102.83209159826744
 20
25.07422461425739
 10
103.1871312374842
 20
24.737081866483763
 10
103.75659116331444
 20
24.141659811536698
 10
104.32423590914524
 20
23.457628218450367
 10
104.63406785185337
 20
23.028708228051855
 10
104.85955154728208
 20
22.681207787160886
 10
106.2641336835114
 20
20.317717481844724
 10
107.07126334840416
 20
19.02228968397118
 10
107.64038768924289
 20
18.142884528599055
 10
108.12883570830462
 20
17.435221113496084
 10
108.63462002781245
 20
16.751443391460256
 10
109.12966210868584
 20
16.130178776850627
 10
109.58488309315187
 20
15.608552512719697
 10
109.99554891054544
 20
15.191042866501121
 10
110.35244901861562
 20
14.882633495929795
 10
110.74385090537315
 20
14.608099406565799
 10
111.14164469140958
 20
14.395790437593732
 10
111.55303210440731
 20
14.243739230110819
 10
112.00642452712945
 20
14.130897309919192
 10
112.49678925935453
 20
14.053566769007404
 10
113.0917573278427
 20
14.006263462235765
 10
113.0917786002402
 20
13.600691280457795
 10
107.82901121100375
 20
13.600381102932218
 10
106.30536561402565
 20
13.636476338693512
 10
105.17261223633663
 20
13.705270459135306
 10
104.23810811426226
 20
13.792598983454155
 10
103.33720708222799
 20
13.906686144176959
 10
102.61492508001182
 20
14.039600212280845
 10
101.78930835982749
 20
14.255800309457356
 10
101.12713631837045
 20
14.48539878135719
 10
100.36847686855116
 20
14.819154175238609
 10
99.76043065473276
 20
15.149290167644864
 10
99.18712346913824
 20
15.532930512703658
 10
98.63841554917995
 20
15.988380055191257
 10
98.21013728305681
 20
16.41183105989218
 10
97.70730661724782
 20
16.995570420177316
 10
97.22153324040843
 20
17.661410376254764
 10
96.69909601624458
 20
18.503986274466058
 10
96.34566549301853
 20
19.18456531393302
 10
96.06239269946178
 20
19.86229164667435
 10
95.74102729980953
 20
20.781866218576695
 10
95.47125825031287
 20
21.71152906080178
 10
95.288698440857
 20
22.451919632995597
 10
94.9508327097678
 20
24.006047320982077
 10
94.79631993707991
 20
24.600169774949705
 10
94.55551127473593
 20
25.381764743635074
 10
94.4268242248294
 20
25.720890469177746
 10
94.28770754658902
 20
26.03020954726476
 10
94.14648758305016
 20
26.291745718502327
 10
94.00308454654004
 20
26.51010762956635
 10
93.84842154402436
 20
26.69885410961578
 10
93.67958562071306
 20
26.860393216423645
 10
93.2365271758767
 20
27.204055829946014
 10
92.94152370116772
 20
27.378270063346278
 10
92.62397037955397
 20
27.517819088111693
 10
92.49986362098207
 20
27.643016144412513
 10
92.38228474283953
 20
27.72084329015
 10
92.52242452390841
 20
27.817658565730326
 10
92.62382634125647
 20
27.923512397714987
 10
93.51204836109636
 20
27.930150834806838
 10
94.04756765250532
 20
27.990040790404905
 10
94.34870987810658
 20
28.05544069071925
 10
94.62874276571291
 20
28.139523559475236
 10
95.12396168405625
 20
28.35085386598257
 10
95.37696864695334
 20
28.494408605498478
 10
95.61092280550294
 20
28.653763132437618
 10
95.80580051880196
 20
28.809160771853797
 10
96.02741130635302
 20
29.014517495099113
 10
96.23664176556868
 20
29.240722444508563
 10
96.4373873896838
 20
29.492344607363833
 10
96.77265464911527
 20
30.006231915749666
 10
96.94509788533954
 20
30.33239252300639
 10
97.12746749749303
 20
30.754213933587337
 10
97.2623899021209
 20
31.139266275603987
 10
97.3789123026338
 20
31.546448337045803
 10
97.47877466747603
 20
31.9801998429584
 10
97.56198512803365
 20
32.44051424458017
 10
97.71024855303646
 20
33.642153108977325
 10
97.72887601217293
 20
34.21483895193158
 10
97.68024648504279
 20
35.02732077367587
 10
97.5864518277987
 20
35.80876364010224
 10
97.44468448707421
 20
36.52038824788653
 10
97.3107578310165
 20
36.99385789071022
 10
97.14792338407685
 20
37.4353418019155
 10
96.95866124738006
 20
37.834865477192636
 10
96.74918961927864
 20
38.18322706708111
 10
96.50866109589478
 20
38.49918560037167
 10
96.30158550048769
 20
38.71801084639376
 10
95.94624040500118
 20
39.02047585129079
 10
95.62293110931351
 20
39.24845917554634
 10
95.2279842739398
 20
39.47528260253364
 10
94.88141468370753
 20
39.63308173481128
 10
94.44492261795115
 20
39.78341829875743
 10
94.08173819569822
 20
39.87197290995552
 10
93.71449704805408
 20
39.93115866921552
 10
93.33549010152458
 20
39.96320623480557
 10
92.04040605609072
 20
39.96958686189156
 10
91.90364957632492
 20
39.958375409584306
 10
91.76195816116028
 20
39.91941539482707
 10
91.63059002863191
 20
39.853561362017416
 10
91.51459358240096
 20
39.76334404470489
 10
91.41842650084429
 20
39.652230443799034
 10
91.34578443097551
 20
39.5244905926701
 10
91.2994589668015
 20
39.38503346216045
 10
91.28090895032382
 20
39.229399958302864
 10
91.28152568172575
 20
28.35433897154624
 10
91.3138038635287
 20
28.16392460334454
 10
91.39365978398081
 20
27.98807653083118
 10
91.51579287141116
 20
27.83846696698987
 10
91.67898828008025
 20
27.72087616077627
 10
91.51827671503176
 20
27.60569261443925
 10
91.3948921908428
 20
27.4557238176144
 10
91.3141728320251
 20
27.27909209356058
 10
91.28153617689286
 20
27.08765220855237
 10
91.28058770280965
 20
16.57753401955155
 10
91.29083101060353
 20
16.332998256002654
 10
91.32617098814367
 20
16.07577699200037
 10
91.37748911709427
 20
15.860341669327
 10
91.45325412138972
 20
15.639316550780649
 10
91.55840704700613
 20
15.412255224584698
 10
91.6716269661221
 20
15.220400189698964
 10
91.81143312129652
 20
15.027075379676347
 10
91.99024802489245
 20
14.823692290848243
 10
92.1614638700255
 20
14.659940230142126
 10
92.3933020752935
 20
14.475351285726674
 10
92.63684843772504
 20
14.321290202280409
 10
92.89218687988983
 20
14.197775976139056
 10
93.1510741344535
 20
14.107269094592027
 10
93.3883489028503
 20
14.051422569690018
 10
93.6555431024643
 20
14.01618615564584
 10
94.37262574566012
 20
14.00624847558646
 10
94.37262743284803
 20
13.600691280457795
 10
79.76493163463272
 20
13.600689593269877
 10
79.76492994744478
 20
14.006246788398542
 10
80.51043671786654
 20
14.015240655110986
 10
80.74723174317559
 20
14.04408129925072
 10
81.0037007514086
 20
14.10132412045084
 10
81.26878893052424
 20
14.192743395538585
 10
81.51402909683034
 20
14.31076921491325
 10
81.72078984998373
 20
14.438933942974074
 10
81.94980384791792
 20
14.616318002922284
 10
82.14798277499763
 20
14.80469832268318
 10
82.30828000281197
 20
14.985679619281527
 10
82.46822948167821
 20
15.203057052453119
 10
82.58858687607805
 20
15.403949923181173
 10
82.70065921011609
 20
15.640437171003924
 10
82.7757751557014
 20
15.847928111388
 10
82.83570755864305
 20
16.07459928835766
 10
82.87906706964114
 20
16.334052632063518
 10
82.8976634843688
 20
16.59726918211217
 10
82.8976634843688
 20
39.088395637832406
 10
82.87999005153223
 20
39.343962918478155
 10
82.83399697607149
 20
39.61899408338382
 10
82.76031081592556
 20
39.885337643374555
 10
82.67284864976135
 20
40.11013041850071
 10
82.54780772073133
 20
40.354525085351
 10
82.40217542312392
 20
40.57788017643122
 10
82.24843393452112
 20
40.77107886470302
 10
82.05406453982033
 20
40.9746447279257
 10
81.82053306928856
 20
41.17440501119518
 10
81.58298534793076
 20
41.33528653323258
 10
81.33315614221637
 20
41.46525327828692
 10
81.07111518566511
 20
41.56437085354821
 10
80.80946568281189
 20
41.63031914650584
 10
80.53053773814737
 20
41.668787305349994
 10
79.76493163463272
 20
41.67941634435811
  0
LWPOLYLINE
  5
35
330
17
100
AcDbEntity
  8
CUT
100
AcDbPolyline
 90
3
 70
1
 10
90.88684161150755
 20
75.59305737581478
 10
97.89970206686336
 20
82.61938357524798
 10
97.89970336566964
 20
68.58061696273519
  0
LWPOLYLINE
  5
36
330
17
100
AcDbEntity
  8
CUT
100
AcDbPolyline
 90
3
 70
1
 10
81.88061696273517
 20
66.60029663433033
 10
88.89999902154021
 20
73.61966178206117
 10
95.91938357524798
 20
66.60029793313663
  0
LWPOLYLINE
  5
37
330
17
100
AcDbEntity
  8
CUT
100
AcDbPolyline
 90
4
 70
1
 10
81.88971734060345
 20
84.6
 10
95.91028265939653
 20
84.6
 10
95.9193830372648
 20
84.59970336566965
 10
88.90000097845977
 20
77.58033821793882
  0
LWPOLYLINE
  5
38
330
17
100
AcDbEntity
  8
CUT
100
AcDbPolyline
 90
3
 70
1
 10
79.90029663433035
 20
82.6193830372648
 10
86.91966178206117
 20
75.6000009784598
 10
79.90029793313663
 20
68.58061642475201
  0
LWPOLYLINE
  5
39
330
17
100
AcDbEntity
  8
CUT
100
AcDbPolyline
 90
55
 70
1
 10
58.45521055375818
 20
22.389862287297177
 10
59.68649861906695
 20
22.390184566734476
 10
59.80380943295223
 20
22.401109649771342
 10
59.93653091853622
 20
22.436732042366458
 10
60.1178855354132
 20
22.533851881144344
 10
60.259896431688745
 20
22.668941243030176
 10
60.377015086546926
 20
22.872586380401557
 10
60.4232982461871
 20
23.073034950565486
 10
60.41672454475828
 20
23.259189168268335
 10
60.37216408900871
 20
23.419864013180316
 10
58.445392200476675
 20
28.04108684993561
 10
58.44571688587658
 20
39.35643756097788
 10
58.9833700997646
 20
40.67657345038647
 10
59.42082796532477
 20
41.858539726653014
 10
59.61053646790911
 20
42.505632871887485
 10
59.66838040083654
 20
42.783559413675825
 10
59.70484655200441
 20
43.061639539050105
 10
60.07002216717426
 20
43.0616062767787
 10
73.07340222705868
 20
16.086173335993976
 10
73.32773570625895
 20
15.690643997338185
 10
73.61520196512544
 20
15.325114554182335
 10
73.91720821057046
 20
15.018182726581628
 10
74.24342683243846
 20
14.760730264011173
 10
74.61854490518608
 20
14.531481172451777
 10
74.89632792138798
 20
14.38207585990203
 10
75.17772097215752
 20
14.255538458664986
 10
75.5004948012174
 20
14.141696464868716
 10
75.77802971811057
 20
14.071079196433018
 10
76.05819090781995
 20
14.025913566904208
 10
76.3096075972757
 20
14.008141074466153
 10
76.71354907371708
 20
14.00624847558646
 10
76.71355076090502
 20
13.600691280457795
 10
61.291978824976994
 20
13.600689593269877
 10
61.29197713778906
 20
14.006246788398542
 10
61.722154725219845
 20
14.008162427556698
 10
61.92611133466203
 20
14.026113461804457
 10
62.16861288663899
 20
14.078447122759115
 10
62.4108788846975
 20
14.168219683079798
 10
62.665126394620735
 20
14.308024884321284
 10
62.90799196506465
 20
14.491525070928745
 10
63.128674069078436
 20
14.707992923284351
 10
63.27238738426174
 20
14.904826816017035
 10
63.3580149753056
 20
15.081592840117494
 10
63.41313983574401
 20
15.265563870042868
 10
63.44118115816285
 20
15.463741267193583
 10
63.441657542049846
 20
15.675472774379358
 10
63.375470560553005
 20
16.079388172875568
 10
63.204610848838364
 20
16.570795964369793
 10
63.169453468318316
 20
16.742404346068668
 10
61.84634121611505
 20
19.904109601658618
 10
61.76368090684512
 20
20.047901365812848
 10
61.629050725642806
 20
20.18892059266709
 10
61.42644706602999
 20
20.305368547183747
 10
61.18808211046946
 20
20.354215946416275
 10
58.445703475299645
 20
20.3554818340873
  0
LWPOLYLINE
  5
3A
330
17
100
AcDbEntity
  8
CUT
100
AcDbPolyline
 90
48
 70
1
 10
44.159884438936665
 20
14.006246788398542
 10
44.73884332666361
 20
14.014905582651693
 10
45.21501095844003
 20
14.087318406704327
 10
45.485907462591406
 20
14.1609154647942
 10
45.7536108626903
 20
14.255781810005175
 10
46.258579087470686
 20
14.491930305460087
 10
46.70421924040649
 20
14.761401810464122
 10
47.10103804715442
 20
15.08788167220112
 10
47.47413334049078
 20
15.499298932380299
 10
47.801398460969985
 20
15.968773238135071
 10
56.24310689583745
 20
34.491642948386385
 10
56.243048596366286
 20
27.932620306199382
 10
54.301828454108566
 20
23.446862534444108
 10
54.24925564819587
 20
23.277129544967465
 10
54.23665145900986
 20
23.129539989423563
 10
54.26806282108023
 20
22.92490219559747
 10
54.319774627186206
 20
22.79663511484773
 10
54.37641557999588
 20
22.70386992634154
 10
54.542528664007165
 20
22.535645161624387
 10
54.72473015154526
 20
22.43732975963492
 10
54.85824086892836
 20
22.401254238314664
 10
54.97629665812989
 20
22.390188721858138
 10
56.24308092565371
 20
22.389552396225298
 10
56.24308230940481
 20
20.355483217838398
 10
53.40920256751131
 20
20.354245260745927
 10
53.17433839610243
 20
20.306879537049568
 10
53.05311594852324
 20
20.24841390082065
 10
52.93711264326478
 20
20.16283977713192
 10
52.83389618226152
 20
20.048936891078583
 10
52.755959320814426
 20
19.91640339766336
 10
51.384593477392535
 20
16.806510480377767
 10
51.32059114145789
 20
16.570851766886932
 10
51.17526308272656
 20
16.183618288815467
 10
51.10329912936939
 20
15.861579257191238
 10
51.089432905895094
 20
15.525244421002455
 10
51.14742389422269
 20
15.220351453718337
 10
51.21779689864701
 20
15.040998517531463
 10
51.302633682413706
 20
14.87836086448813
 10
51.51423605068806
 20
14.597015888897985
 10
51.67108426157406
 20
14.4516450513877
 10
51.84520949033993
 20
14.327823123323142
 10
52.079679322952245
 20
14.199271475383583
 10
52.30699455228396
 20
14.105253439421418
 10
52.505695475572075
 20
14.048307412447727
 10
52.69748675464251
 20
14.01622017145418
 10
53.23322250070562
 20
14.006248475586446
 10
53.23322418789355
 20
13.60069128045778
 10
44.16846345895773
 20
13.60012859028032
  0
LWPOLYLINE
  5
3B
330
17
100
AcDbEntity
  8
CUT
100
AcDbPolyline
 90
140
 70
1
 10
20.191232183297576
 20
42.084973539486775
 10
38.55015319736434
 20
42.09331332947922
 10
39.087124724782015
 20
42.12090696980788
 10
39.70798199794509
 20
42.175648548547976
 10
41.14639773141039
 20
42.371019573224274
 10
42.33895586476134
 20
42.59734622241936
 10
42.74104399572552
 20
42.703253627400734
 10
43.05977531559469
 20
42.817108386690684
 10
43.05977246648478
 20
34.43592040590299
 10
42.6542152713561
 20
34.43591871871506
 10
42.65141954892013
 20
34.944823010970765
 10
42.62475245904168
 20
35.44270854539671
 10
42.56780258920871
 20
35.91252464906739
 10
42.48007869346665
 20
36.36149148980347
 10
42.35965700256943
 20
36.79460849535356
 10
42.25068049064251
 20
37.09898736891898
 10
42.07854768392192
 20
37.485601420734255
 10
41.87143721759904
 20
37.856798826167754
 10
41.710294159598554
 20
38.09878613324056
 10
41.464936698462495
 20
38.41262150055369
 10
41.26283783282811
 20
38.6334010376375
 10
41.012303580043195
 20
38.86427979600912
 10
40.73827757922206
 20
39.07914350381701
 10
40.51714302931742
 20
39.228747693417205
 10
40.21182640794501
 20
39.4058433302514
 10
39.891490085707126
 20
39.560276178749525
 10
39.5249923801215
 20
39.70370212698226
 10
39.046761865571604
 20
39.846206968515844
 10
38.63820436528777
 20
39.93405875476445
 10
38.11237071694441
 20
40.007734565378605
 10
32.42601448505792
 20
40.0102806687772
 10
32.19391272257474
 20
39.97618002773131
 10
31.975590967163615
 20
39.86673668125757
 10
31.80403492981193
 20
39.692924250685365
 10
31.69745352389286
 20
39.47319114237959
 10
31.666196131776807
 20
39.250462315495994
 10
31.666517379290987
 20
29.396895451273252
 10
31.68729153776583
 20
29.23172312261447
 10
31.752800734421417
 20
29.057669362313064
 10
31.86574337309107
 20
28.897863220878605
 10
31.983552549869216
 20
28.79454734571972
 10
32.193912722574595
 20
28.690809188730924
 10
32.4063830353655
 20
28.657029795199165
 10
36.08456690142186
 20
28.656708547685
 10
36.359093622988055
 20
28.668036675059653
 10
36.878093101155116
 20
28.728081655271836
 10
37.27792850962515
 20
28.812721137194032
 10
37.73141643904439
 20
28.95553701846734
 10
38.17065662355826
 20
29.149376914118974
 10
38.61685890678415
 20
29.41302117490548
 10
39.087737873511315
 20
29.780925532732255
 10
39.45935343681156
 20
30.153790682774968
 10
39.67541841189088
 20
30.417832834367644
 10
39.82141751405486
 20
30.62475637997491
 10
40.00311871323958
 20
30.928931011275267
 10
40.1245160253613
 20
31.174547172497213
 10
40.25592129562955
 20
31.503860672418625
 10
40.357950885679784
 20
31.843573581952512
 10
40.43314586776596
 20
32.20294252354222
 10
40.471075816039324
 20
32.48481043217977
 10
40.49564258499911
 20
32.857443793194946
 10
40.4974418192295
 20
33.29511125218957
 10
40.90299901435818
 20
33.29511293937752
 10
40.90300070154612
 20
21.983615498898644
 10
40.49744350641744
 20
21.98361381171071
 10
40.490872043337454
 20
22.44343239966514
 10
40.469954743978484
 20
22.732428406242306
 10
40.417981303170436
 20
23.106688007697244
 10
40.33443024206229
 20
23.481209741942777
 10
40.226823019629116
 20
23.82379382409492
 10
40.09414914599966
 20
24.146822638027515
 10
39.928473001767586
 20
24.466987972457147
 10
39.73926686286971
 20
24.764591111937833
 10
39.41649031858956
 20
25.170384852646848
 10
39.17636099253056
 20
25.41727999404749
 10
38.970566500576666
 20
25.60169422670873
 10
38.7050099875827
 20
25.808050036859925
 10
38.4859302509098
 20
25.954733213285238
 10
38.19023707400695
 20
26.122946913449937
 10
37.96421734102155
 20
26.231140281112943
 10
37.61183366489428
 20
26.368550651570615
 10
37.24813633367609
 20
26.475113038294495
 10
36.776613537291205
 20
26.567165926146018
 10
36.37695046431628
 20
26.609612448644796
 10
36.084663881494976
 20
26.62201820340323
 10
32.4063830353655
 20
26.621696955889064
 10
32.193912722574744
 20
26.587917562357347
 10
31.97559096716396
 20
26.47847421588385
 10
31.80974011929631
 20
26.31262336801626
 10
31.700296772822558
 20
26.09430161260488
 10
31.666196131776807
 20
25.862199850122025
 10
31.666196131776807
 20
16.597269182111702
 10
31.690629874260573
 20
16.288155211863568
 10
31.74622132001869
 20
15.996957970355723
 10
31.887587235889363
 20
15.583201182377522
 10
32.09563013446773
 20
15.203057052452607
 10
32.250711064493274
 20
14.991714648448635
 10
32.398072523634234
 20
14.823394071470545
 10
32.72698458853881
 20
14.523847485648545
 10
32.92759013955997
 20
14.383126065623557
 10
33.155184456045745
 20
14.255808307645893
 10
33.368512800151606
 20
14.163901448112497
 10
33.62833502362914
 20
14.083275043257032
 10
34.06146941084739
 20
14.014661594291312
 10
34.798927981512904
 20
14.00624847558646
 10
34.798929668700836
 20
13.600691280457795
 10
20.1912338704855
 20
13.600689593269877
 10
20.191232183297576
 20
14.006246788398542
 10
20.93673895371928
 20
14.015240655110986
 10
21.173533979027965
 20
14.044081299250635
 10
21.430002987261254
 20
14.101324120450798
 10
21.69509116637647
 20
14.192743395538372
 10
21.940331332682927
 20
14.310769214913122
 10
22.14709208583665
 20
14.43893394297416
 10
22.376106083769862
 20
14.616318002921531
 10
22.574285010850783
 20
14.804698322683578
 10
22.734582238665652
 20
14.985679619282635
 10
22.89453171753059
 20
15.203057052452493
 10
23.01488911193126
 20
15.403949923181955
 10
23.12696144596902
 20
15.640437171004265
 10
23.202077391554088
 20
15.84792811138766
 10
23.26200979449591
 20
16.074599288357987
 10
23.305369305493883
 20
16.334052632063035
 10
23.323965720221604
 20
16.59726918211169
 10
23.323965720221604
 20
39.08839563783288
 10
23.30629228738502
 20
39.34396291847827
 10
23.26029921192425
 20
39.61899408338398
 10
23.18661305177826
 20
39.88533764337488
 10
23.099150885613923
 20
40.11013041850122
 10
22.974109956583934
 20
40.35452508535134
 10
22.828477658976386
 20
40.577880176431705
 10
22.674736170373688
 20
40.771078864703306
 10
22.480366775673513
 20
40.97464472792532
 10
22.246835305141254
 20
41.17440501119525
 10
22.00928758378322
 20
41.33528653323278
 10
21.759458378069006
 20
41.46525327828699
 10
21.497417421517515
 20
41.56437085354833
 10
21.235767918663964
 20
41.63031914650598
 10
20.956839974000083
 20
41.66878730535
 10
20.191233870485505
 20
41.67941634435811
  0
LWPOLYLINE
  5
3C
330
17
100
AcDbEntity
  8
CUT
100
AcDbPolyline
 90
64
 70
1
 10
40.594246151761745
 20
77.23840025219549
 10
40.59874178594517
 20
76.99311048387938
 10
40.57917317077875
 20
76.748561203635
 10
40.53572876272384
 20
76.50710755471623
 10
40.46882695517903
 20
76.27107486775355
 10
40.379112049123414
 20
76.04273626655163
 10
40.267448048145326
 20
75.82429077666222
 10
40.13491033761593
 20
75.61784214756742
 10
39.98277532814023
 20
75.42537859242188
 10
39.812508163024766
 20
75.24875364047273
 10
39.62574860814728
 20
75.08966828656045
 10
39.42429526011421
 20
74.94965460960793
 10
39.210088224792976
 20
74.8300610178637
 10
38.98519043303072
 20
74.73203926299249
 10
38.751767773504284
 20
74.6565333480781
 10
38.51206823402647
 20
74.60427043635679
 10
38.268400252195526
 20
74.57575384823825
 10
38.02311048387914
 20
74.57125821405481
 10
37.77856120363484
 20
74.59082682922126
 10
37.53710755471627
 20
74.63427123727614
 10
37.30107486775361
 20
74.70117304482093
 10
37.07273626655177
 20
74.79088795087652
 10
36.85429077666215
 20
74.9025519518547
 10
36.64784214756747
 20
75.03508966238402
 10
36.45537859242209
 20
75.18722467185958
 10
36.27875364047284
 20
75.3574918369751
 10
36.11966828656037
 20
75.5442513918528
 10
35.97965460960806
 20
75.7457047398856
 10
35.86006101786363
 20
75.95991177520716
 10
35.76203926299255
 20
76.18480956696911
 10
35.68653334807809
 20
76.41823222649575
 10
35.63427043635681
 20
76.65793176597344
 10
35.605753848238244
 20
76.9015997478045
 10
35.601258214054816
 20
77.14688951612061
 10
35.62082682922126
 20
77.39143879636516
 10
35.664271237276104
 20
77.63289244528353
 10
35.7311730448209
 20
77.86892513224626
 10
35.82088795087659
 20
78.09726373344837
 10
35.93255195185452
 20
78.3157092233375
 10
36.06508966238406
 20
78.52215785243257
 10
36.21722467185968
 20
78.71462140757802
 10
36.38749183697522
 20
78.89124635952726
 10
36.574251391852705
 20
79.05033171343953
 10
36.77570473988575
 20
79.19034539039203
 10
36.98991177520701
 20
79.30993898213629
 10
37.214809566969265
 20
79.4079607370075
 10
37.448232226495705
 20
79.48346665192189
 10
37.68793176597352
 20
79.5357295636432
 10
37.93159974780446
 20
79.56424615176174
 10
38.17688951612085
 20
79.56874178594518
 10
38.42143879636514
 20
79.54917317077874
 10
38.66289244528372
 20
79.50572876272385
 10
38.898925132246376
 20
79.43882695517905
 10
39.127263733448274
 20
79.34911204912345
 10
39.34570922333784
 20
79.23744804814528
 10
39.55215785243262
 20
79.10491033761589
 10
39.74462140757798
 20
78.95277532814033
 10
39.921246359527146
 20
78.78250816302489
 10
40.08033171343957
 20
78.59574860814725
 10
40.22034539039193
 20
78.39429526011439
 10
40.33993898213636
 20
78.18008822479283
 10
40.43796073700744
 20
77.95519043303088
 10
40.5134666519218
 20
77.72176777350457
 10
40.5657295636432
 20
77.48206823402643
  0
LWPOLYLINE
  5
3D
330
17
100
AcDbEntity
  8
SCORE_OPTIONAL
100
AcDbPolyline
 90
63
 70
1
 10
4.000057431652488
 20
7.500560647223622
 10
4.029995471202719
 20
7.043716192486627
 10
4.067301798012821
 20
6.817740129014439
 10
4.119307869113873
 20
6.594687866414205
 10
4.266466449122689
 20
6.1611587504763605
 10
4.468953260147744
 20
5.750546727519222
 10
4.589897517275704
 20
5.556048835627777
 10
4.723303659592165
 20
5.369877558372949
 10
5.025165594974181
 20
5.025664667848105
 10
5.369374069549538
 20
4.723797697037185
 10
5.555543395197294
 20
4.590388831251175
 10
5.952029566122109
 20
4.361474309428218
 10
6.160648578535455
 20
4.266948911031108
 10
6.594175541656508
 20
4.11978398897736
 10
6.817227043440471
 20
4.0677746548692255
 10
7.043202561137394
 20
4.030465022278435
 10
7.50004657786446
 20
4.000520299592608
 10
170.29950937544723
 20
4.0000154558785255
 10
170.75634883092548
 20
4.0299567202687
 10
171.20537190176094
 20
4.119271048639959
 10
171.63889575675537
 20
4.266430263593335
 10
172.0495027578971
 20
4.46891645573578
 10
172.2439983018885
 20
4.589859957599387
 10
172.60721278652164
 20
4.868560523705028
 10
172.9309424127399
 20
5.192285555952338
 10
173.20964813314535
 20
5.555496085546693
 10
173.43856126402673
 20
5.951977542748693
 10
173.5330864140476
 20
6.160594040871601
 10
173.68025178106487
 20
6.594115807505773
 10
173.73226181977415
 20
6.817164688132863
 10
173.79202399774488
 20
7.271066934744539
 10
173.79998098469918
 20
49.047511518212524
 10
173.76890227689762
 20
49.51293734370527
 10
173.6762078570623
 20
49.9700968668978
 10
173.60722719057497
 20
50.19302950540967
 10
173.42553084671084
 20
50.62264971412967
 10
173.18831782661752
 20
51.02429267524368
 10
173.05017267175884
 20
51.2123703449761
 10
150.19409638229504
 20
80.2487755187577
 10
149.89538578126505
 20
80.58200284106596
 10
149.7306694429945
 20
80.73361718098198
 10
149.55659727248255
 20
80.87439096978761
 10
149.18326952181008
 20
81.12115981319829
 10
148.78150585806355
 20
81.31827508402583
 10
148.35787449306696
 20
81.46251425378058
 10
89.81496980156956
 20
97.29957696441633
 10
89.36201569001688
 20
97.39052315833102
 10
88.90102904296745
 20
97.42101821698289
 10
88.44004188995495
 20
97.39053080781969
 10
87.98708626932873
 20
97.29959213011232
 10
29.443439104987792
 20
81.4633711102061
 10
29.019811739536543
 20
81.31914161386153
 10
28.618050418725858
 20
81.12203724182625
 10
28.244723113420484
 20
80.87528024498846
 10
28.07065039092958
 20
80.73451263686016
 10
27.75124469817926
 20
80.42107636612292
 10
4.7504020297882885
 20
51.21392637885513
 10
4.486940236685767
 20
50.828988094014655
 10
4.375026417608071
 20
50.62421206813677
 10
4.193318312138256
 20
50.19459390747862
 10
4.0703543910824385
 20
49.7446278268911
 10
4.008318790795144
 20
49.28230631121427
 10
4.00053639873272
 20
49.04907389912564
  0
ENDSEC
  0
SECTION
  2
OBJECTS
  0
DICTIONARY
  5
A
330
0
100
AcDbDictionary
281
1
  3
ACAD_COLOR
350
B
  3
ACAD_GROUP
350
C
  3
ACAD_LAYOUT
350
D
  3
ACAD_MATERIAL
350
E
  3
ACAD_MLEADERSTYLE
350
F
  3
ACAD_MLINESTYLE
350
10
  3
ACAD_PLOTSETTINGS
350
11
  3
ACAD_PLOTSTYLENAME
350
12
  3
ACAD_SCALELIST
350
14
  3
ACAD_TABLESTYLE
350
15
  3
ACAD_VISUALSTYLE
350
16
  3
EZDXF_META
350
2D
  0
DICTIONARY
  5
B
330
A
100
AcDbDictionary
281
1
  0
DICTIONARY
  5
C
330
A
100
AcDbDictionary
281
1
  0
DICTIONARY
  5
D
330
A
100
AcDbDictionary
281
1
  3
Model
350
1A
  3
Layout1
350
1E
  0
DICTIONARY
  5
E
330
A
100
AcDbDictionary
281
1
  3
ByBlock
350
1F
  3
ByLayer
350
20
  3
Global
350
21
  0
DICTIONARY
  5
F
330
A
100
AcDbDictionary
281
1
  3
Standard
350
2C
  0
DICTIONARY
  5
10
330
A
100
AcDbDictionary
281
1
  3
Standard
350
22
  0
DICTIONARY
  5
11
330
A
100
AcDbDictionary
281
1
  0
ACDBDICTIONARYWDFLT
  5
12
330
A
100
AcDbDictionary
281
1
  3
Normal
350
13
100
AcDbDictionaryWithDefault
340
13
  0
ACDBPLACEHOLDER
  5
13
330
12
  0
DICTIONARY
  5
14
330
A
100
AcDbDictionary
281
1
  0
DICTIONARY
  5
15
330
A
100
AcDbDictionary
281
1
  0
DICTIONARY
  5
16
330
A
100
AcDbDictionary
281
1
  0
LAYOUT
  5
1A
330
D
100
AcDbPlotSettings
  1

  4
A3
  6

 40
7.5
 41
20.0
 42
7.5
 43
20.0
 44
420.0
 45
297.0
 46
0.0
 47
0.0
 48
0.0
 49
0.0
140
0.0
141
0.0
142
1.0
143
1.0
 70
1024
 72
1
 73
0
 74
5
  7

 75
16
 76
0
 77
2
 78
300
147
1.0
148
0.0
149
0.0
100
AcDbLayout
  1
Model
 70
1
 71
0
 10
0.0
 20
0.0
 11
420.0
 21
297.0
 12
0.0
 22
0.0
 32
0.0
 14
1e+20
 24
1e+20
 34
1e+20
 15
-1e+20
 25
-1e+20
 35
-1e+20
146
0.0
 13
0.0
 23
0.0
 33
0.0
 16
1.0
 26
0.0
 36
0.0
 17
0.0
 27
1.0
 37
0.0
 76
1
330
17
  0
LAYOUT
  5
1E
330
D
100
AcDbPlotSettings
  1

  4
A3
  6

 40
7.5
 41
20.0
 42
7.5
 43
20.0
 44
420.0
 45
297.0
 46
0.0
 47
0.0
 48
0.0
 49
0.0
140
0.0
141
0.0
142
1.0
143
1.0
 70
0
 72
1
 73
0
 74
5
  7

 75
16
 76
0
 77
2
 78
300
147
1.0
148
0.0
149
0.0
100
AcDbLayout
  1
Layout1
 70
1
 71
1
 10
0.0
 20
0.0
 11
420.0
 21
297.0
 12
0.0
 22
0.0
 32
0.0
 14
1e+20
 24
1e+20
 34
1e+20
 15
-1e+20
 25
-1e+20
 35
-1e+20
146
0.0
 13
0.0
 23
0.0
 33
0.0
 16
1.0
 26
0.0
 36
0.0
 17
0.0
 27
1.0
 37
0.0
 76
1
330
1B
  0
MATERIAL
  5
1F
102
{ACAD_REACTORS
330
E
102
}
330
E
100
AcDbMaterial
  1
ByBlock
  2

 70
0
 40
1.0
 71
1
 41
1.0
 91
-1023410177
 42
1.0
 72
1
  3

 73
1
 74
1
 75
1
 44
0.5
 73
0
 45
1.0
 46
1.0
 77
1
  4

 78
1
 79
1
170
1
 48
1.0
171
1
  6

172
1
173
1
174
1
140
1.0
141
1.0
175
1
  7

176
1
177
1
178
1
143
1.0
179
1
  8

270
1
271
1
272
1
145
1.0
146
1.0
273
1
  9

274
1
275
1
276
1
 42
1.0
 72
1
  3

 73
1
 74
1
 75
1
 94
63
  0
MATERIAL
  5
20
102
{ACAD_REACTORS
330
E
102
}
330
E
100
AcDbMaterial
  1
ByLayer
  2

 70
0
 40
1.0
 71
1
 41
1.0
 91
-1023410177
 42
1.0
 72
1
  3

 73
1
 74
1
 75
1
 44
0.5
 73
0
 45
1.0
 46
1.0
 77
1
  4

 78
1
 79
1
170
1
 48
1.0
171
1
  6

172
1
173
1
174
1
140
1.0
141
1.0
175
1
  7

176
1
177
1
178
1
143
1.0
179
1
  8

270
1
271
1
272
1
145
1.0
146
1.0
273
1
  9

274
1
275
1
276
1
 42
1.0
 72
1
  3

 73
1
 74
1
 75
1
 94
63
  0
MATERIAL
  5
21
102
{ACAD_REACTORS
330
E
102
}
330
E
100
AcDbMaterial
  1
Global
  2

 70
0
 40
1.0
 71
1
 41
1.0
 91
-1023410177
 42
1.0
 72
1
  3

 73
1
 74
1
 75
1
 44
0.5
 73
0
 45
1.0
 46
1.0
 77
1
  4

 78
1
 79
1
170
1
 48
1.0
171
1
  6

172
1
173
1
174
1
140
1.0
141
1.0
175
1
  7

176
1
177
1
178
1
143
1.0
179
1
  8

270
1
271
1
272
1
145
1.0
146
1.0
273
1
  9

274
1
275
1
276
1
 42
1.0
 72
1
  3

 73
1
 74
1
 75
1
 94
63
  0
MLINESTYLE
  5
22
102
{ACAD_REACTORS
330
10
102
}
330
10
100
AcDbMlineStyle
  2
Standard
 70
0
  3

 62
256
 51
90.0
 52
90.0
 71
2
 49
0.5
 62
256
  6
BYLAYER
 49
-0.5
 62
256
  6
BYLAYER
  0
MLEADERSTYLE
  5
2C
102
{ACAD_REACTORS
330
F
102
}
330
F
100
AcDbMLeaderStyle
179
2
170
2
171
1
172
0
 90
2
 40
0.0
 41
0.0
173
1
 91
-1056964608
 92
-2
290
1
 42
2.0
291
1
 43
8.0
  3
Standard
 44
4.0
300

342
29
174
1
175
1
176
0
178
1
 93
-1056964608
 45
4.0
292
0
297
0
 46
4.0
 94
-1056964608
 47
1.0
 49
1.0
140
1.0
294
1
141
0.0
177
0
142
1.0
295
0
296
0
143
3.75
271
0
272
9
273
9
  0
DICTIONARY
  5
2D
330
A
100
AcDbDictionary
280
1
281
1
  3
CREATED_BY_EZDXF
350
2E
  3
WRITTEN_BY_EZDXF
350
40
  0
DICTIONARYVAR
  5
2E
330
2D
100
DictionaryVariables
280
0
  1
1.4.4 @ 2026-10-05T10:29:47.042924+00:00
  0
DICTIONARYVAR
  5
40
330
2D
100
DictionaryVariables
280
0
  1
1.4.4 @ 2026-10-05T10:29:47.062729+00:00
  0
ENDSEC
  0
EOF
