  0
SECTION
  2
HEADER
  9
$ACADVER
  1
AC1024
  9
$ACADMAINTVER
 70
6
  9
$DWGCODEPAGE
  3
ANSI_1252
  9
$LASTSAVEDBY
  1
ezdxf
  9
$INSBASE
 10
0.0
 20
0.0
 30
0.0
  9
$EXTMIN
 10
1e+20
 20
1e+20
 30
1e+20
  9
$EXTMAX
 10
-1e+20
 20
-1e+20
 30
-1e+20
  9
$LIMMIN
 10
0.0
 20
0.0
  9
$LIMMAX
 10
420.0
 20
297.0
  9
$ORTHOMODE
 70
0
  9
$REGENMODE
 70
1
  9
$FILLMODE
 70
1
  9
$QTEXTMODE
 70
0
  9
$MIRRTEXT
 70
1
  9
$LTSCALE
 40
1.0
  9
$ATTMODE
 70
1
  9
$TEXTSIZE
 40
2.5
  9
$TRACEWID
 40
1.0
  9
$TEXTSTYLE
  7
Standard
  9
$CLAYER
  8
0
  9
$CELTYPE
  6
ByLayer
  9
$CECOLOR
 62
256
  9
$CELTSCALE
 40
1.0
  9
$DISPSILH
 70
0
  9
$DIMSCALE
 40
1.0
  9
$DIMASZ
 40
2.5
  9
$DIMEXO
 40
0.625
  9
$DIMDLI
 40
3.75
  9
$DIMRND
 40
0.0
  9
$DIMDLE
 40
0.0
  9
$DIMEXE
 40
1.25
  9
$DIMTP
 40
0.0
  9
$DIMTM
 40
0.0
  9
$DIMTXT
 40
2.5
  9
$DIMCEN
 40
2.5
  9
$DIMTSZ
 40
0.0
  9
$DIMTOL
 70
0
  9
$DIMLIM
 70
0
  9
$DIMTIH
 70
0
  9
$DIMTOH
 70
0
  9
$DIMSE1
 70
0
  9
$DIMSE2
 70
0
  9
$DIMTAD
 70
1
  9
$DIMZIN
 70
8
  9
$DIMBLK
  1

  9
$DIMASO
 70
1
  9
$DIMSHO
 70
1
  9
$DIMPOST
  1

  9
$DIMAPOST
  1

  9
$DIMALT
 70
0
  9
$DIMALTD
 70
3
  9
$DIMALTF
 40
0.03937007874
  9
$DIMLFAC
 40
1.0
  9
$DIMTOFL
 70
1
  9
$DIMTVP
 40
0.0
  9
$DIMTIX
 70
0
  9
$DIMSOXD
 70
0
  9
$DIMSAH
 70
0
  9
$DIMBLK1
  1

  9
$DIMBLK2
  1

  9
$DIMSTYLE
  2
ISO-25
  9
$DIMCLRD
 70
0
  9
$DIMCLRE
 70
0
  9
$DIMCLRT
 70
0
  9
$DIMTFAC
 40
1.0
  9
$DIMGAP
 40
0.625
  9
$DIMJUST
 70
0
  9
$DIMSD1
 70
0
  9
$DIMSD2
 70
0
  9
$DIMTOLJ
 70
0
  9
$DIMTZIN
 70
8
  9
$DIMALTZ
 70
0
  9
$DIMALTTZ
 70
0
  9
$DIMUPT
 70
0
  9
$DIMDEC
 70
2
  9
$DIMTDEC
 70
2
  9
$DIMALTU
 70
2
  9
$DIMALTTD
 70
3
  9
$DIMTXSTY
  7
Standard
  9
$DIMAUNIT
 70
0
  9
$DIMADEC
 70
0
  9
$DIMALTRND
 40
0.0
  9
$DIMAZIN
 70
0
  9
$DIMDSEP
 70
44
  9
$DIMATFIT
 70
3
  9
$DIMFRAC
 70
0
  9
$DIMLDRBLK
  1

  9
$DIMLUNIT
 70
2
  9
$DIMLWD
 70
-2
  9
$DIMLWE
 70
-2
  9
$DIMTMOVE
 70
0
  9
$DIMFXL
 40
1.0
  9
$DIMFXLON
 70
0
  9
$DIMJOGANG
 40
0.785398163397
  9
$DIMTFILL
 70
0
  9
$DIMTFILLCLR
 70
0
  9
$DIMARCSYM
 70
0
  9
$DIMLTYPE
  6

  9
$DIMLTEX1
  6

  9
$DIMLTEX2
  6

  9
$DIMTXTDIRECTION
 70
0
  9
$LUNITS
 70
2
  9
$LUPREC
 70
4
  9
$SKETCHINC
 40
1.0
  9
$FILLETRAD
 40
10.0
  9
$AUNITS
 70
0
  9
$AUPREC
 70
2
  9
$MENU
  1
.
  9
$ELEVATION
 40
0.0
  9
$PELEVATION
 40
0.0
  9
$THICKNESS
 40
0.0
  9
$LIMCHECK
 70
0
  9
$CHAMFERA
 40
0.0
  9
$CHAMFERB
 40
0.0
  9
$CHAMFERC
 40
0.0
  9
$CHAMFERD
 40
0.0
  9
$SKPOLY
 70
0
  9
$TDCREATE
 40
2461319.437337963
  9
$TDUCREATE
 40
2458532.153996898
  9
$TDUPDATE
 40
2461319.437337963
  9
$TDUUPDATE
 40
2458532.1544311
  9
$TDINDWG
 40
0.0
  9
$TDUSRTIMER
 40
0.0
  9
$USRTIMER
 70
1
  9
$ANGBASE
 50
0.0
  9
$ANGDIR
 70
0
  9
$PDMODE
 70
0
  9
$PDSIZE
 40
0.0
  9
$PLINEWID
 40
0.0
  9
$SPLFRAME
 70
0
  9
$SPLINETYPE
 70
6
  9
$SPLINESEGS
 70
8
  9
$HANDSEED
  5
42
  9
$SURFTAB1
 70
6
  9
$SURFTAB2
 70
6
  9
$SURFTYPE
 70
6
  9
$SURFU
 70
6
  9
$SURFV
 70
6
  9
$UCSBASE
  2

  9
$UCSNAME
  2

  9
$UCSORG
 10
0.0
 20
0.0
 30
0.0
  9
$UCSXDIR
 10
1.0
 20
0.0
 30
0.0
  9
$UCSYDIR
 10
0.0
 20
1.0
 30
0.0
  9
$UCSORTHOREF
  2

  9
$UCSORTHOVIEW
 70
0
  9
$UCSORGTOP
 10
0.0
 20
0.0
 30
0.0
  9
$UCSORGBOTTOM
 10
0.0
 20
0.0
 30
0.0
  9
$UCSORGLEFT
 10
0.0
 20
0.0
 30
0.0
  9
$UCSORGRIGHT
 10
0.0
 20
0.0
 30
0.0
  9
$UCSORGFRONT
 10
0.0
 20
0.0
 30
0.0
  9
$UCSORGBACK
 10
0.0
 20
0.0
 30
0.0
  9
$PUCSBASE
  2

  9
$PUCSNAME
  2

  9
$PUCSORG
 10
0.0
 20
0.0
 30
0.0
  9
$PUCSXDIR
 10
1.0
 20
0.0
 30
0.0
  9
$PUCSYDIR
 10
0.0
 20
1.0
 30
0.0
  9
$PUCSORTHOREF
  2

  9
$PUCSORTHOVIEW
 70
0
  9
$PUCSORGTOP
 10
0.0
 20
0.0
 30
0.0
  9
$PUCSORGBOTTOM
 10
0.0
 20
0.0
 30
0.0
  9
$PUCSORGLEFT
 10
0.0
 20
0.0
 30
0.0
  9
$PUCSORGRIGHT
 10
0.0
 20
0.0
 30
0.0
  9
$PUCSORGFRONT
 10
0.0
 20
0.0
 30
0.0
  9
$PUCSORGBACK
 10
0.0
 20
0.0
 30
0.0
  9
$USERI1
 70
0
  9
$USERI2
 70
0
  9
$USERI3
 70
0
  9
$USERI4
 70
0
  9
$USERI5
 70
0
  9
$USERR1
 40
0.0
  9
$USERR2
 40
0.0
  9
$USERR3
 40
0.0
  9
$USERR4
 40
0.0
  9
$USERR5
 40
0.0
  9
$WORLDVIEW
 70
1
  9
$SHADEDGE
 70
3
  9
$SHADEDIF
 70
70
  9
$TILEMODE
 70
1
  9
$MAXACTVP
 70
64
  9
$PINSBASE
 10
0.0
 20
0.0
 30
0.0
  9
$PLIMCHECK
 70
0
  9
$PEXTMIN
 10
1e+20
 20
1e+20
 30
1e+20
  9
$PEXTMAX
 10
-1e+20
 20
-1e+20
 30
-1e+20
  9
$PLIMMIN
 10
0.0
 20
0.0
  9
$PLIMMAX
 10
420.0
 20
297.0
  9
$UNITMODE
 70
0
  9
$VISRETAIN
 70
1
  9
$PLINEGEN
 70
0
  9
$PSLTSCALE
 70
1
  9
$TREEDEPTH
 70
3020
  9
$CMLSTYLE
  2
Standard
  9
$CMLJUST
 70
0
  9
$CMLSCALE
 40
20.0
  9
$PROXYGRAPHICS
 70
1
  9
$MEASUREMENT
 70
1
  9
$CELWEIGHT
370
-1
  9
$ENDCAPS
280
0
  9
$JOINSTYLE
280
0
  9
$LWDISPLAY
290
0
  9
$INSUNITS
 70
4
  9
$HYPERLINKBASE
  1

  9
$STYLESHEET
  1

  9
$XEDIT
290
1
  9
$CEPSNTYPE
380
0
  9
$PSTYLEMODE
290
1
  9
$FINGERPRINTGUID
  2
{EACD75F4-7A19-45BE-993E-B82C8CF0ABB3}
  9
$VERSIONGUID
  2
{C77731CA-9C06-4104-8C63-965B274DBFA0}
  9
$EXTNAMES
290
1
  9
$PSVPSCALE
 40
0.0
  9
$OLESTARTUP
290
0
  9
$SORTENTS
280
127
  9
$INDEXCTL
280
0
  9
$HIDETEXT
280
1
  9
$XCLIPFRAME
280
1
  9
$HALOGAP
280
0
  9
$OBSCOLOR
 70
257
  9
$OBSLTYPE
280
0
  9
$INTERSECTIONDISPLAY
280
0
  9
$INTERSECTIONCOLOR
 70
257
  9
$DIMASSOC
280
2
  9
$PROJECTNAME
  1

  9
$CAMERADISPLAY
290
0
  9
$LENSLENGTH
 40
50.0
  9
$CAMERAHEIGHT
 40
0.0
  9
$STEPSPERSEC
 40
24.0
  9
$STEPSIZE
 40
100.0
  9
$3DDWFPREC
 40
2.0
  9
$PSOLWIDTH
 40
0.005
  9
$PSOLHEIGHT
 40
0.08
  9
$LOFTANG1
 40
1.570796326795
  9
$LOFTANG2
 40
1.570796326795
  9
$LOFTMAG1
 40
0.0
  9
$LOFTMAG2
 40
0.0
  9
$LOFTPARAM
 70
7
  9
$LOFTNORMALS
280
1
  9
$LATITUDE
 40
37.795
  9
$LONGITUDE
 40
-122.394
  9
$NORTHDIRECTION
 40
0.0
  9
$TIMEZONE
 70
-8000
  9
$LIGHTGLYPHDISPLAY
280
1
  9
$TILEMODELIGHTSYNCH
280
1
  9
$CMATERIAL
347
20
  9
$SOLIDHIST
280
0
  9
$SHOWHIST
280
1
  9
$DWFFRAME
280
2
  9
$DGNFRAME
280
2
  9
$REALWORLDSCALE
290
1
  9
$INTERFERECOLOR
 62
256
  9
$CSHADOW
280
0
  9
$SHADOWPLANELOCATION
 40
0.0
  0
ENDSEC
  0
SECTION
  2
CLASSES
  0
CLASS
  1
ACDBDICTIONARYWDFLT
  2
AcDbDictionaryWithDefault
  3
ObjectDBX Classes
 90
0
 91
0
280
0
281
0
  0
CLASS
  1
SUN
  2
AcDbSun
  3
SCENEOE
 90
1153
 91
0
280
0
281
0
  0
CLASS
  1
VISUALSTYLE
  2
AcDbVisualStyle
  3
ObjectDBX Classes
 90
4095
 91
0
280
0
281
0
  0
CLASS
  1
MATERIAL
  2
AcDbMaterial
  3
ObjectDBX Classes
 90
1153
 91
0
280
0
281
0
  0
CLASS
  1
SCALE
  2
AcDbScale
  3
ObjectDBX Classes
 90
1153
 91
0
280
0
281
0
  0
CLASS
  1
TABLESTYLE
  2
AcDbTableStyle
  3
ObjectDBX Classes
 90
4095
 91
0
280
0
281
0
  0
CLASS
  1
MLEADERSTYLE
  2
AcDbMLeaderStyle
  3
ACDB_MLEADERSTYLE_CLASS
 90
4095
 91
0
280
0
281
0
  0
CLASS
  1
DICTIONARYVAR
  2
AcDbDictionaryVar
  3
ObjectDBX Classes
 90
0
 91
0
280
0
281
0
  0
CLASS
  1
CELLSTYLEMAP
  2
AcDbCellStyleMap
  3
ObjectDBX Classes
 90
1152
 91
0
280
0
281
0
  0
CLASS
  1
MENTALRAYRENDERSETTINGS
  2
AcDbMentalRayRenderSettings
  3
SCENEOE
 90
1024
 91
0
280
0
281
0
  0
CLASS
  1
ACDBDETAILVIEWSTYLE
  2
AcDbDetailViewStyle
  3
ObjectDBX Classes
 90
1025
 91
0
280
0
281
0
  0
CLASS
  1
ACDBSECTIONVIEWSTYLE
  2
AcDbSectionViewStyle
  3
ObjectDBX Classes
 90
1025
 91
0
280
0
281
0
  0
CLASS
  1
RASTERVARIABLES
  2
AcDbRasterVariables
  3
ISM
 90
0
 91
0
280
0
281
0
  0
CLASS
  1
LAYOUT
  2
AcDbLayout
  3
ObjectDBX Classes
 90
0
 91
0
280
0
281
0
  0
CLASS
  1
ACDBPLACEHOLDER
  2
AcDbPlaceHolder
  3
ObjectDBX Classes
 90
0
 91
0
280
0
281
0
  0
ENDSEC
  0
SECTION
  2
TABLES
  0
TABLE
  2
VPORT
  5
8
330
0
100
AcDbSymbolTable
 70
1
  0
VPORT
  5
23
330
8
100
AcDbSymbolTableRecord
100
AcDbViewportTableRecord
  2
*Active
 70
0
 10
0.0
 20
0.0
 11
1.0
 21
1.0
 12
0.0
 22
0.0
 13
0.0
 23
0.0
 14
0.5
 24
0.5
 15
0.5
 25
0.5
 16
0.0
 26
0.0
 36
1.0
 17
0.0
 27
0.0
 37
0.0
 40
1000.0
 41
1.34
 42
50.0
 43
0.0
 44
0.0
 50
0.0
 51
0.0
 71
0
 72
1000
 73
1
 74
3
 75
0
 76
0
 77
0
 78
0
281
0
 65
0
146
0.0
  0
ENDTAB
  0
TABLE
  2
LTYPE
  5
2
330
0
100
AcDbSymbolTable
 70
3
  0
LTYPE
  5
24
330
2
100
AcDbSymbolTableRecord
100
AcDbLinetypeTableRecord
  2
ByBlock
 70
0
  3

 72
65
 73
0
 40
0.0
  0
LTYPE
  5
25
330
2
100
AcDbSymbolTableRecord
100
AcDbLinetypeTableRecord
  2
ByLayer
 70
0
  3

 72
65
 73
0
 40
0.0
  0
LTYPE
  5
26
330
2
100
AcDbSymbolTableRecord
100
AcDbLinetypeTableRecord
  2
Continuous
 70
0
  3

 72
65
 73
0
 40
0.0
  0
ENDTAB
  0
TABLE
  2
LAYER
  5
1
330
0
100
AcDbSymbolTable
 70
4
  0
LAYER
  5
27
330
1
100
AcDbSymbolTableRecord
100
AcDbLayerTableRecord
  2
0
 70
0
 62
7
  6
Continuous
370
-3
390
13
347
21
  0
LAYER
  5
28
330
1
100
AcDbSymbolTableRecord
100
AcDbLayerTableRecord
  2
Defpoints
 70
0
 62
7
  6
Continuous
290
0
370
-3
390
13
347
21
  0
LAYER
  5
2F
330
1
100
AcDbSymbolTableRecord
100
AcDbLayerTableRecord
  2
CUT
 70
0
 62
1
  6
Continuous
370
-3
390
13
347
21
  0
LAYER
  5
30
330
1
100
AcDbSymbolTableRecord
100
AcDbLayerTableRecord
  2
SCORE_OPTIONAL
 70
0
 62
5
  6
Continuous
370
-3
390
13
347
21
  0
ENDTAB
  0
TABLE
  2
STYLE
  5
5
330
0
100
AcDbSymbolTable
 70
1
  0
STYLE
  5
29
330
5
100
AcDbSymbolTableRecord
100
AcDbTextStyleTableRecord
  2
Standard
 70
0
 40
0.0
 41
1.0
 50
0.0
 71
0
 42
2.5
  3
txt
  4

  0
ENDTAB
  0
TABLE
  2
VIEW
  5
7
330
0
100
AcDbSymbolTable
 70
0
  0
ENDTAB
  0
TABLE
  2
UCS
  5
6
330
0
100
AcDbSymbolTable
 70
0
  0
ENDTAB
  0
TABLE
  2
APPID
  5
3
330
0
100
AcDbSymbolTable
 70
3
  0
APPID
  5
2A
330
3
100
AcDbSymbolTableRecord
100
AcDbRegAppTableRecord
  2
ACAD
 70
0
  0
APPID
  5
3F
330
3
100
AcDbSymbolTableRecord
100
AcDbRegAppTableRecord
  2
HATCHBACKGROUNDCOLOR
 70
0
  0
APPID
  5
40
330
3
100
AcDbSymbolTableRecord
100
AcDbRegAppTableRecord
  2
EZDXF
 70
0
  0
ENDTAB
  0
TABLE
  2
DIMSTYLE
  5
4
330
0
100
AcDbSymbolTable
 70
1
100
AcDbDimStyleTable
  0
DIMSTYLE
105
2B
330
4
100
AcDbSymbolTableRecord
100
AcDbDimStyleTableRecord
  2
Standard
 70
0
 40
1.0
 41
2.5
 42
0.625
 43
3.75
 44
1.25
 45
0.0
 46
0.0
 47
0.0
 48
0.0
 49
2.5
140
2.5
141
2.5
142
0.0
143
0.03937007874
144
1.0
145
0.0
146
1.0
147
0.625
148
0.0
 69
0
 70
0
 71
0
 72
0
 73
0
 74
0
 75
0
 76
0
 77
1
 78
8
 79
3
170
0
171
3
172
1
173
0
174
0
175
0
176
0
177
0
178
0
179
2
271
2
272
2
273
2
274
3
275
0
276
0
277
2
278
44
279
0
280
0
281
0
282
0
283
0
284
8
285
0
286
0
288
0
289
3
290
0
371
-2
372
-2
  0
ENDTAB
  0
TABLE
  2
BLOCK_RECORD
  5
9
330
0
100
AcDbSymbolTable
 70
2
  0
BLOCK_RECORD
  5
17
330
9
100
AcDbSymbolTableRecord
100
AcDbBlockTableRecord
  2
*Model_Space
340
1A
 70
0
280
1
281
0
  0
BLOCK_RECORD
  5
1B
330
9
100
AcDbSymbolTableRecord
100
AcDbBlockTableRecord
  2
*Paper_Space
340
1E
 70
0
280
1
281
0
  0
ENDTAB
  0
ENDSEC
  0
SECTION
  2
BLOCKS
  0
BLOCK
  5
18
330
17
100
AcDbEntity
  8
0
100
AcDbBlockBegin
  2
*Model_Space
 70
0
 10
0.0
 20
0.0
 30
0.0
  3
*Model_Space
  1

  0
ENDBLK
  5
19
330
17
100
AcDbEntity
  8
0
100
AcDbBlockEnd
  0
BLOCK
  5
1C
330
1B
100
AcDbEntity
  8
0
100
AcDbBlockBegin
  2
*Paper_Space
 70
0
 10
0.0
 20
0.0
 30
0.0
  3
*Paper_Space
  1

  0
ENDBLK
  5
1D
330
1B
100
AcDbEntity
  8
0
100
AcDbBlockEnd
  0
ENDSEC
  0
SECTION
  2
ENTITIES
  0
LWPOLYLINE
  5
31
330
17
100
AcDbEntity
  8
CUT
100
AcDbPolyline
 90
131
 70
1
 10
202.4805655784684
 20
58.873551844375356
 10
201.7642118855794
 20
58.944106524888085
 10
201.40814979265951
 20
58.99692334706633
 10
200.70216110662187
 20
59.137353227949326
 10
200.0068685502009
 20
59.32365630694569
 10
199.6641658816652
 20
59.433768575553835
 10
199.3252494728664
 20
59.555034805669415
 10
198.66022267215163
 20
59.830497925867064
 10
198.01463589491402
 20
60.14886609216809
 10
197.7
 20
60.32372055837117
 10
197.39125364284592
 20
60.50877600320763
 10
196.79274533445417
 20
60.908686469492224
 10
196.50362428090406
 20
61.12311325679641
 10
195.94719603389922
 20
61.57976211773124
 10
195.42182540694796
 20
62.07182540694798
 10
195.1714952003238
 20
62.330484677748416
 10
194.69688501300988
 20
62.8716738741999
 10
194.4731132567964
 20
63.15362428090407
 10
194.2586864694922
 20
63.44274533445417
 10
193.85877600320762
 20
64.04125364284596
 10
193.49886609216807
 20
64.66463589491403
 10
193.33439984314043
 20
64.98482440759098
 10
193.18049792586706
 20
65.31022267215165
 10
192.9050348056694
 20
65.97524947286642
 10
192.78376857555384
 20
66.31416588166522
 10
192.57481591082023
 20
67.00299050387227
 10
192.41136191556444
 20
67.70400645782259
 10
192.3469233470663
 20
68.05814979265952
 10
192.2529680066058
 20
68.77181145637483
 10
192.20588953775996
 20
69.49009008896046
 10
192.2
 20
69.85
 10
11.0
 20
69.85
 10
10.994110462240023
 20
69.49009008896046
 10
10.947031993394164
 20
68.77181145637482
 10
10.85307665293367
 20
68.05814979265952
 10
10.788638084435533
 20
67.70400645782257
 10
10.625184089179749
 20
67.00299050387225
 10
10.526343693054294
 20
66.6568685502009
 10
10.416231424446162
 20
66.31416588166522
 10
10.162674857624152
 20
65.640482243984
 10
9.865600156859566
 20
64.98482440759096
 10
9.701133907831903
 20
64.66463589491401
 10
9.526279441628823
 20
64.35
 10
9.146165735327992
 20
63.73872743678436
 10
8.941313530507767
 20
63.44274533445417
 10
8.503114986990104
 20
62.871673874199885
 10
8.270237882268747
 20
62.59719603389923
 10
7.778174593052021
 20
62.07182540694797
 10
7.519515322251581
 20
61.821495200323795
 10
6.978326125800094
 20
61.34688501300988
 10
6.6963757190959186
 20
61.1231132567964
 10
6.11127256321562
 20
60.703834264672
 10
5.499999999999993
 20
60.323720558371164
 10
5.185364105085965
 20
60.148866092168085
 10
4.865175592409011
 20
59.98439984314042
 10
4.20951775601598
 20
59.68732514237584
 10
3.8747505271335596
 20
59.55503480566941
 10
3.1931314497990826
 20
59.32365630694569
 10
2.4978388933780984
 20
59.13735322794932
 10
2.1459935421774015
 20
59.06136191556446
 10
1.7918502073404745
 20
58.99692334706633
 10
1.078188543625161
 20
58.90296800660583
 10
0.719434421531566
 20
58.873551844375356
 10
0.0
 20
58.849999999999994
 10
0.0
 20
11.0
 10
0.35990991103954023
 20
10.994110462240023
 10
1.0781885436251684
 20
10.947031993394162
 10
1.4357881144205689
 20
10.905893475111917
 10
2.1459935421774117
 20
10.788638084435533
 10
2.847009496127731
 20
10.625184089179754
 10
3.1931314497990875
 20
10.5263436930543
 10
3.8747505271335694
 20
10.29496519433058
 10
4.209517756015988
 20
10.162674857624154
 10
4.865175592409016
 20
9.865600156859571
 10
5.185364105085976
 20
9.701133907831903
 10
5.500000000000001
 20
9.526279441628823
 10
6.111272563215627
 20
9.146165735327997
 10
6.407254665545825
 20
8.94131353050777
 10
6.978326125800102
 20
8.503114986990106
 10
7.252803966100759
 20
8.270237882268752
 10
7.778174593052023
 20
7.778174593052022
 10
8.028504799676194
 20
7.519515322251586
 10
8.503114986990107
 20
6.978326125800102
 10
8.941313530507768
 20
6.407254665545821
 10
9.146165735327997
 20
6.111272563215621
 10
9.526279441628827
 20
5.5
 10
9.701133907831906
 20
5.1853641050859665
 10
9.865600156859571
 20
4.865175592409017
 10
10.162674857624154
 20
4.209517756015984
 10
10.294965194330583
 20
3.874750527133571
 10
10.526343693054297
 20
3.1931314497990826
 10
10.71264677205067
 20
2.497838893378102
 10
10.788638084435535
 20
2.1459935421774077
 10
10.85307665293367
 20
1.7918502073404738
 10
10.947031993394166
 20
1.07818854362516
 10
10.994110462240023
 20
0.3599099110395372
 10
11.0
 20
0.0
 10
192.2
 20
0.0
 10
192.20588953775996
 20
0.3599099110395372
 10
192.2529680066058
 20
1.0781885436251741
 10
192.29410652488806
 20
1.4357881144205749
 10
192.41136191556444
 20
2.145993542177422
 10
192.57481591082023
 20
2.8470094961277255
 10
192.6736563069457
 20
3.193131449799097
 10
192.9050348056694
 20
3.874750527133571
 10
193.03732514237583
 20
4.209517756015984
 10
193.18049792586706
 20
4.539777327848341
 10
193.49886609216807
 20
5.185364105085981
 10
193.85877600320762
 20
5.80874635715405
 10
194.053834264672
 20
6.111272563215628
 10
194.4731132567964
 20
6.696375719095926
 10
194.69688501300988
 20
6.978326125800102
 10
195.1714952003238
 20
7.519515322251586
 10
195.42182540694796
 20
7.778174593052022
 10
195.94719603389925
 20
8.27023788226876
 10
196.2216738741999
 20
8.503114986990106
 10
196.50362428090406
 20
8.726886743203593
 10
197.08872743678438
 20
9.146165735327997
 10
197.7
 20
9.52627944162883
 10
198.01463589491402
 20
9.70113390783191
 10
198.66022267215166
 20
10.019502074132937
 10
198.990482243984
 20
10.162674857624154
 10
199.6641658816652
 20
10.416231424446167
 10
200.0068685502009
 20
10.5263436930543
 10
200.70216110662187
 20
10.712646772050668
 10
201.0540064578226
 20
10.788638084435533
 10
201.7642118855794
 20
10.905893475111917
 10
202.12181145637481
 20
10.947031993394162
 10
202.84009008896047
 20
10.994110462240023
 10
203.2
 20
11.0
 10
203.2
 20
58.849999999999994
  0
LWPOLYLINE
  5
32
330
17
100
AcDbEntity
  8
CUT
100
AcDbPolyline
 90
127
 70
1
 10
179.3106534180693
 20
30.24034899200082
 10
179.4380877348305
 20
30.96083019964115
 10
179.49630649983936
 20
31.175128709958486
 10
179.62534495207896
 20
31.530881143037114
 10
179.79463235295765
 20
31.868381699895302
 10
179.9033067005072
 20
32.040618021954145
 10
180.12680329859626
 20
32.326984640388766
 10
180.38299174436702
 20
32.5809624804206
 10
180.6701293779121
 20
32.804456815555625
 10
180.9738014405209
 20
32.99284674929873
 10
181.31797355310937
 20
33.16441695764424
 10
181.68631261695054
 20
33.312527280526595
 10
182.0756498945809
 20
33.44016368888092
 10
182.488404503437
 20
33.55195862642804
 10
183.11874785544794
 20
33.69106022873656
 10
184.43885216516202
 20
33.92415167505605
 10
184.28604860937577
 20
32.813802165132934
 10
184.1337307161076
 20
31.956109076970165
 10
183.98309415243764
 20
31.34638479462152
 10
183.86260842670566
 20
30.972763868311056
 10
183.72481077744067
 20
30.62652222468592
 10
183.69245787907846
 20
30.472325952345457
 10
183.70136023884024
 20
30.31502385945791
 10
183.7692988215359
 20
30.13051227073558
 10
183.8932373145231
 20
29.97787077130768
 10
184.05986603967813
 20
29.87349143741084
 10
184.17302632276966
 20
29.838948958172452
 10
184.29076481225735
 20
29.82728359772137
 10
187.63235460779657
 20
29.826922289009033
 10
187.85388711261888
 20
29.802568508995066
 10
188.16116538681294
 20
29.707158152925615
 10
188.35362605340427
 20
29.699828615737296
 10
188.46671802000645
 20
29.725100466670966
 10
188.60597467115335
 20
29.79160253269282
 10
189.10701211269298
 20
30.167435306460355
 10
189.53101549853972
 20
30.42874584102492
 10
189.75719235988146
 20
30.545581621166605
 10
190.1669979128009
 20
30.717495427500523
 10
190.39605806060194
 20
30.79137002294769
 10
190.82152947277973
 20
30.88687715893125
 10
191.24648861823226
 20
30.929320234188687
 10
191.67094424060005
 20
30.92088030355024
 10
192.09502891353213
 20
30.86435189612302
 10
192.51892557060958
 20
30.76305567749087
 10
192.94279316237996
 20
30.62078983659452
 10
193.5712031050199
 20
30.343713615034503
 10
194.00286164360213
 20
30.114690438355105
 10
194.63573232552417
 20
29.734661357384162
 10
196.1244441739345
 20
28.727283597721367
 10
194.63573232552417
 20
27.719905838058573
 10
194.00286164360213
 20
27.33987675708763
 10
193.5712031050199
 20
27.110853580408232
 10
192.94279316237996
 20
26.833777358848216
 10
192.51892557060958
 20
26.691511517951866
 10
192.09502891353213
 20
26.590215299319716
 10
191.67094424060005
 20
26.533686891892494
 10
191.24648861823226
 20
26.525246961254048
 10
190.82152947277973
 20
26.567690036511486
 10
190.39605806060194
 20
26.663197172495046
 10
190.1669979128009
 20
26.73707176794221
 10
189.75719235988146
 20
26.90898557427613
 10
189.53101549853972
 20
27.025821354417815
 10
189.10701211269298
 20
27.28713188898238
 10
188.60597467115335
 20
27.662964662749914
 10
188.46671802000645
 20
27.72946672877177
 10
188.35362605340427
 20
27.75473857970544
 10
188.16116538681294
 20
27.74740904251712
 10
187.85388711261888
 20
27.65199868644767
 10
187.63235460779657
 20
27.6276449064337
 10
184.29076481225735
 20
27.627283597721366
 10
184.17302632276966
 20
27.615618237270283
 10
184.05986603967813
 20
27.581075758031893
 10
183.8932373145231
 20
27.476696424135056
 10
183.7692988215359
 20
27.324054924707156
 10
183.70136023884024
 20
27.139543335984825
 10
183.69245787907846
 20
26.982241243097278
 10
183.72481077744067
 20
26.828044970756814
 10
183.86260842670566
 20
26.48180332713168
 10
183.98309415243764
 20
26.108182400821214
 10
184.1337307161076
 20
25.49845811847257
 10
184.28687018582227
 20
24.63536414367524
 10
184.43885216516202
 20
23.530415520386683
 10
182.90389150352905
 20
23.807583706487968
 10
182.2837328269652
 20
23.955486946196494
 10
181.88686209289975
 20
24.073142816433872
 10
181.49931594376912
 20
24.213343055137067
 10
181.14267623959103
 20
24.372827226664235
 10
180.81171083921976
 20
24.5571539636612
 10
180.52281102524552
 20
24.758181373203556
 10
180.250913914585
 20
24.99665430827706
 10
180.11414338855602
 20
25.141913606001445
 10
179.9033067005072
 20
25.41394917348859
 10
179.79463235295765
 20
25.586185495547433
 10
179.62534495207896
 20
25.92368605240562
 10
179.491584914089
 20
26.295125214642802
 10
179.3962764533772
 20
26.68667275735477
 10
179.3302969588017
 20
27.137554559659414
 10
179.29708380218773
 20
27.251411852912632
 10
179.24212342363583
 20
27.356511585493877
 10
179.16756333841275
 20
27.448747103006063
 10
179.07631689838254
 20
27.52451440585515
 10
178.93493758119908
 20
27.594910821854647
 10
178.74051707193436
 20
27.627283597721366
 10
169.29921479636116
 20
27.631857672105063
 10
169.08015187764983
 20
27.672860049345843
 10
168.95805542886256
 20
27.717313645010606
 10
168.76936438017196
 20
27.821441182458436
 10
168.61996073697424
 20
27.9445211292106
 10
168.48209206424218
 20
28.110241940872008
 10
168.41591129555803
 20
28.222062202140854
 10
168.3446499591091
 20
28.394102287068705
 10
168.31129719236753
 20
28.52725399570911
 10
168.29304494566955
 20
28.741995029052084
 10
168.31703730811898
 20
28.956170710340245
 10
168.37622173707373
 20
29.148166198231408
 10
168.4778559449882
 20
29.33831042737591
 10
168.61463257898956
 20
29.50497323812459
 10
168.79382859638238
 20
29.64947247964954
 10
168.98523860946415
 20
29.748513192505747
 10
169.1922926173802
 20
29.808308624746473
 10
169.39968569682028
 20
29.82728359772137
 10
178.7800872089398
 20
29.828589849418144
 10
178.89707916595393
 20
29.848070069982064
 10
179.00795363440716
 20
29.890182410743776
 10
179.1083783185627
 20
29.953281379130523
 10
179.1944292363073
 20
30.03490145358853
 10
179.26274404435944
 20
30.131853421077658
  0
LWPOLYLINE
  5
33
330
17
100
AcDbEntity
  8
CUT
100
AcDbPolyline
 90
91
 70
1
 10
151.97373125082382
 20
35.401039878308886
 10
151.9740471911829
 20
37.279727899127145
 10
152.6682456995294
 20
37.25071161855685
 10
153.56769829176375
 20
37.15863631609249
 10
154.393179993568
 20
37.01956419631635
 10
155.09972401027912
 20
36.83248270434465
 10
155.77322893971316
 20
36.57875562010285
 10
156.12340994713105
 20
36.41288608904978
 10
156.39528984439033
 20
36.26363433739422
 10
156.65262309470222
 20
36.0976366108628
 10
156.89479856282662
 20
35.914932782274605
 10
157.12181506106447
 20
35.71551730487371
 10
157.33366937595758
 20
35.49938552670984
 10
157.5303567014965
 20
35.26653438831615
 10
157.71187138294488
 20
35.01696279148239
 10
157.94633970090584
 20
34.6123070595801
 10
158.10556625494948
 20
34.22674954478719
 10
158.24105925692788
 20
33.73382390619751
 10
158.31407114993237
 20
33.27657438923723
 10
158.34991098929385
 20
32.698507515147796
 10
158.33445198737738
 20
32.184868519814806
 10
158.26407048344936
 20
31.638492256974203
 10
158.13661624027128
 20
31.07722583408816
 10
157.97859903274346
 20
30.578865669182292
 10
157.82894881103508
 20
30.224789359847634
 10
157.61341533681906
 20
29.83494734981074
 10
157.34376550144242
 20
29.456024225325017
 10
157.03594376074673
 20
29.11052919521014
 10
156.73671010699243
 20
28.833233332367207
 10
156.39963695726206
 20
28.586256408031453
 10
155.92781472072002
 20
28.315618504149725
 10
155.8455504641574
 20
28.247018771188287
 10
155.7507616695639
 20
28.135998919651144
 10
155.6645274015613
 20
27.97261067236198
 10
155.6247998497526
 20
27.822104278117592
 10
155.61916287226262
 20
27.63744163215255
 10
155.64963634873703
 20
27.484792294412024
 10
155.70629272958115
 20
27.350254650887265
 10
155.81358489716965
 20
27.19985365652689
 10
156.192813397228
 20
26.86829037441609
 10
156.51195406749318
 20
26.554361945338208
 10
156.84166075936426
 20
26.18998757765035
 10
157.1290392074507
 20
25.825145813174103
 10
157.43213356732912
 20
25.367543402655855
 10
158.20947424284083
 20
24.05455160974956
 10
159.04507553857627
 20
22.730849925201
 10
159.63677352662953
 20
21.89669884725567
 10
160.1881808265286
 20
21.22245631718726
 10
160.44846047736132
 20
20.949093186672634
 10
160.68683728596116
 20
20.735255141183565
 10
160.92964949186475
 20
20.559150116414344
 10
161.16976669473007
 20
20.425569268289166
 10
161.40100633602444
 20
20.333967010638744
 10
161.6994762181488
 20
20.25489564230775
 10
162.02434845036947
 20
20.201962764270192
 10
162.39161135372527
 20
20.17227692583998
 10
162.3916326261228
 20
19.925691280457805
 10
159.18418053564773
 20
19.925239058143603
 10
158.1553894318982
 20
19.951944497588663
 10
157.3733255441674
 20
20.005222049512923
 10
156.71889723564968
 20
20.07511491599722
 10
156.1856462134236
 20
20.156594038340103
 10
155.75564100203457
 20
20.253453122906485
 10
155.26153313366282
 20
20.4051606983776
 10
154.79130975840164
 20
20.595575652386295
 10
154.34496831437917
 20
20.82470546531094
 10
153.9943186686408
 20
21.04824846390254
 10
153.6518261804846
 20
21.320550065116493
 10
153.327541524002
 20
21.634910059710386
 10
153.01829642818004
 20
21.993581581357
 10
152.72409777077436
 20
22.396552442989226
 10
152.45878296275828
 20
22.818479780597663
 10
152.28176985659542
 20
23.137565989422193
 10
152.11633396597418
 20
23.488555604699293
 10
151.9741016543631
 20
23.853250684793103
 10
151.97373125082382
 20
29.2869098759545
 10
152.24206199038787
 20
29.605513506758342
 10
152.44342850210933
 20
29.912754858545476
 10
152.60274605439366
 20
30.227016989156667
 10
152.74845694493064
 20
30.616845184900868
 10
152.86540004643996
 20
31.060951572014893
 10
152.95147944102507
 20
31.554686714685815
 10
153.02613238646342
 20
32.21082970558388
 10
153.0244714117256
 20
32.6465426666238
 10
152.9894132530632
 20
33.10849371539746
 10
152.92513164499118
 20
33.57142971264002
 10
152.83406705826027
 20
33.98350735762079
 10
152.7128590807881
 20
34.35892939783823
 10
152.5678464348707
 20
34.67999533060311
 10
152.416286737179
 20
34.92977074617494
 10
152.2324386492026
 20
35.15776573128425
  0
LWPOLYLINE
  5
34
330
17
100
AcDbEntity
  8
CUT
100
AcDbPolyline
 90
64
 70
1
 10
154.89424615176176
 20
59.518400252195036
 10
154.89874178594516
 20
59.273110483878924
 10
154.8791731707786
 20
59.028561203633764
 10
154.83572876272356
 20
58.787107554715
 10
154.76882695517912
 20
58.55107486775388
 10
154.67911204912355
 20
58.322736266552
 10
154.5674480481453
 20
58.1042907766622
 10
154.43491033761603
 20
57.89784214756759
 10
154.28277532814027
 20
57.705378592421965
 10
154.1125081630252
 20
57.52875364047317
 10
153.92574860814707
 20
57.3696682865603
 10
153.72429526011402
 20
57.22965460960782
 10
153.5100882247932
 20
57.11006101786384
 10
153.28519043303092
 20
57.01203926299258
 10
153.05176777350414
 20
56.936533348078065
 10
152.81206823402636
 20
56.88427043635677
 10
152.5684002521955
 20
56.85575384823825
 10
152.32311048387913
 20
56.851258214054816
 10
152.07856120363488
 20
56.870826829221244
 10
151.8371075547162
 20
56.914271237276154
 10
151.6010748677538
 20
56.98117304482088
 10
151.3727362665512
 20
57.070887950876774
 10
151.15429077666224
 20
57.18255195185464
 10
150.94784214756694
 20
57.315089662384366
 10
150.75537859242218
 20
57.467224671859476
 10
150.57875364047266
 20
57.63749183697529
 10
150.4196682865604
 20
57.824251391852755
 10
150.27965460960849
 20
58.025704739884915
 10
150.16006101786346
 20
58.239911775207496
 10
150.06203926299264
 20
58.46480956696886
 10
149.9865333480783
 20
58.698232226494895
 10
149.9342704363568
 20
58.937931765973275
 10
149.9057538482382
 20
59.18159974780495
 10
149.9012582140548
 20
59.426889516121065
 10
149.92082682922134
 20
59.67143879636616
 10
149.9642712372764
 20
59.91289244528499
 10
150.03117304482112
 20
60.14892513224696
 10
150.1208879508764
 20
60.37726373344799
 10
150.2325519518545
 20
60.595709223337536
 10
150.36508966238392
 20
60.8021578524324
 10
150.51722467185994
 20
60.99462140757831
 10
150.68749183697514
 20
61.17124635952721
 10
150.87425139185225
 20
61.33033171343921
 10
151.07570473988582
 20
61.47034539039209
 10
151.28991177520726
 20
61.58993898213642
 10
151.51480956696903
 20
61.68796073700741
 10
151.74823222649536
 20
61.76346665192179
 10
151.98793176597354
 20
61.8157295636432
 10
152.23159974780447
 20
61.84424615176174
 10
152.47688951612082
 20
61.84874178594517
 10
152.7214387963651
 20
61.82917317077874
 10
152.96289244528393
 20
61.78572876272381
 10
153.1989251322463
 20
61.71882695517907
 10
153.4272637334485
 20
61.629112049123336
 10
153.64570922333772
 20
61.51744804814535
 10
153.85215785243247
 20
61.38491033761599
 10
154.04462140757778
 20
61.23277532814051
 10
154.22124635952704
 20
61.062508163024965
 10
154.38033171343955
 20
60.875748608147234
 10
154.52034539039147
 20
60.67429526011507
 10
154.63993898213607
 20
60.46008822479332
 10
154.73796073700734
 20
60.23519043303108
 10
154.81346665192166
 20
60.001767773505094
 10
154.86572956364319
 20
59.76206823402654
  0
LWPOLYLINE
  5
35
330
17
100
AcDbEntity
  8
CUT
100
AcDbPolyline
 90
57
 70
1
 10
142.08578130414062
 20
37.280915991783125
 10
149.77141997614888
 20
37.28129439052092
 10
149.77140937678072
 20
35.98786344968675
 10
149.62983667030343
 20
35.958158662400066
 10
149.50308089413392
 20
35.90565470080154
 10
149.41151491489157
 20
35.848715315925865
 10
149.30166732082023
 20
35.75110463025295
 10
149.21814557937947
 20
35.642256977623624
 10
149.15229154656978
 20
35.510888845095195
 10
149.10308321995592
 20
35.27168020067512
 10
149.10679234071762
 20
29.319492032533283
 10
149.13463072979727
 20
29.182355723641464
 10
149.17410963351008
 20
29.079710515036183
 10
149.24534150534248
 20
28.959263997619068
 10
149.31627108040402
 20
28.875218664200972
 10
149.5086740490086
 20
28.733107626520713
 10
149.77173125082382
 20
28.64405493063242
 10
149.7714164174689
 20
28.35226393445327
 10
149.62857379191686
 20
28.322186972732354
 10
149.52935700779673
 20
28.283250631226544
 10
149.33104150824516
 20
28.145570746024916
 10
149.23689031388867
 20
28.034955953314892
 10
149.16979277283536
 20
27.917098052083794
 10
149.1326641587864
 20
27.81719072022087
 10
149.10557004658753
 20
27.6744812641586
 10
149.10655959643475
 20
21.613499419351506
 10
149.1549273345526
 20
21.3247839933762
 10
149.25911300152933
 20
21.053050555019887
 10
149.41625946889909
 20
20.806401979413508
 10
149.6315066922848
 20
20.577425878870002
 10
149.91890363199232
 20
20.369936610923446
 10
150.22383839036058
 20
20.239423005414267
 10
150.538858034619
 20
20.179505887435162
 10
150.985860445748
 20
20.17226193919071
 10
150.98586213293592
 20
19.925691280457812
 10
142.0857829913286
 20
19.925689593269873
 10
142.08578130414062
 20
20.172260252002765
 10
142.53739618952167
 20
20.17787768270628
 10
142.8378180715521
 20
20.22982162840048
 10
143.14600639212767
 20
20.355230982196495
 10
143.42087825124597
 20
20.547856743684385
 10
143.63660112515132
 20
20.771098782493326
 10
143.80710792172013
 20
21.02633691045689
 10
143.9192744294808
 20
21.292377934936972
 10
143.98232287639544
 20
21.585660304100998
 10
143.9943185108173
 20
21.761667466422843
 10
143.9943185108173
 20
35.444939805818066
 10
143.95770106432954
 20
35.7683796961517
 10
143.85838267001827
 20
36.075452786495916
 10
143.69557628836256
 20
36.358463170090545
 10
143.48190433911998
 20
36.603065033339234
 10
143.33605881034393
 20
36.72779340530064
 10
143.19106396553073
 20
36.82564812183824
 10
143.03865457114946
 20
36.90459316720184
 10
142.87890036071732
 20
36.96469414858261
 10
142.55749720980302
 20
37.02709273005102
 10
142.0857829913286
 20
37.03434533305022
  0
LWPOLYLINE
  5
36
330
17
100
AcDbEntity
  8
CUT
100
AcDbPolyline
 90
121
 70
1
 10
124.45348643043039
 20
37.280915991783125
 10
135.63963096358648
 20
37.286274692005016
 10
136.34602032968104
 20
37.33654909801695
 10
137.2214839736278
 20
37.455488897528596
 10
137.94820045641768
 20
37.59341844790684
 10
138.38698623574967
 20
37.72687518080628
 10
138.38698336817552
 20
32.620809742439754
 10
138.14012897325063
 20
32.62081322304298
 10
138.12198161598016
 20
33.23597186268877
 10
138.0352243743779
 20
33.78851796432686
 10
137.8920114750851
 20
34.248699955021365
 10
137.78813742875957
 20
34.48109301075675
 10
137.66169640654283
 20
34.70719492283191
 10
137.41722425804326
 20
35.041470669907575
 10
137.1415042191541
 20
35.31718927279013
 10
136.83331507985358
 20
35.54376068454828
 10
136.44841105205776
 20
35.746462487260885
 10
136.17895019821978
 20
35.84864694843262
 10
135.94396481416993
 20
35.916575370989044
 10
135.68895910643593
 20
35.97133200068171
 10
135.37921736266318
 20
36.01450835329338
 10
132.16560915531932
 20
36.01609131624134
 10
131.9355674209468
 20
35.97033317026111
 10
131.7623864706402
 20
35.8792156586564
 10
131.61247577880596
 20
35.738808973682666
 10
131.51022678071462
 20
35.571958187469946
 10
131.4639013165405
 20
35.43250105695925
 10
131.445030052549
 20
35.257236103410186
 10
131.4459931929996
 20
29.819785803812067
 10
131.47628744466513
 20
29.63629622743894
 10
131.5362518409163
 20
29.491529368749724
 10
131.64457729386342
 20
29.3403613742351
 10
131.79503237837122
 20
29.215232200915814
 10
131.97274664334756
 20
29.133307342087313
 10
132.16560915531932
 20
29.100169841492253
 10
134.2427961885565
 20
29.102624913180428
 10
134.55693975458638
 20
29.132725105308076
 10
134.86180029801517
 20
29.19364817092039
 10
135.13826857548722
 20
29.28045813891284
 10
135.4106952147103
 20
29.400673207044434
 10
135.68497238200897
 20
29.563381567635197
 10
135.96522973621873
 20
29.782641625488182
 10
136.19732650227496
 20
30.01582574712703
 10
136.4125713800927
 20
30.29616983181321
 10
136.60129692388898
 20
30.63911589585988
 10
136.7403132493277
 20
31.038514118081082
 10
136.81044692239664
 20
31.437215384725604
 10
136.82626790021357
 20
31.925162890634496
 10
137.07312229513843
 20
31.925159410031263
 10
137.07352983940427
 20
25.04996226172222
 10
137.07284024613438
 20
25.03349284914585
 10
136.8262695874015
 20
25.03349116195792
 10
136.8086769256973
 20
25.494669910541617
 10
136.73060398982224
 20
25.9308075665963
 10
136.60218978112152
 20
26.302222654013022
 10
136.40373458038925
 20
26.669034149998822
 10
136.21281127475808
 20
26.923032333845747
 10
135.96374566056852
 20
27.17844144679841
 10
135.71400386094135
 20
27.377484754022802
 10
135.4177309891606
 20
27.55659367859058
 10
135.1475774059404
 20
27.676372313921874
 10
134.86835429193633
 20
27.76428073305774
 10
134.61498033226064
 20
27.817312886535184
 10
134.29964355676552
 20
27.852871717145774
 10
132.16560915531932
 20
27.858485898288095
 10
131.98211957894648
 20
27.82819164662262
 10
131.83735272025606
 20
27.768227250370842
 10
131.68618472574212
 20
27.65990179742399
 10
131.56105555242345
 20
27.509446712916947
 10
131.4917513389801
 20
27.368911670341603
 10
131.44856110948214
 20
27.17804877047336
 10
131.44535130006315
 20
21.929739719137743
 10
131.45624150485637
 20
21.812614689063516
 10
131.49520151961386
 20
21.670923273898687
 10
131.561055552423
 20
21.539555141371466
 10
131.6445772938636
 20
21.430707488742257
 10
131.75442488793527
 20
21.333096803068976
 10
131.8812046913909
 20
21.258791881849476
 10
132.0200446274786
 20
21.210648221537973
 10
132.12643032081522
 20
21.193083872482042
 10
134.49904309176256
 20
21.189586564414867
 10
134.98871915583535
 20
21.213237567031776
 10
135.33327713580078
 20
21.25912124547918
 10
135.72754191281405
 20
21.343583325799663
 10
136.10419676505458
 20
21.458562097437444
 10
136.42497427464636
 20
21.584888825826695
 10
136.93470895764955
 20
21.8442153183991
 10
137.41869283443097
 20
22.165757597544342
 10
137.87005036107618
 20
22.546074700299364
 10
138.29167123431014
 20
22.9884876021071
 10
138.5136565318238
 20
23.262642681755693
 10
138.72507760839602
 20
23.55814662855478
 10
138.92016900435337
 20
23.87013057692399
 10
139.09907025753432
 20
24.19877599101914
 10
139.26178804219742
 20
24.54408750722859
 10
139.40623138581367
 20
24.900471551228293
 10
139.65275534124729
 20
25.676778359786702
 10
139.89934117663987
 20
25.676769169411685
 10
138.9574031368921
 20
19.925666812058523
 10
124.45348811761832
 20
19.925689593269865
 10
124.45348643043039
 20
20.17226025200278
 10
124.90510131581138
 20
20.17787768270628
 10
125.20552319784129
 20
20.22982162840033
 10
125.51371151841785
 20
20.35523098219676
 10
125.7885833775353
 20
20.547856743684044
 10
126.0043062514414
 20
20.77109878249381
 10
126.17481304800923
 20
21.02633691045577
 10
126.28697955577066
 20
21.29237793493737
 10
126.350028002685
 20
21.585660304099754
 10
126.362023637107
 20
21.761667466422857
 10
126.362023637107
 20
35.44493980581807
 10
126.32540619061943
 20
35.768379696150795
 10
126.22608779630713
 20
36.07545278649781
 10
126.0632814146519
 20
36.35846317009106
 10
125.84960946540872
 20
36.603065033340165
 10
125.70376393663392
 20
36.72779340530044
 10
125.55876909182098
 20
36.825648121837936
 10
125.40635969743906
 20
36.904593167201895
 10
125.24660548700741
 20
36.964694148582495
 10
124.92520233609262
 20
37.027092730051024
 10
124.45348811761832
 20
37.03434533305022
  0
LWPOLYLINE
  5
37
330
17
100
AcDbEntity
  8
CUT
100
AcDbPolyline
 90
124
 70
1
 10
100.74912377646368
 20
37.280915991783125
 10
109.64920291807096
 20
37.28091767897106
 10
109.64920460525892
 20
37.03434702023816
 10
109.2056362324452
 20
37.02930865035425
 10
108.92604358885318
 20
36.98451391150917
 10
108.6377085351753
 20
36.87690078364399
 10
108.37019294766472
 20
36.70544133159437
 10
108.16472489247874
 20
36.512560720049855
 10
107.99424700164391
 20
36.29245670503881
 10
107.87154852590147
 20
36.06391762129623
 10
107.78695221975273
 20
35.81082228071885
 10
107.75266303300437
 20
35.62094696814192
 10
107.74066739858227
 20
35.44493980581807
 10
107.74066739858227
 20
29.983000820553258
 10
107.76176280457126
 20
29.7981970422016
 10
107.82727200122693
 20
29.624143281899954
 10
107.94021463989642
 20
29.46433714046568
 10
108.0580238166745
 20
29.361021265306775
 10
108.23120476698075
 20
29.269903753702536
 10
108.42206766684804
 20
29.22671352420503
 10
113.65074526849091
 20
29.223182467271926
 10
113.7875017482565
 20
29.234393919579134
 10
113.92919316342159
 20
29.273353934336498
 10
114.05224362235906
 20
29.33403570533258
 10
114.16940894857817
 20
29.422729708586004
 10
114.24311789551503
 20
29.501427950281197
 10
114.32395901912739
 20
29.624143281899947
 10
114.37930622965585
 20
29.7602719936692
 10
114.40607251716445
 20
29.894835207918725
 10
114.41056362177201
 20
35.46467496837717
 10
114.39451713706563
 20
35.702196640861075
 10
114.32913238032262
 20
35.975006709743035
 10
114.21241225109473
 20
36.22924609451626
 10
114.04411560618284
 20
36.46385698306101
 10
113.83195834135257
 20
36.67161814576179
 10
113.5557843275437
 20
36.85746826901361
 10
113.24738978244314
 20
36.97903290765815
 10
112.95380907242348
 20
37.02872769711913
 10
112.50202810228333
 20
37.03434533305022
 10
112.5020264150954
 20
37.280915991783125
 10
121.40210555670268
 20
37.28091767897106
 10
121.40210724389063
 20
37.03434702023816
 10
120.95049235850927
 20
37.02872958953462
 10
120.65007047647947
 20
36.97678564384053
 10
120.34188215590311
 20
36.85137629004414
 10
120.06701029678504
 20
36.658750528556325
 10
119.85128742287952
 20
36.43550848974705
 10
119.68078062631223
 20
36.18027036178603
 10
119.56861411855044
 20
35.91422933730386
 10
119.50556567163606
 20
35.62094696814176
 10
119.493570037214
 20
35.44493980581808
 10
119.493570037214
 20
21.761667466422864
 10
119.53018748370147
 20
21.438227576090533
 10
119.6295058780137
 20
21.131154485743508
 10
119.79231225966934
 20
20.848144102149526
 10
120.00598420891158
 20
20.603542238901426
 10
120.15182973768712
 20
20.47881386694047
 10
120.29682458249975
 20
20.380959150403164
 10
120.4492339768817
 20
20.30201410503914
 10
120.60898818731341
 20
20.241913123658478
 10
120.93039133822789
 20
20.179514542189942
 10
121.40210555670268
 20
20.17226193919072
 10
121.40210724389061
 20
19.925691280457798
 10
112.50202810228333
 20
19.925689593269865
 10
112.5020264150954
 20
20.17226025200278
 10
112.94579639506357
 20
20.177304097564523
 10
113.22639169279446
 20
20.222059232957506
 10
113.5173182555513
 20
20.32948678332024
 10
113.7903501543561
 20
20.50150650534637
 10
113.99487563990878
 20
20.688178417979046
 10
114.16168330378831
 20
20.896402777063848
 10
114.28635423922353
 20
21.122404797053733
 10
114.36845044788647
 20
21.366807148538285
 10
114.40011884455824
 20
21.548389605666912
 10
114.41051201172529
 20
21.73209534456433
 10
114.41056362177201
 20
27.223606451687672
 10
114.38946821578301
 20
27.408410230039436
 10
114.32395901912739
 20
27.582463990340983
 10
114.21101638045786
 20
27.74227013177525
 10
114.0932072036801
 20
27.84558600693395
 10
113.92002625337399
 20
27.936703518538238
 10
113.72916335350646
 20
27.979893748035877
 10
108.5004857518634
 20
27.983424804969005
 10
108.36372927209766
 20
27.97221335266177
 10
108.22203785693299
 20
27.93325333790453
 10
108.0989873979949
 20
27.872571566908135
 10
107.98182207177612
 20
27.783877563654926
 10
107.90811312483926
 20
27.705179321959733
 10
107.82727200122693
 20
27.582463990340976
 10
107.77192479069842
 20
27.446335278571674
 10
107.74515850318984
 20
27.311772064322156
 10
107.74066739858227
 20
21.76166746642285
 10
107.75754892501551
 20
21.548859160484696
 10
107.82258770768412
 20
21.271109145208996
 10
107.93784783760829
 20
21.008064456132708
 10
108.10574559090355
 20
20.762094054739734
 10
108.3201394626798
 20
20.542626104757034
 10
108.59976412905033
 20
20.3493800931085
 10
108.89716783784795
 20
20.229821628400344
 10
109.1975897198779
 20
20.17787768270628
 10
109.64920291807097
 20
20.17226193919071
 10
109.64920460525892
 20
19.925691280457805
 10
100.7491254636516
 20
19.925689593269873
 10
100.74912377646368
 20
20.17226025200278
 10
101.20073866184516
 20
20.177877682706317
 10
101.50116054387406
 20
20.229821628400188
 10
101.80934886445085
 20
20.355230982196602
 10
102.08422072356979
 20
20.547856743685053
 10
102.29994359747454
 20
20.77109878249359
 10
102.47045039404246
 20
21.02633691045564
 10
102.58261690180355
 20
21.29237793493612
 10
102.64566534871825
 20
21.585660304099527
 10
102.65766098314029
 20
21.761667466422743
 10
102.65766098314029
 20
35.44493980581819
 10
102.62104353665275
 20
35.76837969615076
 10
102.52172514234042
 20
36.07545278649781
 10
102.35891876068516
 20
36.35846317009112
 10
102.14524681144238
 20
36.60306503333982
 10
101.99940128266718
 20
36.72779340530046
 10
101.85440643785427
 20
36.825648121837936
 10
101.70199704347225
 20
36.904593167201945
 10
101.54224283304046
 20
36.96469414858257
 10
101.22083968212618
 20
37.027092730051
 10
100.7491254636516
 20
37.03434533305022
  0
LWPOLYLINE
  5
38
330
17
100
AcDbEntity
  8
CUT
100
AcDbPolyline
 90
77
 70
1
 10
80.86318836890253
 20
37.75174055633211
 10
81.10202765397845
 20
37.67353069823377
 10
81.41571821888053
 20
37.59624638565007
 10
82.2773156862355
 20
37.44303532832803
 10
83.13787623750075
 20
37.34042997847665
 10
83.88923000066602
 20
37.306402425639504
 10
94.95039218533515
 20
37.311069845251076
 10
95.6567815514284
 20
37.36134425126289
 10
96.53224519537494
 20
37.48028405077445
 10
97.25896167816693
 20
37.618213601153094
 10
97.69774745749811
 20
37.751670334052335
 10
97.69777813880376
 20
32.64564650571605
 10
97.45120708737704
 20
32.67035718423813
 10
97.43362130485934
 20
33.250318579803505
 10
97.36039219121939
 20
33.74764920703284
 10
97.29728157672679
 20
33.99628401385627
 10
97.21397365480672
 20
34.2413514265461
 10
97.01191415892404
 20
34.660010962395226
 10
96.78276323464114
 20
34.99022904357537
 10
96.49588717333454
 20
35.29304487392335
 10
96.20151934302311
 20
35.524104846036956
 10
95.8478021534742
 20
35.72725366777946
 10
95.59093027667122
 20
35.83631009803518
 10
95.32328958159594
 20
35.922614740511044
 10
94.97891233869333
 20
35.999996297596546
 10
94.67539766265334
 20
36.04200643553218
 10
94.2459663817023
 20
36.06659248072306
 10
92.54256196664836
 20
36.06568162273347
 10
92.30335332222887
 20
36.0164732961197
 10
92.09265694778678
 20
35.89298535026846
 10
91.9328361019384
 20
35.7083247637708
 10
91.84085412786986
 20
35.4820913634533
 10
91.82198286387793
 20
35.30682640990274
 10
91.82198286387793
 20
21.76166746642282
 10
91.83397849829984
 20
21.585660304100486
 10
91.89702694521449
 20
21.29237793493668
 10
92.00919345297547
 20
21.026336910456223
 10
92.17970024954312
 20
20.771098782494313
 10
92.39542312344861
 20
20.54785674368493
 10
92.6702949825676
 20
20.355230982196474
 10
92.97848330314339
 20
20.2298216284004
 10
93.27890518517334
 20
20.177877682706296
 10
93.73051838336663
 20
20.17226193919071
 10
93.73052007055455
 20
19.925691280457798
 10
84.83044092894727
 20
19.925689593269865
 10
84.83043924175934
 20
20.17226025200278
 10
85.28205412714033
 20
20.17787768270628
 10
85.58247600916998
 20
20.229821628400266
 10
85.89066432974644
 20
20.35523098219656
 10
86.16553618886519
 20
20.54785674368486
 10
86.38125906277034
 20
20.77109878249376
 10
86.55176585933825
 20
21.026336910455846
 10
86.66393236709932
 20
21.292377934936475
 10
86.72698081401393
 20
21.58566030409952
 10
86.73897644843595
 20
21.761667466422843
 10
86.73897644843595
 20
35.30682640990274
 10
86.72010518444411
 20
35.482091363452916
 10
86.62812321037526
 20
35.70832476377114
 10
86.4683023645271
 20
35.89298535026846
 10
86.25760599008518
 20
36.01647329611963
 10
86.01839734566552
 20
36.06568162273347
 10
84.31499293061151
 20
36.06659248072306
 10
83.88556164966073
 20
36.0420064355322
 10
83.58204697362098
 20
35.999996297596624
 10
83.23766973071798
 20
35.92261474051105
 10
82.97002903564257
 20
35.83631009803514
 10
82.71315715883968
 20
35.72725366777945
 10
82.35943996929075
 20
35.52410484603694
 10
82.06507213897937
 20
35.29304487392335
 10
81.77819607767285
 20
34.99022904357548
 10
81.54904515338953
 20
34.6600109623947
 10
81.34698565750685
 20
34.24135142654527
 10
81.26367773558754
 20
33.99628401385777
 10
81.20056712109438
 20
33.74764920703237
 10
81.12733800745464
 20
33.2503185798046
 10
81.10975937964048
 20
32.6703650900966
 10
80.8631891035554
 20
32.64563932912375
  0
LWPOLYLINE
  5
39
330
17
100
AcDbEntity
  8
CUT
100
AcDbPolyline
 90
48
 70
1
 10
70.21541447030174
 20
36.70206967674845
 10
70.45066268785615
 20
37.385287598071606
 10
70.51465408292277
 20
37.646591763109384
 10
70.54835885478478
 20
37.87601430399663
 10
70.77044658719842
 20
37.8759810417252
 10
78.70215613605751
 20
21.42545681034082
 10
78.86915112296728
 20
21.17033178649654
 10
79.02866605454479
 20
20.97069927297887
 10
79.213576243967
 20
20.78402001700954
 10
79.41361048108654
 20
20.62753172928783
 10
79.80582998435733
 20
20.40086454617991
 10
80.16853606203382
 20
20.256302929778798
 10
80.51435827421444
 20
20.184322444902904
 10
80.91142415515438
 20
20.17226193919072
 10
80.91142584234233
 20
19.925691280457805
 10
71.51544363581384
 20
19.925689593269873
 10
71.51544194862592
 20
20.17226025200278
 10
71.85891297708366
 20
20.179347953045223
 10
72.0946708656928
 20
20.23080408071175
 10
72.3422482169879
 20
20.350261335507298
 10
72.57171993101849
 20
20.53469736157735
 10
72.69808167461906
 20
20.683234103663082
 10
72.77154881592827
 20
20.823122202311083
 10
72.81865409411434
 20
21.00373929578155
 10
72.82338596177743
 20
21.211109836669934
 10
72.77675233564304
 20
21.465125976170945
 10
72.63370818596975
 20
21.90422105650854
 10
71.92671814419558
 20
23.5899330974892
 10
71.8716206646781
 20
23.693367828615145
 10
71.78803938682857
 20
23.80152807647925
 10
71.70942765372374
 20
23.87474408849714
 10
71.58699250802982
 20
23.95502089642494
 10
71.35598946813853
 20
24.031450707444975
 10
70.21136646680215
 20
24.04130532991757
 10
70.21137700055966
 20
24.585674676269733
 10
70.48571572262126
 20
24.635674948453364
 10
70.7507029364903
 20
24.73970997039124
 10
70.95907964764748
 20
24.869545081264313
 10
71.16924409897291
 20
25.061566988094796
 10
71.30849207103653
 20
25.24359212526347
 10
71.4388325963735
 20
25.496678783858037
 10
71.50962066754603
 20
25.73176825352416
 10
71.54069486896378
 20
26.014745113549495
 10
71.51587656966718
 20
26.298339121462078
 10
71.42942044783173
 20
26.588350684908185
 10
70.45175285010222
 20
28.926949793377723
 10
70.33729734190297
 20
29.139647137054844
 10
70.2113465133446
 20
29.306743132805465
  0
LWPOLYLINE
  5
3A
330
17
100
AcDbEntity
  8
CUT
100
AcDbPolyline
 90
43
 70
1
 10
61.07668243203529
 20
20.17226025200278
 10
61.43383076681598
 20
20.17818139543789
 10
61.7173803726449
 20
20.221504000002952
 10
62.01893780891477
 20
20.3135375736548
 10
62.34985415495665
 20
20.465631241775995
 10
62.63010931074492
 20
20.635074724491908
 10
62.86325474252057
 20
20.826640994815328
 10
63.077032275189794
 20
21.058827762957364
 10
63.28249735806232
 20
21.34808213129525
 10
68.00876988733994
 20
31.70988967811236
 10
68.00875556325336
 20
29.27709217882144
 10
67.8876036355379
 20
29.10850774078044
 10
67.80028253434956
 20
28.943705256214507
 10
66.78019353964895
 20
26.586921916131132
 10
66.69726168089083
 20
26.314405549928075
 10
66.669244715178
 20
26.029277675702957
 10
66.69784193243186
 20
25.74420741384985
 10
66.78193666931134
 20
25.470326179996427
 10
66.91824519687779
 20
25.218328480918608
 10
67.0736360160385
 20
25.026216758904233
 10
67.29157851757049
 20
24.840249232024284
 10
67.49083877845902
 20
24.724084855963135
 10
67.76004664963398
 20
24.626054365169495
 10
68.00872907938255
 20
24.58466960917096
 10
68.0087453009073
 20
24.041306713668675
 10
66.8056992974455
 20
24.03174293069967
 10
66.5778644108143
 20
23.957608220700187
 10
66.38505667954917
 20
23.81537647474554
 10
66.29459131490738
 20
23.70314584044162
 10
66.23864812776448
 20
23.602226893493565
 10
65.49596202359965
 20
21.918363628669105
 10
65.35153065470296
 20
21.501041114406604
 10
65.30443127347654
 20
21.282474670628865
 10
65.30042308073536
 20
21.077621034485055
 10
65.34220804608421
 20
20.88839499207365
 10
65.43711850270336
 20
20.68982913505249
 10
65.56505286728313
 20
20.524677183720343
 10
65.76609102635375
 20
20.364201535391864
 10
66.04750157044319
 20
20.230481263876783
 10
66.2822403966307
 20
20.17826258980473
 10
66.60462073217863
 20
20.17226193919071
 10
66.60462241936658
 20
19.925691280457798
 10
61.08526145205623
 20
19.925128590280323
  0
LWPOLYLINE
  5
3B
330
17
100
AcDbEntity
  8
CUT
100
AcDbPolyline
 90
181
 70
1
 10
52.66042924586426
 20
28.230685056971787
 10
60.990219862812225
 20
28.230686744159705
 10
60.99022155000016
 20
27.98411608542682
 10
60.5193754619215
 20
27.981619987339386
 10
60.26958166746522
 20
27.959278068575344
 10
60.017866525935986
 20
27.900935460841694
 10
59.8103125831699
 20
27.809181550164837
 10
59.67448750547165
 20
27.71214920176208
 10
59.564263254643826
 20
27.59443614366689
 10
59.48265166699913
 20
27.464584288530595
 10
59.42237774253758
 20
27.310103265982384
 10
59.3897191500361
 20
27.15526407503082
 10
59.37690329808773
 20
26.97668409778108
 10
59.37308784596637
 20
22.769160917665623
 10
59.19546379308204
 20
22.564964989881155
 10
58.981345921081164
 20
22.35222631232221
 10
58.46136582588707
 20
21.924154984926666
 10
57.82566145237685
 20
21.498147519870145
 10
57.081860150424056
 20
21.0801034748984
 10
56.35730452062668
 20
20.742131124523162
 10
55.458809662564725
 20
20.397368711380608
 10
54.607881607656765
 20
20.13046479021809
 10
53.70784055385605
 20
19.904281906883128
 10
52.89562019652264
 20
19.755187071236143
 10
51.92324125149377
 20
19.639056802820633
 10
51.06144227682924
 20
19.587571708401605
 10
50.06463705078505
 20
19.583364895444802
 10
49.25415259672035
 20
19.627796827333114
 10
48.29676433315466
 20
19.7441772970029
 10
47.56119125713072
 20
19.88716796229842
 10
46.85011494676641
 20
20.07611365484216
 10
46.01895475431236
 20
20.369822464885964
 10
45.539577942034214
 20
20.580228271563087
 10
45.22352090764525
 20
20.73744041229247
 10
44.78349231353476
 20
20.983395786864264
 10
44.36246446600536
 20
21.252438962975994
 10
44.0832213385683
 20
21.451754171308494
 10
43.70458395078827
 20
21.75277769812582
 10
43.45050295079552
 20
21.977503755662603
 10
43.10601352061412
 20
22.316370684091275
 10
42.87959965690525
 20
22.564020475942044
 10
42.568609409906024
 20
22.942593828449056
 10
42.28207005574641
 20
23.339102616547606
 10
42.096193327305734
 20
23.626182451142355
 10
41.84730965501995
 20
24.057866438199703
 10
41.692260214002694
 20
24.36369646209038
 10
41.54791927809314
 20
24.68233828469871
 10
41.36220290484268
 20
25.157672617197484
 10
41.24944790325413
 20
25.49706854646721
 10
41.108676849506274
 20
26.00464386658399
 10
41.02744325335402
 20
26.36465432391998
 10
40.93212865942399
 20
26.90307548882396
 10
40.8319294339445
 20
27.85981988526106
 10
40.80923334448402
 20
28.4491482225867
 10
40.81365752494806
 20
29.047975424337054
 10
40.88115859831919
 20
30.002982632166024
 10
41.023744717527
 20
30.907401463854853
 10
41.10353222380328
 20
31.26200260535969
 10
41.241418366777744
 20
31.761245524307746
 10
41.40777794616465
 20
32.24853175049333
 10
41.60141034339207
 20
32.718372016940265
 10
41.82208473026881
 20
33.17002424671882
 10
42.069675869273965
 20
33.603360052201396
 10
42.34206219812105
 20
34.01598966156635
 10
42.6417623530472
 20
34.41113045124639
 10
42.962814593118466
 20
34.78091109240759
 10
43.31042370295629
 20
35.13155462692419
 10
43.799689573540505
 20
35.555660233821804
 10
44.201172083674706
 20
35.854754789964346
 10
44.62947051345584
 20
36.13408535383748
 10
45.08011419571559
 20
36.39062421977776
 10
45.55399912116749
 20
36.625190119875626
 10
46.048804252974506
 20
36.83577243534688
 10
46.563546952206416
 20
37.02158784831769
 10
47.09822513207863
 20
37.18263432237384
 10
47.652836545478515
 20
37.31891044598341
 10
48.227378965022105
 20
37.430415393824234
 10
48.82185032867761
 20
37.51714884556621
 10
49.436248830706525
 20
37.5791108798824
 10
50.070572964236156
 20
37.61630186438509
 10
50.73123018037834
 20
37.62872729565739
 10
51.51274929583539
 20
37.61548720174183
 10
52.20727806279268
 20
37.582317815787846
 10
53.01050910081768
 20
37.51974833603829
 10
53.92031617707742
 20
37.41952007906168
 10
54.893317568329735
 20
37.28439278143666
 10
55.725768906188655
 20
37.14383183909715
 10
56.51204502891845
 20
36.98529699998602
 10
57.13122848894465
 20
36.83104461496343
 10
57.66765502289405
 20
36.66438081115923
 10
58.113911519445956
 20
36.48769555967567
 10
57.86605734360228
 20
31.75299303130607
 10
57.64408048517972
 20
31.752965362335964
 10
57.48577527053659
 20
32.268837284141824
 10
57.31628258985583
 20
32.7382289463738
 10
57.127769652649526
 20
33.1816751067013
 10
56.96764088729257
 20
33.50707840136408
 10
56.75196298943963
 20
33.88573311068476
 10
56.52311415024136
 20
34.22642643824557
 10
56.273713891594184
 20
34.539450249013235
 10
56.00098213556081
 20
34.829853252000426
 10
55.72862716881866
 20
35.08510852193194
 10
55.39227390473765
 20
35.3574791660136
 10
55.09969422529323
 20
35.55911424269214
 10
54.79615960084727
 20
35.73639817604943
 10
54.492052152863614
 20
35.88389839431541
 10
54.176943846414055
 20
36.00728970475017
 10
53.71708453011183
 20
36.150074673483864
 10
53.32190952398288
 20
36.24598292765541
 10
52.9132662976216
 20
36.319289144494235
 10
52.44033789988578
 20
36.37151000034711
 10
52.03869591170078
 20
36.38853130151304
 10
51.53907470211434
 20
36.37756873447534
 10
51.029124057410826
 20
36.33135910202744
 10
50.635580375890505
 20
36.26778720116623
 10
50.173436557637324
 20
36.15670494805555
 10
49.80983929261177
 20
36.037044005415865
 10
49.4067786524773
 20
35.8647850076053
 10
49.098479985956594
 20
35.69965721569284
 10
48.797156397577076
 20
35.504609388605054
 10
48.458201602918834
 20
35.23879771008224
 10
48.19732896071641
 20
34.995841744839765
 10
47.902857981327415
 20
34.67176480999477
 10
47.68062207509777
 20
34.38314275581163
 10
47.43107242647404
 20
34.00051899626453
 10
47.254509163059694
 20
33.68095370240997
 10
47.093341052653365
 20
33.34226969530467
 10
46.94757477891758
 20
32.984478389288704
 10
46.81492990886893
 20
32.600797362580415
 10
46.697892063182515
 20
32.20199642636049
 10
46.56767322556111
 20
31.6615614230141
 10
46.410580331804866
 20
30.757656816488378
 10
46.339029786243344
 20
30.134966021202118
 10
46.30012889844882
 20
29.638167694765457
 10
46.26333046698069
 20
28.581901930935658
 10
46.286177604102704
 20
27.429935321806646
 10
46.32725886282759
 20
26.821308679545425
 10
46.38902402928861
 20
26.23448420576768
 10
46.52309603860347
 20
25.38567718845305
 10
46.734463739459116
 20
24.48916070397363
 10
46.97123826023723
 20
23.77408798295685
 10
47.25918360924527
 20
23.132604492828598
 10
47.42113787236095
 20
22.841666429328235
 10
47.64326688221761
 20
22.50097476064318
 10
47.83698860591636
 20
22.247384560667143
 10
48.03944567253577
 20
22.017302107993544
 10
48.26251985300938
 20
21.797980663099906
 10
48.49153454292831
 20
21.604936030993024
 10
48.73329900276795
 20
21.433326666013812
 10
48.99574213060115
 20
21.27893655083701
 10
49.330104490729255
 20
21.122692078708972
 10
49.6349388262768
 20
21.013754236180205
 10
50.01885751310719
 20
20.91513163762538
 10
50.35382809095666
 20
20.859181106089466
 10
50.7877220778787
 20
20.822583894035873
 10
51.1908042801156
 20
20.820814056292555
 10
51.5486600973184
 20
20.849267030877527
 10
51.92702110949442
 20
20.913281149661977
 10
52.27003306497036
 20
21.003483837030878
 10
52.629984663628626
 20
21.133452616073356
 10
52.932768588920275
 20
21.278113767542777
 10
53.18308467802118
 20
21.43031208262471
 10
53.43730851983397
 20
21.623452721151736
 10
53.675855781714795
 20
21.850975490940712
 10
53.882651535443735
 20
22.098970135668488
 10
54.04309643108283
 20
22.35795659978745
 10
54.14305880123592
 20
22.580597904620504
 10
54.220160018358044
 20
22.82564082630656
 10
54.26766283675819
 20
23.065752207206145
 10
54.29319504841134
 20
23.337223109877648
 10
54.32091070113533
 20
26.861364469845405
 10
54.31186137289559
 20
27.045663281793495
 10
54.28315717263419
 20
27.218062831417235
 10
54.22226270851064
 20
27.40231759540317
 10
54.130446427568835
 20
27.564238113956726
 10
54.01057929152787
 20
27.69819060759484
 10
53.89774822560581
 20
27.78432745955954
 10
53.6872947528729
 20
27.887690563395125
 10
53.41369552770434
 20
27.956980559918733
 10
53.15278126715063
 20
27.98153558942664
 10
52.66043093305218
 20
27.98411439823888
  0
LWPOLYLINE
  5
3C
330
17
100
AcDbEntity
  8
CUT
100
AcDbPolyline
 90
64
 70
1
 10
53.29424615176175
 20
59.51840025219546
 10
53.298741785945175
 20
59.27311048387938
 10
53.279173170778755
 20
59.02856120363501
 10
53.235728762723824
 20
58.787107554716144
 10
53.168826955179064
 20
58.551074867753634
 10
53.079112049123424
 20
58.32273626655166
 10
52.9674480481455
 20
58.10429077666252
 10
52.83491033761595
 20
57.897842147567445
 10
52.68277532814015
 20
57.705378592421795
 10
52.51250816302477
 20
57.52875364047273
 10
52.325748608147364
 20
57.36966828656051
 10
52.124295260114245
 20
57.22965460960796
 10
51.91008822479287
 20
57.11006101786366
 10
51.68519043303089
 20
57.01203926299255
 10
51.45176777350429
 20
56.9365333480781
 10
51.21206823402657
 20
56.88427043635681
 10
50.96840025219558
 20
56.85575384823825
 10
50.72311048387913
 20
56.851258214054816
 10
50.47856120363495
 20
56.870826829221244
 10
50.23710755471615
 20
56.91427123727617
 10
50.001074867753616
 20
56.981173044820935
 10
49.77273626655178
 20
57.07088795087652
 10
49.55429077666233
 20
57.182551951854606
 10
49.34784214756745
 20
57.31508966238404
 10
49.15537859242204
 20
57.467224671859626
 10
48.97875364047296
 20
57.63749183697499
 10
48.819668286560315
 20
57.824251391852876
 10
48.67965460960786
 20
58.025704739885924
 10
48.56006101786365
 20
58.23991177520712
 10
48.46203926299255
 20
58.46480956696914
 10
48.386533348078075
 20
58.698232226495804
 10
48.33427043635684
 20
58.93793176597329
 10
48.30575384823825
 20
59.18159974780451
 10
48.30125821405482
 20
59.42688951612061
 10
48.32082682922123
 20
59.671438796364924
 10
48.36427123727617
 20
59.912892445283845
 10
48.43117304482085
 20
60.14892513224612
 10
48.52088795087663
 20
60.37726373344845
 10
48.632551951854715
 20
60.59570922333785
 10
48.76508966238404
 20
60.80215785243254
 10
48.91722467185973
 20
60.99462140757808
 10
49.0874918369752
 20
61.17124635952723
 10
49.27425139185278
 20
61.33033171343959
 10
49.47570473988592
 20
61.47034539039213
 10
49.689911775207065
 20
61.58993898213631
 10
49.914809566969105
 20
61.68796073700744
 10
50.14823222649565
 20
61.76346665192187
 10
50.38793176597343
 20
61.81572956364318
 10
50.631599747804415
 20
61.84424615176174
 10
50.87688951612086
 20
61.84874178594517
 10
51.12143879636496
 20
61.82917317077876
 10
51.36289244528375
 20
61.78572876272385
 10
51.598925132246315
 20
61.718826955179075
 10
51.82726373344823
 20
61.629112049123464
 10
52.045709223337845
 20
61.51744804814528
 10
52.25215785243246
 20
61.384910337616006
 10
52.4446214075781
 20
61.232775328140235
 10
52.621246359527284
 20
61.062508163024745
 10
52.78033171343953
 20
60.87574860814729
 10
52.920345390392136
 20
60.674295260114064
 10
53.039938982136384
 20
60.460088224792784
 10
53.13796073700755
 20
60.23519043303059
 10
53.213466651921856
 20
60.00176777350441
 10
53.26572956364319
 20
59.762068234026515
  0
LWPOLYLINE
  5
3D
330
17
100
AcDbEntity
  8
CUT
100
AcDbPolyline
 90
127
 70
1
 10
7.083199041112429
 20
28.732969756798163
 10
8.564267674475566
 20
29.734661357384
 10
9.197138356397254
 20
30.114690438354756
 10
9.628796894980155
 20
30.343713615034524
 10
10.257206837620075
 20
30.62078983659454
 10
10.681074429390428
 20
30.763055677490875
 10
11.104971086468009
 20
30.864351896123054
 10
11.529055759399736
 20
30.92088030355022
 10
11.953511381767726
 20
30.929320234188687
 10
12.378470527220264
 20
30.88687715893125
 10
12.803941939397907
 20
30.791370022947724
 10
13.033002087199009
 20
30.71749542750056
 10
13.442807640118511
 20
30.545581621166612
 10
13.668984501460441
 20
30.428745841024828
 10
14.092987887307107
 20
30.167435306460277
 10
14.594025328846799
 20
29.79160253269272
 10
14.733281979993698
 20
29.725100466670924
 10
14.846373946595836
 20
29.69982861573728
 10
15.038834613187118
 20
29.707158152925622
 10
15.346112887381155
 20
29.80256850899508
 10
15.567645392203428
 20
29.826922289009033
 10
18.909235187742638
 20
29.82728359772137
 10
19.02697367723032
 20
29.838948958172452
 10
19.14013396032187
 20
29.87349143741084
 10
19.30676268547689
 20
29.97787077130768
 10
19.410046848133433
 20
30.096848005182345
 10
19.489977250007893
 20
30.276490172414107
 10
19.507542120921517
 20
30.472325952345464
 10
19.475189222559315
 20
30.626522224685935
 10
19.337391573294443
 20
30.972763868310672
 10
19.216905847562145
 20
31.34638479462219
 10
19.066269283892083
 20
31.956109076971472
 10
18.913129814178127
 20
32.819203051764866
 10
18.761147834837974
 20
33.92415167505605
 10
20.29610849647091
 20
33.646983488954774
 10
20.916267173034797
 20
33.49908024924624
 10
21.31313790710028
 20
33.38142437900885
 10
21.70068405623064
 20
33.24122414030577
 10
22.05732376040878
 20
33.08173996877859
 10
22.388289160779994
 20
32.8974132317817
 10
22.677188974754372
 20
32.69638582223924
 10
22.949086085414915
 20
32.457912887165755
 10
23.08585661144376
 20
32.31265358944154
 10
23.296693299492855
 20
32.04061802195406
 10
23.405367647042482
 20
31.86838169989504
 10
23.574655047920988
 20
31.530881143037213
 10
23.708415085911096
 20
31.15944198079955
 10
23.803723546622724
 20
30.76789443808825
 10
23.869703041198278
 20
30.31701263578332
 10
23.90291619781226
 20
30.203155342530103
 10
23.957876576364146
 20
30.098055609948858
 10
24.06116199251572
 20
29.978573856014492
 10
24.157206652107874
 20
29.908989228667338
 10
24.26506241880092
 20
29.859656373588088
 10
24.459482928065622
 20
29.82728359772137
 10
33.930066387175025
 20
29.819825578479232
 10
34.1269384527929
 20
29.77974498740577
 10
34.32612897992167
 20
29.697237569572785
 10
34.505395718211545
 20
29.577455364558006
 10
34.64809777110246
 20
29.436029807807913
 10
34.72607993809258
 20
29.332094988783993
 10
34.82642594720089
 20
29.141302334851616
 10
34.88870280763242
 20
28.927313199733845
 10
34.90695505433042
 20
28.712572166390217
 10
34.88296269188103
 20
28.49839648510256
 10
34.82377826292609
 20
28.306400997210943
 10
34.7221440550117
 20
28.11625676806672
 10
34.595386748116354
 20
27.960379735922665
 10
34.499595992659366
 20
27.872585680639915
 10
34.31955768636106
 20
27.754021914658573
 10
34.1269384527929
 20
27.674822208036964
 10
33.930066387175025
 20
27.634741616963503
 10
24.459482928065622
 20
27.627283597721366
 10
24.26506241880092
 20
27.594910821854647
 10
24.157206652107874
 20
27.545577966775397
 10
24.06116199251572
 20
27.475993339428243
 10
23.957876576364146
 20
27.356511585493877
 10
23.90291619781226
 20
27.251411852912632
 10
23.869703041198278
 20
27.137554559659414
 10
23.803723546622724
 20
26.686672757354486
 10
23.708415085911096
 20
26.295125214643186
 10
23.574655047920988
 20
25.92368605240552
 10
23.405367647042482
 20
25.586185495547696
 10
23.296693299492855
 20
25.413949173488675
 10
23.08585661144376
 20
25.141913606001197
 10
22.949086085414915
 20
24.99665430827698
 10
22.677188974754372
 20
24.75818137320349
 10
22.388289160779994
 20
24.557153963661037
 10
22.05732376040878
 20
24.372827226664143
 10
21.70068405623064
 20
24.213343055136967
 10
21.31313790710028
 20
24.073142816433887
 10
20.916267173034797
 20
23.955486946196494
 10
20.29610849647091
 20
23.80758370648796
 10
18.761147834837974
 20
23.530415520386683
 10
18.91395139062399
 20
24.64076503030828
 10
19.066269283892083
 20
25.498458118471262
 10
19.216905847562145
 20
26.108182400820546
 10
19.337391573294443
 20
26.481803327132063
 10
19.475189222559315
 20
26.8280449707568
 10
19.507542120921517
 20
26.98224124309727
 10
19.489977250007893
 20
27.178077023028628
 10
19.410046848133433
 20
27.35771919026039
 10
19.30676268547689
 20
27.476696424135056
 10
19.14013396032187
 20
27.581075758031893
 10
19.02697367723032
 20
27.615618237270283
 10
18.909235187742638
 20
27.627283597721366
 10
15.567645392203428
 20
27.6276449064337
 10
15.346112887381155
 20
27.651998686447655
 10
15.038834613187118
 20
27.747409042517113
 10
14.846373946595836
 20
27.754738579705453
 10
14.696930645888004
 20
27.716246508478186
 10
14.594025328846799
 20
27.662964662750014
 10
14.092987887307107
 20
27.287131888982458
 10
13.668984501460441
 20
27.025821354417907
 10
13.442807640118511
 20
26.908985574276123
 10
13.033002087199009
 20
26.737071767942176
 10
12.803941939397907
 20
26.66319717249501
 10
12.378470527220264
 20
26.567690036511486
 10
11.953511381767726
 20
26.525246961254048
 10
11.529055759399736
 20
26.533686891892515
 10
11.104971086468009
 20
26.59021529931968
 10
10.681074429390428
 20
26.69151151795186
 10
10.257206837620075
 20
26.833777358848195
 10
9.628796894980155
 20
27.11085358040821
 10
9.197138356397254
 20
27.33987675708798
 10
8.560747822135843
 20
27.722136893136202
 10
7.7113840943834076
 20
28.28688253061192
  0
LWPOLYLINE
  5
3E
330
17
100
AcDbEntity
  8
SCORE_OPTIONAL
100
AcDbPolyline
 90
148
 70
1
 10
6.6086815223267905
 20
56.384185566273615
 10
5.706101247200513
 20
55.944682138487
 10
5.334170743163687
 20
55.688762596123325
 10
4.998277359330862
 20
55.38709598097664
 10
4.704010008221659
 20
55.04470170814502
 10
4.456264988965184
 20
54.66727685810156
 10
4.259164518033815
 20
54.26110138326912
 10
4.11598813989801
 20
53.832933616219066
 10
4.029118158856674
 20
53.38989781812754
 10
4.007287125742968
 20
53.16510171897552
 10
4.0
 20
16.910634361435164
 10
4.007287125742968
 20
16.68489828102448
 10
4.0654021933506055
 20
16.237182131088304
 10
4.180665354982699
 20
15.800671517738195
 10
4.3511587528959765
 20
15.382629518335385
 10
4.45626498896517
 20
15.182723141898464
 10
4.704010008221637
 20
14.805298291855003
 10
4.998277359330832
 20
14.462904019023384
 10
5.161354908146523
 20
14.306649120626446
 10
5.51600524682784
 20
14.027274373611007
 10
5.7061012472004595
 20
13.905317861513026
 10
5.90366717087697
 20
13.795875703262098
 10
6.608681522326498
 20
13.465814433726514
 10
7.096233025323005
 20
13.215381442751173
 10
7.896739537462456
 20
12.75320879247942
 10
8.357396621091109
 20
12.456193300718809
 10
9.108747634055998
 20
11.917782778947455
 10
9.538073918780244
 20
11.577045207952729
 10
10.233033511585148
 20
10.967582002331802
 10
10.626894350590037
 20
10.586403841177358
 10
11.258769682452916
 20
9.911757415543228
 10
11.613371980552328
 20
9.4938096182944
 10
11.91778277894734
 20
9.10874763405615
 10
12.45619330071896
 20
8.357396621090878
 10
12.753208792479228
 20
7.8967395374627785
 10
13.215381442751317
 20
7.0962330253227535
 10
13.465814433726436
 20
6.60868152232667
 10
13.79587570326208
 20
5.903667170877007
 10
13.905317861513003
 20
5.706101247200493
 10
14.161237403876685
 20
5.334170743163668
 10
14.306649120626423
 20
5.161354908146549
 10
14.629351442443179
 20
4.845617163347484
 10
14.805298291854985
 20
4.704010008221644
 10
15.182723141898444
 20
4.456264988965174
 10
15.588898616730877
 20
4.259164518033813
 10
16.017066383780936
 20
4.115988139898008
 10
16.237182131088293
 20
4.065402193350607
 10
16.684898281024473
 20
4.0072871257429625
 10
16.91063436143516
 20
4.0
 10
186.51510171897556
 20
4.007287125742977
 10
186.73989781812762
 20
4.029118158856676
 10
187.18293361621917
 20
4.115988139898036
 10
187.39932848226198
 20
4.18066535498275
 10
187.81737048166482
 20
4.351158752896069
 10
188.01727685810178
 20
4.456264988965302
 10
188.39470170814525
 20
4.704010008221829
 10
188.7370959809769
 20
4.998277359331098
 10
189.03876259612358
 20
5.334170743163995
 10
189.29468213848725
 20
5.706101247200905
 10
189.40412429673816
 20
5.903667170877455
 10
189.7341855662739
 20
6.60868152232738
 10
189.98461855724878
 20
7.096233025323002
 10
190.4467912075209
 20
7.896739537463013
 10
190.71199351017358
 20
8.309784818943925
 10
191.31707625652973
 20
9.154176813562628
 10
191.90347470744317
 20
9.868705393399956
 10
192.23241799766825
 20
10.233033511585212
 10
192.61359615882282
 20
10.626894350590227
 10
193.28824258445698
 20
11.2587696824531
 10
194.04582318643807
 20
11.882923743470812
 10
194.48606822529834
 20
12.209431717035088
 10
195.2546332539751
 20
12.72297045104871
 10
195.72476177050623
 20
13.004754639723608
 10
196.53996154665583
 20
13.440487998100146
 10
197.29633282912317
 20
13.795875703262169
 10
197.49389875279965
 20
13.905317861513097
 10
197.68399475317227
 20
14.027274373611078
 10
198.03864509185357
 20
14.306649120626524
 10
198.35438283665258
 20
14.629351442443273
 10
198.4959899917784
 20
14.805298291855074
 10
198.74373501103486
 20
15.182723141898528
 10
198.84884124710405
 20
15.382629518335435
 10
199.0193346450173
 20
15.80067151773823
 10
199.1345978066494
 20
16.237182131088325
 10
199.1708818411433
 20
16.46010218187248
 10
199.2
 20
16.910634361435157
 10
199.2
 20
52.93936563856483
 10
199.1708818411433
 20
53.389897818127515
 10
199.08401186010198
 20
53.83293361621903
 10
198.9408354819662
 20
54.26110138326908
 10
198.84884124710402
 20
54.46737048166458
 10
198.62595444367784
 20
54.85998808806444
 10
198.35438283665255
 20
55.22064855755676
 10
198.2017226406692
 20
55.38709598097657
 10
197.8658292568364
 20
55.68876259612325
 10
197.68399475317221
 20
55.82272562638895
 10
197.2963328291231
 20
56.054124296737854
 10
196.53996154665626
 20
56.40951200189964
 10
195.7247617705061
 20
56.845245360276486
 10
194.84260337890873
 20
57.39380669928127
 10
194.09125236594335
 20
57.93221722105301
 10
193.70619038170528
 20
58.236628019447906
 10
193.28824258445619
 20
58.59123031754758
 10
192.61359615882287
 20
59.22310564940972
 10
192.23241799766836
 20
59.61696648841463
 10
191.62295479204718
 20
60.31192608121983
 10
191.28221722105317
 20
60.74125236594317
 10
190.74380669928144
 20
61.49260337890852
 10
190.44679120752053
 20
61.953260462537614
 10
189.98461855724895
 20
62.75376697467673
 10
189.7341855662739
 20
63.241318477672614
 10
189.40412429673788
 20
63.946332829123016
 10
189.29468213848696
 20
64.14389875279953
 10
189.0387625961233
 20
64.51582925683634
 10
188.89335087937354
 20
64.68864509185346
 10
188.57064855755678
 20
65.00438283665251
 10
188.394701708145
 20
65.14598999177835
 10
188.01727685810152
 20
65.39373501103482
 10
187.6111013832691
 20
65.59083548196618
 10
187.18293361621903
 20
65.73401186010199
 10
186.96281786891169
 20
65.78459780664939
 10
186.5151017189755
 20
65.84271287425703
 10
186.28936563856482
 20
65.85
 10
16.684898281024477
 20
65.84271287425703
 10
16.237182131088293
 20
65.78459780664939
 10
16.017066383780936
 20
65.73401186010199
 10
15.80067151773818
 20
65.66933464501729
 10
15.382629518335367
 20
65.49884124710401
 10
15.182723141898446
 20
65.39373501103482
 10
14.805298291854987
 20
65.14598999177835
 10
14.629351442443182
 20
65.00438283665251
 10
14.306649120626425
 20
64.68864509185346
 10
14.161237403876687
 20
64.51582925683633
 10
13.905317861513005
 20
64.1438987527995
 10
13.795875703262082
 20
63.946332829122994
 10
13.440487998100423
 20
63.18996154665638
 10
13.004754639723489
 20
62.37476177050606
 10
12.722970451048818
 20
61.90463325397525
 10
12.20943171703495
 20
61.13606822529816
 10
11.613371980552376
 20
60.35619038170565
 10
11.258769682452947
 20
59.938242584456795
 10
10.626894350590108
 20
59.26359615882271
 10
10.23303351158529
 20
58.88241799766833
 10
9.86870539339948
 20
58.55347470744277
 10
9.154176813562229
 20
57.96707625652942
 10
8.309784818942981
 20
57.361993510172965
 10
7.524828773237128
 20
56.8738764740559
 10
7.096233025322808
 20
56.63461855724871
  0
ENDSEC
  0
SECTION
  2
OBJECTS
  0
DICTIONARY
  5
A
330
0
100
AcDbDictionary
281
1
  3
ACAD_COLOR
350
B
  3
ACAD_GROUP
350
C
  3
ACAD_LAYOUT
350
D
  3
ACAD_MATERIAL
350
E
  3
ACAD_MLEADERSTYLE
350
F
  3
ACAD_MLINESTYLE
350
10
  3
ACAD_PLOTSETTINGS
350
11
  3
ACAD_PLOTSTYLENAME
350
12
  3
ACAD_SCALELIST
350
14
  3
ACAD_TABLESTYLE
350
15
  3
ACAD_VISUALSTYLE
350
16
  3
EZDXF_META
350
2D
  0
DICTIONARY
  5
B
330
A
100
AcDbDictionary
281
1
  0
DICTIONARY
  5
C
330
A
100
AcDbDictionary
281
1
  0
DICTIONARY
  5
D
330
A
100
AcDbDictionary
281
1
  3
Model
350
1A
  3
Layout1
350
1E
  0
DICTIONARY
  5
E
330
A
100
AcDbDictionary
281
1
  3
ByBlock
350
1F
  3
ByLayer
350
20
  3
Global
350
21
  0
DICTIONARY
  5
F
330
A
100
AcDbDictionary
281
1
  3
Standard
350
2C
  0
DICTIONARY
  5
10
330
A
100
AcDbDictionary
281
1
  3
Standard
350
22
  0
DICTIONARY
  5
11
330
A
100
AcDbDictionary
281
1
  0
ACDBDICTIONARYWDFLT
  5
12
330
A
100
AcDbDictionary
281
1
  3
Normal
350
13
100
AcDbDictionaryWithDefault
340
13
  0
ACDBPLACEHOLDER
  5
13
330
12
  0
DICTIONARY
  5
14
330
A
100
AcDbDictionary
281
1
  0
DICTIONARY
  5
15
330
A
100
AcDbDictionary
281
1
  0
DICTIONARY
  5
16
330
A
100
AcDbDictionary
281
1
  0
LAYOUT
  5
1A
330
D
100
AcDbPlotSettings
  1

  4
A3
  6

 40
7.5
 41
20.0
 42
7.5
 43
20.0
 44
420.0
 45
297.0
 46
0.0
 47
0.0
 48
0.0
 49
0.0
140
0.0
141
0.0
142
1.0
143
1.0
 70
1024
 72
1
 73
0
 74
5
  7

 75
16
 76
0
 77
2
 78
300
147
1.0
148
0.0
149
0.0
100
AcDbLayout
  1
Model
 70
1
 71
0
 10
0.0
 20
0.0
 11
420.0
 21
297.0
 12
0.0
 22
0.0
 32
0.0
 14
1e+20
 24
1e+20
 34
1e+20
 15
-1e+20
 25
-1e+20
 35
-1e+20
146
0.0
 13
0.0
 23
0.0
 33
0.0
 16
1.0
 26
0.0
 36
0.0
 17
0.0
 27
1.0
 37
0.0
 76
1
330
17
  0
LAYOUT
  5
1E
330
D
100
AcDbPlotSettings
  1

  4
A3
  6

 40
7.5
 41
20.0
 42
7.5
 43
20.0
 44
420.0
 45
297.0
 46
0.0
 47
0.0
 48
0.0
 49
0.0
140
0.0
141
0.0
142
1.0
143
1.0
 70
0
 72
1
 73
0
 74
5
  7

 75
16
 76
0
 77
2
 78
300
147
1.0
148
0.0
149
0.0
100
AcDbLayout
  1
Layout1
 70
1
 71
1
 10
0.0
 20
0.0
 11
420.0
 21
297.0
 12
0.0
 22
0.0
 32
0.0
 14
1e+20
 24
1e+20
 34
1e+20
 15
-1e+20
 25
-1e+20
 35
-1e+20
146
0.0
 13
0.0
 23
0.0
 33
0.0
 16
1.0
 26
0.0
 36
0.0
 17
0.0
 27
1.0
 37
0.0
 76
1
330
1B
  0
MATERIAL
  5
1F
102
{ACAD_REACTORS
330
E
102
}
330
E
100
AcDbMaterial
  1
ByBlock
  2

 70
0
 40
1.0
 71
1
 41
1.0
 91
-1023410177
 42
1.0
 72
1
  3

 73
1
 74
1
 75
1
 44
0.5
 73
0
 45
1.0
 46
1.0
 77
1
  4

 78
1
 79
1
170
1
 48
1.0
171
1
  6

172
1
173
1
174
1
140
1.0
141
1.0
175
1
  7

176
1
177
1
178
1
143
1.0
179
1
  8

270
1
271
1
272
1
145
1.0
146
1.0
273
1
  9

274
1
275
1
276
1
 42
1.0
 72
1
  3

 73
1
 74
1
 75
1
 94
63
  0
MATERIAL
  5
20
102
{ACAD_REACTORS
330
E
102
}
330
E
100
AcDbMaterial
  1
ByLayer
  2

 70
0
 40
1.0
 71
1
 41
1.0
 91
-1023410177
 42
1.0
 72
1
  3

 73
1
 74
1
 75
1
 44
0.5
 73
0
 45
1.0
 46
1.0
 77
1
  4

 78
1
 79
1
170
1
 48
1.0
171
1
  6

172
1
173
1
174
1
140
1.0
141
1.0
175
1
  7

176
1
177
1
178
1
143
1.0
179
1
  8

270
1
271
1
272
1
145
1.0
146
1.0
273
1
  9

274
1
275
1
276
1
 42
1.0
 72
1
  3

 73
1
 74
1
 75
1
 94
63
  0
MATERIAL
  5
21
102
{ACAD_REACTORS
330
E
102
}
330
E
100
AcDbMaterial
  1
Global
  2

 70
0
 40
1.0
 71
1
 41
1.0
 91
-1023410177
 42
1.0
 72
1
  3

 73
1
 74
1
 75
1
 44
0.5
 73
0
 45
1.0
 46
1.0
 77
1
  4

 78
1
 79
1
170
1
 48
1.0
171
1
  6

172
1
173
1
174
1
140
1.0
141
1.0
175
1
  7

176
1
177
1
178
1
143
1.0
179
1
  8

270
1
271
1
272
1
145
1.0
146
1.0
273
1
  9

274
1
275
1
276
1
 42
1.0
 72
1
  3

 73
1
 74
1
 75
1
 94
63
  0
MLINESTYLE
  5
22
102
{ACAD_REACTORS
330
10
102
}
330
10
100
AcDbMlineStyle
  2
Standard
 70
0
  3

 62
256
 51
90.0
 52
90.0
 71
2
 49
0.5
 62
256
  6
BYLAYER
 49
-0.5
 62
256
  6
BYLAYER
  0
MLEADERSTYLE
  5
2C
102
{ACAD_REACTORS
330
F
102
}
330
F
100
AcDbMLeaderStyle
179
2
170
2
171
1
172
0
 90
2
 40
0.0
 41
0.0
173
1
 91
-1056964608
 92
-2
290
1
 42
2.0
291
1
 43
8.0
  3
Standard
 44
4.0
300

342
29
174
1
175
1
176
0
178
1
 93
-1056964608
 45
4.0
292
0
297
0
 46
4.0
 94
-1056964608
 47
1.0
 49
1.0
140
1.0
294
1
141
0.0
177
0
142
1.0
295
0
296
0
143
3.75
271
0
272
9
273
9
  0
DICTIONARY
  5
2D
330
A
100
AcDbDictionary
280
1
281
1
  3
CREATED_BY_EZDXF
350
2E
  3
WRITTEN_BY_EZDXF
350
41
  0
DICTIONARYVAR
  5
2E
330
2D
100
DictionaryVariables
280
0
  1
1.4.4 @ 2026-10-05T10:29:46.752067+00:00
  0
DICTIONARYVAR
  5
41
330
2D
100
DictionaryVariables
280
0
  1
1.4.4 @ 2026-10-05T10:29:46.772778+00:00
  0
ENDSEC
  0
EOF
