  0
SECTION
  2
HEADER
  9
$ACADVER
  1
AC1024
  9
$ACADMAINTVER
 70
6
  9
$DWGCODEPAGE
  3
ANSI_1252
  9
$LASTSAVEDBY
  1
ezdxf
  9
$INSBASE
 10
0.0
 20
0.0
 30
0.0
  9
$EXTMIN
 10
1e+20
 20
1e+20
 30
1e+20
  9
$EXTMAX
 10
-1e+20
 20
-1e+20
 30
-1e+20
  9
$LIMMIN
 10
0.0
 20
0.0
  9
$LIMMAX
 10
420.0
 20
297.0
  9
$ORTHOMODE
 70
0
  9
$REGENMODE
 70
1
  9
$FILLMODE
 70
1
  9
$QTEXTMODE
 70
0
  9
$MIRRTEXT
 70
1
  9
$LTSCALE
 40
1.0
  9
$ATTMODE
 70
1
  9
$TEXTSIZE
 40
2.5
  9
$TRACEWID
 40
1.0
  9
$TEXTSTYLE
  7
Standard
  9
$CLAYER
  8
0
  9
$CELTYPE
  6
ByLayer
  9
$CECOLOR
 62
256
  9
$CELTSCALE
 40
1.0
  9
$DISPSILH
 70
0
  9
$DIMSCALE
 40
1.0
  9
$DIMASZ
 40
2.5
  9
$DIMEXO
 40
0.625
  9
$DIMDLI
 40
3.75
  9
$DIMRND
 40
0.0
  9
$DIMDLE
 40
0.0
  9
$DIMEXE
 40
1.25
  9
$DIMTP
 40
0.0
  9
$DIMTM
 40
0.0
  9
$DIMTXT
 40
2.5
  9
$DIMCEN
 40
2.5
  9
$DIMTSZ
 40
0.0
  9
$DIMTOL
 70
0
  9
$DIMLIM
 70
0
  9
$DIMTIH
 70
0
  9
$DIMTOH
 70
0
  9
$DIMSE1
 70
0
  9
$DIMSE2
 70
0
  9
$DIMTAD
 70
1
  9
$DIMZIN
 70
8
  9
$DIMBLK
  1

  9
$DIMASO
 70
1
  9
$DIMSHO
 70
1
  9
$DIMPOST
  1

  9
$DIMAPOST
  1

  9
$DIMALT
 70
0
  9
$DIMALTD
 70
3
  9
$DIMALTF
 40
0.03937007874
  9
$DIMLFAC
 40
1.0
  9
$DIMTOFL
 70
1
  9
$DIMTVP
 40
0.0
  9
$DIMTIX
 70
0
  9
$DIMSOXD
 70
0
  9
$DIMSAH
 70
0
  9
$DIMBLK1
  1

  9
$DIMBLK2
  1

  9
$DIMSTYLE
  2
ISO-25
  9
$DIMCLRD
 70
0
  9
$DIMCLRE
 70
0
  9
$DIMCLRT
 70
0
  9
$DIMTFAC
 40
1.0
  9
$DIMGAP
 40
0.625
  9
$DIMJUST
 70
0
  9
$DIMSD1
 70
0
  9
$DIMSD2
 70
0
  9
$DIMTOLJ
 70
0
  9
$DIMTZIN
 70
8
  9
$DIMALTZ
 70
0
  9
$DIMALTTZ
 70
0
  9
$DIMUPT
 70
0
  9
$DIMDEC
 70
2
  9
$DIMTDEC
 70
2
  9
$DIMALTU
 70
2
  9
$DIMALTTD
 70
3
  9
$DIMTXSTY
  7
Standard
  9
$DIMAUNIT
 70
0
  9
$DIMADEC
 70
0
  9
$DIMALTRND
 40
0.0
  9
$DIMAZIN
 70
0
  9
$DIMDSEP
 70
44
  9
$DIMATFIT
 70
3
  9
$DIMFRAC
 70
0
  9
$DIMLDRBLK
  1

  9
$DIMLUNIT
 70
2
  9
$DIMLWD
 70
-2
  9
$DIMLWE
 70
-2
  9
$DIMTMOVE
 70
0
  9
$DIMFXL
 40
1.0
  9
$DIMFXLON
 70
0
  9
$DIMJOGANG
 40
0.785398163397
  9
$DIMTFILL
 70
0
  9
$DIMTFILLCLR
 70
0
  9
$DIMARCSYM
 70
0
  9
$DIMLTYPE
  6

  9
$DIMLTEX1
  6

  9
$DIMLTEX2
  6

  9
$DIMTXTDIRECTION
 70
0
  9
$LUNITS
 70
2
  9
$LUPREC
 70
4
  9
$SKETCHINC
 40
1.0
  9
$FILLETRAD
 40
10.0
  9
$AUNITS
 70
0
  9
$AUPREC
 70
2
  9
$MENU
  1
.
  9
$ELEVATION
 40
0.0
  9
$PELEVATION
 40
0.0
  9
$THICKNESS
 40
0.0
  9
$LIMCHECK
 70
0
  9
$CHAMFERA
 40
0.0
  9
$CHAMFERB
 40
0.0
  9
$CHAMFERC
 40
0.0
  9
$CHAMFERD
 40
0.0
  9
$SKPOLY
 70
0
  9
$TDCREATE
 40
2461319.437337963
  9
$TDUCREATE
 40
2458532.153996898
  9
$TDUPDATE
 40
2461319.437337963
  9
$TDUUPDATE
 40
2458532.1544311
  9
$TDINDWG
 40
0.0
  9
$TDUSRTIMER
 40
0.0
  9
$USRTIMER
 70
1
  9
$ANGBASE
 50
0.0
  9
$ANGDIR
 70
0
  9
$PDMODE
 70
0
  9
$PDSIZE
 40
0.0
  9
$PLINEWID
 40
0.0
  9
$SPLFRAME
 70
0
  9
$SPLINETYPE
 70
6
  9
$SPLINESEGS
 70
8
  9
$HANDSEED
  5
40
  9
$SURFTAB1
 70
6
  9
$SURFTAB2
 70
6
  9
$SURFTYPE
 70
6
  9
$SURFU
 70
6
  9
$SURFV
 70
6
  9
$UCSBASE
  2

  9
$UCSNAME
  2

  9
$UCSORG
 10
0.0
 20
0.0
 30
0.0
  9
$UCSXDIR
 10
1.0
 20
0.0
 30
0.0
  9
$UCSYDIR
 10
0.0
 20
1.0
 30
0.0
  9
$UCSORTHOREF
  2

  9
$UCSORTHOVIEW
 70
0
  9
$UCSORGTOP
 10
0.0
 20
0.0
 30
0.0
  9
$UCSORGBOTTOM
 10
0.0
 20
0.0
 30
0.0
  9
$UCSORGLEFT
 10
0.0
 20
0.0
 30
0.0
  9
$UCSORGRIGHT
 10
0.0
 20
0.0
 30
0.0
  9
$UCSORGFRONT
 10
0.0
 20
0.0
 30
0.0
  9
$UCSORGBACK
 10
0.0
 20
0.0
 30
0.0
  9
$PUCSBASE
  2

  9
$PUCSNAME
  2

  9
$PUCSORG
 10
0.0
 20
0.0
 30
0.0
  9
$PUCSXDIR
 10
1.0
 20
0.0
 30
0.0
  9
$PUCSYDIR
 10
0.0
 20
1.0
 30
0.0
  9
$PUCSORTHOREF
  2

  9
$PUCSORTHOVIEW
 70
0
  9
$PUCSORGTOP
 10
0.0
 20
0.0
 30
0.0
  9
$PUCSORGBOTTOM
 10
0.0
 20
0.0
 30
0.0
  9
$PUCSORGLEFT
 10
0.0
 20
0.0
 30
0.0
  9
$PUCSORGRIGHT
 10
0.0
 20
0.0
 30
0.0
  9
$PUCSORGFRONT
 10
0.0
 20
0.0
 30
0.0
  9
$PUCSORGBACK
 10
0.0
 20
0.0
 30
0.0
  9
$USERI1
 70
0
  9
$USERI2
 70
0
  9
$USERI3
 70
0
  9
$USERI4
 70
0
  9
$USERI5
 70
0
  9
$USERR1
 40
0.0
  9
$USERR2
 40
0.0
  9
$USERR3
 40
0.0
  9
$USERR4
 40
0.0
  9
$USERR5
 40
0.0
  9
$WORLDVIEW
 70
1
  9
$SHADEDGE
 70
3
  9
$SHADEDIF
 70
70
  9
$TILEMODE
 70
1
  9
$MAXACTVP
 70
64
  9
$PINSBASE
 10
0.0
 20
0.0
 30
0.0
  9
$PLIMCHECK
 70
0
  9
$PEXTMIN
 10
1e+20
 20
1e+20
 30
1e+20
  9
$PEXTMAX
 10
-1e+20
 20
-1e+20
 30
-1e+20
  9
$PLIMMIN
 10
0.0
 20
0.0
  9
$PLIMMAX
 10
420.0
 20
297.0
  9
$UNITMODE
 70
0
  9
$VISRETAIN
 70
1
  9
$PLINEGEN
 70
0
  9
$PSLTSCALE
 70
1
  9
$TREEDEPTH
 70
3020
  9
$CMLSTYLE
  2
Standard
  9
$CMLJUST
 70
0
  9
$CMLSCALE
 40
20.0
  9
$PROXYGRAPHICS
 70
1
  9
$MEASUREMENT
 70
1
  9
$CELWEIGHT
370
-1
  9
$ENDCAPS
280
0
  9
$JOINSTYLE
280
0
  9
$LWDISPLAY
290
0
  9
$INSUNITS
 70
4
  9
$HYPERLINKBASE
  1

  9
$STYLESHEET
  1

  9
$XEDIT
290
1
  9
$CEPSNTYPE
380
0
  9
$PSTYLEMODE
290
1
  9
$FINGERPRINTGUID
  2
{B943123A-E906-4C07-A65B-5E87009F06EF}
  9
$VERSIONGUID
  2
{E3D0A2CC-C828-4655-A4AA-97019C3E4487}
  9
$EXTNAMES
290
1
  9
$PSVPSCALE
 40
0.0
  9
$OLESTARTUP
290
0
  9
$SORTENTS
280
127
  9
$INDEXCTL
280
0
  9
$HIDETEXT
280
1
  9
$XCLIPFRAME
280
1
  9
$HALOGAP
280
0
  9
$OBSCOLOR
 70
257
  9
$OBSLTYPE
280
0
  9
$INTERSECTIONDISPLAY
280
0
  9
$INTERSECTIONCOLOR
 70
257
  9
$DIMASSOC
280
2
  9
$PROJECTNAME
  1

  9
$CAMERADISPLAY
290
0
  9
$LENSLENGTH
 40
50.0
  9
$CAMERAHEIGHT
 40
0.0
  9
$STEPSPERSEC
 40
24.0
  9
$STEPSIZE
 40
100.0
  9
$3DDWFPREC
 40
2.0
  9
$PSOLWIDTH
 40
0.005
  9
$PSOLHEIGHT
 40
0.08
  9
$LOFTANG1
 40
1.570796326795
  9
$LOFTANG2
 40
1.570796326795
  9
$LOFTMAG1
 40
0.0
  9
$LOFTMAG2
 40
0.0
  9
$LOFTPARAM
 70
7
  9
$LOFTNORMALS
280
1
  9
$LATITUDE
 40
37.795
  9
$LONGITUDE
 40
-122.394
  9
$NORTHDIRECTION
 40
0.0
  9
$TIMEZONE
 70
-8000
  9
$LIGHTGLYPHDISPLAY
280
1
  9
$TILEMODELIGHTSYNCH
280
1
  9
$CMATERIAL
347
20
  9
$SOLIDHIST
280
0
  9
$SHOWHIST
280
1
  9
$DWFFRAME
280
2
  9
$DGNFRAME
280
2
  9
$REALWORLDSCALE
290
1
  9
$INTERFERECOLOR
 62
256
  9
$CSHADOW
280
0
  9
$SHADOWPLANELOCATION
 40
0.0
  0
ENDSEC
  0
SECTION
  2
CLASSES
  0
CLASS
  1
ACDBDICTIONARYWDFLT
  2
AcDbDictionaryWithDefault
  3
ObjectDBX Classes
 90
0
 91
0
280
0
281
0
  0
CLASS
  1
SUN
  2
AcDbSun
  3
SCENEOE
 90
1153
 91
0
280
0
281
0
  0
CLASS
  1
VISUALSTYLE
  2
AcDbVisualStyle
  3
ObjectDBX Classes
 90
4095
 91
0
280
0
281
0
  0
CLASS
  1
MATERIAL
  2
AcDbMaterial
  3
ObjectDBX Classes
 90
1153
 91
0
280
0
281
0
  0
CLASS
  1
SCALE
  2
AcDbScale
  3
ObjectDBX Classes
 90
1153
 91
0
280
0
281
0
  0
CLASS
  1
TABLESTYLE
  2
AcDbTableStyle
  3
ObjectDBX Classes
 90
4095
 91
0
280
0
281
0
  0
CLASS
  1
MLEADERSTYLE
  2
AcDbMLeaderStyle
  3
ACDB_MLEADERSTYLE_CLASS
 90
4095
 91
0
280
0
281
0
  0
CLASS
  1
DICTIONARYVAR
  2
AcDbDictionaryVar
  3
ObjectDBX Classes
 90
0
 91
0
280
0
281
0
  0
CLASS
  1
CELLSTYLEMAP
  2
AcDbCellStyleMap
  3
ObjectDBX Classes
 90
1152
 91
0
280
0
281
0
  0
CLASS
  1
MENTALRAYRENDERSETTINGS
  2
AcDbMentalRayRenderSettings
  3
SCENEOE
 90
1024
 91
0
280
0
281
0
  0
CLASS
  1
ACDBDETAILVIEWSTYLE
  2
AcDbDetailViewStyle
  3
ObjectDBX Classes
 90
1025
 91
0
280
0
281
0
  0
CLASS
  1
ACDBSECTIONVIEWSTYLE
  2
AcDbSectionViewStyle
  3
ObjectDBX Classes
 90
1025
 91
0
280
0
281
0
  0
CLASS
  1
RASTERVARIABLES
  2
AcDbRasterVariables
  3
ISM
 90
0
 91
0
280
0
281
0
  0
CLASS
  1
LAYOUT
  2
AcDbLayout
  3
ObjectDBX Classes
 90
0
 91
0
280
0
281
0
  0
CLASS
  1
ACDBPLACEHOLDER
  2
AcDbPlaceHolder
  3
ObjectDBX Classes
 90
0
 91
0
280
0
281
0
  0
ENDSEC
  0
SECTION
  2
TABLES
  0
TABLE
  2
VPORT
  5
8
330
0
100
AcDbSymbolTable
 70
1
  0
VPORT
  5
23
330
8
100
AcDbSymbolTableRecord
100
AcDbViewportTableRecord
  2
*Active
 70
0
 10
0.0
 20
0.0
 11
1.0
 21
1.0
 12
0.0
 22
0.0
 13
0.0
 23
0.0
 14
0.5
 24
0.5
 15
0.5
 25
0.5
 16
0.0
 26
0.0
 36
1.0
 17
0.0
 27
0.0
 37
0.0
 40
1000.0
 41
1.34
 42
50.0
 43
0.0
 44
0.0
 50
0.0
 51
0.0
 71
0
 72
1000
 73
1
 74
3
 75
0
 76
0
 77
0
 78
0
281
0
 65
0
146
0.0
  0
ENDTAB
  0
TABLE
  2
LTYPE
  5
2
330
0
100
AcDbSymbolTable
 70
3
  0
LTYPE
  5
24
330
2
100
AcDbSymbolTableRecord
100
AcDbLinetypeTableRecord
  2
ByBlock
 70
0
  3

 72
65
 73
0
 40
0.0
  0
LTYPE
  5
25
330
2
100
AcDbSymbolTableRecord
100
AcDbLinetypeTableRecord
  2
ByLayer
 70
0
  3

 72
65
 73
0
 40
0.0
  0
LTYPE
  5
26
330
2
100
AcDbSymbolTableRecord
100
AcDbLinetypeTableRecord
  2
Continuous
 70
0
  3

 72
65
 73
0
 40
0.0
  0
ENDTAB
  0
TABLE
  2
LAYER
  5
1
330
0
100
AcDbSymbolTable
 70
4
  0
LAYER
  5
27
330
1
100
AcDbSymbolTableRecord
100
AcDbLayerTableRecord
  2
0
 70
0
 62
7
  6
Continuous
370
-3
390
13
347
21
  0
LAYER
  5
28
330
1
100
AcDbSymbolTableRecord
100
AcDbLayerTableRecord
  2
Defpoints
 70
0
 62
7
  6
Continuous
290
0
370
-3
390
13
347
21
  0
LAYER
  5
2F
330
1
100
AcDbSymbolTableRecord
100
AcDbLayerTableRecord
  2
CUT
 70
0
 62
1
  6
Continuous
370
-3
390
13
347
21
  0
LAYER
  5
30
330
1
100
AcDbSymbolTableRecord
100
AcDbLayerTableRecord
  2
SCORE_OPTIONAL
 70
0
 62
5
  6
Continuous
370
-3
390
13
347
21
  0
ENDTAB
  0
TABLE
  2
STYLE
  5
5
330
0
100
AcDbSymbolTable
 70
1
  0
STYLE
  5
29
330
5
100
AcDbSymbolTableRecord
100
AcDbTextStyleTableRecord
  2
Standard
 70
0
 40
0.0
 41
1.0
 50
0.0
 71
0
 42
2.5
  3
txt
  4

  0
ENDTAB
  0
TABLE
  2
VIEW
  5
7
330
0
100
AcDbSymbolTable
 70
0
  0
ENDTAB
  0
TABLE
  2
UCS
  5
6
330
0
100
AcDbSymbolTable
 70
0
  0
ENDTAB
  0
TABLE
  2
APPID
  5
3
330
0
100
AcDbSymbolTable
 70
3
  0
APPID
  5
2A
330
3
100
AcDbSymbolTableRecord
100
AcDbRegAppTableRecord
  2
ACAD
 70
0
  0
APPID
  5
3D
330
3
100
AcDbSymbolTableRecord
100
AcDbRegAppTableRecord
  2
HATCHBACKGROUNDCOLOR
 70
0
  0
APPID
  5
3E
330
3
100
AcDbSymbolTableRecord
100
AcDbRegAppTableRecord
  2
EZDXF
 70
0
  0
ENDTAB
  0
TABLE
  2
DIMSTYLE
  5
4
330
0
100
AcDbSymbolTable
 70
1
100
AcDbDimStyleTable
  0
DIMSTYLE
105
2B
330
4
100
AcDbSymbolTableRecord
100
AcDbDimStyleTableRecord
  2
Standard
 70
0
 40
1.0
 41
2.5
 42
0.625
 43
3.75
 44
1.25
 45
0.0
 46
0.0
 47
0.0
 48
0.0
 49
2.5
140
2.5
141
2.5
142
0.0
143
0.03937007874
144
1.0
145
0.0
146
1.0
147
0.625
148
0.0
 69
0
 70
0
 71
0
 72
0
 73
0
 74
0
 75
0
 76
0
 77
1
 78
8
 79
3
170
0
171
3
172
1
173
0
174
0
175
0
176
0
177
0
178
0
179
2
271
2
272
2
273
2
274
3
275
0
276
0
277
2
278
44
279
0
280
0
281
0
282
0
283
0
284
8
285
0
286
0
288
0
289
3
290
0
371
-2
372
-2
  0
ENDTAB
  0
TABLE
  2
BLOCK_RECORD
  5
9
330
0
100
AcDbSymbolTable
 70
2
  0
BLOCK_RECORD
  5
17
330
9
100
AcDbSymbolTableRecord
100
AcDbBlockTableRecord
  2
*Model_Space
340
1A
 70
0
280
1
281
0
  0
BLOCK_RECORD
  5
1B
330
9
100
AcDbSymbolTableRecord
100
AcDbBlockTableRecord
  2
*Paper_Space
340
1E
 70
0
280
1
281
0
  0
ENDTAB
  0
ENDSEC
  0
SECTION
  2
BLOCKS
  0
BLOCK
  5
18
330
17
100
AcDbEntity
  8
0
100
AcDbBlockBegin
  2
*Model_Space
 70
0
 10
0.0
 20
0.0
 30
0.0
  3
*Model_Space
  1

  0
ENDBLK
  5
19
330
17
100
AcDbEntity
  8
0
100
AcDbBlockEnd
  0
BLOCK
  5
1C
330
1B
100
AcDbEntity
  8
0
100
AcDbBlockBegin
  2
*Paper_Space
 70
0
 10
0.0
 20
0.0
 30
0.0
  3
*Paper_Space
  1

  0
ENDBLK
  5
1D
330
1B
100
AcDbEntity
  8
0
100
AcDbBlockEnd
  0
ENDSEC
  0
SECTION
  2
ENTITIES
  0
LWPOLYLINE
  5
31
330
17
100
AcDbEntity
  8
CUT
100
AcDbPolyline
 90
194
 70
1
 10
30.71116912040861
 20
63.48300065237461
 10
29.67345064694296
 20
63.432020812825655
 10
28.637955794536456
 20
63.34711507184225
 10
27.605793397013368
 20
63.22837434861849
 10
26.578068719721816
 20
63.07592579369491
 10
25.555882275987937
 20
62.88993265280257
 10
24.540328648658654
 20
62.67059409205534
 10
23.53249531799497
 20
62.41814498467792
 10
22.533461497170826
 20
62.132855659497636
 10
21.54429697662463
 20
61.81503161146961
 10
20.566060978500843
 20
61.46501317454509
 10
19.599801022408407
 20
61.083175157233356
 10
18.646551803710473
 20
60.669926441247334
 10
17.707334085546712
 20
60.22570954366286
 10
16.783153605774586
 20
59.75100014306028
 10
15.875000000000007
 20
59.24630657015593
 10
14.983845741850818
 20
58.71216926346888
 10
14.11064510162764
 20
58.14916019060582
 10
13.256333124447284
 20
57.55788223578378
 10
12.42182462897313
 20
56.93896855424673
 10
11.60801322780426
 20
56.293081894266905
 10
10.815770370572825
 20
55.62091388745755
 10
10.045944410773842
 20
54.92318430815629
 10
9.29935969732712
 20
54.20064030267288
 10
8.576815691843727
 20
53.45405558922617
 10
7.8790861125424705
 20
52.68422962942719
 10
7.206918105733109
 20
51.89198677219575
 10
6.561031445753287
 20
51.07817537102689
 10
5.942117764216221
 20
50.24366687555272
 10
5.350839809394195
 20
49.389354898372375
 10
4.787830736531124
 20
48.516154258149186
 10
4.253693429844077
 20
47.625000000000014
 10
3.7489998569397294
 20
46.716846394225435
 10
3.2742904563371518
 20
45.7926659144533
 10
2.830073558752673
 20
44.85344819628954
 10
2.4168248427666477
 20
43.9001989775916
 10
2.034986825454915
 20
42.93393902149918
 10
1.6849683885303968
 20
41.955703023375385
 10
1.3671443405023744
 20
40.966538502829195
 10
1.081855015322084
 20
39.96750468200504
 10
0.8294059079446612
 20
38.95967135134137
 10
0.6100673471974325
 20
37.94411772401209
 10
0.42407420630509307
 20
36.9219312802782
 10
0.2716256513815196
 20
35.89420660298665
 10
0.15288492815775
 20
34.862044205463555
 10
0.06797918717434115
 20
33.82654935305706
 10
0.016999347625390016
 20
32.7888308795914
 10
0.0
 20
31.75
 10
0.016999347625390016
 20
30.71116912040862
 10
0.06797918717434115
 20
29.673450646942968
 10
0.15288492815774646
 20
28.637955794536467
 10
0.27162565138151606
 20
27.60579339701337
 10
0.4240742063050895
 20
26.578068719721827
 10
0.6100673471974289
 20
25.55588227598794
 10
0.8294059079446576
 20
24.540328648658658
 10
1.081855015322077
 20
23.53249531799498
 10
1.3671443405023673
 20
22.533461497170826
 10
1.6849683885303897
 20
21.544296976624636
 10
2.0349868254549044
 20
20.566060978500843
 10
2.4168248427666406
 20
19.599801022408414
 10
2.8300735587526624
 20
18.64655180371048
 10
3.2742904563371447
 20
17.70733408554672
 10
3.7489998569397187
 20
16.783153605774586
 10
4.253693429844066
 20
15.875000000000007
 10
4.7878307365311095
 20
14.983845741850828
 10
5.350839809394181
 20
14.11064510162764
 10
5.942117764216206
 20
13.256333124447295
 10
6.561031445753276
 20
12.421824628973127
 10
7.206918105733099
 20
11.608013227804264
 10
7.879086112542456
 20
10.815770370572821
 10
8.57681569184371
 20
10.045944410773842
 10
9.299359697327105
 20
9.299359697327134
 10
10.045944410773828
 20
8.576815691843727
 10
10.815770370572807
 20
7.879086112542467
 10
11.608013227804243
 20
7.206918105733109
 10
12.421824628973113
 20
6.561031445753287
 10
13.256333124447277
 20
5.942117764216221
 10
14.110645101627608
 20
5.350839809394202
 10
14.9838457418508
 20
4.787830736531134
 10
15.874999999999986
 20
4.253693429844077
 10
16.783153605774565
 20
3.748999856939733
 10
17.707334085546705
 20
3.274290456337148
 10
18.646551803710445
 20
2.83007355875268
 10
19.599801022408382
 20
2.4168248427666583
 10
20.566060978500822
 20
2.034986825454915
 10
21.544296976624615
 20
1.6849683885303932
 10
22.53346149717082
 20
1.3671443405023709
 10
23.532495317994943
 20
1.0818550153220912
 10
24.540328648658633
 20
0.8294059079446612
 10
25.555882275987916
 20
0.610067347197436
 10
26.5780687197218
 20
0.42407420630509307
 10
27.605793397013333
 20
0.2716256513815267
 10
28.637955794536428
 20
0.15288492815774646
 10
29.67345064694294
 20
0.0679791871743447
 10
30.711169120408595
 20
0.016999347625386463
 10
31.75
 20
0.0
 10
146.04999999999998
 20
0.0
 10
147.08883087959134
 20
0.016999347625386463
 10
148.12654935305702
 20
0.0679791871743376
 10
149.1620442054635
 20
0.15288492815774646
 10
150.1942066029866
 20
0.2716256513815125
 10
151.22193128027817
 20
0.42407420630509307
 10
152.24411772401203
 20
0.6100673471974289
 10
153.25967135134132
 20
0.829405907944647
 10
154.267504682005
 20
1.081855015322077
 10
155.26653850282915
 20
1.3671443405023638
 10
156.25570302337536
 20
1.6849683885303932
 10
157.2339390214991
 20
2.034986825454901
 10
158.20019897759155
 20
2.416824842766644
 10
159.1534481962895
 20
2.830073558752659
 10
160.09266591445328
 20
3.274290456337141
 10
161.01684639422538
 20
3.7489998569397116
 10
161.92499999999995
 20
4.253693429844063
 10
162.81615425814914
 20
4.787830736531106
 10
163.68935489837233
 20
5.350839809394181
 10
164.5436668755527
 20
5.9421177642162135
 10
165.37817537102683
 20
6.561031445753265
 10
166.19198677219572
 20
7.206918105733088
 10
166.98422962942715
 20
7.879086112542453
 10
167.75405558922614
 20
8.576815691843706
 10
168.50064030267285
 20
9.299359697327112
 10
169.22318430815625
 20
10.045944410773814
 10
169.92091388745752
 20
10.815770370572793
 10
170.59308189426687
 20
11.608013227804243
 10
171.2389685542467
 20
12.421824628973113
 10
171.85788223578376
 20
13.25633312444728
 10
172.44916019060577
 20
14.110645101627611
 10
173.01216926346885
 20
14.9838457418508
 10
173.5463065701559
 20
15.874999999999986
 10
174.05100014306026
 20
16.783153605774565
 10
174.52570954366283
 20
17.707334085546677
 10
174.9699264412473
 20
18.646551803710445
 10
175.38317515723332
 20
19.59980102240838
 10
175.76501317454506
 20
20.566060978500822
 10
176.1150316114696
 20
21.544296976624608
 10
176.4328556594976
 20
22.53346149717079
 10
176.7181449846779
 20
23.532495317994943
 10
176.9705940920553
 20
24.54032864865863
 10
177.18993265280255
 20
25.555882275987912
 10
177.37592579369488
 20
26.5780687197218
 10
177.52837434861846
 20
27.60579339701333
 10
177.64711507184222
 20
28.637955794536424
 10
177.73202081282565
 20
29.67345064694294
 10
177.7830006523746
 20
30.71116912040859
 10
177.79999999999998
 20
31.75
 10
177.7830006523746
 20
32.78883087959139
 10
177.73202081282565
 20
33.82654935305705
 10
177.64711507184222
 20
34.86204420546355
 10
177.52837434861846
 20
35.894206602986635
 10
177.37592579369488
 20
36.92193128027819
 10
177.18993265280255
 20
37.944117724012074
 10
176.97059409205534
 20
38.95967135134135
 10
176.7181449846779
 20
39.967504682005035
 10
176.43285565949762
 20
40.96653850282918
 10
176.1150316114696
 20
41.95570302337538
 10
175.76501317454506
 20
42.933939021499164
 10
175.38317515723332
 20
43.9001989775916
 10
174.9699264412473
 20
44.853448196289534
 10
174.52570954366283
 20
45.79266591445329
 10
174.05100014306026
 20
46.71684639422543
 10
173.5463065701559
 20
47.625
 10
173.01216926346888
 20
48.51615425814918
 10
172.4491601906058
 20
49.38935489837237
 10
171.85788223578376
 20
50.24366687555272
 10
171.2389685542467
 20
51.07817537102687
 10
170.59308189426687
 20
51.89198677219574
 10
169.92091388745752
 20
52.684229629427186
 10
169.22318430815628
 20
53.45405558922616
 10
168.50064030267288
 20
54.20064030267288
 10
167.75405558922614
 20
54.92318430815628
 10
166.98422962942718
 20
55.62091388745753
 10
166.19198677219572
 20
56.2930818942669
 10
165.37817537102686
 20
56.93896855424671
 10
164.5436668755527
 20
57.55788223578378
 10
163.68935489837236
 20
58.14916019060581
 10
162.81615425814917
 20
58.71216926346888
 10
161.92499999999998
 20
59.24630657015592
 10
161.0168463942254
 20
59.75100014306027
 10
160.09266591445328
 20
60.22570954366285
 10
159.15344819628953
 20
60.66992644124733
 10
158.20019897759158
 20
61.083175157233356
 10
157.23393902149914
 20
61.46501317454509
 10
156.25570302337536
 20
61.81503161146961
 10
155.26653850282918
 20
62.13285565949763
 10
154.267504682005
 20
62.418144984677916
 10
153.25967135134135
 20
62.67059409205534
 10
152.24411772401206
 20
62.88993265280257
 10
151.22193128027817
 20
63.07592579369491
 10
150.1942066029866
 20
63.22837434861848
 10
149.16204420546353
 20
63.34711507184225
 10
148.12654935305704
 20
63.432020812825655
 10
147.08883087959137
 20
63.48300065237461
 10
146.04999999999998
 20
63.5
 10
31.75
 20
63.5
  0
LWPOLYLINE
  5
32
330
17
100
AcDbEntity
  8
CUT
100
AcDbPolyline
 90
115
 70
1
 10
153.83981285259676
 20
28.179024456115826
 10
153.9610719204803
 20
28.81422320272022
 10
154.01526353215007
 20
29.0177097552724
 10
154.1350897793826
 20
29.3526876216731
 10
154.29341616324626
 20
29.671190544459478
 10
154.39606994321755
 20
29.83474009555713
 10
154.60618077604366
 20
30.10450424208524
 10
154.84738908652903
 20
30.3433944122217
 10
155.1180329185467
 20
30.553246051848113
 10
155.4036588523439
 20
30.729321756863136
 10
155.72867936302706
 20
30.889876279584442
 10
156.07672192367565
 20
31.028068973358117
 10
156.44476147624238
 20
31.146746791667887
 10
156.83540940402688
 20
31.250370228884854
 10
157.43127248011157
 20
31.378451353696455
 10
158.68013624698563
 20
31.59168563946978
 10
158.54166599841292
 20
30.541380648304923
 10
158.44215413264553
 20
29.934552640963666
 10
158.31540505902146
 20
29.349696946091576
 10
158.1784784052686
 20
28.87899487037435
 10
158.15971619303136
 20
28.762629006902166
 10
158.1640652971589
 20
28.644840552107347
 10
158.20539681305723
 20
28.4934190297119
 10
158.28458587222033
 20
28.35789831336244
 10
158.39621313362636
 20
28.247552827899746
 10
158.4966951365271
 20
28.18593787936679
 10
158.64566316674077
 20
28.13648792865633
 10
158.76304476684217
 20
28.1257830350419
 10
158.88025416979298
 20
28.138232559112367
 10
159.02847025454935
 20
28.18989263915976
 10
159.45272478330514
 20
28.42548467109829
 10
159.8517067487044
 20
28.595782691763837
 10
160.25095035338165
 20
28.714291611163603
 10
160.65064693630663
 20
28.78187082864021
 10
160.8688650827929
 20
28.79773643320602
 10
161.25119008101115
 20
28.790932047301354
 10
161.46788135508314
 20
28.768220480771426
 10
161.85262856516187
 20
28.696012932048838
 10
162.25378303443594
 20
28.58015050412515
 10
162.65491847801349
 20
28.426726974391464
 10
163.05595449044282
 20
28.2401256949341
 10
163.45686291794573
 20
28.02506812966675
 10
164.2611758383886
 20
27.52771056564827
 10
165.45922437934738
 20
26.700551134878097
 10
164.2612010585424
 20
25.87340833657519
 10
163.45686291794573
 20
25.376034140089445
 10
163.05595449044282
 20
25.160976574822094
 10
162.65491847801349
 20
24.97437529536473
 10
162.25378303443594
 20
24.820951765631044
 10
161.85262856516187
 20
24.705089337707356
 10
161.46788135508314
 20
24.63288178898477
 10
161.25119008101115
 20
24.61017022245484
 10
160.8688650827929
 20
24.603365836550175
 10
160.65064693630663
 20
24.619231441115986
 10
160.25095035338165
 20
24.68681065859259
 10
159.8517067487044
 20
24.805319577992357
 10
159.45272478330514
 20
24.975617598657905
 10
159.02847025454935
 20
25.211209630596436
 10
158.88025416979298
 20
25.262869710643827
 10
158.76304476684217
 20
25.275319234714296
 10
158.64566316674077
 20
25.264614341099865
 10
158.4966951365271
 20
25.215164390389404
 10
158.39621313362636
 20
25.15354944185645
 10
158.28458587222033
 20
25.043203956393754
 10
158.20539681305723
 20
24.907683240044292
 10
158.1640652971589
 20
24.756261717648847
 10
158.15971619303136
 20
24.638473262854028
 10
158.1784784052686
 20
24.522107399381845
 10
158.31540505902146
 20
24.051405323664618
 10
158.44215413264553
 20
23.466549628792528
 10
158.57180277823443
 20
22.64708519162506
 10
158.67067554700608
 20
21.810639424761696
 10
157.23223584491927
 20
22.06230798724296
 10
156.4447614762421
 20
22.2543554780884
 10
156.07672192367565
 20
22.373033296398077
 10
155.72867936302706
 20
22.511225990171752
 10
155.4036588523439
 20
22.671780512893058
 10
155.10448263240102
 20
22.85724432165574
 10
154.83368311400784
 20
23.069777343601842
 10
154.60618077604366
 20
23.296598027670953
 10
154.4851803341509
 20
23.44299583334012
 10
154.3031291425409
 20
23.713269309389695
 10
154.14221174605223
 20
24.03171939307485
 10
154.01526353215007
 20
24.383392514483795
 10
153.92274745532438
 20
24.768377157226766
 10
153.87257744378928
 20
25.10760718920575
 10
153.83981285259676
 20
25.222077813640368
 10
153.78508930959347
 20
25.327824568368975
 10
153.71056186473402
 20
25.420683075018538
 10
153.61916545895696
 20
25.496996503099695
 10
153.5144993442352
 20
25.553759578452606
 10
153.40068534261104
 20
25.588736932966043
 10
153.2822055260698
 20
25.600551134878096
 10
149.68281426528964
 20
25.600551134878096
 10
149.47542118584954
 20
25.61952610785299
 10
149.24118399733192
 20
25.690581182167335
 10
149.07695716485165
 20
25.778362252949975
 10
148.97773285025772
 20
25.850379368041516
 10
148.89268831935152
 20
25.928189652459373
 10
148.76522063271153
 20
26.083509478028738
 10
148.6593503055431
 20
26.279668534368056
 10
148.60016587658833
 20
26.47166402225922
 10
148.5761735141389
 20
26.68583970354738
 10
148.59442576083688
 20
26.900580736890362
 10
148.6593503055431
 20
27.121433735388138
 10
148.76098451345754
 20
27.31157796453264
 10
148.8977611474589
 20
27.47824077528132
 10
149.07695716485173
 20
27.62274001680627
 10
149.2683671779335
 20
27.721780729662477
 10
149.47542118584954
 20
27.781576161903203
 10
149.68281426528964
 20
27.8005511348781
 10
153.36148211639468
 20
27.805811509305315
 10
153.5506170731417
 20
27.863936523263334
 10
153.65129529401642
 20
27.927504896972003
 10
153.73743851141714
 20
28.00970214990855
  0
LWPOLYLINE
  5
33
330
17
100
AcDbEntity
  8
CUT
100
AcDbPolyline
 90
92
 70
1
 10
133.05685583711758
 20
17.887751391015954
 10
133.55762454449567
 20
18.03298549691379
 10
134.0545836544081
 20
18.24736853524046
 10
134.46684147890053
 20
18.48827199224513
 10
134.9063096097178
 20
18.82128859528011
 10
135.32254179868272
 20
19.223496568804407
 10
135.64687007975013
 20
19.609009873685785
 10
135.99606083550077
 20
20.116482955042493
 10
136.3087545297886
 20
20.68032597949191
 10
136.5890738076585
 20
21.31022029423505
 10
136.83093167439236
 20
21.9941904978402
 10
137.0005949170224
 20
22.598063671648113
 10
137.16748039486473
 20
23.368901517918317
 10
137.27543616548246
 20
24.04581389596074
 10
137.36970722657477
 20
24.915739696157893
 10
137.41647662015555
 20
25.66281583716038
 10
137.43697728777545
 20
26.631827761013653
 10
137.42365462054494
 20
27.413735172333986
 10
137.38359167174366
 20
28.16519311255106
 10
137.29771713822015
 20
29.042781265233813
 10
137.1980882472265
 20
29.718999614988142
 10
137.07111759292548
 20
30.364240290122837
 10
136.91735630121073
 20
30.97484591815131
 10
136.7380535396723
 20
31.54780610463386
 10
136.4862999405904
 20
32.19730907439778
 10
136.18626776157055
 20
32.815132870962614
 10
135.85073820331306
 20
33.368012654918765
 10
135.48083889164167
 20
33.85721941022958
 10
135.25305909569175
 20
34.11018287458647
 10
135.0065534661264
 20
34.34996784006411
 10
134.55382238043236
 20
34.71247403147572
 10
134.0725126638111
 20
35.003367766472294
 10
133.55762454449516
 20
35.226916668815186
 10
133.04778072496003
 20
35.37452362253494
 10
133.0477832259476
 20
36.874324654080404
 10
134.174148346977
 20
36.77769244190854
 10
134.86856387506825
 20
36.679712300056856
 10
135.32801056249
 20
36.59717417942919
 10
135.9836690798848
 20
36.45270971905665
 10
136.41182058505484
 20
36.33998685688458
 10
136.83594685288608
 20
36.212748738586484
 10
137.43747824353207
 20
36.00337343241073
 10
137.83622979417058
 20
35.84410752549293
 10
138.3990089493124
 20
35.58865811428204
 10
138.76978449913594
 20
35.39912852569147
 10
139.2867850880548
 20
35.103015494517535
 10
139.77869616569347
 20
34.78144355211367
 10
140.09938215745098
 20
34.54752340713868
 10
140.54137079214755
 20
34.18821537386711
 10
140.83279885049524
 20
33.924213016644515
 10
141.2259072558283
 20
33.527401651580504
 10
141.4831508557009
 20
33.2379156223007
 10
141.8322806748126
 20
32.79894309178752
 10
142.05747881399756
 20
32.48193715808267
 10
142.3600080676615
 20
32.00326239547193
 10
142.55143221229474
 20
31.659487862979837
 10
142.80173204720376
 20
31.143970930998044
 10
142.95621035411227
 20
30.77552480432462
 10
143.15345702504055
 20
30.223263464126376
 10
143.2709837144667
 20
29.830435932279485
 10
143.37252942731243
 20
29.431625290599435
 10
143.4951720276336
 20
28.82764186779721
 10
143.56094544951964
 20
28.401158033848816
 10
143.6303321811116
 20
27.759969593364836
 10
143.65947019407946
 20
27.30956721799805
 10
143.67544667317105
 20
26.631085553065454
 10
143.65929916438355
 20
25.95210812751754
 10
143.62999189469417
 20
25.50470543849613
 10
143.56039866336116
 20
24.867280934922604
 10
143.45786578428394
 20
24.244460099636484
 10
143.36980786336792
 20
23.833748155620484
 10
143.21390160432094
 20
23.249557297755103
 10
143.02744232741713
 20
22.690285033665162
 10
142.87930762712324
 20
22.313741655419484
 10
142.64102518263903
 20
21.79253076110706
 10
142.45560644602648
 20
21.439573581650684
 10
142.16293725008788
 20
20.950380401956757
 10
141.83714640571722
 20
20.477857640380023
 10
141.4831498251155
 20
20.02993471169315
 10
141.10320228674485
 20
19.608982902164342
 10
140.8245523234747
 20
19.332480962401327
 10
140.39506921893596
 20
18.95065158410018
 10
139.78121333946578
 20
18.481653120442715
 10
139.1179629878028
 20
18.056257468921167
 10
138.40143180704274
 20
17.672444658227477
 10
137.825944824656
 20
17.4114684570864
 10
137.0373038940646
 20
17.113306837607816
 10
136.20135437389516
 20
16.862602200442176
 10
135.32448923107927
 20
16.662029101399483
 10
134.63449565836933
 20
16.54369156870358
 10
133.9272493945761
 20
16.454629257764694
 10
133.04778727618262
 20
16.385573684564648
  0
LWPOLYLINE
  5
34
330
17
100
AcDbEntity
  8
CUT
100
AcDbPolyline
 90
64
 70
1
 10
142.19424615176177
 20
53.16840025219504
 10
142.19874178594517
 20
52.92311048387893
 10
142.17917317077863
 20
52.67856120363377
 10
142.13572876272357
 20
52.437107554715006
 10
142.06882695517913
 20
52.20107486775389
 10
141.97911204912356
 20
51.972736266552005
 10
141.86744804814532
 20
51.7542907766622
 10
141.73491033761604
 20
51.54784214756759
 10
141.5827753281403
 20
51.35537859242197
 10
141.41250816302522
 20
51.178753640473175
 10
141.2257486081471
 20
51.019668286560304
 10
141.02429526011403
 20
50.879654609607826
 10
140.81008822479322
 20
50.76006101786385
 10
140.58519043303093
 20
50.662039262992586
 10
140.35176777350415
 20
50.58653334807807
 10
140.11206823402637
 20
50.53427043635678
 10
139.8684002521955
 20
50.50575384823826
 10
139.62311048387915
 20
50.50125821405482
 10
139.3785612036349
 20
50.52082682922125
 10
139.1371075547162
 20
50.56427123727616
 10
138.9010748677538
 20
50.63117304482088
 10
138.6727362665512
 20
50.72088795087678
 10
138.45429077666225
 20
50.83255195185465
 10
138.24784214756696
 20
50.96508966238437
 10
138.0553785924222
 20
51.11722467185948
 10
137.87875364047267
 20
51.2874918369753
 10
137.71966828656042
 20
51.47425139185276
 10
137.5796546096085
 20
51.67570473988492
 10
137.46006101786347
 20
51.8899117752075
 10
137.36203926299265
 20
52.114809566968866
 10
137.2865333480783
 20
52.3482322264949
 10
137.2342704363568
 20
52.58793176597328
 10
137.2057538482382
 20
52.83159974780496
 10
137.2012582140548
 20
53.07688951612107
 10
137.22082682922135
 20
53.32143879636617
 10
137.2642712372764
 20
53.562892445284994
 10
137.33117304482113
 20
53.798925132246964
 10
137.42088795087642
 20
54.027263733447995
 10
137.53255195185451
 20
54.24570922333754
 10
137.66508966238393
 20
54.45215785243241
 10
137.81722467185995
 20
54.64462140757831
 10
137.98749183697515
 20
54.821246359527215
 10
138.17425139185227
 20
54.98033171343921
 10
138.37570473988583
 20
55.120345390392096
 10
138.58991177520727
 20
55.23993898213642
 10
138.81480956696905
 20
55.337960737007414
 10
139.04823222649537
 20
55.413466651921794
 10
139.28793176597355
 20
55.46572956364321
 10
139.53159974780448
 20
55.49424615176174
 10
139.77688951612083
 20
55.49874178594518
 10
140.02143879636512
 20
55.47917317077874
 10
140.26289244528394
 20
55.43572876272381
 10
140.4989251322463
 20
55.368826955179074
 10
140.72726373344852
 20
55.27911204912334
 10
140.94570922333773
 20
55.16744804814535
 10
141.15215785243248
 20
55.034910337616
 10
141.3446214075778
 20
54.88277532814052
 10
141.52124635952705
 20
54.71250816302497
 10
141.68033171343956
 20
54.52574860814724
 10
141.82034539039148
 20
54.32429526011508
 10
141.93993898213608
 20
54.11008822479332
 10
142.03796073700735
 20
53.885190433031084
 10
142.11346665192167
 20
53.6517677735051
 10
142.1657295636432
 20
53.41206823402655
  0
LWPOLYLINE
  5
35
330
17
100
AcDbEntity
  8
CUT
100
AcDbPolyline
 90
94
 70
1
 10
129.9335573189649
 20
36.80473305566839
 10
130.84517225737244
 20
36.87590110682357
 10
130.84518765152802
 20
35.377377780629374
 10
130.32844201942677
 20
35.22689846553001
 10
129.81773043888032
 20
35.00337161845163
 10
129.33878373784663
 20
34.71251028060183
 10
128.89958659441012
 20
34.36179189546269
 10
128.48626126960352
 20
33.94300871577538
 10
128.1044731847394
 20
33.457955630235524
 10
127.76615182171072
 20
32.922050595361924
 10
127.46258102886758
 20
32.323117029176075
 10
127.19997596171564
 20
31.674960490274344
 10
126.9728893581811
 20
30.9646671743102
 10
126.78682465910161
 20
30.201787428447
 10
126.64285936513643
 20
29.391783676248338
 10
126.53917617790914
 20
28.523985221604832
 10
126.4769403788554
 20
27.60399570410587
 10
126.45614345864422
 20
26.62807440471512
 10
126.47694037885552
 20
25.655906461620603
 10
126.52304207135575
 20
24.920244046940276
 10
126.59540360819936
 20
24.21712090049615
 10
126.69443798565779
 20
23.544430153206804
 10
126.78879452446954
 20
23.04878844571651
 10
126.9339668323411
 20
22.437626306992037
 10
127.10439245887692
 20
21.862495471549863
 10
127.30143034794492
 20
21.31681496064367
 10
127.52201025718952
 20
20.808629617940838
 10
127.8308692908033
 20
20.225999224933865
 10
128.1765591366907
 20
19.70177052531392
 10
128.55911965714117
 20
19.235895327495896
 10
128.9730421709916
 20
18.833205732770146
 10
129.4255165258625
 20
18.488205637883866
 10
129.83552850298273
 20
18.24737159934533
 10
130.32844201942663
 20
18.033003700198833
 10
130.8451799517054
 20
17.88253406699353
 10
130.84517630796546
 20
16.38400488618602
 10
129.69219079379363
 20
16.48221195296083
 10
128.99892490483825
 20
16.5801890530648
 10
128.54615208837785
 20
16.661594662956745
 10
128.09783122860915
 20
16.756894468052337
 10
127.45957794371579
 20
16.919912594289976
 10
126.63063761437242
 20
17.185227070273157
 10
126.04721777912138
 20
17.413091474390995
 10
125.66697773259173
 20
17.58219948198939
 10
125.29188649529276
 20
17.76618974508682
 10
124.76810368155044
 20
18.054355889760572
 10
124.42458554782858
 20
18.265752731259944
 10
123.9472818485994
 20
18.59351666321887
 10
123.63420044644512
 20
18.8331731388485
 10
123.20313835125697
 20
19.20059507662922
 10
122.921398619644
 20
19.46804649504908
 10
122.53633447493054
 20
19.875221607891007
 10
122.28616379261001
 20
20.17031176381061
 10
121.9487618452481
 20
20.61480176755883
 10
121.72845160658775
 20
20.93992400680282
 10
121.43757161130162
 20
21.423584284430156
 10
121.0880194526206
 20
22.123457800071314
 10
120.86954919866942
 20
22.66098727919934
 10
120.73724751583187
 20
23.04409452543431
 10
120.57185642459561
 20
23.618530155856625
 10
120.47722514009409
 20
24.02233702058514
 10
120.39675415516167
 20
24.439225825034818
 10
120.30604719490147
 20
25.06551616056133
 10
120.23365055234017
 20
25.950334947732017
 10
120.2194099901306
 20
26.404097913091142
 10
120.22483963014889
 20
27.083808754959357
 10
120.24682931189695
 20
27.535779537264844
 10
120.30574324426398
 20
28.180335345435793
 10
120.36438051669516
 20
28.609432671470316
 10
120.47663147599616
 20
29.218370483810602
 10
120.68011693920317
 20
30.013288156172393
 10
120.86567841900225
 20
30.56961713206288
 10
121.01254834374627
 20
30.94318306127684
 10
121.17249688316231
 20
31.302873109973667
 10
121.43346994468644
 20
31.81306515684633
 10
121.63209929541233
 20
32.15343428157877
 10
121.94409172562806
 20
32.627283490484636
 10
122.28616800962203
 20
33.08085806422783
 10
122.53850681588389
 20
33.379925274031024
 10
122.92139168573486
 20
33.786626985873454
 10
123.20314391488317
 20
34.055267786411534
 10
123.63418180422636
 20
34.42410842784027
 10
123.94729225421061
 20
34.6645965332406
 10
124.424556905162
 20
34.99324121018333
 10
124.76563619926762
 20
35.20364237384845
 10
125.29568565646402
 20
35.495606661635485
 10
125.67086689042299
 20
35.679504781420945
 10
126.23872266099568
 20
35.92566312910437
 10
126.63450966325068
 20
36.07608100867371
 10
127.04691734267816
 20
36.215951534646706
 10
127.66936433121421
 20
36.397296948907496
 10
128.1073822585895
 20
36.50519758980241
 10
128.76904995573904
 20
36.64018169167272
 10
129.23258964795883
 20
36.71621368138436
  0
LWPOLYLINE
  5
36
330
17
100
AcDbEntity
  8
CUT
100
AcDbPolyline
 90
64
 70
1
 10
99.95236254741505
 20
36.50921088527099
 10
110.08498864153967
 20
36.50921257245892
 10
110.0849903287276
 20
36.22830912953333
 10
109.55784713252406
 20
36.22101290130584
 10
109.21518743153248
 20
36.15906011685798
 10
109.03161638857287
 20
36.09435474831088
 10
108.86835743365005
 20
36.0148685836627
 10
108.70125136001445
 20
35.90878276320051
 10
108.54853263921596
 20
35.786387048768006
 10
108.3003616939953
 20
35.522900728570036
 10
108.12170105985564
 20
35.24948989201498
 10
107.99355141611728
 20
34.940472654983886
 10
107.92458875992752
 20
34.609795938335324
 10
107.91209068376733
 20
34.42260537469946
 10
107.91209068376733
 20
18.949468368213005
 10
107.94619132481297
 20
18.717366605730362
 10
108.05563467128668
 20
18.49904485031884
 10
108.22148551915423
 20
18.333194002451222
 10
108.43980727456533
 20
18.223750655977526
 10
108.67190903704854
 20
18.189650014931672
 10
111.47225912846486
 20
18.190356162245507
 10
111.96523291381014
 20
18.21846003638536
 10
112.4242898569816
 20
18.28408274384116
 10
112.87657337618626
 20
18.38892966911319
 10
113.31706897493345
 20
18.532460763720835
 10
113.74578600965263
 20
18.714655074462556
 10
114.31638783840016
 20
19.028481673872783
 10
114.85367206301981
 20
19.410045853027484
 10
115.30010835683586
 20
19.804220219846975
 10
115.77108567519211
 20
20.313744998053167
 10
116.02120667069532
 20
20.631871070681186
 10
116.2571733078276
 20
20.97282308036359
 10
116.4713904830459
 20
21.326880954812303
 10
116.66903683782863
 20
21.70194871371944
 10
116.97927574562625
 20
22.42412643229857
 10
117.12462110370275
 20
22.84608594890021
 10
117.25623112924347
 20
23.298298953056964
 10
117.53714974882872
 20
23.298289762681975
 10
116.4647471291488
 20
16.750666812058526
 10
99.95236423460298
 20
16.75068959326987
 10
99.95236254741505
 20
17.031593036195467
 10
100.46744272296367
 20
17.03793960064491
 10
100.80950843296229
 20
17.097255898658766
 10
100.99344447544006
 20
17.160437282941395
 10
101.16134843629861
 20
17.240812581242878
 10
101.31261124020897
 20
17.334562379884893
 10
101.47096691227559
 20
17.45782381578865
 10
101.7175170354572
 20
17.712620048028967
 10
101.91173491110861
 20
18.003064606924994
 10
102.0401022014105
 20
18.307530760856835
 10
102.11184113432404
 20
18.642456957990632
 10
102.12526219237532
 20
18.83729679102934
 10
102.12526219237532
 20
34.42260537469946
 10
102.08146237583543
 20
34.79699708702076
 10
101.97087248007199
 20
35.135946197243726
 10
101.78403314948143
 20
35.46050625640147
 10
101.54132941544275
 20
35.73796730921441
 10
101.3765483051818
 20
35.878898653306784
 10
101.21156687528456
 20
35.99036386643543
 10
101.03811989222187
 20
36.080326932848706
 10
100.8562770895109
 20
36.14885345973794
 10
100.67864167168838
 20
36.19362333459166
 10
100.48754374324511
 20
36.220325705600246
 10
99.95236423460298
 20
36.2283074423454
  0
LWPOLYLINE
  5
37
330
17
100
AcDbEntity
  8
CUT
100
AcDbPolyline
 90
64
 70
1
 10
80.30828239002727
 20
36.50921088527099
 10
90.44090848415193
 20
36.50921257245892
 10
90.44091017133985
 20
36.22830912953333
 10
89.91376697513661
 20
36.22101290130587
 10
89.5711072741447
 20
36.15906011685797
 10
89.38753623118554
 20
36.09435474831106
 10
89.2242772762618
 20
36.01486858366243
 10
89.0571712026267
 20
35.90878276320051
 10
88.90445248182827
 20
35.78638704876805
 10
88.65628153660784
 20
35.52290072857044
 10
88.47762090246805
 20
35.249489892015276
 10
88.34947125872955
 20
34.94047265498405
 10
88.28050860253983
 20
34.60979593833588
 10
88.26801052637956
 20
34.422605374699344
 10
88.26801052637956
 20
18.949468368213005
 10
88.30211116742538
 20
18.7173666057298
 10
88.41155451389889
 20
18.49904485031889
 10
88.57740536176664
 20
18.3331940024511
 10
88.79572711717773
 20
18.223750655977483
 10
89.02782887966076
 20
18.189650014931672
 10
91.82817897107715
 20
18.190356162245507
 10
92.32115275642226
 20
18.218460036385345
 10
92.78020969959474
 20
18.28408274384134
 10
93.2324932187989
 20
18.388929669113303
 10
93.67298881754542
 20
18.532460763720728
 10
94.1017058522655
 20
18.71465507446286
 10
94.67230768101248
 20
19.028481673872832
 10
95.20959190563204
 20
19.410045853027455
 10
95.65602819944787
 20
19.80422021984679
 10
96.12700551780266
 20
20.31374499805115
 10
96.37712651330715
 20
20.631871070680617
 10
96.61309315044033
 20
20.972823080364364
 10
96.82731032565692
 20
21.32688095481017
 10
97.0249566804404
 20
21.7019487137185
 10
97.33519558823873
 20
22.424126432299254
 10
97.48054094631497
 20
22.84608594890021
 10
97.61215097185571
 20
23.298298953056964
 10
97.89306959144098
 20
23.298289762681968
 10
96.82066697176107
 20
16.750666812058526
 10
80.30828407721519
 20
16.750689593269882
 10
80.30828239002727
 20
17.03159303619546
 10
80.82336256557608
 20
17.037939600644926
 10
81.1654282755751
 20
17.097255898658915
 10
81.34936431805247
 20
17.160437282941466
 10
81.51726827891052
 20
17.2408125812427
 10
81.66853108282126
 20
17.334562379884936
 10
81.82688675488832
 20
17.45782381578907
 10
82.07343687806973
 20
17.712620048029322
 10
82.26765475372049
 20
18.003064606924298
 10
82.39602204402291
 20
18.30753076085732
 10
82.4677609769361
 20
18.642456957989175
 10
82.48118203498757
 20
18.837296791029452
 10
82.48118203498757
 20
34.42260537469935
 10
82.43738221844757
 20
34.79699708702119
 10
82.32679232268457
 20
35.1359461972429
 10
82.13995299209398
 20
35.46050625640103
 10
81.89724925805483
 20
35.73796730921454
 10
81.73246814779314
 20
35.878898653307445
 10
81.5674867178968
 20
35.99036386643542
 10
81.39403973483405
 20
36.080326932848735
 10
81.21219693212313
 20
36.14885345973795
 10
81.03456151430073
 20
36.19362333459164
 10
80.8434635858572
 20
36.22032570560026
 10
80.30828407721518
 20
36.228307442345404
  0
LWPOLYLINE
  5
38
330
17
100
AcDbEntity
  8
CUT
100
AcDbPolyline
 90
129
 70
1
 10
60.68952238262511
 20
36.50921088527099
 10
73.42461178467825
 20
36.51521335389782
 10
74.22848855685936
 20
36.572411208806614
 10
75.22552041910775
 20
36.70785616580389
 10
76.0528348321423
 20
36.8648750030621
 10
76.3330075321757
 20
36.93872957699132
 10
76.55252464110896
 20
37.016968978509354
 10
76.55252179199904
 20
31.203648293105154
 10
76.27161824121848
 20
31.203648185250167
 10
76.25080498078952
 20
31.903381169518507
 10
76.21169458926934
 20
32.22604542667891
 10
76.15154079637408
 20
32.53501529188681
 10
75.98971637503787
 20
33.055082591744124
 10
75.87110200325505
 20
33.32077932398077
 10
75.73456994830512
 20
33.56635848821755
 10
75.44777878646495
 20
33.960332587494854
 10
75.14006601582355
 20
34.26870059090979
 10
74.78528957261778
 20
34.53039481746328
 10
74.35653867840533
 20
34.757366788192904
 10
74.09707784269577
 20
34.85881749333696
 10
73.77046699409095
 20
34.9560399514171
 10
73.48230212284857
 20
35.01794340557435
 10
73.12589581933617
 20
35.067706047398545
 10
69.38943742256546
 20
35.06993090328295
 10
69.18634004537479
 20
35.03899475868101
 10
68.99925284479984
 20
34.95422665092309
 10
68.82290993189278
 20
34.79957806688802
 10
68.71444724714365
 20
34.625155881576546
 10
68.66812178296908
 20
34.485698751065186
 10
68.6492505189774
 20
34.3104337975158
 10
68.650213659428
 20
27.915098818941367
 10
68.68050791109366
 20
27.731609242567885
 10
68.74047230734499
 20
27.586842383878526
 10
68.8487977602919
 20
27.43567438936431
 10
68.9992528447998
 20
27.310545216045007
 10
69.17696710977559
 20
27.22862035721674
 10
69.36982962174791
 20
27.19548285662154
 10
71.8326999419008
 20
27.19831453793227
 10
72.19126592666194
 20
27.232548677544422
 10
72.53830674781229
 20
27.301809705031935
 10
72.85471316199822
 20
27.401161649290643
 10
73.16483579692694
 20
27.53812270807955
 10
73.47456681892211
 20
27.721781073718184
 10
73.79598848071105
 20
27.973140533119626
 10
74.0582140165689
 20
28.236488458013532
 10
74.30516416958372
 20
28.557996850276048
 10
74.51858829792756
 20
28.945610567227632
 10
74.6083999182261
 20
29.171512331903187
 10
74.67799409316234
 20
29.403234388763465
 10
74.75741163134443
 20
29.85431066802728
 10
74.77550978362322
 20
30.411869645560387
 10
75.05641333440379
 20
30.411869753415374
 10
75.0571045070066
 20
22.58221761609162
 10
75.04784677489307
 20
22.565186591717747
 10
74.77551147081114
 20
22.565746516327202
 10
74.75578176845835
 20
23.08903957753585
 10
74.66648936917733
 20
23.588263724545776
 10
74.52137953040825
 20
24.008276780404017
 10
74.41566747319317
 20
24.225370280749793
 10
74.29407428091832
 20
24.428636909694085
 10
74.07857500782666
 20
24.715443922517082
 10
73.79302424165965
 20
25.008384811863195
 10
73.51105166503577
 20
25.233212740684955
 10
73.17123877962815
 20
25.4387390785999
 10
72.86365195160184
 20
25.575000953689113
 10
72.5446833848763
 20
25.675258665098504
 10
72.25998294921592
 20
25.734839884744254
 10
71.90085435714843
 20
25.775513599530484
 10
69.38943742256563
 20
25.782776885390412
 10
69.22426509390682
 20
25.762002726915547
 10
69.04157318668538
 20
25.691876344537214
 10
68.89040519217053
 20
25.583550891589866
 10
68.7652760188515
 20
25.43309580708221
 10
68.68335116002334
 20
25.255381542106804
 10
68.650213659428
 20
25.062519030134162
 10
68.64957176649158
 20
18.92983691851979
 10
68.66046197128469
 20
18.812711888446742
 10
68.69942198604195
 20
18.671020473282198
 10
68.7652760188515
 20
18.539652340754053
 10
68.8554933361643
 20
18.423655894522753
 10
68.96660693706907
 20
18.327488812966912
 10
69.09434678819804
 20
18.254846743097907
 10
69.22426509390733
 20
18.21074542092059
 10
69.36982962174791
 20
18.190613155382273
 10
72.12555680376109
 20
18.189683763797568
 10
72.68985402340243
 20
18.217199121136794
 10
73.14872694729691
 20
18.28174075159376
 10
73.52927627774645
 20
18.36619663549122
 10
73.96707240429915
 20
18.500660880442673
 10
74.39111935179375
 20
18.67192835328465
 10
74.97323632605193
 20
18.979023874180953
 10
75.51958417763367
 20
19.354003239264678
 10
76.02896302454523
 20
19.79613789769605
 10
76.50132342474144
 20
20.30543296726764
 10
76.75836650590499
 20
20.631871070680617
 10
76.98801682441484
 20
20.963105301048508
 10
77.1614785452992
 20
21.24490568206592
 10
77.36487397653717
 20
21.61904041433891
 10
77.54819187976007
 20
22.0082728619168
 10
77.71505063204992
 20
22.420388969119138
 10
77.86178093891283
 20
22.84608594890021
 10
77.99339096445352
 20
23.298298953056964
 10
78.2743095840388
 20
23.298289762681968
 10
77.2019069643589
 20
16.750666812058526
 10
60.68952406981304
 20
16.750689593269875
 10
60.68952238262511
 20
17.03159303619546
 10
61.20460255817366
 20
17.037939600644904
 10
61.546668268172716
 20
17.097255898658858
 10
61.730604310650385
 20
17.160437282941494
 10
61.89850827150836
 20
17.2408125812427
 10
62.049771075419216
 20
17.334562379885014
 10
62.208126747486006
 20
17.457823815788934
 10
62.45467687066768
 20
17.71262004802947
 10
62.64889474631844
 20
18.00306460692451
 10
62.777262036620655
 20
18.307530760857006
 10
62.84900096953396
 20
18.64245695798933
 10
62.8624220275854
 20
18.83729679102928
 10
62.8624220275854
 20
34.422605374699515
 10
62.81862221104538
 20
34.79699708702137
 10
62.70803231528212
 20
35.135946197243584
 10
62.52119298469146
 20
35.46050625640153
 10
62.27848925065249
 20
35.73796730921472
 10
62.11370814039127
 20
35.87889865330723
 10
61.9487267104948
 20
35.99036386643533
 10
61.77527972743199
 20
36.08032693284869
 10
61.593436924720756
 20
36.14885345973801
 10
61.41580150689852
 20
36.19362333459165
 10
61.224703578455276
 20
36.22032570560023
 10
60.68952406981304
 20
36.228307442345404
  0
LWPOLYLINE
  5
39
330
17
100
AcDbEntity
  8
CUT
100
AcDbPolyline
 90
133
 70
1
 10
34.12523880540784
 20
36.50921088527099
 10
44.25786489953251
 20
36.50921257245892
 10
44.25786658672043
 20
36.228309129533336
 10
43.750832923739516
 20
36.22254162590352
 10
43.435348507284495
 20
36.17191381709095
 10
43.10812851008095
 20
36.05012308861031
 10
42.80011425060434
 20
35.852738881149776
 10
42.5672062431542
 20
35.6338021387447
 10
42.374105499878326
 20
35.384506498806694
 10
42.23430194058267
 20
35.12441103204178
 10
42.13811831976905
 20
34.83739455034775
 10
42.10138722874505
 20
34.641027380334066
 10
42.084966941760136
 20
34.422605374699515
 10
42.084966941760136
 20
28.095480227778772
 10
42.10606234774918
 20
27.910676449426994
 10
42.171571544404586
 20
27.736622689125944
 10
42.28451418307445
 20
27.576816547691152
 10
42.43496926758254
 20
27.45168737437163
 10
42.6126835325583
 20
27.36976251554338
 10
42.80554604453066
 20
27.33662501494817
 10
48.91859670645186
 20
27.335661874497568
 10
49.055353186217374
 20
27.346873326804747
 10
49.19704460138251
 20
27.38583334156209
 10
49.32009506032013
 20
27.446515112558238
 10
49.437260386539464
 20
27.535209115811867
 10
49.51096933347631
 20
27.613907357507117
 10
49.591810457088634
 20
27.736622689125987
 10
49.64715766761695
 20
27.872751400894977
 10
49.67392395512546
 20
28.00731461514397
 10
49.67841505973306
 20
34.44234053726059
 10
49.65606550926161
 20
34.7390779403171
 10
49.57746196619284
 20
35.04575757916362
 10
49.44882560175176
 20
35.318677328842625
 10
49.25996426196432
 20
35.580397350247154
 10
49.01432753303919
 20
35.8198942255963
 10
48.856319331024004
 20
35.93719480198364
 10
48.69582771501774
 20
36.03201754530818
 10
48.3562068593399
 20
36.164893530887525
 10
48.02078306858643
 20
36.22196067266833
 10
47.5055171019607
 20
36.228307442345404
 10
47.505515414772766
 20
36.50921088527099
 10
57.63814150889743
 20
36.50921257245892
 10
57.63814319608536
 20
36.228309129533336
 10
57.123063020536726
 20
36.221962565083885
 10
56.7809973105375
 20
36.162646267069874
 10
56.59706126805995
 20
36.09946488278725
 10
56.429157307202026
 20
36.01908958448604
 10
56.27789450329128
 20
35.925339785843796
 10
56.11953883122441
 20
35.80207834993982
 10
55.87298870804301
 20
35.54728211769961
 10
55.67877083239181
 20
35.25683755880388
 10
55.55040354208977
 20
34.95237140487163
 10
55.478664609176484
 20
34.61744520773929
 10
55.46524355112507
 20
34.42260537469972
 10
55.46524355112507
 20
18.837296791029075
 10
55.50904336766504
 20
18.462905078707635
 10
55.6196332634284
 20
18.12395596848509
 10
55.80647259401857
 20
17.79939590932785
 10
56.04917632805787
 20
17.521934856514186
 10
56.2139574383186
 20
17.381003512422005
 10
56.378938868216025
 20
17.269538299293252
 10
56.55238585127837
 20
17.17957523288014
 10
56.73422865398967
 20
17.111048705990797
 10
56.911864071811465
 20
17.06627883113724
 10
57.10296200025558
 20
17.039576460128522
 10
57.63814150889743
 20
17.031594723383392
 10
57.638143196085366
 20
16.7506912804578
 10
47.50551710196069
 20
16.750689593269875
 10
47.505515414772766
 20
17.031593036195467
 10
48.012770391225374
 20
17.037366015503103
 10
48.3294151123587
 20
17.087954220863473
 10
48.659609797036055
 20
17.209559371841472
 10
48.973841036872244
 20
17.407503849278484
 10
49.21185896466273
 20
17.625959669986266
 10
49.40106874229592
 20
17.86485954714353
 10
49.54151065749221
 20
18.12349506581127
 10
49.63097680095251
 20
18.39352977239774
 10
49.6666390112955
 20
18.59904007810085
 10
49.67836344968634
 20
18.80772466917113
 10
49.67841505973306
 20
25.164421937950024
 10
49.657319653744125
 20
25.349225716301383
 10
49.591810457088634
 20
25.52327947660281
 10
49.47886781841869
 20
25.68308561803771
 10
49.32841273391041
 20
25.808214791357322
 10
49.150698468934756
 20
25.89013965018546
 10
48.95783595696263
 20
25.923277150780628
 10
42.84478529504125
 20
25.92424029123123
 10
42.708028815275206
 20
25.913028838923942
 10
42.56633740011109
 20
25.874068824166862
 10
42.43496926758273
 20
25.80821479135728
 10
42.3261216149535
 20
25.724693049916716
 10
42.228510929279736
 20
25.614845455844375
 10
42.171571544404586
 20
25.523279476602852
 10
42.119067582805876
 20
25.39652370043286
 10
42.08945804636774
 20
25.252587550584806
 10
42.084966941760136
 20
18.837296791029267
 10
42.108692883230226
 20
18.569015568731366
 10
42.18830384281056
 20
18.252924066150072
 10
42.322428115708554
 20
17.959978431263302
 10
42.505019038575014
 20
17.697643711546178
 10
42.754393263934624
 20
17.444807990663342
 10
42.904593748433925
 20
17.3297398846534
 10
43.064891862923844
 20
17.232126172031464
 10
43.22500483021818
 20
17.15709101389227
 10
43.409176484493976
 20
17.094926723299608
 10
43.742786411171586
 20
17.037939600644926
 10
44.25786489953251
 20
17.031594723383392
 10
44.25786658672043
 20
16.7506912804578
 10
34.12524049259577
 20
16.750689593269875
 10
34.12523880540784
 20
17.031593036195467
 10
34.640318980956735
 20
17.037939600644933
 10
34.982384690955314
 20
17.097255898658815
 10
35.16632073343312
 20
17.160437282941494
 10
35.334224694291095
 20
17.2408125812427
 10
35.48548749820195
 20
17.334562379885014
 10
35.643843170268696
 20
17.457823815788906
 10
35.89039329345018
 20
17.712620048029173
 10
36.08461116910117
 20
18.00306460692451
 10
36.212978459403395
 20
18.30753076085705
 10
36.28471739231669
 20
18.64245695798933
 10
36.298138450368135
 20
18.83729679102928
 10
36.298138450368135
 20
34.422605374699515
 10
36.25433863382811
 20
34.79699708702137
 10
36.1437487380649
 20
35.13594619724347
 10
35.956909407474285
 20
35.460506256401416
 10
35.714205673435224
 20
35.73796730921472
 10
35.54942456317416
 20
35.87889865330711
 10
35.38444313327745
 20
35.99036386643539
 10
35.210996150214726
 20
36.08032693284869
 10
35.02915334750349
 20
36.14885345973801
 10
34.85151792968125
 20
36.19362333459165
 10
34.66042000123801
 20
36.22032570560023
 10
34.12524049259577
 20
36.228307442345404
  0
LWPOLYLINE
  5
3A
330
17
100
AcDbEntity
  8
CUT
100
AcDbPolyline
 90
64
 70
1
 10
40.594246151761745
 20
53.16840025219547
 10
40.59874178594517
 20
52.923110483879384
 10
40.57917317077875
 20
52.67856120363501
 10
40.53572876272382
 20
52.43710755471615
 10
40.46882695517906
 20
52.20107486775364
 10
40.37911204912342
 20
51.972736266551664
 10
40.267448048145496
 20
51.75429077666253
 10
40.13491033761595
 20
51.54784214756745
 10
39.98277532814015
 20
51.3553785924218
 10
39.812508163024766
 20
51.178753640472735
 10
39.62574860814736
 20
51.01966828656052
 10
39.42429526011424
 20
50.87965460960797
 10
39.21008822479287
 20
50.76006101786366
 10
38.98519043303089
 20
50.66203926299256
 10
38.751767773504284
 20
50.586533348078106
 10
38.512068234026565
 20
50.53427043635681
 10
38.268400252195576
 20
50.50575384823826
 10
38.02311048387913
 20
50.50125821405482
 10
37.77856120363495
 20
50.52082682922125
 10
37.537107554716144
 20
50.564271237276174
 10
37.30107486775361
 20
50.63117304482094
 10
37.07273626655178
 20
50.720887950876524
 10
36.854290776662324
 20
50.83255195185461
 10
36.647842147567445
 20
50.965089662384045
 10
36.455378592422036
 20
51.11722467185963
 10
36.27875364047296
 20
51.28749183697499
 10
36.11966828656031
 20
51.47425139185288
 10
35.979654609607856
 20
51.67570473988593
 10
35.86006101786365
 20
51.889911775207125
 10
35.762039262992545
 20
52.11480956696914
 10
35.68653334807807
 20
52.34823222649581
 10
35.634270436356836
 20
52.587931765973295
 10
35.605753848238244
 20
52.83159974780452
 10
35.601258214054816
 20
53.076889516120616
 10
35.62082682922123
 20
53.32143879636493
 10
35.66427123727617
 20
53.56289244528385
 10
35.73117304482085
 20
53.798925132246126
 10
35.820887950876624
 20
54.02726373344846
 10
35.93255195185471
 20
54.245709223337855
 10
36.06508966238404
 20
54.45215785243255
 10
36.217224671859725
 20
54.644621407578086
 10
36.387491836975194
 20
54.82124635952724
 10
36.574251391852776
 20
54.9803317134396
 10
36.77570473988592
 20
55.12034539039214
 10
36.98991177520706
 20
55.239938982136316
 10
37.2148095669691
 20
55.33796073700744
 10
37.44823222649565
 20
55.41346665192187
 10
37.687931765973424
 20
55.46572956364319
 10
37.93159974780441
 20
55.49424615176174
 10
38.17688951612086
 20
55.49874178594518
 10
38.42143879636496
 20
55.479173170778765
 10
38.662892445283745
 20
55.435728762723855
 10
38.89892513224631
 20
55.36882695517908
 10
39.127263733448224
 20
55.27911204912347
 10
39.34570922333784
 20
55.16744804814529
 10
39.55215785243246
 20
55.03491033761601
 10
39.744621407578094
 20
54.88277532814024
 10
39.92124635952728
 20
54.71250816302475
 10
40.08033171343953
 20
54.525748608147296
 10
40.22034539039213
 20
54.32429526011407
 10
40.33993898213638
 20
54.11008822479279
 10
40.43796073700755
 20
53.885190433030594
 10
40.51346665192185
 20
53.65176777350442
 10
40.56572956364319
 20
53.41206823402652
  0
LWPOLYLINE
  5
3B
330
17
100
AcDbEntity
  8
CUT
100
AcDbPolyline
 90
118
 70
1
 10
12.34835039946865
 20
26.706249727331226
 10
13.541672128912932
 20
27.529588774767447
 10
14.137758498774138
 20
27.90545121315082
 10
14.536929992020285
 20
28.132280496503924
 10
14.944548340597521
 20
28.33728517402851
 10
15.334898840615494
 20
28.503748610636954
 10
15.947371434838164
 20
28.696012932048845
 10
16.332118644916896
 20
28.768220480771426
 10
16.548809918988905
 20
28.79093204730136
 10
16.931134917207107
 20
28.79773643320602
 10
17.149353063693333
 20
28.781870828640216
 10
17.549049646618236
 20
28.714291611163624
 10
17.948293251295517
 20
28.59578269176386
 10
18.347275216694722
 20
28.425484671098346
 10
18.77152974545064
 20
28.18989263915975
 10
18.91974583020699
 20
28.13823255911236
 10
19.036955233157776
 20
28.125783035041884
 10
19.154336833259176
 20
28.136487928656308
 10
19.267360667583763
 20
28.169934119235066
 10
19.403786866373583
 20
28.24755282789969
 10
19.51541412777961
 20
28.35789831336237
 10
19.578185390215722
 20
28.457662051272685
 10
19.629352410050615
 20
28.60604907136615
 10
19.640283806968643
 20
28.762629006902046
 10
19.621521594731416
 20
28.87899487037423
 10
19.484594940978425
 20
29.34969694609194
 10
19.357845867354914
 20
29.93455264096103
 10
19.25754037725242
 20
30.54680165767605
 10
19.11985988302671
 20
31.591681902266124
 10
20.36872751988757
 20
31.37845135369662
 10
20.9645905959734
 20
31.250370228884776
 10
21.355238523757528
 20
31.14674679166791
 10
21.723278076324362
 20
31.02806897335811
 10
22.071320636973077
 20
30.889876279584378
 10
22.396341147656244
 20
30.729321756863037
 10
22.695517367599145
 20
30.543857948100325
 10
22.966316885991887
 20
30.3313249261546
 10
23.193819223956393
 20
30.104504242085184
 10
23.40393005678224
 20
29.834740095557414
 10
23.50658383675386
 20
29.671190544459215
 10
23.6649102206174
 20
29.35268762167304
 10
23.784736467849964
 20
29.01770975527227
 10
23.877252544675653
 20
28.63272511252915
 10
23.92742255621071
 20
28.29349508055038
 10
23.960187147403246
 20
28.17902445611577
 10
24.014910690406545
 20
28.073277701387177
 10
24.089438135265993
 20
27.980419194737628
 10
24.249382926858317
 20
27.86393652326332
 10
24.36063137510848
 20
27.821500394123234
 10
24.517794473930195
 20
27.8005511348781
 10
28.117185734710358
 20
27.8005511348781
 10
28.35343632475682
 20
27.775836046151802
 10
28.531632822066495
 20
27.72178072966247
 10
28.723042835148178
 20
27.62274001680632
 10
28.896910694556496
 20
27.483313603388766
 10
28.983634869106893
 20
27.386553164558876
 10
29.10096013597275
 20
27.205772530458297
 10
29.17222147242143
 20
27.033732445531072
 10
29.218171964940783
 20
26.815653768143697
 10
29.223826485861064
 20
26.685839703547018
 10
29.19983412341166
 20
26.47166402225922
 10
29.14329737873146
 20
26.286532397747642
 10
29.042951369623157
 20
26.095739743815365
 10
28.964969202633114
 20
25.991804924791566
 10
28.82226714974212
 20
25.850379368041402
 10
28.64940148790536
 20
25.73422332804727
 10
28.531632822066495
 20
25.679321540093724
 10
28.35343632475682
 20
25.62526622360439
 10
28.117185734710358
 20
25.600551134878096
 10
24.517794473930195
 20
25.600551134878096
 10
24.36063137510848
 20
25.57960187563296
 10
24.249382926858317
 20
25.537165746492875
 10
24.089438135265993
 20
25.420683075018566
 10
24.014910690406545
 20
25.327824568369017
 10
23.960187147403246
 20
25.222077813640425
 10
23.92742255621071
 20
25.107607189205815
 10
23.877252544675653
 20
24.768377157227043
 10
23.784736467849964
 20
24.383392514483923
 10
23.6649102206174
 20
24.048414648083153
 10
23.50658383675386
 20
23.72991172529698
 10
23.40393005678224
 20
23.56636217419878
 10
23.193819223956393
 20
23.29659802767101
 10
22.966316885991887
 20
23.069777343601594
 10
22.695517367599145
 20
22.85724432165587
 10
22.396341147656244
 20
22.671780512893157
 10
22.071320636973077
 20
22.511225990171816
 10
21.723278076324362
 20
22.373033296398084
 10
21.355238523757603
 20
22.254355478088307
 10
20.964590595973196
 20
22.150732040871368
 10
20.368727519888353
 20
22.022650916059725
 10
19.119863753014386
 20
21.809416630286407
 10
19.25833400158723
 20
22.859721621452408
 10
19.357845867354914
 20
23.466549628795164
 10
19.484594940978425
 20
24.051405323664255
 10
19.621521594731416
 20
24.522107399381966
 10
19.640283806968643
 20
24.63847326285415
 10
19.629352410050615
 20
24.795053198390043
 10
19.578185390215722
 20
24.94344021848351
 10
19.51541412777961
 20
25.043203956393825
 10
19.403786866373583
 20
25.153549441856505
 10
19.267360667583763
 20
25.23116815052113
 10
19.154336833259176
 20
25.264614341099886
 10
19.036955233157776
 20
25.27531923471431
 10
18.91974583020699
 20
25.26286971064384
 10
18.77152974545064
 20
25.211209630596443
 10
18.347275216694722
 20
24.97561759865785
 10
17.948293251295517
 20
24.805319577992336
 10
17.549049646618236
 20
24.68681065859257
 10
17.149353063693333
 20
24.61923144111598
 10
16.931134917207107
 20
24.603365836550175
 10
16.548809918988905
 20
24.610170222454833
 10
16.332118644916896
 20
24.63288178898477
 10
15.947371434838164
 20
24.70508933770735
 10
15.54621696556386
 20
24.8209517656311
 10
15.145081521986151
 20
24.974375295364872
 10
14.744045509557552
 20
25.160976574821916
 10
14.343137082054545
 20
25.376034140089295
 10
13.538824161611009
 20
25.873391704108172
  0
LWPOLYLINE
  5
3C
330
17
100
AcDbEntity
  8
SCORE_OPTIONAL
100
AcDbPolyline
 90
194
 70
1
 10
31.8113606005284
 20
59.5
 10
30.784858234659954
 20
59.48179678053851
 10
29.992302927310963
 20
59.44286103502038
 10
29.087159006559673
 20
59.370523694310066
 10
28.184866522641023
 20
59.26860960500919
 10
27.173389319072406
 20
59.11857113514532
 10
26.392696566850475
 20
58.97651926393556
 10
25.50473819545602
 20
58.78665578981605
 10
24.51283787284288
 20
58.53819769319191
 10
23.64022748111168
 20
58.287061649628306
 10
22.884755153456158
 20
58.044324199627525
 10
22.02917554534181
 20
57.74018320878114
 10
21.078191356770713
 20
57.364381733443935
 10
20.35014926556434
 20
57.04876389345686
 10
19.52850053729654
 20
56.662225958099945
 10
18.61893058346784
 20
56.195021318921036
 10
17.826142445368394
 20
55.75229660058841
 10
17.04826432269282
 20
55.283869621863786
 10
16.286129186819036
 20
54.79024198608903
 10
15.63365020628703
 20
54.33865468838234
 10
14.81233459714839
 20
53.72952551820292
 10
14.10225331951283
 20
53.16357252785354
 10
13.497179499143117
 20
52.65020562261981
 10
12.739523848503165
 20
51.96350656857092
 10
12.088334899979369
 20
51.33067866032535
 10
11.536493431429115
 20
50.760476151496874
 10
10.925310652310232
 20
50.088930308949486
 10
10.263769063518586
 20
49.30921215341049
 10
9.70075174391506
 20
48.596800961779806
 10
9.161345311617653
 20
47.86634979371296
 10
8.709758013911006
 20
47.21387081318101
 10
8.1556496469657
 20
46.354474749971665
 10
7.6904373387189535
 20
45.57466982796265
 10
7.3049786810789366
 20
44.8810694165321
 10
6.8377740419000625
 20
43.97149946270348
 10
6.498504318177328
 20
43.25417390059715
 10
6.135618266556096
 20
42.42180864322937
 10
5.759816791218834
 20
41.470824454658114
 10
5.455675800372482
 20
40.61524484654386
 10
5.179691430480041
 20
39.75017211219759
 10
4.961802306808103
 20
38.98716212715717
 10
4.713344210183953
 20
37.995261804544
 10
4.523480736064446
 20
37.10730343314956
 10
4.381428864854692
 20
36.32661068092763
 10
4.231390394990811
 20
35.315133477358984
 10
4.1294763056899395
 20
34.41284099344033
 10
4.064629724115592
 20
33.621983972010916
 10
4.014455833496126
 20
32.600670965886806
 10
4.001472617405757
 20
31.80726606069267
 10
4.014455833496125
 20
30.899329034113258
 10
4.057138964979622
 20
29.992302927310945
 10
4.140702416704017
 20
28.973178388643525
 10
4.246339836682134
 20
28.07131423943119
 10
4.381428864854685
 20
27.173389319072406
 10
4.523480736064446
 20
26.39269656685044
 10
4.739351736305535
 20
25.393197999051033
 10
4.961802306808087
 20
24.51283787284288
 10
5.179691430480048
 20
23.74982788780239
 10
5.492490944230635
 20
22.77630123692134
 10
5.800160736465388
 20
21.921984254133122
 10
6.091788721228282
 20
21.18400523953369
 10
6.4512361065431545
 20
20.350149265564312
 10
6.8884303038556265
 20
19.42577979959602
 10
7.304978681078894
 20
18.618930583467986
 10
7.690437338718955
 20
17.92533017203735
 10
8.216130378136135
 20
17.048264322692944
 10
8.709758013910994
 20
16.286129186818997
 10
9.228057717899528
 20
15.540553151139768
 10
9.700751743915111
 20
14.903199038220116
 10
10.336427472146443
 20
14.102253319512847
 10
10.925310652310205
 20
13.411069691050542
 10
11.536493431429065
 20
12.739523848503175
 10
12.088334899979241
 20
12.16932133967478
 10
12.823116729072186
 20
11.458200154915708
 10
13.497179499143149
 20
10.849794377380164
 10
14.190787846589426
 20
10.263769063518652
 10
14.812334597148542
 20
9.77047448179696
 10
15.633650206287035
 20
9.161345311617652
 10
16.381359165383543
 20
8.646127376544655
 10
17.048264322692766
 20
8.216130378136256
 10
17.925330172037636
 20
7.690437338718787
 10
18.61893058346779
 20
7.3049786810789925
 10
19.425779799596047
 20
6.888430303855614
 10
20.245826099402937
 20
6.498504318177282
 10
21.184005239533537
 20
6.0917887212283475
 10
21.92198425413339
 20
5.800160736465287
 10
22.77630123692149
 20
5.492490944230582
 10
23.749827887802176
 20
5.179691430480119
 10
24.623467406829004
 20
4.932159212517483
 10
25.39319799905086
 20
4.739351736305572
 10
26.280365148062042
 20
4.545824844506754
 10
27.173389319072353
 20
4.381428864854691
 10
28.184866522641265
 20
4.2313903949907825
 10
29.087159006559464
 20
4.129476305689963
 10
29.992302927310853
 20
4.057138964979629
 10
30.899329034113382
 20
4.014455833496122
 10
31.81136060052843
 20
4.0
 10
145.98863939947154
 20
4.0
 10
147.0151417653399
 20
4.018203219461483
 10
147.921983972011
 20
4.064629724115598
 10
148.82682161135634
 20
4.140702416704009
 10
149.7286857605688
 20
4.246339836682125
 10
150.51360832705313
 20
4.362772100722722
 10
151.40730343314962
 20
4.523480736064464
 10
152.29526180454383
 20
4.713344210183912
 10
153.17653259317143
 20
4.932159212517597
 10
154.1597725188882
 20
5.212938350371658
 10
155.02369876307876
 20
5.492490944230667
 10
155.77082445465783
 20
5.759816791218739
 10
156.61599476046666
 20
6.09178872122844
 10
157.44985073443542
 20
6.451236106543028
 10
158.27149946270342
 20
6.837774041900033
 10
159.18106941653215
 20
7.304978681078971
 10
159.9738575546316
 20
7.747703399411591
 10
160.751735677307
 20
8.216130378136128
 10
161.5138708131806
 20
8.709758013910758
 10
162.25944684886048
 20
9.228057717899738
 10
162.98766540285163
 20
9.770474481797109
 10
163.6092121534103
 20
10.263769063518431
 10
164.30282050085682
 20
10.849794377380178
 10
164.97688327092774
 20
11.458200154915666
 10
165.63067866032497
 20
12.088334899979024
 10
166.26350656857147
 20
12.739523848503765
 10
166.95020562261962
 20
13.497179499142895
 10
167.53623093648136
 20
14.190787846589508
 10
168.099248256085
 20
14.903199038220272
 10
168.63865468838202
 20
15.633650206286596
 10
169.15387262345558
 20
16.381359165383962
 10
169.58386962186415
 20
17.048264322693413
 10
170.05229660058797
 20
17.826142445367644
 10
170.49502131892103
 20
18.61893058346785
 10
170.96222595809996
 20
19.528500537296587
 10
171.3487638934568
 20
20.350149265564298
 10
171.70821127877178
 20
21.184005239533946
 10
172.0401832087812
 20
22.029175545342014
 10
172.34432419962715
 20
22.884755153455167
 10
172.5870616496284
 20
23.640227481112056
 10
172.83819769319197
 20
24.512837872843164
 10
173.0606482636944
 20
25.39319799905082
 10
173.27651926393557
 20
26.392696566850567
 10
173.41857113514538
 20
27.17338931907291
 10
173.5536601633177
 20
28.071314239430002
 10
173.67052369431013
 20
29.087159006560633
 10
173.7353702758844
 20
29.87801602798895
 10
173.78179678053846
 20
30.78485823465953
 10
173.79852738259422
 20
31.80726606069275
 10
173.78554416650383
 20
32.600670965887375
 10
173.74286103502038
 20
33.50769707268897
 10
173.65929758329608
 20
34.526821611355444
 10
173.56860960500907
 20
35.31513347735986
 10
173.43722789927736
 20
36.213608327052356
 10
173.25417515549307
 20
37.21963485193876
 10
173.08665578981612
 20
37.99526180454376
 10
172.86784078748255
 20
38.87653259317089
 10
172.58706164962834
 20
39.85977251888816
 10
172.34432419962752
 20
40.61524484654379
 10
172.04018320878083
 20
41.470824454658924
 10
171.66438173344406
 20
42.42180864322894
 10
171.34876389345683
 20
43.14985073443568
 10
170.96222595810005
 20
43.97149946270321
 10
170.4950213189209
 20
44.88106941653234
 10
170.1095626612809
 20
45.574669827962865
 10
169.6443503530344
 20
46.35447474997145
 10
169.09024198608907
 20
47.21387081318089
 10
168.57194228210022
 20
47.95944684886055
 10
168.099248256085
 20
48.5968009617797
 10
167.46357252785347
 20
49.39774668048722
 10
166.95020562261965
 20
50.00282050085703
 10
166.34179984508435
 20
50.67688327092775
 10
165.63067866032557
 20
51.4116651000204
 10
164.97688327092735
 20
52.04179984508471
 10
164.3889303089496
 20
52.57468934768967
 10
163.60921215341074
 20
53.23623093648118
 10
162.8968009617797
 20
53.799248256085015
 10
162.25944684886008
 20
54.27194228210057
 10
161.4186408346169
 20
54.853872623455025
 10
160.6544747499714
 20
55.34435035303445
 10
159.97385755463162
 20
55.752296600588394
 10
159.0800611032315
 20
56.24901138720382
 10
158.27149946270345
 20
56.66222595809994
 10
157.55417390059702
 20
57.00149568182273
 10
156.61599476046635
 20
57.40821127877169
 10
155.77082445465797
 20
57.740183208781204
 10
155.02369876307876
 20
58.007509055769326
 10
154.0501721121977
 20
58.32030856951992
 10
153.28716212715693
 20
58.538197693191954
 10
152.4068020009491
 20
58.76064826369443
 10
151.40730343314937
 20
58.97651926393558
 10
150.51360832705313
 20
59.13722789927727
 10
149.615133477359
 20
59.26860960500918
 10
148.71284099344027
 20
59.370523694310066
 10
147.80769707268908
 20
59.44286103502038
 10
146.9006709658868
 20
59.48554416650387
 10
145.9886393994715
 20
59.5
  0
ENDSEC
  0
SECTION
  2
OBJECTS
  0
DICTIONARY
  5
A
330
0
100
AcDbDictionary
281
1
  3
ACAD_COLOR
350
B
  3
ACAD_GROUP
350
C
  3
ACAD_LAYOUT
350
D
  3
ACAD_MATERIAL
350
E
  3
ACAD_MLEADERSTYLE
350
F
  3
ACAD_MLINESTYLE
350
10
  3
ACAD_PLOTSETTINGS
350
11
  3
ACAD_PLOTSTYLENAME
350
12
  3
ACAD_SCALELIST
350
14
  3
ACAD_TABLESTYLE
350
15
  3
ACAD_VISUALSTYLE
350
16
  3
EZDXF_META
350
2D
  0
DICTIONARY
  5
B
330
A
100
AcDbDictionary
281
1
  0
DICTIONARY
  5
C
330
A
100
AcDbDictionary
281
1
  0
DICTIONARY
  5
D
330
A
100
AcDbDictionary
281
1
  3
Model
350
1A
  3
Layout1
350
1E
  0
DICTIONARY
  5
E
330
A
100
AcDbDictionary
281
1
  3
ByBlock
350
1F
  3
ByLayer
350
20
  3
Global
350
21
  0
DICTIONARY
  5
F
330
A
100
AcDbDictionary
281
1
  3
Standard
350
2C
  0
DICTIONARY
  5
10
330
A
100
AcDbDictionary
281
1
  3
Standard
350
22
  0
DICTIONARY
  5
11
330
A
100
AcDbDictionary
281
1
  0
ACDBDICTIONARYWDFLT
  5
12
330
A
100
AcDbDictionary
281
1
  3
Normal
350
13
100
AcDbDictionaryWithDefault
340
13
  0
ACDBPLACEHOLDER
  5
13
330
12
  0
DICTIONARY
  5
14
330
A
100
AcDbDictionary
281
1
  0
DICTIONARY
  5
15
330
A
100
AcDbDictionary
281
1
  0
DICTIONARY
  5
16
330
A
100
AcDbDictionary
281
1
  0
LAYOUT
  5
1A
330
D
100
AcDbPlotSettings
  1

  4
A3
  6

 40
7.5
 41
20.0
 42
7.5
 43
20.0
 44
420.0
 45
297.0
 46
0.0
 47
0.0
 48
0.0
 49
0.0
140
0.0
141
0.0
142
1.0
143
1.0
 70
1024
 72
1
 73
0
 74
5
  7

 75
16
 76
0
 77
2
 78
300
147
1.0
148
0.0
149
0.0
100
AcDbLayout
  1
Model
 70
1
 71
0
 10
0.0
 20
0.0
 11
420.0
 21
297.0
 12
0.0
 22
0.0
 32
0.0
 14
1e+20
 24
1e+20
 34
1e+20
 15
-1e+20
 25
-1e+20
 35
-1e+20
146
0.0
 13
0.0
 23
0.0
 33
0.0
 16
1.0
 26
0.0
 36
0.0
 17
0.0
 27
1.0
 37
0.0
 76
1
330
17
  0
LAYOUT
  5
1E
330
D
100
AcDbPlotSettings
  1

  4
A3
  6

 40
7.5
 41
20.0
 42
7.5
 43
20.0
 44
420.0
 45
297.0
 46
0.0
 47
0.0
 48
0.0
 49
0.0
140
0.0
141
0.0
142
1.0
143
1.0
 70
0
 72
1
 73
0
 74
5
  7

 75
16
 76
0
 77
2
 78
300
147
1.0
148
0.0
149
0.0
100
AcDbLayout
  1
Layout1
 70
1
 71
1
 10
0.0
 20
0.0
 11
420.0
 21
297.0
 12
0.0
 22
0.0
 32
0.0
 14
1e+20
 24
1e+20
 34
1e+20
 15
-1e+20
 25
-1e+20
 35
-1e+20
146
0.0
 13
0.0
 23
0.0
 33
0.0
 16
1.0
 26
0.0
 36
0.0
 17
0.0
 27
1.0
 37
0.0
 76
1
330
1B
  0
MATERIAL
  5
1F
102
{ACAD_REACTORS
330
E
102
}
330
E
100
AcDbMaterial
  1
ByBlock
  2

 70
0
 40
1.0
 71
1
 41
1.0
 91
-1023410177
 42
1.0
 72
1
  3

 73
1
 74
1
 75
1
 44
0.5
 73
0
 45
1.0
 46
1.0
 77
1
  4

 78
1
 79
1
170
1
 48
1.0
171
1
  6

172
1
173
1
174
1
140
1.0
141
1.0
175
1
  7

176
1
177
1
178
1
143
1.0
179
1
  8

270
1
271
1
272
1
145
1.0
146
1.0
273
1
  9

274
1
275
1
276
1
 42
1.0
 72
1
  3

 73
1
 74
1
 75
1
 94
63
  0
MATERIAL
  5
20
102
{ACAD_REACTORS
330
E
102
}
330
E
100
AcDbMaterial
  1
ByLayer
  2

 70
0
 40
1.0
 71
1
 41
1.0
 91
-1023410177
 42
1.0
 72
1
  3

 73
1
 74
1
 75
1
 44
0.5
 73
0
 45
1.0
 46
1.0
 77
1
  4

 78
1
 79
1
170
1
 48
1.0
171
1
  6

172
1
173
1
174
1
140
1.0
141
1.0
175
1
  7

176
1
177
1
178
1
143
1.0
179
1
  8

270
1
271
1
272
1
145
1.0
146
1.0
273
1
  9

274
1
275
1
276
1
 42
1.0
 72
1
  3

 73
1
 74
1
 75
1
 94
63
  0
MATERIAL
  5
21
102
{ACAD_REACTORS
330
E
102
}
330
E
100
AcDbMaterial
  1
Global
  2

 70
0
 40
1.0
 71
1
 41
1.0
 91
-1023410177
 42
1.0
 72
1
  3

 73
1
 74
1
 75
1
 44
0.5
 73
0
 45
1.0
 46
1.0
 77
1
  4

 78
1
 79
1
170
1
 48
1.0
171
1
  6

172
1
173
1
174
1
140
1.0
141
1.0
175
1
  7

176
1
177
1
178
1
143
1.0
179
1
  8

270
1
271
1
272
1
145
1.0
146
1.0
273
1
  9

274
1
275
1
276
1
 42
1.0
 72
1
  3

 73
1
 74
1
 75
1
 94
63
  0
MLINESTYLE
  5
22
102
{ACAD_REACTORS
330
10
102
}
330
10
100
AcDbMlineStyle
  2
Standard
 70
0
  3

 62
256
 51
90.0
 52
90.0
 71
2
 49
0.5
 62
256
  6
BYLAYER
 49
-0.5
 62
256
  6
BYLAYER
  0
MLEADERSTYLE
  5
2C
102
{ACAD_REACTORS
330
F
102
}
330
F
100
AcDbMLeaderStyle
179
2
170
2
171
1
172
0
 90
2
 40
0.0
 41
0.0
173
1
 91
-1056964608
 92
-2
290
1
 42
2.0
291
1
 43
8.0
  3
Standard
 44
4.0
300

342
29
174
1
175
1
176
0
178
1
 93
-1056964608
 45
4.0
292
0
297
0
 46
4.0
 94
-1056964608
 47
1.0
 49
1.0
140
1.0
294
1
141
0.0
177
0
142
1.0
295
0
296
0
143
3.75
271
0
272
9
273
9
  0
DICTIONARY
  5
2D
330
A
100
AcDbDictionary
280
1
281
1
  3
CREATED_BY_EZDXF
350
2E
  3
WRITTEN_BY_EZDXF
350
3F
  0
DICTIONARYVAR
  5
2E
330
2D
100
DictionaryVariables
280
0
  1
1.4.4 @ 2026-10-05T10:29:46.899859+00:00
  0
DICTIONARYVAR
  5
3F
330
2D
100
DictionaryVariables
280
0
  1
1.4.4 @ 2026-10-05T10:29:46.918231+00:00
  0
ENDSEC
  0
EOF
