  0
SECTION
  2
HEADER
  9
$ACADVER
  1
AC1024
  9
$ACADMAINTVER
 70
6
  9
$DWGCODEPAGE
  3
ANSI_1252
  9
$LASTSAVEDBY
  1
ezdxf
  9
$INSBASE
 10
0.0
 20
0.0
 30
0.0
  9
$EXTMIN
 10
1e+20
 20
1e+20
 30
1e+20
  9
$EXTMAX
 10
-1e+20
 20
-1e+20
 30
-1e+20
  9
$LIMMIN
 10
0.0
 20
0.0
  9
$LIMMAX
 10
420.0
 20
297.0
  9
$ORTHOMODE
 70
0
  9
$REGENMODE
 70
1
  9
$FILLMODE
 70
1
  9
$QTEXTMODE
 70
0
  9
$MIRRTEXT
 70
1
  9
$LTSCALE
 40
1.0
  9
$ATTMODE
 70
1
  9
$TEXTSIZE
 40
2.5
  9
$TRACEWID
 40
1.0
  9
$TEXTSTYLE
  7
Standard
  9
$CLAYER
  8
0
  9
$CELTYPE
  6
ByLayer
  9
$CECOLOR
 62
256
  9
$CELTSCALE
 40
1.0
  9
$DISPSILH
 70
0
  9
$DIMSCALE
 40
1.0
  9
$DIMASZ
 40
2.5
  9
$DIMEXO
 40
0.625
  9
$DIMDLI
 40
3.75
  9
$DIMRND
 40
0.0
  9
$DIMDLE
 40
0.0
  9
$DIMEXE
 40
1.25
  9
$DIMTP
 40
0.0
  9
$DIMTM
 40
0.0
  9
$DIMTXT
 40
2.5
  9
$DIMCEN
 40
2.5
  9
$DIMTSZ
 40
0.0
  9
$DIMTOL
 70
0
  9
$DIMLIM
 70
0
  9
$DIMTIH
 70
0
  9
$DIMTOH
 70
0
  9
$DIMSE1
 70
0
  9
$DIMSE2
 70
0
  9
$DIMTAD
 70
1
  9
$DIMZIN
 70
8
  9
$DIMBLK
  1

  9
$DIMASO
 70
1
  9
$DIMSHO
 70
1
  9
$DIMPOST
  1

  9
$DIMAPOST
  1

  9
$DIMALT
 70
0
  9
$DIMALTD
 70
3
  9
$DIMALTF
 40
0.03937007874
  9
$DIMLFAC
 40
1.0
  9
$DIMTOFL
 70
1
  9
$DIMTVP
 40
0.0
  9
$DIMTIX
 70
0
  9
$DIMSOXD
 70
0
  9
$DIMSAH
 70
0
  9
$DIMBLK1
  1

  9
$DIMBLK2
  1

  9
$DIMSTYLE
  2
ISO-25
  9
$DIMCLRD
 70
0
  9
$DIMCLRE
 70
0
  9
$DIMCLRT
 70
0
  9
$DIMTFAC
 40
1.0
  9
$DIMGAP
 40
0.625
  9
$DIMJUST
 70
0
  9
$DIMSD1
 70
0
  9
$DIMSD2
 70
0
  9
$DIMTOLJ
 70
0
  9
$DIMTZIN
 70
8
  9
$DIMALTZ
 70
0
  9
$DIMALTTZ
 70
0
  9
$DIMUPT
 70
0
  9
$DIMDEC
 70
2
  9
$DIMTDEC
 70
2
  9
$DIMALTU
 70
2
  9
$DIMALTTD
 70
3
  9
$DIMTXSTY
  7
Standard
  9
$DIMAUNIT
 70
0
  9
$DIMADEC
 70
0
  9
$DIMALTRND
 40
0.0
  9
$DIMAZIN
 70
0
  9
$DIMDSEP
 70
44
  9
$DIMATFIT
 70
3
  9
$DIMFRAC
 70
0
  9
$DIMLDRBLK
  1

  9
$DIMLUNIT
 70
2
  9
$DIMLWD
 70
-2
  9
$DIMLWE
 70
-2
  9
$DIMTMOVE
 70
0
  9
$DIMFXL
 40
1.0
  9
$DIMFXLON
 70
0
  9
$DIMJOGANG
 40
0.785398163397
  9
$DIMTFILL
 70
0
  9
$DIMTFILLCLR
 70
0
  9
$DIMARCSYM
 70
0
  9
$DIMLTYPE
  6

  9
$DIMLTEX1
  6

  9
$DIMLTEX2
  6

  9
$DIMTXTDIRECTION
 70
0
  9
$LUNITS
 70
2
  9
$LUPREC
 70
4
  9
$SKETCHINC
 40
1.0
  9
$FILLETRAD
 40
10.0
  9
$AUNITS
 70
0
  9
$AUPREC
 70
2
  9
$MENU
  1
.
  9
$ELEVATION
 40
0.0
  9
$PELEVATION
 40
0.0
  9
$THICKNESS
 40
0.0
  9
$LIMCHECK
 70
0
  9
$CHAMFERA
 40
0.0
  9
$CHAMFERB
 40
0.0
  9
$CHAMFERC
 40
0.0
  9
$CHAMFERD
 40
0.0
  9
$SKPOLY
 70
0
  9
$TDCREATE
 40
2461319.437337963
  9
$TDUCREATE
 40
2458532.153996898
  9
$TDUPDATE
 40
2461319.437337963
  9
$TDUUPDATE
 40
2458532.1544311
  9
$TDINDWG
 40
0.0
  9
$TDUSRTIMER
 40
0.0
  9
$USRTIMER
 70
1
  9
$ANGBASE
 50
0.0
  9
$ANGDIR
 70
0
  9
$PDMODE
 70
0
  9
$PDSIZE
 40
0.0
  9
$PLINEWID
 40
0.0
  9
$SPLFRAME
 70
0
  9
$SPLINETYPE
 70
6
  9
$SPLINESEGS
 70
8
  9
$HANDSEED
  5
41
  9
$SURFTAB1
 70
6
  9
$SURFTAB2
 70
6
  9
$SURFTYPE
 70
6
  9
$SURFU
 70
6
  9
$SURFV
 70
6
  9
$UCSBASE
  2

  9
$UCSNAME
  2

  9
$UCSORG
 10
0.0
 20
0.0
 30
0.0
  9
$UCSXDIR
 10
1.0
 20
0.0
 30
0.0
  9
$UCSYDIR
 10
0.0
 20
1.0
 30
0.0
  9
$UCSORTHOREF
  2

  9
$UCSORTHOVIEW
 70
0
  9
$UCSORGTOP
 10
0.0
 20
0.0
 30
0.0
  9
$UCSORGBOTTOM
 10
0.0
 20
0.0
 30
0.0
  9
$UCSORGLEFT
 10
0.0
 20
0.0
 30
0.0
  9
$UCSORGRIGHT
 10
0.0
 20
0.0
 30
0.0
  9
$UCSORGFRONT
 10
0.0
 20
0.0
 30
0.0
  9
$UCSORGBACK
 10
0.0
 20
0.0
 30
0.0
  9
$PUCSBASE
  2

  9
$PUCSNAME
  2

  9
$PUCSORG
 10
0.0
 20
0.0
 30
0.0
  9
$PUCSXDIR
 10
1.0
 20
0.0
 30
0.0
  9
$PUCSYDIR
 10
0.0
 20
1.0
 30
0.0
  9
$PUCSORTHOREF
  2

  9
$PUCSORTHOVIEW
 70
0
  9
$PUCSORGTOP
 10
0.0
 20
0.0
 30
0.0
  9
$PUCSORGBOTTOM
 10
0.0
 20
0.0
 30
0.0
  9
$PUCSORGLEFT
 10
0.0
 20
0.0
 30
0.0
  9
$PUCSORGRIGHT
 10
0.0
 20
0.0
 30
0.0
  9
$PUCSORGFRONT
 10
0.0
 20
0.0
 30
0.0
  9
$PUCSORGBACK
 10
0.0
 20
0.0
 30
0.0
  9
$USERI1
 70
0
  9
$USERI2
 70
0
  9
$USERI3
 70
0
  9
$USERI4
 70
0
  9
$USERI5
 70
0
  9
$USERR1
 40
0.0
  9
$USERR2
 40
0.0
  9
$USERR3
 40
0.0
  9
$USERR4
 40
0.0
  9
$USERR5
 40
0.0
  9
$WORLDVIEW
 70
1
  9
$SHADEDGE
 70
3
  9
$SHADEDIF
 70
70
  9
$TILEMODE
 70
1
  9
$MAXACTVP
 70
64
  9
$PINSBASE
 10
0.0
 20
0.0
 30
0.0
  9
$PLIMCHECK
 70
0
  9
$PEXTMIN
 10
1e+20
 20
1e+20
 30
1e+20
  9
$PEXTMAX
 10
-1e+20
 20
-1e+20
 30
-1e+20
  9
$PLIMMIN
 10
0.0
 20
0.0
  9
$PLIMMAX
 10
420.0
 20
297.0
  9
$UNITMODE
 70
0
  9
$VISRETAIN
 70
1
  9
$PLINEGEN
 70
0
  9
$PSLTSCALE
 70
1
  9
$TREEDEPTH
 70
3020
  9
$CMLSTYLE
  2
Standard
  9
$CMLJUST
 70
0
  9
$CMLSCALE
 40
20.0
  9
$PROXYGRAPHICS
 70
1
  9
$MEASUREMENT
 70
1
  9
$CELWEIGHT
370
-1
  9
$ENDCAPS
280
0
  9
$JOINSTYLE
280
0
  9
$LWDISPLAY
290
0
  9
$INSUNITS
 70
4
  9
$HYPERLINKBASE
  1

  9
$STYLESHEET
  1

  9
$XEDIT
290
1
  9
$CEPSNTYPE
380
0
  9
$PSTYLEMODE
290
1
  9
$FINGERPRINTGUID
  2
{A7888EBE-C908-4B68-B436-8901D105528F}
  9
$VERSIONGUID
  2
{C572FB2E-B070-46BE-B935-4725A3B61C3A}
  9
$EXTNAMES
290
1
  9
$PSVPSCALE
 40
0.0
  9
$OLESTARTUP
290
0
  9
$SORTENTS
280
127
  9
$INDEXCTL
280
0
  9
$HIDETEXT
280
1
  9
$XCLIPFRAME
280
1
  9
$HALOGAP
280
0
  9
$OBSCOLOR
 70
257
  9
$OBSLTYPE
280
0
  9
$INTERSECTIONDISPLAY
280
0
  9
$INTERSECTIONCOLOR
 70
257
  9
$DIMASSOC
280
2
  9
$PROJECTNAME
  1

  9
$CAMERADISPLAY
290
0
  9
$LENSLENGTH
 40
50.0
  9
$CAMERAHEIGHT
 40
0.0
  9
$STEPSPERSEC
 40
24.0
  9
$STEPSIZE
 40
100.0
  9
$3DDWFPREC
 40
2.0
  9
$PSOLWIDTH
 40
0.005
  9
$PSOLHEIGHT
 40
0.08
  9
$LOFTANG1
 40
1.570796326795
  9
$LOFTANG2
 40
1.570796326795
  9
$LOFTMAG1
 40
0.0
  9
$LOFTMAG2
 40
0.0
  9
$LOFTPARAM
 70
7
  9
$LOFTNORMALS
280
1
  9
$LATITUDE
 40
37.795
  9
$LONGITUDE
 40
-122.394
  9
$NORTHDIRECTION
 40
0.0
  9
$TIMEZONE
 70
-8000
  9
$LIGHTGLYPHDISPLAY
280
1
  9
$TILEMODELIGHTSYNCH
280
1
  9
$CMATERIAL
347
20
  9
$SOLIDHIST
280
0
  9
$SHOWHIST
280
1
  9
$DWFFRAME
280
2
  9
$DGNFRAME
280
2
  9
$REALWORLDSCALE
290
1
  9
$INTERFERECOLOR
 62
256
  9
$CSHADOW
280
0
  9
$SHADOWPLANELOCATION
 40
0.0
  0
ENDSEC
  0
SECTION
  2
CLASSES
  0
CLASS
  1
ACDBDICTIONARYWDFLT
  2
AcDbDictionaryWithDefault
  3
ObjectDBX Classes
 90
0
 91
0
280
0
281
0
  0
CLASS
  1
SUN
  2
AcDbSun
  3
SCENEOE
 90
1153
 91
0
280
0
281
0
  0
CLASS
  1
VISUALSTYLE
  2
AcDbVisualStyle
  3
ObjectDBX Classes
 90
4095
 91
0
280
0
281
0
  0
CLASS
  1
MATERIAL
  2
AcDbMaterial
  3
ObjectDBX Classes
 90
1153
 91
0
280
0
281
0
  0
CLASS
  1
SCALE
  2
AcDbScale
  3
ObjectDBX Classes
 90
1153
 91
0
280
0
281
0
  0
CLASS
  1
TABLESTYLE
  2
AcDbTableStyle
  3
ObjectDBX Classes
 90
4095
 91
0
280
0
281
0
  0
CLASS
  1
MLEADERSTYLE
  2
AcDbMLeaderStyle
  3
ACDB_MLEADERSTYLE_CLASS
 90
4095
 91
0
280
0
281
0
  0
CLASS
  1
DICTIONARYVAR
  2
AcDbDictionaryVar
  3
ObjectDBX Classes
 90
0
 91
0
280
0
281
0
  0
CLASS
  1
CELLSTYLEMAP
  2
AcDbCellStyleMap
  3
ObjectDBX Classes
 90
1152
 91
0
280
0
281
0
  0
CLASS
  1
MENTALRAYRENDERSETTINGS
  2
AcDbMentalRayRenderSettings
  3
SCENEOE
 90
1024
 91
0
280
0
281
0
  0
CLASS
  1
ACDBDETAILVIEWSTYLE
  2
AcDbDetailViewStyle
  3
ObjectDBX Classes
 90
1025
 91
0
280
0
281
0
  0
CLASS
  1
ACDBSECTIONVIEWSTYLE
  2
AcDbSectionViewStyle
  3
ObjectDBX Classes
 90
1025
 91
0
280
0
281
0
  0
CLASS
  1
RASTERVARIABLES
  2
AcDbRasterVariables
  3
ISM
 90
0
 91
0
280
0
281
0
  0
CLASS
  1
LAYOUT
  2
AcDbLayout
  3
ObjectDBX Classes
 90
0
 91
0
280
0
281
0
  0
CLASS
  1
ACDBPLACEHOLDER
  2
AcDbPlaceHolder
  3
ObjectDBX Classes
 90
0
 91
0
280
0
281
0
  0
ENDSEC
  0
SECTION
  2
TABLES
  0
TABLE
  2
VPORT
  5
8
330
0
100
AcDbSymbolTable
 70
1
  0
VPORT
  5
23
330
8
100
AcDbSymbolTableRecord
100
AcDbViewportTableRecord
  2
*Active
 70
0
 10
0.0
 20
0.0
 11
1.0
 21
1.0
 12
0.0
 22
0.0
 13
0.0
 23
0.0
 14
0.5
 24
0.5
 15
0.5
 25
0.5
 16
0.0
 26
0.0
 36
1.0
 17
0.0
 27
0.0
 37
0.0
 40
1000.0
 41
1.34
 42
50.0
 43
0.0
 44
0.0
 50
0.0
 51
0.0
 71
0
 72
1000
 73
1
 74
3
 75
0
 76
0
 77
0
 78
0
281
0
 65
0
146
0.0
  0
ENDTAB
  0
TABLE
  2
LTYPE
  5
2
330
0
100
AcDbSymbolTable
 70
3
  0
LTYPE
  5
24
330
2
100
AcDbSymbolTableRecord
100
AcDbLinetypeTableRecord
  2
ByBlock
 70
0
  3

 72
65
 73
0
 40
0.0
  0
LTYPE
  5
25
330
2
100
AcDbSymbolTableRecord
100
AcDbLinetypeTableRecord
  2
ByLayer
 70
0
  3

 72
65
 73
0
 40
0.0
  0
LTYPE
  5
26
330
2
100
AcDbSymbolTableRecord
100
AcDbLinetypeTableRecord
  2
Continuous
 70
0
  3

 72
65
 73
0
 40
0.0
  0
ENDTAB
  0
TABLE
  2
LAYER
  5
1
330
0
100
AcDbSymbolTable
 70
4
  0
LAYER
  5
27
330
1
100
AcDbSymbolTableRecord
100
AcDbLayerTableRecord
  2
0
 70
0
 62
7
  6
Continuous
370
-3
390
13
347
21
  0
LAYER
  5
28
330
1
100
AcDbSymbolTableRecord
100
AcDbLayerTableRecord
  2
Defpoints
 70
0
 62
7
  6
Continuous
290
0
370
-3
390
13
347
21
  0
LAYER
  5
2F
330
1
100
AcDbSymbolTableRecord
100
AcDbLayerTableRecord
  2
CUT
 70
0
 62
1
  6
Continuous
370
-3
390
13
347
21
  0
LAYER
  5
30
330
1
100
AcDbSymbolTableRecord
100
AcDbLayerTableRecord
  2
SCORE_OPTIONAL
 70
0
 62
5
  6
Continuous
370
-3
390
13
347
21
  0
ENDTAB
  0
TABLE
  2
STYLE
  5
5
330
0
100
AcDbSymbolTable
 70
1
  0
STYLE
  5
29
330
5
100
AcDbSymbolTableRecord
100
AcDbTextStyleTableRecord
  2
Standard
 70
0
 40
0.0
 41
1.0
 50
0.0
 71
0
 42
2.5
  3
txt
  4

  0
ENDTAB
  0
TABLE
  2
VIEW
  5
7
330
0
100
AcDbSymbolTable
 70
0
  0
ENDTAB
  0
TABLE
  2
UCS
  5
6
330
0
100
AcDbSymbolTable
 70
0
  0
ENDTAB
  0
TABLE
  2
APPID
  5
3
330
0
100
AcDbSymbolTable
 70
3
  0
APPID
  5
2A
330
3
100
AcDbSymbolTableRecord
100
AcDbRegAppTableRecord
  2
ACAD
 70
0
  0
APPID
  5
3E
330
3
100
AcDbSymbolTableRecord
100
AcDbRegAppTableRecord
  2
HATCHBACKGROUNDCOLOR
 70
0
  0
APPID
  5
3F
330
3
100
AcDbSymbolTableRecord
100
AcDbRegAppTableRecord
  2
EZDXF
 70
0
  0
ENDTAB
  0
TABLE
  2
DIMSTYLE
  5
4
330
0
100
AcDbSymbolTable
 70
1
100
AcDbDimStyleTable
  0
DIMSTYLE
105
2B
330
4
100
AcDbSymbolTableRecord
100
AcDbDimStyleTableRecord
  2
Standard
 70
0
 40
1.0
 41
2.5
 42
0.625
 43
3.75
 44
1.25
 45
0.0
 46
0.0
 47
0.0
 48
0.0
 49
2.5
140
2.5
141
2.5
142
0.0
143
0.03937007874
144
1.0
145
0.0
146
1.0
147
0.625
148
0.0
 69
0
 70
0
 71
0
 72
0
 73
0
 74
0
 75
0
 76
0
 77
1
 78
8
 79
3
170
0
171
3
172
1
173
0
174
0
175
0
176
0
177
0
178
0
179
2
271
2
272
2
273
2
274
3
275
0
276
0
277
2
278
44
279
0
280
0
281
0
282
0
283
0
284
8
285
0
286
0
288
0
289
3
290
0
371
-2
372
-2
  0
ENDTAB
  0
TABLE
  2
BLOCK_RECORD
  5
9
330
0
100
AcDbSymbolTable
 70
2
  0
BLOCK_RECORD
  5
17
330
9
100
AcDbSymbolTableRecord
100
AcDbBlockTableRecord
  2
*Model_Space
340
1A
 70
0
280
1
281
0
  0
BLOCK_RECORD
  5
1B
330
9
100
AcDbSymbolTableRecord
100
AcDbBlockTableRecord
  2
*Paper_Space
340
1E
 70
0
280
1
281
0
  0
ENDTAB
  0
ENDSEC
  0
SECTION
  2
BLOCKS
  0
BLOCK
  5
18
330
17
100
AcDbEntity
  8
0
100
AcDbBlockBegin
  2
*Model_Space
 70
0
 10
0.0
 20
0.0
 30
0.0
  3
*Model_Space
  1

  0
ENDBLK
  5
19
330
17
100
AcDbEntity
  8
0
100
AcDbBlockEnd
  0
BLOCK
  5
1C
330
1B
100
AcDbEntity
  8
0
100
AcDbBlockBegin
  2
*Paper_Space
 70
0
 10
0.0
 20
0.0
 30
0.0
  3
*Paper_Space
  1

  0
ENDBLK
  5
1D
330
1B
100
AcDbEntity
  8
0
100
AcDbBlockEnd
  0
ENDSEC
  0
SECTION
  2
ENTITIES
  0
LWPOLYLINE
  5
31
330
17
100
AcDbEntity
  8
CUT
100
AcDbPolyline
 90
137
 70
1
 10
10.130806258460286
 20
53.708378777270745
 10
10.517638090205041
 20
53.64437833337672
 10
10.884577380438003
 20
53.505981857656096
 10
11.21752285801744
 20
53.298507849057195
 10
11.414213562373096
 20
53.125652141521016
 10
11.66293922460509
 20
52.8219419700904
 10
11.847759065022574
 20
52.475441535046656
 10
11.96157056080646
 20
52.09946665378884
 10
11.995717846477207
 20
51.839547050037574
 10
12.000535376685516
 20
1.9878156589185778
 10
12.022441494938025
 20
1.7102443860453889
 10
12.096639349298428
 20
1.3913582346224587
 10
12.192747505533823
 20
1.1476405675978185
 10
12.356124014749042
 20
0.8640693220261824
 10
12.563413935221606
 20
0.6109548797220867
 10
12.757178176245306
 20
0.4349680511164138
 10
13.028863381798379
 20
0.2530522062792073
 10
13.326490885971166
 20
0.11791547012039416
 10
13.642110065290925
 20
0.03316779565656702
 10
14.016362826807617
 20
0.0
 10
163.81635406594506
 20
0.0005365020745813354
 10
164.15788993470898
 20
0.03316779565655281
 10
164.5347366813074
 20
0.1410083352178333
 10
164.88334790928815
 20
0.32045044320220484
 10
165.19032668466303
 20
0.5645982600317865
 10
165.4438759852507
 20
0.8640693220258697
 10
165.63425205362154
 20
1.2073551242171305
 10
165.73928336915222
 20
1.5174178026527159
 10
165.79678867152447
 20
1.905901962196765
 10
165.79999999999998
 20
51.708465830154545
 10
165.81711027725237
 20
51.9700669600131
 10
165.86814834742185
 20
52.227192022010236
 10
165.9522409349774
 20
52.475441535046656
 10
166.1370607753949
 20
52.8219419700904
 10
166.29632038504204
 20
53.029929417377694
 10
166.48130836979985
 20
53.21530625630867
 10
166.68885953396077
 20
53.37490063777307
 10
166.91542261956198
 20
53.505981857656096
 10
167.28236190979493
 20
53.64437833337672
 10
167.5389476155599
 20
53.69552368817121
 10
167.79999999999998
 20
53.712669932098514
 10
175.81635406594518
 20
53.71320643417312
 10
176.02848213368506
 20
53.7266015431736
 10
176.28576519608836
 20
53.77351419239909
 10
176.47350911402916
 20
53.830585402219036
 10
176.71344076223656
 20
53.934818235553344
 10
177.04282182375482
 20
54.14763798321504
 10
177.19032668466264
 20
54.277268192129945
 10
177.3659443559721
 20
54.471439735465296
 10
177.51476828518858
 20
54.68692100494852
 10
177.6072524944661
 20
54.86031049969619
 10
177.7392833691523
 20
55.23008773475158
 10
177.78609761245218
 20
55.487911619266306
 10
177.79946462331446
 20
55.70048559101682
 10
177.79944834560234
 20
58.472168291073395
 10
177.77687757655164
 20
58.7538920785407
 10
177.7200065423007
 20
59.013718054350605
 10
177.62928613844355
 20
59.263703324545595
 10
177.50631574936403
 20
59.49944069382745
 10
177.35326332087837
 20
59.71677415482474
 10
177.12380232340593
 20
59.95675978565944
 10
176.9136611602
 20
60.119278431021584
 10
176.6691101591351
 20
60.26007258049082
 10
142.04566399488812
 20
76.65260197424423
 10
141.70453313570087
 20
76.85798750446159
 10
141.50264692131623
 20
77.03086459067656
 10
141.32539579008824
 20
77.2290207788061
 10
141.11241311699285
 20
77.5659045887647
 10
140.97020846917158
 20
77.9383773508716
 10
140.90441232212928
 20
78.33169131394288
 10
140.8925099567726
 20
93.96047190594348
 10
140.85413884423232
 20
94.21969268717676
 10
140.7823318742776
 20
94.47167683549476
 10
140.67831768407297
 20
94.71211283225644
 10
140.54387598525074
 20
94.93688675089608
 10
140.38130711255243
 20
95.14215264734598
 10
140.1933926644631
 20
95.32439836520706
 10
139.98334790928783
 20
95.48050562971999
 10
139.75476677102438
 20
95.60780340230677
 10
139.57350911402932
 20
95.68304060280143
 10
139.32205353814888
 20
95.75499851466724
 10
139.12848213368503
 20
95.78702446184693
 10
138.91635406594514
 20
95.80041957084741
 10
130.8836459340548
 20
95.80041957084741
 10
130.54211006529087
 20
95.76778827726542
 10
130.16526331869255
 20
95.65994773770416
 10
129.81665209071187
 20
95.48050562971981
 10
129.55742149208984
 20
95.28117286658652
 10
129.29423008006324
 20
94.99017548412046
 10
129.09274750553365
 20
94.65331550532389
 10
128.96071663084768
 20
94.28353827026906
 10
128.9074900432273
 20
93.96047190594325
 10
128.89999999999998
 20
86.03969238807296
 10
128.88317134841088
 20
85.7802439232881
 10
128.83296859715793
 20
85.52516162632242
 10
128.69708639631875
 20
85.16007709311361
 10
128.4932778790162
 20
84.82824028077891
 10
128.22924660467433
 20
84.54219396543357
 10
128.02461418593865
 20
84.38235890958686
 10
127.68334473468373
 20
84.19561466770966
 10
127.31246639959494
 20
84.078572921535
 10
127.05565723594505
 20
84.04156753257335
 10
126.66689653603825
 20
84.04914769427437
 10
126.41171823981665
 20
84.09613595376705
 10
126.04566399488812
 20
84.2275466115128
 10
89.76968498690805
 20
101.40182990202317
 10
89.53366224425294
 20
101.4969889031533
 10
89.33759548046267
 20
101.55170571666211
 10
89.1369931059829
 20
101.58616179294341
 10
88.86606566604398
 20
101.6
 10
88.66300689401709
 20
101.58616179294341
 10
88.46240451953734
 20
101.55170571666213
 10
88.26633775574695
 20
101.49698890315325
 10
88.03031501309194
 20
101.40182990202317
 10
1.160682083384179
 20
60.27478864562449
 10
0.88633883979981
 20
60.11927843102147
 10
0.6271728602590758
 20
59.91187215775484
 10
0.40579229555872404
 20
59.664381896208575
 10
0.26002738522261803
 20
59.442074373442935
 10
0.17071386155652388
 20
59.2637033245458
 10
0.07999345769927912
 20
59.01371805435057
 10
0.023122423448358232
 20
58.75389207854077
 10
0.0033089372324117917
 20
58.55531594409255
 10
0.0
 20
55.73327125634607
 10
0.013902387547819703
 20
55.48791161926624
 10
0.060716630847727236
 20
55.23008773475136
 10
0.11766812572249108
 20
55.041949169525466
 10
0.22168231592713256
 20
54.801513172763855
 10
0.3197782530144618
 20
54.63124887222891
 10
0.47555806043160004
 20
54.42076259227209
 10
0.6096733153369034
 20
54.27726819213037
 10
0.7571781762453739
 20
54.14763798321488
 10
0.9722074432486888
 20
53.99850121851343
 10
1.2048225258560414
 20
53.87876628910857
 10
1.4510433155107967
 20
53.790481892839296
 10
1.7066569062366572
 20
53.73515860020281
 10
1.9836459340548138
 20
53.71320643417311
  0
LWPOLYLINE
  5
32
330
17
100
AcDbEntity
  8
CUT
100
AcDbPolyline
 90
145
 70
1
 10
127.6207614913729
 20
37.32266644836389
 10
142.9103332133549
 20
37.3297305915106
 10
143.87498373542041
 20
37.398346446671155
 10
145.0725029744031
 20
37.561011298836476
 10
146.0657203635711
 20
37.74951153280452
 10
146.40126972042557
 20
37.83792519920486
 10
146.66585235908278
 20
37.93234197036751
 10
146.66584950997287
 20
30.952632933538823
 10
146.3283252732888
 20
30.95263124635089
 10
146.32582459174412
 20
31.378169131490253
 10
146.30358311523375
 20
31.791837846823583
 10
146.25636959481076
 20
32.18134208437158
 10
146.18369278452104
 20
32.55390201195439
 10
146.08362891511678
 20
32.91451705732803
 10
145.99117469309834
 20
33.17273070909022
 10
145.84825093460736
 20
33.493351055680634
 10
145.68298960445665
 20
33.79060391626268
 10
145.54048079298263
 20
34.005223932748066
 10
145.3384943428565
 20
34.263478802758556
 10
145.1682598934722
 20
34.44937409329411
 10
144.96777649507902
 20
34.63450522538889
 10
144.54641284288618
 20
34.94530932408054
 10
144.29326639321957
 20
35.09199839377294
 10
144.0351286695272
 20
35.21671155201561
 10
143.7201445959373
 20
35.34029032078074
 10
143.32466437369914
 20
35.4580811488386
 10
142.98181421542515
 20
35.531770972308536
 10
142.54844985345676
 20
35.59239556232325
 10
137.93701436499555
 20
35.594941665721834
 10
137.71428553811188
 20
35.563684273605844
 10
137.52719833753693
 20
35.47891616584806
 10
137.35085542462946
 20
35.32426758181278
 10
137.24239273988044
 20
35.14984539650156
 10
137.1960672757057
 20
35.01038826598992
 10
137.17719601171405
 20
34.835123312440075
 10
137.1775172592282
 20
26.87967598882308
 10
137.19829141770288
 20
26.71450366016461
 10
137.26380061435813
 20
26.54044989986339
 10
137.35085542462946
 20
26.410163169143388
 10
137.4945524298062
 20
26.277327883269223
 10
137.66773338011217
 20
26.186210371665055
 10
137.89777511448466
 20
26.140452225684925
 10
140.99670494329783
 20
26.143905002437407
 10
141.42853130202332
 20
26.18495674782855
 10
141.8332287096579
 20
26.26494063937406
 10
142.22740623181954
 20
26.388004406391374
 10
142.59194900481768
 20
26.548660879455213
 10
142.96789684524083
 20
26.770791151312864
 10
143.35720568322057
 20
27.075088164063217
 10
143.66911885441652
 20
27.388181500615516
 10
143.96835657717756
 20
27.777577069067817
 10
144.11902641674524
 20
28.0294773965837
 10
144.22251301123532
 20
28.238855594225328
 10
144.33121748822697
 20
28.51172950719281
 10
144.41554462480389
 20
28.79250365986826
 10
144.51027288782944
 20
29.329955537776797
 10
144.5304661094606
 20
29.636985688862623
 10
144.53212650091865
 20
30.00231606347033
 10
144.86965073760268
 20
30.002317750658264
 10
144.8703420180605
 20
20.598605967516235
 10
144.86108428594736
 20
20.581574943142243
 10
144.53212818810658
 20
20.58213486775169
 10
144.50887413022394
 20
21.207865344607143
 10
144.46563476756307
 20
21.518331031010803
 10
144.40107886441132
 20
21.81113020014743
 10
144.31070016223563
 20
22.10318252041006
 10
144.2002959943137
 20
22.374397996854256
 10
144.09659428743302
 20
22.581490985345624
 10
143.94617821711586
 20
22.831121370411992
 10
143.6499307776842
 20
23.215656294361935
 10
143.342522738621
 20
23.524027654018326
 10
142.95849171613997
 20
23.823148518586805
 10
142.5934211075135
 20
24.03810696728999
 10
142.23573475904087
 20
24.195603228304748
 10
141.85121895709125
 20
24.316227092571253
 10
141.51485565814747
 20
24.38660887306699
 10
141.0835066658777
 20
24.435717930596866
 10
137.91738291530208
 20
24.44464228566146
 10
137.71428553811188
 20
24.413706141059635
 10
137.53551601112693
 20
24.334110295114925
 10
137.383438828901
 20
24.2109576535846
 10
137.28804924977425
 20
24.086643533761958
 10
137.2084534038305
 20
23.907874006779323
 10
137.17815915216465
 20
23.72438443040521
 10
137.1775172592282
 20
16.068602966688616
 10
137.19606727570564
 20
15.912969462832066
 10
137.24239273988036
 20
15.773512332320266
 10
137.3150348097492
 20
15.645772481191642
 10
137.41120189130515
 20
15.534658880286727
 10
137.5271983375363
 20
15.44444156297402
 10
137.6585664700648
 20
15.378587530164296
 10
137.80025788522983
 20
15.339627515407017
 10
137.9173829153027
 20
15.32873731061403
 10
141.45316611995497
 20
15.32927748427413
 10
142.03654683340633
 20
15.36229893043756
 10
142.58606093046413
 20
15.440218577577724
 10
143.1291361757415
 20
15.565346769291097
 10
143.6582494608983
 20
15.736962462073109
 10
144.16875968673008
 20
15.952907326311205
 10
144.78091540997113
 20
16.282953751769057
 10
145.14646988134783
 20
16.521116361020646
 10
145.43576230643623
 20
16.734214473946224
 10
145.7774548038973
 20
17.01710659443718
 10
146.04263394468012
 20
17.262455244653424
 10
146.36407873347528
 20
17.59386445661778
 10
146.61158875804745
 20
17.87739088264979
 10
146.912426529595
 20
18.259919497161192
 10
147.19576974925747
 20
18.669249781751603
 10
147.45366582251785
 20
19.095499168242
 10
147.6912933908546
 20
19.54657167632587
 10
147.86251171113616
 20
19.916238620347883
 10
148.06260186906235
 20
20.410933307801685
 10
148.2377598083399
 20
20.919383975678173
 10
148.39548473059557
 20
21.461901368253464
 10
148.73302414393928
 20
21.461892177878468
 10
147.44546250797714
 20
13.60066681205852
 10
127.62076317856082
 20
13.600689593269877
 10
127.6207614913729
 20
13.93821382995391
 10
128.24050708191356
 20
13.945762864066666
 10
128.441155259213
 20
13.970269010407549
 10
128.65125078148625
 20
14.017237466454873
 10
128.87204811622647
 20
14.093245193813232
 10
129.07508007974255
 20
14.190722282882192
 10
129.2515514143448
 20
14.300104187148804
 10
129.44200183226144
 20
14.447949447281658
 10
129.73939150616505
 20
14.754784088887632
 10
129.97271311750578
 20
15.103290238526384
 10
130.12779834486201
 20
15.471126182614839
 10
130.21386941619545
 20
15.874730369319664
 10
130.22964124827342
 20
16.100628585466268
 10
130.22964124827342
 20
34.82272914335542
 10
130.2147923980867
 20
35.04097809009778
 10
130.1768174927281
 20
35.26807378785617
 10
130.1160089997163
 20
35.488564522282786
 10
130.04481785932535
 20
35.67266763084103
 10
129.94395129106988
 20
35.87177317072238
 10
129.81834397310342
 20
36.0657504057116
 10
129.5277617247507
 20
36.39740203581627
 10
129.3317525134414
 20
36.56505492798412
 10
129.13380969289332
 20
36.69896624149462
 10
128.92566802957296
 20
36.80709996059906
 10
128.7073972570003
 20
36.88952169248708
 10
128.49160057971105
 20
36.94391132464774
 10
128.26060810219667
 20
36.97595800527124
 10
127.62076317856082
 20
36.98514221167984
  0
LWPOLYLINE
  5
33
330
17
100
AcDbEntity
  8
CUT
100
AcDbPolyline
 90
64
 70
1
 10
142.19424615176177
 20
66.31840025219498
 10
142.19874178594517
 20
66.07311048387893
 10
142.17917317077865
 20
65.82856120363408
 10
142.13572876272386
 20
65.5871075547163
 10
142.06882695517913
 20
65.35107486775385
 10
141.9791120491231
 20
65.12273626655099
 10
141.86744804814526
 20
64.9042907766621
 10
141.73491033761596
 20
64.69784214756747
 10
141.58277532813995
 20
64.50537859242155
 10
141.41250816302485
 20
64.32875364047281
 10
141.22574860814746
 20
64.16966828656058
 10
141.02429526011423
 20
64.02965460960795
 10
140.81008822479265
 20
63.91006101786354
 10
140.58519043303127
 20
63.812039262992705
 10
140.3517677735043
 20
63.736533348078105
 10
140.1120682340267
 20
63.68427043635683
 10
139.86840025219567
 20
63.655753848238255
 10
139.62311048387932
 20
63.65125821405481
 10
139.37856120363494
 20
63.670826829221234
 10
139.13710755471593
 20
63.714271237276215
 10
138.90107486775406
 20
63.78117304482078
 10
138.67273626655145
 20
63.87088795087666
 10
138.4542907766624
 20
63.98255195185457
 10
138.24784214756716
 20
64.11508966238424
 10
138.05537859242185
 20
64.26722467185976
 10
137.87875364047247
 20
64.4374918369755
 10
137.71966828656093
 20
64.6242513918521
 10
137.57965460960733
 20
64.82570473988669
 10
137.46006101786372
 20
65.039911775207
 10
137.36203926299225
 20
65.26480956696984
 10
137.2865333480783
 20
65.49823222649492
 10
137.23427043635684
 20
65.73793176597317
 10
137.2057538482382
 20
65.981599747805
 10
137.2012582140548
 20
66.22688951612105
 10
137.22082682922135
 20
66.47143879636614
 10
137.26427123727612
 20
66.71289244528369
 10
137.33117304482084
 20
66.94892513224613
 10
137.42088795087687
 20
67.177263733449
 10
137.5325519518544
 20
67.39570922333732
 10
137.66508966238402
 20
67.60215785243251
 10
137.81722467185983
 20
67.79462140757819
 10
137.98749183697512
 20
67.97124635952717
 10
138.17425139185252
 20
68.1303317134394
 10
138.37570473988575
 20
68.27034539039204
 10
138.58991177520733
 20
68.38993898213644
 10
138.8148095669687
 20
68.48796073700728
 10
139.04823222649568
 20
68.56346665192189
 10
139.28793176597327
 20
68.61572956364316
 10
139.5315997478043
 20
68.64424615176173
 10
139.77688951612066
 20
68.64874178594516
 10
140.02143879636503
 20
68.62917317077876
 10
140.26289244528405
 20
68.58572876272376
 10
140.49892513224592
 20
68.51882695517921
 10
140.72726373344852
 20
68.42911204912332
 10
140.9457092233376
 20
68.31744804814542
 10
141.15215785243282
 20
68.18491033761575
 10
141.34462140757813
 20
68.03277532814022
 10
141.5212463595275
 20
67.86250816302449
 10
141.68033171343905
 20
67.67574860814788
 10
141.82034539039265
 20
67.4742952601133
 10
141.93993898213625
 20
67.26008822479298
 10
142.03796073700772
 20
67.03519043303014
 10
142.11346665192167
 20
66.80176777350506
 10
142.16572956364314
 20
66.56206823402681
  0
LWPOLYLINE
  5
34
330
17
100
AcDbEntity
  8
CUT
100
AcDbPolyline
 90
99
 70
1
 10
90.03633074041673
 20
13.93821382995391
 10
90.71262329922871
 20
13.942077305601572
 10
91.09655512218502
 20
13.987016992786565
 10
91.3195159888388
 20
14.0401841070111
 10
91.54516409320378
 20
14.116834499721051
 10
91.93936855814863
 20
14.313515793418944
 10
92.308139929411
 20
14.584741000798658
 10
92.47260957443345
 20
14.747284444567512
 10
92.60650635522569
 20
14.910326269127324
 10
92.7334678274491
 20
15.102807890649714
 10
92.8324264164216
 20
15.292389685048462
 10
92.92277285515523
 20
15.51729018482753
 10
92.98637943797596
 20
15.730929399431048
 10
93.0525445805873
 20
16.07872703836246
 10
96.03485710352618
 20
37.79713453507581
 10
96.32992352739056
 20
37.79768650097107
 10
96.34967545395841
 20
37.78361876078705
 10
107.10072533988483
 20
23.097472436276803
 10
107.21645454977457
 20
22.975312914362462
 10
107.37420751581395
 20
22.873079520290844
 10
107.52334719374582
 20
22.819744487828046
 10
107.71015506053952
 20
22.798756728016585
 10
107.8674116059823
 20
22.817668315398578
 10
108.05268261866148
 20
22.886951221560594
 10
108.20612509321202
 20
22.995547133829987
 10
108.3167644748035
 20
23.122334854280552
 10
118.15522241818628
 20
37.78360349395362
 10
118.17388554749888
 20
37.797693790351005
 10
118.46918339140959
 20
37.79714515081841
 10
121.55127258040372
 20
16.091925968174067
 10
121.611776838763
 20
15.79781141776023
 10
121.74718845367701
 20
15.393842931364063
 10
121.94988610501392
 20
15.013382755908196
 10
122.19696245867482
 20
14.701707182038561
 10
122.50848351939116
 20
14.428493962061054
 10
122.72119193444594
 20
14.28703620750268
 10
122.93730083649096
 20
14.172489826871399
 10
123.16254183177175
 20
14.080673834841463
 10
123.40775394412942
 20
14.00905064797061
 10
123.84627196203776
 20
13.944655264715863
 10
124.56938061764522
 20
13.938215517141856
 10
124.56938230483314
 20
13.600691280457795
 10
112.53963175894413
 20
13.600689593269877
 10
112.53963007175618
 20
13.904323318912759
 10
113.13583729738392
 20
13.906337551971092
 10
113.35969063530563
 20
13.937742721812242
 10
113.63335539037854
 20
14.044591675129055
 10
113.87994801922778
 20
14.223760922931604
 10
114.09514114090815
 20
14.465623127879311
 10
114.26162593036318
 20
14.7402991938974
 10
114.36394903867543
 20
15.028377061918277
 10
114.40228587889844
 20
15.32331981111902
 10
113.35942599390529
 20
23.35995943925684
 10
113.26788887530032
 20
23.58600934825361
 10
113.10863255870336
 20
23.770711895784316
 10
112.89851376170527
 20
23.894516970753813
 10
112.7571241211438
 20
23.933802580779272
 10
112.64999796923074
 20
23.944669727679496
 10
112.46511932154411
 20
23.92705715450694
 10
112.2815420245135
 20
23.860069297596255
 10
112.12151673342512
 20
23.747909130107303
 10
112.0120967731462
 20
23.622753776295454
 10
107.36688498209197
 20
16.73748324291816
 10
106.95523053929534
 20
16.065500785291178
 10
106.74091725377974
 20
15.68196996467114
 10
106.50842765329136
 20
15.204142837027547
 10
106.27655433374898
 20
14.660704724129786
 10
106.13537906273514
 20
14.271346907565786
 10
106.03357299855656
 20
13.894744484102702
 10
105.96490855326542
 20
13.51085326425752
 10
105.93328800375853
 20
13.170006904446524
 10
105.92955536212052
 20
12.787343624340352
 10
105.61987042626357
 20
12.794351983134419
 10
97.91179986106974
 20
23.465221096293718
 10
97.81167872206817
 20
23.570304295106254
 10
97.65901954473395
 20
23.672469583693243
 10
97.52369730547245
 20
23.72495398812734
 10
97.37114841396918
 20
23.751078447307975
 10
97.22607332882689
 20
23.74661293297261
 10
97.0937759132248
 20
23.717272491454054
 10
96.9604149476211
 20
23.659987467229172
 10
96.87097094760155
 20
23.602179167213478
 10
96.77047858831006
 20
23.511268478032505
 10
96.68287733963993
 20
23.395541461399603
 10
96.63370912637237
 20
23.301071807571617
 10
96.58917915097274
 20
23.162927671112044
 10
95.6345239799937
 20
15.55345670673097
 10
95.62766242715875
 20
15.355550298665023
 10
95.66079449320212
 20
15.053482575233716
 10
95.7573293927499
 20
14.765036416871382
 10
95.91695787817281
 20
14.490876016305123
 10
96.13634669056674
 20
14.236999941852247
 10
96.26522558602358
 20
14.129126739671591
 10
96.39416754645018
 20
14.046235314026006
 10
96.66890114338047
 20
13.938207671590249
 10
96.8946567573076
 20
13.906337551971077
 10
97.4908622957473
 20
13.904325006100677
 10
97.49086398293522
 20
13.600691280457795
 10
90.0449097604379
 20
13.60012859028032
  0
LWPOLYLINE
  5
35
330
17
100
AcDbEntity
  8
CUT
100
AcDbPolyline
 90
5
 70
1
 10
90.11430941438121
 20
84.3967064937942
 10
95.69514548378866
 20
84.39514548378867
 10
95.69514548378866
 20
78.80485451621132
 10
90.10485451621132
 20
78.80485451621132
 10
90.1
 20
84.35085556902965
  0
LWPOLYLINE
  5
36
330
17
100
AcDbEntity
  8
CUT
100
AcDbPolyline
 90
5
 70
1
 10
90.11430941438121
 20
76.3967064937942
 10
95.69514548378866
 20
76.39514548378867
 10
95.69514548378866
 20
70.80485451621132
 10
90.10485451621132
 20
70.80485451621132
 10
90.1
 20
76.35085556902965
  0
LWPOLYLINE
  5
37
330
17
100
AcDbEntity
  8
CUT
100
AcDbPolyline
 90
110
 70
1
 10
75.64127851974311
 20
37.771974326179205
 10
76.33628676183613
 20
37.72978876107238
 10
77.19895376929168
 20
37.645611186592895
 10
77.7675814997138
 20
37.56960353217755
 10
78.58377586857131
 20
37.42945506912916
 10
79.12211067715707
 20
37.31531523000328
 10
79.89188050508093
 20
37.11929888918199
 10
80.39984068499622
 20
36.96692774385291
 10
81.12327674044964
 20
36.71514060627875
 10
81.600734477857
 20
36.524458427845815
 10
82.27766858778713
 20
36.2172158736018
 10
82.72156061993066
 20
35.99033333333391
 10
83.34352294117271
 20
35.634128709064996
 10
83.93473431563358
 20
35.24759482165402
 10
84.31848316084626
 20
34.96765583767116
 10
84.85035369461605
 20
34.53525714837362
 10
85.19622019133335
 20
34.22205810305671
 10
85.6721269737791
 20
33.741792606017455
 10
85.97986707747386
 20
33.39545467769766
 10
86.40002927120534
 20
32.8671419011131
 10
86.66944073939365
 20
32.48786753835438
 10
87.03353066218962
 20
31.911753011791248
 10
87.26250941492872
 20
31.500495737348714
 10
87.56372463197995
 20
30.88007145203356
 10
87.74853550697239
 20
30.43923159619969
 10
87.98586450001359
 20
29.77469642184502
 10
88.12650171750458
 20
29.30456417362076
 10
88.2482707239031
 20
28.826477595178403
 10
88.39582887108124
 20
28.099907733104786
 10
88.47460162173697
 20
27.589244569603224
 10
88.55807099339228
 20
26.818103222053765
 10
88.59298643315779
 20
26.278610467183725
 10
88.61221261925546
 20
25.462809290455866
 10
88.60339579756143
 20
24.910434879359386
 10
88.55827504744288
 20
24.118220743800677
 10
88.50564792221984
 20
23.593384516199663
 10
88.39629746616367
 20
22.843865752745188
 10
88.29971362629726
 20
22.34666367281696
 10
88.12650021105547
 20
21.640504147049384
 10
87.98587560143093
 20
21.171111617716406
 10
87.74852676581165
 20
20.506581725030898
 10
87.56375816647184
 20
20.065220548727353
 10
87.26248946479942
 20
19.44282278655352
 10
87.03359440739301
 20
19.029772569967164
 10
86.66943582609687
 20
18.450105819517916
 10
86.40003690413425
 20
18.068650110340187
 10
85.97986604688737
 20
17.537443679212245
 10
85.67212386890489
 20
17.18934435039563
 10
85.19268594292407
 20
16.70348286086464
 10
84.68332360393512
 20
16.249947162891957
 10
84.31473574845636
 20
15.955456959134693
 10
83.74922107972303
 20
15.55035038235458
 10
83.34598540732291
 20
15.291517127589273
 10
82.92454905767623
 20
15.044441145808818
 10
82.28008008770546
 20
14.70734053304389
 10
81.59682613297878
 20
14.397239919111641
 10
81.11938725614311
 20
14.206760267188486
 10
80.39603620493236
 20
13.955204267834205
 10
79.89422822740585
 20
13.804719476838144
 10
79.1184909669248
 20
13.607203644762734
 10
78.58024090814922
 20
13.493221764041849
 10
77.76419963461196
 20
13.353242522339528
 10
77.19567260675414
 20
13.277364853830136
 10
76.33317051058644
 20
13.193321941560669
 10
75.63193839071164
 20
13.151273710122737
 10
75.63195694792009
 20
14.917958398770665
 10
75.9476866728572
 20
14.985483695706236
 10
76.3240926432089
 20
15.092302555712152
 10
76.59813113585683
 20
15.189998370883217
 10
76.95073502371434
 20
15.342777274720135
 10
77.20787776097308
 20
15.47541172751896
 10
77.5376872287757
 20
15.674426106757977
 10
77.77703078717637
 20
15.841452085811852
 10
78.09332612994362
 20
16.094623154081148
 10
78.38849047252542
 20
16.367517164439377
 10
78.6014991640002
 20
16.588753084045507
 10
78.87792314471534
 20
16.910935384965697
 10
79.13401444569173
 20
17.250730305364755
 10
79.54508020597243
 20
17.89941766199044
 10
79.91338985108726
 20
18.624949824158506
 10
80.22531335988535
 20
19.39348623497152
 10
80.45121549162606
 20
20.081217768172593
 10
80.64278694551636
 20
20.802809227101477
 10
80.83400669183526
 20
21.743682759850714
 10
80.95408328212156
 20
22.555590762021097
 10
81.042310518947
 20
23.411589026575157
 10
81.1063433978522
 20
24.518383526189453
 10
81.12242369897767
 20
25.459802186261612
 10
81.10634339785219
 20
26.404974202632587
 10
81.04231051894718
 20
27.511768702244566
 10
80.95408328212143
 20
28.367766966801625
 10
80.83400669183555
 20
29.17967496896928
 10
80.6427869455168
 20
30.12054850171839
 10
80.4512154916261
 20
30.842139960648964
 10
80.22531335988513
 20
31.529871493850735
 10
79.91338985108708
 20
32.29840790466356
 10
79.54508020597193
 20
33.02394006683208
 10
79.13401444569199
 20
33.67262742345659
 10
78.8779231447157
 20
34.012422343855576
 10
78.6014991640002
 20
34.33460464477618
 10
78.3884904725248
 20
34.55584056438292
 10
78.09332612994275
 20
34.828734574741304
 10
77.7770307871762
 20
35.081905643009975
 10
77.53768722877575
 20
35.248931622063665
 10
77.20787776097295
 20
35.447946001302824
 10
76.9507350237143
 20
35.58058045410159
 10
76.59813113585732
 20
35.7333593579383
 10
76.32409264320873
 20
35.83105517310959
 10
75.94768667285635
 20
35.93787403311565
 10
75.63195844036007
 20
36.005397551856106
  0
LWPOLYLINE
  5
38
330
17
100
AcDbEntity
  8
CUT
100
AcDbPolyline
 90
5
 70
1
 10
82.10485451621132
 20
78.80485451621132
 10
82.10485451621132
 20
84.39514548378867
 10
87.69514548378866
 20
84.39514548378867
 10
87.69514548378866
 20
78.80485451621132
 10
82.14914443097035
 20
78.8
  0
LWPOLYLINE
  5
39
330
17
100
AcDbEntity
  8
CUT
100
AcDbPolyline
 90
5
 70
1
 10
82.10485451621132
 20
70.80485451621132
 10
82.10485451621132
 20
76.39514548378867
 10
87.69514548378866
 20
76.39514548378867
 10
87.69514548378866
 20
70.80485451621132
 10
82.14914443097035
 20
70.8
  0
LWPOLYLINE
  5
3A
330
17
100
AcDbEntity
  8
CUT
100
AcDbPolyline
 90
106
 70
1
 10
72.4031161719571
 20
37.705574509075795
 10
73.42933276540458
 20
37.77354294407138
 10
73.42931519938925
 20
36.00852012150533
 10
73.0997060900382
 20
35.937818809606696
 10
72.72765180022307
 20
35.8310751712213
 10
72.45605272665827
 20
35.7333240347502
 10
72.10637407922869
 20
35.58058471871307
 10
71.85092519313721
 20
35.447967166555074
 10
71.52263569370984
 20
35.24890717463977
 10
71.28419557206055
 20
35.08200353196139
 10
70.9819625889018
 20
34.840587834396075
 10
70.75640522123628
 20
34.636733061638125
 10
70.47136887757358
 20
34.34705487240133
 10
70.01068118162074
 20
33.7878797043776
 10
69.58994124619423
 20
33.15089024147899
 10
69.21682545261008
 20
32.446670043597436
 10
68.89233060908528
 20
31.68163151779399
 10
68.61024919999372
 20
30.84213996064969
 10
68.37688069370009
 20
29.93872362448009
 10
68.19262285746129
 20
28.969168687737238
 10
68.05910903694979
 20
27.94384189535876
 10
67.97458130281558
 20
26.849535637964834
 10
67.94000363334189
 20
25.695631168662217
 10
67.96380901202005
 20
24.296820724842547
 10
68.0193942659112
 20
23.4085854916446
 10
68.10677114329202
 20
22.560477846240047
 10
68.22593493320511
 20
21.752495421872354
 10
68.37688069370036
 20
20.984634104340373
 10
68.55960371746956
 20
20.25688750152925
 10
68.77403324164648
 20
19.56927514647235
 10
69.01770307992341
 20
18.925412826987568
 10
69.28733985447516
 20
18.331229662184427
 10
69.66943125300774
 20
17.640978160688746
 10
70.09342965717624
 20
17.025600020100356
 10
70.56171256003365
 20
16.480302722247345
 10
71.07399458864568
 20
16.005466228930004
 10
71.3059001992814
 20
15.825339501565708
 10
71.62631712811212
 20
15.607887825028953
 10
71.87538450969663
 20
15.461882487871165
 10
72.20938193212262
 20
15.294489193560267
 10
72.48210051968908
 20
15.179897140967668
 10
72.83762090084349
 20
15.057614510852659
 10
73.42931371624151
 20
14.914839378427885
 10
73.42933669083318
 20
13.14981854247901
 10
72.69712106312457
 20
13.193172971279125
 10
72.11093288336521
 20
13.246352593335786
 10
71.26810384237407
 20
13.352928343865614
 10
70.71260230036698
 20
13.444182312544527
 10
69.91688975930686
 20
13.606683370469085
 10
69.39818718521191
 20
13.734505214915586
 10
68.88574969380258
 20
13.879239819229028
 10
68.15588303902884
 20
14.119860654328846
 10
67.21160066274751
 20
14.498710916834327
 10
66.54849521914218
 20
14.816273349524124
 10
66.11426622395732
 20
15.049822176410686
 10
65.50971310388266
 20
15.413522801112393
 10
65.11262635218563
 20
15.680151781647979
 10
64.5605455374155
 20
16.09343537407574
 10
64.19842322377421
 20
16.395445495101782
 10
63.7041447219017
 20
16.854451850889944
 10
63.38202624803417
 20
17.18753500974431
 10
62.94052449981611
 20
17.696633380672523
 10
62.65623068166334
 20
18.06272582489801
 10
62.269727541210784
 20
18.62002639556657
 10
62.02362930488053
 20
19.018907044743855
 10
61.79740276190735
 20
19.425845877859942
 10
61.4977400596402
 20
20.043286276786958
 10
61.312929184646734
 20
20.484126132623274
 10
61.14775786521607
 20
20.93218828614657
 10
60.93701479390128
 20
21.61143894562359
 10
60.8131939677165
 20
22.096880133643367
 10
60.66563582053858
 20
22.823449995715805
 10
60.58776697969646
 20
23.327350875703303
 10
60.50339369822743
 20
24.10525450676701
 10
60.468478258461815
 20
24.64474726163803
 10
60.45134902756569
 20
25.1895653499854
 10
60.45786218076661
 20
26.006813131797003
 10
60.48418528153127
 20
26.54817901230315
 10
60.55501590766936
 20
27.323306158796413
 10
60.62520876841647
 20
27.837104304781718
 10
60.760209624592996
 20
28.569571945097636
 10
60.87442251202283
 20
29.055713975487464
 10
61.07318786840833
 20
29.74484305185834
 10
61.23146609545966
 20
30.203054623990738
 10
61.49438361973225
 20
30.850698594254496
 10
61.696810443730584
 20
31.280770011976543
 10
62.023654525163074
 20
31.886394350907352
 10
62.26971511679855
 20
32.28758383505243
 10
62.65623417882312
 20
32.84817583849663
 10
62.94052090012509
 20
33.21628213378615
 10
63.38202539099744
 20
33.72800995108025
 10
63.70415256460516
 20
34.06268482710465
 10
64.20443995004318
 20
34.52894271211845
 10
64.73424934123759
 20
34.963100443350356
 10
65.11640452485776
 20
35.24410942144617
 10
65.50971075684683
 20
35.508780362803094
 10
66.11810603759093
 20
35.8753657770463
 10
66.76562811758875
 20
36.21601400346184
 10
67.2220024789427
 20
36.42927474652251
 10
67.91429363090789
 20
36.71420988702184
 10
68.39569232253788
 20
36.88726408890797
 10
68.89573554773138
 20
37.04712229017585
 10
69.65367454925249
 20
37.25407441618066
 10
70.1845063566279
 20
37.37569876694384
 10
70.98948545253509
 20
37.52684506437501
 10
71.55102673560738
 20
37.61033892502829
  0
LWPOLYLINE
  5
3B
330
17
100
AcDbEntity
  8
CUT
100
AcDbPolyline
 90
146
 70
1
 10
29.067301377344933
 20
37.32266644836389
 10
41.23261396739867
 20
37.32266813555182
 10
41.2326156545866
 20
36.98514389886779
 10
40.620916576613155
 20
36.97817392557462
 10
40.25890439952359
 20
36.921119137405796
 10
40.043893680817014
 20
36.85461998463529
 10
39.86280723175056
 20
36.776679840231964
 10
39.67637979726308
 20
36.6724794038487
 10
39.50528267419882
 20
36.55246725108418
 10
39.207003710269554
 20
36.27624034851631
 10
38.978203442762194
 20
35.98349427663403
 10
38.80350457315372
 20
35.661132465639966
 10
38.68821143444671
 20
35.318174061949605
 10
38.64379609284126
 20
35.08234566526596
 10
38.62373589768609
 20
34.82272914335559
 10
38.62373589768609
 20
27.068759993721315
 10
38.644831303675105
 20
26.88395621536972
 10
38.71034050033057
 20
26.70990245506853
 10
38.82328313900041
 20
26.55009631363376
 10
38.973738223508576
 20
26.42496714031421
 10
39.15145248848411
 20
26.343042281486035
 10
39.34431500045652
 20
26.309904780890804
 10
46.98046501448053
 20
26.308941640440196
 10
47.1172214942461
 20
26.32015309274736
 10
47.25891290941063
 20
26.359113107504456
 10
47.38196336834908
 20
26.419794878500966
 10
47.4991286945681
 20
26.508488881754346
 10
47.57283764150467
 20
26.587187123449198
 10
47.65367876511733
 20
26.709902455068416
 10
47.70902597564574
 20
26.846031166837562
 10
47.73675231082873
 20
26.990341908705645
 10
47.74027046507676
 20
34.84639915732899
 10
47.70949300124791
 20
35.22169164850317
 10
47.61646477423445
 20
35.572753843166424
 10
47.4516474907375
 20
35.9149811273892
 10
47.23082123982309
 20
36.21560541668015
 10
46.945108592661
 20
36.49322415719712
 10
46.76465376785862
 20
36.62821347294678
 10
46.56708534215273
 20
36.74623921594481
 10
46.35255445685004
 20
36.843707629914846
 10
46.15579956199427
 20
36.908367526184676
 10
45.7513691788478
 20
36.97759297233942
 10
45.13140529804929
 20
36.98514221167984
 10
45.13140361086135
 20
37.32266644836389
 10
57.29671620091509
 20
37.32266813555182
 10
57.29671788810303
 20
36.985143898867776
 10
56.67697229756154
 20
36.97759486475496
 10
56.47632412026235
 20
36.95308871841405
 10
56.26622859799063
 20
36.90612026236708
 10
56.04543126324904
 20
36.8301125350083
 10
55.84239929973293
 20
36.732635445939266
 10
55.66592796513119
 20
36.62325354167295
 10
55.47547754721525
 20
36.47540828154071
 10
55.17808787331078
 20
36.16857363993395
 10
54.944766261970976
 20
35.82006749029695
 10
54.7896810346138
 20
35.45223154620656
 10
54.70360996328055
 20
35.04862735950273
 10
54.68783813120251
 20
34.82272914335576
 10
54.68783813120251
 20
16.10062858546594
 10
54.702686981389334
 20
15.882379638722938
 10
54.7406618867477
 20
15.655283940966072
 10
54.80147037975959
 20
15.434793206538828
 10
54.872661520151226
 20
15.25069009797916
 10
54.97352808840589
 20
15.05158455809952
 10
55.09913540637209
 20
14.857607323110628
 10
55.38971765472524
 20
14.525955693005443
 10
55.5857268660331
 20
14.358302800838644
 10
55.78366968658282
 20
14.224391487326955
 10
55.99181134990297
 20
14.11625776822261
 10
56.210082122475924
 20
14.03383603633452
 10
56.42587879976446
 20
13.979446404174041
 10
56.65687127727989
 20
13.947399723550376
 10
57.29671620091509
 20
13.938215517141856
 10
57.29671788810302
 20
13.600691280457795
 10
45.13140529804928
 20
13.600689593269877
 10
45.13140361086135
 20
13.93821382995391
 10
45.74335650148738
 20
13.945189278924957
 10
46.11945305606718
 20
14.005397241592348
 10
46.32402120154981
 20
14.068877334274447
 10
46.51440777360566
 20
14.150383747135848
 10
46.71427928298281
 20
14.262256835120738
 10
46.896583965951585
 20
14.391082701492266
 10
47.18096739067196
 20
14.652509660320433
 10
47.40804954617077
 20
14.939551656251894
 10
47.5764840884856
 20
15.250229195305451
 10
47.684063108316664
 20
15.576205823888557
 10
47.72631181915816
 20
15.821177356262353
 10
47.74023175771514
 20
16.071056463608073
 10
47.74028336776186
 20
23.8545977351003
 10
47.71918796177289
 20
24.039401513451793
 10
47.65367876511733
 20
24.213455273753283
 10
47.54073612644775
 20
24.373261415187713
 10
47.39028104193946
 20
24.49839058850742
 10
47.21256677696388
 20
24.58031544733562
 10
47.01970426499143
 20
24.613452947930895
 10
39.38355425096742
 20
24.614416088381503
 10
39.24679777120129
 20
24.60320463607424
 10
39.10510635603704
 20
24.564244621317144
 10
38.98205589709887
 20
24.50356285032072
 10
38.86489057087994
 20
24.41486884706744
 10
38.79118162394282
 20
24.33617060537192
 10
38.71034050033057
 20
24.21345527375317
 10
38.654993289802086
 20
24.077326561983682
 10
38.62726695461918
 20
23.933015820115543
 10
38.62373589768609
 20
16.100628585466083
 10
38.655861771733846
 20
15.761573772933858
 10
38.75678625909719
 20
15.379226554602084
 10
38.915642159220006
 20
15.040836852985393
 10
39.14846812263503
 20
14.713384021157566
 10
39.43260722603225
 20
14.429783706473316
 10
39.60880158612251
 20
14.295281691917054
 10
39.8029277360682
 20
14.177359602757633
 10
39.98954920125627
 20
14.089898924763943
 10
40.210582147794526
 20
14.014908291095594
 10
40.612870064045694
 20
13.94576286406668
 10
41.23261396739867
 20
13.938215517141856
 10
41.2326156545866
 20
13.60069128045778
 10
29.06730306453287
 20
13.600689593269877
 10
29.067301377344933
 20
13.93821382995391
 10
29.687046967886573
 20
13.945762864066737
 10
29.8876951451855
 20
13.97026901040762
 10
30.097790667457865
 20
14.017237466454759
 10
30.318588002198517
 20
14.093245193813246
 10
30.521619965714418
 20
14.190722282882092
 10
30.698091300315866
 20
14.300104187148136
 10
30.888541718233135
 20
14.44794944728136
 10
31.1859313921368
 20
14.754784088887263
 10
31.419253003476953
 20
15.103290238524707
 10
31.57433823083415
 20
15.471126182615123
 10
31.66040930216743
 20
15.874730369319195
 10
31.67618113424545
 20
16.100628585466012
 10
31.67618113424545
 20
34.82272914335567
 10
31.6613322840586
 20
35.04097809009892
 10
31.623357378700216
 20
35.26807378785584
 10
31.56254888568853
 20
35.488564522282374
 10
31.491357745297062
 20
35.67266763084179
 10
31.39049117704201
 20
35.871773170722264
 10
31.264883859075404
 20
36.0657504057117
 10
30.974301610723288
 20
36.397402035815716
 10
30.77829239941438
 20
36.565054927983425
 10
30.580349578864926
 20
36.69896624149489
 10
30.372207915545513
 20
36.80709996059885
 10
30.153937142972083
 20
36.88952169248718
 10
29.93814046568313
 20
36.94391132464773
 10
29.707147988168625
 20
36.975958005271266
 10
29.067303064532865
 20
36.98514221167984
  0
LWPOLYLINE
  5
3C
330
17
100
AcDbEntity
  8
CUT
100
AcDbPolyline
 90
64
 70
1
 10
40.594246151761745
 20
66.31840025219549
 10
40.59874178594517
 20
66.07311048387938
 10
40.57917317077873
 20
65.82856120363482
 10
40.535728762723885
 20
65.58710755471645
 10
40.468826955179054
 20
65.3510748677536
 10
40.37911204912336
 20
65.1227362665515
 10
40.267448048145525
 20
64.90429077666258
 10
40.13491033761598
 20
64.69784214756748
 10
39.98277532814041
 20
64.50537859242209
 10
39.8125081630248
 20
64.32875364047277
 10
39.62574860814716
 20
64.16966828656035
 10
39.42429526011429
 20
64.029654609608
 10
39.21008822479279
 20
63.910061017863605
 10
38.985190433031
 20
63.8120392629926
 10
38.751767773504156
 20
63.73653334807806
 10
38.51206823402676
 20
63.68427043635685
 10
38.2684002521955
 20
63.65575384823824
 10
38.02311048387938
 20
63.65125821405481
 10
37.778561203634816
 20
63.670826829221255
 10
37.53710755471645
 20
63.7142712372761
 10
37.301074867753606
 20
63.78117304482093
 10
37.07273626655178
 20
63.870887950876515
 10
36.85429077666257
 20
63.98255195185446
 10
36.647842147567495
 20
64.11508966238401
 10
36.45537859242199
 20
64.26722467185965
 10
36.278753640472765
 20
64.43749183697518
 10
36.11966828656035
 20
64.62425139185282
 10
35.979654609608
 20
64.8257047398857
 10
35.86006101786361
 20
65.0399117752072
 10
35.7620392629926
 20
65.26480956696898
 10
35.686533348078065
 20
65.49823222649583
 10
35.63427043635685
 20
65.73793176597323
 10
35.605753848238244
 20
65.9815997478045
 10
35.601258214054816
 20
66.22688951612061
 10
35.62082682922124
 20
66.47143879636498
 10
35.664271237276104
 20
66.71289244528353
 10
35.731173044820935
 20
66.94892513224639
 10
35.82088795087652
 20
67.1772637334482
 10
35.932551951854464
 20
67.3957092233374
 10
36.06508966238401
 20
67.6021578524325
 10
36.217224671859746
 20
67.79462140757809
 10
36.38749183697519
 20
67.97124635952721
 10
36.574251391852826
 20
68.13033171343963
 10
36.7757047398857
 20
68.27034539039198
 10
36.9899117752072
 20
68.38993898213639
 10
37.21480956696899
 20
68.48796073700738
 10
37.44823222649583
 20
68.56346665192191
 10
37.687931765973225
 20
68.61572956364313
 10
37.93159974780449
 20
68.64424615176173
 10
38.17688951612061
 20
68.64874178594516
 10
38.42143879636498
 20
68.62917317077876
 10
38.66289244528354
 20
68.58572876272387
 10
38.89892513224638
 20
68.51882695517905
 10
39.12726373344821
 20
68.42911204912346
 10
39.345709223337415
 20
68.31744804814552
 10
39.552157852432494
 20
68.18491033761597
 10
39.744621407578094
 20
68.03277532814025
 10
39.921246359527224
 20
67.8625081630248
 10
40.08033171343964
 20
67.67574860814716
 10
40.22034539039199
 20
67.47429526011429
 10
40.33993898213638
 20
67.26008822479278
 10
40.43796073700739
 20
67.035190433031
 10
40.51346665192191
 20
66.8017677735042
 10
40.56572956364314
 20
66.56206823402675
  0
LWPOLYLINE
  5
3D
330
17
100
AcDbEntity
  8
SCORE_OPTIONAL
100
AcDbPolyline
 90
91
 70
1
 10
87.40556973764778
 20
96.46941428992109
 10
14.380112509289436
 20
61.961575427692054
 10
13.997993849282661
 20
61.71598879487016
 10
13.650898470109322
 20
61.42298322785361
 10
13.344672519487016
 20
61.08749383649877
 10
13.084473778964322
 20
60.71517128819344
 10
12.874684791105334
 20
60.3122866333364
 10
12.789833065528466
 20
60.10148704794671
 10
12.66200198119478
 20
59.66561243475589
 10
12.59169636665754
 20
59.2168534960029
 10
12.580100383483344
 20
58.762768704669384
 10
12.627409343493195
 20
58.31100623738269
 10
12.732826419114101
 20
57.86917515573077
 10
12.894576064392368
 20
57.44471724639401
 10
13.109933920617667
 20
57.04478167869815
 10
13.236616101072007
 20
56.85613410863913
 10
13.525319259749383
 20
56.505451986602836
 10
14.283307752882966
 20
55.8023538376815
 10
14.725485969134262
 20
55.298146216484554
 10
15.020843758883673
 20
54.885974898239894
 10
15.356159617515509
 20
54.30519079450598
 10
15.565431554952111
 20
53.843317786254815
 10
15.700235541861339
 20
53.47451803146425
 10
15.87380780253902
 20
52.826737535830546
 10
15.956407440672333
 20
52.32643890568107
 10
15.991165692745767
 20
51.93531585863182
 10
16.0
 20
51.636820741627986
 10
16.007493734576812
 20
7.271605229374998
 10
16.067251213545767
 20
6.817701068096056
 10
16.185743709096684
 20
6.375480000735877
 10
16.36094379099101
 20
5.95250851798167
 10
16.589853750874482
 20
5.556023746287707
 10
16.86855689366514
 20
5.192809619197817
 10
17.19228455298755
 20
4.869080802889002
 10
17.555497684005882
 20
4.590376361993407
 10
17.951981637586076
 20
4.361464985097271
 10
18.160599319257532
 20
4.266940888001869
 10
18.374952494182406
 20
4.186263391527945
 10
18.817173138054297
 20
4.067769315504734
 10
19.271077085760496
 20
4.008010214308385
 10
19.499987491198205
 20
4.0005156616187065
 10
158.2995116375518
 20
4.0000195999796375
 10
158.75635133056065
 20
4.0299606777241905
 10
159.20537465550743
 20
4.119274880954421
 10
159.6388987693006
 20
4.2664340329116754
 10
160.04950602221538
 20
4.46892022280791
 10
160.2440016859279
 20
4.589863745352403
 10
160.60721639102437
 20
4.868564393443904
 10
160.93094620428016
 20
5.192289556590509
 10
161.07624425325673
 20
5.369332985759897
 10
161.33059838597745
 20
5.749994184745034
 10
161.5330904739264
 20
6.160598529051086
 10
161.68025585312606
 20
6.594120528965661
 10
161.73226587572069
 20
6.8171695289592975
 10
161.7695765062395
 20
7.043142570932758
 10
161.79952414614985
 20
7.49998183381274
 10
161.80883430725422
 20
51.93531585863198
 10
161.85853599726047
 20
52.4399455858178
 10
161.92619219746086
 20
52.8267375358301
 10
162.01900094443528
 20
53.2082764073827
 10
162.13656481688056
 20
53.58292839245114
 10
162.27838038824652
 20
53.94908917371898
 10
162.57499321209457
 20
54.55056048054026
 10
162.84276132415152
 20
54.98116663204522
 10
163.2510160466919
 20
55.513214545042096
 10
163.59764616231848
 20
55.883307752883006
 10
164.27433729227982
 20
56.50516968218305
 10
164.56303916852576
 20
56.855849434846775
 10
164.80389444334207
 20
57.24096474078693
 10
164.99284642451846
 20
57.65402915596419
 10
165.06682843208313
 20
57.868883388537405
 10
165.17224656659477
 20
58.31071149899701
 10
165.21955730340363
 20
58.76247112142781
 10
165.20796379428785
 20
59.21655333074964
 10
165.13766130712418
 20
59.66531008287134
 10
165.00983393701807
 20
60.10118302964365
 10
164.82663466275307
 20
60.51683082307577
 10
164.7151996982614
 20
60.71486599012107
 10
164.45500571423398
 20
61.08718863642689
 10
164.14878472136346
 20
61.42267897280278
 10
163.80169435764364
 20
61.7156863817348
 10
163.6146257663981
 20
61.844686462615904
 10
163.2173810592101
 20
62.06496289096753
 10
90.1775847587575
 20
96.56354583582947
 10
89.72464136255297
 20
96.7064225369047
 10
89.49194568407272
 20
96.7544916552311
 10
89.25652478456188
 20
96.78666181210927
 10
88.78185492237664
 20
96.8027861356138
 10
88.54479362277105
 20
96.78666598830146
 10
88.07667610317958
 20
96.70643220659463
 10
87.62373103030414
 20
96.5635608209595
  0
ENDSEC
  0
SECTION
  2
OBJECTS
  0
DICTIONARY
  5
A
330
0
100
AcDbDictionary
281
1
  3
ACAD_COLOR
350
B
  3
ACAD_GROUP
350
C
  3
ACAD_LAYOUT
350
D
  3
ACAD_MATERIAL
350
E
  3
ACAD_MLEADERSTYLE
350
F
  3
ACAD_MLINESTYLE
350
10
  3
ACAD_PLOTSETTINGS
350
11
  3
ACAD_PLOTSTYLENAME
350
12
  3
ACAD_SCALELIST
350
14
  3
ACAD_TABLESTYLE
350
15
  3
ACAD_VISUALSTYLE
350
16
  3
EZDXF_META
350
2D
  0
DICTIONARY
  5
B
330
A
100
AcDbDictionary
281
1
  0
DICTIONARY
  5
C
330
A
100
AcDbDictionary
281
1
  0
DICTIONARY
  5
D
330
A
100
AcDbDictionary
281
1
  3
Model
350
1A
  3
Layout1
350
1E
  0
DICTIONARY
  5
E
330
A
100
AcDbDictionary
281
1
  3
ByBlock
350
1F
  3
ByLayer
350
20
  3
Global
350
21
  0
DICTIONARY
  5
F
330
A
100
AcDbDictionary
281
1
  3
Standard
350
2C
  0
DICTIONARY
  5
10
330
A
100
AcDbDictionary
281
1
  3
Standard
350
22
  0
DICTIONARY
  5
11
330
A
100
AcDbDictionary
281
1
  0
ACDBDICTIONARYWDFLT
  5
12
330
A
100
AcDbDictionary
281
1
  3
Normal
350
13
100
AcDbDictionaryWithDefault
340
13
  0
ACDBPLACEHOLDER
  5
13
330
12
  0
DICTIONARY
  5
14
330
A
100
AcDbDictionary
281
1
  0
DICTIONARY
  5
15
330
A
100
AcDbDictionary
281
1
  0
DICTIONARY
  5
16
330
A
100
AcDbDictionary
281
1
  0
LAYOUT
  5
1A
330
D
100
AcDbPlotSettings
  1

  4
A3
  6

 40
7.5
 41
20.0
 42
7.5
 43
20.0
 44
420.0
 45
297.0
 46
0.0
 47
0.0
 48
0.0
 49
0.0
140
0.0
141
0.0
142
1.0
143
1.0
 70
1024
 72
1
 73
0
 74
5
  7

 75
16
 76
0
 77
2
 78
300
147
1.0
148
0.0
149
0.0
100
AcDbLayout
  1
Model
 70
1
 71
0
 10
0.0
 20
0.0
 11
420.0
 21
297.0
 12
0.0
 22
0.0
 32
0.0
 14
1e+20
 24
1e+20
 34
1e+20
 15
-1e+20
 25
-1e+20
 35
-1e+20
146
0.0
 13
0.0
 23
0.0
 33
0.0
 16
1.0
 26
0.0
 36
0.0
 17
0.0
 27
1.0
 37
0.0
 76
1
330
17
  0
LAYOUT
  5
1E
330
D
100
AcDbPlotSettings
  1

  4
A3
  6

 40
7.5
 41
20.0
 42
7.5
 43
20.0
 44
420.0
 45
297.0
 46
0.0
 47
0.0
 48
0.0
 49
0.0
140
0.0
141
0.0
142
1.0
143
1.0
 70
0
 72
1
 73
0
 74
5
  7

 75
16
 76
0
 77
2
 78
300
147
1.0
148
0.0
149
0.0
100
AcDbLayout
  1
Layout1
 70
1
 71
1
 10
0.0
 20
0.0
 11
420.0
 21
297.0
 12
0.0
 22
0.0
 32
0.0
 14
1e+20
 24
1e+20
 34
1e+20
 15
-1e+20
 25
-1e+20
 35
-1e+20
146
0.0
 13
0.0
 23
0.0
 33
0.0
 16
1.0
 26
0.0
 36
0.0
 17
0.0
 27
1.0
 37
0.0
 76
1
330
1B
  0
MATERIAL
  5
1F
102
{ACAD_REACTORS
330
E
102
}
330
E
100
AcDbMaterial
  1
ByBlock
  2

 70
0
 40
1.0
 71
1
 41
1.0
 91
-1023410177
 42
1.0
 72
1
  3

 73
1
 74
1
 75
1
 44
0.5
 73
0
 45
1.0
 46
1.0
 77
1
  4

 78
1
 79
1
170
1
 48
1.0
171
1
  6

172
1
173
1
174
1
140
1.0
141
1.0
175
1
  7

176
1
177
1
178
1
143
1.0
179
1
  8

270
1
271
1
272
1
145
1.0
146
1.0
273
1
  9

274
1
275
1
276
1
 42
1.0
 72
1
  3

 73
1
 74
1
 75
1
 94
63
  0
MATERIAL
  5
20
102
{ACAD_REACTORS
330
E
102
}
330
E
100
AcDbMaterial
  1
ByLayer
  2

 70
0
 40
1.0
 71
1
 41
1.0
 91
-1023410177
 42
1.0
 72
1
  3

 73
1
 74
1
 75
1
 44
0.5
 73
0
 45
1.0
 46
1.0
 77
1
  4

 78
1
 79
1
170
1
 48
1.0
171
1
  6

172
1
173
1
174
1
140
1.0
141
1.0
175
1
  7

176
1
177
1
178
1
143
1.0
179
1
  8

270
1
271
1
272
1
145
1.0
146
1.0
273
1
  9

274
1
275
1
276
1
 42
1.0
 72
1
  3

 73
1
 74
1
 75
1
 94
63
  0
MATERIAL
  5
21
102
{ACAD_REACTORS
330
E
102
}
330
E
100
AcDbMaterial
  1
Global
  2

 70
0
 40
1.0
 71
1
 41
1.0
 91
-1023410177
 42
1.0
 72
1
  3

 73
1
 74
1
 75
1
 44
0.5
 73
0
 45
1.0
 46
1.0
 77
1
  4

 78
1
 79
1
170
1
 48
1.0
171
1
  6

172
1
173
1
174
1
140
1.0
141
1.0
175
1
  7

176
1
177
1
178
1
143
1.0
179
1
  8

270
1
271
1
272
1
145
1.0
146
1.0
273
1
  9

274
1
275
1
276
1
 42
1.0
 72
1
  3

 73
1
 74
1
 75
1
 94
63
  0
MLINESTYLE
  5
22
102
{ACAD_REACTORS
330
10
102
}
330
10
100
AcDbMlineStyle
  2
Standard
 70
0
  3

 62
256
 51
90.0
 52
90.0
 71
2
 49
0.5
 62
256
  6
BYLAYER
 49
-0.5
 62
256
  6
BYLAYER
  0
MLEADERSTYLE
  5
2C
102
{ACAD_REACTORS
330
F
102
}
330
F
100
AcDbMLeaderStyle
179
2
170
2
171
1
172
0
 90
2
 40
0.0
 41
0.0
173
1
 91
-1056964608
 92
-2
290
1
 42
2.0
291
1
 43
8.0
  3
Standard
 44
4.0
300

342
29
174
1
175
1
176
0
178
1
 93
-1056964608
 45
4.0
292
0
297
0
 46
4.0
 94
-1056964608
 47
1.0
 49
1.0
140
1.0
294
1
141
0.0
177
0
142
1.0
295
0
296
0
143
3.75
271
0
272
9
273
9
  0
DICTIONARY
  5
2D
330
A
100
AcDbDictionary
280
1
281
1
  3
CREATED_BY_EZDXF
350
2E
  3
WRITTEN_BY_EZDXF
350
40
  0
DICTIONARYVAR
  5
2E
330
2D
100
DictionaryVariables
280
0
  1
1.4.4 @ 2026-10-05T10:29:46.455416+00:00
  0
DICTIONARYVAR
  5
40
330
2D
100
DictionaryVariables
280
0
  1
1.4.4 @ 2026-10-05T10:29:46.469907+00:00
  0
ENDSEC
  0
EOF
