  0
SECTION
  2
HEADER
  9
$ACADVER
  1
AC1024
  9
$ACADMAINTVER
 70
6
  9
$DWGCODEPAGE
  3
ANSI_1252
  9
$LASTSAVEDBY
  1
ezdxf
  9
$INSBASE
 10
0.0
 20
0.0
 30
0.0
  9
$EXTMIN
 10
1e+20
 20
1e+20
 30
1e+20
  9
$EXTMAX
 10
-1e+20
 20
-1e+20
 30
-1e+20
  9
$LIMMIN
 10
0.0
 20
0.0
  9
$LIMMAX
 10
420.0
 20
297.0
  9
$ORTHOMODE
 70
0
  9
$REGENMODE
 70
1
  9
$FILLMODE
 70
1
  9
$QTEXTMODE
 70
0
  9
$MIRRTEXT
 70
1
  9
$LTSCALE
 40
1.0
  9
$ATTMODE
 70
1
  9
$TEXTSIZE
 40
2.5
  9
$TRACEWID
 40
1.0
  9
$TEXTSTYLE
  7
Standard
  9
$CLAYER
  8
0
  9
$CELTYPE
  6
ByLayer
  9
$CECOLOR
 62
256
  9
$CELTSCALE
 40
1.0
  9
$DISPSILH
 70
0
  9
$DIMSCALE
 40
1.0
  9
$DIMASZ
 40
2.5
  9
$DIMEXO
 40
0.625
  9
$DIMDLI
 40
3.75
  9
$DIMRND
 40
0.0
  9
$DIMDLE
 40
0.0
  9
$DIMEXE
 40
1.25
  9
$DIMTP
 40
0.0
  9
$DIMTM
 40
0.0
  9
$DIMTXT
 40
2.5
  9
$DIMCEN
 40
2.5
  9
$DIMTSZ
 40
0.0
  9
$DIMTOL
 70
0
  9
$DIMLIM
 70
0
  9
$DIMTIH
 70
0
  9
$DIMTOH
 70
0
  9
$DIMSE1
 70
0
  9
$DIMSE2
 70
0
  9
$DIMTAD
 70
1
  9
$DIMZIN
 70
8
  9
$DIMBLK
  1

  9
$DIMASO
 70
1
  9
$DIMSHO
 70
1
  9
$DIMPOST
  1

  9
$DIMAPOST
  1

  9
$DIMALT
 70
0
  9
$DIMALTD
 70
3
  9
$DIMALTF
 40
0.03937007874
  9
$DIMLFAC
 40
1.0
  9
$DIMTOFL
 70
1
  9
$DIMTVP
 40
0.0
  9
$DIMTIX
 70
0
  9
$DIMSOXD
 70
0
  9
$DIMSAH
 70
0
  9
$DIMBLK1
  1

  9
$DIMBLK2
  1

  9
$DIMSTYLE
  2
ISO-25
  9
$DIMCLRD
 70
0
  9
$DIMCLRE
 70
0
  9
$DIMCLRT
 70
0
  9
$DIMTFAC
 40
1.0
  9
$DIMGAP
 40
0.625
  9
$DIMJUST
 70
0
  9
$DIMSD1
 70
0
  9
$DIMSD2
 70
0
  9
$DIMTOLJ
 70
0
  9
$DIMTZIN
 70
8
  9
$DIMALTZ
 70
0
  9
$DIMALTTZ
 70
0
  9
$DIMUPT
 70
0
  9
$DIMDEC
 70
2
  9
$DIMTDEC
 70
2
  9
$DIMALTU
 70
2
  9
$DIMALTTD
 70
3
  9
$DIMTXSTY
  7
Standard
  9
$DIMAUNIT
 70
0
  9
$DIMADEC
 70
0
  9
$DIMALTRND
 40
0.0
  9
$DIMAZIN
 70
0
  9
$DIMDSEP
 70
44
  9
$DIMATFIT
 70
3
  9
$DIMFRAC
 70
0
  9
$DIMLDRBLK
  1

  9
$DIMLUNIT
 70
2
  9
$DIMLWD
 70
-2
  9
$DIMLWE
 70
-2
  9
$DIMTMOVE
 70
0
  9
$DIMFXL
 40
1.0
  9
$DIMFXLON
 70
0
  9
$DIMJOGANG
 40
0.785398163397
  9
$DIMTFILL
 70
0
  9
$DIMTFILLCLR
 70
0
  9
$DIMARCSYM
 70
0
  9
$DIMLTYPE
  6

  9
$DIMLTEX1
  6

  9
$DIMLTEX2
  6

  9
$DIMTXTDIRECTION
 70
0
  9
$LUNITS
 70
2
  9
$LUPREC
 70
4
  9
$SKETCHINC
 40
1.0
  9
$FILLETRAD
 40
10.0
  9
$AUNITS
 70
0
  9
$AUPREC
 70
2
  9
$MENU
  1
.
  9
$ELEVATION
 40
0.0
  9
$PELEVATION
 40
0.0
  9
$THICKNESS
 40
0.0
  9
$LIMCHECK
 70
0
  9
$CHAMFERA
 40
0.0
  9
$CHAMFERB
 40
0.0
  9
$CHAMFERC
 40
0.0
  9
$CHAMFERD
 40
0.0
  9
$SKPOLY
 70
0
  9
$TDCREATE
 40
2461319.437349537
  9
$TDUCREATE
 40
2458532.153996898
  9
$TDUPDATE
 40
2461319.437349537
  9
$TDUUPDATE
 40
2458532.1544311
  9
$TDINDWG
 40
0.0
  9
$TDUSRTIMER
 40
0.0
  9
$USRTIMER
 70
1
  9
$ANGBASE
 50
0.0
  9
$ANGDIR
 70
0
  9
$PDMODE
 70
0
  9
$PDSIZE
 40
0.0
  9
$PLINEWID
 40
0.0
  9
$SPLFRAME
 70
0
  9
$SPLINETYPE
 70
6
  9
$SPLINESEGS
 70
8
  9
$HANDSEED
  5
4B
  9
$SURFTAB1
 70
6
  9
$SURFTAB2
 70
6
  9
$SURFTYPE
 70
6
  9
$SURFU
 70
6
  9
$SURFV
 70
6
  9
$UCSBASE
  2

  9
$UCSNAME
  2

  9
$UCSORG
 10
0.0
 20
0.0
 30
0.0
  9
$UCSXDIR
 10
1.0
 20
0.0
 30
0.0
  9
$UCSYDIR
 10
0.0
 20
1.0
 30
0.0
  9
$UCSORTHOREF
  2

  9
$UCSORTHOVIEW
 70
0
  9
$UCSORGTOP
 10
0.0
 20
0.0
 30
0.0
  9
$UCSORGBOTTOM
 10
0.0
 20
0.0
 30
0.0
  9
$UCSORGLEFT
 10
0.0
 20
0.0
 30
0.0
  9
$UCSORGRIGHT
 10
0.0
 20
0.0
 30
0.0
  9
$UCSORGFRONT
 10
0.0
 20
0.0
 30
0.0
  9
$UCSORGBACK
 10
0.0
 20
0.0
 30
0.0
  9
$PUCSBASE
  2

  9
$PUCSNAME
  2

  9
$PUCSORG
 10
0.0
 20
0.0
 30
0.0
  9
$PUCSXDIR
 10
1.0
 20
0.0
 30
0.0
  9
$PUCSYDIR
 10
0.0
 20
1.0
 30
0.0
  9
$PUCSORTHOREF
  2

  9
$PUCSORTHOVIEW
 70
0
  9
$PUCSORGTOP
 10
0.0
 20
0.0
 30
0.0
  9
$PUCSORGBOTTOM
 10
0.0
 20
0.0
 30
0.0
  9
$PUCSORGLEFT
 10
0.0
 20
0.0
 30
0.0
  9
$PUCSORGRIGHT
 10
0.0
 20
0.0
 30
0.0
  9
$PUCSORGFRONT
 10
0.0
 20
0.0
 30
0.0
  9
$PUCSORGBACK
 10
0.0
 20
0.0
 30
0.0
  9
$USERI1
 70
0
  9
$USERI2
 70
0
  9
$USERI3
 70
0
  9
$USERI4
 70
0
  9
$USERI5
 70
0
  9
$USERR1
 40
0.0
  9
$USERR2
 40
0.0
  9
$USERR3
 40
0.0
  9
$USERR4
 40
0.0
  9
$USERR5
 40
0.0
  9
$WORLDVIEW
 70
1
  9
$SHADEDGE
 70
3
  9
$SHADEDIF
 70
70
  9
$TILEMODE
 70
1
  9
$MAXACTVP
 70
64
  9
$PINSBASE
 10
0.0
 20
0.0
 30
0.0
  9
$PLIMCHECK
 70
0
  9
$PEXTMIN
 10
1e+20
 20
1e+20
 30
1e+20
  9
$PEXTMAX
 10
-1e+20
 20
-1e+20
 30
-1e+20
  9
$PLIMMIN
 10
0.0
 20
0.0
  9
$PLIMMAX
 10
420.0
 20
297.0
  9
$UNITMODE
 70
0
  9
$VISRETAIN
 70
1
  9
$PLINEGEN
 70
0
  9
$PSLTSCALE
 70
1
  9
$TREEDEPTH
 70
3020
  9
$CMLSTYLE
  2
Standard
  9
$CMLJUST
 70
0
  9
$CMLSCALE
 40
20.0
  9
$PROXYGRAPHICS
 70
1
  9
$MEASUREMENT
 70
1
  9
$CELWEIGHT
370
-1
  9
$ENDCAPS
280
0
  9
$JOINSTYLE
280
0
  9
$LWDISPLAY
290
0
  9
$INSUNITS
 70
4
  9
$HYPERLINKBASE
  1

  9
$STYLESHEET
  1

  9
$XEDIT
290
1
  9
$CEPSNTYPE
380
0
  9
$PSTYLEMODE
290
1
  9
$FINGERPRINTGUID
  2
{82833699-3493-4B26-8445-D4B0B5ABFED0}
  9
$VERSIONGUID
  2
{FD834CCD-7218-43C3-89A5-9294695A33B3}
  9
$EXTNAMES
290
1
  9
$PSVPSCALE
 40
0.0
  9
$OLESTARTUP
290
0
  9
$SORTENTS
280
127
  9
$INDEXCTL
280
0
  9
$HIDETEXT
280
1
  9
$XCLIPFRAME
280
1
  9
$HALOGAP
280
0
  9
$OBSCOLOR
 70
257
  9
$OBSLTYPE
280
0
  9
$INTERSECTIONDISPLAY
280
0
  9
$INTERSECTIONCOLOR
 70
257
  9
$DIMASSOC
280
2
  9
$PROJECTNAME
  1

  9
$CAMERADISPLAY
290
0
  9
$LENSLENGTH
 40
50.0
  9
$CAMERAHEIGHT
 40
0.0
  9
$STEPSPERSEC
 40
24.0
  9
$STEPSIZE
 40
100.0
  9
$3DDWFPREC
 40
2.0
  9
$PSOLWIDTH
 40
0.005
  9
$PSOLHEIGHT
 40
0.08
  9
$LOFTANG1
 40
1.570796326795
  9
$LOFTANG2
 40
1.570796326795
  9
$LOFTMAG1
 40
0.0
  9
$LOFTMAG2
 40
0.0
  9
$LOFTPARAM
 70
7
  9
$LOFTNORMALS
280
1
  9
$LATITUDE
 40
37.795
  9
$LONGITUDE
 40
-122.394
  9
$NORTHDIRECTION
 40
0.0
  9
$TIMEZONE
 70
-8000
  9
$LIGHTGLYPHDISPLAY
280
1
  9
$TILEMODELIGHTSYNCH
280
1
  9
$CMATERIAL
347
20
  9
$SOLIDHIST
280
0
  9
$SHOWHIST
280
1
  9
$DWFFRAME
280
2
  9
$DGNFRAME
280
2
  9
$REALWORLDSCALE
290
1
  9
$INTERFERECOLOR
 62
256
  9
$CSHADOW
280
0
  9
$SHADOWPLANELOCATION
 40
0.0
  0
ENDSEC
  0
SECTION
  2
CLASSES
  0
CLASS
  1
ACDBDICTIONARYWDFLT
  2
AcDbDictionaryWithDefault
  3
ObjectDBX Classes
 90
0
 91
0
280
0
281
0
  0
CLASS
  1
SUN
  2
AcDbSun
  3
SCENEOE
 90
1153
 91
0
280
0
281
0
  0
CLASS
  1
VISUALSTYLE
  2
AcDbVisualStyle
  3
ObjectDBX Classes
 90
4095
 91
0
280
0
281
0
  0
CLASS
  1
MATERIAL
  2
AcDbMaterial
  3
ObjectDBX Classes
 90
1153
 91
0
280
0
281
0
  0
CLASS
  1
SCALE
  2
AcDbScale
  3
ObjectDBX Classes
 90
1153
 91
0
280
0
281
0
  0
CLASS
  1
TABLESTYLE
  2
AcDbTableStyle
  3
ObjectDBX Classes
 90
4095
 91
0
280
0
281
0
  0
CLASS
  1
MLEADERSTYLE
  2
AcDbMLeaderStyle
  3
ACDB_MLEADERSTYLE_CLASS
 90
4095
 91
0
280
0
281
0
  0
CLASS
  1
DICTIONARYVAR
  2
AcDbDictionaryVar
  3
ObjectDBX Classes
 90
0
 91
0
280
0
281
0
  0
CLASS
  1
CELLSTYLEMAP
  2
AcDbCellStyleMap
  3
ObjectDBX Classes
 90
1152
 91
0
280
0
281
0
  0
CLASS
  1
MENTALRAYRENDERSETTINGS
  2
AcDbMentalRayRenderSettings
  3
SCENEOE
 90
1024
 91
0
280
0
281
0
  0
CLASS
  1
ACDBDETAILVIEWSTYLE
  2
AcDbDetailViewStyle
  3
ObjectDBX Classes
 90
1025
 91
0
280
0
281
0
  0
CLASS
  1
ACDBSECTIONVIEWSTYLE
  2
AcDbSectionViewStyle
  3
ObjectDBX Classes
 90
1025
 91
0
280
0
281
0
  0
CLASS
  1
RASTERVARIABLES
  2
AcDbRasterVariables
  3
ISM
 90
0
 91
0
280
0
281
0
  0
CLASS
  1
LAYOUT
  2
AcDbLayout
  3
ObjectDBX Classes
 90
0
 91
0
280
0
281
0
  0
CLASS
  1
ACDBPLACEHOLDER
  2
AcDbPlaceHolder
  3
ObjectDBX Classes
 90
0
 91
0
280
0
281
0
  0
ENDSEC
  0
SECTION
  2
TABLES
  0
TABLE
  2
VPORT
  5
8
330
0
100
AcDbSymbolTable
 70
1
  0
VPORT
  5
23
330
8
100
AcDbSymbolTableRecord
100
AcDbViewportTableRecord
  2
*Active
 70
0
 10
0.0
 20
0.0
 11
1.0
 21
1.0
 12
0.0
 22
0.0
 13
0.0
 23
0.0
 14
0.5
 24
0.5
 15
0.5
 25
0.5
 16
0.0
 26
0.0
 36
1.0
 17
0.0
 27
0.0
 37
0.0
 40
1000.0
 41
1.34
 42
50.0
 43
0.0
 44
0.0
 50
0.0
 51
0.0
 71
0
 72
1000
 73
1
 74
3
 75
0
 76
0
 77
0
 78
0
281
0
 65
0
146
0.0
  0
ENDTAB
  0
TABLE
  2
LTYPE
  5
2
330
0
100
AcDbSymbolTable
 70
3
  0
LTYPE
  5
24
330
2
100
AcDbSymbolTableRecord
100
AcDbLinetypeTableRecord
  2
ByBlock
 70
0
  3

 72
65
 73
0
 40
0.0
  0
LTYPE
  5
25
330
2
100
AcDbSymbolTableRecord
100
AcDbLinetypeTableRecord
  2
ByLayer
 70
0
  3

 72
65
 73
0
 40
0.0
  0
LTYPE
  5
26
330
2
100
AcDbSymbolTableRecord
100
AcDbLinetypeTableRecord
  2
Continuous
 70
0
  3

 72
65
 73
0
 40
0.0
  0
ENDTAB
  0
TABLE
  2
LAYER
  5
1
330
0
100
AcDbSymbolTable
 70
4
  0
LAYER
  5
27
330
1
100
AcDbSymbolTableRecord
100
AcDbLayerTableRecord
  2
0
 70
0
 62
7
  6
Continuous
370
-3
390
13
347
21
  0
LAYER
  5
28
330
1
100
AcDbSymbolTableRecord
100
AcDbLayerTableRecord
  2
Defpoints
 70
0
 62
7
  6
Continuous
290
0
370
-3
390
13
347
21
  0
LAYER
  5
2F
330
1
100
AcDbSymbolTableRecord
100
AcDbLayerTableRecord
  2
CUT
 70
0
 62
1
  6
Continuous
370
-3
390
13
347
21
  0
LAYER
  5
30
330
1
100
AcDbSymbolTableRecord
100
AcDbLayerTableRecord
  2
SCORE_OPTIONAL
 70
0
 62
5
  6
Continuous
370
-3
390
13
347
21
  0
ENDTAB
  0
TABLE
  2
STYLE
  5
5
330
0
100
AcDbSymbolTable
 70
1
  0
STYLE
  5
29
330
5
100
AcDbSymbolTableRecord
100
AcDbTextStyleTableRecord
  2
Standard
 70
0
 40
0.0
 41
1.0
 50
0.0
 71
0
 42
2.5
  3
txt
  4

  0
ENDTAB
  0
TABLE
  2
VIEW
  5
7
330
0
100
AcDbSymbolTable
 70
0
  0
ENDTAB
  0
TABLE
  2
UCS
  5
6
330
0
100
AcDbSymbolTable
 70
0
  0
ENDTAB
  0
TABLE
  2
APPID
  5
3
330
0
100
AcDbSymbolTable
 70
3
  0
APPID
  5
2A
330
3
100
AcDbSymbolTableRecord
100
AcDbRegAppTableRecord
  2
ACAD
 70
0
  0
APPID
  5
48
330
3
100
AcDbSymbolTableRecord
100
AcDbRegAppTableRecord
  2
HATCHBACKGROUNDCOLOR
 70
0
  0
APPID
  5
49
330
3
100
AcDbSymbolTableRecord
100
AcDbRegAppTableRecord
  2
EZDXF
 70
0
  0
ENDTAB
  0
TABLE
  2
DIMSTYLE
  5
4
330
0
100
AcDbSymbolTable
 70
1
100
AcDbDimStyleTable
  0
DIMSTYLE
105
2B
330
4
100
AcDbSymbolTableRecord
100
AcDbDimStyleTableRecord
  2
Standard
 70
0
 40
1.0
 41
2.5
 42
0.625
 43
3.75
 44
1.25
 45
0.0
 46
0.0
 47
0.0
 48
0.0
 49
2.5
140
2.5
141
2.5
142
0.0
143
0.03937007874
144
1.0
145
0.0
146
1.0
147
0.625
148
0.0
 69
0
 70
0
 71
0
 72
0
 73
0
 74
0
 75
0
 76
0
 77
1
 78
8
 79
3
170
0
171
3
172
1
173
0
174
0
175
0
176
0
177
0
178
0
179
2
271
2
272
2
273
2
274
3
275
0
276
0
277
2
278
44
279
0
280
0
281
0
282
0
283
0
284
8
285
0
286
0
288
0
289
3
290
0
371
-2
372
-2
  0
ENDTAB
  0
TABLE
  2
BLOCK_RECORD
  5
9
330
0
100
AcDbSymbolTable
 70
2
  0
BLOCK_RECORD
  5
17
330
9
100
AcDbSymbolTableRecord
100
AcDbBlockTableRecord
  2
*Model_Space
340
1A
 70
0
280
1
281
0
  0
BLOCK_RECORD
  5
1B
330
9
100
AcDbSymbolTableRecord
100
AcDbBlockTableRecord
  2
*Paper_Space
340
1E
 70
0
280
1
281
0
  0
ENDTAB
  0
ENDSEC
  0
SECTION
  2
BLOCKS
  0
BLOCK
  5
18
330
17
100
AcDbEntity
  8
0
100
AcDbBlockBegin
  2
*Model_Space
 70
0
 10
0.0
 20
0.0
 30
0.0
  3
*Model_Space
  1

  0
ENDBLK
  5
19
330
17
100
AcDbEntity
  8
0
100
AcDbBlockEnd
  0
BLOCK
  5
1C
330
1B
100
AcDbEntity
  8
0
100
AcDbBlockBegin
  2
*Paper_Space
 70
0
 10
0.0
 20
0.0
 30
0.0
  3
*Paper_Space
  1

  0
ENDBLK
  5
1D
330
1B
100
AcDbEntity
  8
0
100
AcDbBlockEnd
  0
ENDSEC
  0
SECTION
  2
ENTITIES
  0
LWPOLYLINE
  5
31
330
17
100
AcDbEntity
  8
CUT
100
AcDbPolyline
 90
141
 70
1
 10
3.8510462924592916
 20
86.80276330737726
 10
3.4812704777977896
 20
86.6465319056852
 10
3.1227689431635444
 20
86.46592443014646
 10
2.7771464050042987
 20
86.26174931185153
 10
2.4459499310955186
 20
86.03492047483948
 10
2.130662015590702
 20
85.7864532452119
 10
1.8326939431146076
 20
85.5174598063532
 10
1.5533794716030007
 20
85.22914422060053
 10
1.2939688621655883
 20
84.92279703964728
 10
1.0556232826955716
 20
84.59978952780472
 10
0.8394096102762258
 20
84.26156752397989
 10
0.6462956556498707
 20
83.90964496984411
 10
0.4771458311253438
 20
83.54559713316166
 10
0.3327172813152117
 20
83.17105355661184
 10
0.21365649402221187
 20
82.787690763667
 10
0.12049640644518611
 20
82.39722475417611
 10
0.0536540196576718
 20
82.0014033232451
 10
0.013428532037140783
 20
81.6019982377961
 10
0.0
 20
81.2007973058243
 10
0.0
 20
6.000002401348368
 10
0.01284646056837957
 20
5.6075834689118125
 10
0.05133083175713793
 20
5.216844934589204
 10
0.11528831758061742
 20
4.829460000771775
 10
0.2044450422655908
 20
4.447087509218548
 10
0.3184192230293661
 20
4.071364837641255
 10
0.45672280493228
 20
3.703900888201602
 10
0.6187635508038705
 20
3.3462691979451336
 10
0.803847577293368
 20
3.000001200674191
 10
1.011182326184728
 20
2.6665796691130907
 10
1.2398799582525895
 20
2.347432365447787
 10
1.4889611551261366
 20
2.0439259274289583
 10
1.7573593128807152
 20
1.7573600162193657
 10
2.043925109399587
 20
1.4889617510452098
 10
2.347431425947676
 20
1.2398804544832132
 10
2.666578601882386
 20
1.0111827308848973
 10
2.9999999999999987
 20
0.80384789901305
 10
3.346267858685993
 20
0.6187637984483416
 10
3.7038994058094614
 20
0.4567229877240493
 10
4.0713632081810305
 20
0.31841935046861636
 10
4.447085729384875
 20
0.20444512408955973
 10
4.829458067903231
 20
0.11528836372185935
 10
5.216842846679691
 20
0.05133085230100676
 10
5.607581224619141
 20
0.012846465709856147
 10
6.0
 20
0.0
 10
197.2
 20
0.0
 10
197.59241877538085
 20
0.012846465709856147
 10
197.9831571533203
 20
0.05133085230100676
 10
198.37054193209676
 20
0.11528836372185935
 10
198.75291427061512
 20
0.20444512408955973
 10
199.12863679181896
 20
0.31841935046861636
 10
199.49610059419052
 20
0.4567229877240493
 10
199.853732141314
 20
0.6187637984483416
 10
200.2
 20
0.80384789901305
 10
200.5334213981176
 20
1.0111827308848973
 10
200.8525685740523
 20
1.2398804544832132
 10
201.1560748906004
 20
1.4889617510452098
 10
201.44264068711928
 20
1.7573600162193657
 10
201.71103884487385
 20
2.0439259274289583
 10
201.9601200417474
 20
2.347432365447787
 10
202.18881767381527
 20
2.6665796691130907
 10
202.39615242270662
 20
3.000001200674191
 10
202.58123644919613
 20
3.3462691979451336
 10
202.74327719506772
 20
3.703900888201602
 10
202.88158077697062
 20
4.071364837641255
 10
202.99555495773438
 20
4.447087509218562
 10
203.08471168241937
 20
4.829460000771775
 10
203.14866916824286
 20
5.216844934589204
 10
203.18715353943162
 20
5.6075834689118125
 10
203.2
 20
6.000002401348368
 10
203.2
 20
81.20079730582427
 10
203.18657146796284
 20
81.60199823779607
 10
203.14634598034232
 20
82.00140332324509
 10
203.0795035935548
 20
82.39722475417608
 10
202.98634350597777
 20
82.78769076366699
 10
202.86728271868478
 20
83.17105355661182
 10
202.72285416887465
 20
83.54559713316165
 10
202.5537043443501
 20
83.9096449698441
 10
202.36059038972374
 20
84.26156752397988
 10
202.1443767173044
 20
84.59978952780472
 10
201.9060311378344
 20
84.92279703964726
 10
201.64662052839697
 20
85.22914422060053
 10
201.36730605688535
 20
85.5174598063532
 10
201.06933798440926
 20
85.7864532452119
 10
200.75405006890443
 20
86.03492047483948
 10
200.42285359499564
 20
86.26174931185153
 10
200.0772310568364
 20
86.46592443014646
 10
199.71872952220215
 20
86.64653190568518
 10
199.34895370754063
 20
86.80276330737725
 10
198.96955879497645
 20
86.9339193157617
 10
196.64184104117538
 20
87.64308889778843
 10
193.33969894914128
 20
88.61559178906656
 10
190.0276092395531
 20
89.55365680414502
 10
186.70593105248045
 20
90.45718222575042
 10
181.675914771448
 20
91.75506386008897
 10
178.33176618776386
 20
92.57150387399753
 10
175.00975715634672
 20
93.34614134976678
 10
169.93578901921487
 20
94.45987718564491
 10
166.59474181997575
 20
95.14778032897136
 10
163.21608261360592
 20
95.80699639944181
 10
158.1049017132907
 20
96.73510720619049
 10
154.71017400161637
 20
97.3058326540371
 10
151.3096873905212
 20
97.84117791615401
 10
147.9038106052217
 20
98.34108494340877
 10
144.52388815318346
 20
98.80144472793343
 10
139.36796155459788
 20
99.43546397656331
 10
135.94613094748362
 20
99.81093557543663
 10
132.55167846028965
 20
100.1478319191415
 10
129.1227995388868
 20
100.45228705385743
 10
125.69093623572847
 20
100.72102082312125
 10
120.50717142670646
 20
101.05886941639758
 10
117.10066408142183
 20
101.23639258421314
 10
113.66128770555656
 20
101.37989754623189
 10
108.4686548292928
 20
101.52863559085486
 10
105.05794110494968
 20
101.58191444423016
 10
101.61561973334108
 20
101.60000000000001
 10
96.42101548971014
 20
101.55942994654188
 10
92.97939651280947
 20
101.48758055914149
 10
89.56993101546243
 20
101.38103585092128
 10
84.38025472265133
 20
101.15121158331506
 10
80.9435393216983
 20
100.95400408730424
 10
77.50906376427173
 20
100.72102082312126
 10
74.0772004611134
 20
100.45228705385745
 10
70.67942391618573
 20
100.15075535257017
 10
67.25386905251699
 20
99.81093557543669
 10
63.83203844540244
 20
99.43546397656334
 10
58.676111846817065
 20
98.8014447279335
 10
55.26525809891612
 20
98.33670781761667
 10
51.89031260947899
 20
97.84117791615402
 10
48.489825998384404
 20
97.30583265403722
 10
45.095098286709664
 20
96.73510720619055
 10
39.983917386393735
 20
95.80699639944174
 10
36.60525818002449
 20
95.14778032897145
 10
33.26421098078455
 20
94.45987718564479
 10
28.190242843653024
 20
93.34614134976673
 10
24.86823381223552
 20
92.57150387399734
 10
21.524085228552497
 20
91.7550638600891
 10
16.494068947518674
 20
90.45718222575016
 10
13.172390760447076
 20
89.55365680414512
 10
9.860301050859906
 20
88.61559178906688
 10
6.558158958824923
 20
87.64308889778854
 10
4.2304412050234825
 20
86.93391931576171
  0
LWPOLYLINE
  5
32
330
17
100
AcDbEntity
  8
CUT
100
AcDbPolyline
 90
183
 70
1
 10
159.145438583071
 20
25.686096126018327
 10
157.30447384895143
 20
25.224265272185633
 10
155.6512035898723
 20
24.774839049463452
 10
154.00179158333515
 20
24.298455838856043
 10
152.35903704317028
 20
23.79598445491166
 10
152.15538899977753
 20
23.752402194513735
 10
151.93992084968002
 20
23.74789306992119
 10
151.71344999586572
 20
23.789150745854144
 10
151.51364286652185
 20
23.8701535307367
 10
151.34526063741552
 20
23.979755031285137
 10
151.18971321477517
 20
24.128925588772248
 10
151.05874772073022
 20
24.318238247673506
 10
150.9747403631273
 20
24.516800842247164
 10
150.93317611136078
 20
24.713365022545887
 10
150.92510108494406
 20
24.843051023803667
 10
150.94448989683207
 20
25.050412632215412
 10
150.97460866703997
 20
25.169260388415978
 10
151.04457045785105
 20
25.3418330302824
 10
151.10990600070562
 20
25.454149243777834
 10
151.25194105222715
 20
25.625892661214507
 10
151.39499202347702
 20
25.745108383830754
 10
151.51219289393316
 20
25.816562848543654
 10
151.70455007572647
 20
25.89637648880654
 10
152.81121885902516
 20
26.23803418101369
 10
155.05374008086298
 20
26.892164882391114
 10
156.74046489547877
 20
27.35074721800578
 10
158.4313205806811
 20
27.781880430070814
 10
160.1262954567457
 20
28.18555865697043
 10
161.83109225256067
 20
28.562992474642755
 10
163.5285542015265
 20
28.91052935453999
 10
165.24158131226875
 20
29.232848882978857
 10
166.95292944872148
 20
29.52656778307248
 10
169.17280242823253
 20
29.865623328643053
 10
169.32427370174963
 20
29.908340133854182
 10
169.45942651003833
 20
29.988975055321333
 10
169.54442753602768
 20
30.07108597982615
 10
169.61168462871956
 20
30.168265513807924
 10
169.6585883290589
 20
30.276743259160398
 10
169.68331885446705
 20
30.39231046668621
 10
169.72297854976162
 20
30.964683447975347
 10
169.80018720349662
 20
31.462109547977064
 10
169.92099800601065
 20
31.939135245353796
 10
170.0903166971093
 20
32.39829772806566
 10
170.28813794343827
 20
32.79476755573789
 10
170.41477887259
 20
33.00271242138328
 10
170.68081711410593
 20
33.365656946692766
 10
170.98455442969063
 20
33.69832728312181
 10
171.31336661725146
 20
33.994161221971666
 10
171.68616123837958
 20
34.27434519536628
 10
172.0890815374257
 20
34.53071523429958
 10
172.52570251989428
 20
34.76962586441091
 10
172.976618011968
 20
34.985724722832614
 10
173.6832805529273
 20
35.281731786312136
 10
175.43129027256504
 20
35.90902122628445
 10
175.2592085595348
 20
34.32300104859905
 10
175.14506840058837
 20
33.55764763556401
 10
175.04867871294311
 20
33.06119068178967
 10
174.92925961510716
 20
32.57264361593697
 10
174.7900465975653
 20
32.120700476178044
 10
174.62040213144869
 20
31.682451484468743
 10
174.46324418885834
 20
31.343123866441758
 10
174.42982884411208
 20
31.192169423938523
 10
174.44387373766892
 20
30.99972309175054
 10
174.51827712612035
 20
30.821686619097946
 10
174.645343870057
 20
30.676473353887843
 10
174.7415845602604
 20
30.61153928298924
 10
174.84852914952495
 20
30.566355670458393
 10
175.03956292934794
 20
30.539172131796548
 10
176.72670439180925
 20
30.67192289219325
 10
178.45899981888127
 20
30.782119777137964
 10
181.36466667682842
 20
30.905408252503392
 10
184.28129297526309
 20
30.952374624722026
 10
186.02844668439317
 20
30.944008533679124
 10
186.3803731831938
 20
30.919897380488592
 10
186.49349988037764
 20
30.942314728143444
 10
186.60024793692392
 20
30.98596148650175
 10
187.09868277455826
 20
31.315249917055894
 10
187.5618200949314
 20
31.571363080553894
 10
187.81245048290842
 20
31.6875805903194
 10
188.27219240472036
 20
31.859984226445732
 10
188.52475375358568
 20
31.93229966029689
 10
188.98187006733198
 20
32.02321006811046
 10
189.23507743090423
 20
32.05171660014874
 10
189.70743134124436
 20
32.06432784706155
 10
190.17891682248307
 20
32.02617063060403
 10
190.64969430327133
 20
31.94035736112089
 10
191.11993842588456
 20
31.81053772720017
 10
191.82461644755244
 20
31.542468834062475
 10
192.2940869539275
 20
31.321673096059072
 10
192.99797660181255
 20
30.940084262346005
 10
193.7026898972684
 20
30.513547269689568
 10
194.87378188401942
 20
29.756680439719176
 10
193.2087501099895
 20
28.74182342557576
 10
192.50071969731005
 20
28.35937472339633
 10
192.02679164833685
 20
28.133349423485427
 10
191.5440994434985
 20
27.93422316838084
 10
191.0689964088662
 20
27.77397677443375
 10
190.59429429862647
 20
27.65403848213765
 10
190.13504976287948
 20
27.58026553391896
 10
189.64673194810288
 20
27.55131742446929
 10
189.17420107220394
 20
27.575087654860624
 10
188.70262788580152
 20
27.652149077774126
 10
188.24720295365802
 20
27.778903783329184
 10
187.99695771688982
 20
27.870865528009745
 10
187.52743671692988
 20
28.08662448915362
 10
187.0694431310635
 20
28.351826309176232
 10
186.610722312176
 20
28.671200815905564
 10
186.43485036190177
 20
28.747216213425702
 10
186.28242792523426
 20
28.76549314642213
 10
186.03117235905788
 20
28.735897482813712
 10
185.88473826090456
 20
28.682687332035087
 10
185.78664468037715
 20
28.61892407930516
 10
185.65639836264276
 20
28.474549939418807
 10
185.58988918269284
 20
28.33365709279329
 10
185.56189828228713
 20
28.180390088052093
 10
185.58369184823906
 20
27.987172500771877
 10
185.64511998920662
 20
27.84399132622326
 10
185.80676642001367
 20
27.58762094185394
 10
186.03539243199663
 20
27.17043111381068
 10
186.23841223676362
 20
26.73555000016799
 10
186.4262976404114
 20
26.27035126395313
 10
186.75805884855987
 20
25.28726370183844
 10
187.19358734893262
 20
23.755946889844765
 10
185.3649500019256
 20
24.080175878335837
 10
184.61855706586613
 20
24.253062296039246
 10
184.13771013031482
 20
24.39021083658696
 10
183.66711568287062
 20
24.55225107093173
 10
183.22680379812587
 20
24.737172157880877
 10
182.81218124844852
 20
24.950636510381386
 10
182.43828087785622
 20
25.18692803992657
 10
182.08289993072566
 20
25.46374980936615
 10
181.75958676318206
 20
25.776757269491114
 10
181.59976325190163
 20
25.960429361345874
 10
181.33805367785916
 20
26.317962113144148
 10
181.10093430566585
 20
26.728215712842854
 10
180.8997185184284
 20
27.178638454430768
 10
180.7347376936306
 20
27.66933069415707
 10
180.60032637055235
 20
28.222207039141708
 10
180.55575593377864
 20
28.333197777690188
 10
180.49005606248548
 20
28.433142736491504
 10
180.37420902563176
 20
28.54243917432362
 10
180.23368770481932
 20
28.617405871381052
 10
180.07839348496623
 20
28.65276053940096
 10
178.58185677144328
 20
28.58554880674224
 10
176.31178538502547
 20
28.435056986533326
 10
174.61392165048318
 20
28.290782403154466
 10
172.35950701035688
 20
28.056906790899177
 10
170.66779148434026
 20
27.849458441373415
 10
168.42258432794267
 20
27.531470277828646
 10
166.1844097124422
 20
27.16562082039239
 10
165.1096958161389
 20
26.97238014422986
 10
164.95868017047076
 20
26.923448673510478
 10
164.85677130984618
 20
26.86159351110375
 10
164.7691029337329
 20
26.780811503083243
 10
164.69913586743624
 20
26.684291626249504
 10
164.64963215360268
 20
26.57584413062675
 10
164.6175087678965
 20
26.38036224151486
 10
164.6297041691778
 20
26.261775778637556
 10
164.66510383120604
 20
26.147941069877675
 10
164.74585802195742
 20
26.011270755839035
 10
165.11902380634987
 20
25.601139171123307
 10
165.41822451563203
 20
25.221209661799904
 10
165.8375296920953
 20
24.60178536874409
 10
166.35659824900577
 20
23.70340099263342
 10
167.08548261641528
 20
22.288005700753587
 10
165.22881371803823
 20
22.245349099203594
 10
164.46298535362112
 20
22.267688407071972
 10
163.96453687214347
 20
22.307344540482347
 10
163.47123217090993
 20
22.373425121990692
 10
163.0031046316976
 20
22.4679077726514
 10
162.5545348163735
 20
22.595438197530896
 10
162.14138746004565
 20
22.753376274077965
 10
161.7243564698747
 20
22.962709436333682
 10
161.34615227619602
 20
23.207684049753553
 10
160.99416774576352
 20
23.496123883181497
 10
160.67970968864842
 20
23.81723940600034
 10
160.51678003046317
 20
24.012963346036415
 10
160.23264286557108
 20
24.4147280003902
 10
159.9758777216203
 20
24.86277556293126
 10
159.74108448545223
 20
25.36674727854981
 10
159.62149341031503
 20
25.52518478799017
 10
159.49250304292903
 20
25.618266414100987
 10
159.30444961207135
 20
25.68183037238552
  0
LWPOLYLINE
  5
33
330
17
100
AcDbEntity
  8
CUT
100
AcDbPolyline
 90
174
 70
1
 10
174.2276872187507
 20
48.72907503944918
 10
174.1559637315608
 20
48.92149399117503
 10
174.09797958855714
 20
49.13905444777407
 10
174.03623626371808
 20
49.614383368602496
 10
174.0417198396454
 20
50.10681611497213
 10
174.11442431366925
 20
50.72217607864764
 10
174.25108144014655
 20
51.33402352838299
 10
174.4468739039457
 20
51.92889918041389
 10
174.67325662248712
 20
52.42935562121736
 10
174.81075713327212
 20
52.6644713659515
 10
174.93333639167406
 20
52.838558607449116
 10
175.1287438315642
 20
52.8386144313278
 10
175.12525192978518
 20
52.447667889104565
 10
175.15110928907743
 20
52.11634836232615
 10
175.2145974040195
 20
51.741673808158524
 10
175.29923439946782
 20
51.420650880317055
 10
175.43052158181777
 20
51.05729019159373
 10
175.57344735181616
 20
50.74785141216438
 10
175.77097875525047
 20
50.402193658409146
 10
175.96334356395326
 20
50.127623607911836
 10
176.1746980222166
 20
49.87428286216997
 10
176.4084037999266
 20
49.63692546817878
 10
176.6644664130127
 20
49.415574773522145
 10
176.94288303737935
 20
49.210253924902986
 10
177.25084170681333
 20
49.01683095922643
 10
177.55772465688872
 20
48.85586756254074
 10
177.8302027168457
 20
48.73810358827648
 10
178.16775693305812
 20
48.62062920120056
 10
178.54591330408294
 20
48.521511179800626
 10
178.9385155644262
 20
48.45004228456148
 10
179.43055128355618
 20
48.399398168353756
 10
179.87000145996151
 20
48.38593461731632
 10
180.30807134358363
 20
48.399920106494164
 10
180.78162853851472
 20
48.451923192547255
 10
181.1443609360705
 20
48.525820679839406
 10
181.47932260963844
 20
48.62963132919776
 10
181.77009782390655
 20
48.75770576748892
 10
182.03570368417186
 20
48.918752802263256
 10
182.2913608231569
 20
49.131620860771335
 10
182.5117920100551
 20
49.36801278226578
 10
182.6754264423801
 20
49.59597635394505
 10
182.80912515816803
 20
49.85322941026615
 10
182.8956428157152
 20
50.11398199506835
 10
182.93943702855125
 20
50.390238835528244
 10
182.94096956327334
 20
50.63906171220155
 10
182.9080844903471
 20
50.88121339283566
 10
182.8412191831496
 20
51.11409159268286
 10
182.74073115814082
 20
51.33785255100806
 10
182.6111809728172
 20
51.546708554219826
 10
182.4393952274768
 20
51.759398059185614
 10
182.239212142957
 20
51.95650491415542
 10
181.986005215876
 20
52.16123836952948
 10
181.50406026952678
 20
52.47756243408033
 10
180.96995822367924
 20
52.76530792880273
 10
177.0682559496491
 20
54.58765734551436
 10
176.56178539688082
 20
54.851206764094115
 10
176.10544795684643
 20
55.148237608599544
 10
175.7662494572955
 20
55.41927070322854
 10
175.40327011675754
 20
55.77707205154302
 10
175.09322845256528
 20
56.165943665351826
 10
174.92530971674404
 20
56.425755054360515
 10
174.74396813427563
 20
56.766810254732896
 10
174.62336025912478
 20
57.048318282645916
 10
174.52590925451253
 20
57.332612121582464
 10
174.43175323273857
 20
57.70645853962455
 10
174.3809224369216
 20
58.01343138894481
 10
174.3519721496755
 20
58.32250676814479
 10
174.34516027170469
 20
58.730624154233396
 10
174.37420078213913
 20
59.167488795271076
 10
174.4255571718911
 20
59.54484999547864
 10
174.49473855613044
 20
59.88648650825138
 10
174.58439835346348
 20
60.21209762443534
 10
174.69453923475035
 20
60.52168991661595
 10
174.8285522181213
 20
60.822088746278915
 10
175.01524070000517
 20
61.156483493823096
 10
175.1936122438929
 20
61.41677141695808
 10
175.44646153579367
 20
61.72122480577739
 10
175.77409309770732
 20
62.03798750246218
 10
176.08122913513952
 20
62.27668788122625
 10
176.42159459027522
 20
62.491669979512125
 10
176.85263281498618
 20
62.70629059398022
 10
177.24584626281404
 20
62.8576587203275
 10
177.66902822022587
 20
62.981886030658316
 10
178.19687671907622
 20
63.090217581894485
 10
178.9626261054566
 20
63.1725333209582
 10
179.7358301948602
 20
63.18410949586328
 10
181.58572404174373
 20
63.094094433321864
 10
182.42526164911106
 20
63.03535341681167
 10
183.01356952116657
 20
62.97050262702619
 10
184.86498767269202
 20
62.96787549147688
 10
184.38492090486275
 20
59.410912958601685
 10
184.16788809898574
 20
59.41089761283963
 10
184.15498925952815
 20
59.67779802228857
 10
184.11250144376274
 20
59.96528517408796
 10
184.0463767106623
 20
60.21649581478785
 10
183.95975184833026
 20
60.442665131263105
 10
183.83427238604202
 20
60.68376682983433
 10
183.6891895520598
 20
60.89737345614342
 10
183.49679986582981
 20
61.11993817427169
 10
183.30937506753793
 20
61.295192103731004
 10
183.10878801201022
 20
61.45134383720331
 10
182.89171436318867
 20
61.59112115176257
 10
182.65870519480887
 20
61.713872625711154
 10
182.4097788150649
 20
61.81955816620519
 10
182.14496318428655
 20
61.90814875564156
 10
181.86428927713922
 20
61.97962783652652
 10
181.26117309804593
 20
62.070703127370464
 10
180.91431080924698
 20
62.091796137436326
 10
180.50546034715273
 20
62.09260203908976
 10
180.14687388536638
 20
62.07141274109635
 10
179.8105466697586
 20
62.02919531196436
 10
179.5054943490806
 20
61.96811162898809
 10
179.21450222005723
 20
61.88488397595926
 10
178.9456941816234
 20
61.78082818857679
 10
178.69900925311057
 20
61.65591779092244
 10
178.46539040906998
 20
61.503999504549896
 10
178.26367625212293
 20
61.338379996338745
 10
178.09832604698025
 20
61.16518341946836
 10
177.953106563183
 20
60.96380556340792
 10
177.84713257336722
 20
60.75778500997955
 10
177.7718736820535
 20
60.532924183705276
 10
177.73115974657162
 20
60.301496870909354
 10
177.7220451674181
 20
60.051603043842505
 10
177.74108995378788
 20
59.86007733471024
 10
177.7813738299734
 20
59.689726524938834
 10
177.844488698325
 20
59.52810429595205
 10
177.9333236288907
 20
59.37313162666149
 10
178.0299058372233
 20
59.24880001525051
 10
178.15517369208376
 20
59.124507078413124
 10
178.52942068983432
 20
58.85468684290348
 10
178.96893300014614
 20
58.5878160058848
 10
179.4998823906486
 20
58.31146869615681
 10
183.83783964678992
 20
56.293064225611076
 10
184.17106100882347
 20
56.121889791535644
 10
184.56065879459533
 20
55.876940431295445
 10
184.91597624645425
 20
55.59970068636665
 10
185.2877728832141
 20
55.2351087167756
 10
185.5696531022159
 20
54.887500352462716
 10
185.76542925086878
 20
54.59222218495032
 10
185.89851028393127
 20
54.34411529477197
 10
186.0367578420398
 20
54.01489914458818
 10
186.12461425442555
 20
53.737413835939435
 10
186.2070264520419
 20
53.368706191447195
 10
186.2498619927632
 20
53.062717572747154
 10
186.27279351921177
 20
52.74978689720121
 10
186.27441189113767
 20
52.32327875615912
 10
186.25012475826102
 20
51.934640710242455
 10
186.2100577467434
 20
51.60177259492994
 10
186.12352985753594
 20
51.1544761259842
 10
186.03845053155158
 20
50.84427040495021
 10
185.89177827573937
 20
50.440094862208994
 10
185.7639083295604
 20
50.1622850951293
 10
185.55491991953585
 20
49.79529246955506
 10
185.38288444162862
 20
49.54634147130955
 10
185.2011054217618
 20
49.31972679498268
 10
185.00255422826922
 20
49.10439114907377
 10
184.55139088583942
 20
48.70463514000005
 10
184.0388879072156
 20
48.35418107095468
 10
183.6306563074568
 20
48.129796684859805
 10
183.33351235480072
 20
47.99091008121227
 10
182.6960316062122
 20
47.74988946185225
 10
182.00896771544103
 20
47.56081452594945
 10
181.2681382299634
 20
47.42204294480144
 10
180.4689122421427
 20
47.33336462539422
 10
179.62358417079506
 20
47.29591790689327
 10
178.53036033903504
 20
47.319691409557215
 10
177.6393932883712
 20
47.40554040105549
 10
176.7549488895037
 20
47.56576212285169
 10
175.97393340280263
 20
47.77524231422218
 10
175.62400031916067
 20
47.896649673979475
 10
175.2506345158016
 20
48.05191608837247
 10
174.9242753735382
 20
48.21483649342383
 10
174.63427733914392
 20
48.389987820050834
 10
174.3865764937602
 20
48.574615450251144
  0
LWPOLYLINE
  5
34
330
17
100
AcDbEntity
  8
CUT
100
AcDbPolyline
 90
84
 70
1
 10
149.37640803476842
 20
62.880553871122885
 10
157.21212288877993
 20
62.88055555831081
 10
157.21212457596792
 20
62.66363292987306
 10
156.90232206428635
 20
62.65590693438653
 10
156.68111371647254
 20
62.5994560436222
 10
156.46189343996258
 20
62.4757616417391
 10
156.27281530193667
 20
62.297251321668256
 10
156.17095395316983
 20
62.13130943131855
 10
156.11526669162168
 20
61.944731366566835
 10
156.1070413224185
 20
61.75646717994998
 10
156.13934007142583
 20
61.53963497401634
 10
156.2165307933441
 20
61.28971439776641
 10
157.9832542178504
 20
56.89068354413216
 10
158.09573222047442
 20
56.72830158211284
 10
158.25508857448025
 20
56.59567025203251
 10
158.4734464165605
 20
56.504171150487096
 10
158.66986880070792
 20
56.48325585300634
 10
158.86493482647262
 20
56.51437575428277
 10
159.0450990681065
 20
56.59536988184371
 10
159.17002338719143
 20
56.69239007122282
 10
159.29309441885573
 20
56.84689807693251
 10
162.36089467880774
 20
63.22214357414176
 10
162.56071262286818
 20
63.22983645767503
 10
162.63188198480782
 20
63.05726031164395
 10
166.0605095752374
 20
56.76776261746338
 10
166.18266549366945
 20
56.61357982431455
 10
166.34072557056336
 20
56.49648407629838
 10
166.51426432920672
 20
56.42696908380505
 10
166.70945329037338
 20
56.40256270041842
 10
166.91374169587348
 20
56.43246626864367
 10
167.12691106545105
 20
56.533191605673956
 10
167.279728559019
 20
56.672025281971614
 10
167.4039723336219
 20
56.883749696582214
 10
168.64862638075647
 20
61.297752899938594
 10
168.7038690112432
 20
61.563128316663644
 10
168.7179664195589
 20
61.7930383877711
 10
168.69580356447184
 20
61.98699797252382
 10
168.63651072343757
 20
62.16347075952774
 10
168.5379082102862
 20
62.319312168555705
 10
168.3620691551849
 20
62.489035518624824
 10
168.1440951617123
 20
62.60795737052922
 10
167.93820962475527
 20
62.65632535945095
 10
167.626582502987
 20
62.66363124268512
 10
167.62658081579906
 20
62.880553871122885
 10
172.3842162892779
 20
62.88055555831081
 10
172.38421797646583
 20
62.66363292987305
 10
172.0176118519093
 20
62.6519764786727
 10
171.68265427106388
 20
62.58544793045486
 10
171.29191641804692
 20
62.441318961121134
 10
170.96347255669826
 20
62.26192032261229
 10
170.76828482137276
 20
62.10363007649152
 10
170.5977040163729
 20
61.915983936299135
 10
170.4513347841133
 20
61.699045719752306
 10
170.3299748464322
 20
61.449662925699
 10
166.51839944248476
 20
49.209876935105235
 10
166.3520217645862
 20
48.35087718208672
 10
166.3077163907685
 20
47.99294969270146
 10
166.2881939076035
 20
47.55413009827916
 10
166.31531761172343
 20
47.12040704175882
 10
166.09370066394646
 20
47.12765442304193
 10
161.7313459480327
 20
55.340206298127605
 10
161.61329251538743
 20
55.49346269062824
 10
161.45995036733856
 20
55.61140471212084
 10
161.28153188958737
 20
55.6861775788477
 10
161.08991951846107
 20
55.71280151607309
 10
160.89787438626357
 20
55.689503404538456
 10
160.68479412153832
 20
55.59805385326779
 10
160.52904094263715
 20
55.467782731521524
 10
160.4050511280952
 20
55.28321871488592
 10
157.61574993539972
 20
49.561843480254
 10
157.3456894983145
 20
48.84307785988451
 10
157.16145748959264
 20
48.20268763982603
 10
157.06243523660308
 20
47.67262064881547
 10
157.01565683452782
 20
47.12044872899015
 10
156.82038025149052
 20
47.120469858822716
 10
151.40328519646917
 20
61.47903295977842
 10
151.2721446242666
 20
61.721421843192864
 10
151.12156450887176
 20
61.93311988236514
 10
150.94798917552288
 20
62.1185031607562
 10
150.7593444628189
 20
62.27016759280946
 10
150.42645126087615
 20
62.453488111793575
 10
150.06498394514202
 20
62.5875735313475
 10
149.73635495454573
 20
62.65262966989551
 10
149.37640972195635
 20
62.66363124268512
  0
LWPOLYLINE
  5
35
330
17
100
AcDbEntity
  8
CUT
100
AcDbPolyline
 90
64
 70
1
 10
154.88740079933626
 20
87.28991953500888
 10
154.89991968274572
 20
87.04490819093343
 10
154.88836297301523
 20
86.79984957829637
 10
154.85284196757704
 20
86.55710374549962
 10
154.79369875313137
 20
86.31900846761214
 10
154.71150291116413
 20
86.08785673231529
 10
154.60704603256596
 20
85.86587465717992
 10
154.48133409418065
 20
85.65520005093916
 10
154.33557777069572
 20
85.45786182521684
 10
154.171180775183
 20
85.27576045500055
 10
153.9897263405814
 20
85.11064967603616
 10
153.79296197228646
 20
84.96411959538091
 10
153.58278261872712
 20
84.83758137781331
 10
153.361212421975
 20
84.73225365554214
 10
153.13038522414766
 20
84.64915079211077
 10
152.8925240173424
 20
84.58907311352243
 10
152.6499195350089
 20
84.55259920066374
 10
152.40490819093378
 20
84.54008031725428
 10
152.15984957829627
 20
84.55163702698475
 10
151.91710374549973
 20
84.58715803242293
 10
151.67900846761168
 20
84.64630124686875
 10
151.44785673231496
 20
84.72849708883595
 10
151.22587465718058
 20
84.83295396743362
 10
151.015200050939
 20
84.95866590581943
 10
150.8178618252167
 20
85.10442222930433
 10
150.63576045500093
 20
85.26881922481657
 10
150.47064967603603
 20
85.45027365941874
 10
150.3241195953808
 20
85.64703802771363
 10
150.19758137781335
 20
85.85721738127276
 10
150.09225365554187
 20
86.07878757802551
 10
150.0091507921106
 20
86.30961477585275
 10
149.94907311352222
 20
86.54747598265838
 10
149.9125992006637
 20
86.7900804649911
 10
149.90008031725424
 20
87.03509180906659
 10
149.91163702698472
 20
87.28015042170364
 10
149.94715803242292
 20
87.5228962545004
 10
150.00630124686867
 20
87.76099153238819
 10
150.08849708883633
 20
87.99214326768606
 10
150.1929539674341
 20
88.21412534282038
 10
150.31866590581853
 20
88.42479994905968
 10
150.4644222293052
 20
88.6221381747844
 10
150.6288192248161
 20
88.8042395449986
 10
150.81027365941836
 20
88.9693503239637
 10
151.00703802771434
 20
89.11588040461969
 10
151.2172173812727
 20
89.24241862218663
 10
151.43878757802463
 20
89.34774634445775
 10
151.6696147758521
 20
89.43084920788917
 10
151.90747598265745
 20
89.49092688647757
 10
152.15008046499096
 20
89.52740079933626
 10
152.3950918090664
 20
89.53991968274575
 10
152.6401504217036
 20
89.52836297301528
 10
152.88289625450034
 20
89.49284196757708
 10
153.120991532388
 20
89.43369875313135
 10
153.35214326768502
 20
89.35150291116406
 10
153.5741253428196
 20
89.24704603256629
 10
153.78479994906058
 20
89.12133409418084
 10
153.98213817478359
 20
88.97557777069542
 10
154.164239544998
 20
88.81118077518445
 10
154.32935032396472
 20
88.62972634058036
 10
154.47588040461923
 20
88.43296197228625
 10
154.6024186221866
 20
88.22278261872727
 10
154.70774634445755
 20
88.00121242197574
 10
154.79084920788918
 20
87.77038522414783
 10
154.8509268864777
 20
87.53252401734176
  0
LWPOLYLINE
  5
36
330
17
100
AcDbEntity
  8
CUT
100
AcDbPolyline
 90
66
 70
1
 10
141.044783454184
 20
63.14674394875531
 10
141.84019436365912
 20
63.06513066769366
 10
142.72270961619037
 20
62.91330853100445
 10
143.5495936318071
 20
62.70269848394941
 10
144.3392412662195
 20
62.42775042934253
 10
145.06593354168882
 20
62.09800445729891
 10
145.74352543807274
 20
61.71002818231447
 10
146.35738456803313
 20
61.271419357965385
 10
146.91060696388658
 20
60.780625859345776
 10
147.40319935100206
 20
60.2376746021164
 10
147.83518086724766
 20
59.642585612846794
 10
148.20150911262695
 20
59.00123062463426
 10
148.50000307346306
 20
58.31119454990218
 10
148.69272145023933
 20
57.712254910360706
 10
148.86629760284364
 20
56.933548636278424
 10
148.96966124188063
 20
56.114808421960795
 10
149.00457544346125
 20
55.2417641576888
 10
148.96986762129183
 20
54.37570087953663
 10
148.86557764187523
 20
53.55487428503012
 10
148.69271758444796
 20
52.78295592392927
 10
148.50002199097275
 20
52.18464660002103
 10
148.20152882033662
 20
51.49340927216428
 10
147.83517536667034
 20
50.84881268117755
 10
147.40010646035972
 20
50.246494898988956
 10
146.90713316316305
 20
49.70120418490626
 10
146.3536676511464
 20
49.20886786033459
 10
145.73971582278423
 20
48.769458846019766
 10
145.06839347916608
 20
48.384554402168554
 10
144.3353771347182
 20
48.05193726173141
 10
143.5519917790059
 20
47.7792656947864
 10
142.71915729075675
 20
47.56717310933268
 10
141.8396209833553
 20
47.416033478686856
 10
141.03534195450365
 20
47.33414676137616
 10
141.0353517865132
 20
48.54408237228302
 10
141.4232686765523
 20
48.69025338179388
 10
141.8057694205419
 20
48.89454585256368
 10
142.15341959324581
 20
49.143562214262786
 10
142.48484138428816
 20
49.44928245489807
 10
142.78752319722267
 20
49.800356156405506
 10
143.0616479405027
 20
50.19684455687527
 10
143.30716640381127
 20
50.63870354860986
 10
143.5240557224217
 20
51.12588555553012
 10
143.67898891870956
 20
51.55444272931898
 10
143.81197107150027
 20
52.00383387551633
 10
143.92448037236866
 20
52.47899225857027
 10
144.0157058813196
 20
52.97480500379208
 10
144.08757888844914
 20
53.502049199037465
 10
144.13892954753354
 20
54.05512367012364
 10
144.1697625594784
 20
54.63402617052659
 10
144.18008204562065
 20
55.238745897641
 10
144.1699032815921
 20
55.84315920349548
 10
144.13924929254108
 20
56.4217092210539
 10
144.08812435419583
 20
56.97440656627043
 10
144.01653307488294
 20
57.50125324745547
 10
143.9244803723691
 20
58.00225289300829
 10
143.81197107150038
 20
58.477411276063926
 10
143.67898891870917
 20
58.92680242226304
 10
143.52667231323935
 20
59.34876492963856
 10
143.3106959902187
 20
59.83543854092984
 10
143.0662675074148
 20
60.276933649124786
 10
142.79336722786266
 20
60.67329834616778
 10
142.4919498792708
 20
61.02457934504165
 10
142.162293275404
 20
61.33041733837175
 10
141.8057694205429
 20
61.5866992990164
 10
141.42326867655245
 20
61.79099176978674
 10
141.03535638490126
 20
61.93715653049915
  0
LWPOLYLINE
  5
37
330
17
100
AcDbEntity
  8
CUT
100
AcDbPolyline
 90
125
 70
1
 10
128.11592562368457
 20
36.599308719542194
 10
140.3612513378157
 20
36.6051076346554
 10
141.1343033974168
 20
36.66011635069698
 10
142.09289638303065
 20
36.790342512647854
 10
142.88840259667523
 20
36.94132548553539
 10
143.15795817862448
 20
37.01238871135138
 10
143.36883500054046
 20
37.08752647137611
 10
143.36883215143055
 20
31.497834137600677
 10
143.09878445372965
 20
31.497832450412744
 10
143.07872434123703
 20
32.170826433427536
 10
143.04116753978604
 20
32.480675649510104
 10
142.9834147497245
 20
32.777453571263436
 10
142.82747513925642
 20
33.278585626739
 10
142.71352153768083
 20
33.53375200917583
 10
142.57516831380408
 20
33.78127971382965
 10
142.30676994829517
 20
34.14827059492636
 10
142.00492571451394
 20
34.44996965572804
 10
141.66912709826315
 20
34.6969038053672
 10
141.24713893136274
 20
34.91929757341835
 10
140.95055970190052
 20
35.031735272016945
 10
140.69397783761664
 20
35.10584438442406
 10
140.4162976223484
 20
35.16548807120813
 10
140.0746462705089
 20
35.21316818231571
 10
136.50970864828872
 20
35.21539303820012
 10
136.3066112710978
 20
35.18445689359818
 10
136.119524070523
 20
35.09968878584034
 10
135.94318115761595
 20
34.94504020180537
 10
135.83471847286643
 20
34.7706180164932
 10
135.78839300869203
 20
34.63116088598201
 10
135.7695217447004
 20
34.45589593243254
 10
135.770484885151
 20
28.363436245627568
 10
135.8007791368168
 20
28.179946669253567
 10
135.8803749827614
 20
28.001177142269555
 10
135.97576456188673
 20
27.87686302244883
 10
136.11952407052266
 20
27.758882642731308
 10
136.29723833549855
 20
27.676957783902978
 10
136.49010084747087
 20
27.64382028330776
 10
138.8310212705028
 20
27.646532883739738
 10
139.175541250217
 20
27.679459903008365
 10
139.5092450129484
 20
27.746084535226913
 10
139.81302331534303
 20
27.841470809291422
 10
140.1112267851072
 20
27.973136922960762
 10
140.40974758856382
 20
28.150171068553874
 10
140.71815343337352
 20
28.39138096003417
 10
140.9708524989334
 20
28.645191337338986
 10
141.20777770355184
 20
28.95368391262288
 10
141.41339234170752
 20
29.32717408348934
 10
141.499581687835
 20
29.544070010546832
 10
141.56635115355434
 20
29.766387447308432
 10
141.6428332096095
 20
30.20090317645976
 10
141.66021133797028
 20
30.736451576685056
 10
141.93025903567116
 20
30.73645326387299
 10
141.93095031612899
 20
23.208589264462773
 10
141.92169258401586
 20
23.19155824008901
 10
141.66021302515824
 20
23.192118164698456
 10
141.64115903755925
 20
23.695771188882645
 10
141.55541414073585
 20
24.17504790404159
 10
141.41558332348094
 20
24.579694680227405
 10
141.19740022316628
 20
24.98312317015592
 10
140.9896716697429
 20
25.259556299914863
 10
140.71565720987036
 20
25.54062994889651
 10
140.4438757410084
 20
25.757304991508846
 10
140.11782985137788
 20
25.954478359645123
 10
139.82207910883398
 20
26.085528369297336
 10
139.51567772879852
 20
26.181881335613483
 10
139.24088246832545
 20
26.239391794164234
 10
138.8956004900662
 20
26.278448224457705
 10
136.50970864828872
 20
26.285393038200112
 10
136.34453631962947
 20
26.264618879725177
 10
136.16184441240785
 20
26.19449249734663
 10
136.003527624292
 20
26.07947146852787
 10
135.8803749827614
 20
25.92739428630189
 10
135.8007791368168
 20
25.748624759317877
 10
135.770484885151
 20
25.565135182943877
 10
135.76984299221456
 20
19.72447261787447
 10
135.78073319700778
 20
19.607347587800334
 10
135.81969321176481
 20
19.465656172636557
 10
135.88554724457495
 20
19.334288040107353
 10
135.9757645618873
 20
19.218291593876828
 10
136.08687816279172
 20
19.122124512321193
 10
136.21461801392098
 20
19.04948244245199
 10
136.35407514443187
 20
19.003156978277488
 10
136.49010084747087
 20
18.985248854736327
 10
139.1924515536418
 20
18.98496209137987
 10
139.654591774877
 20
19.010763092582195
 10
140.0956198752283
 20
19.072774254366067
 10
140.46221735760554
 20
19.15413403541625
 10
140.88297868752224
 20
19.283388491922878
 10
141.29044085332956
 20
19.447957665335792
 10
141.85018377666802
 20
19.743230255033268
 10
142.3755325460797
 20
20.103777294545324
 10
142.8653371273832
 20
20.52890138791497
 10
143.3195480785301
 20
21.018607652931692
 10
143.56686737514934
 20
21.332698038484267
 10
143.7874343150018
 20
21.65082229489967
 10
144.1501014572954
 20
22.282055741490467
 10
144.32628558508372
 20
22.656167686788578
 10
144.48671950856826
 20
23.052432190507588
 10
144.62773393325082
 20
23.461546465591056
 10
144.75433702323906
 20
23.89644566384399
 10
145.02439989759964
 20
23.89643647346901
 10
143.99324910977353
 20
17.600666812058535
 10
128.1159273108725
 20
17.60068959326989
 10
128.11592562368457
 20
17.87073729097078
 10
128.61093859417343
 20
17.876853309300344
 10
128.93983686677262
 20
17.93383852987988
 10
129.1167055975628
 20
17.99456075555024
 10
129.27787456546523
 20
18.071657175701986
 10
129.57650644571754
 20
18.280957923349604
 10
129.81330924510988
 20
18.525776978011507
 10
130.00002987171467
 20
18.805089551735975
 10
130.12327460723967
 20
19.097405994385127
 10
130.1922656796426
 20
19.419164754115982
 10
130.2052360304147
 20
19.608049850889174
 10
130.2052360304147
 20
34.59195014911083
 10
130.16316634826993
 20
34.95273825569788
 10
130.0566812811694
 20
35.2791014863011
 10
129.87744097223685
 20
35.59052387827762
 10
129.64391685082057
 20
35.85759512442158
 10
129.48512301637018
 20
35.99340322140496
 10
129.3264611810149
 20
36.10056490696212
 10
129.1596661112239
 20
36.187044165342144
 10
128.98480754051786
 20
36.2529066037346
 10
128.63103961445552
 20
36.32150983121599
 10
128.1159273108725
 20
36.32926102184132
  0
LWPOLYLINE
  5
38
330
17
100
AcDbEntity
  8
CUT
100
AcDbPolyline
 90
65
 70
1
 10
137.83625704357263
 20
63.04093711411451
 10
138.8327173000619
 20
63.14858769429118
 10
138.83270892487218
 20
61.939281392008276
 10
138.4415715683723
 20
61.790985063830924
 10
138.06146658569642
 20
61.58672199247235
 10
137.7146654975797
 20
61.33763241296586
 10
137.38334256139743
 20
61.031962696681546
 10
137.0806607484638
 20
60.68088899517493
 10
136.80653600518414
 20
60.28440059470578
 10
136.56101754187293
 20
59.84254160296603
 10
136.3458899646676
 20
59.35974920999191
 10
136.1559865762611
 20
58.823134226894645
 10
135.99970818177303
 20
58.252731650311205
 10
135.89446936687054
 20
57.75138754182743
 10
135.79564094937675
 20
57.1052824405593
 10
135.72893465314544
 20
56.421709221052375
 10
135.6939185091801
 20
55.69845786866023
 10
135.69069765834686
 20
54.93316257143885
 10
135.71962278978754
 20
54.19742797541439
 10
135.8132972421627
 20
53.2401840945513
 10
135.9699132704555
 20
52.35778032472681
 10
136.05888985319106
 20
51.993823257654604
 10
136.18919502697617
 20
51.55444272932175
 10
136.30584039337364
 20
51.22444125313976
 10
136.46768354318442
 20
50.835052177723135
 10
136.6979769817119
 20
50.380400619430006
 10
136.91275528243193
 20
50.03280201035896
 10
137.18775091751718
 20
49.66708429920055
 10
137.45223052306403
 20
49.37968385118032
 10
137.76909056744427
 20
49.10008438199574
 10
138.0782604114991
 20
48.88411266067117
 10
138.44157156837278
 20
48.69026008774955
 10
138.83270436849529
 20
48.541969970468635
 10
138.8327214812174
 20
47.33266135568783
 10
138.00753858359647
 20
47.41611730324026
 10
137.13259520560354
 20
47.56669250271524
 10
136.4582592119316
 20
47.7330704334388
 10
135.67420068210055
 20
47.991615709943936
 10
135.07178158986036
 20
48.24641771896674
 10
134.37665294879437
 20
48.61228232696051
 10
133.74456252632487
 20
49.028119102909024
 10
133.17281027319464
 20
49.49479847444935
 10
132.657103945371
 20
50.016470871073665
 10
132.2030831051141
 20
50.58779536202864
 10
131.8755817630013
 20
51.09427722641286
 10
131.53983134099536
 20
51.748533022739075
 10
131.31291201213003
 20
52.324855353579494
 10
131.09924424662327
 20
53.06804060043871
 10
130.97555159021957
 20
53.708950086849796
 10
130.88596831462044
 20
54.5372603033081
 10
130.864983370352
 20
55.41631390951019
 10
130.91360777813276
 20
56.27332801988018
 10
131.00383475018808
 20
56.93332713291879
 10
131.17748208895634
 20
57.70561462835519
 10
131.418478651314
 20
58.428621822408175
 10
131.66814057739083
 20
58.99078082760376
 10
132.03300394055103
 20
59.632447360611415
 10
132.46962462640462
 20
60.237263965157325
 10
132.95935550501582
 20
60.78003598388921
 10
133.51094400066643
 20
61.272376755440156
 10
134.12232376924632
 20
61.71178904577043
 10
134.7903793225368
 20
62.096687643749455
 10
135.51966861083667
 20
62.429301214737485
 10
136.29992328889386
 20
62.70197552871106
 10
137.1303235172608
 20
62.91407005866156
  0
LWPOLYLINE
  5
39
330
17
100
AcDbEntity
  8
CUT
100
AcDbPolyline
 90
166
 70
1
 10
112.67759264632643
 20
62.88055387112288
 10
121.28682004741528
 20
62.88098303405804
 10
121.78141593668919
 20
62.86677830254463
 10
122.28145325009005
 20
62.83075676424622
 10
122.8595904203465
 20
62.762876509102114
 10
123.36972023837127
 20
62.679655593114205
 10
123.86171585253574
 20
62.566339394894825
 10
124.26934748920142
 20
62.44143437668368
 10
124.72466209613111
 20
62.26404127741847
 10
125.1575644968706
 20
62.05263282476185
 10
125.50241585292693
 20
61.838944556566084
 10
125.77218857484657
 20
61.631060232407975
 10
126.14660032720151
 20
61.262389344375094
 10
126.43505938295993
 20
60.88752953985122
 10
126.64285658861988
 20
60.528533638370234
 10
126.80265037023435
 20
60.12927574359508
 10
126.91643458929809
 20
59.680845009624605
 10
126.98126003736569
 20
59.18786850156582
 10
126.9959257613423
 20
58.63262728664517
 10
126.94990787443335
 20
58.09145938762403
 10
126.85706996018371
 20
57.60519100954738
 10
126.73431951457202
 20
57.16840650456262
 10
126.5960850011422
 20
56.79484718637557
 10
126.41730567366099
 20
56.43924806503469
 10
126.27526761472453
 20
56.213290972384144
 10
126.11494359667778
 20
55.99622711721945
 10
125.7858077196778
 20
55.63333894948103
 10
125.41063392336387
 20
55.314459051969436
 10
124.95357980454243
 20
55.02729898130176
 10
124.81617216421047
 20
54.888590809862606
 10
124.71924572145274
 20
54.71910310783123
 10
124.67068347489196
 20
54.54001847860651
 10
124.668708186614
 20
54.344782942185994
 10
124.70358133596346
 20
54.19238293205885
 10
124.75950566858779
 20
54.067439982928505
 10
124.84352623335037
 20
53.94728609882152
 10
125.4656968815982
 20
53.34485354843119
 10
125.74152274062212
 20
53.02850867426304
 10
125.95336218460804
 20
52.75125758840912
 10
126.19900230070452
 20
52.37522574595918
 10
126.97262404473425
 20
51.07402746202775
 10
127.58790330214899
 20
50.10204993168046
 10
128.0948846329534
 20
49.38216672578992
 10
128.58803899026114
 20
48.773000565205415
 10
128.81729172910138
 20
48.528547937989686
 10
129.03198829818575
 20
48.33177271805476
 10
129.24664079430184
 20
48.17229178924538
 10
129.46312483111316
 20
48.04861975656919
 10
129.68025182746854
 20
47.961018919889916
 10
129.94340484917765
 20
47.890987070011484
 10
130.23173775506876
 20
47.843877226380904
 10
130.55524901473856
 20
47.81762889554484
 10
130.55527028713607
 20
47.60069128045781
 10
127.73110077888668
 20
47.60021255472676
 10
126.91361818006901
 20
47.61963184413333
 10
126.30585148294175
 20
47.656591446088406
 10
125.72263311823576
 20
47.71267912620483
 10
125.24707302967484
 20
47.77639866628104
 10
124.8626465204334
 20
47.85220247027576
 10
124.48774130869904
 20
47.95323776870173
 10
124.06831599675655
 20
48.10226017295646
 10
123.66482974410657
 20
48.286935745978425
 10
123.34158028652769
 20
48.46908609031599
 10
123.03534139721663
 20
48.68360670909883
 10
122.7449253446478
 20
48.93458475723873
 10
122.46468647821241
 20
49.22696491269342
 10
122.24642859918904
 20
49.49367964973066
 10
121.99073622775855
 20
49.85601599927508
 10
121.72929182534685
 20
50.28830798852314
 10
121.54556866861414
 20
50.6535524406881
 10
121.39888970891543
 20
51.01589402386419
 10
121.23892811947657
 20
51.48046328608955
 10
121.09607698487098
 20
51.97755774410908
 10
120.74681686510445
 20
53.4804696556811
 10
120.61379211317589
 20
53.914473354154055
 10
120.4850637873613
 20
54.23296236578106
 10
120.30496895660934
 20
54.539682281617345
 10
120.10124546775083
 20
54.748805246251074
 10
119.89593470571675
 20
54.87707691188353
 10
119.65760031644277
 20
54.934056025710134
 10
120.08245874519912
 20
54.93861299102126
 10
120.41768224813512
 20
54.97812317941295
 10
120.75927225281555
 20
55.06692979597607
 10
121.07688752488785
 20
55.201989728552356
 10
121.35901656071931
 20
55.37454473020067
 10
121.62113588776543
 20
55.59442589608359
 10
121.86860665726847
 20
55.87242705101823
 10
122.07933522031048
 20
56.18361185532831
 10
122.25596561190453
 20
56.52617432465259
 10
122.40070174507015
 20
56.913500752888126
 10
122.51128045569001
 20
57.33509423040876
 10
122.59880381861586
 20
57.85291212278124
 10
122.65737638886199
 20
58.37214907122684
 10
122.66343561084422
 20
58.68895940158888
 10
122.62529900303109
 20
59.24517963997588
 10
122.54406249830986
 20
59.78821386653712
 10
122.3965254078823
 20
60.33539486846833
 10
122.2947631529823
 20
60.59191318151639
 10
122.19743187004488
 20
60.788123427531474
 10
122.07813260355188
 20
60.984222683878706
 10
121.93213501662639
 20
61.176848287814984
 10
121.79138087946467
 20
61.32647914716643
 10
121.61204705738538
 20
61.48226132691085
 10
121.39448678677097
 20
61.6400159333582
 10
121.18150172538651
 20
61.76656722984418
 10
120.93660793196835
 20
61.88225582438944
 10
120.70395361459795
 20
61.96615025276087
 10
120.43880241764366
 20
62.03427543832914
 10
120.19185529425104
 20
62.07416582433502
 10
119.60898314487231
 20
62.096066940320405
 10
119.40963584673293
 20
62.07831422826516
 10
119.20225167021904
 20
62.01942653221561
 10
119.01034074209052
 20
61.92121170095605
 10
118.84127809169118
 20
61.787444075372775
 10
118.7206137331538
 20
61.64985274467091
 10
118.61005761215418
 20
61.464776269872246
 10
118.53773242508532
 20
61.261687558394094
 10
118.50641758832593
 20
61.04839119552521
 10
118.50489216433846
 20
56.03837425675739
 10
118.52264487639368
 20
55.83902695861804
 10
118.58153257244321
 20
55.63164278210413
 10
118.6624741358404
 20
55.4675095282512
 10
118.76526667860425
 20
55.32406270095528
 10
118.89467158907037
 20
55.19465779048915
 10
119.03811841636632
 20
55.09186524772533
 10
119.20225167021906
 20
55.01092368432823
 10
119.3711273729491
 20
54.9596957999632
 10
119.56945033965242
 20
54.93502881452892
 10
119.42947369075704
 20
54.91506871472559
 10
119.32774197497626
 20
54.882766670250426
 10
119.20661846665787
 20
54.8213283455953
 10
119.09146094032177
 20
54.732448685818035
 10
119.01909253912162
 20
54.653991190441374
 10
118.93978520724954
 20
54.53204367342897
 10
118.8855239518853
 20
54.397074914227865
 10
118.85929287042973
 20
54.26381763536742
 10
118.85796020109052
 20
49.09915443806242
 10
118.89958119433992
 20
48.83922275425056
 10
118.98746818894287
 20
48.604502823822045
 10
119.12593235017539
 20
48.38317112708184
 10
119.3092051772737
 20
48.185053961129185
 10
119.55763730259743
 20
48.00116685681864
 10
119.83591938866657
 20
47.878840886529616
 10
120.1181626707699
 20
47.82422821465991
 10
120.51330750033796
 20
47.81761390889558
 10
120.5133091875259
 20
47.60069128045781
 10
112.67759433351436
 20
47.600689593269884
 10
112.67759264632643
 20
47.81761222170764
 10
113.07440216448167
 20
47.82260000993105
 10
113.3388625740503
 20
47.86817757054822
 10
113.60935554182299
 20
47.97791582261712
 10
113.85422200599562
 20
48.1494835411591
 10
114.04819259847815
 20
48.351512027210234
 10
114.19335517528282
 20
48.5703126592244
 10
114.29153151874868
 20
48.80317171408521
 10
114.34707530799473
 20
49.06049261078701
 10
114.35784001973043
 20
49.22023684526852
 10
114.35784001973043
 20
61.26100830631217
 10
114.3259477280711
 20
61.54729550868187
 10
114.24289470869525
 20
61.80846024870263
 10
114.10664638265449
 20
62.0518080713564
 10
113.91272299030028
 20
62.2780213694616
 10
113.66109702817334
 20
62.47350203781282
 10
113.37503440819889
 20
62.6024452515613
 10
113.0945031847632
 20
62.657008282166
 10
112.67759433351438
 20
62.66363124268512
  0
LWPOLYLINE
  5
3A
330
17
100
AcDbEntity
  8
CUT
100
AcDbPolyline
 90
93
 70
1
 10
113.5626117717256
 20
36.59945859493148
 10
114.15445721346053
 20
36.58206163189615
 10
114.77620496769268
 20
36.53731080680599
 10
115.40472441515222
 20
36.465432296986265
 10
115.95028804604604
 20
36.38197033441908
 10
116.39315642590054
 20
36.29464659157621
 10
116.82797622243189
 20
36.18468724016198
 10
117.24895474128952
 20
36.05309274595449
 10
117.65609314372249
 20
35.89986181671773
 10
118.04939227318214
 20
35.72499286509748
 10
118.42748342145991
 20
35.52814849745616
 10
118.71900943076032
 20
35.347161538715326
 10
119.04729884759017
 20
35.10383510644765
 10
119.30087451017611
 20
34.88070487658423
 10
119.58309061806573
 20
34.58691697735979
 10
119.8444309180607
 20
34.25970965927759
 10
120.03666079952495
 20
33.97364671071294
 10
120.27202941699531
 20
33.516466854828295
 10
120.42889070056636
 20
33.08072282738223
 10
120.5575824773629
 20
32.52318408771934
 10
120.62053295786647
 20
32.00903267516608
 10
120.64038806963765
 20
31.392310347642834
 10
120.60178013726505
 20
30.800852441031665
 10
120.5010407038246
 20
30.193384201766932
 10
120.36081593291166
 20
29.648864058883788
 10
120.20171550462665
 20
29.178352138535573
 10
119.99566810079119
 20
28.7282488293409
 10
119.74261474683304
 20
28.309055138166627
 10
119.43505759261369
 20
27.908413279497964
 10
119.1351249678408
 20
27.5891284327555
 10
118.80143296233895
 20
27.292563239098826
 10
118.42565644648867
 20
27.03164870244811
 10
117.90673076694317
 20
26.749358066061973
 10
117.82168366150086
 20
26.680900645479838
 10
117.72931658205418
 20
26.57714050322069
 10
117.64930976414998
 20
26.440137940252626
 10
117.59427567062032
 20
26.260064531777743
 10
117.58402542527654
 20
26.10174294246839
 10
117.61538034841759
 20
25.916076433142365
 10
117.6770533228292
 20
25.769901067918966
 10
117.78816961091236
 20
25.617886744866937
 10
118.21807325490742
 20
25.256467116754862
 10
118.62775735210916
 20
24.857405836373758
 10
118.98867917602806
 20
24.458583924406256
 10
119.30105183714787
 20
24.06229923638982
 10
119.63530561522101
 20
23.558013746114398
 10
120.48631483586446
 20
22.120594032945263
 10
121.40104933767698
 20
20.67153273147578
 10
122.04876293769463
 20
19.75841002731032
 10
122.65236523931368
 20
19.020338823279374
 10
122.93717535713532
 20
18.72119949019816
 10
123.19848420201296
 20
18.48679507945006
 10
123.46434223596357
 20
18.294016565782186
 10
123.7276969161743
 20
18.1475952147116
 10
123.97944452958174
 20
18.047886790672933
 10
124.30625305434704
 20
17.96124228056169
 10
124.66261715905023
 20
17.903161822169807
 10
125.06452516474732
 20
17.870753964807975
 10
125.06454643714483
 20
17.600691280457795
 10
121.43816991706579
 20
17.60099920034773
 10
120.3182240025562
 20
17.635071631372156
 10
119.46711710422724
 20
17.697262275210747
 10
118.65369038127805
 20
17.790838506451863
 10
118.08032265263836
 20
17.892423269472147
 10
117.61686427849898
 20
18.010229208058206
 10
117.08468627617742
 20
18.19043450847282
 10
116.57360935931055
 20
18.41552194077937
 10
116.0929480144683
 20
18.681996136635846
 10
115.64656010762421
 20
19.00134825519656
 10
115.2771455379475
 20
19.333335999581536
 10
114.86994788394894
 20
19.782129837954642
 10
114.54144300163932
 20
20.218127608407528
 10
114.21221019574773
 20
20.732253521155755
 10
114.0340600994934
 20
21.04660196651801
 10
113.8624731013229
 20
21.39587608428856
 10
113.55309708356644
 20
22.204609815403785
 10
113.55309668677752
 20
27.759832550559338
 10
113.83051088091258
 20
28.04197366985119
 10
114.08588590072269
 20
28.388185769836483
 10
114.29392447649532
 20
28.75852966191144
 10
114.46685810929868
 20
29.179257612151034
 10
114.60307505474228
 20
29.64563907293808
 10
114.70748366406029
 20
30.173815030651
 10
114.80899167660668
 20
31.007253890539218
 10
114.81527335567527
 20
31.4267507468509
 10
114.77265088580067
 20
32.025880062308545
 10
114.70173612766362
 20
32.53810705035964
 10
114.59902617924931
 20
33.000556477768754
 10
114.46129515839056
 20
33.42113565951125
 10
114.2979286566347
 20
33.77577153248083
 10
114.09256540071782
 20
34.09737136950845
 10
113.86947090560837
 20
34.350052499222684
 10
113.55311555665008
 20
34.61228953188849
  0
LWPOLYLINE
  5
3B
330
17
100
AcDbEntity
  8
CUT
100
AcDbPolyline
 90
63
 70
1
 10
102.83592562368459
 20
36.599308719542194
 10
111.35046922956217
 20
36.599687082255414
 10
111.35047061317806
 20
35.18888270339443
 10
111.18831734248921
 20
35.184080323963784
 10
111.04438119264165
 20
35.15447078752568
 10
110.90898726955076
 20
35.09734964020379
 10
110.78733868575276
 20
35.014912015656364
 10
110.68411032810022
 20
34.91032594556212
 10
110.60326920448777
 20
34.7876106139431
 10
110.53776000783228
 20
34.613556853641825
 10
110.51762774229388
 20
34.467992325801006
 10
110.52132982957272
 20
27.810127981159297
 10
110.55207832663808
 20
27.663554753469015
 10
110.61135076624886
 20
27.52601945236559
 10
110.69678118684106
 20
27.403012036390535
 10
110.79713669705686
 20
27.305643145241362
 10
110.92266825250837
 20
27.223966895736808
 10
111.06193101501661
 20
27.168875479654687
 10
111.35078050424991
 20
27.135191319101594
 10
111.35046309449456
 20
26.876050461754843
 10
111.196596769185
 20
26.87706266574726
 10
111.05252819006519
 20
26.849108450730824
 10
110.91666695350256
 20
26.7936204517884
 10
110.79422029959143
 20
26.712725392775596
 10
110.68988131917617
 20
26.609523790111083
 10
110.60764907877332
 20
26.487971117310508
 10
110.55067534580341
 20
26.352726201034415
 10
110.52114378879638
 20
26.208972659278686
 10
110.5202476265117
 20
19.467438559803213
 10
110.57178213715015
 20
19.14235751649889
 10
110.68219985309254
 20
18.84746870181941
 10
110.85581193961448
 20
18.570948596072157
 10
111.0791725103045
 20
18.329565668991535
 10
111.22752470002592
 20
18.206735895130763
 10
111.3890779300624
 20
18.09954648922836
 10
111.55822743285182
 20
18.013031654259194
 10
111.73490474705056
 20
17.947134382775673
 10
112.0907641965615
 20
17.878481514029204
 10
112.5788304642426
 20
17.8707389781587
 10
112.57883215143053
 20
17.60069128045781
 10
102.83592731087253
 20
17.60068959326989
 10
102.83592562368459
 20
17.87073729097078
 10
103.3309385941736
 20
17.876853309300344
 10
103.65983686677284
 20
17.93383852987992
 10
103.83670559756254
 20
17.994560755550125
 10
103.99787456546554
 20
18.071657175702157
 10
104.29650644571792
 20
18.280957923349902
 10
104.53330924510958
 20
18.52577697801111
 10
104.7200298717153
 20
18.805089551737083
 10
104.84327460723958
 20
19.0974059943848
 10
104.91226567964267
 20
19.419164754116537
 10
104.92523603041471
 20
19.6080498508894
 10
104.92523603041471
 20
34.591950149110616
 10
104.88316634826991
 20
34.95273825569804
 10
104.77668128116977
 20
35.279101486300306
 10
104.59744097223626
 20
35.59052387827846
 10
104.36391685082081
 20
35.85759512442138
 10
104.2051230163702
 20
35.99340322140496
 10
104.04646118101464
 20
36.100564906962305
 10
103.8796661112247
 20
36.1870441653418
 10
103.70480754051768
 20
36.25290660373466
 10
103.3510396144553
 20
36.321509831216005
 10
102.83592731087253
 20
36.32926102184132
  0
LWPOLYLINE
  5
3C
330
17
100
AcDbEntity
  8
CUT
100
AcDbPolyline
 90
163
 70
1
 10
103.70531870732692
 20
54.912476042084386
 10
111.03893550635794
 20
54.91247772927232
 10
111.03893719354589
 20
54.69555510083456
 10
110.62499717177782
 20
54.69328590093814
 10
110.41467681677989
 20
54.675081971688535
 10
110.19545835112355
 20
54.62624832639209
 10
110.00632351598243
 20
54.54464669212721
 10
109.88584542196818
 20
54.4586624813504
 10
109.78719880432993
 20
54.35409997930465
 10
109.71032477929127
 20
54.232630409947454
 10
109.6589752315198
 20
54.103001895071216
 10
109.62998980972596
 20
53.966356775940405
 10
109.61862610620028
 20
53.809740543582876
 10
109.6145156864306
 20
50.103208569271494
 10
109.2704603240366
 20
49.73710627918392
 10
108.81219274238194
 20
49.35985589825939
 10
108.2522787430938
 20
48.98469571963883
 10
107.59765588716887
 20
48.61681791718766
 10
106.95944617703002
 20
48.319163460433025
 10
106.16843186460471
 20
48.01569038018217
 10
105.41929371354269
 20
47.78074719982109
 10
104.62750188597695
 20
47.581781079468264
 10
103.91160820450719
 20
47.45038873827068
 10
103.05552709038672
 20
47.34819278924178
 10
102.2968040645369
 20
47.30290011336627
 10
101.41994871904062
 20
47.29921405388735
 10
100.70573028074342
 20
47.33838173112684
 10
99.86348397040062
 20
47.440779236354246
 10
99.21587234267695
 20
47.566661367509425
 10
98.5890667097434
 20
47.733234344028176
 10
97.85805407833452
 20
47.991574700133064
 10
97.15696865307007
 20
48.31561788865977
 10
96.77031799907706
 20
48.53175261604152
 10
96.40000704178627
 20
48.768358750424376
 10
95.82076565794637
 20
49.2088058172316
 10
95.29346016793977
 20
49.70522748455938
 10
94.8199468061906
 20
50.25699965998373
 10
94.40404728134088
 20
50.85885766344733
 10
94.0486817258273
 20
51.50769418888694
 10
93.75805743145186
 20
52.206732359226145
 10
93.53479546576375
 20
52.9525195968031
 10
93.37933858736896
 20
53.74353488417982
 10
93.29106043923468
 20
54.58662344720626
 10
93.27111529408593
 20
55.10476285505338
 10
93.27500419947296
 20
55.63198458771355
 10
93.33442159350884
 20
56.472785374005845
 10
93.45994241555928
 20
57.26904835173463
 10
93.65156913975412
 20
58.02078727437282
 10
93.7979921619083
 20
58.44972211390452
 10
93.96845258137658
 20
58.86338238825168
 10
94.16272169127073
 20
59.26103284856195
 10
94.38069316225423
 20
59.64256590621261
 10
94.62049123841568
 20
60.0058621763944
 10
94.88471018871762
 20
60.35422223153627
 10
95.16738827223053
 20
60.679774742810466
 10
95.47373027357423
 20
60.98874275208905
 10
95.90347318537647
 20
61.36125171034489
 10
96.25693836583275
 20
61.624626818763694
 10
96.6343265140024
 20
61.87079053956355
 10
97.0311610980733
 20
62.09671206871392
 10
97.44837815925287
 20
62.30323942356796
 10
97.88401990738986
 20
62.48865357759595
 10
98.33721687650487
 20
62.65226180867727
 10
98.80796694477507
 20
62.794062063975474
 10
99.29626783739619
 20
62.91405292558866
 10
99.80211730391703
 20
63.012233568155054
 10
100.32551326484275
 20
63.08860367576577
 10
100.86645390255089
 20
63.14316333415303
 10
101.42493770318083
 20
63.175912919122446
 10
102.00735762573976
 20
63.18685790337921
 10
103.30657392371212
 20
63.14597967270145
 10
104.01375207967017
 20
63.09088294388452
 10
104.8146918188771
 20
63.002640349019934
 10
105.67136886171915
 20
62.88366096516172
 10
106.40430127232821
 20
62.75989659019979
 10
107.09670394158744
 20
62.62027505621001
 10
107.64193348015522
 20
62.484421871505184
 10
108.1143153273415
 20
62.337616734161685
 10
108.5065443144154
 20
62.18220713595989
 10
108.28833816886686
 20
58.01378198622758
 10
108.09304453770994
 20
58.01375431725747
 10
107.95349624019215
 20
58.46818220893175
 10
107.80317178659918
 20
58.88422928511982
 10
107.63686253326749
 20
59.27491584547722
 10
107.45883618848121
 20
59.6302967753635
 10
107.26477732945284
 20
59.959276010095
 10
107.09723970992243
 20
60.20335088884141
 10
106.88686147515627
 20
60.46651167210737
 10
106.6456666768595
 20
60.723328070365525
 10
106.405788404528
 20
60.948057970329465
 10
106.11130731078235
 20
61.186526243035516
 10
105.85324640946715
 20
61.36444289547798
 10
105.58513815591475
 20
61.5210337138128
 10
105.31736467158883
 20
61.65086612627013
 10
105.03949792156159
 20
61.75961494010992
 10
104.63624970392127
 20
61.88481529903877
 10
104.28835460835005
 20
61.969293556836696
 10
103.92708583345973
 20
62.03410054560283
 10
103.51113157149132
 20
62.07999094192602
 10
103.15707202478465
 20
62.09496070528134
 10
102.71681683606397
 20
62.08523284256651
 10
102.27024641939005
 20
62.04477129762489
 10
101.9219348922526
 20
61.98852820833416
 10
101.51702992432347
 20
61.89124136523818
 10
101.1940587804032
 20
61.784944726050625
 10
100.84209561288921
 20
61.634528460763484
 10
100.55956223386313
 20
61.482742936577054
 10
100.30253951937982
 20
61.315739071807506
 10
100.00597687008094
 20
61.08311314454259
 10
99.77474847653671
 20
60.86771963705567
 10
99.5169442448185
 20
60.583939820937935
 10
99.32006421143765
 20
60.32820098709143
 10
99.10146347607032
 20
59.99296869637737
 10
98.804029220977
 20
59.41340768806738
 10
98.5585750394412
 20
58.7597373920027
 10
98.45542336304537
 20
58.40814829687988
 10
98.341178158073
 20
57.933997818408336
 10
98.20260015670533
 20
57.13666729221263
 10
98.10549033698219
 20
56.15235465861901
 10
98.07304835078173
 20
55.22124593696222
 10
98.0931953994306
 20
54.207008420604424
 10
98.18363805683951
 20
53.15568303551595
 10
98.30189526223994
 20
52.40702887971956
 10
98.48775771560439
 20
51.61875417727608
 10
98.69648194751618
 20
50.98842414897302
 10
98.95039256786886
 20
50.42299693247986
 10
99.09308317456596
 20
50.16681967184552
 10
99.28719782110288
 20
49.86908739399635
 10
99.63636330623974
 20
49.44259308548626
 10
99.83368454203111
 20
49.24859347871209
 10
100.03542606938636
 20
49.07861682936153
 10
100.24832340687148
 20
48.92757578539967
 10
100.48029978010418
 20
48.79123542131927
 10
100.77155148393568
 20
48.65513950855514
 10
101.04218658963947
 20
48.55837475397541
 10
101.37801798651667
 20
48.4720651639207
 10
101.6750568592799
 20
48.422411057186
 10
102.05588692259236
 20
48.3902913027688
 10
102.41050745286005
 20
48.38867273048615
 10
102.7272493178474
 20
48.41385837112017
 10
103.05867643920885
 20
48.46993105321856
 10
103.36234424835908
 20
48.54978718307621
 10
103.67745509201436
 20
48.6635554312789
 10
103.94402606601683
 20
48.790790801676835
 10
104.16634859079913
 20
48.92597175243135
 10
104.38960082953442
 20
49.09569649764256
 10
104.60003540554705
 20
49.29653604016668
 10
104.7817135295288
 20
49.51459525022436
 10
104.921805657432
 20
49.740590717366786
 10
105.01114919224462
 20
49.93957410414784
 10
105.07829525123466
 20
50.15317271819122
 10
105.12048865196515
 20
50.36663112491948
 10
105.14270247757439
 20
50.60291389979819
 10
105.16715835962052
 20
53.70621962158058
 10
105.13422641767899
 20
54.01952370411727
 10
105.07890739370745
 20
54.18601063918235
 10
104.99831369502529
 20
54.32694469961778
 10
104.89191432711193
 20
54.44520979879571
 10
104.79309791450456
 20
54.520299265551905
 10
104.61064311155792
 20
54.6100364841777
 10
104.37103254052002
 20
54.671142353618876
 10
104.13962638971023
 20
54.69314477847765
 10
103.70532039451487
 20
54.69555341364663
  0
LWPOLYLINE
  5
3D
330
17
100
AcDbEntity
  8
CUT
100
AcDbPolyline
 90
75
 70
1
 10
101.5857614891439
 20
76.91144309138843
 10
101.49696640652267
 20
77.16517800149313
 10
101.32369315070133
 20
77.48100040736017
 10
101.09124384203311
 20
77.80445714954453
 10
100.80559054595523
 20
78.13543430066099
 10
100.15911555491783
 20
78.7644889540673
 10
98.8925978653489
 20
79.85979280079249
 10
98.41918286116841
 20
80.29579880185926
 10
97.97974895993087
 20
80.75639264233199
 10
97.61118229282556
 20
81.23156838681878
 10
97.41354743664533
 20
81.55842221121901
 10
97.26802162548448
 20
81.87348250836806
 10
97.16252983641719
 20
82.20825937732084
 10
97.1252540653461
 20
82.39906097739922
 10
97.10047032129464
 20
82.71310881611029
 10
97.10809364025754
 20
82.90414586145083
 10
97.15727366749857
 20
83.20914256763405
 10
97.26007973028152
 20
83.52630417592493
 10
97.34053587326349
 20
83.6989847594262
 10
97.51775774484724
 20
83.98468616671013
 10
97.72168458298067
 20
84.22766716577522
 10
97.97480503921406
 20
84.45556827190143
 10
98.1305593215712
 20
84.56718843693723
 10
98.42667835906352
 20
84.73321095947529
 10
98.72009644463698
 20
84.84798745477798
 10
99.04319403936051
 20
84.9246682791094
 10
99.22829582364973
 20
84.94664112880709
 10
99.55259182643613
 20
84.94734495418207
 10
99.86755461610271
 20
84.90085412353447
 10
100.16643512446574
 20
84.8103961263155
 10
100.44342371130456
 20
84.6808802172161
 10
100.69380998297646
 20
84.5187249594436
 10
100.91408939219104
 20
84.33163179095415
 10
101.1792779462475
 20
84.0377956437381
 10
101.26977515134388
 20
83.96462175473403
 10
101.4463153362991
 20
83.885588759065
 10
101.60000000000001
 20
83.865572400337
 10
101.75368466370094
 20
83.885588759065
 10
101.93022484865615
 20
83.96462175473405
 10
102.02072205375252
 20
84.03779564373812
 10
102.28591060780896
 20
84.33163179095415
 10
102.52185976946474
 20
84.53030838030217
 10
102.89201247633578
 20
84.75015220340124
 10
103.18060753690065
 20
84.8608518902322
 10
103.51036018868926
 20
84.93297952358124
 10
103.83111541139962
 20
84.95286677308965
 10
104.13504067398047
 20
84.92806800658164
 10
104.2978714582272
 20
84.89729224264167
 10
104.61801672131462
 20
84.79961626497952
 10
104.7926223270221
 20
84.72402376895793
 10
105.06944067842866
 20
84.5671884369373
 10
105.35587602307196
 20
84.34610031133867
 10
105.57763930438249
 20
84.11769756084963
 10
105.69520842332389
 20
83.96670452478392
 10
105.85946412673648
 20
83.69898475942624
 10
105.93090566419356
 20
83.54778613988339
 10
106.04272633250145
 20
83.20914256763393
 10
106.09190635974245
 20
82.90414586145083
 10
106.09952654953315
 20
82.73689105971195
 10
106.07122935605867
 20
82.37660728703912
 10
106.0374701635828
 20
82.20825937732084
 10
105.93907874578758
 20
81.89185886898484
 10
105.86097435157946
 20
81.7077182444666
 10
105.68482239298925
 20
81.38069571849324
 10
105.4747946145279
 20
81.0710715764064
 10
105.21361555366826
 20
80.74878241514227
 10
104.93618705447888
 20
80.45023306669063
 10
104.62622946716147
 20
80.14866727396414
 10
103.04088444508216
 20
78.7644889540673
 10
102.40396078638697
 20
78.14571072553875
 10
102.0977275840849
 20
77.79051417699931
 10
101.8303428890305
 20
77.40669545181393
 10
101.67420268944329
 20
77.09758783448278
 10
101.62083898953486
 20
76.9383970673599
 10
101.59995666854118
 20
76.82151759290514
  0
LWPOLYLINE
  5
3E
330
17
100
AcDbEntity
  8
CUT
100
AcDbPolyline
 90
125
 70
1
 10
83.83592562368459
 20
36.59930871954218
 10
96.0812513378157
 20
36.6051076346554
 10
96.85430339741818
 20
36.66011635069712
 10
97.812896383028
 20
36.79034251264743
 10
98.60840259667542
 20
36.94132548553543
 10
98.87795817862524
 20
37.01238871135159
 10
99.08883500054048
 20
37.08752647137611
 10
99.08883215143055
 20
31.49783413760069
 10
98.81878445372968
 20
31.497832450412744
 10
98.79872434123682
 20
32.17082643342988
 10
98.76116753978575
 20
32.480675649512094
 10
98.7034147497245
 20
32.77745357126332
 10
98.54747513925629
 20
33.27858562673937
 10
98.43352153768078
 20
33.53375200917594
 10
98.29516831380357
 20
33.78127971383047
 10
98.02676994829513
 20
34.14827059492647
 10
97.72492571451367
 20
34.44996965572828
 10
97.38912709826351
 20
34.696903805367
 10
96.96713893136328
 20
34.91929757341812
 10
96.67055970190118
 20
35.03173527201673
 10
96.41397783761688
 20
35.105844384424
 10
96.13629762234848
 20
35.16548807120812
 10
95.79464627050903
 20
35.2131681823157
 10
92.22970864828868
 20
35.21539303820012
 10
92.02661127109846
 20
35.184456893598366
 10
91.83952407052227
 20
35.099688785839874
 10
91.66318115761547
 20
34.94504020180477
 10
91.55471847286636
 20
34.770618016493
 10
91.50839300869224
 20
34.631160885983064
 10
91.48952174470043
 20
34.455895932432966
 10
91.49048488515103
 20
28.363436245627582
 10
91.52077913681659
 20
28.179946669254406
 10
91.58074353306809
 20
28.0351798105646
 10
91.69576456188621
 20
27.8768630224494
 10
91.83952407052327
 20
27.75888264273094
 10
92.01723833549836
 20
27.67695778390302
 10
92.21010084747086
 20
27.64382028330776
 10
94.55102127050284
 20
27.646532883739752
 10
94.89554125021704
 20
27.679459903008365
 10
95.22924501294992
 20
27.746084535227297
 10
95.53302331534364
 20
27.841470809291636
 10
95.83122678510735
 20
27.973136922960833
 10
96.12974758856387
 20
28.150171068553902
 10
96.43815343337454
 20
28.391380960035065
 10
96.6908524989331
 20
28.645191337338645
 10
96.92777770355127
 20
28.953683912622026
 10
97.13339234170836
 20
29.327174083491144
 10
97.21958168783478
 20
29.54407001054615
 10
97.28635115355426
 20
29.766387447308134
 10
97.36283320960949
 20
30.200903176459676
 10
97.38021133797031
 20
30.73645157668504
 10
97.65025903567117
 20
30.73645326387299
 10
97.650950316129
 20
23.20858926446286
 10
97.64169258401567
 20
23.19155824008901
 10
97.38021302515823
 20
23.192118164698456
 10
97.36115903755923
 20
23.69577118888317
 10
97.27541414073556
 20
24.17504790404284
 10
97.13558332348035
 20
24.579694680228855
 10
96.91740022316642
 20
24.98312317015575
 10
96.70967166974344
 20
25.25955629991425
 10
96.4356572098704
 20
25.54062994889648
 10
96.16387574100789
 20
25.757304991509244
 10
95.83782985137732
 20
25.954478359645435
 10
95.54207910883386
 20
26.08552836929738
 10
95.2356777287987
 20
26.181881335613426
 10
94.96088246832609
 20
26.239391794164135
 10
94.61560049006518
 20
26.27844822445776
 10
92.22970864828868
 20
26.285393038200112
 10
92.06453631963005
 20
26.264618879725305
 10
91.88184441240776
 20
26.19449249734656
 10
91.72352762429267
 20
26.07947146852851
 10
91.6003749827614
 20
25.927394286301848
 10
91.52077913681659
 20
25.74862475931704
 10
91.49048488515103
 20
25.565135182943862
 10
91.4898429922146
 20
19.72447261787397
 10
91.50073319700758
 20
19.60734758780154
 10
91.53969321176476
 20
19.465656172636784
 10
91.60554724457481
 20
19.334288040107623
 10
91.69576456188709
 20
19.218291593877055
 10
91.80687816279254
 20
19.122124512320653
 10
91.93461801392085
 20
19.04948244245203
 10
92.0740751444314
 20
19.003156978277588
 10
92.21010084747086
 20
18.985248854736327
 10
94.91245155364182
 20
18.98496209137987
 10
95.37459177487676
 20
19.01076309258218
 10
95.81561987522832
 20
19.072774254366067
 10
96.18221735760483
 20
19.154134035416078
 10
96.6029786875211
 20
19.283388491922466
 10
97.0104408533296
 20
19.447957665335807
 10
97.5701837766665
 20
19.743230255032344
 10
98.09553254607945
 20
20.103777294545097
 10
98.5853371273824
 20
20.528901387914146
 10
99.03954807853063
 20
21.018607652932317
 10
99.28686737514904
 20
21.33269803848384
 10
99.50743431500159
 20
21.650822294899314
 10
99.8701014572954
 20
22.28205574149048
 10
100.0462855850848
 20
22.656167686791036
 10
100.20671950856755
 20
23.05243219050554
 10
100.34773393325021
 20
23.46154646558918
 10
100.47433702323909
 20
23.896445663844005
 10
100.74439989759964
 20
23.896436473469024
 10
99.71324910977356
 20
17.600666812058535
 10
83.83592731087253
 20
17.60068959326989
 10
83.8359256236846
 20
17.87073729097078
 10
84.33093859417349
 20
17.876853309300344
 10
84.65983686677284
 20
17.93383852987992
 10
84.83670559756335
 20
17.994560755550452
 10
84.99787456546554
 20
18.071657175702157
 10
85.29650644571815
 20
18.280957923350115
 10
85.53330924510979
 20
18.525776978011365
 10
85.72002987171491
 20
18.805089551736373
 10
85.84327460723951
 20
19.0974059943846
 10
85.91226567964276
 20
19.419164754117276
 10
85.92523603041471
 20
19.608049850889387
 10
85.92523603041471
 20
34.591950149110616
 10
85.88316634827001
 20
34.95273825569757
 10
85.77668128116956
 20
35.279101486300846
 10
85.59744097223648
 20
35.590523878278134
 10
85.36391685082124
 20
35.85759512442094
 10
85.20512301636903
 20
35.993403221405856
 10
85.0464611810152
 20
36.10056490696198
 10
84.87966611122431
 20
36.18704416534197
 10
84.70480754051769
 20
36.25290660373466
 10
84.3510396144553
 20
36.321509831216005
 10
83.83592731087253
 20
36.32926102184132
  0
LWPOLYLINE
  5
3F
330
17
100
AcDbEntity
  8
CUT
100
AcDbPolyline
 90
114
 70
1
 10
72.53157859810236
 20
62.880553871122885
 10
82.38013387969981
 20
62.88535663873342
 10
83.00233806122112
 20
62.92965231905605
 10
83.77282164505385
 20
63.03433910617402
 10
84.41266652661639
 20
63.155784018812106
 10
84.79885910083439
 20
63.273146605614755
 10
84.79885623326021
 20
58.77783059132825
 10
84.57287297081409
 20
58.77982456661802
 10
84.58040717033904
 20
59.03370089717496
 10
84.56643700560132
 20
59.30977915505738
 10
84.48960283391636
 20
59.80421149329322
 10
84.34473415390833
 20
60.25615797020882
 10
84.15497151729409
 20
60.62322395305012
 10
83.93657750519822
 20
60.918904583200145
 10
83.68727870400497
 20
61.16443949883086
 10
83.38170851626121
 20
61.38149176797717
 10
83.0474065535377
 20
61.54855163019789
 10
82.6324843803286
 20
61.683272388258594
 10
82.15279619734868
 20
61.76535118713837
 10
79.40762686866825
 20
61.76693415008635
 10
79.17758513429617
 20
61.7211760041063
 10
79.00440418398975
 20
61.6300584925019
 10
78.8544934921548
 20
61.489651807527665
 10
78.75224449406407
 20
61.32280102131636
 10
78.70591902988967
 20
61.18334389080587
 10
78.68704776589783
 20
61.00807893725544
 10
78.68801090634842
 20
56.39780868289183
 10
78.71830515801403
 20
56.21431910651831
 10
78.77826955426555
 20
56.06955224782857
 10
78.89329058308428
 20
55.91123545971278
 10
79.03705009172015
 20
55.79325507999534
 10
79.21476435669598
 20
55.71133022116703
 10
79.40762686866825
 20
55.67819272057182
 10
81.14469305960624
 20
55.67996517630097
 10
81.41613674057884
 20
55.705209955277304
 10
81.68406997326227
 20
55.757547828317904
 10
81.93795582868763
 20
55.836555089465435
 10
82.1778301407704
 20
55.942309179555124
 10
82.42149117882492
 20
56.08692619104703
 10
82.66620114977458
 20
56.27846685323022
 10
82.87228025659071
 20
56.485603062537
 10
83.06014608602355
 20
56.730399763960946
 10
83.22754319986284
 20
57.03477313553207
 10
83.34895222567724
 20
57.3838907186197
 10
83.4110688293296
 20
57.73736361251702
 10
83.42492335615772
 20
58.16519822434942
 10
83.65090661860384
 20
58.163204249059646
 10
83.64253726505328
 20
52.11421283764231
 10
83.6418476717834
 20
52.097743425065836
 10
83.42492504334564
 20
52.09774173787791
 10
83.40917782026195
 20
52.50528175410023
 10
83.34079343714393
 20
52.88694115448855
 10
83.22679671766478
 20
53.2163895306561
 10
83.05325493830873
 20
53.536959175307864
 10
82.88355417681235
 20
53.76262533836761
 10
82.66599526726549
 20
53.98562393554996
 10
82.4440863124059
 20
54.162400966960284
 10
82.19314015559105
 20
54.31467446630656
 10
81.98852409000534
 20
54.40834454553216
 10
81.73954144259616
 20
54.491685156716
 10
81.4839990213053
 20
54.54762620176392
 10
81.19884079328067
 20
54.580004524100055
 10
79.40762686866813
 20
54.58474892884342
 10
79.22413729229528
 20
54.55445467717794
 10
79.07937043360548
 20
54.49449028092648
 10
78.92105364548969
 20
54.37946925210788
 10
78.80307326577186
 20
54.23570974347157
 10
78.73376905232831
 20
54.095174700895235
 10
78.69057882283099
 20
53.90431180102893
 10
78.687369013412
 20
49.45353476463244
 10
78.69825921820501
 20
49.33640973455939
 10
78.73721923296209
 20
49.19471831939497
 10
78.79790100395844
 20
49.07166786045677
 10
78.88659500721198
 20
48.954502534237506
 10
78.99644260128481
 20
48.85689184856323
 10
79.08800858052615
 20
48.79995246368822
 10
79.22413729229528
 20
48.74460525315984
 10
79.36844803416378
 20
48.716878917976835
 10
81.37639003248117
 20
48.71338160990963
 10
81.80596076574892
 20
48.7341056258622
 10
82.11143175067235
 20
48.77478577246192
 10
82.45035054507822
 20
48.847120090097064
 10
82.73759321789487
 20
48.93244787376142
 10
83.06067903214057
 20
49.056685454122636
 10
83.51425030400524
 20
49.28620274320308
 10
83.94677538968999
 20
49.573093364853904
 10
84.34411791114131
 20
49.90795897830824
 10
84.71561508315713
 20
50.29787898361965
 10
85.09683487330696
 20
50.79907526256174
 10
85.42605294607866
 20
51.36310379572844
 10
85.69618428958263
 20
51.98021171032284
 10
85.91342325182681
 20
52.663944056939314
 10
86.1303610569242
 20
52.663934866564325
 10
85.30108553229803
 20
47.600666812058535
 10
72.53158028529027
 20
47.600689593269884
 10
72.53157859810236
 20
47.81761222170764
 10
72.92838811625742
 20
47.82260000993104
 10
73.19284852582604
 20
47.86817757054818
 10
73.46334149359897
 20
47.977915822617156
 10
73.7082079577716
 20
48.14948354115916
 10
73.90217855025406
 20
48.351512027210234
 10
74.04734112705869
 20
48.57031265922433
 10
74.1455174705245
 20
48.80317171408491
 10
74.20106125977075
 20
49.060492610788074
 10
74.21182597150634
 20
49.22023684526852
 10
74.21182597150634
 20
61.26100830631217
 10
74.17993367984701
 20
61.54729550868183
 10
74.09688066047097
 20
61.80846024870304
 10
73.96063233443034
 20
62.05180807135649
 10
73.76670894207605
 20
62.278021369461726
 10
73.51508297994845
 20
62.47350203781333
 10
73.22902035997521
 20
62.60244525156117
 10
72.94848913653917
 20
62.65700828216599
 10
72.53158028529029
 20
62.66363124268512
  0
LWPOLYLINE
  5
40
330
17
100
AcDbEntity
  8
CUT
100
AcDbPolyline
 90
125
 70
1
 10
58.17592562368459
 20
17.87073729097078
 10
58.64171283203395
 20
17.87489315536446
 10
58.94590527215596
 20
17.91979758281711
 10
59.25415094176594
 20
18.028831011423193
 10
59.538537809352704
 20
18.201624676221414
 10
59.81396250106427
 20
18.456192386386093
 10
60.030805320836194
 20
18.752908264319373
 10
60.17513020013707
 20
19.072248820077576
 10
60.252265679642754
 20
19.419164754117233
 10
60.26523603041471
 20
19.608049850888833
 10
60.26523603041471
 20
34.59195014911117
 10
60.223166348270006
 20
34.95273825569757
 10
60.116681281169754
 20
35.27910148630039
 10
59.93744097223616
 20
35.5905238782786
 10
59.70391685082084
 20
35.85759512442134
 10
59.54512301636913
 20
35.99340322140577
 10
59.3864611810142
 20
36.10056490696256
 10
59.21966611122504
 20
36.18704416534166
 10
59.04480754051735
 20
36.25290660373477
 10
58.69103961445567
 20
36.32150983121598
 10
58.17592731087252
 20
36.32926102184132
 10
58.17592562368458
 20
36.59930871954218
 10
67.9188304642426
 20
36.599310406730126
 10
67.91883215143055
 20
36.329262709029265
 10
67.4318656935085
 20
36.32372575151925
 10
67.1277299617306
 20
36.274942311665825
 10
66.81280506525788
 20
36.15763442440564
 10
66.51759615422944
 20
35.96844741231867
 10
66.29336443499021
 20
35.75774940512821
 10
66.10741685240717
 20
35.517683917954045
 10
65.9730217804648
 20
35.26756632109901
 10
65.88050197366435
 20
34.991275426459396
 10
65.84524416234952
 20
34.80247404623043
 10
65.82952174470043
 20
34.591950149110616
 10
65.82952174470043
 20
28.53838978185277
 10
65.85061715068942
 20
28.35358600350105
 10
65.91612634734518
 20
28.179532243199233
 10
66.0290689860141
 20
28.019726101765713
 10
66.17952407052306
 20
27.894596928445367
 10
66.35723833549822
 20
27.812672069617363
 10
66.55010084747103
 20
27.779534569022033
 10
72.3711319628475
 20
27.77857142857144
 10
72.5078884426136
 20
27.78978288087866
 10
72.64957985777849
 20
27.82874289563597
 10
72.78094799030637
 20
27.894596928445367
 10
72.88979564293551
 20
27.97811866988583
 10
72.98740632860944
 20
28.08796626395835
 10
73.04434571348456
 20
28.179532243199844
 10
73.09684967508336
 20
28.306288019370186
 10
73.12645921152138
 20
28.45022416921765
 10
73.130950316129
 20
34.61168531166993
 10
73.11225670957045
 20
34.878898326511106
 10
73.04132606720337
 20
35.17110322940766
 10
72.91436467862887
 20
35.44746014094524
 10
72.72894237225607
 20
35.70583105062319
 10
72.49799149817144
 20
35.931909693854564
 10
72.19398042387101
 20
36.13637375514614
 10
71.85902747843724
 20
36.268408733937775
 10
71.5368341271758
 20
36.323144798284176
 10
71.04164159658683
 20
36.32926102184132
 10
71.04163990939888
 20
36.59930871954218
 10
80.78454474995691
 20
36.599310406730126
 10
80.78454643714483
 20
36.329262709029265
 10
80.2895334666557
 20
36.32314669069966
 10
79.96063519405718
 20
36.26616147012024
 10
79.78376646326716
 20
36.205439244450005
 10
79.62259749536382
 20
36.12834282429782
 10
79.32396561511149
 20
35.9190420766501
 10
79.08716281571901
 20
35.674223021987885
 10
78.90044218911406
 20
35.39491044826278
 10
78.77719745359028
 20
35.10259400561658
 10
78.70820638118666
 20
34.78083524588264
 10
78.69523603041472
 20
34.591950149110644
 10
78.69523603041472
 20
19.608049850889387
 10
78.73730571255952
 20
19.247261744301937
 10
78.84379077965963
 20
18.92089851369971
 10
79.02303108859306
 20
18.6094761217217
 10
79.25655521000874
 20
18.342404875578538
 10
79.41534904446016
 20
18.20659677859433
 10
79.5740108798147
 20
18.099435093037783
 10
79.74080594960513
 20
18.012955834658044
 10
79.91566452031068
 20
17.947093396265686
 10
80.26943244637525
 20
17.878490168783927
 10
80.78454474995691
 20
17.870738978158684
 10
80.78454643714483
 20
17.60069128045781
 10
71.04164159658683
 20
17.60068959326989
 10
71.04163990939888
 20
17.87073729097078
 10
71.53683412717643
 20
17.876855201715884
 10
71.85902747843792
 20
17.931591266062426
 10
72.19398042387061
 20
18.06362624485368
 10
72.49799149817123
 20
18.268090306145282
 10
72.72894237225618
 20
18.49416894937697
 10
72.91436467862955
 20
18.75253985905593
 10
73.0413260672032
 20
19.028896770591885
 10
73.1122567095705
 20
19.32110167348928
 10
73.130950316129
 20
19.588314688330087
 10
73.12645921152138
 20
25.74977583078237
 10
73.09684967508336
 20
25.89371198062983
 10
73.04434571348456
 20
26.020467756800173
 10
72.98740632860944
 20
26.112033736041667
 10
72.88979564293551
 20
26.221881330114186
 10
72.78094799030637
 20
26.30540307155465
 10
72.64957985777849
 20
26.371257104364048
 10
72.5078884426136
 20
26.410217119121356
 10
72.3711319628475
 20
26.421428571428578
 10
66.55010084747103
 20
26.420465430977984
 10
66.35723833549822
 20
26.387327930382654
 10
66.17952407052306
 20
26.30540307155465
 10
66.0290689860141
 20
26.180273898234304
 10
65.91612634734518
 20
26.020467756800784
 10
65.85061715068942
 20
25.846413996498967
 10
65.82952174470043
 20
25.661610218147246
 10
65.82952174470043
 20
19.6080498508894
 10
65.84524416234949
 20
19.39752595376983
 10
65.88050197366422
 20
19.208724573541133
 10
65.97302178046472
 20
18.932433678901248
 10
66.10741685240698
 20
18.682316082046242
 10
66.29336443499062
 20
18.442250594871354
 10
66.51759615422928
 20
18.231552587681463
 10
66.81280506525677
 20
18.04236557559493
 10
67.12772996173128
 20
17.925057688334007
 10
67.43186569350921
 20
17.876274248480726
 10
67.9188304642426
 20
17.8707389781587
 10
67.91883215143055
 20
17.60069128045781
 10
58.18450464370577
 20
17.600128590280335
  0
LWPOLYLINE
  5
41
330
17
100
AcDbEntity
  8
CUT
100
AcDbPolyline
 90
58
 70
1
 10
52.017298424867285
 20
62.880553871122885
 10
60.28962028320971
 20
62.88055555831081
 10
60.289621970397654
 20
62.66363292987305
 10
59.979892608862585
 20
62.65569377740031
 10
59.750130588178166
 20
62.59393286648305
 10
59.515462283900156
 20
62.450980736696174
 10
59.31445851660637
 20
62.24051589642383
 10
59.22386986420376
 20
62.06646962535966
 10
59.18054841371588
 20
61.874694759740095
 10
59.18160128064463
 20
61.65397565902606
 10
59.227033173422534
 20
61.41209865687381
 10
59.28128056335449
 20
61.24686425197204
 10
61.72234518189838
 20
55.394179976310134
 10
61.825921470225026
 20
55.23027909847516
 10
62.000343952551795
 20
55.07671162944959
 10
62.18531310202917
 20
54.99185688622789
 10
62.41548596420932
 20
54.95981592182645
 10
62.61659796262118
 20
54.990926656312965
 10
62.79368623791393
 20
55.06986516410597
 10
62.97073308858942
 20
55.22039948760008
 10
63.07712263635372
 20
55.38248838106627
 10
65.58439699551975
 20
61.11342966946488
 10
65.74141030163344
 20
61.561772057526376
 10
65.77700638400849
 20
61.764569488795715
 10
65.76294952587156
 20
61.95880594619651
 10
65.6993335676872
 20
62.14286682337572
 10
65.590452054154
 20
62.30432955175235
 10
65.37647530688723
 20
62.48710356037871
 10
65.14441504757869
 20
62.6051728598883
 10
64.92605500792932
 20
62.656152275577654
 10
64.61341218700102
 20
62.66363124268512
 10
64.61341049981309
 20
62.880553871122885
 10
69.48019772437466
 20
62.88055555831082
 10
69.4801994115626
 20
62.66363292987305
 10
69.11636906952454
 20
62.6536512085999
 10
68.80281893137098
 20
62.5893530692716
 10
68.46274567325096
 20
62.455114107468795
 10
68.14491022013247
 20
62.26923400533977
 10
67.95255708572189
 20
62.109446127264675
 10
67.77201535173282
 20
61.91440767404361
 10
67.61555096487693
 20
61.700930789301545
 10
67.4594965193198
 20
61.435235584592206
 10
61.945768774614166
 20
49.35944206570416
 10
61.63965264372588
 20
48.63483626869687
 10
61.406101520761354
 20
48.01659261747941
 10
61.23485448779944
 20
47.48469605113169
 10
61.14113062753218
 20
47.076742672191756
 10
60.9456743551183
 20
47.0767825662933
 10
60.9377101367522
 20
47.09169545640585
 10
53.97966981241292
 20
61.54249252652293
 10
53.83656228010553
 20
61.76706783504817
 10
53.67715720112796
 20
61.96931326293462
 10
53.5092007901693
 20
62.13917566076069
 10
53.31494746393365
 20
62.29128305593103
 10
52.99706257704882
 20
62.469078246714496
 10
52.66877235579839
 20
62.59343175593089
 10
52.36674761882828
 20
62.653300506645785
 10
52.01730011205521
 20
62.66363124268512
  0
LWPOLYLINE
  5
42
330
17
100
AcDbEntity
  8
CUT
100
AcDbPolyline
 90
64
 70
1
 10
53.28740079933629
 20
87.28991953500878
 10
53.29991968274573
 20
87.04490819093381
 10
53.28836297301525
 20
86.79984957829635
 10
53.252841967577105
 20
86.55710374549987
 10
53.19369875313133
 20
86.31900846761195
 10
53.11150291116408
 20
86.08785673231506
 10
53.00704603256636
 20
85.86587465718057
 10
52.88133409418078
 20
85.65520005093933
 10
52.73557777069542
 20
85.45786182521644
 10
52.57118077518372
 20
85.27576045500126
 10
52.38972634058116
 20
85.11064967603596
 10
52.19296197228607
 20
84.96411959538064
 10
51.98278261872718
 20
84.83758137781334
 10
51.76121242197559
 20
84.73225365554237
 10
51.5303852241477
 20
84.64915079211079
 10
51.29252401734262
 20
84.58907311352247
 10
51.04991953500907
 20
84.55259920066376
 10
50.804908190933794
 20
84.54008031725428
 10
50.559849578296344
 20
84.55163702698475
 10
50.31710374549971
 20
84.58715803242293
 10
50.07900846761189
 20
84.64630124686869
 10
49.8478567323149
 20
84.72849708883598
 10
49.62587465718047
 20
84.8329539674337
 10
49.41520005093912
 20
84.95866590581934
 10
49.21786182521635
 20
85.10442222930465
 10
49.03576045500125
 20
85.26881922481628
 10
48.87064967603602
 20
85.45027365941874
 10
48.724119595380586
 20
85.64703802771399
 10
48.59758137781339
 20
85.85721738127269
 10
48.492253655542314
 20
86.07878757802452
 10
48.40915079211086
 20
86.30961477585205
 10
48.34907311352248
 20
86.5474759826573
 10
48.31259920066371
 20
86.7900804649912
 10
48.30008031725426
 20
87.03509180906622
 10
48.31163702698474
 20
87.28015042170367
 10
48.34715803242289
 20
87.52289625450014
 10
48.40630124686861
 20
87.76099153238786
 10
48.48849708883586
 20
87.99214326768481
 10
48.5929539674337
 20
88.21412534281957
 10
48.71866590581927
 20
88.42479994906077
 10
48.864422229304495
 20
88.62213817478349
 10
49.02881922481627
 20
88.80423954499875
 10
49.21027365941877
 20
88.96935032396401
 10
49.40703802771399
 20
89.11588040461942
 10
49.617217381272724
 20
89.24241862218663
 10
49.83878757802464
 20
89.34774634445775
 10
50.06961477585216
 20
89.43084920788918
 10
50.307475982657536
 20
89.49092688647758
 10
50.55008046499095
 20
89.52740079933626
 10
50.795091809066406
 20
89.53991968274575
 10
51.0401504217036
 20
89.52836297301528
 10
51.28289625450014
 20
89.4928419675771
 10
51.520991532388116
 20
89.43369875313132
 10
51.752143267685
 20
89.35150291116406
 10
51.9741253428197
 20
89.24704603256623
 10
52.1847999490606
 20
89.12133409418084
 10
52.38213817478376
 20
88.97557777069528
 10
52.56423954499874
 20
88.81118077518373
 10
52.72935032396405
 20
88.62972634058119
 10
52.87588040461942
 20
88.432961972286
 10
53.002418622186674
 20
88.2227826187272
 10
53.10774634445771
 20
88.00121242197544
 10
53.190849207889094
 20
87.77038522414807
 10
53.25092688647758
 20
87.53252401734242
  0
LWPOLYLINE
  5
43
330
17
100
AcDbEntity
  8
CUT
100
AcDbPolyline
 90
186
 70
1
 10
8.333791227706557
 20
29.76197512489155
 10
9.501698500115753
 20
30.51630042210904
 10
10.202023398187134
 20
30.94008426234582
 10
10.905913046073033
 20
31.321673096059357
 10
11.375383552448135
 20
31.542468834062745
 10
12.08006157411517
 20
31.810537727200085
 10
12.55030569672878
 20
31.940357361120917
 10
13.021083177516317
 20
32.02617063060393
 10
13.492568658755628
 20
32.06432784706155
 10
13.964922569095775
 20
32.05171660014874
 10
14.218129932667859
 20
32.02321006811049
 10
14.675246246414636
 20
31.93229966029682
 10
14.927807595279628
 20
31.859984226445732
 10
15.387549517091964
 20
31.68758059031923
 10
15.638179905068705
 20
31.57136308055385
 10
16.10131722544145
 20
31.315249917056065
 10
16.599752063076043
 20
30.98596148650175
 10
16.706500119622337
 20
30.942314728143444
 10
16.81962681680616
 20
30.919897380488592
 10
17.171552266070048
 20
30.94400849736587
 10
18.91435700743856
 20
30.95238765900281
 10
21.836739684606204
 20
30.905365524019246
 10
24.742412636639198
 20
30.782039521360787
 10
26.474710554576486
 20
30.671823234833838
 10
28.160434552139915
 20
30.539172182560492
 10
28.35146882177355
 20
30.566355036575914
 10
28.52399604895986
 20
30.65276889892614
 10
28.61106884733642
 20
30.729561387979174
 10
28.681722207672966
 20
30.821685550201906
 10
28.75612606125473
 20
30.999722249505908
 10
28.770171197702822
 20
31.192168953476212
 10
28.736755864690185
 20
31.343123718389137
 10
28.579597868551293
 20
31.682451484468743
 10
28.409953402434734
 20
32.12070047617793
 10
28.2707403848932
 20
32.572643615935746
 10
28.151321287057105
 20
33.0611906817885
 10
28.054931599411635
 20
33.55764763556397
 10
27.9407914404652
 20
34.32300104859888
 10
27.768706148383504
 20
35.90901839660724
 10
29.51671944707149
 20
35.28173178631262
 10
30.223381988031406
 20
34.98572472283287
 10
30.674297480105746
 20
34.7696258644109
 10
31.11091846257456
 20
34.53071523429942
 10
31.513838761620182
 20
34.27434519536645
 10
31.886633382748524
 20
33.99416122197168
 10
32.21544557030917
 20
33.698327283122
 10
32.519182885894175
 20
33.36565694669261
 10
32.78522112741041
 20
33.00271242138268
 10
32.91186205656167
 20
32.794767555738005
 10
33.10968330289095
 20
32.39829772806509
 10
33.27900199398935
 20
31.93913524535371
 10
33.399812796503376
 20
31.46210954797708
 10
33.47702145023834
 20
30.964683447975673
 10
33.5166811322082
 20
30.392310584981786
 10
33.54141152592528
 20
30.276743712716097
 10
33.58831496684435
 20
30.168266242388725
 10
33.68208349720847
 20
30.041871676539174
 10
33.77229638464816
 20
29.965524251707237
 10
33.87572443934505
 20
29.908340933857602
 10
34.02719509749091
 20
29.865623685774395
 10
36.248478121511475
 20
29.526339422729862
 10
37.959821351472904
 20
29.23259823608133
 10
39.66709879076802
 20
28.91138330309802
 10
41.37029743959059
 20
28.56269808159577
 10
43.069404535527774
 20
28.1865466323936
 10
44.764407600218924
 20
27.782933598663874
 10
46.45529448382341
 20
27.351864181800963
 10
48.14761078927504
 20
26.89178450137709
 10
50.3901160051428
 20
26.237627979613663
 10
51.49544892962493
 20
25.896376825735345
 10
51.68780710606688
 20
25.816562848543626
 10
51.87358065845701
 20
25.693445244091592
 10
51.96870655055633
 20
25.60493123601202
 10
52.090093999294545
 20
25.45414924377758
 10
52.15542954214892
 20
25.341833030282416
 10
52.225391332959944
 20
25.16926038841615
 10
52.25551010316789
 20
25.050412632215625
 10
52.27489891505589
 20
24.84305102380425
 10
52.266823888639216
 20
24.713365022545958
 10
52.22525963687282
 20
24.516800842247562
 10
52.14125227926985
 20
24.318238247673648
 10
52.01028678522466
 20
24.128925588772063
 10
51.85473936258455
 20
23.979755031285194
 10
51.68635713347808
 20
23.870153530736673
 10
51.486550004134344
 20
23.78915074585416
 10
51.26007915031994
 20
23.74789306992119
 10
51.04461100022256
 20
23.75240219451372
 10
50.840962956829614
 20
23.79598445491169
 10
48.10205145746067
 20
24.618175648521955
 10
46.450093768146125
 20
25.07663129708412
 10
44.133087187730744
 20
25.672406210409065
 10
44.01479019806231
 20
25.689000226187133
 10
43.89555038792861
 20
25.681830372385534
 10
43.780094138262626
 20
25.651180844863532
 10
43.6729978587081
 20
25.598266517599214
 10
43.57850658968494
 20
25.52518478799017
 10
43.50036573913821
 20
25.434832441036193
 10
43.21813354674182
 20
24.85119689069252
 10
42.96735713442912
 20
24.41472800039054
 10
42.68321996953629
 20
24.012963346035704
 10
42.37175846103821
 20
23.65706256755577
 10
42.19347973140481
 20
23.48483836783869
 10
41.84027247074476
 20
23.197821966979802
 10
41.4615946290835
 20
22.954700255409975
 10
41.05861253995402
 20
22.753376274077837
 10
40.645465183626385
 20
22.595438197530854
 10
40.196895368302705
 20
22.467907772651486
 10
39.728767829090124
 20
22.373425121990707
 10
39.23546312785593
 20
22.30734454048229
 10
38.737014646378874
 20
22.267688407071972
 10
37.97118628196175
 20
22.245349099203594
 10
36.11451970694608
 20
22.28800177409164
 10
36.843389572917424
 20
23.70337848527717
 10
37.36247030790499
 20
24.601785368744572
 10
37.78177548436797
 20
25.221209661799918
 10
38.08097619365007
 20
25.601139171123265
 10
38.45414197804237
 20
26.011270755838808
 10
38.53489616879383
 20
26.147941069877433
 10
38.57029583082213
 20
26.26177577863733
 10
38.58249123210346
 20
26.380362241514646
 10
38.55036784639734
 20
26.575844130626592
 10
38.5008641325638
 20
26.68429162624939
 10
38.430897066267136
 20
26.780811503083157
 10
38.343228690153865
 20
26.861593511103706
 10
38.241319829529274
 20
26.92344867351045
 10
38.0903041838611
 20
26.97238014422986
 10
37.01559028755708
 20
27.16562082039252
 10
34.7774156720569
 20
27.531470277828703
 10
33.09100097537591
 20
27.77487987825667
 10
30.843668946596214
 20
28.056543079875752
 10
29.147964962487315
 20
28.237021511964073
 10
26.888214614974515
 20
28.435056986533326
 10
25.18316154883112
 20
28.552605810600824
 10
23.161468064327465
 20
28.65505319598232
 10
23.0041662927914
 20
28.63010525133373
 10
22.858970159563818
 20
28.564650456503003
 10
22.736110445250777
 20
28.46330087401995
 10
22.644244066221326
 20
28.333197777690188
 10
22.599673629447633
 20
28.222207039141708
 10
22.46526230636943
 20
27.669330694157154
 10
22.300281481571723
 20
27.178638454431066
 10
22.099065694334012
 20
26.728215712842626
 10
21.984963970542037
 20
26.5180849471797
 10
21.73998686046183
 20
26.141275626412934
 10
21.589544453179087
 20
25.947421939500416
 10
21.294741905225074
 20
25.627142220217735
 10
21.11710006927441
 20
25.463749809366206
 10
20.761719122144005
 20
25.186928039926727
 10
20.38781875155109
 20
24.95063651038116
 10
19.973196201874106
 20
24.737172157880863
 10
19.532884317129774
 20
24.552251070931902
 10
19.06228986968587
 20
24.390210836587173
 10
18.581442934134113
 20
24.253062296039303
 10
17.835049998075046
 20
24.08017587833598
 10
16.006415702981688
 20
23.755943498310984
 10
16.44193364978507
 20
25.287239235292688
 10
16.773702359587748
 20
26.270351263950957
 10
16.961587763236423
 20
26.735550000168104
 10
17.16460756800376
 20
27.170431113811503
 10
17.393233579986305
 20
27.587620941853913
 10
17.55488001079343
 20
27.843991326223374
 10
17.616308151760972
 20
27.987172500772004
 10
17.638101717712843
 20
28.180390088052206
 10
17.610110817307124
 20
28.333657092793374
 10
17.521427965138272
 20
28.50669855395941
 10
17.413355319622795
 20
28.618924079305202
 10
17.31526173909538
 20
28.6826873320351
 10
17.168827640942084
 20
28.735897482813712
 10
16.917572074765683
 20
28.76549314642213
 10
16.765149638098176
 20
28.747216213425702
 10
16.58927768782397
 20
28.67120081590555
 10
16.1305568689363
 20
28.351826309176133
 10
15.672563283069575
 20
28.086624489153337
 10
15.203042283110312
 20
27.870865528009816
 10
14.95279704634175
 20
27.778903783329113
 10
14.497372114198564
 20
27.65214907777414
 10
14.025798927795954
 20
27.57508765486061
 10
13.553268051897112
 20
27.55131742446929
 10
13.064950237120412
 20
27.580265533918976
 10
12.605705701373784
 20
27.654038482137608
 10
12.131003591133986
 20
27.77397677443369
 10
11.655900556501066
 20
27.93422316838098
 10
11.173208351662671
 20
28.13334942348564
 10
10.69928030268866
 20
28.359374723396996
 10
9.987764794499205
 20
28.74381186380873
 10
9.037723101347142
 20
29.312705765962193
  0
LWPOLYLINE
  5
44
330
17
100
AcDbEntity
  8
CUT
100
AcDbPolyline
 90
66
 70
1
 10
43.467370342117405
 20
63.14674394875531
 10
44.26278125159291
 20
63.06513066769361
 10
45.14529650412378
 20
62.91330853100447
 10
45.9721805197407
 20
62.702698483949376
 10
46.7618281541531
 20
62.42775042934247
 10
47.488520429622646
 20
62.09800445729873
 10
48.166112326005845
 20
61.71002818231469
 10
48.779971455966944
 20
61.27141935796509
 10
49.333193851821015
 20
60.78062585934481
 10
49.82578623893508
 20
60.237674602116925
 10
50.257767755181405
 20
59.64258561284632
 10
50.62409600056207
 20
59.001230624630914
 10
50.92258996139635
 20
58.31119454990261
 10
51.115308338172
 20
57.71225491036365
 10
51.28888449077692
 20
56.933548636279475
 10
51.39224812981401
 20
56.11480842196168
 10
51.42716233139472
 20
55.24176415769154
 10
51.39245450922516
 20
54.375700879535
 10
51.28816452980858
 20
53.55487428502946
 10
51.11530447238087
 20
52.78295592392718
 10
50.92260887890718
 20
52.18464660002351
 10
50.62411570826982
 20
51.49340927216372
 10
50.257762254603016
 20
50.84881268117631
 10
49.82269334829537
 20
50.24649489899166
 10
49.329720051097176
 20
49.7012041849069
 10
48.776254539078806
 20
49.20886786033377
 10
48.16230271071581
 20
48.76945884601856
 10
47.49098036709909
 20
48.38455440216833
 10
46.75796402265145
 20
48.05193726173133
 10
45.97457866693907
 20
47.77926569478632
 10
45.14174417868932
 20
47.56717310933249
 10
44.26220787128949
 20
47.416033478686956
 10
43.45792884243711
 20
47.33414676137618
 10
43.45793867444664
 20
48.54408237228303
 10
43.84585556448558
 20
48.69025338179381
 10
44.22835630847552
 20
48.89454585256378
 10
44.57600648117958
 20
49.14356221426304
 10
44.90742827222277
 20
49.449282454899254
 10
45.21011008515665
 20
49.8003561564062
 10
45.48423482843597
 20
50.19684455687498
 10
45.72975329174589
 20
50.63870354861217
 10
45.94664261035448
 20
51.125885555528384
 10
46.1015758066431
 20
51.554442729319234
 10
46.23455795943348
 20
52.003833875515475
 10
46.34706726030205
 20
52.47899225857005
 10
46.43829276925314
 20
52.9748050037927
 10
46.51016577638264
 20
53.502049199038225
 10
46.56151643546742
 20
54.055123670129376
 10
46.592349447411884
 20
54.63402617052813
 10
46.60266893355409
 20
55.23874589764114
 10
46.592490169525526
 20
55.84315920349643
 10
46.561836180474934
 20
56.42170922104828
 10
46.51071124212976
 20
56.974406566265976
 10
46.43911996281652
 20
57.50125324745464
 10
46.34706726030186
 20
58.00225289301154
 10
46.23455795943358
 20
58.4774112760648
 10
46.10157580664371
 20
58.92680242225956
 10
45.94925920117161
 20
59.34876492964152
 10
45.733282878153766
 20
59.83543854092657
 10
45.48885439534832
 20
60.27693364912466
 10
45.21595411579623
 20
60.67329834616764
 10
44.91453676720514
 20
61.02457934504073
 10
44.58488016333791
 20
61.33041733837139
 10
44.228356308475746
 20
61.586699299016765
 10
43.84585556448549
 20
61.79099176978693
 10
43.45794327283473
 20
61.937156530499145
  0
LWPOLYLINE
  5
45
330
17
100
AcDbEntity
  8
CUT
100
AcDbPolyline
 90
64
 70
1
 10
40.43344638970266
 20
63.06558113375888
 10
41.25530418799534
 20
63.148587694291194
 10
41.25529581280565
 20
61.93928139200828
 10
40.86415845630544
 20
61.79098506383078
 10
40.484053473629515
 20
61.58672199247213
 10
40.13725238551334
 20
61.33763241296605
 10
39.81069657754953
 20
61.0368580518191
 10
39.551365861731675
 20
60.74208579882829
 10
39.27359214748671
 20
60.354789862735075
 10
39.02668406358057
 20
59.927350390543445
 10
38.805017854715295
 20
59.44971598551711
 10
38.61178191491011
 20
58.92680242226044
 10
38.45124246813809
 20
58.370884711328486
 10
38.340649898470645
 20
57.87576091655003
 10
38.23544094196207
 20
57.23773578976922
 10
38.162383796452055
 20
56.56230718997463
 10
38.12100827414163
 20
55.847218981052066
 10
38.111345663545265
 20
55.085152032045954
 10
38.13363540845597
 20
54.34557927978444
 10
38.2192360350529
 20
53.36781644119491
 10
38.36826032661962
 20
52.469665967003884
 10
38.57990196305151
 20
51.653910684638696
 10
38.724317204075234
 20
51.23524002811687
 10
38.88819500638382
 20
50.83966914208698
 10
39.08102982215872
 20
50.45168323702093
 10
39.33534217036477
 20
50.03280201035985
 10
39.61033780545052
 20
49.66708429920068
 10
39.874817410997146
 20
49.37968385118064
 10
40.19167745537769
 20
49.100084381995764
 10
40.50084729943223
 20
48.88411266067136
 10
40.864158456305475
 20
48.690260087749884
 10
41.25529125642878
 20
48.54196997046864
 10
41.2553083691508
 20
47.33266135568784
 10
40.43012547152939
 20
47.416117303240334
 10
39.55518209353678
 20
47.56669250271528
 10
38.72492359683059
 20
47.778543512310385
 10
38.09042037755804
 20
47.99404962375806
 10
37.35684009362154
 20
48.31230685700261
 10
36.673699079010476
 20
48.687838536275656
 10
36.05350607638542
 20
49.11319303515336
 10
35.589468516114415
 20
49.500210280445216
 10
35.07969083330245
 20
50.01647087107591
 10
34.62566999304595
 20
50.58779536203084
 10
34.230257286541466
 20
51.213134927566045
 10
33.95904898233475
 20
51.75605958807686
 10
33.69026122829341
 20
52.460568368889625
 10
33.520156518894446
 20
53.075267989820524
 10
33.375487329967925
 20
53.8653301908368
 10
33.29878656478893
 20
54.709977725824835
 10
33.29172853109455
 20
55.59133599663707
 10
33.35426938466897
 20
56.43930243707446
 10
33.45578332275827
 20
57.09215120015409
 10
33.64195804787602
 20
57.850914256603645
 10
33.89801811226217
 20
58.569280615935924
 10
34.159072793242906
 20
59.124163408951496
 10
34.53978608722053
 20
59.760362855106315
 10
34.985842540181395
 20
60.35051883124818
 10
35.487476671998394
 20
60.8827397309341
 10
36.05102351150694
 20
61.364492616092676
 10
36.67120580262096
 20
61.791369353880654
 10
37.354396909386196
 20
62.16772557007194
 10
38.09429431117716
 20
62.48868214138363
 10
38.72870107190422
 20
62.70382523063916
 10
39.55291040519398
 20
62.9140700586615
  0
LWPOLYLINE
  5
46
330
17
100
AcDbEntity
  8
CUT
100
AcDbPolyline
 90
54
 70
1
 10
16.923075426019246
 20
62.880553871122885
 10
24.75879028003079
 20
62.88055555831081
 10
24.758791967218713
 20
62.663632929873046
 10
24.361982449063692
 20
62.65864514164966
 10
24.097522039494027
 20
62.61306758103224
 10
23.82702907172224
 20
62.50332932896363
 10
23.5821626075501
 20
62.3317616104221
 10
23.388192015067435
 20
62.12973312437098
 10
23.243029438262056
 20
61.91093249235577
 10
23.14485309479636
 20
61.678073437495165
 10
23.089309305550373
 20
61.42075254079323
 10
23.078544593814723
 20
61.26100830631255
 10
23.078544593814723
 20
49.473166214324834
 10
23.112645234860505
 20
49.241064451841986
 10
23.22208858133418
 20
49.02274269643078
 10
23.387939429201598
 20
48.856891848563315
 10
23.56908196221265
 20
48.760069147474546
 10
23.799123696585237
 20
48.714311001494345
 10
25.829865786377216
 20
48.71387855076683
 10
26.210000485931754
 20
48.7353243961388
 10
26.561267998004887
 20
48.7851318699281
 10
26.906045709037823
 20
48.86423393229804
 10
27.196813599300565
 20
48.95594198806333
 10
27.529894403109452
 20
49.09131137041913
 10
27.974823877575947
 20
49.327240362599944
 10
28.396793601632833
 20
49.617764368988745
 10
28.790035111126024
 20
49.96001940702685
 10
29.150437025044916
 20
50.34902171935664
 10
29.526286111864337
 20
50.85665333059165
 10
29.819511199335295
 20
51.367003528059776
 10
30.089777123283234
 20
51.98581090191275
 10
30.304920079743678
 20
52.663944056939314
 10
30.5218578848411
 20
52.663934866564304
 10
29.69258236021493
 20
47.600666812058535
 10
16.923077113207167
 20
47.600689593269884
 10
16.923075426019246
 20
47.81761222170765
 10
17.319884944174106
 20
47.82260000993102
 10
17.58434535374305
 20
47.86817757054821
 10
17.85483832151558
 20
47.97791582261699
 10
18.09970478568845
 20
48.14948354115911
 10
18.293675378170626
 20
48.351512027209836
 10
18.438837954975803
 20
48.57031265922474
 10
18.537014298441548
 20
48.803171714085366
 10
18.592558087687582
 20
49.06049261078742
 10
18.60332279942324
 20
49.22023684526805
 10
18.60332279942324
 20
61.26100830631265
 10
18.571430507763893
 20
61.54729550868189
 10
18.488377488387872
 20
61.80846024870304
 10
18.352129162347463
 20
62.05180807135618
 10
18.158205769993067
 20
62.278021369461605
 10
17.906579807865818
 20
62.473502037813034
 10
17.62051718789187
 20
62.60244525156124
 10
17.339985964455526
 20
62.65700828216604
 10
16.923077113207167
 20
62.66363124268512
  0
LWPOLYLINE
  5
47
330
17
100
AcDbEntity
  8
SCORE_OPTIONAL
100
AcDbPolyline
 90
104
 70
1
 10
9.376359095778321
 20
84.30783567390252
 10
6.273730250715895
 20
83.36991803157267
 10
5.866334095722413
 20
83.18710975088487
 10
5.485528753190258
 20
82.95391930148682
 10
5.137512506024772
 20
82.67414227187152
 10
4.827949936401325
 20
82.35233252981945
 10
4.689190135868933
 20
82.17727781051339
 10
4.561879724635363
 20
81.99372810011685
 10
4.343632635716279
 20
81.60416590640467
 10
4.176761028419809
 20
81.18998676488522
 10
4.113473792019242
 20
80.97575986950584
 10
4.028484356370214
 20
80.53739097186418
 10
4.0
 20
80.09176878207369
 10
4.0
 20
7.5
 10
4.0299429851916635
 20
7.043158327229818
 10
4.0672515185886935
 20
6.817183872943545
 10
4.185744546767131
 20
6.374961871438927
 10
4.360945404635591
 20
5.951989584233502
 10
4.589856356941091
 20
5.555504184431399
 10
4.723263308980677
 20
5.369334998469483
 10
5.025126265847084
 20
5.025126265847078
 10
5.369334998469478
 20
4.723263308980677
 10
5.749999999999999
 20
4.46891108675446
 10
6.1606079867221855
 20
4.266421636210495
 10
6.594133342141177
 20
4.119259607988255
 10
6.817183872943551
 20
4.067251518588691
 10
7.271089047694499
 20
4.007493768664887
 10
7.5
 20
4.0
 10
195.7
 20
4.0
 10
195.9289109523055
 20
4.007493768664887
 10
196.38281612705643
 20
4.067251518588691
 10
196.82503812856106
 20
4.1857445467671255
 10
197.2480104157665
 20
4.360945404635586
 10
197.6444958155686
 20
4.589856356941098
 10
198.00771035285024
 20
4.8685606738235805
 10
198.33143932617642
 20
5.192289647149764
 10
198.6101436430589
 20
5.555504184431399
 10
198.8390545953644
 20
5.951989584233502
 10
198.93357836378948
 20
6.160607986722184
 10
199.08074039201173
 20
6.594133342141177
 10
199.13274848141128
 20
6.817183872943545
 10
199.1925062313351
 20
7.2710890476945025
 10
199.2
 20
7.5
 10
199.2
 20
80.09172502652544
 10
199.1928727067387
 20
80.3149743367591
 10
199.13602840805817
 20
80.75783971561222
 10
199.0232649157793
 20
81.18986449833687
 10
198.9464521262759
 20
81.39960445208375
 10
198.75352737865177
 20
81.80227188289157
 10
198.51090840025697
 20
82.17710124327023
 10
198.37216755155262
 20
82.35214989287894
 10
198.06264611013896
 20
82.67395339718618
 10
197.71467409453115
 20
82.95373276460461
 10
197.33391452965122
 20
83.18693476251985
 10
196.92656403709083
 20
83.36976417560761
 10
195.4831018301198
 20
83.81455070988832
 10
192.2208890625847
 20
84.77519524011568
 10
188.94884999375256
 20
85.70181832037474
 10
185.6673394208705
 20
86.59431947408464
 10
182.3943698521847
 20
87.44809412209374
 10
179.0950307149123
 20
88.2722489063638
 10
175.7872885534769
 20
89.06200304442078
 10
172.47150203651995
 20
89.81727090080294
 10
167.46567736149734
 20
90.88900856224272
 10
164.14920321703843
 20
91.55403484338208
 10
160.80809821273593
 20
92.18798040202607
 10
155.7665458517914
 20
93.07660393822994
 10
152.4280418996123
 20
93.62034279390514
 10
149.06605596371497
 20
94.13212406732683
 10
143.99547195597876
 20
94.83645323512806
 10
140.63937229713287
 20
95.25818248772237
 10
137.26097071881196
 20
95.64711974337946
 10
132.16808966236482
 20
96.16621907387405
 10
128.7988517679931
 20
96.46537859526119
 10
125.40852163918451
 20
96.73095525835252
 10
120.3001077463806
 20
97.06413529935806
 10
116.92220653742481
 20
97.2403277548483
 10
113.5244507932018
 20
97.38219109441306
 10
108.40728890664026
 20
97.52900932617895
 10
105.02521081039546
 20
97.58200070224574
 10
101.6245422483104
 20
97.59996229964966
 10
96.50542882941198
 20
97.56022372259835
 10
93.10544894352816
 20
97.4894701531799
 10
89.70639014790193
 20
97.3833164859995
 10
86.30862101291554
 20
97.24177423162459
 10
82.93070316904362
 20
97.0659009852436
 10
77.82225781389101
 20
96.73320368578493
 10
74.43190260350865
 20
96.46794740672254
 10
71.06263645392542
 20
96.16910627631907
 10
65.96970636588492
 20
95.65048822036381
 10
62.59126804849351
 20
95.26187022205036
 10
59.23512855167024
 20
94.84045811943703
 10
54.164478008218666
 20
94.13660811995315
 10
50.80244372454774
 20
93.62514455316156
 10
47.463888404534124
 20
93.08172118523515
 10
42.42225209212618
 20
92.19357407471018
 10
39.081087195563335
 20
91.55994425001467
 10
35.764550221639375
 20
90.89523137537083
 10
30.758624290902052
 20
89.82396676419621
 10
27.442766416744426
 20
89.06901224973248
 10
24.152652714091502
 20
88.28389272004877
 10
19.18908588619899
 20
87.03093342979771
 10
15.902939057722309
 20
86.15565693351867
 10
12.643618456934055
 20
85.25117352097845
  0
ENDSEC
  0
SECTION
  2
OBJECTS
  0
DICTIONARY
  5
A
330
0
100
AcDbDictionary
281
1
  3
ACAD_COLOR
350
B
  3
ACAD_GROUP
350
C
  3
ACAD_LAYOUT
350
D
  3
ACAD_MATERIAL
350
E
  3
ACAD_MLEADERSTYLE
350
F
  3
ACAD_MLINESTYLE
350
10
  3
ACAD_PLOTSETTINGS
350
11
  3
ACAD_PLOTSTYLENAME
350
12
  3
ACAD_SCALELIST
350
14
  3
ACAD_TABLESTYLE
350
15
  3
ACAD_VISUALSTYLE
350
16
  3
EZDXF_META
350
2D
  0
DICTIONARY
  5
B
330
A
100
AcDbDictionary
281
1
  0
DICTIONARY
  5
C
330
A
100
AcDbDictionary
281
1
  0
DICTIONARY
  5
D
330
A
100
AcDbDictionary
281
1
  3
Model
350
1A
  3
Layout1
350
1E
  0
DICTIONARY
  5
E
330
A
100
AcDbDictionary
281
1
  3
ByBlock
350
1F
  3
ByLayer
350
20
  3
Global
350
21
  0
DICTIONARY
  5
F
330
A
100
AcDbDictionary
281
1
  3
Standard
350
2C
  0
DICTIONARY
  5
10
330
A
100
AcDbDictionary
281
1
  3
Standard
350
22
  0
DICTIONARY
  5
11
330
A
100
AcDbDictionary
281
1
  0
ACDBDICTIONARYWDFLT
  5
12
330
A
100
AcDbDictionary
281
1
  3
Normal
350
13
100
AcDbDictionaryWithDefault
340
13
  0
ACDBPLACEHOLDER
  5
13
330
12
  0
DICTIONARY
  5
14
330
A
100
AcDbDictionary
281
1
  0
DICTIONARY
  5
15
330
A
100
AcDbDictionary
281
1
  0
DICTIONARY
  5
16
330
A
100
AcDbDictionary
281
1
  0
LAYOUT
  5
1A
330
D
100
AcDbPlotSettings
  1

  4
A3
  6

 40
7.5
 41
20.0
 42
7.5
 43
20.0
 44
420.0
 45
297.0
 46
0.0
 47
0.0
 48
0.0
 49
0.0
140
0.0
141
0.0
142
1.0
143
1.0
 70
1024
 72
1
 73
0
 74
5
  7

 75
16
 76
0
 77
2
 78
300
147
1.0
148
0.0
149
0.0
100
AcDbLayout
  1
Model
 70
1
 71
0
 10
0.0
 20
0.0
 11
420.0
 21
297.0
 12
0.0
 22
0.0
 32
0.0
 14
1e+20
 24
1e+20
 34
1e+20
 15
-1e+20
 25
-1e+20
 35
-1e+20
146
0.0
 13
0.0
 23
0.0
 33
0.0
 16
1.0
 26
0.0
 36
0.0
 17
0.0
 27
1.0
 37
0.0
 76
1
330
17
  0
LAYOUT
  5
1E
330
D
100
AcDbPlotSettings
  1

  4
A3
  6

 40
7.5
 41
20.0
 42
7.5
 43
20.0
 44
420.0
 45
297.0
 46
0.0
 47
0.0
 48
0.0
 49
0.0
140
0.0
141
0.0
142
1.0
143
1.0
 70
0
 72
1
 73
0
 74
5
  7

 75
16
 76
0
 77
2
 78
300
147
1.0
148
0.0
149
0.0
100
AcDbLayout
  1
Layout1
 70
1
 71
1
 10
0.0
 20
0.0
 11
420.0
 21
297.0
 12
0.0
 22
0.0
 32
0.0
 14
1e+20
 24
1e+20
 34
1e+20
 15
-1e+20
 25
-1e+20
 35
-1e+20
146
0.0
 13
0.0
 23
0.0
 33
0.0
 16
1.0
 26
0.0
 36
0.0
 17
0.0
 27
1.0
 37
0.0
 76
1
330
1B
  0
MATERIAL
  5
1F
102
{ACAD_REACTORS
330
E
102
}
330
E
100
AcDbMaterial
  1
ByBlock
  2

 70
0
 40
1.0
 71
1
 41
1.0
 91
-1023410177
 42
1.0
 72
1
  3

 73
1
 74
1
 75
1
 44
0.5
 73
0
 45
1.0
 46
1.0
 77
1
  4

 78
1
 79
1
170
1
 48
1.0
171
1
  6

172
1
173
1
174
1
140
1.0
141
1.0
175
1
  7

176
1
177
1
178
1
143
1.0
179
1
  8

270
1
271
1
272
1
145
1.0
146
1.0
273
1
  9

274
1
275
1
276
1
 42
1.0
 72
1
  3

 73
1
 74
1
 75
1
 94
63
  0
MATERIAL
  5
20
102
{ACAD_REACTORS
330
E
102
}
330
E
100
AcDbMaterial
  1
ByLayer
  2

 70
0
 40
1.0
 71
1
 41
1.0
 91
-1023410177
 42
1.0
 72
1
  3

 73
1
 74
1
 75
1
 44
0.5
 73
0
 45
1.0
 46
1.0
 77
1
  4

 78
1
 79
1
170
1
 48
1.0
171
1
  6

172
1
173
1
174
1
140
1.0
141
1.0
175
1
  7

176
1
177
1
178
1
143
1.0
179
1
  8

270
1
271
1
272
1
145
1.0
146
1.0
273
1
  9

274
1
275
1
276
1
 42
1.0
 72
1
  3

 73
1
 74
1
 75
1
 94
63
  0
MATERIAL
  5
21
102
{ACAD_REACTORS
330
E
102
}
330
E
100
AcDbMaterial
  1
Global
  2

 70
0
 40
1.0
 71
1
 41
1.0
 91
-1023410177
 42
1.0
 72
1
  3

 73
1
 74
1
 75
1
 44
0.5
 73
0
 45
1.0
 46
1.0
 77
1
  4

 78
1
 79
1
170
1
 48
1.0
171
1
  6

172
1
173
1
174
1
140
1.0
141
1.0
175
1
  7

176
1
177
1
178
1
143
1.0
179
1
  8

270
1
271
1
272
1
145
1.0
146
1.0
273
1
  9

274
1
275
1
276
1
 42
1.0
 72
1
  3

 73
1
 74
1
 75
1
 94
63
  0
MLINESTYLE
  5
22
102
{ACAD_REACTORS
330
10
102
}
330
10
100
AcDbMlineStyle
  2
Standard
 70
0
  3

 62
256
 51
90.0
 52
90.0
 71
2
 49
0.5
 62
256
  6
BYLAYER
 49
-0.5
 62
256
  6
BYLAYER
  0
MLEADERSTYLE
  5
2C
102
{ACAD_REACTORS
330
F
102
}
330
F
100
AcDbMLeaderStyle
179
2
170
2
171
1
172
0
 90
2
 40
0.0
 41
0.0
173
1
 91
-1056964608
 92
-2
290
1
 42
2.0
291
1
 43
8.0
  3
Standard
 44
4.0
300

342
29
174
1
175
1
176
0
178
1
 93
-1056964608
 45
4.0
292
0
297
0
 46
4.0
 94
-1056964608
 47
1.0
 49
1.0
140
1.0
294
1
141
0.0
177
0
142
1.0
295
0
296
0
143
3.75
271
0
272
9
273
9
  0
DICTIONARY
  5
2D
330
A
100
AcDbDictionary
280
1
281
1
  3
CREATED_BY_EZDXF
350
2E
  3
WRITTEN_BY_EZDXF
350
4A
  0
DICTIONARYVAR
  5
2E
330
2D
100
DictionaryVariables
280
0
  1
1.4.4 @ 2026-10-05T10:29:47.653981+00:00
  0
DICTIONARYVAR
  5
4A
330
2D
100
DictionaryVariables
280
0
  1
1.4.4 @ 2026-10-05T10:29:47.699050+00:00
  0
ENDSEC
  0
EOF
