  0
SECTION
  2
HEADER
  9
$ACADVER
  1
AC1024
  9
$ACADMAINTVER
 70
6
  9
$DWGCODEPAGE
  3
ANSI_1252
  9
$LASTSAVEDBY
  1
ezdxf
  9
$INSBASE
 10
0.0
 20
0.0
 30
0.0
  9
$EXTMIN
 10
1e+20
 20
1e+20
 30
1e+20
  9
$EXTMAX
 10
-1e+20
 20
-1e+20
 30
-1e+20
  9
$LIMMIN
 10
0.0
 20
0.0
  9
$LIMMAX
 10
420.0
 20
297.0
  9
$ORTHOMODE
 70
0
  9
$REGENMODE
 70
1
  9
$FILLMODE
 70
1
  9
$QTEXTMODE
 70
0
  9
$MIRRTEXT
 70
1
  9
$LTSCALE
 40
1.0
  9
$ATTMODE
 70
1
  9
$TEXTSIZE
 40
2.5
  9
$TRACEWID
 40
1.0
  9
$TEXTSTYLE
  7
Standard
  9
$CLAYER
  8
0
  9
$CELTYPE
  6
ByLayer
  9
$CECOLOR
 62
256
  9
$CELTSCALE
 40
1.0
  9
$DISPSILH
 70
0
  9
$DIMSCALE
 40
1.0
  9
$DIMASZ
 40
2.5
  9
$DIMEXO
 40
0.625
  9
$DIMDLI
 40
3.75
  9
$DIMRND
 40
0.0
  9
$DIMDLE
 40
0.0
  9
$DIMEXE
 40
1.25
  9
$DIMTP
 40
0.0
  9
$DIMTM
 40
0.0
  9
$DIMTXT
 40
2.5
  9
$DIMCEN
 40
2.5
  9
$DIMTSZ
 40
0.0
  9
$DIMTOL
 70
0
  9
$DIMLIM
 70
0
  9
$DIMTIH
 70
0
  9
$DIMTOH
 70
0
  9
$DIMSE1
 70
0
  9
$DIMSE2
 70
0
  9
$DIMTAD
 70
1
  9
$DIMZIN
 70
8
  9
$DIMBLK
  1

  9
$DIMASO
 70
1
  9
$DIMSHO
 70
1
  9
$DIMPOST
  1

  9
$DIMAPOST
  1

  9
$DIMALT
 70
0
  9
$DIMALTD
 70
3
  9
$DIMALTF
 40
0.03937007874
  9
$DIMLFAC
 40
1.0
  9
$DIMTOFL
 70
1
  9
$DIMTVP
 40
0.0
  9
$DIMTIX
 70
0
  9
$DIMSOXD
 70
0
  9
$DIMSAH
 70
0
  9
$DIMBLK1
  1

  9
$DIMBLK2
  1

  9
$DIMSTYLE
  2
ISO-25
  9
$DIMCLRD
 70
0
  9
$DIMCLRE
 70
0
  9
$DIMCLRT
 70
0
  9
$DIMTFAC
 40
1.0
  9
$DIMGAP
 40
0.625
  9
$DIMJUST
 70
0
  9
$DIMSD1
 70
0
  9
$DIMSD2
 70
0
  9
$DIMTOLJ
 70
0
  9
$DIMTZIN
 70
8
  9
$DIMALTZ
 70
0
  9
$DIMALTTZ
 70
0
  9
$DIMUPT
 70
0
  9
$DIMDEC
 70
2
  9
$DIMTDEC
 70
2
  9
$DIMALTU
 70
2
  9
$DIMALTTD
 70
3
  9
$DIMTXSTY
  7
Standard
  9
$DIMAUNIT
 70
0
  9
$DIMADEC
 70
0
  9
$DIMALTRND
 40
0.0
  9
$DIMAZIN
 70
0
  9
$DIMDSEP
 70
44
  9
$DIMATFIT
 70
3
  9
$DIMFRAC
 70
0
  9
$DIMLDRBLK
  1

  9
$DIMLUNIT
 70
2
  9
$DIMLWD
 70
-2
  9
$DIMLWE
 70
-2
  9
$DIMTMOVE
 70
0
  9
$DIMFXL
 40
1.0
  9
$DIMFXLON
 70
0
  9
$DIMJOGANG
 40
0.785398163397
  9
$DIMTFILL
 70
0
  9
$DIMTFILLCLR
 70
0
  9
$DIMARCSYM
 70
0
  9
$DIMLTYPE
  6

  9
$DIMLTEX1
  6

  9
$DIMLTEX2
  6

  9
$DIMTXTDIRECTION
 70
0
  9
$LUNITS
 70
2
  9
$LUPREC
 70
4
  9
$SKETCHINC
 40
1.0
  9
$FILLETRAD
 40
10.0
  9
$AUNITS
 70
0
  9
$AUPREC
 70
2
  9
$MENU
  1
.
  9
$ELEVATION
 40
0.0
  9
$PELEVATION
 40
0.0
  9
$THICKNESS
 40
0.0
  9
$LIMCHECK
 70
0
  9
$CHAMFERA
 40
0.0
  9
$CHAMFERB
 40
0.0
  9
$CHAMFERC
 40
0.0
  9
$CHAMFERD
 40
0.0
  9
$SKPOLY
 70
0
  9
$TDCREATE
 40
2461319.437337963
  9
$TDUCREATE
 40
2458532.153996898
  9
$TDUPDATE
 40
2461319.437337963
  9
$TDUUPDATE
 40
2458532.1544311
  9
$TDINDWG
 40
0.0
  9
$TDUSRTIMER
 40
0.0
  9
$USRTIMER
 70
1
  9
$ANGBASE
 50
0.0
  9
$ANGDIR
 70
0
  9
$PDMODE
 70
0
  9
$PDSIZE
 40
0.0
  9
$PLINEWID
 40
0.0
  9
$SPLFRAME
 70
0
  9
$SPLINETYPE
 70
6
  9
$SPLINESEGS
 70
8
  9
$HANDSEED
  5
5A
  9
$SURFTAB1
 70
6
  9
$SURFTAB2
 70
6
  9
$SURFTYPE
 70
6
  9
$SURFU
 70
6
  9
$SURFV
 70
6
  9
$UCSBASE
  2

  9
$UCSNAME
  2

  9
$UCSORG
 10
0.0
 20
0.0
 30
0.0
  9
$UCSXDIR
 10
1.0
 20
0.0
 30
0.0
  9
$UCSYDIR
 10
0.0
 20
1.0
 30
0.0
  9
$UCSORTHOREF
  2

  9
$UCSORTHOVIEW
 70
0
  9
$UCSORGTOP
 10
0.0
 20
0.0
 30
0.0
  9
$UCSORGBOTTOM
 10
0.0
 20
0.0
 30
0.0
  9
$UCSORGLEFT
 10
0.0
 20
0.0
 30
0.0
  9
$UCSORGRIGHT
 10
0.0
 20
0.0
 30
0.0
  9
$UCSORGFRONT
 10
0.0
 20
0.0
 30
0.0
  9
$UCSORGBACK
 10
0.0
 20
0.0
 30
0.0
  9
$PUCSBASE
  2

  9
$PUCSNAME
  2

  9
$PUCSORG
 10
0.0
 20
0.0
 30
0.0
  9
$PUCSXDIR
 10
1.0
 20
0.0
 30
0.0
  9
$PUCSYDIR
 10
0.0
 20
1.0
 30
0.0
  9
$PUCSORTHOREF
  2

  9
$PUCSORTHOVIEW
 70
0
  9
$PUCSORGTOP
 10
0.0
 20
0.0
 30
0.0
  9
$PUCSORGBOTTOM
 10
0.0
 20
0.0
 30
0.0
  9
$PUCSORGLEFT
 10
0.0
 20
0.0
 30
0.0
  9
$PUCSORGRIGHT
 10
0.0
 20
0.0
 30
0.0
  9
$PUCSORGFRONT
 10
0.0
 20
0.0
 30
0.0
  9
$PUCSORGBACK
 10
0.0
 20
0.0
 30
0.0
  9
$USERI1
 70
0
  9
$USERI2
 70
0
  9
$USERI3
 70
0
  9
$USERI4
 70
0
  9
$USERI5
 70
0
  9
$USERR1
 40
0.0
  9
$USERR2
 40
0.0
  9
$USERR3
 40
0.0
  9
$USERR4
 40
0.0
  9
$USERR5
 40
0.0
  9
$WORLDVIEW
 70
1
  9
$SHADEDGE
 70
3
  9
$SHADEDIF
 70
70
  9
$TILEMODE
 70
1
  9
$MAXACTVP
 70
64
  9
$PINSBASE
 10
0.0
 20
0.0
 30
0.0
  9
$PLIMCHECK
 70
0
  9
$PEXTMIN
 10
1e+20
 20
1e+20
 30
1e+20
  9
$PEXTMAX
 10
-1e+20
 20
-1e+20
 30
-1e+20
  9
$PLIMMIN
 10
0.0
 20
0.0
  9
$PLIMMAX
 10
420.0
 20
297.0
  9
$UNITMODE
 70
0
  9
$VISRETAIN
 70
1
  9
$PLINEGEN
 70
0
  9
$PSLTSCALE
 70
1
  9
$TREEDEPTH
 70
3020
  9
$CMLSTYLE
  2
Standard
  9
$CMLJUST
 70
0
  9
$CMLSCALE
 40
20.0
  9
$PROXYGRAPHICS
 70
1
  9
$MEASUREMENT
 70
1
  9
$CELWEIGHT
370
-1
  9
$ENDCAPS
280
0
  9
$JOINSTYLE
280
0
  9
$LWDISPLAY
290
0
  9
$INSUNITS
 70
4
  9
$HYPERLINKBASE
  1

  9
$STYLESHEET
  1

  9
$XEDIT
290
1
  9
$CEPSNTYPE
380
0
  9
$PSTYLEMODE
290
1
  9
$FINGERPRINTGUID
  2
{F2D29265-E843-4EC0-9100-02F156147668}
  9
$VERSIONGUID
  2
{927C2BFC-81B1-4361-B7DE-29B1AD59436E}
  9
$EXTNAMES
290
1
  9
$PSVPSCALE
 40
0.0
  9
$OLESTARTUP
290
0
  9
$SORTENTS
280
127
  9
$INDEXCTL
280
0
  9
$HIDETEXT
280
1
  9
$XCLIPFRAME
280
1
  9
$HALOGAP
280
0
  9
$OBSCOLOR
 70
257
  9
$OBSLTYPE
280
0
  9
$INTERSECTIONDISPLAY
280
0
  9
$INTERSECTIONCOLOR
 70
257
  9
$DIMASSOC
280
2
  9
$PROJECTNAME
  1

  9
$CAMERADISPLAY
290
0
  9
$LENSLENGTH
 40
50.0
  9
$CAMERAHEIGHT
 40
0.0
  9
$STEPSPERSEC
 40
24.0
  9
$STEPSIZE
 40
100.0
  9
$3DDWFPREC
 40
2.0
  9
$PSOLWIDTH
 40
0.005
  9
$PSOLHEIGHT
 40
0.08
  9
$LOFTANG1
 40
1.570796326795
  9
$LOFTANG2
 40
1.570796326795
  9
$LOFTMAG1
 40
0.0
  9
$LOFTMAG2
 40
0.0
  9
$LOFTPARAM
 70
7
  9
$LOFTNORMALS
280
1
  9
$LATITUDE
 40
37.795
  9
$LONGITUDE
 40
-122.394
  9
$NORTHDIRECTION
 40
0.0
  9
$TIMEZONE
 70
-8000
  9
$LIGHTGLYPHDISPLAY
280
1
  9
$TILEMODELIGHTSYNCH
280
1
  9
$CMATERIAL
347
20
  9
$SOLIDHIST
280
0
  9
$SHOWHIST
280
1
  9
$DWFFRAME
280
2
  9
$DGNFRAME
280
2
  9
$REALWORLDSCALE
290
1
  9
$INTERFERECOLOR
 62
256
  9
$CSHADOW
280
0
  9
$SHADOWPLANELOCATION
 40
0.0
  0
ENDSEC
  0
SECTION
  2
CLASSES
  0
CLASS
  1
ACDBDICTIONARYWDFLT
  2
AcDbDictionaryWithDefault
  3
ObjectDBX Classes
 90
0
 91
0
280
0
281
0
  0
CLASS
  1
SUN
  2
AcDbSun
  3
SCENEOE
 90
1153
 91
0
280
0
281
0
  0
CLASS
  1
VISUALSTYLE
  2
AcDbVisualStyle
  3
ObjectDBX Classes
 90
4095
 91
0
280
0
281
0
  0
CLASS
  1
MATERIAL
  2
AcDbMaterial
  3
ObjectDBX Classes
 90
1153
 91
0
280
0
281
0
  0
CLASS
  1
SCALE
  2
AcDbScale
  3
ObjectDBX Classes
 90
1153
 91
0
280
0
281
0
  0
CLASS
  1
TABLESTYLE
  2
AcDbTableStyle
  3
ObjectDBX Classes
 90
4095
 91
0
280
0
281
0
  0
CLASS
  1
MLEADERSTYLE
  2
AcDbMLeaderStyle
  3
ACDB_MLEADERSTYLE_CLASS
 90
4095
 91
0
280
0
281
0
  0
CLASS
  1
DICTIONARYVAR
  2
AcDbDictionaryVar
  3
ObjectDBX Classes
 90
0
 91
0
280
0
281
0
  0
CLASS
  1
CELLSTYLEMAP
  2
AcDbCellStyleMap
  3
ObjectDBX Classes
 90
1152
 91
0
280
0
281
0
  0
CLASS
  1
MENTALRAYRENDERSETTINGS
  2
AcDbMentalRayRenderSettings
  3
SCENEOE
 90
1024
 91
0
280
0
281
0
  0
CLASS
  1
ACDBDETAILVIEWSTYLE
  2
AcDbDetailViewStyle
  3
ObjectDBX Classes
 90
1025
 91
0
280
0
281
0
  0
CLASS
  1
ACDBSECTIONVIEWSTYLE
  2
AcDbSectionViewStyle
  3
ObjectDBX Classes
 90
1025
 91
0
280
0
281
0
  0
CLASS
  1
RASTERVARIABLES
  2
AcDbRasterVariables
  3
ISM
 90
0
 91
0
280
0
281
0
  0
CLASS
  1
LAYOUT
  2
AcDbLayout
  3
ObjectDBX Classes
 90
0
 91
0
280
0
281
0
  0
CLASS
  1
ACDBPLACEHOLDER
  2
AcDbPlaceHolder
  3
ObjectDBX Classes
 90
0
 91
0
280
0
281
0
  0
ENDSEC
  0
SECTION
  2
TABLES
  0
TABLE
  2
VPORT
  5
8
330
0
100
AcDbSymbolTable
 70
1
  0
VPORT
  5
23
330
8
100
AcDbSymbolTableRecord
100
AcDbViewportTableRecord
  2
*Active
 70
0
 10
0.0
 20
0.0
 11
1.0
 21
1.0
 12
0.0
 22
0.0
 13
0.0
 23
0.0
 14
0.5
 24
0.5
 15
0.5
 25
0.5
 16
0.0
 26
0.0
 36
1.0
 17
0.0
 27
0.0
 37
0.0
 40
1000.0
 41
1.34
 42
50.0
 43
0.0
 44
0.0
 50
0.0
 51
0.0
 71
0
 72
1000
 73
1
 74
3
 75
0
 76
0
 77
0
 78
0
281
0
 65
0
146
0.0
  0
ENDTAB
  0
TABLE
  2
LTYPE
  5
2
330
0
100
AcDbSymbolTable
 70
3
  0
LTYPE
  5
24
330
2
100
AcDbSymbolTableRecord
100
AcDbLinetypeTableRecord
  2
ByBlock
 70
0
  3

 72
65
 73
0
 40
0.0
  0
LTYPE
  5
25
330
2
100
AcDbSymbolTableRecord
100
AcDbLinetypeTableRecord
  2
ByLayer
 70
0
  3

 72
65
 73
0
 40
0.0
  0
LTYPE
  5
26
330
2
100
AcDbSymbolTableRecord
100
AcDbLinetypeTableRecord
  2
Continuous
 70
0
  3

 72
65
 73
0
 40
0.0
  0
ENDTAB
  0
TABLE
  2
LAYER
  5
1
330
0
100
AcDbSymbolTable
 70
4
  0
LAYER
  5
27
330
1
100
AcDbSymbolTableRecord
100
AcDbLayerTableRecord
  2
0
 70
0
 62
7
  6
Continuous
370
-3
390
13
347
21
  0
LAYER
  5
28
330
1
100
AcDbSymbolTableRecord
100
AcDbLayerTableRecord
  2
Defpoints
 70
0
 62
7
  6
Continuous
290
0
370
-3
390
13
347
21
  0
LAYER
  5
2F
330
1
100
AcDbSymbolTableRecord
100
AcDbLayerTableRecord
  2
CUT
 70
0
 62
1
  6
Continuous
370
-3
390
13
347
21
  0
LAYER
  5
30
330
1
100
AcDbSymbolTableRecord
100
AcDbLayerTableRecord
  2
SCORE_OPTIONAL
 70
0
 62
5
  6
Continuous
370
-3
390
13
347
21
  0
ENDTAB
  0
TABLE
  2
STYLE
  5
5
330
0
100
AcDbSymbolTable
 70
1
  0
STYLE
  5
29
330
5
100
AcDbSymbolTableRecord
100
AcDbTextStyleTableRecord
  2
Standard
 70
0
 40
0.0
 41
1.0
 50
0.0
 71
0
 42
2.5
  3
txt
  4

  0
ENDTAB
  0
TABLE
  2
VIEW
  5
7
330
0
100
AcDbSymbolTable
 70
0
  0
ENDTAB
  0
TABLE
  2
UCS
  5
6
330
0
100
AcDbSymbolTable
 70
0
  0
ENDTAB
  0
TABLE
  2
APPID
  5
3
330
0
100
AcDbSymbolTable
 70
3
  0
APPID
  5
2A
330
3
100
AcDbSymbolTableRecord
100
AcDbRegAppTableRecord
  2
ACAD
 70
0
  0
APPID
  5
57
330
3
100
AcDbSymbolTableRecord
100
AcDbRegAppTableRecord
  2
HATCHBACKGROUNDCOLOR
 70
0
  0
APPID
  5
58
330
3
100
AcDbSymbolTableRecord
100
AcDbRegAppTableRecord
  2
EZDXF
 70
0
  0
ENDTAB
  0
TABLE
  2
DIMSTYLE
  5
4
330
0
100
AcDbSymbolTable
 70
1
100
AcDbDimStyleTable
  0
DIMSTYLE
105
2B
330
4
100
AcDbSymbolTableRecord
100
AcDbDimStyleTableRecord
  2
Standard
 70
0
 40
1.0
 41
2.5
 42
0.625
 43
3.75
 44
1.25
 45
0.0
 46
0.0
 47
0.0
 48
0.0
 49
2.5
140
2.5
141
2.5
142
0.0
143
0.03937007874
144
1.0
145
0.0
146
1.0
147
0.625
148
0.0
 69
0
 70
0
 71
0
 72
0
 73
0
 74
0
 75
0
 76
0
 77
1
 78
8
 79
3
170
0
171
3
172
1
173
0
174
0
175
0
176
0
177
0
178
0
179
2
271
2
272
2
273
2
274
3
275
0
276
0
277
2
278
44
279
0
280
0
281
0
282
0
283
0
284
8
285
0
286
0
288
0
289
3
290
0
371
-2
372
-2
  0
ENDTAB
  0
TABLE
  2
BLOCK_RECORD
  5
9
330
0
100
AcDbSymbolTable
 70
2
  0
BLOCK_RECORD
  5
17
330
9
100
AcDbSymbolTableRecord
100
AcDbBlockTableRecord
  2
*Model_Space
340
1A
 70
0
280
1
281
0
  0
BLOCK_RECORD
  5
1B
330
9
100
AcDbSymbolTableRecord
100
AcDbBlockTableRecord
  2
*Paper_Space
340
1E
 70
0
280
1
281
0
  0
ENDTAB
  0
ENDSEC
  0
SECTION
  2
BLOCKS
  0
BLOCK
  5
18
330
17
100
AcDbEntity
  8
0
100
AcDbBlockBegin
  2
*Model_Space
 70
0
 10
0.0
 20
0.0
 30
0.0
  3
*Model_Space
  1

  0
ENDBLK
  5
19
330
17
100
AcDbEntity
  8
0
100
AcDbBlockEnd
  0
BLOCK
  5
1C
330
1B
100
AcDbEntity
  8
0
100
AcDbBlockBegin
  2
*Paper_Space
 70
0
 10
0.0
 20
0.0
 30
0.0
  3
*Paper_Space
  1

  0
ENDBLK
  5
1D
330
1B
100
AcDbEntity
  8
0
100
AcDbBlockEnd
  0
ENDSEC
  0
SECTION
  2
ENTITIES
  0
LWPOLYLINE
  5
31
330
17
100
AcDbEntity
  8
CUT
100
AcDbPolyline
 90
156
 70
1
 10
77.15335697642595
 20
173.4292800028004
 10
76.90930052107774
 20
173.36634350951283
 10
76.53325817606623
 20
173.33064655380832
 10
10.040909120772294
 20
173.33064655380832
 10
9.297138551065851
 20
173.30386828449616
 10
8.646362201597302
 20
173.23649468752515
 10
8.0013823369959
 20
173.1266704273446
 10
7.364960860060666
 20
172.97486578829708
 10
6.73982302526138
 20
172.7817308211525
 10
6.1286457687791325
 20
172.54809255949073
 10
5.534046245456419
 20
172.2749514782172
 10
4.958570621736152
 20
171.96347720937501
 10
4.377777509804956
 20
171.59636780589946
 10
3.8747557291034562
 20
171.23102266867627
 10
3.34681265798001
 20
170.79118804037282
 10
2.8729896959442005
 20
170.339730796423
 10
2.450854915004516
 20
169.88319695838308
 10
2.1183828361089723
 20
169.47861752888116
 10
1.7143498683454845
 20
168.9226408830847
 10
1.3661388517484927
 20
168.36833563089692
 10
1.0548993540829594
 20
167.7924259199537
 10
0.7819641506600282
 20
167.19737788405223
 10
0.5069429543738314
 20
166.46155146783687
 10
0.3301093340048487
 20
165.8652524397072
 10
0.20382238113070356
 20
165.32322869124656
 10
0.0775300508969833
 20
164.54784652779793
 10
0.020338723955419823
 20
163.92848066775156
 10
0.0
 20
163.28216347129407
 10
0.000936965196786605
 20
9.982994460195897
 10
0.02033872395542042
 20
9.402165886056792
 10
0.08126966586553554
 20
8.750268629857146
 10
0.18467413381751782
 20
8.1037552159747
 10
0.3221587132312596
 20
7.497158713755766
 10
0.559525456749428
 20
6.714075184091513
 10
0.7819641506600253
 20
6.13326866975612
 10
1.0548993540828582
 20
5.53822063385482
 10
1.3661388517484154
 20
4.962310922911541
 10
1.6598202734801122
 20
4.48967653537963
 10
2.0382909640444455
 20
3.955605402228656
 10
2.429685686189056
 20
3.4724192768435955
 10
2.988661379154343
 20
2.875156821826579
 10
3.4448511085560805
 20
2.452703620250162
 10
3.952623897086033
 20
2.0398284680291
 10
4.513793019982063
 20
1.6433275358523929
 10
4.958570621735225
 20
1.3671693444338473
 10
5.504940147211729
 20
1.0706568292897316
 10
6.128645768778208
 20
0.7825539943179649
 10
6.832764859179257
 20
0.5173424331902083
 10
7.49150779184063
 20
0.3224017208850114
 10
8.0976470769186
 20
0.18481343542924833
 10
8.613995087078127
 20
0.09895669577997523
 10
9.297138551066721
 20
0.026778269312131897
 10
10.04090912077213
 20
0.0
 10
294.75909087922787
 20
0.0
 10
295.4049209193968
 20
0.02035406566551501
 10
296.0563268133844
 20
0.08133096841618226
 10
296.7023529230823
 20
0.18481343542941886
 10
297.30849220816015
 20
0.3224017208852388
 10
298.0909854950333
 20
0.5599475125961817
 10
298.6713542312217
 20
0.7825539943179933
 10
299.2659537545446
 20
1.0556950755917
 10
299.8414293782647
 20
1.3671693444338473
 10
300.31370752150025
 20
1.6610722931025919
 10
300.8473761029129
 20
2.0398284680283325
 10
301.3301980307165
 20
2.4315184232647766
 10
301.9270103040553
 20
2.990915757384869
 10
302.3491450849945
 20
3.4474495954242457
 10
302.7617090359564
 20
3.9556054022298497
 10
303.1579111088054
 20
4.5171978208064445
 10
303.48293648708807
 20
5.047376020294877
 10
303.7301501695169
 20
5.509092580577345
 10
304.01803584934055
 20
6.133268669757712
 10
304.2830475094278
 20
6.837918884479677
 10
304.47784128676886
 20
7.4971587137565905
 10
304.6153258661823
 20
8.103755215973905
 10
304.70111789201815
 20
8.62049271278633
 10
304.77324191458877
 20
9.30415147896474
 10
304.7998661401495
 20
10.032109283057139
 10
304.7998661401495
 20
163.29853727075124
 10
304.7796612760446
 20
163.92848066775073
 10
304.7187303341343
 20
164.58037792395228
 10
304.61532586618205
 20
165.2268913378354
 10
304.4778412867685
 20
165.83348784005335
 10
304.24047454325085
 20
166.61657136971579
 10
304.01803584934027
 20
167.19737788405135
 10
303.74510064591686
 20
167.7924259199539
 10
303.4338611482501
 20
168.3683356308993
 10
303.1401797265198
 20
168.84097001842878
 10
302.7617090359551
 20
169.37504115158015
 10
302.3703143138118
 20
169.85822727696376
 10
301.8113386208451
 20
170.45548973198225
 10
301.3551488914447
 20
170.87794293355745
 10
300.8473761029137
 20
171.29081808577936
 10
300.2862069800173
 20
171.68731901795633
 10
299.84142937826385
 20
171.963477209375
 10
299.2950598527884
 20
172.25998972451845
 10
298.6713542312215
 20
172.54809255949044
 10
297.9672351408212
 20
172.81330412061797
 10
297.3084922081596
 20
173.00824483292325
 10
296.7023529230818
 20
173.145833118379
 10
296.18600491292216
 20
173.2316898580283
 10
295.502861448934
 20
173.30386828449616
 10
294.8408872175163
 20
173.3293070352465
 10
228.2667418239337
 20
173.33064655380832
 10
227.8906994789222
 20
173.36634350951283
 10
227.52807058294005
 20
173.47216106445228
 10
153.15331934103023
 20
203.05365387854047
 10
152.80680494459298
 20
203.15839149239008
 10
152.43151144584618
 20
203.2
 10
152.05509393226868
 20
203.17025006868542
 10
151.87067115018644
 20
203.12884829543205
 10
151.64668065896973
 20
203.05365387854047
 10
111.13867124099363
 20
186.94217290547004
 10
110.89161882448356
 20
186.86206832332016
 10
110.63627747233596
 20
186.8146747611503
 10
110.37695236557352
 20
186.8007912977729
 10
109.99005990661351
 20
186.84315393289626
 10
109.61869163951893
 20
186.95970324907978
 10
109.27691106362568
 20
187.1460255918032
 10
108.9776612096879
 20
187.39506504278987
 10
108.80746545803989
 20
187.5913644158347
 10
108.60329142436268
 20
187.92296104158748
 10
108.50460174581694
 20
188.16335530563506
 10
108.41686049277345
 20
188.54282352019322
 10
108.39999999999998
 20
188.8021670155398
 10
108.39999999999998
 20
194.33011190184507
 10
108.38609761245215
 20
194.57514155142738
 10
108.35413884423232
 20
194.7688589688061
 10
108.28233187427763
 20
195.0205042202314
 10
108.11476828518857
 20
195.37505490262373
 10
107.88130711255279
 20
195.69007830008587
 10
107.59092013830812
 20
195.9534682401205
 10
107.31344076223647
 20
196.1261461588222
 10
107.01156033632216
 20
196.25128344665563
 10
106.6933430937632
 20
196.32553726922606
 10
106.41635406594516
 20
196.34745991149043
 10
98.41636282680757
 20
196.34799569201613
 10
98.04211006529086
 20
196.31487250417698
 10
97.66526331869274
 20
196.2071770008174
 10
97.42886338179858
 20
196.09528381907518
 10
97.20907986169173
 20
195.95346824012043
 10
97.00967331533681
 20
195.78415676782785
 10
96.83405564402781
 20
195.5902463684303
 10
96.68523171481138
 20
195.37505490262373
 10
96.56574794637824
 20
195.14226435605065
 10
96.4776487391331
 20
194.89585783950392
 10
96.41390238754781
 20
194.57514155142738
 10
96.39999999999998
 20
194.33011190184507
 10
96.39561252540862
 20
182.3058927880618
 10
96.36062814381897
 20
182.04320919900167
 10
96.24406271833507
 20
181.66358162019304
 10
96.05489312071613
 20
181.31445992235678
 10
95.89201291312558
 20
181.10551394547667
 10
95.70297675169886
 20
180.9199342555825
 10
95.49109856292287
 20
180.76097418497386
 10
95.13867124099363
 20
180.5784019062777
  0
LWPOLYLINE
  5
32
330
17
100
AcDbEntity
  8
CUT
100
AcDbPolyline
 90
64
 70
1
 10
289.77789187583187
 20
156.53117119772696
 10
289.7984206029337
 20
156.28670064217636
 10
289.7948881738535
 20
156.04139511204482
 10
289.76732860781465
 20
155.7976170336895
 10
289.7160073185033
 20
155.55771412326283
 10
289.64141855799016
 20
155.32399677693695
 10
289.54428065681526
 20
155.09871582052475
 10
289.4255291060655
 20
154.88404083278155
 10
289.28630754809217
 20
154.6820392511959
 10
289.1279567626062
 20
154.49465646142482
 10
288.9520017542315
 20
154.32369706216352
 10
288.76013706588725
 20
154.17080748588512
 10
288.55421045940807
 20
154.03746014278832
 10
288.3362051205828
 20
153.92493924068043
 10
288.10822055999887
 20
153.8343284173595
 10
287.8724523936034
 20
153.7665003045869
 10
287.63117119772465
 20
153.72210812416776
 10
287.3867006421745
 20
153.70157939706615
 10
287.14139511204434
 20
153.70511182614644
 10
286.8976170336881
 20
153.7326713921855
 10
286.657714123262
 20
153.78399268149684
 10
286.4239967769382
 20
153.8585814420093
 10
286.19871582052457
 20
153.95571934318477
 10
285.9840408327815
 20
154.07447089393452
 10
285.78203925119715
 20
154.21369245190684
 10
285.5946564614234
 20
154.37204323739508
 10
285.4236970621638
 20
154.54799824576813
 10
285.27080748588537
 20
154.7398629341123
 10
285.13746014278854
 20
154.94578954059142
 10
285.02493924067966
 20
155.1637948794187
 10
284.9343284173594
 20
155.39177944000122
 10
284.8665003045866
 20
155.62754760639757
 10
284.82210812416804
 20
155.86882880227301
 10
284.80157939706623
 20
156.11329935782362
 10
284.8051118261464
 20
156.35860488795515
 10
284.83267139218515
 20
156.6023829663098
 10
284.88399268149664
 20
156.84228587673715
 10
284.95858144200974
 20
157.07600322306303
 10
285.05571934318465
 20
157.30128417947523
 10
285.1744708939344
 20
157.51595916721843
 10
285.31369245190774
 20
157.71796074880407
 10
285.47204323739413
 20
157.90534353857555
 10
285.6479982457684
 20
158.07630293783646
 10
285.83986293411266
 20
158.22919251411486
 10
286.04578954059184
 20
158.36253985721166
 10
286.2637948794171
 20
158.47506075931955
 10
286.49177944000104
 20
158.56567158264048
 10
286.7275476063965
 20
158.63349969541306
 10
286.96882880227525
 20
158.67789187583222
 10
287.2132993578254
 20
158.69842060293382
 10
287.4586048879556
 20
158.69488817385354
 10
287.7023829663118
 20
158.66732860781448
 10
287.9422858767379
 20
158.61600731850314
 10
288.1760032230617
 20
158.54141855799068
 10
288.40128417947534
 20
158.4442806568152
 10
288.6159591672184
 20
158.32552910606546
 10
288.81796074880276
 20
158.18630754809314
 10
289.0053435385765
 20
158.0279567626049
 10
289.1763029378361
 20
157.85200175423185
 10
289.32919251411454
 20
157.66013706588768
 10
289.46253985721137
 20
157.45421045940856
 10
289.57506075932025
 20
157.23620512058127
 10
289.6656715826405
 20
157.00822055999876
 10
289.7334996954133
 20
156.7724523936024
  0
LWPOLYLINE
  5
33
330
17
100
AcDbEntity
  8
CUT
100
AcDbPolyline
 90
246
 70
1
 10
254.32537721857926
 20
52.39904187536936
 10
253.23930313523059
 20
50.5317246217389
 10
252.21201519053022
 20
48.604388796267784
 10
251.24353832196297
 20
46.61687178131882
 10
250.3329642122804
 20
44.56681395692948
 10
250.23355938473182
 20
44.383809532778145
 10
250.0967922314258
 20
44.21725142974029
 10
249.91811148381086
 20
44.07211551453486
 10
249.72659708707872
 20
43.97308735722751
 10
249.5338112903954
 20
43.91653030109299
 10
249.3193279447296
 20
43.89546491851968
 10
249.09035498658852
 20
43.91918469699013
 10
248.898638038107
 20
43.97926527343921
 10
248.70859835433586
 20
44.080910610288385
 10
248.60486223158222
 20
44.159156899720784
 10
248.46960927813143
 20
44.297637080527466
 10
248.39305369686997
 20
44.40262711792036
 10
248.2953224730178
 20
44.59477228757703
 10
248.2413191226507
 20
44.78065870462481
 10
248.2202537400774
 20
44.99514205029061
 10
248.24261691504222
 20
45.21688434598423
 10
248.27660469928182
 20
45.34229764470598
 10
248.9249561273264
 20
46.8380433631539
 10
249.5726657087609
 20
48.23018759480681
 10
250.24801825225362
 20
49.59579310225959
 10
250.95745798147644
 20
50.94668931556805
 10
251.68169715984848
 20
52.24720635555198
 10
252.44003677478958
 20
53.53291677592702
 10
253.22604517984922
 20
54.79189448959258
 10
254.04768858820256
 20
56.03580485577467
 10
254.88104750840432
 20
57.22943632117898
 10
255.7587313526228
 20
58.41936846787664
 10
256.65568251293786
 20
59.57070888265483
 10
257.9656487854722
 20
61.14737311264017
 10
258.04298143550005
 20
61.28597704299858
 10
258.0755510326013
 20
61.40063227080509
 10
258.08481408136385
 20
61.51946322572144
 10
258.0704050361549
 20
61.63778050820744
 10
258.03289251792023
 20
61.75091498966381
 10
257.97375687482236
 20
61.85440206921538
 10
257.6372571937242
 20
62.288134771025994
 10
257.46113575576237
 20
62.542930804776574
 10
257.15429679120103
 20
63.054375441742906
 10
256.9074674177806
 20
63.56841355308305
 10
256.7202282255555
 20
64.08518575807815
 10
256.6449170069897
 20
64.360237087536
 10
256.5471889457026
 20
64.88160706096963
 10
256.50650171290226
 20
65.38956477620815
 10
256.51789375380554
 20
65.91613159827497
 10
256.5803619348923
 20
66.44513843937241
 10
256.6900666349229
 20
66.97629643674867
 10
256.8425517288924
 20
67.50931265906664
 10
257.0356599220574
 20
68.0511495140803
 10
257.25810256872046
 20
68.58545015176335
 10
257.6382268553544
 20
69.38563567092854
 10
258.0627512080049
 20
70.19555744111753
 10
258.65408423731924
 20
71.26984920676531
 10
259.33792090829866
 20
70.24736719359095
 10
259.82860534353296
 20
69.48022978111871
 10
260.27629964334346
 20
68.7157945959637
 10
260.5473961420971
 20
68.19568923209039
 10
260.78307885887114
 20
67.67948902791014
 10
260.98094840873705
 20
67.1616032891882
 10
261.1360366419808
 20
66.64188069077966
 10
261.19611973867495
 20
66.38129951733268
 10
261.282513626846
 20
65.87339257389505
 10
261.34384477155027
 20
65.72772985043315
 10
261.4702615989363
 20
65.57633294627792
 10
261.6389394796942
 20
65.47410765891144
 10
261.83165078364095
 20
65.4321006337214
 10
262.02757078636876
 20
65.45485122415963
 10
262.1378006432617
 20
65.4988509285401
 10
262.2372129078927
 20
65.56368762322106
 10
263.693697371962
 20
66.86086982750342
 10
264.82131536718134
 20
67.80410195098068
 10
265.95369474750265
 20
68.70167897239926
 10
267.12453406368587
 20
69.58102235541386
 10
268.3225272757902
 20
70.4329621153278
 10
269.5476190725115
 20
71.25748230040153
 10
270.7997545101309
 20
72.05457186270769
 10
272.07349076682567
 20
72.82104194518149
 10
272.2246555280878
 20
72.94860171345942
 10
272.29234726161235
 20
73.04650255133421
 10
272.3393819204727
 20
73.15583912211471
 10
272.36390859352736
 20
73.2723088055221
 10
272.3649621054457
 20
73.3913282785372
 10
272.342500998354
 20
73.50821387864414
 10
272.1646801725915
 20
74.02690486805221
 10
272.080487189696
 20
74.32498425572422
 10
271.9556616200081
 20
74.90820320604064
 10
271.88845600860645
 20
75.47445697008078
 10
271.878519016784
 20
76.02401432209378
 10
271.89626666698064
 20
76.30863693959408
 10
271.9725124005911
 20
76.83357885187338
 10
272.0983896090338
 20
77.32737174345718
 10
272.27956581965515
 20
77.82191959493484
 10
272.5098595535256
 20
78.30224792817874
 10
272.785544308379
 20
78.76932592522526
 10
273.1023089332537
 20
79.22431841919442
 10
273.4603652455737
 20
79.6745112988868
 10
273.8437389175727
 20
80.10808082053723
 10
274.46235039826746
 20
80.7422031859612
 10
275.1261236036697
 20
81.37117006235394
 10
276.03328034684307
 20
82.19630289566359
 10
276.349447049893
 20
81.00754695951495
 10
276.5654838493439
 20
80.12290063138228
 10
276.74171808594167
 20
79.2547227508547
 10
276.8299217392973
 20
78.67487534273916
 10
276.8858807984221
 20
78.11018287999059
 10
276.90551583012365
 20
77.5561319232517
 10
276.88407703257013
 20
77.01418698384659
 10
276.7835717170038
 20
76.28779011876905
 10
276.79478161695687
 20
76.12919860949538
 10
276.8472508785907
 20
75.97911894646853
 10
276.9372954413951
 20
75.84808877673639
 10
277.0585929442833
 20
75.74530821211572
 10
277.2410277448417
 20
75.66732099017504
 10
277.3991395084842
 20
75.65065969165056
 10
277.5938227696773
 20
75.68890745043515
 10
278.86943336927396
 20
76.25744321857867
 10
279.1455221094016
 20
76.35063022921584
 10
279.24934713491047
 20
76.40705808126211
 10
279.39157453254813
 20
76.54246961612739
 10
279.6918651822455
 20
77.03553617112108
 10
280.0639386965876
 20
77.56012222830648
 10
280.4617289959076
 20
78.0265230072705
 10
280.8849463845702
 20
78.43496250308314
 10
281.3200739315557
 20
78.77666418541939
 10
281.79189585856284
 20
79.07264234996961
 10
282.28806372568096
 20
79.3143210901529
 10
282.8075178967263
 20
79.50398884254292
 10
283.3488270628145
 20
79.64462612742149
 10
283.9102491757334
 20
79.73988247516596
 10
284.4898029535434
 20
79.79400637584021
 10
285.09309215307553
 20
79.81176238519674
 10
285.70066934310677
 20
79.79796890131833
 10
286.6287095810033
 20
79.73131921140785
 10
287.5827681681238
 20
79.62498597432426
 10
288.85939087722267
 20
79.45629259646017
 10
288.1200095781069
 20
78.39736136558535
 10
287.55672354576745
 20
77.624722863067
 10
286.9795199471015
 20
76.89497162462857
 10
286.57961267086193
 20
76.43735336401015
 10
286.1593203959158
 20
76.004193419229
 10
285.7282138752709
 20
75.61309350123408
 10
285.2789952600966
 20
75.26313465159514
 10
284.8098670182133
 20
74.95864630722832
 10
284.31931209614095
 20
74.70337711491396
 10
283.8060973438755
 20
74.50039488940251
 10
283.2692494129731
 20
74.35202607940386
 10
282.72343073663944
 20
74.26159381512801
 10
282.4180958315499
 20
74.23516336803775
 10
281.81936093197965
 20
74.22887602027646
 10
281.1951983820777
 20
74.2803142462908
 10
280.3190783315006
 20
74.437031346743
 10
280.2009107072968
 20
74.43664276147064
 10
280.0478196618084
 20
74.40024268415823
 10
279.7563482669543
 20
74.24414195839117
 10
278.3937848433921
 20
73.63447314296653
 10
277.05414374520143
 20
72.9971015244588
 10
275.0953006017049
 20
71.9924566529753
 10
273.8230831700277
 20
71.29031594934784
 10
272.57775069469744
 20
70.56227964401302
 10
271.4351061424626
 20
69.85595446761226
 10
271.34234355778125
 20
69.7842065478601
 10
271.2653090373623
 20
69.6957851490398
 10
271.20694544135216
 20
69.59406813096373
 10
271.1694823662977
 20
69.48294127051594
 10
271.1543509704632
 20
69.3666498178394
 10
271.16212930095696
 20
69.24963631998446
 10
271.19252021127
 20
69.13637090745326
 10
271.2443627128184
 20
69.03118052700555
 10
271.315676326839
 20
68.9380836443465
 10
271.40373674231586
 20
68.86063673135723
 10
271.5413103753992
 20
68.78673164786153
 10
271.8358438258374
 20
68.68889144773038
 10
272.3436411398126
 20
68.48701601969199
 10
272.8401801707562
 20
68.24921834694382
 10
273.3489092272343
 20
67.96870650605572
 10
273.8473890337313
 20
67.6627345655993
 10
274.5887097367631
 20
67.16292722719817
 10
276.0718196759438
 20
66.07630055119068
 10
274.96700239672896
 20
65.53548557414189
 10
274.1410867398759
 20
65.1519046148099
 10
273.32360356999925
 20
64.81056518646221
 10
272.77925651061986
 20
64.61398395280489
 10
272.2287877174461
 20
64.44706463258902
 10
271.68907624328455
 20
64.32029901503103
 10
271.1532710664807
 20
64.23617558252991
 10
270.6218783371175
 20
64.19913130149573
 10
270.09537059604503
 20
64.21298753792783
 10
269.5899464267057
 20
64.27797138538784
 10
269.31559545680915
 20
64.33583389923288
 10
268.8176656948208
 20
64.48366931851336
 10
268.29552778282107
 20
64.70076937611702
 10
267.7939093595319
 20
64.97194990069102
 10
267.2977573302426
 20
65.30294677482777
 10
267.05169450451035
 20
65.49107669142305
 10
266.6424827256948
 20
65.84095517757447
 10
266.5096226064368
 20
65.92039161402664
 10
266.3608612290224
 20
65.96319361532639
 10
266.20610029896716
 20
65.96651223761671
 10
266.05564085798846
 20
65.93012659009108
 10
265.88879059647763
 20
65.83274026123738
 10
264.6087168629199
 20
64.74042921576785
 10
263.57652942923346
 20
63.80486175867799
 10
262.57074664074497
 20
62.84323527384714
 10
261.5913216089363
 20
61.85550858485661
 10
260.6328186207814
 20
60.835744710769774
 10
259.25779816051545
 20
59.271701325513305
 10
258.28773720655664
 20
58.08773602749068
 10
258.20746431310454
 20
57.952948001338655
 10
258.1717841181944
 20
57.8406728955932
 10
258.15873008866777
 20
57.723590155652204
 10
258.16880548548994
 20
57.606213573414294
 10
258.2355434297817
 20
57.42215470733103
 10
258.3579834188149
 20
57.26938013982152
 10
258.4529699647428
 20
57.199692753791766
 10
258.5597423558088
 20
57.14990889912963
 10
258.71327866398656
 20
57.117688540840646
 10
259.33441710530445
 20
57.11318094606753
 10
259.88696142803445
 20
57.067873457120385
 10
260.7389541267443
 20
56.93120462985132
 10
261.3098235040246
 20
56.80388966641334
 10
262.173354931251
 20
56.57220618736616
 10
263.9291456902731
 20
56.026705101001454
 10
263.06013197500374
 20
55.15612068664723
 10
262.40376116524556
 20
54.524893006097386
 10
261.7416335092023
 20
53.936353877843345
 10
261.2907518589894
 20
53.57349903085682
 10
260.8244388033152
 20
53.2367051980319
 10
260.35524615945513
 20
52.94138120631348
 10
259.87588605432626
 20
52.68765334226134
 10
259.39886278145804
 20
52.48487641503547
 10
258.88297717059226
 20
52.321835027570415
 10
258.36799112201976
 20
52.21659093930569
 10
257.8399131623961
 20
52.166487701136134
 10
257.2983085293228
 20
52.173132078953955
 10
256.74282545326304
 20
52.23747777765641
 10
256.1861007426753
 20
52.35662011355575
 10
255.60072140596807
 20
52.53699416006563
 10
255.0890350266871
 20
52.73870535826697
 10
254.89910992025182
 20
52.772441435500355
 10
254.70829516892175
 20
52.74416777927436
 10
254.56830611244774
 20
52.678654699392894
 10
254.44969739402688
 20
52.5795543891885
  0
LWPOLYLINE
  5
34
330
17
100
AcDbEntity
  8
CUT
100
AcDbPolyline
 90
157
 70
1
 10
245.36070912276108
 20
155.02284914808044
 10
263.2928850723744
 20
155.03101157990199
 10
263.8174344957309
 20
155.05796819637544
 10
264.42385545690627
 20
155.11143933501177
 10
265.8287782956314
 20
155.30226307787365
 10
266.99362124524583
 20
155.52333056399794
 10
267.38645816615485
 20
155.62680572875198
 10
267.69766095795774
 20
155.73795793950535
 10
267.69765810884775
 20
147.55162370818866
 10
267.30155983359634
 20
147.55162202100072
 10
267.2988051319864
 20
148.04893551692243
 10
267.2727533544978
 20
148.53511201851617
 10
267.217157171923
 20
148.99376201204933
 10
267.1315253383067
 20
149.43210566534782
 10
267.0139340844033
 20
149.8551424061566
 10
266.907254738732
 20
150.15310272694887
 10
266.7452491351065
 20
150.51835084845297
 10
266.5490265333853
 20
150.8733085072269
 10
266.2130711173885
 20
151.34801206855587
 10
265.9650599001699
 20
151.62838659252745
 10
265.776050913799
 20
151.80876411923944
 10
265.51721658804604
 20
152.02240503825516
 10
265.23765932806015
 20
152.2180255767092
 10
265.01251919879576
 20
152.35331008676116
 10
264.6955023040348
 20
152.51519920726173
 10
264.251580277913
 20
152.69469824079403
 10
263.77805434172126
 20
152.83610663643455
 10
263.2618099247236
 20
152.94205677919675
 10
262.79904527801807
 20
152.99639676874477
 10
257.2503317989678
 20
152.99286571181165
 10
257.05030198905325
 20
152.94622530168039
 10
256.87832636608994
 20
152.85285278122566
 10
256.7363772569599
 20
152.71815128573618
 10
256.63412825886815
 20
152.55130049952322
 10
256.5878027946944
 20
152.41184336901455
 10
256.56893153070234
 20
152.23657841546333
 10
256.56925277821654
 20
142.64691541581612
 10
256.59002693669134
 20
142.48174308715707
 10
256.65553613334765
 20
142.30768932685413
 10
256.7425909436186
 20
142.1774025961354
 10
256.8862879487951
 20
142.04456731026187
 10
257.0966481215004
 20
141.94082915327323
 10
257.30911843429027
 20
141.90704975974154
 10
260.88420007368603
 20
141.90672851222735
 10
261.1524530218643
 20
141.91777673278938
 10
261.65936824728965
 20
141.97639322306085
 10
262.0505458484853
 20
142.05920124575198
 10
262.49303054457573
 20
142.19856172568166
 10
262.9218852211446
 20
142.3877879849041
 10
263.3583197218029
 20
142.64566037417342
 10
263.8178576366363
 20
143.00472112451286
 10
264.1811725151462
 20
143.36927593780612
 10
264.39176482943907
 20
143.62662928177082
 10
264.534501569442
 20
143.8289005831129
 10
264.71188834292735
 20
144.1258072892418
 10
264.8307954496116
 20
144.36638512783426
 10
264.95904452926754
 20
144.68785158504033
 10
265.0586128697589
 20
145.01936998133678
 10
265.1320415433372
 20
145.37019693915906
 10
265.16918003096765
 20
145.6461771527706
 10
265.19313872650685
 20
146.0096894124765
 10
265.19491865681914
 20
146.4372995301315
 10
265.5910169320705
 20
146.43730121731943
 10
265.5917082125283
 20
135.40523116200205
 10
265.5824504804148
 20
135.38820013763024
 10
265.194920344007
 20
135.3887600622397
 10
265.1884960733026
 20
135.83757782985992
 10
265.1680203510708
 20
136.1204617333589
 10
265.1172612473615
 20
136.48585178768909
 10
265.0410839262254
 20
136.83135638477145
 10
264.93498212913204
 20
137.17389519299115
 10
264.8047531893565
 20
137.49337821741403
 10
264.68555625849723
 20
137.73141682679267
 10
264.5084792880999
 20
138.0256165265372
 10
264.1586821775658
 20
138.4795026638822
 10
263.8006494337417
 20
138.838528613013
 10
263.3472671978671
 20
139.1915353517103
 10
262.92227773856484
 20
139.44166810826664
 10
262.5007277572233
 20
139.6272858847375
 10
262.0484035402197
 20
139.76897847205953
 10
261.65859516667126
 20
139.85053339983577
 10
261.152534390515
 20
139.90836879372358
 10
260.88429705375944
 20
139.91933276733178
 10
257.3091184342906
 20
139.9190115198176
 10
257.1060210570994
 20
139.88807537521555
 10
256.9272515301142
 20
139.80847952927041
 10
256.7751743478894
 20
139.68532688774079
 10
256.6797847687621
 20
139.56101276791733
 10
256.60018892281823
 20
139.38224324093352
 10
256.56989467115295
 20
139.1987536645608
 10
256.56925277821654
 20
129.96733056338226
 10
256.58780279469386
 20
129.811697059526
 10
256.63412825886945
 20
129.67223992901222
 10
256.70677032873647
 20
129.5445000778867
 10
256.80293741029476
 20
129.43338647697914
 10
256.91893385652475
 20
129.34316915966758
 10
257.0503019890537
 20
129.27731512685773
 10
257.1919934042177
 20
129.23835511210075
 10
257.32874988398385
 20
129.2271436597935
 10
261.58539627817134
 20
129.22816571130312
 10
262.26748993608436
 20
129.26680921920413
 10
262.9209200071618
 20
129.35980079639398
 10
263.5577870826272
 20
129.50729478809765
 10
264.17809094165335
 20
129.7092681589267
 10
264.78184094066825
 20
129.96569995567924
 10
265.1402876787948
 20
130.14792678231578
 10
265.5879971003391
 20
130.40907666180135
 10
265.9309061685663
 20
130.6367007278851
 10
266.3459514256316
 20
130.94769665252784
 10
266.66025186104355
 20
131.21176320079826
 10
266.96949977415045
 20
131.49826563609335
 10
267.3445304521025
 20
131.8851277658494
 10
267.6330684527981
 20
132.21565537512657
 10
267.98637257457875
 20
132.66480822291675
 10
268.3187267244756
 20
133.14487562449773
 10
268.62180848463146
 20
133.64580691016278
 10
268.9007964965243
 20
134.17550609960233
 10
269.10052483354093
 20
134.60673181796616
 10
269.335281259188
 20
135.1869565556073
 10
269.54128022285835
 20
135.78488205587973
 10
269.7260209261642
 20
136.42081906301667
 10
270.1221343780752
 20
136.42080987264166
 10
268.61199139555714
 20
127.20066681205851
 10
245.36071080994898
 20
127.20068959326987
 10
245.36070912276108
 20
127.5967878685213
 10
246.08873076610035
 20
127.6055808538358
 10
246.320500136977
 20
127.63381885378172
 10
246.57052163655902
 20
127.68963318504109
 10
246.8294518657961
 20
127.77890972521804
 10
247.06882364099445
 20
127.89407856471125
 10
247.27137312376144
 20
128.01963183459947
 10
247.4950254584376
 20
128.19290898596734
 10
247.68814434598238
 20
128.37648142362355
 10
247.8450084926086
 20
128.5535772034528
 10
248.0009717123845
 20
128.7655205836756
 10
248.11878279933586
 20
128.96214789174854
 10
248.2280512392662
 20
129.1926943587684
 10
248.30150765114044
 20
129.39553969060665
 10
248.36016056626008
 20
129.61740238222498
 10
248.40240527598684
 20
129.87019104819984
 10
248.42060897663043
 20
130.12821906700816
 10
248.42060897663043
 20
152.09532136153013
 10
248.40332825787803
 20
152.34570011093456
 10
248.35844998368827
 20
152.61406659811126
 10
248.28655426194732
 20
152.87403503914481
 10
248.20087831145665
 20
153.0942364979951
 10
248.0788101858174
 20
153.33276277373642
 10
247.93682632873316
 20
153.55053903248233
 10
247.78626455739212
 20
153.7397436194467
 10
247.59671390325306
 20
153.93825064962596
 10
247.36839931659202
 20
154.13354690183132
 10
247.13635803787597
 20
154.29067863777527
 10
246.89232483357696
 20
154.41760984170529
 10
246.63636943721116
 20
154.51440612081333
 10
246.38109505331605
 20
154.57874736258768
 10
246.10883178638235
 20
154.61632271521876
 10
245.360710809949
 20
154.626750872829
  0
LWPOLYLINE
  5
35
330
17
100
AcDbEntity
  8
CUT
100
AcDbPolyline
 90
201
 70
1
 10
206.20887054009472
 20
110.10895569757449
 10
196.8989365781553
 20
110.1165753712553
 10
196.69477853923547
 20
110.15773673437366
 10
196.48286916760102
 20
110.24765704167031
 10
196.3163212738167
 20
110.36002635722146
 10
196.16386744458433
 20
110.5124801864538
 10
196.04408523956943
 20
110.69174692474391
 10
195.96157782173646
 20
110.89093745187267
 10
195.91951590488196
 20
111.10239698758974
 10
195.92149723066308
 20
111.33258673062606
 10
195.96636695113736
 20
111.5433794347108
 10
196.04077752835815
 20
111.72207802981194
 10
196.1081967961581
 20
111.83315596327897
 10
196.2363495710177
 20
111.98788776446126
 10
196.39108137219995
 20
112.11604053932084
 10
196.5864309310646
 20
112.223317317541
 10
196.70186886967775
 20
112.26462167243356
 10
196.91357496485503
 20
112.30526263210987
 10
215.26361154055255
 20
112.31019812405812
 10
215.41638656956812
 20
112.32997420994452
 10
215.5590906249333
 20
112.38799882236046
 10
215.65380776419224
 20
112.45440550996996
 10
215.73402132647917
 20
112.53775398958359
 10
215.81335015835037
 20
112.66980791605927
 10
215.84926349853922
 20
112.77976889379748
 10
215.9841888807565
 20
113.40766521137013
 10
216.1408554770838
 20
113.91222973623144
 10
216.33902882679573
 20
114.38963187416628
 10
216.575284285774
 20
114.82783046350559
 10
216.7168152792763
 20
115.04579192828237
 10
217.01079771533213
 20
115.42531395006633
 10
217.34056254015272
 20
115.76720529723366
 10
217.70445930560555
 20
116.07326080277606
 10
218.0894131921846
 20
116.33882250182836
 10
218.51614591150874
 20
116.58208323386577
 10
218.9701676442161
 20
116.79709780810146
 10
219.45562043432352
 20
116.98979090589525
 10
219.9529046011848
 20
117.15747079987935
 10
220.72585738032197
 20
117.37628797563852
 10
222.62068280775182
 20
117.80905245469701
 10
222.19822772272713
 20
116.19395079305356
 10
221.96228424828135
 20
115.41806180381577
 10
221.7862734934063
 20
114.91762914849292
 10
221.58804648813341
 20
114.42876219939481
 10
221.3745961367165
 20
113.97890647206115
 10
221.1322063003078
 20
113.54750197268581
 10
220.91822331202317
 20
113.2236053289647
 10
220.85399082353274
 20
113.07863323964453
 10
220.83051962712406
 20
112.88215104559204
 10
220.87223734080183
 20
112.68871945043232
 10
220.97460645056768
 20
112.51937744440225
 10
221.06075134422673
 20
112.4371695394
 10
221.1614342240114
 20
112.373592498995
 10
221.27268955980068
 20
112.33115039010771
 10
221.42986373645485
 20
112.3101981240581
 10
233.52730304584887
 20
112.31516268458068
 10
233.6762752236944
 20
112.35438759110257
 10
233.81034961351367
 20
112.43025168707878
 10
233.92068799314586
 20
112.5377539895836
 10
233.9834164437755
 20
112.63494620177299
 10
234.03593016520588
 20
112.77976889379751
 10
234.17085554742317
 20
113.40766521137013
 10
234.32752214375046
 20
113.91222973623144
 10
234.5256954934624
 20
114.38963187416628
 10
234.770318378203
 20
114.8415045587374
 10
235.03592502636207
 20
115.22740917954356
 10
235.1974643819988
 20
115.42531395006633
 10
235.52722920681938
 20
115.76720529723366
 10
235.89112597227222
 20
116.07326080277606
 10
236.27607985885126
 20
116.33882250182836
 10
236.7028125781754
 20
116.58208323386577
 10
237.15683431088277
 20
116.79709780810146
 10
237.6422871009902
 20
116.98979090589525
 10
238.13957126785147
 20
117.15747079987935
 10
238.91252404698864
 20
117.37628797563852
 10
240.8073494744185
 20
117.80905245469701
 10
240.3848943893938
 20
116.19395079305356
 10
240.14895091494802
 20
115.41806180381577
 10
239.97294016007297
 20
114.91762914849292
 10
239.77471315480008
 20
114.42876219939481
 10
239.56126280338316
 20
113.97890647206115
 10
239.31887296697445
 20
113.54750197268581
 10
239.10488997868984
 20
113.2236053289647
 10
239.0406574901994
 20
113.07863323964453
 10
239.01718629379073
 20
112.88215104559204
 10
239.0589040074685
 20
112.68871945043232
 10
239.16127311723434
 20
112.51937744440225
 10
239.27954910109978
 20
112.41376726070678
 10
239.4213601579442
 20
112.34282824875855
 10
239.57680207779504
 20
112.311514852063
 10
241.0066757339929
 20
112.3101981240581
 10
241.30622826004017
 20
112.28259190213097
 10
241.42199248407462
 20
112.29173195812507
 10
241.60412257690038
 20
112.35559500130734
 10
242.15424038663892
 20
112.7195752892062
 10
242.65217743002805
 20
112.99339555944549
 10
243.1501127990331
 20
113.20941494231417
 10
243.41407099085706
 20
113.30059614708401
 10
243.89736426972757
 20
113.42602216808456
 10
244.3959555012937
 20
113.5000408848114
 10
244.89494823777838
 20
113.5195151133237
 10
245.39429414524582
 20
113.48673988543747
 10
245.8938805240728
 20
113.4047339203466
 10
246.39357945690338
 20
113.2772000111006
 10
246.89328703322144
 20
113.1084377900455
 10
247.40009841964422
 20
112.90005751142053
 10
247.89804495485834
 20
112.66398157362218
 10
248.64168883541547
 20
112.26535177109507
 10
249.39317475874324
 20
111.82338982120386
 10
250.38846064787555
 20
111.2102005085891
 10
249.38991152534908
 20
110.59503173716732
 10
248.64168883541547
 20
110.15504447702115
 10
247.89804495485834
 20
109.75641467449404
 10
247.3929385167076
 20
109.51716141483153
 10
246.65333294381122
 20
109.22606208430734
 10
246.1555435407394
 20
109.07702268755341
 10
245.64406548309876
 20
108.96872174447084
 10
245.1445831362784
 20
108.91090945172805
 10
244.64540268340502
 20
108.90392661495896
 10
244.16278279955532
 20
108.94806118466774
 10
243.66372691881946
 20
109.04833702853078
 10
243.39913101061668
 20
109.12452928527927
 10
242.9145853622584
 20
109.30597768160324
 10
242.65217743002805
 20
109.42700068867073
 10
242.15424038663892
 20
109.70082095891001
 10
241.59314223650324
 20
110.0706358239955
 10
241.48470772341312
 20
110.11401914068718
 10
241.36992291526417
 20
110.1355738064111
 10
241.0066757339929
 20
110.11019812405812
 10
230.52319706978818
 20
110.11019812405812
 10
230.32802682461087
 20
110.07756799935767
 10
230.15408467756006
 20
109.98322670871622
 10
230.067939783901
 20
109.90101880371397
 10
229.99972580842612
 20
109.80341790259978
 10
229.95212944995643
 20
109.69426814763527
 10
229.92702535484253
 20
109.57786854816473
 10
229.93743519507157
 20
109.38026342457998
 10
229.99192755848833
 20
109.23135640127758
 10
230.22553963364112
 20
108.87289427543041
 10
230.46792947004982
 20
108.44148977605506
 10
230.68137982146675
 20
107.99163404872141
 10
230.87960682673963
 20
107.5027670996233
 10
231.05561758161468
 20
107.00233444430044
 10
231.29156105606046
 20
106.22644545506266
 10
231.71401945395402
 20
104.61134722399532
 10
229.8191907136553
 20
105.0441082724777
 10
229.04623793451813
 20
105.26292544823687
 10
228.54895376765685
 20
105.43060534222097
 10
228.06350097754944
 20
105.62329844001476
 10
227.60947924484208
 20
105.83831301425045
 10
227.18274652551793
 20
106.08157374628786
 10
226.7977926389389
 20
106.34713544534016
 10
226.43389587348605
 20
106.65319095088256
 10
226.10413104866547
 20
106.9950822980499
 10
225.94259169302873
 20
107.19298706857266
 10
225.67698504486967
 20
107.57889168937882
 10
225.43236216012906
 20
108.03076437394994
 10
225.23418881041712
 20
108.50816651188478
 10
225.07752221408984
 20
109.01273103674609
 10
224.94259683187255
 20
109.64062735431871
 10
224.89008311044216
 20
109.78545004634323
 10
224.82735465981253
 20
109.88264225853261
 10
224.71701628018033
 20
109.99014456103744
 10
224.61822395773618
 20
110.05032148065581
 10
224.47208322593826
 20
110.09904713686757
 10
224.35694487388588
 20
110.11019812405812
 10
212.33653040312151
 20
110.11019812405813
 10
212.218042147124
 20
110.09838222210115
 10
212.06810089067807
 20
110.04680374912125
 10
211.9081499524401
 20
109.93030547875928
 10
211.79479270595203
 20
109.76811335715908
 10
211.74035868817586
 20
109.57786854816477
 10
211.73873561483975
 20
109.45880365837213
 10
211.7606574901994
 20
109.34176300847174
 10
211.8248899786898
 20
109.19679091915158
 10
212.03887296697445
 20
108.87289427543041
 10
212.28126280338316
 20
108.44148977605506
 10
212.49471315480008
 20
107.99163404872141
 10
212.69294016007296
 20
107.5027670996233
 10
212.86895091494802
 20
107.00233444430044
 10
213.1048943893938
 20
106.22644545506266
 10
213.52735278728736
 20
104.61134722399532
 10
211.8984915320937
 20
104.97717872568109
 10
211.1148408849534
 20
105.18590033451642
 10
210.60193678152274
 20
105.34657834743771
 10
210.11308322564537
 20
105.52538406085006
 10
209.64660725899844
 20
105.72746964808358
 10
209.20584473698156
 20
105.95622360478751
 10
208.7938731750734
 20
106.21471073760904
 10
208.41343418407737
 20
106.50559824086102
 10
208.06684590595387
 20
106.83110459003082
 10
207.75592502636206
 20
107.19298706857266
 10
207.48195095244066
 20
107.59256578461063
 10
207.2456954934624
 20
108.03076437394994
 10
207.05230356555484
 20
108.49495285393576
 10
206.88758139312338
 20
109.02516207551582
 10
206.74632816891636
 20
109.67802673195527
 10
206.7034164437755
 20
109.78545004634324
 10
206.64068799314583
 20
109.88264225853263
 10
206.49873358866444
 20
110.01231072338187
 10
206.32305323623476
 20
110.09042203817171
  0
LWPOLYLINE
  5
36
330
17
100
AcDbEntity
  8
CUT
100
AcDbPolyline
 90
109
 70
1
 10
201.80758384178893
 20
127.5967878685213
 10
202.600008397474
 20
127.60114444194258
 10
203.04902912655345
 20
127.6534805957324
 10
203.31358951447442
 20
127.71650966542974
 10
203.57940267385717
 20
127.80696679580188
 10
203.80098320521194
 20
127.90523677544535
 10
204.04044430066867
 20
128.0373020125523
 10
204.28125138853807
 20
128.2002915597617
 10
204.47133104905447
 20
128.35417238429773
 10
204.66688079617202
 20
128.54755685245306
 10
204.8214204428541
 20
128.7358475243796
 10
204.97234945534868
 20
128.96481838115295
 10
205.08661648883927
 20
129.1838851810621
 10
205.19381790601744
 20
129.45092312695255
 10
205.26739851198758
 20
129.69828350521522
 10
205.3451084885644
 20
130.10633109275307
 10
208.84287068754105
 20
155.57932088878673
 10
209.1906537461159
 20
155.57987285468198
 10
209.21040567268366
 20
155.5658051144982
 10
221.92954325447423
 20
138.19111041974497
 10
222.0452724643638
 20
138.0689508978308
 10
222.20302543040378
 20
137.96671750375882
 10
222.35216510833592
 20
137.91338247129602
 10
222.53897297512958
 20
137.89239471148477
 10
222.73466549027427
 20
137.92120284821414
 10
222.8815005332509
 20
137.98058920502876
 10
223.03494300780167
 20
138.08918511729837
 10
223.14558238939327
 20
138.21597283774918
 10
234.7881207206509
 20
155.5657898476644
 10
234.8067838499635
 20
155.57988014406192
 10
235.15479832858495
 20
155.5793315045293
 10
238.76991126854233
 20
130.11951644971526
 10
238.84063609893738
 20
129.7768093550615
 10
238.9983267678058
 20
129.3060037068019
 10
239.11855854525984
 20
129.05585116132784
 10
239.23755474587523
 20
128.85674518515174
 10
239.37476042305497
 20
128.666990596919
 10
239.52497546283433
 20
128.49396675110444
 10
239.68379454348192
 20
128.34009183692186
 10
239.89383408209395
 20
128.17040152437673
 10
240.14240415341305
 20
128.0052750766837
 10
240.39592871683203
 20
127.87100478510432
 10
240.66013937858742
 20
127.76340966431786
 10
240.94587516252545
 20
127.67995213087933
 10
241.21361463848316
 20
127.62945177029647
 10
241.4590489304831
 20
127.60433877327394
 10
242.3093282490334
 20
127.59678955570922
 10
242.30932993622136
 20
127.2006912804578
 10
228.20020102119037
 20
127.20068959326987
 10
228.20019933400238
 20
127.55703995362339
 10
228.89678557687125
 20
127.55915504758997
 10
229.1591901952793
 20
127.59540154102712
 10
229.33144764831562
 20
127.64990739971572
 10
229.48911424807318
 20
127.72477234124872
 10
229.63999158824697
 20
127.82218773768068
 10
229.78373603042206
 20
127.94217943335009
 10
230.04279088921996
 20
128.2400266207833
 10
230.2306792883414
 20
128.56028347765195
 10
230.3451795760569
 20
128.8978369727148
 10
230.3852372961709
 20
129.23521008891498
 10
229.1271763489523
 20
138.9364428845479
 10
229.08844620879708
 20
139.077985690289
 10
229.0280340031111
 20
139.2009562749715
 10
228.8687776865147
 20
139.3856588225017
 10
228.74748180441247
 20
139.4682523973032
 10
228.6495135464623
 20
139.51293268086934
 10
228.41014309704153
 20
139.55961665439736
 10
228.21573141989074
 20
139.53981522145955
 10
228.0416871523238
 20
139.4750162243139
 10
227.8816618612366
 20
139.36285605682582
 10
227.7722419009566
 20
139.2377007030128
 10
222.13127145425784
 20
130.8763643977389
 10
221.64878534014431
 20
130.08835151437313
 10
221.39975425069937
 20
129.64249481767882
 10
221.1267527999283
 20
129.08145839193145
 10
220.85497006122634
 20
128.44451707827392
 10
220.68958260887985
 20
127.98861078796367
 10
220.5696664082881
 20
127.54512637556874
 10
220.4890779622882
 20
127.09408420436426
 10
220.45224626585505
 20
126.69707326101374
 10
220.44793087230283
 20
126.24676593177865
 10
220.08552930173536
 20
126.25377429057252
 10
210.86638020967027
 20
139.01797544162054
 10
210.76169178599326
 20
139.13201968523708
 10
210.6359173398169
 20
139.22221081759335
 10
210.46643117819255
 20
139.29304168399122
 10
210.31388228668888
 20
139.31916614317194
 10
210.16880720154663
 20
139.31470062883656
 10
210.03650978594487
 20
139.28536018731808
 10
209.9376020013387
 20
139.24587248246883
 10
209.81370482032133
 20
139.1702668630774
 10
209.71321246102937
 20
139.0793561738959
 10
209.62561121236016
 20
138.96362915726417
 10
209.57644299909228
 20
138.8691595034357
 10
209.53191302369262
 20
138.73101536697646
 10
208.37224871772762
 20
129.48147132270782
 10
208.36585858070063
 20
129.22742961054223
 10
208.4112291564196
 20
128.8742273935635
 10
208.52815524345652
 20
128.543371970189
 10
208.72281157926167
 20
128.21990710790533
 10
208.9672092363697
 20
127.94217943335053
 10
209.1109536785439
 20
127.82218773768169
 10
209.261831018718
 20
127.72477234124929
 10
209.41949761847548
 20
127.64990739971616
 10
209.59175507151315
 20
127.59540154102704
 10
209.85415968992095
 20
127.55915504758997
 10
210.55074424560183
 20
127.55704164081133
 10
210.55074593278982
 20
127.20069128045779
 10
201.81616286180986
 20
127.20012859028031
  0
LWPOLYLINE
  5
37
330
17
100
AcDbEntity
  8
CUT
100
AcDbPolyline
 90
166
 70
1
 10
209.03686129295355
 20
80.34979160654746
 10
231.69131691807723
 20
80.35991664294289
 10
232.35332691127297
 20
80.39392245553458
 10
233.11949735779717
 20
80.46145204040855
 10
233.98639989944144
 20
80.56819434620945
 10
234.89504620675027
 20
80.7025951326423
 10
235.75077116881684
 20
80.85268059459626
 10
236.36657971285632
 20
80.981859407422
 10
236.8617891661544
 20
81.11224939142186
 10
237.25630121623368
 20
81.2533074897615
 10
237.2562983671238
 20
70.91075876352451
 10
236.7555294853228
 20
70.91075707633655
 10
236.75232085506204
 20
71.53633211780718
 10
236.7194601478108
 20
72.15207854753487
 10
236.64888431975763
 20
72.73429059000048
 10
236.54010212494768
 20
73.29018841302778
 10
236.3911897941359
 20
73.82477144436032
 10
236.25909044401672
 20
74.19375824816882
 10
236.0521459039571
 20
74.660539528194
 10
235.80281365008688
 20
75.11102246628599
 10
235.59864070928305
 20
75.42011019475028
 10
235.3833353623308
 20
75.70374747684006
 10
235.06314948962722
 20
76.06562889532412
 10
234.82970889884498
 20
76.2880882781373
 10
234.50022191367054
 20
76.56004567794547
 10
234.14520569090158
 20
76.80821513315708
 10
233.8670894179148
 20
76.97532805213909
 10
233.47356554523216
 20
77.17695964303824
 10
232.91409112493045
 20
77.40435876361704
 10
232.30951097696328
 20
77.58571275633354
 10
231.65695533762226
 20
77.72008201679809
 10
231.0973730967419
 20
77.78928754391491
 10
223.91737390836195
 20
77.78855599335856
 10
223.72451139638932
 20
77.75541849276321
 10
223.51415122368428
 20
77.65168033577467
 10
223.36424053184868
 20
77.51127365080012
 10
223.26199153375703
 20
77.34442286458686
 10
223.21566606958336
 20
77.20496573407792
 10
223.19679480559154
 20
77.02970078052792
 10
223.1971160531057
 20
64.51972785814831
 10
223.21789021158045
 20
64.35455552948977
 10
223.2833994082369
 20
64.18050176918652
 10
223.3963420469052
 20
64.02069562775418
 10
223.514151223684
 20
63.9173797525946
 10
223.72451139638866
 20
63.81364159560607
 10
223.93698170918012
 20
63.7798622020741
 10
228.6529729599643
 20
63.779540954559934
 10
228.99065029003654
 20
63.79368657062173
 10
229.63128755566905
 20
63.86811045861734
 10
230.1182708038768
 20
63.97118506048403
 10
230.68251518513918
 20
64.1487823538273
 10
231.2262939154296
 20
64.38906223542793
 10
231.77081683836087
 20
64.71080505604033
 10
232.11426246956597
 20
64.96337692150902
 10
232.35585267431358
 20
65.1677274831674
 10
232.81102135040774
 20
65.62424290078641
 10
233.08217308706065
 20
65.95561331652462
 10
233.26101050564927
 20
66.20936546721066
 10
233.486139892531
 20
66.58669764959816
 10
233.6326031384906
 20
66.88302860718994
 10
233.79577802257657
 20
67.29132894513532
 10
233.92258208211788
 20
67.71352626485694
 10
234.01555638936833
 20
68.15887718879782
 10
234.06145302979218
 20
68.50000951465202
 10
234.092140550038
 20
68.96445414495795
 10
234.09413409383302
 20
69.50335688712869
 10
234.59490297563403
 20
69.50335857431665
 10
234.59559425609183
 20
55.561445656924576
 10
234.58633652397845
 20
55.54441463255054
 10
234.09413578102098
 20
55.544974557159975
 10
234.08608270751063
 20
56.11552530826157
 10
234.06072057686055
 20
56.466044580742874
 10
233.99652385000195
 20
56.929583354975136
 10
233.89957929308983
 20
57.36927147168612
 10
233.7682958329416
 20
57.793740981887794
 10
233.64755147144888
 20
58.10050349539202
 10
233.45716037179926
 20
58.493222928258064
 10
233.23549194755824
 20
58.86378640357873
 10
232.86260940367913
 20
59.360699522021974
 10
232.5718932920453
 20
59.676734566936574
 10
232.3341318865952
 20
59.90230669109957
 10
232.09565859388354
 20
60.10349268527858
 10
231.75682045361557
 20
60.35160638257031
 10
231.22475723608164
 20
60.664594906427425
 10
230.6890842515837
 20
60.90046525471405
 10
230.11558778648688
 20
61.07980721837211
 10
229.63027415988026
 20
61.18132833136522
 10
228.99781793130305
 20
61.254317123628084
 10
228.6530699400386
 20
61.26879217691669
 10
223.93698170918023
 20
61.268470929402525
 10
223.73388433198895
 20
61.23753478480057
 10
223.55511480500334
 20
61.157938938855324
 10
223.4030376227783
 20
61.034786297325496
 10
223.2880165939586
 20
60.876469509208164
 10
223.21789021158045
 20
60.693777601986824
 10
223.1971160531057
 20
60.52860527332828
 10
223.1971160531057
 20
48.50115065678449
 10
223.2080062578989
 20
48.384025626710894
 10
223.24696627265627
 20
48.24233421154608
 10
223.3076480436525
 20
48.11928375260848
 10
223.39634204690628
 20
48.00211842638916
 10
223.4750402886005
 20
47.92840947945331
 10
223.59775562021895
 20
47.84756835584105
 10
223.72451139638957
 20
47.79506439424193
 10
223.86844754623766
 20
47.76545485780372
 10
229.70735089768897
 20
47.76626532234789
 10
230.21991061980455
 20
47.79513573570742
 10
230.72770341607995
 20
47.84965497997021
 10
231.2204890209781
 20
47.92835310700812
 10
231.71082006714346
 20
48.0330803150614
 10
232.32856544774398
 20
48.20445374532912
 10
232.79653894746366
 20
48.36512861014924
 10
233.2618330908016
 20
48.55266257097563
 10
233.7101951169705
 20
48.760950159491074
 10
234.15920877077474
 20
48.9979038776373
 10
234.6022370341509
 20
49.261268952769086
 10
235.14567389081088
 20
49.62822403910354
 10
235.563412554404
 20
49.946558994820066
 10
236.07080088402108
 20
50.380472929125204
 10
236.45528135710887
 20
50.747572905738366
 10
236.82193746193076
 20
51.13194876825244
 10
237.27823458461478
 20
51.662472126992014
 10
237.7214747338375
 20
52.241985489239084
 10
238.04275275991353
 20
52.7135018291751
 10
238.42738618909937
 20
53.349852755103825
 10
238.7788867457675
 20
54.01806497946151
 10
239.09927701660695
 20
54.72218871674832
 10
239.32435268521488
 20
55.28848599894607
 10
239.58546392743338
 20
56.046301191052976
 10
239.8184812778426
 20
56.849177134965714
 10
240.31926533630332
 20
56.849167944590704
 10
238.41137404889696
 20
45.20066681205853
 10
209.0368629801415
 20
45.20068959326983
 10
209.03686129295352
 20
45.70145847507084
 10
209.95837002372124
 20
45.71247437569042
 10
210.2457523297461
 20
45.74738112155086
 10
210.56712073256804
 20
45.81900285053405
 10
210.89419366280381
 20
45.93199048729679
 10
211.19850393675839
 20
46.07877412223701
 10
211.44765453587456
 20
46.233225291090406
 10
211.7306380153857
 20
46.451948710914394
 10
211.97975033709545
 20
46.68872425661732
 10
212.17460430654714
 20
46.90881642527438
 10
212.37467871050944
 20
47.18089200088926
 10
212.52066675092087
 20
47.42472121323007
 10
212.66096254922212
 20
47.72100722956935
 10
212.75278304519244
 20
47.97525998111843
 10
212.82559452896504
 20
48.25033245620381
 10
212.88017541732083
 20
48.57687117709955
 10
212.90272481725424
 20
48.89231449481949
 10
212.90272481725424
 20
76.65816839218579
 10
212.88017541732097
 20
76.97361170990483
 10
212.8238839463934
 20
77.30807898259862
 10
212.7321755741276
 20
77.63859327630996
 10
212.62673370105978
 20
77.90960136695202
 10
212.47176909907662
 20
78.21306614144999
 10
212.28941229375252
 20
78.49257669671084
 10
212.1036643765489
 20
78.72597924834176
 10
211.86079045677533
 20
78.98046636184726
 10
211.57474682640193
 20
79.22516073193772
 10
211.28177230172963
 20
79.4237868869071
 10
210.97360164923512
 20
79.58430881099952
 10
210.65030460243065
 20
79.70679211140903
 10
210.32448436585562
 20
79.78891667562279
 10
209.97847104400043
 20
79.83637165183136
 10
209.0368629801415
 20
79.84902272474648
  0
LWPOLYLINE
  5
38
330
17
100
AcDbEntity
  8
CUT
100
AcDbPolyline
 90
118
 70
1
 10
154.8178012045844
 20
45.70145847507084
 10
155.81775125876507
 20
45.706696204108454
 10
156.10037102582055
 20
45.729265654730824
 10
156.38308452920373
 20
45.77224969214362
 10
156.72198240912414
 20
45.852901874168396
 10
157.05956969871062
 20
45.96803136179804
 10
157.33329862154466
 20
46.08943167637179
 10
157.64004796406832
 20
46.25850544936563
 10
157.94557993721264
 20
46.46555277739347
 10
158.181933618431
 20
46.656942794417205
 10
158.43302287106533
 20
46.90543954112408
 10
158.62445089604827
 20
47.138849385858464
 10
158.81820941183474
 20
47.433025758241655
 10
158.95983232196113
 20
47.70478165875727
 10
159.09715324020877
 20
48.04711835732155
 10
159.1885572211453
 20
48.354737763982
 10
159.28689643577303
 20
48.8704424444785
 10
163.7057577862632
 20
81.05280219642306
 10
164.16251480954207
 20
81.04585747469413
 10
180.39157951376967
 20
58.87602991267207
 10
180.51929548904465
 20
58.73805136484381
 10
180.67704845508533
 20
58.635817970771456
 10
180.82618813301667
 20
58.582482938309056
 10
181.0129959998113
 20
58.56149517849775
 10
181.17025254525274
 20
58.58040676587973
 10
181.35552355793112
 20
58.649689672041404
 10
181.50896603248208
 20
58.758285584310954
 10
181.63093557971428
 20
58.90136905487719
 10
196.49056090510078
 20
81.04583712460955
 10
196.9468795808859
 20
81.05281281216563
 10
201.51449504044388
 20
48.883611877527585
 10
201.60348382361465
 20
48.454070902132855
 10
201.69304389298622
 20
48.14971870133897
 10
201.80098670533133
 20
47.86382861532874
 10
201.95603748047455
 20
47.54126109920068
 10
202.10549362864563
 20
47.29162885893305
 10
202.27688413848833
 20
47.05459226137569
 10
202.46500889603436
 20
46.83753066100806
 10
202.6654625795553
 20
46.64286224704054
 10
202.93632855738218
 20
46.42398743009082
 10
203.2489826735305
 20
46.216565512810746
 10
203.56936825704818
 20
46.04704899657898
 10
203.90321691418228
 20
45.91125689606869
 10
204.26136766877167
 20
45.806651627838164
 10
204.6042990906608
 20
45.742052777393155
 10
204.90794973213232
 20
45.710991979960255
 10
205.98548041922587
 20
45.70146016225877
 10
205.98548210641383
 20
45.20069128045782
 10
188.1605466588745
 20
45.20068959326986
 10
188.16054497168656
 20
45.65124349951799
 10
189.0365064612768
 20
45.65353882986062
 10
189.36780142787296
 20
45.69843666934926
 10
189.59416317083884
 20
45.77006498376511
 10
189.79295036602687
 20
45.86511639941867
 10
189.98302578028657
 20
45.988485834005786
 10
190.1640457752009
 20
46.14019913186323
 10
190.31139345046773
 20
46.29226729205166
 10
190.46820847953182
 20
46.48599607778314
 10
190.59957153699756
 20
46.68129724272046
 10
190.7144524714205
 20
46.89394507249324
 10
190.79908760295794
 20
47.097826219098806
 10
190.86331377413038
 20
47.31355689795535
 10
190.90391856949563
 20
47.53421147653282
 10
190.9209671251074
 20
47.75978778667121
 10
190.91393941276368
 20
47.92066290768685
 10
189.26546201777083
 20
60.53711174985105
 10
189.18586945869194
 20
60.76763860290521
 10
189.10994402953358
 20
60.88168564802484
 10
189.00706335533368
 20
60.986327687805016
 10
188.79694455833493
 20
61.11013276277524
 10
188.69398824073724
 20
61.14166217716726
 10
188.5484287658604
 20
61.16028551970115
 10
188.36355011817355
 20
61.14267294652865
 10
188.17997282114194
 20
61.07568508961754
 10
188.01994753005454
 20
60.96352492212915
 10
187.91052756977513
 20
60.83836956831675
 10
180.49015681173447
 20
49.83933397799487
 10
179.84553409481478
 20
48.78408456959889
 10
179.53125015496425
 20
48.21191422637418
 10
179.18636497416676
 20
47.49231678742299
 10
178.84424255002241
 20
46.67943236010993
 10
178.6477534164453
 20
46.11707730968283
 10
178.5181871809628
 20
45.6243291278746
 10
178.4180918993585
 20
45.05961436802434
 10
178.3725564415518
 20
44.56674233484782
 10
178.3671996822712
 20
43.99555647605979
 10
177.91059456580902
 20
44.0025648348539
 10
165.9816159439555
 20
60.51937286289916
 10
165.86532127977858
 20
60.64895206530193
 10
165.7395468336023
 20
60.73914319765785
 10
165.57006067197943
 20
60.809974064055126
 10
165.41751178047414
 20
60.83609852323616
 10
165.2724366953315
 20
60.83163300890055
 10
165.1309415703977
 20
60.799293392836546
 10
165.00677831412597
 20
60.74500754315673
 10
164.88695671895096
 20
60.6630959659725
 10
164.81032971783782
 20
60.58913427730306
 10
164.72422925929354
 20
60.47228637537259
 10
164.66226080496352
 20
60.34103611131428
 10
164.62825706708037
 20
60.209859842524594
 10
163.10953108859033
 20
48.067626719385146
 10
163.10359606580553
 20
47.748119352099366
 10
163.12191568760363
 20
47.522301751341786
 10
163.1638049217582
 20
47.301810879434214
 10
163.2291986976701
 20
47.08663973490235
 10
163.31307721992025
 20
46.88705423392392
 10
163.42469007436407
 20
46.68129724272026
 10
163.56001829875473
 20
46.48061641863208
 10
163.71788835293088
 20
46.28659215056342
 10
163.88267387112938
 20
46.11938156694325
 10
164.06163258815351
 20
45.973581055932414
 10
164.25003422213285
 20
45.85475874470609
 10
164.4482212682335
 20
45.76296449416989
 10
164.65646018349034
 20
45.69843666934881
 10
164.98775515008464
 20
45.65353882986062
 10
165.86371495248702
 20
45.65124518670589
 10
165.86371663967492
 20
45.20069128045782
 10
154.826380224605
 20
45.200128590280315
  0
LWPOLYLINE
  5
39
330
17
100
AcDbEntity
  8
CUT
100
AcDbPolyline
 90
64
 70
1
 10
205.6657295636434
 20
17.612068234025315
 10
205.69424615176177
 20
17.3684002521951
 10
205.69874178594517
 20
17.12311048387889
 10
205.6791731707787
 20
16.87856120363452
 10
205.63572876272386
 20
16.63710755471621
 10
205.56882695517925
 20
16.401074867754204
 10
205.4791120491234
 20
16.172736266551595
 10
205.36744804814583
 20
15.954290776663157
 10
205.23491033761653
 20
15.747842147568264
 10
205.08277532814026
 20
15.555378592421903
 10
204.91250816302428
 20
15.378753640472269
 10
204.72574860814694
 20
15.219668286560193
 10
204.52429526011477
 20
15.07965460960827
 10
204.31008822479362
 20
14.960061017864035
 10
204.08519043303076
 20
14.86203926299251
 10
203.8517677735046
 20
14.786533348078194
 10
203.61206823402532
 20
14.734270436356582
 10
203.3684002521951
 20
14.705753848238203
 10
203.1231104838789
 20
14.701258214054803
 10
202.87856120363452
 20
14.720826829221267
 10
202.6371075547162
 20
14.76427123727612
 10
202.4010748677542
 20
14.83117304482073
 10
202.1727362665516
 20
14.92088795087659
 10
201.95429077666316
 20
15.032551951854145
 10
201.74784214756826
 20
15.165089662383451
 10
201.5553785924219
 20
15.31722467185972
 10
201.37875364047227
 20
15.487491836975693
 10
201.2196682865602
 20
15.674251391853034
 10
201.07965460960827
 20
15.875704739885208
 10
200.96006101786404
 20
16.08991177520636
 10
200.8620392629925
 20
16.314809566969217
 10
200.7865333480782
 20
16.548232226495372
 10
200.73427043635658
 20
16.787931765974662
 10
200.7057538482382
 20
17.031599747804876
 10
200.7012582140548
 20
17.276889516121088
 10
200.72082682922127
 20
17.52143879636546
 10
200.76427123727612
 20
17.762892445283768
 10
200.83117304482073
 20
17.998925132245773
 10
200.9208879508766
 20
18.227263733448382
 10
201.03255195185392
 20
18.44570922333645
 10
201.16508966238345
 20
18.652157852431714
 10
201.31722467185972
 20
18.844621407578074
 10
201.4874918369757
 20
19.02124635952771
 10
201.67425139185303
 20
19.180331713439784
 10
201.8757047398852
 20
19.320345390391708
 10
202.08991177520636
 20
19.439938982135942
 10
202.31480956696922
 20
19.537960737007467
 10
202.54823222649537
 20
19.613466651921783
 10
202.78793176597466
 20
19.665729563643396
 10
203.03159974780488
 20
19.694246151761774
 10
203.2768895161211
 20
19.698741785945174
 10
203.52143879636546
 20
19.67917317077871
 10
203.76289244528377
 20
19.635728762723858
 10
203.99892513224577
 20
19.568826955179247
 10
204.22726373344838
 20
19.479112049123387
 10
204.44570922333645
 20
19.36744804814606
 10
204.6521578524317
 20
19.234910337616526
 10
204.84462140757807
 20
19.082775328140258
 10
205.0212463595277
 20
18.912508163024285
 10
205.18033171343978
 20
18.725748608146944
 10
205.3203453903917
 20
18.52429526011477
 10
205.43993898213594
 20
18.310088224793617
 10
205.53796073700747
 20
18.08519043303076
 10
205.61346665192178
 20
17.851767773504605
  0
LWPOLYLINE
  5
3A
330
17
100
AcDbEntity
  8
CUT
100
AcDbPolyline
 90
114
 70
1
 10
184.73277582997164
 20
155.55807219068654
 10
185.7340797340917
 20
155.5006709561251
 10
186.4161467726563
 20
155.43894873283256
 10
187.08922278039606
 20
155.35885513894956
 10
188.05832399809782
 20
155.207467768994
 10
188.6958137356737
 20
155.08276264434548
 10
189.6105208124156
 20
154.86573685705582
 10
190.49865189398398
 20
154.60777788258946
 10
191.07903297373394
 20
154.41149022552233
 10
191.90689858747493
 20
154.08964267733333
 10
192.44503226494024
 20
153.85150641842654
 10
193.22155950087588
 20
153.46397158610426
 10
193.72349242517683
 20
153.1828981860968
 10
194.42687216835847
 20
152.742515582439
 10
195.0950632661694
 20
152.2656819466447
 10
195.52876544396995
 20
151.9205348654902
 10
196.12723139247606
 20
151.3898662047181
 10
196.68990052788342
 20
150.82224479398116
 10
197.04987911087213
 20
150.41709374938537
 10
197.54352407964498
 20
149.79635876054434
 10
197.85867410192932
 20
149.35266789771774
 10
198.28644834931052
 20
148.6757522323344
 10
198.55427722967104
 20
148.19468426702767
 10
198.90816425436287
 20
147.46573364443765
 10
199.12435407858814
 20
146.95000269643467
 10
199.40314811168648
 20
146.1693205828496
 10
199.56769310002065
 20
145.61921684115478
 10
199.71038256531986
 20
145.05912160486906
 10
199.88371591790371
 20
144.2057363034899
 10
199.9759365380645
 20
143.60798964783396
 10
200.07397445977338
 20
142.7024122687298
 10
200.11486669177157
 20
142.07075557466996
 10
200.13745475337765
 20
141.11289767366122
 10
200.12714358515817
 20
140.4661020447978
 10
200.07417789567856
 20
139.5358986464044
 10
200.0125851584527
 20
138.92149740131913
 10
199.88418289504082
 20
138.04127376876193
 10
199.77116216420552
 20
137.45936294213797
 10
199.56769159357287
 20
136.62978844637715
 10
199.40315921310278
 20
136.08054396241988
 10
199.12434533742763
 20
135.29987833727523
 10
198.90819778885276
 20
134.78352147230015
 10
198.5542572795418
 20
134.0522723765961
 10
198.286512094516
 20
133.56908273729977
 10
197.85866918863152
 20
132.88801341816497
 10
197.38861808502065
 20
132.2368341279806
 10
197.04670052802837
 20
131.81387646197607
 10
196.51391060223995
 20
131.22397880336882
 10
196.1248557958478
 20
130.83792422715146
 10
195.52264732795032
 20
130.30217845532823
 10
194.88469140681312
 20
129.803519459848
 10
194.42430844623573
 20
129.48094429521984
 10
193.71962958786384
 20
129.03899772095917
 10
193.21765352231552
 20
128.75772259147067
 10
192.44746172189366
 20
128.3731642634295
 10
191.90296946174306
 20
128.13226044496253
 10
191.07516777913546
 20
127.81065268461515
 10
190.49483081409667
 20
127.61455789246165
 10
189.61283663564885
 20
127.35841356814663
 10
188.99680683379339
 20
127.20706163845301
 10
188.06049442853418
 20
127.0164623145348
 10
187.40886006635583
 20
126.90975569957746
 10
186.41918377344098
 20
126.78490773620454
 10
185.73095696906222
 20
126.72263722338828
 10
184.72341250559217
 20
126.66535828236292
 10
184.7234104409743
 20
128.71394513789272
 10
185.12354384237312
 20
128.78787471802556
 10
185.57394136243713
 20
128.90314841573556
 10
185.89592881670282
 20
129.00839360388147
 10
186.31817670703364
 20
129.17802771791423
 10
186.62070640193795
 20
129.32387895455162
 10
187.02598953489917
 20
129.55437894508103
 10
187.40569446308427
 20
129.81122159139187
 10
187.68155862749717
 20
130.0255139266077
 10
188.04232940715795
 20
130.34466846550717
 10
188.37918347340337
 20
130.68639561964875
 10
188.61665868166628
 20
130.95637469431617
 10
188.92957586136762
 20
131.35476308932482
 10
189.22314964202857
 20
131.78029766958656
 10
189.500787349437
 20
132.23824515308831
 10
189.68633742407428
 20
132.58017616455217
 10
189.92934282369995
 20
133.0804995652593
 10
190.3014905660733
 20
133.99607354766414
 10
190.56580949708888
 20
134.80084856150313
 10
190.79037367474314
 20
135.6465213511093
 10
191.01510165613524
 20
136.75224643500385
 10
191.15579869877507
 20
137.703835588334
 10
191.2591476006593
 20
138.70644825758973
 10
191.33434989125521
 20
140.00626065086968
 10
191.3531795860278
 20
141.1098935361199
 10
191.33434989125521
 20
142.21727977766912
 10
191.25914760065908
 20
143.51709217095166
 10
191.15579869877448
 20
144.5197048402088
 10
191.01510165613658
 20
145.47129399352679
 10
190.7903736747438
 20
146.57701907742612
 10
190.5658094970889
 20
147.42269186703516
 10
190.3014905660737
 20
148.22746688087312
 10
189.9293428236993
 20
149.1430408632803
 10
189.68633742407482
 20
149.64336426398495
 10
189.5007873494365
 20
149.9852952754507
 10
189.22314964202974
 20
150.4432427589499
 10
188.92957586136748
 20
150.86877733921366
 10
188.61665868166588
 20
151.2671657342226
 10
188.37918347340351
 20
151.5371448088893
 10
188.04232940715656
 20
151.87887196303242
 10
187.68155862749566
 20
152.1980265019318
 10
187.4056944630849
 20
152.4123188371459
 10
187.02598953489874
 20
152.66916148345751
 10
186.62070640193775
 20
152.89966147398673
 10
186.318176707034
 20
153.04551271062388
 10
185.89592881670316
 20
153.21514682465667
 10
185.57394136243775
 20
153.32039201280253
 10
185.12354384237256
 20
153.4356657105128
 10
184.7234144199677
 20
153.50959066636327
  0
LWPOLYLINE
  5
3B
330
17
100
AcDbEntity
  8
CUT
100
AcDbPolyline
 90
160
 70
1
 10
165.99999999999994
 20
26.099999999999966
 10
160.4073634774276
 20
26.099999999999994
 10
160.18543591093777
 20
26.121313481466586
 10
159.97911739949006
 20
26.183899517681
 10
159.78897317034526
 20
26.285533725595656
 10
159.6223103595969
 20
26.422310359596736
 10
159.4778111180717
 20
26.601506376989875
 10
159.37877040521553
 20
26.792916390071667
 10
159.3189749729749
 20
26.99997039798737
 10
159.30072272627686
 20
27.21471143133064
 10
159.32131348146658
 20
27.414564089062196
 10
159.38125183340662
 20
27.61401873713089
 10
159.4374589176122
 20
27.7311700438199
 10
159.559580009505
 20
27.90874621008672
 10
159.6967114105334
 20
28.04536648949363
 10
159.8688299561803
 20
28.162541082387918
 10
159.99291639007166
 20
28.221229594784432
 10
160.17111288738124
 20
28.27528491127373
 10
160.29953575343418
 20
28.29506450805175
 10
174.72653202185253
 20
28.299999999999983
 10
174.88280867585934
 20
28.320709392953347
 10
174.9935053138871
 20
28.362668387920223
 10
175.09380905027987
 20
28.425544960623654
 10
175.2047093198231
 20
28.537582462199225
 10
175.2665593244349
 20
28.638522443667455
 10
175.3073868118009
 20
28.74964138536805
 10
175.40188856606528
 20
29.18173929869988
 10
175.54384006058748
 20
29.647766104669785
 10
175.72079764141
 20
30.077534512794358
 10
175.93244428389116
 20
30.471122535876333
 10
176.16807269425598
 20
30.815772588413495
 10
176.31354652857004
 20
30.994680667637653
 10
176.6084801486525
 20
31.300659833537935
 10
176.93439739664404
 20
31.574044351646137
 10
177.2782276930929
 20
31.80992484647203
 10
177.66131726844407
 20
32.02643551781472
 10
178.06923193162382
 20
32.21724764296286
 10
178.50648988281728
 20
32.387975900349204
 10
178.95358209537378
 20
32.53563735377196
 10
179.64841344298884
 20
32.7273500355289
 10
181.3539805119299
 20
33.10420559082269
 10
180.98551016653252
 20
31.653172104479466
 10
180.69994999559114
 20
30.71919537753567
 10
180.53588330724395
 20
30.276088108174008
 10
180.35703342091261
 20
29.86117325399232
 10
180.1535880310672
 20
29.461432569488323
 10
179.99274630487653
 20
29.18974815480422
 10
179.93601120458555
 20
29.04531960219373
 10
179.92004464666164
 20
28.852319369972406
 10
179.94053938367603
 20
28.737613690072465
 10
179.98281863983237
 20
28.629032422141677
 10
180.04528784978478
 20
28.530670716917967
 10
180.12559098255196
 20
28.446238293558366
 10
180.29057781533498
 20
28.344831362741786
 10
180.40217552445384
 20
28.31131452270546
 10
180.51814711072626
 20
28.299999999999983
 10
188.3926365225724
 20
28.299999999999983
 10
188.76355241590358
 20
28.27075847101719
 10
188.88323852541012
 20
28.292008333894557
 10
188.99618535416093
 20
28.33694534933025
 10
189.36745968069945
 20
28.578577128326458
 10
189.81455046205238
 20
28.82704547849039
 10
190.24725492656736
 20
29.017137517556023
 10
190.4851206657216
 20
29.100619872610253
 10
190.9157147955549
 20
29.214163852475252
 10
191.15511632462957
 20
29.25660611644733
 10
191.60128087879704
 20
29.297164092150723
 10
192.04704934962768
 20
29.289251922935478
 10
192.4925208891175
 20
29.2354971975125
 10
192.93782985105588
 20
29.13905425838422
 10
193.3830969516472
 20
29.003552363158605
 10
194.04386999346258
 20
28.73930194556104
 10
194.49652255256157
 20
28.521461077069148
 10
195.16139221453045
 20
28.159337602106802
 10
196.7244353553019
 20
27.200002331425452
 10
195.38765741350988
 20
26.37274394277381
 10
194.49094786597146
 20
25.875701678236396
 10
194.04386999346258
 20
25.66069805443894
 10
193.59670220465705
 20
25.474138616395805
 10
193.14947371236948
 20
25.32072625086309
 10
192.71518739551294
 20
25.2076044581039
 10
192.26981400662567
 20
25.13208060671076
 10
192.03167367934614
 20
25.109698558228075
 10
191.60128087879704
 20
25.102835907849254
 10
191.37825143450922
 20
25.116914275373716
 10
190.93187674161803
 20
25.182509562817017
 10
190.4851206657216
 20
25.299380127389725
 10
190.038104715996
 20
25.468573338302747
 10
189.63711108630707
 20
25.66045027943042
 10
189.523662379346
 20
25.69028542240497
 10
189.36751286712996
 20
25.694768207358436
 10
189.2525393862339
 20
25.671490674024994
 10
189.11043066632445
 20
25.60662252119218
 10
189.01752143113245
 20
25.53500814495746
 10
188.91860983904888
 20
25.414098002795043
 10
188.8542624880662
 20
25.271752704496294
 10
188.8288411929574
 20
25.117621191556083
 10
188.8440691479
 20
24.962151339447985
 10
188.8816479483352
 20
24.851027180844653
 10
189.03703342091262
 20
24.538826746007658
 10
189.21588330724396
 20
24.12391189182597
 10
189.4559188908379
 20
23.45302221068343
 10
189.73023378728257
 20
22.5068241839285
 10
190.03398375101827
 20
21.295797763351516
 10
188.32841344298885
 20
21.672649964471077
 10
187.63358209537378
 20
21.864362646228017
 10
187.18648988281728
 20
22.012024099650773
 10
186.74923193162383
 20
22.182752357037117
 10
186.34131726844407
 20
22.37356448218526
 10
185.9582276930929
 20
22.59007515352795
 10
185.61439739664405
 20
22.82595564835384
 10
185.2884801486525
 20
23.099340166462042
 10
184.99354652857005
 20
23.405319332362325
 10
184.848072694256
 20
23.584227411586483
 10
184.61244428389116
 20
23.928877464123644
 10
184.40079764141
 20
24.32246548720562
 10
184.2238400605875
 20
24.752233895330193
 10
184.0818885660653
 20
25.218260701300096
 10
183.98738681180092
 20
25.650358614631926
 10
183.9465593244349
 20
25.761477556332522
 10
183.88470931982312
 20
25.862417537800752
 10
183.77380905027988
 20
25.974455039376323
 10
183.6375551663885
 20
26.05374028812136
 10
183.52433657848593
 20
26.08832141422559
 10
183.40653202185254
 20
26.099999999999994
 10
171.83814711072654
 20
26.100000000000023
 10
171.72217552445414
 20
26.088685477294547
 10
171.6105778153353
 20
26.055168637258248
 10
171.44559098255226
 20
25.953761706441668
 10
171.3652878497851
 20
25.869329283082095
 10
171.30281863983268
 20
25.770967577858414
 10
171.26053938367633
 20
25.662386309927626
 10
171.24004464666191
 20
25.547680630027713
 10
171.2560112045858
 20
25.35468039780642
 10
171.31274630487675
 20
25.210251845195927
 10
171.4735880310678
 20
24.938567430511
 10
171.67703342091255
 20
24.538826746008397
 10
171.85588330724437
 20
24.123911891825713
 10
172.01994999559108
 20
23.68080462246533
 10
172.3055030445564
 20
22.746853732714214
 10
172.67398375101862
 20
21.29579776335183
 10
171.20778374410818
 20
21.614164150879873
 10
170.50315487934196
 20
21.79672240159539
 10
170.04117700685828
 20
21.938209698660756
 10
169.60159036646897
 20
22.096074954598862
 10
169.18234943050655
 20
22.275122962761657
 10
168.7864955040696
 20
22.478435906287643
 10
168.4168384603367
 20
22.708796903128643
 10
168.07588337959146
 20
22.968620149508865
 10
167.76574530977473
 20
23.259904521300513
 10
167.4880726942562
 20
23.58422741158654
 10
167.24401401134085
 20
23.942775352532664
 10
167.03425080097242
 20
24.336387417643067
 10
166.8638400605874
 20
24.752233895330846
 10
166.72188856606522
 20
25.21826070130072
 10
166.6162292536695
 20
25.688268595522914
 10
166.5247093198232
 20
25.862417537800724
 10
166.41380905027995
 20
25.974455039376295
 10
166.27755516638854
 20
26.053740288121332
 10
166.164336578486
 20
26.08832141422556
  0
LWPOLYLINE
  5
3C
330
17
100
AcDbEntity
  8
CUT
100
AcDbPolyline
 90
51
 70
1
 10
184.41480044193406
 20
117.6691306507295
 10
185.0273639350708
 20
117.51593868632436
 10
185.5623878015527
 20
117.3196664019218
 10
186.09347857305679
 20
117.05103360054447
 10
186.520568003216
 20
116.76036254188841
 10
186.9301159961941
 20
116.39029733422961
 10
187.28008372751836
 20
115.96791890431089
 10
187.56571144850412
 20
115.49763976814475
 10
187.76722709221784
 20
115.03423502408606
 10
187.87927905570137
 20
114.67370659477987
 10
187.9505753272207
 20
114.35427930507893
 10
188.00763599937181
 20
113.95370985161581
 10
188.03160257478362
 20
113.60087079393594
 10
188.0324935869801
 20
113.21454768594315
 10
188.00435685091435
 20
112.81395662673889
 10
187.94688996510988
 20
112.4172396174247
 10
187.8589581864173
 20
112.01663165840077
 10
187.6788479177385
 20
111.45103310087899
 10
187.56121511116734
 20
111.18028289201239
 10
187.42483812675974
 20
110.918601702669
 10
187.2335094079221
 20
110.6122862492063
 10
186.9903037212119
 20
110.29091000412562
 10
186.76094940766558
 20
110.0455182530792
 10
186.45875052204767
 20
109.77459164380029
 10
186.36553083102532
 20
109.6591659161967
 10
186.30061767101674
 20
109.53679280892398
 10
186.25733130699388
 20
109.39487980713707
 10
186.24383931175268
 20
109.2868517177669
 10
186.24951166349982
 20
109.14844391397246
 10
186.28699634362053
 20
108.9947436177498
 10
186.3662216260586
 20
108.8353720190399
 10
189.01352247344866
 20
104.70065518862253
 10
186.00584250345645
 20
104.70070988621627
 10
184.4055614480526
 20
107.11589531111234
 10
184.40557459313322
 20
111.59378321828446
 10
184.62030352660364
 20
111.73096745821532
 10
184.8020635606852
 20
111.88688268048116
 10
184.9439452404443
 20
112.0512956204962
 10
185.09217862831812
 20
112.27913910674013
 10
185.20718378865774
 20
112.51679595705195
 10
185.28686238984125
 20
112.75810819250862
 10
185.34410091999155
 20
113.03170726918835
 10
185.3644083345746
 20
113.2978894726326
 10
185.34356292100182
 20
113.58640670229273
 10
185.28321249956176
 20
113.93098913966328
 10
185.20735953821003
 20
114.17260955644485
 10
185.09451943711457
 20
114.41973783620627
 10
184.97010872500059
 20
114.62487033675527
 10
184.82091507490298
 20
114.79928899442591
 10
184.6318123470291
 20
114.96087392974333
 10
184.4055799078613
 20
115.1044441407067
  0
LWPOLYLINE
  5
3D
330
17
100
AcDbEntity
  8
CUT
100
AcDbPolyline
 90
118
 70
1
 10
180.79341600157738
 20
155.43927998415478
 10
181.81578558521844
 20
155.52479650313595
 10
182.5208090504514
 20
155.55988333362583
 10
182.52080975603334
 20
153.5131109645946
 10
182.10996275512312
 20
153.43728173437518
 10
181.6650761803715
 20
153.32262357219184
 10
181.33858699494192
 20
153.21510437117058
 10
180.92010954487142
 20
153.04552137582408
 10
180.61972431558624
 20
152.8996689819603
 10
180.21668614578485
 20
152.66918417691286
 10
179.8381397134992
 20
152.4122286446448
 10
179.56299419497083
 20
152.19815510409904
 10
179.2021169582918
 20
151.87887196303194
 10
178.8652628920457
 20
151.5371448088897
 10
178.62778768378334
 20
151.26716573422297
 10
178.31487050408106
 20
150.86877733921318
 10
178.0245589614411
 20
150.44823612787735
 10
177.82496638422617
 20
150.1256244321986
 10
177.56057680886417
 20
149.64816907534728
 10
177.31721784399105
 20
149.14764015385336
 10
176.93758280042468
 20
148.21260493929938
 10
176.7403755124239
 20
147.62579217203216
 10
176.56482500920234
 20
147.01768239695292
 10
176.31277553843057
 20
145.92416142138237
 10
176.12016683582377
 20
144.76113123252986
 10
175.98553885802835
 20
143.5200957058816
 10
175.90976812195797
 20
142.20780694498833
 10
175.89244929780824
 20
141.39328076977142
 10
175.8958605920888
 20
140.5600448869787
 10
175.94809950699624
 20
139.22133506324658
 10
176.03212711318517
 20
138.20020120542534
 10
176.15277814882458
 20
137.23240087217596
 10
176.31098495564368
 20
136.30853798495585
 10
176.4572841963735
 20
135.63297926323418
 10
176.6786368683602
 20
134.80084856150228
 10
176.93910197137336
 20
134.006683426618
 10
177.2361990630665
 20
133.2578682823052
 10
177.56431092601986
 20
132.56818104198214
 10
177.74365901601175
 20
132.23824515308854
 10
178.01644079584023
 20
131.78781173611782
 10
178.22224823977533
 20
131.48321411862645
 10
178.52420884046836
 20
131.08251041641464
 10
178.7528979060004
 20
130.8109183844501
 10
179.0839316107562
 20
130.45942287178306
 10
179.3354587124642
 20
130.2214387241939
 10
179.6948084001207
 20
129.91974743304354
 10
179.9681621871895
 20
129.71836532364415
 10
180.35161001232566
 20
129.47249062310476
 10
180.6446073305666
 20
129.31098243992943
 10
181.05299733985663
 20
129.12008384120702
 10
181.36478471538157
 20
128.99903448176082
 10
181.79904037157107
 20
128.86262727397738
 10
182.12861273023435
 20
128.7822480686585
 10
182.52080579886322
 20
128.7104340721231
 10
182.52081678336504
 20
126.66366463571512
 10
181.81271550559626
 20
126.69894595705847
 10
180.7901764737134
 20
126.78459141849231
 10
180.1179976221026
 20
126.86468812529168
 10
179.15066292921267
 20
127.01607167207732
 10
178.51456708266326
 20
127.14078510095537
 10
177.60239748262566
 20
127.35780125260571
 10
177.00863879492928
 20
127.52536307311493
 10
176.42319155012663
 20
127.71271249383575
 10
175.58810528587824
 20
128.0214446712909
 10
175.04543552269752
 20
128.25074923919226
 10
174.5114635497965
 20
128.50047065769408
 10
173.75826927122586
 20
128.89634471234882
 10
173.26746354665153
 20
129.18522380656518
 10
172.58044478615088
 20
129.6367939130081
 10
172.13335233556805
 20
129.96450549489032
 10
171.51330013656616
 20
130.47060958621813
 10
171.10771689459077
 20
130.8392411752577
 10
170.55024488981846
 20
131.4036863421642
 10
170.1912445700816
 20
131.80893001010207
 10
169.70049085943597
 20
132.42720929801524
 10
169.38389599240568
 20
132.87352256781838
 10
168.95799801613808
 20
133.54778819620424
 10
168.69252278436053
 20
134.0243937964603
 10
168.4469279792146
 20
134.51639709949416
 10
168.12307662568125
 20
135.26600587724198
 10
167.92754966542222
 20
135.79551866145368
 10
167.67880508521412
 20
136.5969689778072
 10
167.5357381957903
 20
137.1571923837785
 10
167.41264659256865
 20
137.73454330929252
 10
167.26941371135783
 20
138.60878869050453
 10
167.1983813815804
 20
139.2135668109542
 10
167.1472359801911
 20
139.83844708311315
 10
167.11698833999344
 20
140.47056891257301
 10
167.10950941800826
 20
141.43263375872988
 10
167.13006505490472
 20
142.07295430481872
 10
167.19813004337524
 20
142.99315620245366
 10
167.26999697458007
 20
143.60106936128372
 10
167.41346869013816
 20
144.47130804800747
 10
167.5367910872778
 20
145.04670280248567
 10
167.7552859129826
 20
145.8663190234815
 10
167.9301382183991
 20
146.40900677469693
 10
168.22397841174978
 20
147.17976724968216
 10
168.45045003645205
 20
147.6895137292972
 10
168.81941825328366
 20
148.41091344419272
 10
169.0973909834155
 20
148.88731238495131
 10
169.53849272379267
 20
149.5573160596197
 10
169.86216957382484
 20
149.99573558857875
 10
170.36795274372085
 20
150.60843969315664
 10
170.73593147566987
 20
151.00779400770315
 10
171.31004437115035
 20
151.56656407580255
 10
171.91947262519562
 20
152.08800848362574
 10
172.35782806889773
 20
152.4246490102942
 10
173.0324373362992
 20
152.8891471846457
 10
173.51140887895585
 20
153.18454042575982
 10
174.25775643394252
 20
153.5956067146182
 10
174.78345488645778
 20
153.85332303494727
 10
175.5856377909583
 20
154.20110622538058
 10
176.14293218372873
 20
154.41288240798323
 10
176.72107854236677
 20
154.6089979405784
 10
177.6000686204959
 20
154.8651238801645
 10
178.21440430386045
 20
155.01648658240208
 10
179.1484837423599
 20
155.20707671902713
 10
180.12134275165855
 20
155.35930882880194
  0
LWPOLYLINE
  5
3E
330
17
100
AcDbEntity
  8
CUT
100
AcDbPolyline
 90
25
 70
1
 10
178.93706032733232
 20
117.80472182495528
 10
182.20293610543567
 20
117.80509684351763
 10
182.20292550547344
 20
115.30965225602021
 10
182.09329414090098
 20
115.29144020654661
 10
181.95445420481258
 20
115.24329654623479
 10
181.82767440135888
 20
115.16899162501653
 10
181.72452238315785
 20
115.07852973294415
 10
181.6343050658455
 20
114.96253328671335
 10
181.58347629413754
 20
114.86743934331498
 10
181.5371508299632
 20
114.72798221280468
 10
181.51924270642192
 20
114.59195650976518
 10
181.52277067057895
 20
112.03119690019014
 10
181.54953695808757
 20
111.8966336859411
 10
181.60488416861554
 20
111.76050497417296
 10
181.75228544556313
 20
111.56578697673034
 10
181.86828189179388
 20
111.47556965941808
 10
181.9633758351925
 20
111.42474088771013
 10
182.20294842489102
 20
111.36245416845773
 10
182.2032473795166
 20
108.8730918562254
 10
181.95445420481292
 20
108.79742760036602
 10
181.75228544556313
 20
108.66042384948047
 10
181.60488416861554
 20
108.46570585203784
 10
181.52789550733132
 20
108.23394092585922
 10
181.51758997270142
 20
104.70069128045779
 10
178.93706201452028
 20
104.70068959326987
  0
LWPOLYLINE
  5
3F
330
17
100
AcDbEntity
  8
CUT
100
AcDbPolyline
 90
61
 70
1
 10
164.70842784869987
 20
117.80472182495528
 10
167.288955806881
 20
117.80472351214321
 10
167.28968162873653
 20
109.5408906999004
 10
167.30545127537047
 20
109.29006007217123
 10
167.35017252544807
 20
109.05085962723444
 10
167.4134245363138
 20
108.84408714758521
 10
167.49555487140282
 20
108.64797289852692
 10
167.7160861212251
 20
108.27309820811737
 10
168.00073344812802
 20
107.92918719028742
 10
168.35284776707454
 20
107.62092127615658
 10
168.74391981006153
 20
107.37338682916712
 10
169.1427879879097
 20
107.20275093515316
 10
169.5486029295541
 20
107.10350763277634
 10
169.99995796170825
 20
107.06828448927479
 10
170.48356893476614
 20
107.10367528865054
 10
170.91320517816555
 20
107.20262488261936
 10
171.32147474481073
 20
107.37058826046741
 10
171.70903633234633
 20
107.61063515554844
 10
172.05140695897228
 20
107.90399096693004
 10
172.33312823189397
 20
108.2382489275854
 10
172.56419075857337
 20
108.62926336768194
 10
172.64308000357786
 20
108.81629856475709
 10
172.70804831105684
 20
109.02354556874003
 10
172.75774068431545
 20
109.28344125503013
 10
172.7739446553822
 20
109.54094816726212
 10
172.7746671649392
 20
117.80472182495528
 10
175.3195825875078
 20
117.80472351214321
 10
175.32022097922828
 20
109.48398420868216
 10
175.29765310642853
 20
108.98670709685958
 10
175.24689810299233
 20
108.59821506711242
 10
175.14280190425876
 20
108.13220323869248
 10
174.99432102800216
 20
107.68938061930503
 10
174.79954501027657
 20
107.26436602316149
 10
174.60478888350107
 20
106.92973511649097
 10
174.28074963956067
 20
106.48094513237534
 10
173.97243140393212
 20
106.13552869134507
 10
173.63228795357819
 20
105.82074327937748
 10
173.2603131741073
 20
105.53659891636165
 10
172.85077162758182
 20
105.27986999940508
 10
172.33477013697077
 20
105.0225367046946
 10
171.78726857147632
 20
104.81921472622443
 10
171.30586892906854
 20
104.69275003659953
 10
170.7196891834803
 20
104.59722476978737
 10
170.20125789778163
 20
104.56066629945713
 10
169.58549950012682
 20
104.57040273399454
 10
168.98746406628948
 20
104.63800083719067
 10
168.50075731322335
 20
104.74032668279372
 10
167.95254121337345
 20
104.91267775356133
 10
167.50234605924567
 20
105.10497523132047
 10
167.0019097368407
 20
105.37941339993749
 10
166.60768522774967
 20
105.64909004134587
 10
166.18798375460912
 20
106.00396837385138
 10
165.8632814945661
 20
106.34229116552491
 10
165.5250576029051
 20
106.77703652945709
 10
165.32472557695252
 20
107.09056737737167
 10
165.19088761253568
 20
107.33765604384706
 10
164.96954554213724
 20
107.86220891254555
 10
164.88438589417035
 20
108.1352210456495
 10
164.79963726730654
 20
108.49649573624951
 10
164.7224149948236
 20
109.08311913521779
 10
164.70773825543
 20
109.49561944777523
  0
LWPOLYLINE
  5
40
330
17
100
AcDbEntity
  8
CUT
100
AcDbPolyline
 90
193
 70
1
 10
161.35255258990313
 20
146.15988207661948
 10
160.98370602017164
 20
147.30224773206896
 10
160.68173367340458
 20
148.09982810821455
 10
160.35012390127883
 20
148.84683379786887
 10
160.1265703619312
 20
149.28851573861175
 10
159.88902215410837
 20
149.71136528098273
 10
159.49644351680314
 20
150.32095874427367
 10
159.08256121165454
 20
150.86199148964462
 10
158.81176824384332
 20
151.1681942678489
 10
158.52311070628318
 20
151.45789102889984
 10
158.03958054081997
 20
151.86907402447338
 10
157.38632886924603
 20
152.31193431286331
 10
156.69186973083916
 20
152.69237610775502
 10
156.17699405440615
 20
152.92262476820088
 10
155.8088222560128
 20
153.06281361115293
 10
155.04142776747597
 20
153.29561260501546
 10
154.23848535985104
 20
153.46188959170283
 10
153.4069100526488
 20
153.56047940082152
 10
152.54956220751993
 20
153.5925287431893
 10
151.94869595010206
 20
153.5761886291176
 10
151.53159394781454
 20
153.54523111034197
 10
150.7520029663167
 20
153.4397616917209
 10
150.0073801160265
 20
153.27420776438817
 10
149.29775335711102
 20
153.04859449394021
 10
148.61673847665594
 20
152.75984107514415
 10
147.98354464722783
 20
152.4173388820182
 10
147.3739157239953
 20
152.00817172482988
 10
146.9638120725624
 20
151.68329003643458
 10
146.69014513574177
 20
151.44109199108257
 10
146.15724121737242
 20
150.9006947940762
 10
145.81029490014765
 20
150.49073969728676
 10
145.58122818678882
 20
150.18987487797511
 10
145.15290991471355
 20
149.54904450099826
 10
144.76187061436204
 20
148.8512397674658
 10
144.4107004964055
 20
148.09940403623557
 10
144.10450786189014
 20
147.30413581116395
 10
143.84237518893949
 20
146.45737049463483
 10
143.68018295074964
 20
145.81019731022616
 10
143.58337005648485
 20
145.35346043027272
 10
143.4238875132417
 20
144.4046859721405
 10
143.28825747622028
 20
143.14901828841863
 10
143.2240590535961
 20
141.81576357432974
 10
143.21978251185058
 20
140.99609588510413
 10
143.23937326800169
 20
140.18551495212444
 10
143.32550188882092
 20
138.87703520508933
 10
143.4772879415586
 20
137.64595308052142
 10
143.69594600116872
 20
136.48055350923215
 10
143.9800616062617
 20
135.388617508644
 10
144.17827755869283
 20
134.77817411092428
 10
144.40280938427537
 20
134.1827534736696
 10
144.64584850558208
 20
133.62110251425344
 10
144.828777134018
 20
133.24341120178394
 10
145.10213024970025
 20
132.73753789357892
 10
145.39879252296458
 20
132.2539758548731
 10
145.62205606247377
 20
131.92735026925618
 10
145.9473256665798
 20
131.49972606361285
 10
146.29754887100526
 20
131.09377352725335
 10
146.55672784309078
 20
130.82439021844542
 10
146.9385653996418
 20
130.46919065045458
 10
147.3419969682964
 20
130.14087016267524
 10
147.64559916836723
 20
129.92247140208852
 10
148.0639994328691
 20
129.65802692733135
 10
148.38936319967775
 20
129.47896367432094
 10
148.8425014363764
 20
129.2644942647059
 10
149.18205840640442
 20
129.12821419634253
 10
149.66439979906576
 20
128.9671202919547
 10
150.18136904599882
 20
128.83311331846087
 10
150.71619971798881
 20
128.732438415462
 10
151.2688787883604
 20
128.6651066536976
 10
151.8204138193974
 20
128.63184025459412
 10
152.5160180168557
 20
128.64181453877575
 10
153.1605156801048
 20
128.6745611185045
 10
153.7748772608118
 20
128.72917974558777
 10
154.35910421231844
 20
128.8056635725647
 10
154.92053387961644
 20
128.9054944531132
 10
155.4451062812716
 20
129.0262437360162
 10
155.9395588805204
 20
129.168957784288
 10
156.40387552051126
 20
129.33364214814475
 10
156.83803478554728
 20
129.5202979583654
 10
157.24453799767244
 20
129.73071447459444
 10
157.63078445508992
 20
129.97012326080204
 10
157.99778440010948
 20
130.23912613210257
 10
158.33168272777695
 20
130.52494027921534
 10
158.56673391327885
 20
130.75319158705923
 10
158.8709941776846
 20
131.08750742812379
 10
159.08237938122585
 20
131.3494035230273
 10
159.35711903305298
 20
131.7329852552828
 10
159.54481571433703
 20
132.0277947926056
 10
159.78986987114666
 20
132.4612588864079
 10
159.95600722698958
 20
132.79239624111017
 10
160.24916088636672
 20
133.45152143980192
 10
160.46743176742476
 20
134.0054491889229
 10
160.73873786219113
 20
134.78043831604458
 10
160.9366539754335
 20
135.41482681072307
 10
161.12473093600147
 20
136.07980165635615
 10
161.36101451783827
 20
137.01453822149273
 10
161.74157466038412
 20
138.80568831677257
 10
162.0583689030709
 20
138.80570248866067
 10
163.0121307172699
 20
131.57245457048754
 10
162.64453252328894
 20
131.02009100864845
 10
162.2157664034075
 20
130.48149258734088
 10
161.65099443077435
 20
129.88426981255492
 10
161.1028274852595
 20
129.3889506772225
 10
160.49634253133357
 20
128.91463847044508
 10
159.93659632556518
 20
128.5463146000793
 10
159.32613706106315
 20
128.20462270745065
 10
158.6608682650456
 20
127.88776739536199
 10
157.95310181518178
 20
127.60113723259026
 10
157.18634084133055
 20
127.33803625758776
 10
156.37313286924535
 20
127.113114799276
 10
155.67605521206747
 20
126.96399547602411
 10
154.7510974264194
 20
126.81753881597166
 10
153.96114157862542
 20
126.73171872406115
 10
152.92965898862872
 20
126.66549485681374
 10
152.0615380184221
 20
126.64439546671443
 10
151.0865719657771
 20
126.65774953211205
 10
149.98284373882407
 20
126.7105912167829
 10
148.91631895715028
 20
126.8008213343918
 10
147.8776218480147
 20
126.92922521005957
 10
146.8713198177947
 20
127.09549518347394
 10
146.21304249608076
 20
127.22856283335047
 10
145.26613540437455
 20
127.45675834513767
 10
144.3462137419032
 20
127.72400441916069
 10
143.45868184801972
 20
128.02911726638996
 10
142.60355297728734
 20
128.3720921815929
 10
142.04728608250744
 20
128.62413312019314
 10
141.26301333024455
 20
129.0240451570753
 10
140.75267605816768
 20
129.31599959201083
 10
140.03843992025952
 20
129.77311219271417
 10
139.57430550937931
 20
130.10494817311493
 10
138.9309307294162
 20
130.61806724494278
 10
138.51074873118162
 20
130.99188970485818
 10
137.93373319241206
 20
131.56481551416323
 10
137.5627066799734
 20
131.97632477521816
 10
137.0512921286594
 20
132.6111001624434
 10
136.5838888677938
 20
133.27647161553472
 10
136.28906643588593
 20
133.75098019808703
 10
135.89815034792937
 20
134.47148711943902
 10
135.65791622532456
 20
134.98302823715863
 10
135.34657795291935
 20
135.75818939067594
 10
135.16258151585234
 20
136.3015815582807
 10
134.99921136698032
 20
136.86410463127146
 10
134.80015776071886
 20
137.71323055845863
 10
134.69184163951965
 20
138.30836615004836
 10
134.60495407595826
 20
138.9213270113257
 10
134.51703904094816
 20
139.85073981081132
 10
134.48454840187276
 20
140.49957926059747
 10
134.4739670163024
 20
141.15646275334882
 10
134.49762362383905
 20
142.10642746476856
 10
134.54034876815194
 20
142.73404501263863
 10
134.64249922697334
 20
143.63399788953137
 10
134.73867366248552
 20
144.22917328136438
 10
134.9200509320037
 20
145.08287788937358
 10
135.14723207609282
 20
145.90296017836948
 10
135.32896464905434
 20
146.4458431800108
 10
135.53070881890932
 20
146.9709860075408
 10
135.8660248049543
 20
147.71878140770468
 10
136.12046406231892
 20
148.21098560546304
 10
136.39896019356922
 20
148.69424621073404
 10
136.84212377270666
 20
149.37240419424393
 10
137.17024162445784
 20
149.8185227646425
 10
137.6847075805077
 20
150.44188396533124
 10
138.06020892550083
 20
150.8484042025139
 10
138.6440471102605
 20
151.41392514257163
 10
139.06296723747528
 20
151.77752988616564
 10
139.50448455481865
 20
152.12810863179308
 10
140.18332911294064
 20
152.61096482463284
 10
140.67157757688514
 20
152.92176660905722
 10
141.1753117338293
 20
153.21445053396099
 10
141.9546720321906
 20
153.61825997313497
 10
142.50808020356274
 20
153.87302189511541
 10
143.06639273679514
 20
154.10578480164074
 10
143.64721707772864
 20
154.3238474575504
 10
144.54888060035748
 20
154.61823538782735
 10
145.49282838447039
 20
154.8747860002576
 10
146.13278640877704
 20
155.02166350359275
 10
146.794743605064
 20
155.1525079421777
 10
147.82326838682653
 20
155.31677324115526
 10
149.23936150966057
 20
155.47309354966404
 10
150.72551619648416
 20
155.56034612730073
 10
151.88922364156565
 20
155.57999373309516
 10
153.28500277341251
 20
155.5542820180998
 10
154.6150448501445
 20
155.4774102822504
 10
155.8775861463735
 20
155.34937183185548
 10
157.072619311004
 20
155.1701530632457
 10
158.37625643402944
 20
154.90171513708324
 10
159.73118592821123
 20
154.56067557762378
 10
160.93378665296595
 20
154.1934941277109
 10
161.86118480547358
 20
153.85065521334934
 10
162.09812864544918
 20
153.7425969682001
 10
161.7021542998312
 20
146.1770635074318
 10
161.70058362586164
 20
146.1604603392401
 10
161.6839163095563
 20
146.15975540630393
  0
LWPOLYLINE
  5
41
330
17
100
AcDbEntity
  8
CUT
100
AcDbPolyline
 90
66
 70
1
 10
156.07676751060515
 20
117.8520608268312
 10
156.64028826923925
 20
117.72737264294207
 10
157.18172422118104
 20
117.55378673914358
 10
157.70179988935274
 20
117.33362151659378
 10
158.27571672744915
 20
117.02936021971709
 10
158.74398617380362
 20
116.72690517806141
 10
159.19074258430697
 20
116.38446179517695
 10
159.6716623053181
 20
115.94532626060384
 10
160.05679029481436
 20
115.52825296469992
 10
160.4515356872546
 20
115.01792193726533
 10
160.75195048222088
 20
114.5497321568542
 10
161.05490864646418
 20
113.97145171657597
 10
161.271431933203
 20
113.4511695985568
 10
161.44036360508397
 20
112.9170214642495
 10
161.56106269938238
 20
112.36976478726211
 10
161.6335219322543
 20
111.80939919450857
 10
161.65773487432588
 20
111.23591594018947
 10
161.63370072886423
 20
110.64888844586832
 10
161.56143598236858
 20
110.07820991514751
 10
161.44093559160177
 20
109.52385825001673
 10
161.27219225151202
 20
108.98583129743774
 10
161.0557442261906
 20
108.4646224451955
 10
160.79679506236857
 20
107.96367631942813
 10
160.4527112556157
 20
107.42304859896325
 10
160.1114681406083
 20
106.98103512712021
 10
159.73570433775316
 20
106.57032571747781
 10
159.25978890365434
 20
106.13337297000766
 10
158.81705879717583
 20
105.79258597992006
 10
158.27742470335235
 20
105.44779547165815
 10
157.6991399235397
 20
105.15016389941604
 10
157.17850339177895
 20
104.9373246209076
 10
156.63709704813013
 20
104.76986400363273
 10
156.0677673442371
 20
104.64901473544853
 10
156.06775952098192
 20
107.18416268413257
 10
156.3758387156406
 20
107.28313243301739
 10
156.64988949160613
 20
107.39733422899619
 10
156.94359197277225
 20
107.54899402977435
 10
157.2275368002549
 20
107.72867498117171
 10
157.48700106005515
 20
107.92695441553475
 10
157.7282757266877
 20
108.14685734074122
 10
157.95706523506811
 20
108.39395865975513
 10
158.16842965024392
 20
108.66301899476177
 10
158.3546349580789
 20
108.94384088193098
 10
158.51956507401977
 20
109.24096334781888
 10
158.66323322089806
 20
109.5543874644344
 10
158.78350040601123
 20
109.88263672342178
 10
158.8744959394611
 20
110.21504607094704
 10
158.9390396878636
 20
110.56020784366224
 10
158.97339392147546
 20
110.87311778007337
 10
158.9867863849326
 20
111.23209332219238
 10
158.97299580193254
 20
111.60382371971843
 10
158.93824371450853
 20
111.91824191731352
 10
158.87358031783697
 20
112.26279242089794
 10
158.79215950219867
 20
112.56422517080804
 10
158.67631082223213
 20
112.88807413913375
 10
158.53228568419928
 20
113.20784986691933
 10
158.36404399897316
 20
113.51535524221015
 10
158.17712608889806
 20
113.80048015560085
 10
157.9689783111671
 20
114.0683845983744
 10
157.7396836445988
 20
114.31885575881643
 10
157.49737355691565
 20
114.54272571140902
 10
157.2369038044545
 20
114.74494256364405
 10
156.95206212637984
 20
114.92857334720928
 10
156.65737321532234
 20
115.08415261068036
 10
156.3819088439463
 20
115.20232449541288
 10
156.0677510024436
 20
115.30693876598455
  0
LWPOLYLINE
  5
42
330
17
100
AcDbEntity
  8
CUT
100
AcDbPolyline
 90
5
 70
1
 10
153.71430941438123
 20
179.3967064937942
 10
160.29514548378862
 20
179.39514548378867
 10
160.29514548378862
 20
172.80485451621132
 10
153.70485451621136
 20
172.80485451621132
 10
153.7
 20
179.3508555690294
  0
LWPOLYLINE
  5
43
330
17
100
AcDbEntity
  8
CUT
100
AcDbPolyline
 90
5
 70
1
 10
153.71430941438123
 20
188.5967064937942
 10
160.29514548378862
 20
188.59514548378866
 10
160.29514548378862
 20
182.0048545162113
 10
153.70485451621136
 20
182.0048545162113
 10
153.7
 20
188.55085556902938
  0
LWPOLYLINE
  5
44
330
17
100
AcDbEntity
  8
CUT
100
AcDbPolyline
 90
64
 70
1
 10
154.56973656401792
 20
27.56319959200698
 10
154.59488847479014
 20
27.348779313426576
 10
154.59890240970228
 20
27.1329262087269
 10
154.5817397123667
 20
26.917719061301682
 10
154.54356566894054
 20
26.70523043362624
 10
154.4847479163307
 20
26.49750670734511
 10
154.4058529016472
 20
26.296548375493302
 10
154.30764042700957
 20
26.104290776661486
 10
154.19105633223847
 20
25.922585456627786
 10
154.05722338589626
 20
25.753182336951596
 10
153.90743047241818
 20
25.59771286228235
 10
153.7431201794444
 20
25.45767428864761
 10
153.5658749049191
 20
25.33441526406591
 10
153.37740161772797
 20
25.229122840323896
 10
153.1795154186541
 20
25.1428110410196
 10
152.97412205997352
 20
25.076311095964826
 10
152.76319959200697
 20
25.03026343598205
 10
152.54877931342656
 20
25.005111525209827
 10
152.3329262087269
 20
25.00109759029769
 10
152.11771906130167
 20
25.018260287633268
 10
151.90523043362623
 20
25.05643433105942
 10
151.6975067073451
 20
25.115252083669276
 10
151.49654837549303
 20
25.194147098352886
 10
151.30429077666147
 20
25.292359572990392
 10
151.12258545662777
 20
25.40894366776149
 10
150.95318233695158
 20
25.5427766141037
 10
150.79771286228234
 20
25.69256952758178
 10
150.6576742886476
 20
25.856879820555577
 10
150.5344152640659
 20
26.034125095080867
 10
150.42912284032388
 20
26.222598382271997
 10
150.3428110410196
 20
26.420484581345875
 10
150.27631109596442
 20
26.62587794002775
 10
150.23026343598204
 20
26.836800407992996
 10
150.20511152520982
 20
27.0512206865734
 10
150.20109759029768
 20
27.267073791273077
 10
150.21826028763326
 20
27.482280938698295
 10
150.2564343310594
 20
27.694769566373736
 10
150.31525208366926
 20
27.902493292654867
 10
150.39414709835276
 20
28.103451624506675
 10
150.49235957299038
 20
28.29570922333849
 10
150.60894366776148
 20
28.47741454337219
 10
150.7427766141037
 20
28.64681766304838
 10
150.89256952758177
 20
28.802287137717627
 10
151.05687982055557
 20
28.942325711352368
 10
151.23412509508086
 20
29.065584735934067
 10
151.42259838227199
 20
29.17087715967608
 10
151.62048458134586
 20
29.25718895898038
 10
151.82587794002774
 20
29.32368890403555
 10
152.03680040799298
 20
29.369736564017927
 10
152.2512206865734
 20
29.39488847479015
 10
152.46707379127307
 20
29.398902409702288
 10
152.68228093869828
 20
29.38173971236671
 10
152.89476956637372
 20
29.343565668940556
 10
153.10249329265486
 20
29.2847479163307
 10
153.30345162450692
 20
29.20585290164709
 10
153.49570922333848
 20
29.107640427009585
 10
153.67741454337218
 20
28.991056332238486
 10
153.84681766304837
 20
28.857223385896276
 10
154.00228713771762
 20
28.707430472418196
 10
154.14232571135236
 20
28.5431201794444
 10
154.26558473593406
 20
28.36587490491911
 10
154.37087715967607
 20
28.17740161772798
 10
154.45718895898037
 20
27.979515418654103
 10
154.52368890403554
 20
27.77412205997223
  0
LWPOLYLINE
  5
45
330
17
100
AcDbEntity
  8
CUT
100
AcDbPolyline
 90
66
 70
1
 10
148.28365502220504
 20
110.74870557749757
 10
148.2700697627476
 20
111.42647411793163
 10
148.3094995687728
 20
111.99551409861266
 10
148.39743533288942
 20
112.55685757724287
 10
148.55760612870475
 20
113.18363866478873
 10
148.74927671171534
 20
113.7163485246437
 10
149.02540126486977
 20
114.30878102797342
 10
149.3491576743367
 20
114.86299918695582
 10
149.72531944323623
 20
115.38714806329918
 10
150.1515802294526
 20
115.87681676777977
 10
150.62297802779975
 20
116.32622440752618
 10
151.060561665336
 20
116.67476856450078
 10
151.59618702297715
 20
117.0283432586429
 10
152.17272386900976
 20
117.33488212250222
 10
152.6989697426392
 20
117.5569564732494
 10
153.23708786074698
 20
117.728257185263
 10
153.86514807997094
 20
117.8624726811062
 10
153.8651396555099
 20
115.30911642624864
 10
153.54328908648768
 20
115.2023244954127
 10
153.2678641662044
 20
115.08419702136423
 10
152.97245351816895
 20
114.92860685395749
 10
152.6861820799433
 20
114.745055866964
 10
152.42332893487307
 20
114.54278974711217
 10
152.17336633617447
 20
114.31438929867586
 10
151.9411544499967
 20
114.0636837182654
 10
151.7351717832202
 20
113.80058839101171
 10
151.54796946647224
 20
113.5154891903418
 10
151.38543950517766
 20
113.21679638565695
 10
151.2437631240188
 20
112.89752007227244
 10
151.14045425497363
 20
112.60638060157574
 10
151.04931831442045
 20
112.26701167457188
 10
150.98612694611006
 20
111.92211835827148
 10
150.95182063104755
 20
111.60401812677426
 10
150.93841121089636
 20
111.2377080677238
 10
150.95218453170725
 20
110.87331532642077
 10
150.98696874695898
 20
110.56413544992874
 10
151.05157862369737
 20
110.22540735713645
 10
151.13307798588812
 20
109.92803440137352
 10
151.24884650196802
 20
109.6085053514008
 10
151.39364851476668
 20
109.29218228361661
 10
151.5612930804799
 20
108.99231237380987
 10
151.74942845880597
 20
108.71206539320734
 10
151.9653481608991
 20
108.44146720301038
 10
152.19839958827703
 20
108.19388828418037
 10
152.41972514919186
 20
107.9922127543537
 10
152.6843338547066
 20
107.78662476264788
 10
152.9684579444364
 20
107.60207502860779
 10
153.26326400168216
 20
107.44397393149926
 10
153.57471178130828
 20
107.30886409975886
 10
153.8651436929675
 20
107.21088887547509
 10
153.86512703256443
 20
104.64012986484867
 10
153.3249927480827
 20
104.74766240230751
 10
152.78424797332838
 20
104.90564154993874
 10
152.25986657538832
 20
105.11094931855882
 10
151.75892293304128
 20
105.35670012539785
 10
151.28494092123364
 20
105.63924837682457
 10
150.8379210693729
 20
105.95859949782984
 10
150.4178661451802
 20
106.31475815451306
 10
150.02255750053826
 20
106.71025647812527
 10
149.61395181249412
 20
107.19902073154411
 10
149.30058972633947
 20
107.65044523837899
 10
149.02401149110548
 20
108.12887115249012
 10
148.7842500155093
 20
108.63423997938135
 10
148.5865936077203
 20
109.16124312318688
 10
148.43632398570244
 20
109.70468205957096
 10
148.33347599144616
 20
110.26450002907518
  0
LWPOLYLINE
  5
46
330
17
100
AcDbEntity
  8
CUT
100
AcDbPolyline
 90
122
 70
1
 10
133.17234155249713
 20
47.10356886101749
 10
133.71110078297428
 20
47.19966562749684
 10
134.1270465924147
 20
47.29999720632628
 10
134.52242508199953
 20
47.41810809929265
 10
135.0603684952326
 20
47.61738860484715
 10
135.44297563942789
 20
47.78868443517342
 10
135.8045416654017
 20
47.97542276585304
 10
136.29488509296746
 20
48.270845761874455
 10
136.6484933145537
 20
48.51714892684575
 10
137.10651650223838
 20
48.882552193235
 10
137.42685842548357
 20
49.171806572418035
 10
137.85553291220475
 20
49.60675598551592
 10
138.1472775712878
 20
49.938164521668995
 10
138.5386648730681
 20
50.43521974089242
 10
138.80204413893622
 20
50.808424535420556
 10
139.15607696577442
 20
51.36813389805161
 10
139.39121407933573
 20
51.782628193909545
 10
139.7076689280351
 20
52.405389989157726
 10
139.91481672822232
 20
52.860824718135575
 10
140.19339966686152
 20
53.54687898615066
 10
140.37285944923863
 20
54.04305761621285
 10
140.61252893013904
 20
54.79126118694148
 10
140.76280678207334
 20
55.32594263209154
 10
140.89913250465986
 20
55.86900942905416
 10
141.07746700326786
 20
56.692635378480304
 10
141.27995801633907
 20
57.87273027323181
 10
141.39777408303343
 20
58.77602946980542
 10
141.46372841808133
 20
59.41543631681128
 10
141.5738193150825
 20
61.04829284539434
 10
141.61055999657071
 20
62.77336476535339
 10
141.58681719169473
 20
64.1706245029992
 10
141.4916553913042
 20
65.81535591671181
 10
141.3612843838513
 20
67.07996552256805
 10
141.18373901543762
 20
68.28116203048927
 10
141.07746700326808
 20
68.85784750852372
 10
140.8991325046599
 20
69.68147345795094
 10
140.61561100576517
 20
70.74887704265703
 10
140.4531709916364
 20
71.26887377539501
 10
140.19913047929225
 20
71.98847676114735
 10
139.81008441793992
 20
72.92513053974344
 10
139.50117949096997
 20
73.56053634932846
 10
139.1663174925612
 20
74.16505835131542
 10
138.9170063772363
 20
74.56804211987867
 10
138.54801164330692
 20
75.10263290474299
 10
138.1514848113715
 20
75.60726063031487
 10
137.85553291220566
 20
75.9437269014883
 10
137.42685842548119
 20
76.37867631458951
 10
136.9693674660814
 20
76.7831761152711
 10
136.62648207145656
 20
77.04953673690649
 10
136.13236958659445
 20
77.3832854552682
 10
135.6285747713741
 20
77.66905271620152
 10
135.24375655284123
 20
77.85419450877194
 10
134.71278000460768
 20
78.06714640590535
 10
134.30340977219376
 20
78.20060725578406
 10
133.72963042854735
 20
78.34688087196722
 10
133.1630647589281
 20
78.44861765839671
 10
133.17261953428036
 20
81.02883364938576
 10
134.07930052474558
 20
80.98355720892174
 10
135.373691849355
 20
80.87526100686786
 10
136.22259883862336
 20
80.77425986277294
 10
137.448336887397
 20
80.58279974939924
 10
138.2521785456861
 20
80.42557177322101
 10
139.40930380793267
 20
80.15105031838702
 10
140.5313220246529
 20
79.82514187896462
 10
141.26288844289533
 20
79.577746879349
 10
142.31042232678732
 20
79.17052698804562
 10
142.99026184203873
 20
78.86966825044152
 10
143.97127749714005
 20
78.3800590725767
 10
144.6037287068366
 20
78.0259293320336
 10
145.49163225885724
 20
77.47013385008451
 10
146.0708669078416
 20
77.06545570720712
 10
146.8784959736976
 20
76.436393178918
 10
147.63989590656072
 20
75.76171311085338
 10
148.1292540115229
 20
75.27834345043544
 10
148.80381393896383
 20
74.53523316532463
 10
149.23444127341415
 20
74.0054291637569
 10
149.8288341188792
 20
73.18679923364431
 10
150.37041094919798
 20
72.32975399892828
 10
150.70766421145368
 20
71.72393575969306
 10
151.15567467698386
 20
70.80105079644824
 10
151.4279380404329
 20
70.15149100149799
 10
151.78082925036196
 20
69.16325668773075
 10
151.98809693524674
 20
68.47024552607397
 10
152.16817015553522
 20
67.7636054178192
 10
152.38756348207522
 20
66.68360332485312
 10
152.5038153162834
 20
65.93023992419646
 10
152.62788708290185
 20
64.78442790585089
 10
152.6794598078836
 20
63.988075839010804
 10
152.70805556232196
 20
62.77636533006506
 10
152.6792876286018
 20
61.56848928292629
 10
152.62754453739268
 20
60.77760109847614
 10
152.50326445737983
 20
59.63862136251663
 10
152.3208047565418
 20
58.530650435803636
 10
152.0807098503069
 20
57.46013800691702
 10
151.88664873332073
 20
56.760698383328474
 10
151.55112042910773
 20
55.75550862528965
 10
151.1590311168915
 20
54.789340890993316
 10
150.7091690543155
 20
53.85907997107526
 10
150.37047469440384
 20
53.24761075683185
 10
149.8261202769984
 20
52.381318491593476
 10
149.23244874989322
 20
51.55941400415546
 10
148.58806195242704
 20
50.779744676381824
 10
148.12130261450193
 20
50.274293818117826
 10
147.3932364889211
 20
49.56774103624582
 10
146.61648520624138
 20
48.905643423488556
 10
146.06837837817758
 20
48.48639870357604
 10
145.50050446294776
 20
48.088340787101174
 10
144.59347852791763
 20
47.51934790869757
 10
143.97369909871185
 20
47.17200887002531
 10
143.32524820327552
 20
46.84042140223778
 10
142.65505908772292
 20
46.528681450762775
 10
141.96613408634502
 20
46.2388629417554
 10
141.2590137081707
 20
45.971335074314595
 10
140.53369847777566
 20
45.72609841684539
 10
139.40558014209932
 20
45.39846364763588
 10
138.64081169644524
 20
45.21053359343878
 10
137.85181904287708
 20
45.04331913230976
 10
137.0446341289457
 20
44.89839716852035
 10
136.2192574745561
 20
44.775767744938605
 10
135.37568955444763
 20
44.675430839805415
 10
134.51393079346175
 20
44.59738637900213
 10
133.16308313982356
 20
44.52167174140311
  0
LWPOLYLINE
  5
47
330
17
100
AcDbEntity
  8
CUT
100
AcDbPolyline
 90
5
 70
1
 10
144.51430941438122
 20
179.3967064937942
 10
151.0951454837886
 20
179.39514548378867
 10
151.0951454837886
 20
172.80485451621132
 10
144.50485451621134
 20
172.80485451621132
 10
144.49999999999997
 20
179.3508555690294
  0
LWPOLYLINE
  5
48
330
17
100
AcDbEntity
  8
CUT
100
AcDbPolyline
 90
5
 70
1
 10
144.51430941438122
 20
188.5967064937942
 10
151.0951454837886
 20
188.59514548378866
 10
151.0951454837886
 20
182.0048545162113
 10
144.50485451621134
 20
182.0048545162113
 10
144.49999999999997
 20
188.55085556902938
  0
LWPOLYLINE
  5
49
330
17
100
AcDbEntity
  8
CUT
100
AcDbPolyline
 90
161
 70
1
 10
108.08326840222314
 20
27.2052011447891
 10
109.63860778547041
 20
28.159337602107314
 10
110.30347744743887
 20
28.521461077069404
 10
110.75613000653776
 20
28.73930194556121
 10
111.41690304835276
 20
29.003552363158605
 10
111.86217014894376
 20
29.139054258384135
 10
112.30747911088201
 20
29.235497197512416
 10
112.7529506503723
 20
29.289251922935506
 10
113.19871912120293
 20
29.297164092150723
 10
113.64488367537098
 20
29.256606116447273
 10
113.88428520444467
 20
29.214163852475338
 10
114.31487933427819
 20
29.10061987261028
 10
114.55274507343218
 20
29.017137517556193
 10
114.98544953794787
 20
28.82704547849025
 10
115.43254031930049
 20
28.578577128326458
 10
115.8038146458391
 20
28.33694534933025
 10
115.91676147458992
 20
28.29200833389453
 10
116.03644758409654
 20
28.27075847101719
 10
116.40736347742758
 20
28.299999999999983
 10
124.28185288927368
 20
28.299999999999983
 10
124.39782447554609
 20
28.31131452270546
 10
124.50942218466491
 20
28.344831362741758
 10
124.67440901744796
 20
28.446238293558338
 10
124.75471215021513
 20
28.53067071691791
 10
124.81718136016755
 20
28.62903242214162
 10
124.87560935125528
 20
28.813667712557248
 10
124.88109938683967
 20
28.93006052486055
 10
124.8639887954144
 20
29.045319602193615
 10
124.80725369512346
 20
29.189748154804107
 10
124.64641196893247
 20
29.46143256948892
 10
124.44296657908767
 20
29.86117325399158
 10
124.2641166927562
 20
30.276088108173553
 10
124.1000500044088
 20
30.71919537753567
 10
123.81449695544441
 20
31.653146267283915
 10
123.44601624898162
 20
33.10420223664843
 10
125.15158655700802
 20
32.727350035529724
 10
125.84641790462581
 20
32.535637353772074
 10
126.2935101171823
 20
32.38797590034932
 10
126.7307680683754
 20
32.21724764296317
 10
127.13868273155562
 20
32.02643551781489
 10
127.52177230690731
 20
31.80992484647186
 10
127.86560260335591
 20
31.574044351646137
 10
128.19151985134746
 20
31.300659833537935
 10
128.4864534714299
 20
30.994680667637653
 10
128.63192730574397
 20
30.815772588413495
 10
128.8675557161088
 20
30.471122535876333
 10
129.07920235858995
 20
30.077534512794358
 10
129.25615993941247
 20
29.647766104669785
 10
129.39811143393467
 20
29.18173929869988
 10
129.49261318819904
 20
28.74964138536805
 10
129.53344067556506
 20
28.638522443667455
 10
129.59529068017684
 20
28.537582462199225
 10
129.70619094972008
 20
28.425544960623654
 10
129.80649468611284
 20
28.362668387920223
 10
129.91719132414062
 20
28.320709392953347
 10
130.07346797814742
 20
28.299999999999983
 10
144.50046424656577
 20
28.29506450805175
 10
144.71926067218564
 20
28.252461389684385
 10
144.90522139558044
 20
28.176410923834652
 10
145.0977179376044
 20
28.050171766836485
 10
145.24041999049496
 20
27.90874621008672
 10
145.31840215748534
 20
27.80481139106243
 10
145.41874816659333
 20
27.61401873713089
 10
145.47868651853338
 20
27.414564089062196
 10
145.4992772737231
 20
27.185288568669222
 10
145.47528491127372
 20
26.971112887381253
 10
145.42122959478442
 20
26.792916390071667
 10
145.3625410823879
 20
26.668829956180303
 10
145.25017176683647
 20
26.50228206239558
 10
145.1087462100867
 20
26.35958000950501
 10
144.9311700438199
 20
26.2374589176122
 10
144.81401873713088
 20
26.181251833406634
 10
144.6073155753137
 20
26.120055745019698
 10
144.39263652257236
 20
26.099999999999994
 10
138.75346797814734
 20
26.099999999999966
 10
138.63566342151395
 20
26.08832141422556
 10
138.52244483361142
 20
26.053740288121332
 10
138.41821965774
 20
25.997602817178546
 10
138.32704523608723
 20
25.92209435562907
 10
138.213440675565
 20
25.761477556332522
 10
138.17261318819897
 20
25.650358614631926
 10
138.07811143393474
 20
25.21826070130072
 10
137.93615993941256
 20
24.752233895330846
 10
137.75920235858985
 20
24.322465487205704
 10
137.5475557161082
 20
23.928877464123076
 10
137.31192730574375
 20
23.58422741158654
 10
137.16645347142904
 20
23.405319332361643
 10
136.87151985134773
 20
23.099340166462582
 10
136.54560260335649
 20
22.825955648354523
 10
136.20177230690732
 20
22.590075153528403
 10
135.8186827315557
 20
22.37356448218543
 10
135.41076806837623
 20
22.182752357037458
 10
134.97351011718297
 20
22.01202409965117
 10
134.52641790462573
 20
21.864362646228187
 10
133.83158655700902
 20
21.67264996447085
 10
132.12601948806972
 20
21.29579440917763
 10
132.49448983346622
 20
22.746827895517328
 10
132.78005000440888
 20
23.68080462246533
 10
132.94411669275559
 20
24.123911891825713
 10
133.1229665790874
 20
24.538826746008397
 10
133.32641196893215
 20
24.938567430511
 10
133.4872536951232
 20
25.210251845195927
 10
133.54398879541415
 20
25.35468039780642
 10
133.55995535333804
 20
25.547680630027713
 10
133.53946061632362
 20
25.662386309927626
 10
133.49718136016727
 20
25.770967577858414
 10
133.43471215021486
 20
25.869329283082095
 10
133.3544090174477
 20
25.953761706441668
 10
133.18942218466466
 20
26.055168637258248
 10
133.0778244755458
 20
26.088685477294547
 10
132.96185288927342
 20
26.100000000000023
 10
121.39346797814741
 20
26.099999999999994
 10
121.27566342151401
 20
26.08832141422559
 10
121.16244483361147
 20
26.05374028812136
 10
121.02619094972007
 20
25.974455039376323
 10
120.94018480092548
 20
25.8931085870947
 10
120.85344067556505
 20
25.761477556332522
 10
120.81261318819904
 20
25.650358614631926
 10
120.71811143393482
 20
25.21826070130072
 10
120.57615993941249
 20
24.752233895330278
 10
120.39920235858978
 20
24.322465487205307
 10
120.1875557161088
 20
23.928877464123644
 10
119.95192730574419
 20
23.584227411586824
 10
119.80645347142962
 20
23.405319332362012
 10
119.51151985134784
 20
23.09934016646241
 10
119.1856026033559
 20
22.82595564835384
 10
118.8417723069073
 20
22.59007515352812
 10
118.45868273155561
 20
22.37356448218509
 10
118.05076806837539
 20
22.182752357036804
 10
117.61351011718229
 20
22.01202409965066
 10
117.1664179046258
 20
21.864362646227903
 10
116.47158655700801
 20
21.672649964470253
 10
114.76601948807003
 20
21.29579440917729
 10
115.07108287701142
 20
22.511790633349023
 10
115.34408110916206
 20
23.45302221068343
 10
115.5841166927562
 20
24.123911891826424
 10
115.76296657908766
 20
24.538826746008397
 10
115.91835205166478
 20
24.85102718084474
 10
115.95593085209998
 20
24.96215133944807
 10
115.97115880704256
 20
25.117621191556168
 10
115.94573751193371
 20
25.27175270449635
 10
115.88139016095103
 20
25.4140980027951
 10
115.78247856886746
 20
25.535008144957516
 10
115.68956933367546
 20
25.606622521192207
 10
115.54746061376599
 20
25.671490674024994
 10
115.43248713286994
 20
25.694768207358436
 10
115.2763376206539
 20
25.69028542240497
 10
115.16288891369285
 20
25.66045027943042
 10
114.76189528400431
 20
25.46857333830289
 10
114.31487933427819
 20
25.299380127389696
 10
113.86812325838225
 20
25.182509562817074
 10
113.42174856549079
 20
25.116914275373716
 10
113.19871912120293
 20
25.102835907849254
 10
112.76832632065378
 20
25.109698558228075
 10
112.53018599337416
 20
25.132080606710787
 10
112.084812604487
 20
25.2076044581039
 10
111.65052628763047
 20
25.32072625086309
 10
111.20329779534296
 20
25.474138616395777
 10
110.75613000653776
 20
25.660698054438768
 10
110.30905213402771
 20
25.875701678236766
 10
109.41236458057632
 20
26.37273094108943
  0
LWPOLYLINE
  5
4A
330
17
100
AcDbEntity
  8
CUT
100
AcDbPolyline
 90
66
 70
1
 10
134.61879030262793
 20
117.8520608268312
 10
135.18231106126294
 20
117.72737264294184
 10
135.72374701320436
 20
117.55378673914339
 10
136.2438226813747
 20
117.33362151659418
 10
136.81773951947392
 20
117.02936021971595
 10
137.28600896582572
 20
116.72690517806193
 10
137.7327653763319
 20
116.38446179517513
 10
138.21368509734089
 20
115.94532626060384
 10
138.59881308683714
 20
115.52825296469992
 10
138.99355847927737
 20
115.01792193726533
 10
139.29397327424365
 20
114.5497321568542
 10
139.596931438487
 20
113.97145171657597
 10
139.8134547252238
 20
113.45116959856216
 10
139.98238639710712
 20
112.91702146424812
 10
140.1030854914051
 20
112.36976478726243
 10
140.17554472427705
 20
111.8093991945092
 10
140.19975766634866
 20
111.23591594019113
 10
140.1757235208869
 20
110.6488884458668
 10
140.10345877439144
 20
110.0782099151479
 10
139.98295838362537
 20
109.52385825001977
 10
139.81421504353557
 20
108.98583129743987
 10
139.5977670182148
 20
108.46462244519849
 10
139.33881785439135
 20
107.96367631942813
 10
138.99473404763805
 20
107.42304859896262
 10
138.6534909326306
 20
106.98103512711963
 10
138.27772712977588
 20
106.57032571747776
 10
137.80181169567763
 20
106.1333729700081
 10
137.3590815891988
 20
105.7925859799202
 10
136.81944749537394
 20
105.44779547165746
 10
136.24116271556247
 20
105.15016389941604
 10
135.72052618380218
 20
104.93732462090776
 10
135.17911984015262
 20
104.76986400363266
 10
134.60979013625987
 20
104.64901473544853
 10
134.6097823130047
 20
107.18416268413257
 10
134.9178615076646
 20
107.28313243301781
 10
135.19191228363087
 20
107.39733422899708
 10
135.48561476479685
 20
107.54899402977539
 10
135.76955959227863
 20
107.72867498117235
 10
136.02902385207727
 20
107.9269544155342
 10
136.2702985187096
 20
108.14685734074035
 10
136.49908802709197
 20
108.39395865975636
 10
136.71045244226605
 20
108.66301899476086
 10
136.89665775010167
 20
108.94384088193098
 10
137.06158786604198
 20
109.24096334781778
 10
137.2052560129211
 20
109.5543874644351
 10
137.3255231980343
 20
109.88263672342266
 10
137.41651873148456
 20
110.21504607094985
 10
137.48106247988642
 20
110.56020784366221
 10
137.51541671349815
 20
110.87311778007204
 10
137.52880917695538
 20
111.23209332219238
 10
137.51501859395526
 20
111.6038237197194
 10
137.48026650653125
 20
111.91824191731403
 10
137.41560310985955
 20
112.2627924208989
 10
137.33418229422102
 20
112.56422517080941
 10
137.21833361425487
 20
112.8880741391339
 10
137.07430847622126
 20
113.207849866921
 10
136.9060667909958
 20
113.5153552422104
 10
136.71914888091962
 20
113.80048015560254
 10
136.51100110319052
 20
114.06838459837368
 10
136.28170643661988
 20
114.31885575881817
 10
136.03939634893842
 20
114.54272571140902
 10
135.77892659647665
 20
114.74494256364453
 10
135.49408491840262
 20
114.92857334720928
 10
135.1993960073428
 20
115.08415261068146
 10
134.92393163597043
 20
115.20232449541236
 10
134.60977379446638
 20
115.30693876598455
  0
LWPOLYLINE
  5
4B
330
17
100
AcDbEntity
  8
CUT
100
AcDbPolyline
 90
66
 70
1
 10
126.82007917337839
 20
110.84069427160621
 10
126.81209255477035
 20
111.42647411792943
 10
126.8521299994144
 20
112.0008432727875
 10
126.95745407762867
 20
112.64288962351783
 10
127.10126750114533
 20
113.18888215245619
 10
127.29129950373864
 20
113.71634852464496
 10
127.5674240568919
 20
114.30878102797217
 10
127.89118046635826
 20
114.86299918695387
 10
128.27046936222303
 20
115.39108581254017
 10
128.693603021474
 20
115.87681676777828
 10
129.16500081982207
 20
116.32622440752577
 10
129.60258445735533
 20
116.67476856449828
 10
130.13820981499785
 20
117.02834325864167
 10
130.7147466610333
 20
117.33488212250258
 10
131.24099253466048
 20
117.55695647324885
 10
131.77911065277073
 20
117.72825718526326
 10
132.4071708719937
 20
117.86247268110621
 10
132.40716244753267
 20
115.30911642624864
 10
132.085311878511
 20
115.20232449541291
 10
131.80988695822649
 20
115.0841970213639
 10
131.5144763101932
 20
114.92860685395837
 10
131.22820487196532
 20
114.74505586696343
 10
130.96535172689585
 20
114.54278974711218
 10
130.71538912819724
 20
114.31438929867582
 10
130.48317724201797
 20
114.06368371826363
 10
130.2771945752441
 20
113.80058839101326
 10
130.08999225849504
 20
113.51548919034188
 10
129.92746229719924
 20
113.21679638565448
 10
129.78578591604165
 20
112.89752007227257
 10
129.6824770469959
 20
112.60638060157407
 10
129.59134110644425
 20
112.26701167457638
 10
129.52814973813236
 20
111.92211835826805
 10
129.49384342307033
 20
111.60401812677424
 10
129.48043400291914
 20
111.23770806772028
 10
129.49420732373005
 20
110.87331532642054
 10
129.5289915389821
 20
110.56413544992652
 10
129.59360141572037
 20
110.22540735713545
 10
129.67510077791093
 20
109.92803440137352
 10
129.790869293991
 20
109.6085053514004
 10
129.93567130678906
 20
109.29218228361744
 10
130.1033158725027
 20
108.99231237380987
 10
130.29145125083127
 20
108.71206539320389
 10
130.5073709529222
 20
108.44146720301003
 10
130.74042238030057
 20
108.19388828417964
 10
130.96174794121464
 20
107.99221275435374
 10
131.22635664673058
 20
107.78662476264704
 10
131.51048073645921
 20
107.60207502860779
 10
131.80528679370497
 20
107.44397393149926
 10
132.11673457333106
 20
107.30886409975886
 10
132.40716648499028
 20
107.21088887547513
 10
132.4071498245872
 20
104.64012986484867
 10
131.86701554010472
 20
104.7476624023077
 10
131.32627076535115
 20
104.90564154993874
 10
130.80188936741203
 20
105.11094931855841
 10
130.29647014282733
 20
105.35913501052801
 10
129.8269637132532
 20
105.63924837682669
 10
129.37585779134622
 20
105.96179392817261
 10
128.95612430482754
 20
106.31823802484101
 10
128.50611584898738
 20
106.77459488317304
 10
128.15597460451548
 20
107.199020731546
 10
127.83985151957674
 20
107.65481327340542
 10
127.5235144990089
 20
108.2112340163467
 10
127.29006066006367
 20
108.72088905436055
 10
127.10027860564587
 20
109.25067881877193
 10
126.97712463583505
 20
109.71005321744785
 10
126.87549878346913
 20
110.264500029074
  0
LWPOLYLINE
  5
4C
330
17
100
AcDbEntity
  8
CUT
100
AcDbPolyline
 90
85
 70
1
 10
107.24729429965674
 20
155.02284914808047
 10
121.51541487427941
 20
155.0228508352684
 10
121.51541656146733
 20
154.62675256001694
 10
120.77533189747359
 20
154.61700991092445
 10
120.51600965377474
 20
154.58270823476306
 10
120.29294703602169
 20
154.53032109328515
 10
120.0343818063029
 20
154.43952056884382
 10
119.79965503703846
 20
154.32524086300296
 10
119.56460752148111
 20
154.17566311605103
 10
119.34747373117749
 20
154.00107708982972
 10
119.17017702073251
 20
153.82836325612757
 10
118.99873505255734
 20
153.6293678694413
 10
118.75342597971499
 20
153.25404487000236
 10
118.64807444496203
 20
153.03084606976932
 10
118.57091877447255
 20
152.81610198804174
 10
118.50736034379034
 20
152.56490493971432
 10
118.47279742635034
 20
152.34570011093402
 10
118.45551670759801
 20
152.0953213615299
 10
118.45551670759801
 20
129.98696201307501
 10
118.48961734864376
 20
129.75486025059186
 10
118.59335550563326
 20
129.54450007788512
 10
118.726190791507
 20
129.40080307270898
 10
118.90061297681875
 20
129.29234038795968
 10
119.12716944824385
 20
129.23163476440115
 10
123.61208349314738
 20
129.23143507650582
 10
124.02140222057946
 20
129.25475311755193
 10
124.41743428725671
 20
129.29746412705072
 10
124.80750518405686
 20
129.35980079639387
 10
125.19668357071903
 20
129.44299977063883
 10
125.6819885920125
 20
129.57763168187313
 10
126.05245421227194
 20
129.70472250195002
 10
126.42180252474894
 20
129.85350564192146
 10
126.78035068478036
 20
130.02012172926538
 10
127.14302980534492
 20
130.21198440173663
 10
127.58242975929258
 20
130.4779801174813
 10
127.91623818977205
 20
130.70700565351228
 10
128.24574224091293
 20
130.9582762168581
 10
128.6447217280334
 20
131.299481899649
 10
128.9508394300554
 20
131.59172370139794
 10
129.3251239521894
 20
131.98949763314806
 10
129.603465832353
 20
132.31750991054918
 10
129.95158467735564
 20
132.77272525317056
 10
130.20781739793324
 20
133.14877639257992
 10
130.51170493063532
 20
133.651672295153
 10
130.78929522227332
 20
134.17938025123433
 10
131.04261085952865
 20
134.73595047531018
 10
131.22186643608356
 20
135.1869565556072
 10
131.4278653997513
 20
135.78488205587146
 10
131.61260610305985
 20
136.42081906301667
 10
132.0087195549709
 20
136.4208098726417
 10
130.49857657245275
 20
127.2006668120585
 10
107.24729598684469
 20
127.20068959326987
 10
107.24729429965674
 20
127.5967878685213
 10
107.97531594299721
 20
127.60558085383589
 10
108.20708531387326
 20
127.6338188537818
 10
108.45710681345452
 20
127.68963318504105
 10
108.71603704269221
 20
127.77890972521823
 10
108.95540881789094
 20
127.89407856471169
 10
109.15795830065771
 20
128.0196318345999
 10
109.38161063533393
 20
128.19290898596793
 10
109.574729522878
 20
128.3764814236235
 10
109.7315936695052
 20
128.55357720345398
 10
109.88755688927989
 20
128.7655205836752
 10
110.00536797623063
 20
128.9621478917469
 10
110.11463641616194
 20
129.19269435876868
 10
110.18809282803693
 20
129.3955396906092
 10
110.24674574315593
 20
129.6174023822258
 10
110.28899045288254
 20
129.87019104820055
 10
110.30719415352608
 20
130.12821906700816
 10
110.30719415352608
 20
152.09532136153013
 10
110.28991343477367
 20
152.34570011093456
 10
110.24503516058415
 20
152.61406659811036
 10
110.17313943884362
 20
152.87403503914283
 10
110.08746348835227
 20
153.09423649799518
 10
109.9653953627124
 20
153.3327627737375
 10
109.82341150562934
 20
153.55053903248154
 10
109.67284973428836
 20
153.73974361944605
 10
109.4832990801486
 20
153.93825064962607
 10
109.25498449348684
 20
154.13354690183195
 10
109.02294321477228
 20
154.29067863777487
 10
108.7789100104723
 20
154.41760984170543
 10
108.52295461410756
 20
154.5144061208131
 10
108.26768023021206
 20
154.5787473625876
 10
107.99541696327827
 20
154.61632271521876
 10
107.24729598684468
 20
154.626750872829
  0
LWPOLYLINE
  5
4D
330
17
100
AcDbEntity
  8
CUT
100
AcDbPolyline
 90
122
 70
1
 10
128.69694522282364
 20
80.91731996032942
 10
129.56684803702436
 20
80.98406687632678
 10
130.52415071108487
 20
81.03034414697684
 10
130.5241738784683
 20
78.45321014015869
 10
129.9347328503271
 20
78.34685682464752
 10
129.36774614391666
 20
78.20065729665114
 10
128.96219326818226
 20
78.0671039524191
 10
128.43595441617848
 20
77.8542138128735
 10
128.05384875420262
 20
77.66906022417514
 10
127.55278848965078
 20
77.38326738832745
 10
127.20215995919273
 20
77.15132511800813
 10
126.73277683155568
 20
76.7952727496359
 10
126.40743966522892
 20
76.51473362535054
 10
125.96461158606667
 20
76.08459959528619
 10
125.55085759905825
 20
75.62488129060984
 10
125.26659264943184
 20
75.27160329235836
 10
124.88547645282131
 20
74.74205835158406
 10
124.53144362598468
 20
74.1823489889556
 10
124.29369830859937
 20
73.76299513547542
 10
123.97427771666446
 20
73.13341893387545
 10
123.67863490020888
 20
72.4682394804135
 10
123.40487855002809
 20
71.76280635779653
 10
123.229541779645
 20
71.25423557279373
 10
122.99971495979145
 20
70.49874453752639
 10
122.8545550571125
 20
69.95285923023727
 10
122.66682195972805
 20
69.13688942621283
 10
122.55312682220391
 20
68.5587826747213
 10
122.40880451777406
 20
67.6862306578337
 10
122.32522801016405
 20
67.07181925274273
 10
122.22406844869799
 20
66.1381126081167
 10
122.1135865979287
 20
64.49942611808893
 10
122.08288720235957
 20
63.47994138304449
 10
122.07840214237159
 20
62.42645569310076
 10
122.12974153879922
 20
60.716499151368936
 10
122.22406844869771
 20
59.41237027889164
 10
122.36536753296804
 20
58.1705135876542
 10
122.55377730968176
 20
56.98810410865963
 10
122.78929284140939
 20
55.86513720830558
 10
123.07190958599294
 20
54.80160584434756
 10
123.40102472202517
 20
53.79828640816473
 10
123.77270386353541
 20
52.86082471813597
 10
124.18634110078828
 20
51.98994653767613
 10
124.52120309919795
 20
51.38542453568772
 10
124.76725197650026
 20
50.987434136053054
 10
125.13580730314983
 20
50.452929472107144
 10
125.41013737881066
 20
50.09632515789593
 10
125.81598377323377
 20
49.62415033890548
 10
126.11867682394359
 20
49.30947072465756
 10
126.56165498546942
 20
48.899216708504014
 10
126.89230776662212
 20
48.627984333692325
 10
127.22448677851887
 20
48.38355770894094
 10
127.71321267354826
 20
48.07009436737255
 10
128.07873176918443
 20
47.86853365618083
 10
128.5994090407673
 20
47.62506611443757
 10
128.98839098862342
 20
47.47397735897877
 10
129.54194309951004
 20
47.30002090617998
 10
129.95338282543716
 20
47.19961543685338
 10
130.52416992129824
 20
47.097277355025994
 10
130.52415220410035
 20
44.52014018765513
 10
129.56377127477137
 20
44.566603726349996
 10
128.68860200963604
 20
44.6339193037721
 10
127.42331954214883
 20
44.77549128458807
 10
126.5938223328786
 20
44.89897555228626
 10
125.39815188234451
 20
45.12366689078499
 10
124.62036265284415
 20
45.30193762452845
 10
123.48826039717066
 20
45.61113020906956
 10
122.75029270111072
 20
45.84726392263548
 10
121.69363564477014
 20
46.23788387326337
 10
121.00805825460417
 20
46.527587966031916
 10
120.33511740199083
 20
46.84227480074608
 10
119.38194062782006
 20
47.343227163353475
 10
118.47533209868367
 20
47.88841207103485
 10
117.89001427659686
 20
48.28147236345163
 10
117.06901705982634
 20
48.89611531054783
 10
116.53896805083204
 20
49.33806337511794
 10
115.80023611720355
 20
50.02396374340012
 10
115.32570044916784
 20
50.51471124572993
 10
114.66900311328587
 20
51.272018518714106
 10
114.2501990390804
 20
51.811391822207554
 10
113.67536071813088
 20
52.64032606862784
 10
113.31280491800925
 20
53.2280312157925
 10
112.97830386552059
 20
53.82953101369941
 10
112.53184591477424
 20
54.74943209055667
 10
112.25958255132522
 20
55.398991885506746
 10
112.01528755186322
 20
56.06143756787276
 10
111.70147547629745
 20
57.07288275135386
 10
111.51935043622345
 20
57.786877469182826
 10
111.29995710968286
 20
58.866879562151155
 10
111.18460912837214
 20
59.613481105092234
 10
111.09424772600961
 20
60.38404943723995
 10
111.00834742961364
 20
61.55621728945792
 10
110.98260298271643
 20
62.36974860093048
 10
110.99223977410156
 20
63.58353161482219
 10
111.03105640272533
 20
64.38263358092794
 10
111.13624389332662
 20
65.53421320891866
 10
111.2397525116255
 20
66.2922132031268
 10
111.44034349470702
 20
67.38083181938731
 10
111.6086912638805
 20
68.09762923475412
 10
111.90427901819918
 20
69.12260709982672
 10
112.13751652106876
 20
69.79795070757945
 10
112.52848947486605
 20
70.7611419960111
 10
112.82669759574419
 20
71.39481113566586
 10
113.31283013829233
 20
72.2956813222292
 10
113.67534829372104
 20
72.88681969350165
 10
114.25020253624082
 20
73.720638257306
 10
114.66899951359521
 20
74.26298322483186
 10
115.32569959212925
 20
75.02420049847467
 10
115.80024395990334
 20
75.51728931073117
 10
116.54258734017463
 20
76.20929954808759
 10
117.33056897050298
 20
76.85496736925597
 10
117.89379244926876
 20
77.26907070597296
 10
118.47534017327455
 20
77.66051275332879
 10
119.37951195366516
 20
78.20537533821177
 10
120.33892632340637
 20
78.7100583396747
 10
121.01203709766898
 20
79.02464902093921
 10
122.04089506604598
 20
79.44816439193202
 10
122.75416732756797
 20
79.70454780373417
 10
123.49208053727179
 20
79.9404891069624
 10
124.61806910350525
 20
80.24797982329517
 10
125.40176273295558
 20
80.42757226388822
 10
126.59727916703783
 20
80.65208456075308
 10
127.84014948283625
 20
80.82766953940467
  0
LWPOLYLINE
  5
4E
330
17
100
AcDbEntity
  8
CUT
100
AcDbPolyline
 90
20
 70
1
 10
115.78665038184892
 20
117.80472182495528
 10
124.61717834003007
 20
117.80472351214321
 10
124.61718002721798
 20
115.31322689299343
 10
122.19036603644744
 20
115.3125356125356
 10
122.05360955668138
 20
115.30132416022838
 10
121.83150849779385
 20
115.2259310098909
 10
121.67170235635919
 20
115.11298837122096
 10
121.54140092122661
 20
114.95421561312266
 10
121.45164308915489
 20
114.7375210376058
 10
121.43054768316594
 20
114.5527172592541
 10
121.42985808989606
 20
104.70069128045779
 10
118.84933013171491
 20
104.70068959326987
 10
118.8486388512571
 20
114.55271725925427
 10
118.82754344526803
 20
114.7375210376063
 10
118.73778561319627
 20
114.95421561312293
 10
118.60748417806391
 20
115.11298837122091
 10
118.44767803662931
 20
115.22593100989084
 10
118.22557697774171
 20
115.30132416022838
 10
118.0888204979756
 20
115.3125356125356
 10
115.78665206903685
 20
115.31322520580548
  0
LWPOLYLINE
  5
4F
330
17
100
AcDbEntity
  8
CUT
100
AcDbPolyline
 90
205
 70
1
 10
54.419324993158696
 20
111.21537645748919
 10
55.41008847465283
 20
111.82536451095007
 10
56.1583111645831
 20
112.26535177109429
 10
56.90195504514096
 20
112.66398157362184
 10
57.399901580356435
 20
112.90005751142085
 10
57.90671296677814
 20
113.10843779004536
 10
58.406420543096424
 20
113.27720001110056
 10
58.906119475926786
 20
113.40473392034653
 10
59.40570585475424
 20
113.48673988543749
 10
59.905051762221575
 20
113.5195151133237
 10
60.40404449870628
 20
113.5000408848114
 10
60.90263573027244
 20
113.42602216808454
 10
61.385929009142714
 20
113.30059614708405
 10
61.64988720096733
 20
113.20941494231397
 10
62.14782256997219
 20
112.99339555944535
 10
62.64575961336119
 20
112.71957528920612
 10
63.19802646579017
 20
112.35443002893305
 10
63.38644188510715
 20
112.29029644249648
 10
63.50598910130544
 20
112.28293795191183
 10
63.793324266007076
 20
112.3101981240581
 10
65.22319792220487
 20
112.311514852063
 10
65.3786398420557
 20
112.34282824875854
 10
65.52045089890014
 20
112.41376726070676
 10
65.66360555124541
 20
112.5503794678935
 10
65.75453721671016
 20
112.7261281004809
 10
65.78335552334991
 20
112.9218974924781
 10
65.75934250980053
 20
113.07863323964447
 10
65.69511002131013
 20
113.22360532896464
 10
65.48112703302569
 20
113.54750197268548
 10
65.23873719661648
 20
113.9789064720618
 10
65.02528684519929
 20
114.42876219939608
 10
64.82705983992722
 20
114.91762914849231
 10
64.65104908505216
 20
115.41806180381501
 10
64.41510561060558
 20
116.19395079305554
 10
63.99264721271262
 20
117.80904902412091
 10
65.88747595301162
 20
117.37628797563845
 10
66.66042873214836
 20
117.15747079987939
 10
67.15771289901014
 20
116.98979090589512
 10
67.64316568911693
 20
116.79709780810158
 10
68.09718742182397
 20
116.58208323386607
 10
68.52392014114837
 20
116.33882250182857
 10
68.90887402772773
 20
116.07326080277606
 10
69.27277079318094
 20
115.76720529723333
 10
69.60253561800063
 20
115.42531395006691
 10
69.89651805405701
 20
115.04579192828237
 10
70.03804904755926
 20
114.82783046350566
 10
70.27430450653759
 20
114.38963187416623
 10
70.47247785624914
 20
113.91222973623252
 10
70.62914445257678
 20
113.40766521137013
 10
70.764069834794
 20
112.7797688937978
 10
70.7999831749828
 20
112.66980791605951
 10
70.85633027612232
 20
112.56878223208834
 10
70.95952556914091
 20
112.45440550997006
 10
71.08844270893036
 20
112.37007476746045
 10
71.19694676376511
 20
112.32997420994452
 10
71.34972179278074
 20
112.3101981240581
 10
83.37013626354508
 20
112.3101981240581
 10
83.52731044019923
 20
112.3311503901077
 10
83.63856577598852
 20
112.37359249899498
 10
83.73924865577317
 20
112.43716953939999
 10
83.82539354943222
 20
112.51937744440224
 10
83.89360752490711
 20
112.6169783455164
 10
83.96051893079624
 20
112.80320136611932
 10
83.97002219001658
 20
112.9218974924781
 10
83.9558981382617
 20
113.04013282353618
 10
83.90140577484496
 20
113.18903984683858
 10
83.66779369969235
 20
113.54750197268548
 10
83.42540386328315
 20
113.9789064720618
 10
83.21195351186596
 20
114.42876219939608
 10
83.01372650659388
 20
114.91762914849231
 10
82.83771575171883
 20
115.41806180381501
 10
82.60177227727168
 20
116.19395079305752
 10
82.17931387937928
 20
117.80904902412091
 10
84.07414261967828
 20
117.37628797563845
 10
84.84709539881503
 20
117.15747079987939
 10
85.3443795656768
 20
116.98979090589512
 10
85.8298323557836
 20
116.79709780810158
 10
86.28385408849064
 20
116.58208323386607
 10
86.71058680781503
 20
116.33882250182857
 10
87.0955406943944
 20
116.07326080277606
 10
87.4594374598476
 20
115.76720529723333
 10
87.7892022846673
 20
115.42531395006691
 10
88.08318472072368
 20
115.04579192828237
 10
88.22471571422592
 20
114.82783046350566
 10
88.46097117320426
 20
114.38963187416623
 10
88.65914452291581
 20
113.91222973623252
 10
88.81581111924345
 20
113.40766521137013
 10
88.95073650146068
 20
112.77976889379777
 10
88.98664984164947
 20
112.6698079160595
 10
89.042996942789
 20
112.56878223208832
 10
89.14619223580759
 20
112.45440550997006
 10
89.27510937559703
 20
112.37007476746047
 10
89.38361343043178
 20
112.32997420994454
 10
89.5363884594474
 20
112.31019812405812
 10
107.88642503514451
 20
112.30526263210989
 10
108.09098617515808
 20
112.26641139053332
 10
108.30441198789333
 20
112.18015209590958
 10
108.48367872618343
 20
112.06036989089462
 10
108.63132727807292
 20
111.91348671352443
 10
108.75591476043053
 20
111.72864932337237
 10
108.83363304886248
 20
111.54337943471113
 10
108.8659050435592
 20
111.41751369937286
 10
108.88523806230215
 20
111.19548669272707
 10
108.86124569985282
 20
110.9813110114395
 10
108.79593074128988
 20
110.77593133352816
 10
108.69180320384197
 20
110.5872402848374
 10
108.5687232570895
 20
110.43783664163934
 10
108.4089186277998
 20
110.30435570879523
 10
108.29118218415917
 20
110.23378720022329
 10
108.1052214607648
 20
110.15773673437374
 10
107.89376192504716
 20
110.11567481751914
 10
98.62972179278077
 20
110.1101981240581
 10
98.51458344072834
 20
110.09904713686755
 10
98.4037247763055
 20
110.06600865701361
 10
98.30126641133539
 20
110.0123107233818
 10
98.21101671886919
 20
109.93994928587239
 10
98.13633027612235
 20
109.85161401602791
 10
98.07998317498281
 20
109.75058833205672
 10
98.04406983479402
 20
109.64062735431845
 10
97.90914445257678
 20
109.01273103674609
 10
97.75247785624914
 20
108.5081665118837
 10
97.55430450653759
 20
108.03076437394999
 10
97.31804904755926
 20
107.59256578461056
 10
97.17651805405701
 20
107.37460431983385
 10
96.88253561800063
 20
106.99508229804931
 10
96.5642172966859
 20
106.66390356398806
 10
96.20044373603474
 20
106.35595491458349
 10
95.80392014114837
 20
106.08157374628765
 10
95.37718742182398
 20
105.83831301425015
 10
94.92316568911693
 20
105.62329844001464
 10
94.43771289901014
 20
105.4306053422211
 10
93.94042873214836
 20
105.26292544823683
 10
93.16747595301162
 20
105.04410827247777
 10
91.27265052558145
 20
104.61134379341921
 10
91.69510561060501
 20
106.2264454550587
 10
91.93104908505217
 20
107.00233444430121
 10
92.10705983992722
 20
107.50276709962391
 10
92.30528684519929
 20
107.99163404872014
 10
92.51873719661648
 20
108.44148977605442
 10
92.76112703302569
 20
108.87289427543074
 10
92.97511002131014
 20
109.19679091915158
 10
93.03934250980055
 20
109.34176300847176
 10
93.0612643851602
 20
109.45880365837213
 10
93.05964131182407
 20
109.57786854816479
 10
93.0052072940479
 20
109.76811335715908
 10
92.89185004755983
 20
109.93030547875928
 10
92.73189910932187
 20
110.04680374912125
 10
92.62064377353258
 20
110.08924585800854
 10
92.46346959687843
 20
110.11019812405813
 10
80.44305512611407
 20
110.11019812405812
 10
80.32791677406163
 20
110.09904713686755
 10
80.2170581096388
 20
110.06600865701363
 10
80.08298371981951
 20
109.99014456103735
 10
79.97264534018731
 20
109.88264225853246
 10
79.90991688955766
 20
109.78545004634302
 10
79.85740316812733
 20
109.64062735431843
 10
79.72247778591012
 20
109.01273103674609
 10
79.56581118958248
 20
108.5081665118837
 10
79.36763783987092
 20
108.03076437394999
 10
79.1230149551302
 20
107.5788916893787
 10
78.85740830697141
 20
107.1929870685729
 10
78.69586895133396
 20
106.99508229804931
 10
78.36610412651427
 20
106.65319095088289
 10
78.00220736106107
 20
106.34713544534016
 10
77.6172534744817
 20
106.08157374628765
 10
77.19052075515731
 20
105.83831301425015
 10
76.73649902245026
 20
105.62329844001464
 10
76.25104623234347
 20
105.4306053422211
 10
75.7537620654817
 20
105.26292544823683
 10
74.98080928634495
 20
105.04410827247777
 10
73.08598385891479
 20
104.61134379341921
 10
73.50843894393834
 20
106.2264454550587
 10
73.7443824183855
 20
107.00233444430121
 10
73.92039317326055
 20
107.50276709962391
 10
74.11862017853262
 20
107.99163404872014
 10
74.33207052994982
 20
108.44148977605442
 10
74.57446036635902
 20
108.87289427543074
 10
74.80807244151163
 20
109.23135640127764
 10
74.86256480492837
 20
109.38026342458004
 10
74.87668885668324
 20
109.49849875563812
 10
74.8671855974629
 20
109.6171948819969
 10
74.80027419157378
 20
109.80341790259982
 10
74.67642634390019
 20
109.9577482634079
 10
74.58017409963543
 20
110.02785238470176
 10
74.47197317538904
 20
110.07756799935768
 10
74.27680293021174
 20
110.11019812405812
 10
63.793324266007076
 20
110.11019812405812
 10
63.45501354677598
 20
110.13725487706917
 10
63.340081071367955
 20
110.1206590255859
 10
63.1958774230996
 20
110.06480124680888
 10
62.64575961336119
 20
109.7008209589101
 10
62.14782256997219
 20
109.42700068867087
 10
61.885414637741505
 20
109.30597768160322
 10
61.40086898938335
 20
109.1245292852793
 10
61.13627308118071
 20
109.04833702853084
 10
60.63721720044499
 20
108.94806118466778
 10
60.154597316594874
 20
108.90392661495895
 10
59.65541686372151
 20
108.91090945172805
 10
59.15593451690158
 20
108.96872174447078
 10
58.64445645926073
 20
109.07702268755337
 10
58.14666705618885
 20
109.22606208430729
 10
57.407061483291855
 20
109.51716141483175
 10
56.90195504514096
 20
109.75641467449438
 10
56.15487322046178
 20
110.15698983076753
 10
55.15798251039907
 20
110.74869860751691
  0
LWPOLYLINE
  5
50
330
17
100
AcDbEntity
  8
CUT
100
AcDbPolyline
 90
178
 70
1
 10
64.48106018498089
 20
80.34979160654747
 10
82.50685553473161
 20
80.34979329373539
 10
82.50685722191955
 20
79.84902441193442
 10
81.59339500372121
 20
79.83858757213459
 10
81.31877710943421
 20
79.80654499453603
 10
81.04806146264518
 20
79.7506050739618
 10
80.73818990655333
 20
79.65340044885532
 10
80.47182422507473
 20
79.53802169773208
 10
80.17643801220763
 20
79.37076799388454
 10
79.90445848871967
 20
79.17461664867133
 10
79.69128472113444
 20
78.98840853784074
 10
79.4882640865878
 20
78.78047168367404
 10
79.31291870671097
 20
78.57082763158054
 10
79.15343881257677
 20
78.34573371178207
 10
79.01913485877361
 20
78.11841400698589
 10
78.88275596565113
 20
77.82947565743626
 10
78.79093546968073
 20
77.57522290588705
 10
78.72429823249142
 20
77.32785826622728
 10
78.6635430975522
 20
76.97361170990516
 10
78.64099369761884
 20
76.65816839218556
 10
78.64099369761884
 20
64.79043418560556
 10
78.66208910360787
 20
64.60563040725373
 10
78.73221548598637
 20
64.42293850003193
 10
78.84723651480546
 20
64.26462171191562
 10
78.99931369703124
 20
64.14146907038523
 10
79.17808322401694
 20
64.06187322444012
 10
79.38118060120746
 20
64.03093707983842
 10
91.38900376805819
 20
64.03061583232426
 10
91.52576024782482
 20
64.04182728463161
 10
91.66745166298904
 20
64.08078729938882
 10
91.7988197955171
 20
64.14664133219833
 10
91.91481624174776
 20
64.23685864951057
 10
92.0109833233044
 20
64.3479722504162
 10
92.08362539317321
 20
64.47571210154487
 10
92.12995085734751
 20
64.61516923205494
 10
92.14785898088884
 20
64.75119493509487
 10
92.14880921865434
 20
76.68183840615751
 10
92.13650213007357
 20
76.97466608596439
 10
92.09030369777823
 20
77.30757386447536
 10
92.02508687795117
 20
77.5757293883868
 10
91.94052431073628
 20
77.82219602829802
 10
91.83412254663686
 20
78.05986454036113
 10
91.70126035443371
 20
78.29619210387199
 10
91.51388669410524
 20
78.56402024843453
 10
91.33538105466718
 20
78.77451652119962
 10
91.1301768347425
 20
78.98062747002498
 10
90.91953639881169
 20
79.16203167953493
 10
90.63314169823401
 20
79.36639123662208
 10
90.37737922440488
 20
79.51260454689417
 10
90.0654558245011
 20
79.65024208457436
 10
89.75259603671833
 20
79.74849129979442
 10
89.4846317915414
 20
79.80452964304585
 10
89.19676832698339
 20
79.83858209645678
 10
88.28296028422666
 20
79.84902272474649
 10
88.28295859703873
 20
80.34979160654747
 10
106.3087539467895
 20
80.34979329373539
 10
106.3087556339774
 20
79.84902441193442
 10
105.38724690321217
 20
79.83800851131501
 10
105.09986459718391
 20
79.80310176545422
 10
104.77849619436233
 20
79.73148003647103
 10
104.4514232641276
 20
79.61849239970866
 10
104.14711299017108
 20
79.47170876476741
 10
103.89796239105691
 20
79.3172575959152
 10
103.61497891154605
 20
79.0985341760915
 10
103.36586658983536
 20
78.86175863038778
 10
103.17101262038429
 20
78.64166646173145
 10
102.97093821642115
 20
78.36959088611546
 10
102.82495017601009
 20
78.12576167377514
 10
102.68465437770868
 20
77.82947565743554
 10
102.59283388173846
 20
77.57522290588658
 10
102.52002239796577
 20
77.30015043080066
 10
102.46544150961
 20
76.97361170990462
 10
102.4428921096767
 20
76.65816839218535
 10
102.4428921096767
 20
48.892314494819914
 10
102.46544150961009
 20
48.57687117709992
 10
102.52173298053754
 20
48.242403904406785
 10
102.61344135280336
 20
47.91188961069534
 10
102.71888322587024
 20
47.64088152005533
 10
102.87384782785496
 20
47.33741674555418
 10
103.05620463317874
 20
47.05790619029398
 10
103.24195255038231
 20
46.82450363866323
 10
103.48482647015578
 20
46.570016525157854
 10
103.77087010052973
 20
46.325322155067
 10
104.063844625199
 20
46.12669600009954
 10
104.37201527769615
 20
45.966174076005586
 10
104.69531232450096
 20
45.84369077559603
 10
105.02113256107384
 20
45.761566211382785
 10
105.367145882932
 20
45.71411123517379
 10
106.30875394678948
 20
45.70146016225874
 10
106.30875563397741
 20
45.20069128045782
 10
88.28296028422666
 20
45.20068959326983
 10
88.28295859703874
 20
45.70145847507081
 10
89.1967683269834
 20
45.71190079054847
 10
89.47224452649303
 20
45.74394838624619
 10
89.74427175893626
 20
45.79984368526891
 10
90.05728099010248
 20
45.89722202823762
 10
90.32593753932802
 20
46.01224148399726
 10
90.62608790213359
 20
46.17958443608802
 10
90.90400730581312
 20
46.3762068030332
 10
91.1219453225948
 20
46.56222810755034
 10
91.32206810574432
 20
46.761524787173556
 10
91.50109421797372
 20
46.97010634996633
 10
91.65834093968633
 20
47.18736637549688
 10
91.79380865993464
 20
47.41334660507536
 10
91.90748163563286
 20
47.6480873983148
 10
91.99932854941314
 20
47.89161948749228
 10
92.06728228428415
 20
48.13535140203405
 10
92.12852067833333
 20
48.49409445748543
 10
92.14880921865434
 20
48.86864448084779
 10
92.14882212133944
 20
60.760048701399484
 10
92.12772671535032
 20
60.944852479751944
 10
92.05760033297177
 20
61.12754438697357
 10
91.94257930415324
 20
61.285861175089195
 10
91.7905021219266
 20
61.4090138166203
 10
91.61173259494302
 20
61.48860966256461
 10
91.40863521775069
 20
61.51954580716685
 10
79.4008120509006
 20
61.519867054681015
 10
79.26405557113345
 20
61.508655602373636
 10
79.12236415596968
 20
61.4696955876166
 10
78.99099602344047
 20
61.40384155480646
 10
78.87499957721018
 20
61.31362423749434
 10
78.77883249565431
 20
61.20251063658969
 10
78.70619042578511
 20
61.07477078546043
 10
78.65986496161061
 20
60.93531365494954
 10
78.64195683806945
 20
60.79928795191054
 10
78.64099369761884
 20
48.89231449481994
 10
78.66130940406843
 20
48.59600245102277
 10
78.70184700771958
 20
48.329380259420105
 10
78.76587567236268
 20
48.05937507445677
 10
78.85075644098403
 20
47.80212583287803
 10
78.9788938534439
 20
47.50971349755321
 10
79.11066564839662
 20
47.272557858851
 10
79.26604510488531
 20
47.04181295951372
 10
79.44005413832362
 20
46.8245036386642
 10
79.67739071260985
 20
46.57534713956227
 10
79.88237114620124
 20
46.3937597797385
 10
80.16924649532228
 20
46.18439087782065
 10
80.42195562528092
 20
46.037653394630325
 10
80.72987730382408
 20
45.90018306350987
 10
81.03963389258399
 20
45.8020676721861
 10
81.30628500743275
 20
45.74596866549015
 10
81.59339500372091
 20
45.711895314870674
 10
82.50685553473161
 20
45.70146016225874
 10
82.50685722191955
 20
45.20069128045782
 10
64.48106187216881
 20
45.20068959326983
 10
64.48106018498089
 20
45.70145847507081
 10
65.40256891574748
 20
45.712474375690334
 10
65.68995122177445
 20
45.74738112155106
 10
66.01131962459634
 20
45.819002850534304
 10
66.33839255483092
 20
45.9319904872967
 10
66.64270282878711
 20
46.0787741222378
 10
66.89185342790027
 20
46.2332252910893
 10
67.17483690741209
 20
46.451948710913626
 10
67.42394922912415
 20
46.68872425661877
 10
67.61880319857325
 20
46.9088164252729
 10
67.81887760253734
 20
47.18089200089011
 10
67.96486564294813
 20
47.42472121322999
 10
68.10516144124931
 20
47.72100722956904
 10
68.19698193721989
 20
47.97525998111885
 10
68.26979342099256
 20
48.250332456204745
 10
68.32437430934826
 20
48.57687117710057
 10
68.34692370928158
 20
48.892314494819914
 10
68.34692370928158
 20
76.65816839218533
 10
68.32437430934817
 20
76.9736117099055
 10
68.26808283842061
 20
77.30807898259914
 10
68.17637446615467
 20
77.6385932763107
 10
68.07093259308763
 20
77.90960136695085
 10
67.9159679911039
 20
78.21306614145007
 10
67.73361118577924
 20
78.49257669671168
 10
67.54786326857659
 20
78.7259792483413
 10
67.30498934880346
 20
78.98046636184648
 10
67.01894571842884
 20
79.22516073193805
 10
66.72597119375732
 20
79.42378688690687
 10
66.41780054126139
 20
79.58430881099996
 10
66.0945034944578
 20
79.70679211140909
 10
65.76868325788277
 20
79.78891667562283
 10
65.42266993602857
 20
79.83637165183129
 10
64.48106187216881
 20
79.84902272474649
  0
LWPOLYLINE
  5
51
330
17
100
AcDbEntity
  8
CUT
100
AcDbPolyline
 90
157
 70
1
 10
79.62249344560803
 20
155.02284914808047
 10
97.55466939522138
 20
155.03101157990199
 10
98.07921881857665
 20
155.05796819637536
 10
98.68563977975188
 20
155.1114393350116
 10
100.09056261848211
 20
155.30226307787427
 10
101.25540556809378
 20
155.52333056399817
 10
101.64824248899995
 20
155.6268057287514
 10
101.95944528080464
 20
155.73795793950535
 10
101.95944243169473
 20
147.55162370818866
 10
101.5633441564433
 20
147.55162202100072
 10
101.56058945483333
 20
148.04893551692146
 10
101.53453767734477
 20
148.53511201851617
 10
101.47894149476987
 20
148.99376201205004
 10
101.39330966115365
 20
149.43210566534788
 10
101.27571840725021
 20
149.8551424061566
 10
101.16903906157943
 20
150.1531027269475
 10
101.00703345795311
 20
150.51835084845362
 10
100.81081085623363
 20
150.8733085072246
 10
100.4748554402333
 20
151.34801206855843
 10
100.2268442230162
 20
151.62838659252805
 10
100.03783523664771
 20
151.80876411923788
 10
99.77900091089357
 20
152.02240503825473
 10
99.49944365090823
 20
152.21802557670844
 10
99.27430352164335
 20
152.35331008676079
 10
98.95728662688161
 20
152.5151992072618
 10
98.5133646007602
 20
152.69469824079394
 10
98.03983866456898
 20
152.83610663643435
 10
97.52359424757105
 20
152.94205677919666
 10
97.06082960086502
 20
152.99639676874477
 10
91.51211612181513
 20
152.99286571181167
 10
91.32125322194746
 20
152.94967548231403
 10
91.14011068893615
 20
152.85285278122518
 10
90.99816157980614
 20
152.7181512857353
 10
90.89591258171515
 20
152.5513004995233
 10
90.84958711754113
 20
152.41184336901364
 10
90.8307158535493
 20
152.23657841546324
 10
90.83103710106346
 20
142.64691541581607
 10
90.85181125953842
 20
142.48174308715636
 10
90.91732045619398
 20
142.3076893268553
 10
91.03026309486336
 20
142.14788318542122
 10
91.14807227164108
 20
142.0445673102625
 10
91.3584324443476
 20
141.94082915327314
 10
91.57090275713726
 20
141.90704975974154
 10
95.14598439653298
 20
141.90672851222735
 10
95.41423734471066
 20
141.91777673278932
 10
95.9211525701372
 20
141.97639322306094
 10
96.3123301713319
 20
142.0592012457519
 10
96.75481486742336
 20
142.1985617256819
 10
97.1836695439916
 20
142.38778798490415
 10
97.62010404465005
 20
142.6456603741736
 10
98.07964195948267
 20
143.00472112451234
 10
98.44295683799287
 20
143.3692759378058
 10
98.65354915228599
 20
143.62662928177082
 10
98.79628589228878
 20
143.82890058311267
 10
98.97367266577454
 20
144.12580728924226
 10
99.09257977245909
 20
144.36638512783554
 10
99.2208288521151
 20
144.68785158504207
 10
99.32039719260557
 20
145.0193699813357
 10
99.393825866184
 20
145.37019693915846
 10
99.43096435381459
 20
145.64617715277006
 10
99.45492304935371
 20
146.0096894124747
 10
99.45670297966603
 20
146.4372995301315
 10
99.85280125491747
 20
146.43730121731943
 10
99.85349253537527
 20
135.40523116200336
 10
99.8442348032619
 20
135.38820013763024
 10
99.45670466685398
 20
135.38876006223973
 10
99.4502803961496
 20
135.8375778298581
 10
99.4298046739176
 20
136.1204617333606
 10
99.37904557020848
 20
136.485851787689
 10
99.30286824907287
 20
136.83135638476944
 10
99.19676645197855
 20
137.17389519299235
 10
99.06653751220213
 20
137.49337821741693
 10
98.94734058134406
 20
137.73141682679278
 10
98.77026361094602
 20
138.02561652653844
 10
98.42046650041355
 20
138.4795026638813
 10
98.06243375658846
 20
138.83852861301312
 10
97.60905152071328
 20
139.1915353517108
 10
97.18406206141113
 20
139.44166810826695
 10
96.76251208007247
 20
139.62728588473664
 10
96.31018786306716
 20
139.76897847205936
 10
95.92037948951852
 20
139.8505333998357
 10
95.41431871336187
 20
139.90836879372358
 10
95.14608137660639
 20
139.91933276733178
 10
91.5709027571375
 20
139.9190115198176
 10
91.3678053799469
 20
139.88807537521572
 10
91.18903585296256
 20
139.80847952927132
 10
91.06472173314093
 20
139.71308995014542
 10
90.94156909160985
 20
139.56101276791867
 10
90.86197324566535
 20
139.3822432409342
 10
90.83167899399989
 20
139.19875366456117
 10
90.83103710106346
 20
129.96733056338218
 10
90.849587117541
 20
129.81169705952516
 10
90.89591258171545
 20
129.6722399290143
 10
90.96855465158434
 20
129.5445000778854
 10
91.06472173314077
 20
129.43338647698002
 10
91.18071817937201
 20
129.34316915966735
 10
91.31208631189934
 20
129.2773151268582
 10
91.4537777270642
 20
129.2383551121008
 10
91.59053420683078
 20
129.2271436597935
 10
95.8471806010183
 20
129.22816571130312
 10
96.5292742589299
 20
129.266809219204
 10
97.18270433000758
 20
129.35980079639376
 10
97.81957140547614
 20
129.50729478809822
 10
98.43987526450104
 20
129.709268158927
 10
99.0436252635154
 20
129.96569995567933
 10
99.40207200164168
 20
130.14792678231572
 10
99.84978142318451
 20
130.40907666180038
 10
100.1926904914145
 20
130.63670072788602
 10
100.60773574847917
 20
130.94769665252832
 10
100.9220361838902
 20
131.21176320079803
 10
101.23128409699548
 20
131.4982656360915
 10
101.60631477495109
 20
131.88512776585122
 10
101.89485277564572
 20
132.21565537512737
 10
102.24815689742715
 20
132.66480822291874
 10
102.58051104732189
 20
133.1448756244967
 10
102.88359280747608
 20
133.64580691015877
 10
103.16258081937234
 20
134.17550609960458
 10
103.36230915638625
 20
134.60673181796247
 10
103.5970655820354
 20
135.18695655560856
 10
103.8030645457034
 20
135.78488205587394
 10
103.98780524901105
 20
136.42081906301667
 10
104.38391870092215
 20
136.42080987264166
 10
102.87377571840408
 20
127.20066681205851
 10
79.62249513279596
 20
127.20068959326987
 10
79.62249344560803
 20
127.5967878685213
 10
80.35051508894821
 20
127.60558085383586
 10
80.58228445982475
 20
127.63381885378183
 10
80.8323059594058
 20
127.68963318504105
 10
81.091236188643
 20
127.77890972521803
 10
81.33060796384176
 20
127.89407856471145
 10
81.53315744660873
 20
128.0196318345997
 10
81.75680978128466
 20
128.19290898596745
 10
81.94992866882973
 20
128.37648142362397
 10
82.10679281545629
 20
128.55357720345376
 10
82.26275603523072
 20
128.76552058367452
 10
82.38056712218243
 20
128.96214789174786
 10
82.48983556211323
 20
129.19269435876868
 10
82.56329197398802
 20
129.3955396906086
 10
82.62194488910721
 20
129.6174023822258
 10
82.66418959883384
 20
129.8701910482006
 10
82.68239329947735
 20
130.12821906700805
 10
82.68239329947735
 20
152.09532136153024
 10
82.66511258072495
 20
152.34570011093456
 10
82.62023430653544
 20
152.61406659811036
 10
82.54833858479493
 20
152.8740350391427
 10
82.46266263430365
 20
153.09423649799496
 10
82.34059450866368
 20
153.3327627737375
 10
82.19861065158047
 20
153.55053903248177
 10
82.04804888023965
 20
153.73974361944605
 10
81.85849822609988
 20
153.93825064962607
 10
81.63018363943813
 20
154.13354690183195
 10
81.39814236072357
 20
154.29067863777487
 10
81.15410915642404
 20
154.41760984170523
 10
80.89815376005885
 20
154.5144061208131
 10
80.64287937616335
 20
154.5787473625876
 10
80.37061610922956
 20
154.61632271521876
 10
79.62249513279596
 20
154.626750872829
  0
LWPOLYLINE
  5
52
330
17
100
AcDbEntity
  8
CUT
100
AcDbPolyline
 90
64
 70
1
 10
104.06572956364313
 20
17.612068234026765
 10
104.09424615176174
 20
17.3684002521953
 10
104.09874178594515
 20
17.123110483878747
 10
104.07917317077872
 20
16.878561203634746
 10
104.03572876272382
 20
16.63710755471621
 10
103.9688269551791
 20
16.401074867753778
 10
103.87911204912349
 20
16.17273626655188
 10
103.76744804814514
 20
15.954290776661907
 10
103.63491033761615
 20
15.747842147567724
 10
103.48277532814092
 20
15.555378592422699
 10
103.31250816302567
 20
15.378753640473604
 10
103.12574860814696
 20
15.219668286560221
 10
102.9242952601145
 20
15.079654609608127
 10
102.71008822479355
 20
14.960061017864007
 10
102.48519043303118
 20
14.862039262992681
 10
102.2517677735041
 20
14.786533348078052
 10
102.01206823402775
 20
14.734270436357008
 10
101.76840025219506
 20
14.705753848238203
 10
101.52311048387891
 20
14.701258214054803
 10
101.27856120363523
 20
14.720826829221181
 10
101.03710755471576
 20
14.764271237276233
 10
100.80107486775304
 20
14.8311730448211
 10
100.57273626655156
 20
14.920887950876619
 10
100.35429077666338
 20
15.032551951854003
 10
100.14784214756696
 20
15.16508966238436
 10
99.95537859242181
 20
15.317224671859805
 10
99.77875364047257
 20
15.487491836975352
 10
99.61966828656031
 20
15.674251391852835
 10
99.47965460960816
 20
15.875704739885407
 10
99.36006101786381
 20
16.089911775206758
 10
99.26203926299267
 20
16.314809566968762
 10
99.18653334807796
 20
16.548232226496197
 10
99.13427043635683
 20
16.787931765973212
 10
99.10575384823822
 20
17.031599747804677
 10
99.10125821405481
 20
17.27688951612123
 10
99.12082682922124
 20
17.52143879636523
 10
99.16427123727614
 20
17.762892445283768
 10
99.23117304482086
 20
17.9989251322462
 10
99.32088795087647
 20
18.227263733448098
 10
99.43255195185482
 20
18.44570922333807
 10
99.56508966238381
 20
18.652157852432254
 10
99.71722467185904
 20
18.84462140757728
 10
99.88749183697429
 20
19.021246359526373
 10
100.07425139185338
 20
19.18033171344007
 10
100.2757047398856
 20
19.320345390391935
 10
100.48991177520695
 20
19.439938982136226
 10
100.71480956696878
 20
19.537960737007296
 10
100.9482322264955
 20
19.61346665192184
 10
101.18793176597221
 20
19.66572956364297
 10
101.43159974780488
 20
19.694246151761774
 10
101.67688951612105
 20
19.698741785945174
 10
101.92143879636473
 20
19.679173170778796
 10
102.16289244528515
 20
19.635728762723545
 10
102.39892513224692
 20
19.568826955178878
 10
102.62726373344758
 20
19.479112049123728
 10
102.84570922333683
 20
19.36744804814583
 10
103.052157852433
 20
19.234910337615617
 10
103.24462140757815
 20
19.082775328140173
 10
103.42124635952739
 20
18.912508163024626
 10
103.58033171343965
 20
18.725748608147143
 10
103.7203453903918
 20
18.52429526011457
 10
103.83993898213616
 20
18.31008822479319
 10
103.93796073700729
 20
18.085190433031215
 10
104.013466651922
 20
17.85176777350378
  0
LWPOLYLINE
  5
53
330
17
100
AcDbEntity
  8
CUT
100
AcDbPolyline
 90
106
 70
1
 10
34.67819114320897
 20
155.02284914808047
 10
48.946311717831634
 20
155.0228508352684
 10
48.946313405019566
 20
154.62675256001694
 10
48.384253620971535
 20
154.61377725885137
 10
48.17943954034091
 20
154.575778140973
 10
47.99052773411707
 20
154.51527635251176
 10
47.79070314938144
 20
154.4216039167529
 10
47.58962755423738
 20
154.2926154377491
 10
47.39301510271325
 20
154.1281280558154
 10
47.22499996756203
 20
153.95197917003668
 10
47.12766536465918
 20
153.8188959164778
 10
47.05290250851098
 20
153.68177683579052
 10
46.956981768734906
 20
153.38116788530027
 10
46.931080849413405
 20
153.03177431445093
 10
46.97920610418711
 20
152.6408820900932
 10
47.038206059884686
 20
152.40550164470005
 10
47.12651164705269
 20
152.1419450176659
 10
50.82910922760862
 20
142.9050740271665
 10
50.93284708778398
 20
142.73697388133266
 10
51.10971743325764
 20
142.5795918185877
 10
51.29818657839562
 20
142.4931921738465
 10
51.53286420468612
 20
142.46190887957334
 10
51.72793023045108
 20
142.49302878084993
 10
51.90809447208487
 20
142.574022908411
 10
52.06084628685791
 20
142.69926701304973
 10
52.17557855670926
 20
142.86006411786747
 10
58.32362877266223
 20
155.65111988600123
 10
58.68466988708551
 20
155.65881189805424
 10
58.769047076989295
 20
155.42622919292353
 10
65.75801334825746
 20
142.60215449152412
 10
65.88314175586596
 20
142.4378694325
 10
66.03965022034991
 20
142.31870776644794
 10
66.22176944146716
 20
142.24436402823972
 10
66.41695840263394
 20
142.21995764485308
 10
66.65883644262522
 20
142.26189518221778
 10
66.84250937652094
 20
142.35619380028027
 10
67.01170695988918
 20
142.52038561319574
 10
67.12463453649204
 20
142.7383560371364
 10
69.77161910284545
 20
152.14998351983937
 10
69.83561543330316
 20
152.42211341597118
 10
69.8801450543977
 20
152.7095376721922
 10
69.89318117606456
 20
153.09837677670075
 10
69.84075004307003
 20
153.45623850300547
 10
69.72350738461246
 20
153.7652996477286
 10
69.5428492145146
 20
154.02990058531577
 10
69.38766671617225
 20
154.19218044727901
 10
69.22110673715535
 20
154.32880751415595
 10
69.04301685916238
 20
154.43980174133745
 10
68.853250258203
 20
154.52509432099825
 10
68.66130656899581
 20
154.582358095118
 10
68.4696476928582
 20
154.6147863805494
 10
67.90744968505119
 20
154.626750872829
 10
67.90744799786326
 20
155.02284914808047
 10
76.57111257188036
 20
155.0228508352684
 10
76.57111425906828
 20
154.62675256001694
 10
75.91170221780551
 20
154.60709719601243
 10
75.59007056160797
 20
154.55694155185182
 10
75.296188483862
 20
154.48585608421382
 10
74.9431536919283
 20
154.37098109941658
 10
74.57635250404581
 20
154.22014364025705
 10
74.25925697153926
 20
154.06547642493112
 10
73.99894604101425
 20
153.90647791820254
 10
73.64177149234698
 20
153.62047231865802
 10
73.33542748678478
 20
153.28857290153442
 10
73.06444204644723
 20
152.89379993059657
 10
72.84301764050116
 20
152.45521285336542
 10
65.88547082579939
 20
130.11785915684573
 10
65.57340728656631
 20
128.49243094887328
 10
65.5060793552462
 20
127.90948651125711
 10
65.47942833304116
 20
127.54175820005882
 10
65.47113031816573
 20
127.11466117709082
 10
65.48389183544087
 20
126.748021294446
 10
65.52113091290559
 20
126.3262206187687
 10
65.12033831831495
 20
126.33346800005175
 10
56.619026161005394
 20
142.34016051153216
 10
56.500972728360054
 20
142.49341690403304
 10
56.347630580311325
 20
142.61135892552562
 10
56.169212102559676
 20
142.6861317922527
 10
55.97759973143353
 20
142.71275572947806
 10
55.78555459923592
 20
142.6894576179434
 10
55.57247433451058
 20
142.59800806667263
 10
55.416721155610205
 20
142.46773694492714
 10
55.30151931068704
 20
142.30047767049584
 10
49.684328189144956
 20
130.78239684460127
 10
49.18903009628872
 20
129.46364978891347
 10
49.017058417332066
 20
128.90655203748315
 10
48.85263502179472
 20
128.29386659407726
 10
48.75681340092474
 20
127.85044722188114
 10
48.67324726451008
 20
127.3327049202717
 10
48.62238941303901
 20
126.86952415945285
 10
48.588587581447186
 20
126.32626230600003
 10
48.23205291627757
 20
126.3262834358326
 10
38.462110108326414
 20
152.2582209349931
 10
38.37286447861877
 20
152.46281141425044
 10
38.12544256827909
 20
152.91993682540397
 10
37.86744055404764
 20
153.2836061706177
 10
37.54244634895701
 20
153.632802518339
 10
37.20602338794003
 20
153.90455476073825
 10
36.935909423717064
 20
154.07330778938234
 10
36.58487222257144
 20
154.247350747001
 10
36.283198162460536
 20
154.3727529254761
 10
35.9433136464671
 20
154.48579234159538
 10
35.65389698383279
 20
154.55702080470837
 10
35.33649334369478
 20
154.60706866502125
 10
35.07223332782165
 20
154.62498569653673
 10
34.67819283039691
 20
154.626750872829
  0
LWPOLYLINE
  5
54
330
17
100
AcDbEntity
  8
CUT
100
AcDbPolyline
 90
250
 70
1
 10
15.949873806428664
 20
79.45784589039285
 10
17.220998962194752
 20
79.62545346191236
 10
18.171290418996417
 20
79.73131921140784
 10
19.099330656893514
 20
79.79796890131836
 10
19.706907846924445
 20
79.81176238519674
 10
20.31019704645659
 20
79.79400637584021
 10
20.88975082426659
 20
79.73988247516594
 10
21.451172937185394
 20
79.6446261274215
 10
21.9924821032735
 20
79.50398884254297
 10
22.511936274318888
 20
79.31432109015297
 10
23.008104141437254
 20
79.07264234996954
 10
23.479926068443753
 20
78.77666418541975
 10
23.915053615429564
 20
78.43496250308333
 10
24.338271004093205
 20
78.02652300726963
 10
24.736061303411816
 20
77.56012222830711
 10
25.10813481775439
 20
77.03553617112111
 10
25.408425467451945
 20
76.54246961612733
 10
25.550652865089543
 20
76.4070580812621
 10
25.65447789059836
 20
76.35063022921584
 10
25.93056297858403
 20
76.25744472153966
 10
27.206167944880928
 20
75.6889109465528
 10
27.361069570602922
 20
75.65309466667321
 10
27.55896532465034
 20
75.66731930985077
 10
27.707152085109744
 20
75.72492142422409
 10
27.83500750435384
 20
75.81942174869785
 10
27.9335542426905
 20
75.94418496410582
 10
28.00521800716582
 20
76.12919678752462
 10
28.01642832161212
 20
76.28778949985954
 10
27.91592296742976
 20
77.0141869838473
 10
27.894484169876304
 20
77.55613192325066
 10
27.914119201577993
 20
78.11018287999272
 10
27.970078260702483
 20
78.6748753427374
 10
28.058281914058906
 20
79.25472275085795
 10
28.234516150655924
 20
80.12290063138161
 10
28.451499014348656
 20
81.01122075198958
 10
28.766714993993656
 20
82.1963015236956
 10
29.676662463638632
 20
81.36859525796444
 10
30.337649601733453
 20
80.74220318596022
 10
30.956261082429542
 20
80.10808082053478
 10
31.33963475442588
 20
79.6745112988872
 10
31.69769106674686
 20
79.22431841919354
 10
32.01445569161981
 20
78.76932592522716
 10
32.29014044647409
 20
78.30224792817924
 10
32.52043418034473
 20
77.82191959493498
 10
32.70161039096655
 20
77.32737174345567
 10
32.82748759940882
 20
76.83357885187355
 10
32.90373333301936
 20
76.30863693959382
 10
32.92148098321591
 20
76.0240143220957
 10
32.91154399139352
 20
75.47445697008126
 10
32.84433837999204
 20
74.90820320604152
 10
32.71951281030414
 20
74.32498425572479
 10
32.63531982740839
 20
74.02690486805187
 10
32.45749913253126
 20
73.5082143185339
 10
32.435038060467576
 20
73.39133010681951
 10
32.436091059546435
 20
73.27231199937663
 10
32.46061669302935
 20
73.1558434971599
 10
32.50764984871368
 20
73.04650777119295
 10
32.57533971722024
 20
72.94860730945805
 10
32.726500943616706
 20
72.82104686176726
 10
33.9913164799793
 20
72.06009751721348
 10
35.255225404746845
 20
71.25560918151385
 10
36.46864686540288
 20
70.43906730294796
 10
37.67826310058937
 20
69.57896608026454
 10
38.83766590784322
 20
68.70834463213319
 10
39.98142079007072
 20
67.80188694728369
 10
41.108978962294636
 20
66.85855641649286
 10
42.562774031760924
 20
65.56369812001736
 10
42.66218587985673
 20
65.49885792532413
 10
42.772416132516135
 20
65.45485499600886
 10
42.96833823386229
 20
65.43210008964653
 10
43.161052739220864
 20
65.47410455350277
 10
43.32973403289193
 20
65.57632919204408
 10
43.45615363855386
 20
65.72772714072153
 10
43.51748609742858
 20
65.87339156360989
 10
43.603880261324925
 20
66.38129951733242
 10
43.6639633580196
 20
66.6418806907815
 10
43.819051591262976
 20
67.16160328918838
 10
44.0169211411291
 20
67.67948902791088
 10
44.252603857902145
 20
68.19568923208894
 10
44.52370035665736
 20
68.71579459596526
 10
44.97139465646534
 20
69.48022978111598
 10
45.46416309191297
 20
70.25053716705818
 10
46.14591091023967
 20
71.26984941632381
 10
46.73905174467814
 20
70.19221960494795
 10
47.1617731446425
 20
69.38563567093473
 10
47.54189743127899
 20
68.58545015176449
 10
47.76434007794186
 20
68.05114951408203
 10
47.957448271107516
 20
67.50931265906692
 10
48.10993336507682
 20
66.97629643674952
 10
48.219638065107524
 20
66.44513843937332
 10
48.28210624619444
 20
65.91613159827489
 10
48.293498287097684
 20
65.38956477620769
 10
48.25281105429739
 20
64.88160706097017
 10
48.15508299301028
 20
64.36023708753609
 10
48.079771774444104
 20
64.08518575807705
 10
47.89253258221935
 20
63.568413553083076
 10
47.645703208798935
 20
63.054375441742906
 10
47.338864244236966
 20
62.542930804775665
 10
47.16274280627532
 20
62.288134771025426
 10
46.82624351448595
 20
61.8544026161081
 10
46.767108576173584
 20
61.75091744188731
 10
46.72959599245849
 20
61.63778509339349
 10
46.71518606430948
 20
61.51946993720691
 10
46.724447428394214
 20
61.40064086101759
 10
46.757014617851475
 20
61.28598703254437
 10
46.85919775451316
 20
61.11631385419719
 10
47.69696941079002
 20
60.12228649754442
 10
48.60728342932228
 20
58.98423846316513
 10
49.48146777146818
 20
57.8307784610015
 10
50.34504408690437
 20
56.62727962306337
 10
51.16469073913516
 20
55.420252188484625
 10
51.9648227402754
 20
54.17470986984057
 10
52.737289247627146
 20
52.90238782418052
 10
53.482086781828436
 20
51.60333946023388
 10
54.19921632604138
 20
50.27761649457662
 10
54.89452795943188
 20
48.91343326150613
 10
55.871036035364476
 20
46.846927069281804
 10
56.49337000340366
 20
45.42273255153424
 10
56.55242959886659
 20
45.23839024473236
 10
56.57331972750211
 20
45.1175782751333
 10
56.579746259922565
 20
44.9951420502905
 10
56.5640263851416
 20
44.80959191035225
 10
56.53249502299717
 20
44.6759971583426
 10
56.46358967826005
 20
44.50299998391205
 10
56.330390721868305
 20
44.29763708052721
 10
56.11564035644451
 20
44.097589631451
 10
55.90136196189307
 20
43.97926527343927
 10
55.610396798291156
 20
43.90289162856743
 10
55.39486970731781
 20
43.89850626710029
 10
55.18979709636871
 20
43.934560437647775
 10
54.968763246040346
 20
44.021435601389356
 10
54.78316708550725
 20
44.144820456573655
 10
54.58311963643073
 20
44.35957082199775
 10
54.46703578771946
 20
44.56681395692971
 10
53.86909859308073
 20
45.93456622214234
 10
53.24326263660151
 20
47.27963507079417
 10
52.25548806506145
 20
49.24703924239745
 10
51.56430601367435
 20
50.52524350346013
 10
50.84699828245551
 20
51.77678633322381
 10
50.39905925436085
 20
52.519388029690504
 10
50.26368657805313
 20
52.6568067601126
 10
50.16381770750025
 20
52.715937748608525
 10
50.054432828098236
 20
52.75473482664566
 10
49.939624837969696
 20
52.77174630831712
 10
49.82368955395717
 20
52.76633566815627
 10
49.71096497331287
 20
52.73870535826697
 10
49.210864721165265
 20
52.54111025772664
 10
48.91701039238641
 20
52.44318470854401
 10
48.340207566902606
 20
52.29144721360626
 10
47.77767960532473
 20
52.19805443050063
 10
47.22917431555923
 20
52.162642934361344
 10
46.944034880348354
 20
52.167172389785435
 10
46.41612190645744
 20
52.21899241640767
 10
45.917022829407216
 20
52.32183502757053
 10
45.41460516650445
 20
52.479882136687536
 10
44.92411394567362
 20
52.6876533422614
 10
44.44475384054495
 20
52.94138120631342
 10
43.97556119668506
 20
53.2367051980317
 10
43.50924814101185
 20
53.57349903085583
 10
43.05836649079699
 20
53.93635387784391
 10
42.396238834755465
 20
54.52489300609639
 10
41.737166789523165
 20
55.1587843524681
 10
40.8708531552992
 20
56.02670038322708
 10
42.626645068750314
 20
56.57220618736653
 10
43.490176495972975
 20
56.80388966641274
 10
44.06104587325427
 20
56.93120462985104
 10
44.63333160649863
 20
57.03111051211192
 10
45.18020433714387
 20
57.09458459258664
 10
45.72604674818975
 20
57.12042763476401
 10
46.047431913012296
 20
57.11599936083181
 10
46.20274911563789
 20
57.13809270792319
 10
46.312553390452706
 20
57.18077522086898
 10
46.41190096907222
 20
57.244090576837465
 10
46.544085869321144
 20
57.38851623777879
 10
46.622737730255174
 20
57.567807911215624
 10
46.64048055083654
 20
57.684272360713265
 10
46.63512437661702
 20
57.80195875362557
 10
46.59253568689542
 20
57.95294800133857
 10
46.5356048749944
 20
58.05608702564686
 10
45.98922257131683
 20
58.7352632149273
 10
44.63379604395185
 20
60.31892571397097
 10
43.68852049192439
 20
61.351843776308584
 10
42.72225779022448
 20
62.35263717760532
 10
41.7296595419101
 20
63.327308376732844
 10
40.710680483014436
 20
64.2759004478506
 10
39.671301094728335
 20
65.19327196274557
 10
38.8483265306056
 20
65.87814251130666
 10
38.67030775468342
 20
65.95319197654806
 10
38.55520996112729
 20
65.969441907522
 10
38.43913877097751
 20
65.96319361532639
 10
38.29037739356316
 20
65.92039161402664
 10
38.188733995448544
 20
65.86399851198516
 10
37.74830549548925
 20
65.49107669142276
 10
37.50224266975833
 20
65.30294677482851
 10
37.0060906404684
 20
64.97194990069121
 10
36.504472217177984
 20
64.7007693761166
 10
35.99726704198049
 20
64.48897953402809
 10
35.484404543190855
 20
64.33583389923291
 10
34.96592380270696
 20
64.24000729734723
 10
34.4420132456279
 20
64.19948467503556
 10
33.899381050433675
 20
64.21247969210992
 10
33.37934665796244
 20
64.2726165087895
 10
32.84152417769332
 20
64.37864998769851
 10
32.30005256653089
 20
64.52491005032584
 10
31.75544792887791
 20
64.70624199358113
 10
31.203247106402472
 20
64.91918242073763
 10
30.383634023499233
 20
65.27639125965567
 10
28.728180765922147
 20
66.07629571436811
 10
30.211290263234186
 20
67.16292722719632
 10
30.952610966267887
 20
67.66273456559875
 10
31.451090772764974
 20
67.96870650605533
 10
31.959819829243965
 20
68.2492183469439
 10
32.45635886018883
 20
68.48701601969265
 10
32.96415617416324
 20
68.68889144773064
 10
33.258689624600215
 20
68.78673164786127
 10
33.39626325768366
 20
68.86063673135689
 10
33.48432367316061
 20
68.93808364434611
 10
33.55563728718142
 20
69.03118052700515
 10
33.607479788729854
 20
69.13637090745286
 10
33.63787069904298
 20
69.24963631998412
 10
33.645649029536834
 20
69.36664981783912
 10
33.6305176337024
 20
69.48294127051574
 10
33.5930545586479
 20
69.59406813096359
 10
33.534690962637775
 20
69.69578514903972
 10
33.45765644221876
 20
69.7842065478601
 10
33.3648938575374
 20
69.85595446761229
 10
32.222249305301254
 20
70.56227964401378
 10
30.976916829972346
 20
71.29031594934776
 10
29.704699398296043
 20
71.9924566529748
 10
27.745856254798394
 20
72.99710152445883
 10
26.406215156607413
 20
73.63447314296673
 10
25.043651733046204
 20
74.24414195839091
 10
24.752180338191607
 20
74.40024268415823
 10
24.59908929270311
 20
74.43664276147064
 10
24.48092166849938
 20
74.437031346743
 10
23.60480161792154
 20
74.28031424629071
 10
22.98063906802025
 20
74.22887602027646
 10
22.38190416845003
 20
74.23516336803775
 10
22.076569263361208
 20
74.2615938151279
 10
21.530750587026866
 20
74.35202607940383
 10
20.993902656125286
 20
74.50039488940226
 10
20.480687903858474
 20
74.70337711491419
 10
19.9901329817871
 20
74.95864630722807
 10
19.52100473990329
 20
75.26313465159515
 10
19.071786124728664
 20
75.61309350123439
 10
18.64067960408391
 20
76.0041934192292
 10
18.220387329138248
 20
76.43735336400988
 10
17.820480052897526
 20
76.89497162462972
 10
17.24091298951733
 20
77.62785452759942
 10
16.677792734161756
 20
78.40045652052282
  0
LWPOLYLINE
  5
55
330
17
100
AcDbEntity
  8
CUT
100
AcDbPolyline
 90
64
 70
1
 10
19.97789187583226
 20
156.53117119772446
 10
19.998420602933855
 20
156.28670064217425
 10
19.994888173853568
 20
156.04139511204437
 10
19.96732860781448
 20
155.797617033688
 10
19.91600731850309
 20
155.55771412326183
 10
19.84141855799063
 20
155.3239967769381
 10
19.744280656814997
 20
155.09871582052412
 10
19.62552910606579
 20
154.88404083278203
 10
19.486307548092682
 20
154.68203925119658
 10
19.32795676260526
 20
154.4946564614238
 10
19.15200175423119
 20
154.3236970621632
 10
18.96013706588817
 20
154.17080748588575
 10
18.754210459408224
 20
154.03746014278838
 10
18.5362051205827
 20
153.92493924068037
 10
18.30822055999904
 20
153.83432841735953
 10
18.072452393604085
 20
153.76650030458708
 10
17.831171197724785
 20
153.7221081241678
 10
17.586700642174463
 20
153.70157939706615
 10
17.341395112044484
 20
153.7051118261464
 10
17.097617033688138
 20
153.7326713921855
 10
16.857714123261616
 20
153.78399268149695
 10
16.6239967769379
 20
153.85858144200944
 10
16.398715820524206
 20
153.95571934318497
 10
16.1840408327821
 20
154.07447089393418
 10
15.982039251196582
 20
154.21369245190732
 10
15.794656461424136
 20
154.37204323739445
 10
15.623697062163412
 20
154.5479982457686
 10
15.470807485885581
 20
154.73986293411207
 10
15.337460142788274
 20
154.94578954059196
 10
15.22493924068043
 20
155.16379487941717
 10
15.134328417359555
 20
155.3917794400009
 10
15.066500304587084
 20
155.62754760639592
 10
15.022108124167751
 20
155.86882880227543
 10
15.001579397066148
 20
156.1132993578257
 10
15.005111826146434
 20
156.3586048879556
 10
15.032671392185524
 20
156.602382966312
 10
15.08399268149689
 20
156.84228587673806
 10
15.158581442009405
 20
157.076003223062
 10
15.255719343184925
 20
157.3012841794757
 10
15.374470893934173
 20
157.5159591672179
 10
15.51369245190731
 20
157.7179607488034
 10
15.67204323739467
 20
157.90534353857606
 10
15.847998245768652
 20
158.0763029378366
 10
16.03986293411186
 20
158.22919251411423
 10
16.245789540591776
 20
158.3625398572116
 10
16.463794879417264
 20
158.4750607593196
 10
16.691779440000936
 20
158.56567158264045
 10
16.92754760639604
 20
158.63349969541292
 10
17.168828802275215
 20
158.6778918758322
 10
17.413299357825533
 20
158.69842060293382
 10
17.65860488795548
 20
158.69488817385357
 10
17.90238296631216
 20
158.66732860781445
 10
18.142285876738384
 20
158.61600731850302
 10
18.3760032230621
 20
158.54141855799054
 10
18.601284179475797
 20
158.444280656815
 10
18.81595916721776
 20
158.3255291060659
 10
19.01796074880326
 20
158.18630754809277
 10
19.205343538575942
 20
158.02795676260547
 10
19.376302937836556
 20
157.8520017542314
 10
19.52919251411441
 20
157.6601370658879
 10
19.662539857211755
 20
157.45421045940796
 10
19.775060759319608
 20
157.23620512058272
 10
19.8656715826405
 20
157.0082205599989
 10
19.9334996954129
 20
156.77245239360414
  0
LWPOLYLINE
  5
56
330
17
100
AcDbEntity
  8
SCORE_OPTIONAL
100
AcDbPolyline
 90
109
 70
1
 10
5.000000088685001
 20
10.142361827506193
 10
5.0241786037016976
 20
9.566677035845373
 10
5.079408831190722
 20
9.143201180166017
 10
5.20503345976132
 20
8.601923626469443
 10
5.341109768414281
 20
8.199704613606997
 10
5.569918567223025
 20
7.693335705570149
 10
5.781849244501803
 20
7.325392389130201
 10
6.105049219728393
 20
6.873391599913077
 10
6.317878581573694
 20
6.6253439392733355
 10
6.546475352621272
 20
6.391747073973249
 10
6.865430399200022
 20
6.111453345274924
 10
7.316769085596294
 20
5.78732940663275
 10
7.68427809418072
 20
5.574646486082543
 10
8.190177877838114
 20
5.344802307703105
 10
8.592117683330414
 20
5.207903480662992
 10
9.133137119274108
 20
5.0811718454236825
 10
9.553814252095489
 20
5.025342654291052
 10
10.137999740866306
 20
5.000133806514782
 10
294.65763832504035
 20
5.000000047695579
 10
295.3331422876896
 20
5.033906870656807
 10
295.65679881983334
 20
5.079408831190591
 10
295.9767864078931
 20
5.145981518532238
 10
296.29173481589265
 20
5.233339858214549
 10
296.6002953863913
 20
5.341109768413617
 10
297.1066642944304
 20
5.56991856722334
 10
297.3914667375614
 20
5.730266774569458
 10
297.74476132964213
 20
5.965808336273938
 10
298.0023051283125
 20
6.167042456090144
 10
298.2461361647992
 20
6.384689888558
 10
298.47521031716394
 20
6.617818633951629
 10
298.6885466547244
 20
6.865430399199198
 10
298.88523163852943
 20
7.126464872706322
 10
299.0644230332807
 20
7.399804264779988
 10
299.2253535139168
 20
7.684278094179575
 10
299.4551976922962
 20
8.190177877836561
 10
299.5635985868377
 20
8.49851734218808
 10
299.6516010209086
 20
8.81328638578998
 10
299.7188281545763
 20
9.133137119274181
 10
299.7649921109345
 20
9.456699892700954
 10
299.7998662393197
 20
10.137999687485888
 10
299.79999991131496
 20
163.05763817249226
 10
299.7660931293432
 20
163.733142287689
 10
299.72059116880894
 20
164.0567988198353
 10
299.6540184814675
 20
164.37678640789417
 10
299.5666601417855
 20
164.69173481589257
 10
299.45889023158685
 20
165.0002953863901
 10
299.230081432777
 20
165.50666429442953
 10
299.06973322542893
 20
165.79146673756415
 10
298.8911013649137
 20
166.0651721222701
 10
298.69495078027126
 20
166.32660840008742
 10
298.48212141842686
 20
166.57465606072606
 10
298.2535246473779
 20
166.8082529260275
 10
298.0101393535948
 20
167.02639869834996
 10
297.75300775026915
 20
167.22815924400743
 10
297.4832309144033
 20
167.41267059336747
 10
297.20196407182635
 20
167.57914264050484
 10
296.9104116503345
 20
167.7268625265591
 10
296.6098221221624
 20
167.85519769229663
 10
296.3014826578132
 20
167.96359858683735
 10
295.9867136142115
 20
168.0516010209082
 10
295.666862880726
 20
168.11882815457625
 10
295.3433001073021
 20
168.16499211093412
 10
295.01739852039583
 20
168.18987936171487
 10
228.21550176461668
 20
168.200000103119
 10
227.88067960346137
 20
168.20968893709318
 10
227.441006509803
 20
168.247902907376
 10
226.89629173780673
 20
168.3344804016223
 10
226.4664373188505
 20
168.43446997765506
 10
226.14859207280432
 20
168.5271494527403
 10
225.7290033551685
 20
168.67600518762703
 10
153.69332543523944
 20
197.3055694891373
 10
153.48582538481216
 20
197.3805542236928
 10
153.05873020004827
 20
197.49060961094415
 10
152.84083225416325
 20
197.52524292615897
 10
152.40066162273197
 20
197.55303321829354
 10
151.96049081886278
 20
197.52524565753936
 10
151.74259265807268
 20
197.49061369444192
 10
151.3154967903931
 20
197.3805609574358
 10
151.1079962746689
 20
197.30557751047664
 10
79.07097706860449
 20
168.6759977494726
 10
78.6514079271958
 20
168.52714945274036
 10
78.22676144952514
 20
168.40694917897287
 10
77.90370826219318
 20
168.3344804016223
 10
77.35899349019698
 20
168.24790290737602
 10
76.91932039653857
 20
168.20968893709318
 10
76.58449144377515
 20
168.2
 10
10.142361497436196
 20
168.2
 10
9.466857712310704
 20
168.16609312934324
 10
9.143201180166313
 20
168.1205911688093
 10
8.823213592105901
 20
168.05401848146752
 10
8.508265184108208
 20
167.96666014178575
 10
8.199704613607286
 20
167.8588902315858
 10
7.69333570557016
 20
167.63008143277696
 10
7.408533262439366
 20
167.469733225431
 10
7.055238670357745
 20
167.234191663726
 10
6.797694871686595
 20
167.0329575439092
 10
6.553863835201918
 20
166.8153101114432
 10
6.3247896828348935
 20
166.58218136604705
 10
6.1114533452751925
 20
166.33456960080028
 10
5.914768361471111
 20
166.07353512729446
 10
5.735576966719492
 20
165.8001957352206
 10
5.574646486082539
 20
165.51572190581925
 10
5.432666048584714
 20
165.22133179970086
 10
5.3102436362568515
 20
164.91828604049599
 10
5.207903480662922
 20
164.60788231666933
 10
5.126083818060893
 20
164.29144982462086
 10
5.065135012807147
 20
163.97034357686093
 10
5.025342654291096
 20
163.646185747905
 10
5.002117915455936
 20
163.17983250486162
  0
ENDSEC
  0
SECTION
  2
OBJECTS
  0
DICTIONARY
  5
A
330
0
100
AcDbDictionary
281
1
  3
ACAD_COLOR
350
B
  3
ACAD_GROUP
350
C
  3
ACAD_LAYOUT
350
D
  3
ACAD_MATERIAL
350
E
  3
ACAD_MLEADERSTYLE
350
F
  3
ACAD_MLINESTYLE
350
10
  3
ACAD_PLOTSETTINGS
350
11
  3
ACAD_PLOTSTYLENAME
350
12
  3
ACAD_SCALELIST
350
14
  3
ACAD_TABLESTYLE
350
15
  3
ACAD_VISUALSTYLE
350
16
  3
EZDXF_META
350
2D
  0
DICTIONARY
  5
B
330
A
100
AcDbDictionary
281
1
  0
DICTIONARY
  5
C
330
A
100
AcDbDictionary
281
1
  0
DICTIONARY
  5
D
330
A
100
AcDbDictionary
281
1
  3
Model
350
1A
  3
Layout1
350
1E
  0
DICTIONARY
  5
E
330
A
100
AcDbDictionary
281
1
  3
ByBlock
350
1F
  3
ByLayer
350
20
  3
Global
350
21
  0
DICTIONARY
  5
F
330
A
100
AcDbDictionary
281
1
  3
Standard
350
2C
  0
DICTIONARY
  5
10
330
A
100
AcDbDictionary
281
1
  3
Standard
350
22
  0
DICTIONARY
  5
11
330
A
100
AcDbDictionary
281
1
  0
ACDBDICTIONARYWDFLT
  5
12
330
A
100
AcDbDictionary
281
1
  3
Normal
350
13
100
AcDbDictionaryWithDefault
340
13
  0
ACDBPLACEHOLDER
  5
13
330
12
  0
DICTIONARY
  5
14
330
A
100
AcDbDictionary
281
1
  0
DICTIONARY
  5
15
330
A
100
AcDbDictionary
281
1
  0
DICTIONARY
  5
16
330
A
100
AcDbDictionary
281
1
  0
LAYOUT
  5
1A
330
D
100
AcDbPlotSettings
  1

  4
A3
  6

 40
7.5
 41
20.0
 42
7.5
 43
20.0
 44
420.0
 45
297.0
 46
0.0
 47
0.0
 48
0.0
 49
0.0
140
0.0
141
0.0
142
1.0
143
1.0
 70
1024
 72
1
 73
0
 74
5
  7

 75
16
 76
0
 77
2
 78
300
147
1.0
148
0.0
149
0.0
100
AcDbLayout
  1
Model
 70
1
 71
0
 10
0.0
 20
0.0
 11
420.0
 21
297.0
 12
0.0
 22
0.0
 32
0.0
 14
1e+20
 24
1e+20
 34
1e+20
 15
-1e+20
 25
-1e+20
 35
-1e+20
146
0.0
 13
0.0
 23
0.0
 33
0.0
 16
1.0
 26
0.0
 36
0.0
 17
0.0
 27
1.0
 37
0.0
 76
1
330
17
  0
LAYOUT
  5
1E
330
D
100
AcDbPlotSettings
  1

  4
A3
  6

 40
7.5
 41
20.0
 42
7.5
 43
20.0
 44
420.0
 45
297.0
 46
0.0
 47
0.0
 48
0.0
 49
0.0
140
0.0
141
0.0
142
1.0
143
1.0
 70
0
 72
1
 73
0
 74
5
  7

 75
16
 76
0
 77
2
 78
300
147
1.0
148
0.0
149
0.0
100
AcDbLayout
  1
Layout1
 70
1
 71
1
 10
0.0
 20
0.0
 11
420.0
 21
297.0
 12
0.0
 22
0.0
 32
0.0
 14
1e+20
 24
1e+20
 34
1e+20
 15
-1e+20
 25
-1e+20
 35
-1e+20
146
0.0
 13
0.0
 23
0.0
 33
0.0
 16
1.0
 26
0.0
 36
0.0
 17
0.0
 27
1.0
 37
0.0
 76
1
330
1B
  0
MATERIAL
  5
1F
102
{ACAD_REACTORS
330
E
102
}
330
E
100
AcDbMaterial
  1
ByBlock
  2

 70
0
 40
1.0
 71
1
 41
1.0
 91
-1023410177
 42
1.0
 72
1
  3

 73
1
 74
1
 75
1
 44
0.5
 73
0
 45
1.0
 46
1.0
 77
1
  4

 78
1
 79
1
170
1
 48
1.0
171
1
  6

172
1
173
1
174
1
140
1.0
141
1.0
175
1
  7

176
1
177
1
178
1
143
1.0
179
1
  8

270
1
271
1
272
1
145
1.0
146
1.0
273
1
  9

274
1
275
1
276
1
 42
1.0
 72
1
  3

 73
1
 74
1
 75
1
 94
63
  0
MATERIAL
  5
20
102
{ACAD_REACTORS
330
E
102
}
330
E
100
AcDbMaterial
  1
ByLayer
  2

 70
0
 40
1.0
 71
1
 41
1.0
 91
-1023410177
 42
1.0
 72
1
  3

 73
1
 74
1
 75
1
 44
0.5
 73
0
 45
1.0
 46
1.0
 77
1
  4

 78
1
 79
1
170
1
 48
1.0
171
1
  6

172
1
173
1
174
1
140
1.0
141
1.0
175
1
  7

176
1
177
1
178
1
143
1.0
179
1
  8

270
1
271
1
272
1
145
1.0
146
1.0
273
1
  9

274
1
275
1
276
1
 42
1.0
 72
1
  3

 73
1
 74
1
 75
1
 94
63
  0
MATERIAL
  5
21
102
{ACAD_REACTORS
330
E
102
}
330
E
100
AcDbMaterial
  1
Global
  2

 70
0
 40
1.0
 71
1
 41
1.0
 91
-1023410177
 42
1.0
 72
1
  3

 73
1
 74
1
 75
1
 44
0.5
 73
0
 45
1.0
 46
1.0
 77
1
  4

 78
1
 79
1
170
1
 48
1.0
171
1
  6

172
1
173
1
174
1
140
1.0
141
1.0
175
1
  7

176
1
177
1
178
1
143
1.0
179
1
  8

270
1
271
1
272
1
145
1.0
146
1.0
273
1
  9

274
1
275
1
276
1
 42
1.0
 72
1
  3

 73
1
 74
1
 75
1
 94
63
  0
MLINESTYLE
  5
22
102
{ACAD_REACTORS
330
10
102
}
330
10
100
AcDbMlineStyle
  2
Standard
 70
0
  3

 62
256
 51
90.0
 52
90.0
 71
2
 49
0.5
 62
256
  6
BYLAYER
 49
-0.5
 62
256
  6
BYLAYER
  0
MLEADERSTYLE
  5
2C
102
{ACAD_REACTORS
330
F
102
}
330
F
100
AcDbMLeaderStyle
179
2
170
2
171
1
172
0
 90
2
 40
0.0
 41
0.0
173
1
 91
-1056964608
 92
-2
290
1
 42
2.0
291
1
 43
8.0
  3
Standard
 44
4.0
300

342
29
174
1
175
1
176
0
178
1
 93
-1056964608
 45
4.0
292
0
297
0
 46
4.0
 94
-1056964608
 47
1.0
 49
1.0
140
1.0
294
1
141
0.0
177
0
142
1.0
295
0
296
0
143
3.75
271
0
272
9
273
9
  0
DICTIONARY
  5
2D
330
A
100
AcDbDictionary
280
1
281
1
  3
CREATED_BY_EZDXF
350
2E
  3
WRITTEN_BY_EZDXF
350
59
  0
DICTIONARYVAR
  5
2E
330
2D
100
DictionaryVariables
280
0
  1
1.4.4 @ 2026-10-05T10:29:46.000474+00:00
  0
DICTIONARYVAR
  5
59
330
2D
100
DictionaryVariables
280
0
  1
1.4.4 @ 2026-10-05T10:29:46.061667+00:00
  0
ENDSEC
  0
EOF
