  0
SECTION
  2
HEADER
  9
$ACADVER
  1
AC1024
  9
$ACADMAINTVER
 70
6
  9
$DWGCODEPAGE
  3
ANSI_1252
  9
$LASTSAVEDBY
  1
ezdxf
  9
$INSBASE
 10
0.0
 20
0.0
 30
0.0
  9
$EXTMIN
 10
1e+20
 20
1e+20
 30
1e+20
  9
$EXTMAX
 10
-1e+20
 20
-1e+20
 30
-1e+20
  9
$LIMMIN
 10
0.0
 20
0.0
  9
$LIMMAX
 10
420.0
 20
297.0
  9
$ORTHOMODE
 70
0
  9
$REGENMODE
 70
1
  9
$FILLMODE
 70
1
  9
$QTEXTMODE
 70
0
  9
$MIRRTEXT
 70
1
  9
$LTSCALE
 40
1.0
  9
$ATTMODE
 70
1
  9
$TEXTSIZE
 40
2.5
  9
$TRACEWID
 40
1.0
  9
$TEXTSTYLE
  7
Standard
  9
$CLAYER
  8
0
  9
$CELTYPE
  6
ByLayer
  9
$CECOLOR
 62
256
  9
$CELTSCALE
 40
1.0
  9
$DISPSILH
 70
0
  9
$DIMSCALE
 40
1.0
  9
$DIMASZ
 40
2.5
  9
$DIMEXO
 40
0.625
  9
$DIMDLI
 40
3.75
  9
$DIMRND
 40
0.0
  9
$DIMDLE
 40
0.0
  9
$DIMEXE
 40
1.25
  9
$DIMTP
 40
0.0
  9
$DIMTM
 40
0.0
  9
$DIMTXT
 40
2.5
  9
$DIMCEN
 40
2.5
  9
$DIMTSZ
 40
0.0
  9
$DIMTOL
 70
0
  9
$DIMLIM
 70
0
  9
$DIMTIH
 70
0
  9
$DIMTOH
 70
0
  9
$DIMSE1
 70
0
  9
$DIMSE2
 70
0
  9
$DIMTAD
 70
1
  9
$DIMZIN
 70
8
  9
$DIMBLK
  1

  9
$DIMASO
 70
1
  9
$DIMSHO
 70
1
  9
$DIMPOST
  1

  9
$DIMAPOST
  1

  9
$DIMALT
 70
0
  9
$DIMALTD
 70
3
  9
$DIMALTF
 40
0.03937007874
  9
$DIMLFAC
 40
1.0
  9
$DIMTOFL
 70
1
  9
$DIMTVP
 40
0.0
  9
$DIMTIX
 70
0
  9
$DIMSOXD
 70
0
  9
$DIMSAH
 70
0
  9
$DIMBLK1
  1

  9
$DIMBLK2
  1

  9
$DIMSTYLE
  2
ISO-25
  9
$DIMCLRD
 70
0
  9
$DIMCLRE
 70
0
  9
$DIMCLRT
 70
0
  9
$DIMTFAC
 40
1.0
  9
$DIMGAP
 40
0.625
  9
$DIMJUST
 70
0
  9
$DIMSD1
 70
0
  9
$DIMSD2
 70
0
  9
$DIMTOLJ
 70
0
  9
$DIMTZIN
 70
8
  9
$DIMALTZ
 70
0
  9
$DIMALTTZ
 70
0
  9
$DIMUPT
 70
0
  9
$DIMDEC
 70
2
  9
$DIMTDEC
 70
2
  9
$DIMALTU
 70
2
  9
$DIMALTTD
 70
3
  9
$DIMTXSTY
  7
Standard
  9
$DIMAUNIT
 70
0
  9
$DIMADEC
 70
0
  9
$DIMALTRND
 40
0.0
  9
$DIMAZIN
 70
0
  9
$DIMDSEP
 70
44
  9
$DIMATFIT
 70
3
  9
$DIMFRAC
 70
0
  9
$DIMLDRBLK
  1

  9
$DIMLUNIT
 70
2
  9
$DIMLWD
 70
-2
  9
$DIMLWE
 70
-2
  9
$DIMTMOVE
 70
0
  9
$DIMFXL
 40
1.0
  9
$DIMFXLON
 70
0
  9
$DIMJOGANG
 40
0.785398163397
  9
$DIMTFILL
 70
0
  9
$DIMTFILLCLR
 70
0
  9
$DIMARCSYM
 70
0
  9
$DIMLTYPE
  6

  9
$DIMLTEX1
  6

  9
$DIMLTEX2
  6

  9
$DIMTXTDIRECTION
 70
0
  9
$LUNITS
 70
2
  9
$LUPREC
 70
4
  9
$SKETCHINC
 40
1.0
  9
$FILLETRAD
 40
10.0
  9
$AUNITS
 70
0
  9
$AUPREC
 70
2
  9
$MENU
  1
.
  9
$ELEVATION
 40
0.0
  9
$PELEVATION
 40
0.0
  9
$THICKNESS
 40
0.0
  9
$LIMCHECK
 70
0
  9
$CHAMFERA
 40
0.0
  9
$CHAMFERB
 40
0.0
  9
$CHAMFERC
 40
0.0
  9
$CHAMFERD
 40
0.0
  9
$SKPOLY
 70
0
  9
$TDCREATE
 40
2461319.437349537
  9
$TDUCREATE
 40
2458532.153996898
  9
$TDUPDATE
 40
2461319.437349537
  9
$TDUUPDATE
 40
2458532.1544311
  9
$TDINDWG
 40
0.0
  9
$TDUSRTIMER
 40
0.0
  9
$USRTIMER
 70
1
  9
$ANGBASE
 50
0.0
  9
$ANGDIR
 70
0
  9
$PDMODE
 70
0
  9
$PDSIZE
 40
0.0
  9
$PLINEWID
 40
0.0
  9
$SPLFRAME
 70
0
  9
$SPLINETYPE
 70
6
  9
$SPLINESEGS
 70
8
  9
$HANDSEED
  5
44
  9
$SURFTAB1
 70
6
  9
$SURFTAB2
 70
6
  9
$SURFTYPE
 70
6
  9
$SURFU
 70
6
  9
$SURFV
 70
6
  9
$UCSBASE
  2

  9
$UCSNAME
  2

  9
$UCSORG
 10
0.0
 20
0.0
 30
0.0
  9
$UCSXDIR
 10
1.0
 20
0.0
 30
0.0
  9
$UCSYDIR
 10
0.0
 20
1.0
 30
0.0
  9
$UCSORTHOREF
  2

  9
$UCSORTHOVIEW
 70
0
  9
$UCSORGTOP
 10
0.0
 20
0.0
 30
0.0
  9
$UCSORGBOTTOM
 10
0.0
 20
0.0
 30
0.0
  9
$UCSORGLEFT
 10
0.0
 20
0.0
 30
0.0
  9
$UCSORGRIGHT
 10
0.0
 20
0.0
 30
0.0
  9
$UCSORGFRONT
 10
0.0
 20
0.0
 30
0.0
  9
$UCSORGBACK
 10
0.0
 20
0.0
 30
0.0
  9
$PUCSBASE
  2

  9
$PUCSNAME
  2

  9
$PUCSORG
 10
0.0
 20
0.0
 30
0.0
  9
$PUCSXDIR
 10
1.0
 20
0.0
 30
0.0
  9
$PUCSYDIR
 10
0.0
 20
1.0
 30
0.0
  9
$PUCSORTHOREF
  2

  9
$PUCSORTHOVIEW
 70
0
  9
$PUCSORGTOP
 10
0.0
 20
0.0
 30
0.0
  9
$PUCSORGBOTTOM
 10
0.0
 20
0.0
 30
0.0
  9
$PUCSORGLEFT
 10
0.0
 20
0.0
 30
0.0
  9
$PUCSORGRIGHT
 10
0.0
 20
0.0
 30
0.0
  9
$PUCSORGFRONT
 10
0.0
 20
0.0
 30
0.0
  9
$PUCSORGBACK
 10
0.0
 20
0.0
 30
0.0
  9
$USERI1
 70
0
  9
$USERI2
 70
0
  9
$USERI3
 70
0
  9
$USERI4
 70
0
  9
$USERI5
 70
0
  9
$USERR1
 40
0.0
  9
$USERR2
 40
0.0
  9
$USERR3
 40
0.0
  9
$USERR4
 40
0.0
  9
$USERR5
 40
0.0
  9
$WORLDVIEW
 70
1
  9
$SHADEDGE
 70
3
  9
$SHADEDIF
 70
70
  9
$TILEMODE
 70
1
  9
$MAXACTVP
 70
64
  9
$PINSBASE
 10
0.0
 20
0.0
 30
0.0
  9
$PLIMCHECK
 70
0
  9
$PEXTMIN
 10
1e+20
 20
1e+20
 30
1e+20
  9
$PEXTMAX
 10
-1e+20
 20
-1e+20
 30
-1e+20
  9
$PLIMMIN
 10
0.0
 20
0.0
  9
$PLIMMAX
 10
420.0
 20
297.0
  9
$UNITMODE
 70
0
  9
$VISRETAIN
 70
1
  9
$PLINEGEN
 70
0
  9
$PSLTSCALE
 70
1
  9
$TREEDEPTH
 70
3020
  9
$CMLSTYLE
  2
Standard
  9
$CMLJUST
 70
0
  9
$CMLSCALE
 40
20.0
  9
$PROXYGRAPHICS
 70
1
  9
$MEASUREMENT
 70
1
  9
$CELWEIGHT
370
-1
  9
$ENDCAPS
280
0
  9
$JOINSTYLE
280
0
  9
$LWDISPLAY
290
0
  9
$INSUNITS
 70
4
  9
$HYPERLINKBASE
  1

  9
$STYLESHEET
  1

  9
$XEDIT
290
1
  9
$CEPSNTYPE
380
0
  9
$PSTYLEMODE
290
1
  9
$FINGERPRINTGUID
  2
{A8DD456D-84AC-45AE-B77D-8E7C4AD2FE3C}
  9
$VERSIONGUID
  2
{AFE68098-8388-4BAD-8A21-E457383C92AF}
  9
$EXTNAMES
290
1
  9
$PSVPSCALE
 40
0.0
  9
$OLESTARTUP
290
0
  9
$SORTENTS
280
127
  9
$INDEXCTL
280
0
  9
$HIDETEXT
280
1
  9
$XCLIPFRAME
280
1
  9
$HALOGAP
280
0
  9
$OBSCOLOR
 70
257
  9
$OBSLTYPE
280
0
  9
$INTERSECTIONDISPLAY
280
0
  9
$INTERSECTIONCOLOR
 70
257
  9
$DIMASSOC
280
2
  9
$PROJECTNAME
  1

  9
$CAMERADISPLAY
290
0
  9
$LENSLENGTH
 40
50.0
  9
$CAMERAHEIGHT
 40
0.0
  9
$STEPSPERSEC
 40
24.0
  9
$STEPSIZE
 40
100.0
  9
$3DDWFPREC
 40
2.0
  9
$PSOLWIDTH
 40
0.005
  9
$PSOLHEIGHT
 40
0.08
  9
$LOFTANG1
 40
1.570796326795
  9
$LOFTANG2
 40
1.570796326795
  9
$LOFTMAG1
 40
0.0
  9
$LOFTMAG2
 40
0.0
  9
$LOFTPARAM
 70
7
  9
$LOFTNORMALS
280
1
  9
$LATITUDE
 40
37.795
  9
$LONGITUDE
 40
-122.394
  9
$NORTHDIRECTION
 40
0.0
  9
$TIMEZONE
 70
-8000
  9
$LIGHTGLYPHDISPLAY
280
1
  9
$TILEMODELIGHTSYNCH
280
1
  9
$CMATERIAL
347
20
  9
$SOLIDHIST
280
0
  9
$SHOWHIST
280
1
  9
$DWFFRAME
280
2
  9
$DGNFRAME
280
2
  9
$REALWORLDSCALE
290
1
  9
$INTERFERECOLOR
 62
256
  9
$CSHADOW
280
0
  9
$SHADOWPLANELOCATION
 40
0.0
  0
ENDSEC
  0
SECTION
  2
CLASSES
  0
CLASS
  1
ACDBDICTIONARYWDFLT
  2
AcDbDictionaryWithDefault
  3
ObjectDBX Classes
 90
0
 91
0
280
0
281
0
  0
CLASS
  1
SUN
  2
AcDbSun
  3
SCENEOE
 90
1153
 91
0
280
0
281
0
  0
CLASS
  1
VISUALSTYLE
  2
AcDbVisualStyle
  3
ObjectDBX Classes
 90
4095
 91
0
280
0
281
0
  0
CLASS
  1
MATERIAL
  2
AcDbMaterial
  3
ObjectDBX Classes
 90
1153
 91
0
280
0
281
0
  0
CLASS
  1
SCALE
  2
AcDbScale
  3
ObjectDBX Classes
 90
1153
 91
0
280
0
281
0
  0
CLASS
  1
TABLESTYLE
  2
AcDbTableStyle
  3
ObjectDBX Classes
 90
4095
 91
0
280
0
281
0
  0
CLASS
  1
MLEADERSTYLE
  2
AcDbMLeaderStyle
  3
ACDB_MLEADERSTYLE_CLASS
 90
4095
 91
0
280
0
281
0
  0
CLASS
  1
DICTIONARYVAR
  2
AcDbDictionaryVar
  3
ObjectDBX Classes
 90
0
 91
0
280
0
281
0
  0
CLASS
  1
CELLSTYLEMAP
  2
AcDbCellStyleMap
  3
ObjectDBX Classes
 90
1152
 91
0
280
0
281
0
  0
CLASS
  1
MENTALRAYRENDERSETTINGS
  2
AcDbMentalRayRenderSettings
  3
SCENEOE
 90
1024
 91
0
280
0
281
0
  0
CLASS
  1
ACDBDETAILVIEWSTYLE
  2
AcDbDetailViewStyle
  3
ObjectDBX Classes
 90
1025
 91
0
280
0
281
0
  0
CLASS
  1
ACDBSECTIONVIEWSTYLE
  2
AcDbSectionViewStyle
  3
ObjectDBX Classes
 90
1025
 91
0
280
0
281
0
  0
CLASS
  1
RASTERVARIABLES
  2
AcDbRasterVariables
  3
ISM
 90
0
 91
0
280
0
281
0
  0
CLASS
  1
LAYOUT
  2
AcDbLayout
  3
ObjectDBX Classes
 90
0
 91
0
280
0
281
0
  0
CLASS
  1
ACDBPLACEHOLDER
  2
AcDbPlaceHolder
  3
ObjectDBX Classes
 90
0
 91
0
280
0
281
0
  0
ENDSEC
  0
SECTION
  2
TABLES
  0
TABLE
  2
VPORT
  5
8
330
0
100
AcDbSymbolTable
 70
1
  0
VPORT
  5
23
330
8
100
AcDbSymbolTableRecord
100
AcDbViewportTableRecord
  2
*Active
 70
0
 10
0.0
 20
0.0
 11
1.0
 21
1.0
 12
0.0
 22
0.0
 13
0.0
 23
0.0
 14
0.5
 24
0.5
 15
0.5
 25
0.5
 16
0.0
 26
0.0
 36
1.0
 17
0.0
 27
0.0
 37
0.0
 40
1000.0
 41
1.34
 42
50.0
 43
0.0
 44
0.0
 50
0.0
 51
0.0
 71
0
 72
1000
 73
1
 74
3
 75
0
 76
0
 77
0
 78
0
281
0
 65
0
146
0.0
  0
ENDTAB
  0
TABLE
  2
LTYPE
  5
2
330
0
100
AcDbSymbolTable
 70
3
  0
LTYPE
  5
24
330
2
100
AcDbSymbolTableRecord
100
AcDbLinetypeTableRecord
  2
ByBlock
 70
0
  3

 72
65
 73
0
 40
0.0
  0
LTYPE
  5
25
330
2
100
AcDbSymbolTableRecord
100
AcDbLinetypeTableRecord
  2
ByLayer
 70
0
  3

 72
65
 73
0
 40
0.0
  0
LTYPE
  5
26
330
2
100
AcDbSymbolTableRecord
100
AcDbLinetypeTableRecord
  2
Continuous
 70
0
  3

 72
65
 73
0
 40
0.0
  0
ENDTAB
  0
TABLE
  2
LAYER
  5
1
330
0
100
AcDbSymbolTable
 70
4
  0
LAYER
  5
27
330
1
100
AcDbSymbolTableRecord
100
AcDbLayerTableRecord
  2
0
 70
0
 62
7
  6
Continuous
370
-3
390
13
347
21
  0
LAYER
  5
28
330
1
100
AcDbSymbolTableRecord
100
AcDbLayerTableRecord
  2
Defpoints
 70
0
 62
7
  6
Continuous
290
0
370
-3
390
13
347
21
  0
LAYER
  5
2F
330
1
100
AcDbSymbolTableRecord
100
AcDbLayerTableRecord
  2
CUT
 70
0
 62
1
  6
Continuous
370
-3
390
13
347
21
  0
LAYER
  5
30
330
1
100
AcDbSymbolTableRecord
100
AcDbLayerTableRecord
  2
SCORE_OPTIONAL
 70
0
 62
5
  6
Continuous
370
-3
390
13
347
21
  0
ENDTAB
  0
TABLE
  2
STYLE
  5
5
330
0
100
AcDbSymbolTable
 70
1
  0
STYLE
  5
29
330
5
100
AcDbSymbolTableRecord
100
AcDbTextStyleTableRecord
  2
Standard
 70
0
 40
0.0
 41
1.0
 50
0.0
 71
0
 42
2.5
  3
txt
  4

  0
ENDTAB
  0
TABLE
  2
VIEW
  5
7
330
0
100
AcDbSymbolTable
 70
0
  0
ENDTAB
  0
TABLE
  2
UCS
  5
6
330
0
100
AcDbSymbolTable
 70
0
  0
ENDTAB
  0
TABLE
  2
APPID
  5
3
330
0
100
AcDbSymbolTable
 70
3
  0
APPID
  5
2A
330
3
100
AcDbSymbolTableRecord
100
AcDbRegAppTableRecord
  2
ACAD
 70
0
  0
APPID
  5
41
330
3
100
AcDbSymbolTableRecord
100
AcDbRegAppTableRecord
  2
HATCHBACKGROUNDCOLOR
 70
0
  0
APPID
  5
42
330
3
100
AcDbSymbolTableRecord
100
AcDbRegAppTableRecord
  2
EZDXF
 70
0
  0
ENDTAB
  0
TABLE
  2
DIMSTYLE
  5
4
330
0
100
AcDbSymbolTable
 70
1
100
AcDbDimStyleTable
  0
DIMSTYLE
105
2B
330
4
100
AcDbSymbolTableRecord
100
AcDbDimStyleTableRecord
  2
Standard
 70
0
 40
1.0
 41
2.5
 42
0.625
 43
3.75
 44
1.25
 45
0.0
 46
0.0
 47
0.0
 48
0.0
 49
2.5
140
2.5
141
2.5
142
0.0
143
0.03937007874
144
1.0
145
0.0
146
1.0
147
0.625
148
0.0
 69
0
 70
0
 71
0
 72
0
 73
0
 74
0
 75
0
 76
0
 77
1
 78
8
 79
3
170
0
171
3
172
1
173
0
174
0
175
0
176
0
177
0
178
0
179
2
271
2
272
2
273
2
274
3
275
0
276
0
277
2
278
44
279
0
280
0
281
0
282
0
283
0
284
8
285
0
286
0
288
0
289
3
290
0
371
-2
372
-2
  0
ENDTAB
  0
TABLE
  2
BLOCK_RECORD
  5
9
330
0
100
AcDbSymbolTable
 70
2
  0
BLOCK_RECORD
  5
17
330
9
100
AcDbSymbolTableRecord
100
AcDbBlockTableRecord
  2
*Model_Space
340
1A
 70
0
280
1
281
0
  0
BLOCK_RECORD
  5
1B
330
9
100
AcDbSymbolTableRecord
100
AcDbBlockTableRecord
  2
*Paper_Space
340
1E
 70
0
280
1
281
0
  0
ENDTAB
  0
ENDSEC
  0
SECTION
  2
BLOCKS
  0
BLOCK
  5
18
330
17
100
AcDbEntity
  8
0
100
AcDbBlockBegin
  2
*Model_Space
 70
0
 10
0.0
 20
0.0
 30
0.0
  3
*Model_Space
  1

  0
ENDBLK
  5
19
330
17
100
AcDbEntity
  8
0
100
AcDbBlockEnd
  0
BLOCK
  5
1C
330
1B
100
AcDbEntity
  8
0
100
AcDbBlockBegin
  2
*Paper_Space
 70
0
 10
0.0
 20
0.0
 30
0.0
  3
*Paper_Space
  1

  0
ENDBLK
  5
1D
330
1B
100
AcDbEntity
  8
0
100
AcDbBlockEnd
  0
ENDSEC
  0
SECTION
  2
ENTITIES
  0
LWPOLYLINE
  5
31
330
17
100
AcDbEntity
  8
CUT
100
AcDbPolyline
 90
111
 70
1
 10
67.42886671649025
 20
60.35826541990143
 10
67.1719129536028
 20
60.30699934742157
 10
66.91047250517133
 20
60.28981233885396
 10
6.959112782483609
 20
60.288471833022726
 10
6.460736110692831
 20
60.266769139237816
 10
6.03794077825762
 20
60.22129478563256
 10
5.682918042966458
 20
60.16259284789378
 10
5.109954469384959
 20
60.02714608435888
 10
4.797083255088739
 20
59.931535743439355
 10
4.397806815447004
 20
59.785043876230795
 10
3.948940983480156
 20
59.5866582224222
 10
3.4305046498220295
 20
59.30731157089802
 10
3.153003177557969
 20
59.13386123484533
 10
2.8051901569379014
 20
58.888866436734354
 10
2.3490949672516006
 20
58.516080475512325
 10
2.0864688175037873
 20
58.26973727201007
 10
1.7930638398373773
 20
57.96149379329363
 10
1.3988589454150206
 20
57.4804371206382
 10
1.1542291103877858
 20
57.13210519801048
 10
0.964215063101869
 20
56.82608187797119
 10
0.7455175786810572
 20
56.423139930295164
 10
0.5666175845707548
 20
56.0368022500222
 10
0.34773334285918456
 20
55.45437313915332
 10
0.22788681287206225
 20
55.04577614964541
 10
0.1461782223403809
 20
54.69482431156533
 10
0.05186463501841392
 20
54.11285202480004
 10
0.013915493671231694
 20
53.68869033180002
 10
0.00013385985048068832
 20
53.25478475806499
 10
0.0
 20
7.051413448277074
 10
0.012309936909447615
 20
6.633852623781152
 10
0.05560424998694807
 20
6.144404941188014
 10
0.15308606105550787
 20
5.5629565106567895
 10
0.22788681287203277
 20
5.244036189208643
 10
0.34773334285918117
 20
4.8354391997006445
 10
0.5160421099733575
 20
4.373891152553625
 10
0.7455175786809325
 20
3.8666724085590403
 10
0.9810371592884475
 20
3.4356226173645013
 10
1.2087587052530613
 20
3.075976082064571
 10
1.3988589454151632
 20
2.80937521821555
 10
1.7710895760136827
 20
2.352599580427679
 10
2.0170658077438253
 20
2.089581618906678
 10
2.3248501032803413
 20
1.7957389105544053
 10
2.8051901569379516
 20
1.4009459021195596
 10
3.1530031775575273
 20
1.1559511040089205
 10
3.543571601998766
 20
0.9165050205949683
 10
3.860912316113613
 20
0.7466298158469584
 10
4.246674478080521
 20
0.5674629209578939
 10
4.828235957774831
 20
0.348252125995856
 10
5.23622426979924
 20
0.22822679705244298
 10
5.586653303044418
 20
0.146396305530331
 10
6.167758639155072
 20
0.0519420118320113
 10
6.591288468293229
 20
0.013936254186717179
 10
7.024547662932195
 20
0.0001340595558900759
 10
221.5754523370678
 20
0.0001340595558900759
 10
222.10665206124398
 20
0.020365192683513555
 10
222.5944263362619
 20
0.073325924036169
 10
223.01334669695578
 20
0.14639630553037364
 10
223.33203507285234
 20
0.22026431475306651
 10
223.77176404222516
 20
0.3482521259958702
 10
224.23262453192268
 20
0.5168119928447368
 10
224.7390876838862
 20
0.7466298158468874
 10
225.14142937826395
 20
0.9656535748955122
 10
225.555511791136
 20
1.2292115143879982
 10
225.9245901233435
 20
1.5006783828566341
 10
226.17711144614339
 20
1.7089200761490275
 10
226.49001827728586
 20
1.9972853492881342
 10
226.8289104239866
 20
2.35259958042802
 10
227.18164901508158
 20
2.78305403533264
 10
227.44577088961248
 20
3.157707140843854
 10
227.70075507230067
 20
3.5775022729824144
 10
227.89789335599056
 20
3.9548324058343667
 10
228.03338241542937
 20
4.253010088832028
 10
228.21070761959214
 20
4.71115952654192
 10
228.3721131871283
 20
5.2440361892098935
 10
228.4788276845426
 20
5.723637106410635
 10
228.5315845157927
 20
6.046948777977832
 10
228.57699112730523
 20
6.470374878479788
 10
228.6
 20
7.051413448277046
 10
228.6
 20
53.23839889057691
 10
228.57966514487302
 20
53.78677697874503
 10
228.53158451579264
 20
54.242863560876586
 10
228.45382177765967
 20
54.694824311565164
 10
228.34670992245663
 20
55.14072386549291
 10
228.1996841547651
 20
55.60950729581818
 10
228.03338241542954
 20
56.03680225002156
 10
227.89789335599067
 20
56.33497993301938
 10
227.7007550723006
 20
56.712310065871634
 10
227.4457708896119
 20
57.13210519801093
 10
227.18164901508206
 20
57.50675830352072
 10
226.82891042398646
 20
57.93721275842614
 10
226.5135311824957
 20
58.26973727201057
 10
226.17711144614375
 20
58.58089226270461
 10
225.7948098430622
 20
58.88886643673429
 10
225.52860612835374
 20
59.07925028731441
 10
225.16949535017758
 20
59.307311570898264
 10
224.7681937821312
 20
59.528209742002005
 10
224.32330393412505
 20
59.73538367109861
 10
223.89585857882918
 20
59.899939173409834
 10
223.3637757302007
 20
60.06158554180153
 10
222.88488926339122
 20
60.16845924650195
 10
222.46474823672426
 20
60.23412513292446
 10
222.13926388930693
 20
60.26676913923784
 10
221.55909087922768
 20
60.28981233885396
 10
161.68952749482867
 20
60.28981233885396
 10
161.4280870463972
 20
60.30699934742157
 10
161.04572202835126
 20
60.39642566862578
 10
114.9593205079509
 20
76.08917931767768
 10
114.65841878333724
 20
76.16782913952461
 10
114.33275918298402
 20
76.19999999999997
 10
114.00622186272648
 20
76.17853354461947
 10
113.64067949204912
 20
76.08917931767768
  0
LWPOLYLINE
  5
32
330
17
100
AcDbEntity
  8
CUT
100
AcDbPolyline
 90
125
 70
1
 10
208.39124632185417
 20
28.485045757098007
 10
208.5125053897377
 20
29.120244503702402
 10
208.56669700140748
 20
29.32373105625458
 10
208.68652324864001
 20
29.65870892265528
 10
208.84484963250367
 20
29.97721184544166
 10
208.94750341247496
 20
30.14076139653931
 10
209.15761424530106
 20
30.410525543067422
 10
209.39882255578644
 20
30.64941571320388
 10
209.6694663878041
 20
30.859267352830294
 10
209.9550923216013
 20
31.035343057845317
 10
210.28011283228446
 20
31.195897580566623
 10
210.62815539293305
 20
31.334090274340298
 10
210.9961949454995
 20
31.452768092649976
 10
211.38684287328442
 20
31.556391529867064
 10
211.98270594936957
 20
31.684472654678757
 10
213.23156971624303
 20
31.89770694045196
 10
213.09309946767033
 20
30.847401949287104
 10
212.9548461341445
 20
30.04218838199221
 10
212.81676906697444
 20
29.468417187531827
 10
212.62219539224645
 20
28.8926165778009
 10
212.59694925424597
 20
28.778495106338667
 10
212.59849225133448
 20
28.62285424675325
 10
212.65637600659724
 20
28.43742705543498
 10
212.77046703798996
 20
28.280210615584544
 10
212.89434163562652
 20
28.185968681856046
 10
213.00093308721077
 20
28.138017246196533
 10
213.11479867729483
 20
28.111641023429506
 10
213.62134045621679
 20
28.09911441661815
 10
213.81112219139195
 20
28.060995984235802
 10
214.04057094793987
 20
27.98487379765247
 10
214.15915709685575
 20
27.973643960391627
 10
214.27762473477017
 20
27.986061799438033
 10
214.46220567316004
 20
28.057564669167405
 10
214.9046142846228
 20
28.385579527187623
 10
215.29244602571433
 20
28.626775520139404
 10
215.69137874352035
 20
28.82316545619787
 10
215.9071837746192
 20
28.90764974692778
 10
216.2901323034424
 20
29.020312912145783
 10
216.68982888636737
 20
29.08789212962239
 10
217.09006511915473
 20
29.105920642420912
 10
217.50706330514387
 20
29.074241781753607
 10
217.8918105152226
 20
29.00203423303102
 10
218.29296498449668
 20
28.88617180510733
 10
218.69410042807422
 20
28.732748275373645
 10
219.10271337705163
 20
28.54233583036249
 10
219.5018225025435
 20
28.32780897895099
 10
220.097181261645
 20
27.966047338975066
 10
221.4984063294081
 20
27.006572435860278
 10
220.097181261645
 20
26.04709753274549
 10
219.5018225025435
 20
25.685335892769565
 10
219.10271337705163
 20
25.470809041358066
 10
218.69410042807422
 20
25.28039659634691
 10
218.29296498449668
 20
25.126973066613225
 10
217.8918105152226
 20
25.011110638689537
 10
217.50706330514387
 20
24.93890308996695
 10
217.09006511915473
 20
24.907224229299644
 10
216.68982888636737
 20
24.925252742098166
 10
216.2901323034424
 20
24.992831959574772
 10
215.9071837746192
 20
25.105495124792775
 10
215.69137874352035
 20
25.189979415522686
 10
215.29244602571433
 20
25.386369351581152
 10
214.9046142846228
 20
25.627565344532933
 10
214.46220567316004
 20
25.95558020255315
 10
214.27762473477017
 20
26.027083072282522
 10
214.15915709685575
 20
26.03950091132893
 10
214.04057094793987
 20
26.028271074068087
 10
213.81112219139195
 20
25.952148887484753
 10
213.62134045621679
 20
25.914030455102406
 10
213.11479867729483
 20
25.90150384829105
 10
213.00093308721077
 20
25.875127625524023
 10
212.89434163562652
 20
25.82717618986451
 10
212.77046703798996
 20
25.732934256136012
 10
212.65637600659724
 20
25.575717816285575
 10
212.59849225133448
 20
25.390290624967307
 10
212.59694925424597
 20
25.23464976538189
 10
212.62219539224645
 20
25.120528293919655
 10
212.81676906697444
 20
24.54472768418873
 10
212.9548461341445
 20
23.970956489728344
 10
213.0938930920049
 20
23.1603219130629
 10
213.23157358623064
 20
22.115441668472265
 10
211.98270594936957
 20
22.3286722170418
 10
211.38684287328442
 20
22.456753341853492
 10
210.9961949454995
 20
22.56037677907058
 10
210.62815539293305
 20
22.679054597380258
 10
210.28011283228446
 20
22.817247291153933
 10
209.9550923216013
 20
22.97780181387524
 10
209.65591610165842
 20
23.163265622637923
 10
209.38511658326524
 20
23.375798644584023
 10
209.15761424530106
 20
23.602619328653134
 10
209.0366138034083
 20
23.7490171343223
 10
208.85456261179831
 20
24.019290610371876
 10
208.69364521530963
 20
24.337740694057032
 10
208.56669700140748
 20
24.689413815465976
 10
208.4741809245818
 20
25.074398458208947
 10
208.4240109130467
 20
25.413628490187932
 10
208.39124632185417
 20
25.52809911462255
 10
208.33652277885088
 20
25.633845869351155
 10
208.26199533399142
 20
25.72670437600072
 10
208.17059892821436
 20
25.803017804081875
 10
208.0659328134926
 20
25.859780879434787
 10
207.95211881186844
 20
25.894758233948224
 10
207.8336389953272
 20
25.906572435860276
 10
202.28613639623651
 20
25.914030455102406
 10
202.09635466106135
 20
25.952148887484753
 10
201.9742582122741
 20
25.996602483149516
 10
201.81003137979383
 20
26.084383553932156
 10
201.7108070651999
 20
26.156400669023697
 10
201.56810501230876
 20
26.297826225774052
 10
201.49405872839972
 20
26.395545606205737
 10
201.39540580932137
 20
26.578964155503797
 10
201.352311736329
 20
26.70154704928121
 10
201.31400169626525
 20
26.898771299391903
 10
201.31400169626525
 20
27.114373572328645
 10
201.36085274252062
 20
27.33975374651294
 10
201.44598392041632
 20
27.537742479680027
 10
201.56810501230876
 20
27.715318645946503
 10
201.71080706519996
 20
27.85674420269691
 10
201.89007380348983
 20
27.976526407711688
 10
202.08926433061876
 20
28.059033825544724
 10
202.28613639623651
 20
28.09911441661815
 10
202.4158884802318
 20
28.10657243586028
 10
207.9129155856521
 20
28.111832810287495
 10
208.1020505423991
 20
28.169957824245515
 10
208.20272876327383
 20
28.233526197954184
 10
208.28887198067454
 20
28.31572345089073
  0
LWPOLYLINE
  5
33
330
17
100
AcDbEntity
  8
CUT
100
AcDbPolyline
 90
122
 70
1
 10
180.59793215603057
 20
35.96532501265777
 10
192.04794443054485
 20
35.97079338144798
 10
192.77094109491176
 20
36.02224721855224
 10
193.6671142751179
 20
36.14399872518572
 10
194.41096796876153
 20
36.28518020529472
 10
194.8601289181092
 20
36.421811862217695
 10
194.8601260505351
 20
31.19526319770806
 10
194.6077069074497
 20
31.195258348675182
 10
194.5888697698577
 20
31.824832218486563
 10
194.55383579952726
 20
32.11387145059213
 10
194.4999819302895
 20
32.39085121902707
 10
194.35359849830883
 20
32.861234864899046
 10
194.2472133900965
 20
33.099301309122
 10
194.11780474928395
 20
33.330740906228215
 10
193.8673719993333
 20
33.67316678732818
 10
193.58514378934595
 20
33.95535775293993
 10
193.2700764591344
 20
34.1870020169969
 10
192.8759338720912
 20
34.3946095662867
 10
192.59971717260262
 20
34.49934835779275
 10
192.35935158108524
 20
34.568816540223416
 10
192.09869710311395
 20
34.624790654468036
 10
191.78100590138467
 20
34.669089002647155
 10
188.4749882293292
 20
34.67067196559513
 10
188.24494649495665
 20
34.62491381961493
 10
188.07176554465005
 20
34.533796308010274
 10
187.92185485281618
 20
34.393389623037095
 10
187.8196058547244
 20
34.226538836823856
 10
187.7732803905508
 20
34.087081706315715
 10
187.7544091265587
 20
33.91181675276432
 10
187.75537226700934
 20
28.311187714845452
 10
187.78566651867465
 20
28.127698138473463
 10
187.84563091492646
 20
27.982931279782626
 10
187.96065194374467
 20
27.82461449166746
 10
188.10441145238062
 20
27.706634111949747
 10
188.28212571735682
 20
27.62470925312119
 10
188.4749882293292
 20
27.591571752525972
 10
190.61787765193696
 20
27.594090980875606
 10
190.9395887199857
 20
27.624895404263746
 10
191.25163480949413
 20
27.687238868519728
 10
191.53490667710918
 20
27.77618540253951
 10
191.8137549505373
 20
27.899253204081887
 10
192.09407179610278
 20
28.06553046546663
 10
192.38134162261025
 20
28.290258759696542
 10
192.61857092158064
 20
28.52858138231121
 10
192.83921689508108
 20
28.815937939292624
 10
193.03214992225614
 20
29.16649328179041
 10
193.17463965950438
 20
29.575810422272376
 10
193.24635486887803
 20
29.983433940900575
 10
193.26256377069438
 20
30.48323998506782
 10
193.51498291377982
 20
30.48324483410068
 10
193.51567441018335
 20
23.445445487865513
 10
193.50641667806994
 20
23.428414463491563
 10
193.26256545788237
 20
23.42897438810101
 10
193.2446087444251
 20
23.900734509773407
 10
193.16462453684508
 20
24.347619152628603
 10
193.0333661738226
 20
24.72731306039563
 10
192.82999627442115
 20
25.10324673842893
 10
192.63488637362695
 20
25.3628340118983
 10
192.37960539635984
 20
25.624636783766576
 10
192.12437298012566
 20
25.828072584276683
 10
191.82068292687669
 20
26.011681800240673
 10
191.5441524699133
 20
26.134268408521216
 10
191.25815859010424
 20
26.2242805693462
 10
190.99944806441
 20
26.278428377325746
 10
190.67665121200415
 20
26.314858544919502
 10
188.4749882293291
 20
26.32064430783079
 10
188.29149865295614
 20
26.290350056165288
 10
188.14673179426595
 20
26.230385659913615
 10
187.9884150061503
 20
26.11536463109494
 10
187.87043462643265
 20
25.97160512245876
 10
187.78850976760472
 20
25.793890857483845
 10
187.75537226700934
 20
25.601028345511317
 10
187.7547303740729
 20
20.234568090657724
 10
187.7656205788658
 20
20.117443060586083
 10
187.8045805936233
 20
19.975751645420246
 10
187.87043462643297
 20
19.844383512891888
 10
187.9606519437459
 20
19.728387066660602
 10
188.07176554465093
 20
19.632219985104676
 10
188.1995053957795
 20
19.559577915235984
 10
188.33896252629006
 20
19.513252451061625
 10
188.4749882293292
 20
19.495344327520428
 10
190.95448098336416
 20
19.49500922114339
 10
191.38691273206442
 20
19.51911821662521
 10
191.79896312647068
 20
19.577020221659154
 10
192.14290459603706
 20
19.653352328568282
 10
192.53600359987047
 20
19.774146756471858
 10
192.91184192269884
 20
19.925728379438468
 10
193.43994453891253
 20
20.203912415239223
 10
193.93119349071117
 20
20.541023208074137
 10
194.3892119738499
 20
20.938524324330956
 10
194.81395054628442
 20
21.39642088180282
 10
195.04547966327155
 20
21.690460156373597
 10
195.25129636056522
 20
21.9872954956326
 10
195.59092074588196
 20
22.578416601953457
 10
195.7555205368309
 20
22.92797478982021
 10
195.90552136191815
 20
23.298498321459086
 10
196.03725392664848
 20
23.680684409820557
 10
196.15572639512772
 20
24.087468206705132
 10
196.40816093081855
 20
24.08745901633015
 10
195.44399782993762
 20
18.2006668120585
 10
180.59793384321853
 20
18.20068959326985
 10
180.59793215603054
 20
18.453108952300965
 10
181.06035855787505
 20
18.45885059328505
 10
181.36787460004288
 20
18.512050442926963
 10
181.68349912528558
 20
18.6405512525959
 10
181.96429018242824
 20
18.837331157911514
 10
182.18526457747464
 20
19.065948555138412
 10
182.35981063268673
 20
19.327184211934387
 10
182.47473699590043
 20
19.599771080899593
 10
182.5392658950779
 20
19.90014761020062
 10
182.55150435500343
 20
20.07936297859976
 10
182.55150435500343
 20
34.08665331451579
 10
182.51224418933398
 20
34.42535090920815
 10
182.41242483779402
 20
34.7312762846633
 10
182.24552436592882
 20
35.021364789232
 10
182.02690675869806
 20
35.27156432119055
 10
181.87783549266632
 20
35.39905292160835
 10
181.72943586875152
 20
35.499226230049516
 10
181.5734426534225
 20
35.58004823076384
 10
181.4099255801962
 20
35.64158453094243
 10
181.08045957815608
 20
35.705528840346894
 10
180.59793384321853
 20
35.71290565362666
  0
LWPOLYLINE
  5
34
330
17
100
AcDbEntity
  8
CUT
100
AcDbPolyline
 90
87
 70
1
 10
151.6856884379094
 20
18.453108952300965
 10
152.19324755051778
 20
18.456255983825535
 10
152.48260874922502
 20
18.49044900916404
 10
152.81241825837662
 20
18.585877198189557
 10
153.10951197900107
 20
18.73366118048672
 10
153.3880331011809
 20
18.938566458017107
 10
153.6112488805677
 20
19.182656207343108
 10
153.78010308183605
 20
19.468862656155252
 10
153.8950750299661
 20
19.797183955328578
 10
153.9444644455611
 20
20.05742922556056
 10
156.1778584665618
 20
36.32064627065557
 10
156.3963305005384
 20
36.321198236550835
 10
156.4160824271067
 20
36.30713049636634
 10
164.31984513630053
 20
25.51169227214774
 10
164.4543421250308
 20
25.380359773580253
 10
164.5900368882384
 20
25.298663993642194
 10
164.73023027775537
 20
25.249570107677812
 10
164.91703814454885
 20
25.228582347866485
 10
165.07429468999086
 20
25.24749393524838
 10
165.25080024198147
 20
25.312173570949916
 10
165.38304239626072
 20
25.39934743086898
 10
165.5120589390327
 20
25.536067571480146
 10
172.74087527048377
 20
36.30711522953218
 10
172.75953839979726
 20
36.32120552593077
 10
172.97824185382024
 20
36.320656886398176
 10
175.28587665617275
 20
20.07066036130653
 10
175.3315309817986
 20
19.847148122660663
 10
175.43457234860503
 20
19.54029038058716
 10
175.5841934311557
 20
19.259790443124324
 10
175.7726516292901
 20
19.02236453292143
 10
176.0008643502697
 20
18.8223100276037
 10
176.3232137285901
 20
18.629352975247585
 10
176.66735069202434
 20
18.50861776593024
 10
177.00135994802912
 20
18.45835998530446
 10
177.54655128230286
 20
18.453110639488898
 10
177.54655296949082
 20
18.200691280457782
 10
168.53802558028133
 20
18.20068959326985
 10
168.53802389309337
 20
18.42772892902508
 10
168.97992107897835
 20
18.42932311667601
 10
169.14429577762172
 20
18.451204833027568
 10
169.3510351231689
 20
18.52984780961954
 10
169.55107957430778
 20
18.67599540800714
 10
169.7157581082118
 20
18.86612966593411
 10
169.8354394061632
 20
19.071164063832853
 10
169.90800599322944
 20
19.287010551055594
 10
169.93204090979575
 20
19.52013601692243
 10
169.21093177978057
 20
25.041879858307
 10
169.1164529842599
 20
25.26671616017235
 10
168.954800250365
 20
25.449325029246722
 10
168.7430839479785
 20
25.570377962890262
 10
168.50371349855777
 20
25.617061936418196
 10
168.3188348508715
 20
25.599449363245697
 10
168.17048616034154
 20
25.54967267040727
 10
168.00481530583338
 20
25.446033078913715
 10
167.87729329653484
 20
25.311020286007043
 10
164.64188786012554
 20
20.514830002506073
 10
164.1752108297352
 20
19.72036245856939
 10
163.98122375110492
 20
19.312162660428605
 10
163.79031031138192
 20
18.84570279179303
 10
163.69013243421423
 20
18.522457803188956
 10
163.62707842325216
 20
18.221106769030555
 10
163.59328521990003
 20
17.92472345185938
 10
163.5874942976901
 20
17.591595330707406
 10
163.35440375172084
 20
17.598603689501417
 10
157.8590600055038
 20
25.205697207154437
 10
157.75893886650175
 20
25.31078040596747
 10
157.60627968916768
 20
25.412945694554317
 10
157.46162480570385
 20
25.467978560702228
 10
157.31840855840335
 20
25.491554558169014
 10
157.0782731906273
 20
25.468572750599755
 10
156.94212827305265
 20
25.418260897465906
 10
156.82599997837667
 20
25.348420458900215
 10
156.7447553179195
 20
25.27956311479246
 10
156.65128666723487
 20
25.1685210845246
 10
156.5848720268463
 20
25.050400115912304
 10
156.53856296458784
 20
24.91284215758303
 10
155.87270268515965
 20
19.56526061637154
 10
155.88853898039036
 20
19.33458118506141
 10
155.95431856941212
 20
19.10832326142006
 10
156.07264586208973
 20
18.891183816230864
 10
156.2400101369767
 20
18.69022057946568
 10
156.4336207802741
 20
18.541755297083135
 10
156.64485107761558
 20
18.45531092849879
 10
156.83057723744508
 20
18.429128419220326
 10
157.26791268487523
 20
18.42773061621302
 10
157.26791437206316
 20
18.200691280457782
 10
151.69426745793047
 20
18.200128590280293
  0
LWPOLYLINE
  5
35
330
17
100
AcDbEntity
  8
CUT
100
AcDbPolyline
 90
64
 70
1
 10
167.59424615176178
 20
49.95840025219502
 10
167.59874178594518
 20
49.71311048387891
 10
167.57917317077874
 20
49.46856120363492
 10
167.53572876272358
 20
49.227107554714976
 10
167.46882695517922
 20
48.99107486775417
 10
167.37911204912342
 20
48.762736266551656
 10
167.267448048145
 20
48.54429077666164
 10
167.13491033761605
 20
48.337842147567564
 10
166.98277532814004
 20
48.145378592421665
 10
166.81250816302506
 20
47.96875364047298
 10
166.62574860814746
 20
47.809668286560566
 10
166.42429526011432
 20
47.669654609608
 10
166.2100882247928
 20
47.5500610178636
 10
165.98519043303085
 20
47.45203926299252
 10
165.75176777350424
 20
47.37653334807808
 10
165.51206823402646
 20
47.32427043635677
 10
165.2684002521957
 20
47.29575384823825
 10
165.023110483879
 20
47.2912582140548
 10
164.77856120363495
 20
47.31082682922122
 10
164.53710755471621
 20
47.35427123727613
 10
164.30107486775339
 20
47.42117304482099
 10
164.07273626655146
 20
47.51088795087664
 10
163.8542907766618
 20
47.62255195185489
 10
163.6478421475677
 20
47.755089662383824
 10
163.45537859242194
 20
47.90722467185967
 10
163.2787536404733
 20
48.07749183697463
 10
163.1196682865607
 20
48.26425139185236
 10
162.9796546096083
 20
48.46570473988516
 10
162.86006101786407
 20
48.67991177520631
 10
162.76203926299252
 20
48.90480956696919
 10
162.68653334807811
 20
49.138232226495624
 10
162.6342704363568
 20
49.37793176597353
 10
162.6057538482382
 20
49.62159974780495
 10
162.6012582140548
 20
49.866889516121034
 10
162.62082682922133
 20
50.111438796365945
 10
162.6642712372761
 20
50.352892445283615
 10
162.73117304482076
 20
50.58892513224578
 10
162.82088795087665
 20
50.8172637334485
 10
162.93255195185435
 20
51.03570922333721
 10
163.06508966238394
 20
51.242157852432385
 10
163.21722467185995
 20
51.43462140757829
 10
163.38749183697493
 20
51.61124635952697
 10
163.57425139185253
 20
51.77033171343939
 10
163.77570473988595
 20
51.910345390392145
 10
163.9899117752072
 20
52.02993898213636
 10
164.21480956696914
 20
52.127960737007434
 10
164.44823222649575
 20
52.20346665192187
 10
164.6879317659735
 20
52.25572956364317
 10
164.93159974780428
 20
52.28424615176171
 10
165.17688951612098
 20
52.28874178594515
 10
165.42143879636504
 20
52.26917317077873
 10
165.66289244528377
 20
52.22572876272382
 10
165.8989251322466
 20
52.15882695517896
 10
166.12726373344853
 20
52.069112049123305
 10
166.3457092233382
 20
51.95744804814507
 10
166.55215785243274
 20
51.82491033761579
 10
166.74462140757805
 20
51.672775328140276
 10
166.92124635952734
 20
51.502508163024636
 10
167.08033171343928
 20
51.31574860814759
 10
167.2203453903925
 20
51.114295260113465
 10
167.33993898213592
 20
50.900088224793635
 10
167.43796073700747
 20
50.675190433030764
 10
167.5134666519219
 20
50.44176777350426
 10
167.5657295636432
 20
50.20206823402643
  0
LWPOLYLINE
  5
36
330
17
100
AcDbEntity
  8
CUT
100
AcDbPolyline
 90
89
 70
1
 10
141.1841765101082
 20
36.28710994829801
 10
142.28356682075346
 20
36.180632643781486
 10
143.30912319445488
 20
36.00470246481372
 10
144.27723179122
 20
35.758382443424814
 10
144.65463653520942
 20
35.63802004007217
 10
145.18790204319257
 20
35.441669859156356
 10
145.5424821119862
 20
35.292428029672806
 10
146.04013913189635
 20
35.055319195585156
 10
146.36852594510074
 20
34.87955619603865
 10
146.82359883060494
 20
34.60698891050928
 10
147.1238369942479
 20
34.40611441837108
 10
147.53736967467128
 20
34.0976249785714
 10
147.80922482564787
 20
33.87161608874699
 10
148.17847966502717
 20
33.529815189988696
 10
148.4240309698471
 20
33.27650021435165
 10
148.7539020010954
 20
32.89671412112527
 10
148.96828265429355
 20
32.620825466686206
 10
149.2592582372113
 20
32.20107471071291
 10
149.5219145520722
 20
31.76454116654154
 10
149.6855483386635
 20
31.45473950006346
 10
149.8379127894563
 20
31.131519799056626
 10
150.03271447473685
 20
30.652010360991397
 10
150.2562208321301
 20
29.957374433462512
 10
150.38561762139682
 20
29.42764315912011
 10
150.45809589544038
 20
29.05211388902501
 10
150.53953852962553
 20
28.489716223816174
 10
150.57843751021556
 20
28.099130090164692
 10
150.6046691221267
 20
27.6935460732023
 10
150.61901081490083
 20
27.084145337455602
 10
150.57864297418774
 20
26.077237182853196
 10
150.53904255740596
 20
25.68253447341221
 10
150.45737358722113
 20
25.122923025277686
 10
150.38467189966644
 20
24.74879856418641
 10
150.25621696633823
 20
24.224882683574954
 10
150.03273339224987
 20
23.53096762457428
 10
149.83788199194933
 20
23.050814588699517
 10
149.68556804637348
 20
22.72684480749053
 10
149.5219718629802
 20
22.415858560900787
 10
149.25925273663196
 20
21.97674505115711
 10
148.968274557744
 20
21.554529320283606
 10
148.75390347310136
 20
21.277128194936402
 10
148.42403325470838
 20
20.895383024303797
 10
148.17847176859635
 20
20.64085349322847
 10
147.80923895183798
 20
20.297600593938142
 10
147.53736107097703
 20
20.070710580190713
 10
147.12386203295992
 20
19.761240323168067
 10
146.82358600692973
 20
19.55981006382516
 10
146.51515630957235
 20
19.370806572876795
 10
146.0425863586464
 20
19.112013364689105
 10
145.53858326094678
 20
18.871846565788587
 10
145.1840131958657
 20
18.7228090166111
 10
144.65082154530722
 20
18.52669288647077
 10
144.27961931794982
 20
18.408349692639682
 10
143.31137515163135
 20
18.161791060102324
 10
142.2856546957855
 20
17.985662571660853
 10
141.17487323030167
 20
17.878678235226936
 10
141.17488476251242
 20
19.247480447483085
 10
141.6929534952598
 20
19.419228866422863
 10
142.14497233733832
 20
19.642123996886554
 10
142.57377048788172
 20
19.93086404565726
 10
142.9604679904521
 20
20.270433315484645
 10
143.32382569969184
 20
20.672889967846466
 10
143.64906762756704
 20
21.123289413410248
 10
143.94107007760874
 20
21.62642646427448
 10
144.19980525275713
 20
22.182253097905793
 10
144.38641499505772
 20
22.67525128473808
 10
144.57926949514638
 20
23.30940836949621
 10
144.71160887663464
 20
23.866276059324846
 10
144.81844318929853
 20
24.445727309331723
 10
144.90254096395344
 20
25.062127098128073
 10
144.9622224883816
 20
25.70510247262068
 10
144.99805401953196
 20
26.378107530245025
 10
145.0100396787428
 20
27.081131468408486
 10
144.9981947416456
 20
27.78384898531477
 10
144.9622224883816
 20
28.460913820494596
 10
144.9025409639536
 20
29.103889194985804
 10
144.81844318929868
 20
29.720288983782986
 10
144.71160887663632
 20
30.299740233782856
 10
144.57926949514518
 20
30.856607923623898
 10
144.38641499505846
 20
31.490765008375426
 10
144.19980525275676
 20
31.983763195210713
 10
143.94107007760977
 20
32.5395898288392
 10
143.64906762756752
 20
33.042726879704574
 10
143.32382569969272
 20
33.49312632526799
 10
142.9604679904533
 20
33.89558297762968
 10
142.57377048788177
 20
34.23515224745823
 10
142.14497233733843
 20
34.52389229622894
 10
141.692953495261
 20
34.7467874266922
 10
141.17488476251242
 20
34.91853584563247
  0
LWPOLYLINE
  5
37
330
17
100
AcDbEntity
  8
CUT
100
AcDbPolyline
 90
88
 70
1
 10
138.04959043474156
 20
36.20712709176758
 10
138.9722582114915
 20
36.288747885614065
 10
138.97224798166292
 20
34.92106093766328
 10
138.52411562599616
 20
34.77689675207984
 10
138.07069079564423
 20
34.56373749386774
 10
137.64583504505376
 20
34.29007424363055
 10
137.24994401128052
 20
33.956741140811225
 10
136.8861313390179
 20
33.56932211580992
 10
136.5555020789906
 20
33.12947653326293
 10
136.2580002802879
 20
32.63716281292897
 10
135.9916422165366
 20
32.08778368213039
 10
135.7622836960082
 20
31.494939787789477
 10
135.5653299177003
 20
30.846597305764995
 10
135.4055002529093
 20
30.151335461083633
 10
135.28352139268193
 20
29.414115108491963
 10
135.19773817120824
 20
28.624473010694636
 10
135.14922237231752
 20
27.787908762872895
 10
135.13796566948326
 20
26.906380434740612
 10
135.1637889060995
 20
26.044906367644664
 10
135.2112106509872
 20
25.387524949247833
 10
135.2637986739976
 20
24.902818663632956
 10
135.35288357756494
 20
24.300640696509085
 10
135.46497197870133
 20
23.730943487962996
 10
135.60062580141707
 20
23.19007585473488
 10
135.72342181566987
 20
22.786482749477052
 10
135.8971004161144
 20
22.30633195948331
 10
136.09318578880757
 20
21.854130065226222
 10
136.37012591029477
 20
21.33058285806259
 10
136.62790726708363
 20
20.93176588252979
 10
136.96284316151207
 20
20.50750662781568
 10
137.32669511888471
 20
20.138080520644948
 10
137.72217524420998
 20
19.82087121000599
 10
138.0881873253376
 20
19.592676718524935
 10
138.5241156259968
 20
19.389119541035456
 10
138.97224798166292
 20
19.244955355452284
 10
138.9722622620846
 20
17.877272234782275
 10
138.0463151953391
 20
17.959287907751644
 10
137.01070466812945
 20
18.121634895332512
 10
136.03954138779378
 20
18.352735848730568
 10
135.65884590999562
 20
18.46734947265041
 10
135.12086644974602
 20
18.655367236603716
 10
134.42151938188005
 20
18.951135976864713
 10
133.93456711796009
 20
19.195591059319902
 10
133.61335727212915
 20
19.376393197909643
 10
133.17134535744816
 20
19.6543616757776
 10
132.87797565342993
 20
19.860106536855604
 10
132.47438998549782
 20
20.175531104039813
 10
132.20909558894724
 20
20.406395329435192
 10
131.95876454639892
 20
20.644186924417262
 10
131.61312397239166
 20
21.009687715281046
 10
131.3876734057362
 20
21.275632549645074
 10
131.08500823466565
 20
21.674360910701374
 10
130.88629358205907
 20
21.967612947915867
 10
130.62536183977883
 20
22.401475126571256
 10
130.31068815117075
 20
23.031475440499015
 10
130.1736674485464
 20
23.35899788712282
 10
129.9977558660983
 20
23.851756083718193
 10
129.80048357220733
 20
24.56462245107503
 10
129.69037509134202
 20
25.10693669442643
 10
129.63204512033064
 20
25.48431004549702
 10
129.58603091027558
 20
25.877034792905917
 10
129.54289395066857
 20
26.466279701135143
 10
129.5347044025208
 20
27.490946770071915
 10
129.55451404867276
 20
27.89794566250272
 10
129.60743302344585
 20
28.476815188220847
 10
129.66025699923262
 20
28.863302155086238
 10
129.76106314360365
 20
29.41009604379449
 10
129.94420382096578
 20
30.1254663056636
 10
130.11069113744273
 20
30.624610939914888
 10
130.24302836632245
 20
30.961234756242213
 10
130.38699094028757
 20
31.284927317283042
 10
130.62126017316314
 20
31.74289430498429
 10
130.80027038446923
 20
32.0496275051336
 10
131.08033811504484
 20
32.47497384159217
 10
131.288778609825
 20
32.7572525075189
 10
131.6098867237549
 20
33.14619136119427
 10
131.84686840300859
 20
33.4033328709122
 10
132.20909072031233
 20
33.75596723175509
 10
132.4744073618544
 20
33.987776962901904
 10
132.87796595879053
 20
34.30427905352604
 10
133.17137317991674
 20
34.51064432503529
 10
133.61718276994281
 20
34.79148559712453
 10
133.93844122408572
 20
34.97234733761798
 10
134.4253625613407
 20
35.21669255689958
 10
134.77363468792606
 20
35.37153158234191
 10
135.29747698596933
 20
35.57592089413524
 10
136.0432937566968
 20
35.81432729545924
 10
137.0142351412603
 20
36.04508371829655
  0
LWPOLYLINE
  5
38
330
17
100
AcDbEntity
  8
CUT
100
AcDbPolyline
 90
124
 70
1
 10
106.02702656460231
 20
35.96532501265777
 10
115.13707404691533
 20
35.96532669984571
 10
115.13707573410326
 20
35.712907340814596
 10
114.68269584482671
 20
35.70774476065016
 10
114.39698892219822
 20
35.66195633956054
 10
114.10202969322691
 20
35.55192801179531
 10
113.8276150265893
 20
35.37605219421454
 10
113.61747248721029
 20
35.17873283690734
 10
113.44314072064357
 20
34.953655934627676
 10
113.31752833885942
 20
34.71974111946217
 10
113.23095809636065
 20
34.46086720331122
 10
113.19574199505593
 20
34.26586868291479
 10
113.18350353513044
 20
34.086653314515594
 10
113.18350353513044
 20
28.477327081736277
 10
113.20459894111943
 20
28.292523303384385
 10
113.27010813777495
 20
28.118469543083002
 10
113.38305077644466
 20
27.958663401648444
 10
113.50085995322239
 20
27.85534752648981
 10
113.67404090352882
 20
27.764230014885406
 10
113.86490380339589
 20
27.7210397853879
 10
119.2509114430608
 20
27.717508728454767
 10
119.38766792282671
 20
27.728720180762018
 10
119.52935933799131
 20
27.76768019551924
 10
119.65240979692929
 20
27.828361966515573
 10
119.7695751231486
 20
27.917055969769216
 10
119.86718580882251
 20
28.026903563841756
 10
119.92412519369749
 20
28.118469543083002
 10
119.97947240422576
 20
28.254598254851715
 10
120.00623869173441
 20
28.389161469101232
 10
120.010729796342
 20
34.106388477074894
 10
119.99432895798242
 20
34.34920120910751
 10
119.9272574778501
 20
34.628948776512274
 10
119.8079860023182
 20
34.88869817409312
 10
119.63542293942092
 20
35.129228260662835
 10
119.41858373032136
 20
35.34155275240998
 10
119.13547482901585
 20
35.53204005946974
 10
118.82046394170267
 20
35.65621311400621
 10
118.51975512819553
 20
35.70716380741498
 10
118.0571592845571
 20
35.71290565362666
 10
118.05715759736917
 20
35.96532501265777
 10
127.1672050796822
 20
35.96532669984571
 10
127.16720676687014
 20
35.712907340814596
 10
126.70478036502533
 20
35.707165699830476
 10
126.3972643228574
 20
35.653965850188484
 10
126.0816397976168
 20
35.52546504052059
 10
125.80084874047289
 20
35.32868513520442
 10
125.57987434542555
 20
35.1000677379765
 10
125.40532829021447
 20
34.83883208118206
 10
125.29040192700008
 20
34.566245212215335
 10
125.2258730278226
 20
34.26586868291321
 10
125.2136345678973
 20
34.086653314515615
 10
125.2136345678973
 20
20.079362978599946
 10
125.25289473356665
 20
19.74066538390791
 10
125.35271408510745
 20
19.434740008450582
 10
125.51961455697146
 20
19.14465150388414
 10
125.7382321642021
 20
18.89445197192554
 10
125.88730343023383
 20
18.766963371507643
 10
126.03570305414935
 20
18.66679006306596
 10
126.19169626947897
 20
18.585968062351398
 10
126.35521334270435
 20
18.52443176217318
 10
126.68467934474421
 20
18.46048745276869
 10
127.1672050796822
 20
18.45311063948889
 10
127.16720676687014
 20
18.200691280457782
 10
118.05715928455712
 20
18.20068959326985
 10
118.05715759736917
 20
18.453108952300965
 10
118.51174245083499
 20
18.458277008143263
 10
118.7984788838791
 20
18.504025825780772
 10
119.09609489760257
 20
18.613868576043686
 10
119.37614523676449
 20
18.790304663600665
 10
119.58546009169434
 20
18.98141532199564
 10
119.75617981990507
 20
19.194612568347956
 10
119.88374228115185
 20
19.425990319761198
 10
119.96770947710415
 20
19.676171246821326
 10
120.00005823279008
 20
19.861829889973315
 10
120.01067818629525
 20
20.049790856739584
 10
120.010729796342
 20
25.68868921137946
 10
119.98963439035302
 20
25.873492989731176
 10
119.92412519369749
 20
26.04754675003256
 10
119.81118255502777
 20
26.20735289146713
 10
119.69337337825006
 20
26.310668766625753
 10
119.52019242794383
 20
26.401786278230077
 10
119.32932952807656
 20
26.44497650772766
 10
113.94332188841165
 20
26.448507564660794
 10
113.80656540864574
 20
26.437296112353543
 10
113.66487399348125
 20
26.39833609759637
 10
113.54182353454316
 20
26.33765432659999
 10
113.42465820832444
 20
26.248960323346864
 10
113.35094926138741
 20
26.170262081651508
 10
113.27010813777495
 20
26.04754675003256
 10
113.21476092724669
 20
25.911418038263847
 10
113.18799463973801
 20
25.776854824014187
 10
113.18350353513044
 20
20.07936297859999
 10
113.20076104943988
 20
19.862299444792377
 10
113.26746305625612
 20
19.577533600184225
 10
113.38516710737623
 20
19.308911757609764
 10
113.55710411931544
 20
19.05694382738369
 10
113.7767495122328
 20
18.83210051898333
 10
114.06318373680679
 20
18.634217323527473
 10
114.36713329009112
 20
18.512050442926913
 10
114.67464933225874
 20
18.458850593285057
 10
115.13707404691534
 20
18.453110639488898
 10
115.13707573410328
 20
18.200691280457782
 10
106.02702825179024
 20
18.20068959326985
 10
106.02702656460231
 20
18.453108952300965
 10
106.48945296644666
 20
18.458850593285042
 10
106.79696900861475
 20
18.51205044292699
 10
107.11259353385663
 20
18.640551252595507
 10
107.39338459099869
 20
18.8373311579104
 10
107.61435898604644
 20
19.06594855513849
 10
107.78890504125782
 20
19.32718421193323
 10
107.90383140447243
 20
19.599771080900418
 10
107.96836030364976
 20
19.90014761020165
 10
107.98059876357514
 20
20.07936297859999
 10
107.98059876357514
 20
34.086653314515566
 10
107.94133859790581
 20
34.42535090920756
 10
107.84151924636521
 20
34.73127628466447
 10
107.67461877450073
 20
35.02136478923176
 10
107.45600116727026
 20
35.27156432119009
 10
107.30692990123842
 20
35.399052921608074
 10
107.15853027732314
 20
35.49922623004957
 10
107.00253706199385
 20
35.580048230764
 10
106.83901998876817
 20
35.64158453094236
 10
106.50955398672828
 20
35.70552884034686
 10
106.02702825179024
 20
35.71290565362667
  0
LWPOLYLINE
  5
39
330
17
100
AcDbEntity
  8
CUT
100
AcDbPolyline
 90
90
 70
1
 10
89.06638510177689
 20
34.06187017665582
 10
89.0667010406879
 20
35.96452768495324
 10
89.8039345876684
 20
35.93439820775319
 10
90.72460762343017
 20
35.840156273334316
 10
91.56957185540696
 20
35.69780805743873
 10
92.29287427450359
 20
35.50629182041485
 10
92.98217076263951
 20
35.246619303483286
 10
93.34070705746961
 20
35.07679400315856
 10
93.61901038800015
 20
34.924014422784516
 10
93.88241318633659
 20
34.75409844498012
 10
94.13030004942887
 20
34.56708249724737
 10
94.36266979035413
 20
34.362961052992844
 10
94.57951920591807
 20
34.141729475705304
 10
94.78084350777026
 20
33.903384713214194
 10
94.96663706224781
 20
33.64792566527078
 10
95.20668357519689
 20
33.2336180039329
 10
95.36958048708044
 20
32.839156887347094
 10
95.50829672950067
 20
32.33451061384343
 10
95.58300921849374
 20
31.86663490290396
 10
95.61970828920899
 20
31.274782255166862
 10
95.60389108940284
 20
30.74914370129956
 10
95.53183843544687
 20
30.189769175353504
 10
95.40137624386901
 20
29.615265799778825
 10
95.26374778728939
 20
29.1727659691214
 10
95.12228719398952
 20
28.81919806334104
 10
94.94573749405414
 20
28.47630684407028
 10
94.7359815244558
 20
28.149567579671825
 10
94.38652533167586
 20
27.719288207710008
 10
93.97602530447963
 20
27.324739162030916
 10
93.62348464328959
 20
27.06559239066994
 10
93.12467811466648
 20
26.782533078758888
 10
92.98060424230411
 20
26.650232659071968
 10
92.87566247989028
 20
26.485163254734317
 10
92.81699819837681
 20
26.29856426271924
 10
92.80618415395135
 20
26.142311905709477
 10
92.83858365269728
 20
25.949410495067234
 10
92.91464792946832
 20
25.779792574453147
 10
93.00283852140284
 20
25.66232811341945
 10
93.35965134467345
 20
25.35498778143068
 10
93.73831372966497
 20
24.98582249536878
 10
94.07579690620084
 20
24.61286630392771
 10
94.36999342225508
 20
24.239379903329528
 10
94.68025877072614
 20
23.77095913057419
 10
95.47595179260605
 20
22.426969769664424
 10
96.33126709111616
 20
21.072037961258168
 10
96.9369199298562
 20
20.218213131854228
 10
97.50133028053847
 20
19.5280693215298
 10
97.76772105506818
 20
19.24828472407551
 10
98.01181079056468
 20
19.029323097766046
 10
98.26036427165681
 20
18.849064302174597
 10
98.50627049420662
 20
18.712284573069283
 10
98.74261916917136
 20
18.61866287260002
 10
99.04814889508229
 20
18.53770485081781
 10
99.38086651718291
 20
18.483489585559823
 10
99.75676035652283
 20
18.45312562613816
 10
99.75678162892034
 20
18.200691280457782
 10
96.47371921893664
 20
18.200244285630966
 10
95.42066743485988
 20
18.227576471104868
 10
94.62016172630891
 20
18.282107447114313
 10
93.95030162131832
 20
18.353645440850293
 10
93.40436780907432
 20
18.437060978085178
 10
92.96421864751552
 20
18.53620667796546
 10
92.45845505263206
 20
18.691495232267542
 10
91.97713998365727
 20
18.886404287197344
 10
91.52027089132467
 20
19.120941303680667
 10
91.16126834806866
 20
19.349818273827744
 10
90.81077505210563
 20
19.6284923210102
 10
90.47884615304895
 20
19.950267446001547
 10
90.16231107425172
 20
20.317398470930854
 10
89.86117669112194
 20
20.72987324990519
 10
89.58965755598079
 20
21.16166582658404
 10
89.39177451953613
 20
21.520933864237122
 10
89.22528691153757
 20
21.880195625589828
 10
89.06674344784645
 20
22.294399863743443
 10
89.06638510177689
 20
27.75694250378629
 10
89.33989706062685
 20
28.071965643147372
 10
89.55192272804074
 20
28.385856747969974
 10
89.7348391308965
 20
28.740131715480658
 10
89.88414222879948
 20
29.137775435013545
 10
90.00465582168428
 20
29.593226395487513
 10
90.09393022787583
 20
30.10395495030157
 10
90.17034321772714
 20
30.775510478388966
 10
90.16849191007643
 20
31.22434163094038
 10
90.13278871644695
 20
31.69425888528832
 10
90.06590341581857
 20
32.174158828735045
 10
89.97090690340397
 20
32.600681155740716
 10
89.84500217401268
 20
32.986536639568236
 10
89.696370559262
 20
33.31232347696063
 10
89.52069004971418
 20
33.59447382685095
 10
89.33626782069342
 20
33.814807189707835
  0
LWPOLYLINE
  5
3A
330
17
100
AcDbEntity
  8
CUT
100
AcDbPolyline
 90
60
 70
1
 10
78.97192175251482
 20
35.96532501265777
 10
86.86407382709852
 20
35.96570340179279
 10
86.86406412740914
 20
34.64527018449375
 10
86.72879332124822
 20
34.62515967678081
 10
86.58995338515994
 20
34.57701601646899
 10
86.47113516441063
 20
34.50841628473471
 10
86.3600215635056
 20
34.412249203178646
 10
86.26980424619299
 20
34.29625275694761
 10
86.21897547448481
 20
34.20115881354869
 10
86.17265001031063
 20
34.0617016830386
 10
86.15474188676941
 20
33.92567597999925
 10
86.15845100753113
 20
27.79846532891922
 10
86.18924549733353
 20
27.65178677167318
 10
86.24380938589182
 20
27.522929776565107
 10
86.3029194425349
 20
27.430190227873354
 10
86.39668917480886
 20
27.326322136371402
 10
86.48292098872209
 20
27.25806748849311
 10
86.60554552021924
 20
27.190654081829585
 10
86.86438510177689
 20
27.119930337636738
 10
86.8640826656944
 20
26.84357889070329
 10
86.73381543929263
 20
26.824542391762
 10
86.602948330025
 20
26.781052573539725
 10
86.47415807603183
 20
26.708736138308105
 10
86.39006689536272
 20
26.640362901992305
 10
86.29299609055181
 20
26.529035209204146
 10
86.22372189047648
 20
26.409793229259336
 10
86.1750910745429
 20
26.270324092638646
 10
86.15734627147815
 20
26.16340661008875
 10
86.1583458305634
 20
19.92798672545264
 10
86.20773410720318
 20
19.63315702043949
 10
86.31440024975196
 20
19.35479940679256
 10
86.47541625901547
 20
19.102074971545775
 10
86.69588628224692
 20
18.867604151353028
 10
86.9901345565889
 20
18.655256881322394
 10
87.30161254841654
 20
18.52194164392892
 10
87.62473682023072
 20
18.46047879801393
 10
88.08196923482785
 20
18.45311063948889
 10
88.08197092201577
 20
18.200691280457775
 10
78.97192343970273
 20
18.200689593269857
 10
78.97192175251483
 20
18.453108952300965
 10
79.43434815435934
 20
18.458850593285057
 10
79.74186419652774
 20
18.512050442927126
 10
80.05748872176864
 20
18.64055125259525
 10
80.33827977891133
 20
18.83733115791052
 10
80.55925417395939
 20
19.06594855513908
 10
80.73380022917004
 20
19.32718421193273
 10
80.8487265923849
 20
19.59977108090034
 10
80.91325549156227
 20
19.90014761020162
 10
80.92549395148765
 20
20.079362978599995
 10
80.92549395148765
 20
34.086653314515566
 10
80.88623378581828
 20
34.425350909207715
 10
80.78641443427755
 20
34.73127628466486
 10
80.61951396241338
 20
35.021364789231555
 10
80.40089635518301
 20
35.27156432118985
 10
80.25182508915114
 20
35.399052921607904
 10
80.103425465236
 20
35.49922623004936
 10
79.94743224990594
 20
35.580048230764184
 10
79.78391517668022
 20
35.641584530942495
 10
79.45444917464073
 20
35.70552884034686
 10
78.97192343970273
 20
35.71290565362667
  0
LWPOLYLINE
  5
3B
330
17
100
AcDbEntity
  8
CUT
100
AcDbPolyline
 90
128
 70
1
 10
55.74480324819066
 20
35.96532501265777
 10
64.4487703580896
 20
35.96532669984571
 10
64.44877204527754
 20
35.712907340814596
 10
63.959143138079575
 20
35.71005100986954
 10
63.707301056802905
 20
35.676687706413375
 10
63.431867640726885
 20
35.58375494138081
 10
63.18258183581474
 20
35.43246645135254
 10
62.99782810104537
 20
35.2629185030897
 10
62.857341802954764
 20
35.07095050812267
 10
62.76419838131493
 20
34.866005219410766
 10
62.71008438870244
 20
34.62983240627752
 10
62.69824003486292
 20
34.43656652651205
 10
62.69894752929662
 20
24.67513102801138
 10
62.73341406944122
 20
23.9393351089656
 10
62.81918156326073
 20
23.25531067836158
 10
62.905968935123504
 20
22.820651960980655
 10
63.04183659187367
 20
22.324018229963556
 10
63.18324337948685
 20
21.928347244085217
 10
63.379848452698546
 20
21.491804203034803
 10
63.57047046355461
 20
21.14731481811767
 10
63.818708708341795
 20
20.77880790791062
 10
64.05563071733886
 20
20.489331716237693
 10
64.34974247632209
 20
20.193045024733692
 10
64.63734203059482
 20
19.955708407705565
 10
64.98741933170882
 20
19.72170108041078
 10
65.31345428128097
 20
19.549290742564096
 10
65.70428906870963
 20
19.39082503828984
 10
66.05981191534477
 20
19.28525607263895
 10
66.44086962796594
 20
19.206970730147326
 10
66.90320740894167
 20
19.15352430347656
 10
67.3210230005
 20
19.13910826711472
 10
67.73769019317086
 20
19.152648121406138
 10
68.20824420831977
 20
19.20323456567906
 10
68.59286916392891
 20
19.276913108975712
 10
68.95158548476536
 20
19.37641358823209
 10
69.34576439236632
 20
19.526178881310514
 10
69.66371983832236
 20
19.683758959538196
 10
69.97108559545124
 20
19.873510335342928
 10
70.30561558110332
 20
20.128954188548455
 10
70.60429319074875
 20
20.411852002481716
 10
70.84162552047823
 20
20.6847647412308
 10
71.08933794192654
 20
21.030660703034528
 10
71.28314404417522
 20
21.360468665476
 10
71.47657472349695
 20
21.764728191108652
 10
71.61847667679763
 20
22.138112750908114
 10
71.75399269401515
 20
22.604204638763598
 10
71.84294595690066
 20
23.025335647481555
 10
71.92729191677151
 20
23.664539773233308
 10
71.96124120192877
 20
24.352531900632123
 10
71.96194852820774
 20
34.43656689779379
 10
71.95117608792813
 20
34.62142083045035
 10
71.89891801953064
 20
34.85717429661485
 10
71.80762933572565
 20
35.06271063140762
 10
71.66834782725275
 20
35.25619583088884
 10
71.48696794757876
 20
35.42524227664873
 10
71.22832091999265
 20
35.58375494138079
 10
70.95288750391708
 20
35.67668770641326
 10
70.70104542264012
 20
35.71005100986954
 10
70.21141820262987
 20
35.71290565362666
 10
70.21141651544194
 20
35.96532501265777
 10
75.92054087878711
 20
35.96532669984571
 10
75.92054256597505
 20
35.7129073408146
 10
75.44155146344215
 20
35.71054558148786
 10
75.19616048005878
 20
35.68036766611446
 10
74.93664181135681
 20
35.59855207298209
 10
74.69054056711772
 20
35.45924338911128
 10
74.50473220451914
 20
35.30034154864634
 10
74.36690109669587
 20
35.13133422487721
 10
74.26201774313468
 20
34.93542265796357
 10
74.1989189641076
 20
34.730374056422036
 10
74.1700105491188
 20
34.43656987314823
 10
74.16886886365785
 20
24.572239768984048
 10
74.1519264340956
 20
24.12663486283543
 10
74.1138811103677
 20
23.688121325389346
 10
74.0331183970949
 20
23.138995415805603
 10
73.91539682598244
 20
22.60737196544745
 10
73.76020949701578
 20
22.09601570770291
 10
73.56965534022973
 20
21.611982013120134
 10
73.34284906053503
 20
21.151821998344836
 10
73.0806445655843
 20
20.71709500510927
 10
72.78520762735192
 20
20.311759749101043
 10
72.45665402278001
 20
19.93599639006238
 10
72.18851324576084
 20
19.67357453367874
 10
71.90554720888201
 20
19.430820796910588
 10
71.60025638708042
 20
19.201317666821787
 10
71.27888835954893
 20
18.99002875464
 10
70.93298821560916
 20
18.791777768864158
 10
70.57186646317638
 20
18.61232022789219
 10
69.92509236508677
 20
18.352109094946563
 10
69.52498975450547
 20
18.224883630934883
 10
69.10141144633947
 20
18.11432870845283
 10
68.66092861191902
 20
18.022721073117857
 10
68.20354365641556
 20
17.95006082023142
 10
67.72925859282081
 20
17.89634760452509
 10
67.23807502347532
 20
17.86158078984107
 10
66.32977988412115
 20
17.84582539799522
 10
65.07605533380287
 20
17.89618743724047
 10
64.1010264324697
 20
17.996076765997053
 10
63.54903438586178
 20
18.081249601158518
 10
63.021810293017104
 20
18.185350069776327
 10
62.19202634223393
 20
18.40279505876331
 10
61.43685205145043
 20
18.671657976507205
 10
61.02290159768198
 20
18.85389323574772
 10
60.62031703087192
 20
19.058595878439213
 10
60.25167576051112
 20
19.27449844715086
 10
59.90393398938447
 20
19.50855923994331
 10
59.58040794465273
 20
19.758940322459388
 10
59.28110164036712
 20
20.025633038380263
 10
58.92576108041221
 20
20.399574504174254
 10
58.67470300880283
 20
20.714323224979687
 10
58.39344595838716
 20
21.138178928218736
 10
58.14362458524655
 20
21.602531837972798
 10
57.93860357974344
 20
22.08087478561486
 10
57.77152083267524
 20
22.58650090747726
 10
57.64450986371156
 20
23.112839535133823
 10
57.55581378815332
 20
23.667258552241634
 10
57.51513743296322
 20
24.099059227554378
 10
57.49652629057308
 20
24.550711481115016
 10
57.495335260956466
 20
34.43656689779595
 10
57.46453022996383
 20
34.739119154019136
 10
57.39399339697868
 20
34.95729279716908
 10
57.290501248286944
 20
35.14301956249528
 10
57.15143437178128
 20
35.309635896178534
 10
56.97480524704857
 20
35.459243389110874
 10
56.72870400280898
 20
35.59855207298206
 10
56.46918533410714
 20
35.68036766611442
 10
56.2237943507229
 20
35.71054558148789
 10
55.744804935378596
 20
35.71290565362666
  0
LWPOLYLINE
  5
3C
330
17
100
AcDbEntity
  8
CUT
100
AcDbPolyline
 90
64
 70
1
 10
65.9942461517617
 20
49.958400252195986
 10
65.99874178594517
 20
49.71311048387879
 10
65.97917317077878
 20
49.46856120363515
 10
65.93572876272394
 20
49.22710755471664
 10
65.86882695517907
 20
48.99107486775367
 10
65.77911204912355
 20
48.76273626655191
 10
65.66744804814536
 20
48.54429077666228
 10
65.53491033761615
 20
48.33784214756771
 10
65.3827753281403
 20
48.14537859242192
 10
65.2125081630249
 20
47.96875364047284
 10
65.02574860814704
 20
47.80966828656024
 10
64.82429526011435
 20
47.66965460960802
 10
64.61008822479288
 20
47.550061017863634
 10
64.38519043303083
 20
47.45203926299251
 10
64.15176777350447
 20
47.37653334807814
 10
63.91206823402661
 20
47.3242704363568
 10
63.668400252195575
 20
47.295753848238235
 10
63.42311048387923
 20
47.29125821405479
 10
63.17856120363484
 20
47.310826829221234
 10
62.93710755471627
 20
47.35427123727612
 10
62.70107486775362
 20
47.42117304482092
 10
62.47273626655178
 20
47.5108879508765
 10
62.25429077666215
 20
47.62255195185469
 10
62.04784214756747
 20
47.75508966238401
 10
61.8553785924221
 20
47.90722467185955
 10
61.67875364047285
 20
48.077491836975085
 10
61.519668286560425
 20
48.264251391852724
 10
61.37965460960794
 20
48.46570473988578
 10
61.260061017863634
 20
48.679911775207145
 10
61.16203926299256
 20
48.904809566969085
 10
61.0865333480781
 20
49.13823222649573
 10
61.03427043635679
 20
49.37793176597353
 10
61.00575384823825
 20
49.621599747804474
 10
61.00125821405482
 20
49.866889516120594
 10
61.020826829221264
 20
50.11143879636515
 10
61.06427123727611
 20
50.352892445283516
 10
61.13117304482096
 20
50.588925132246416
 10
61.220887950876595
 20
50.81726373344836
 10
61.332551951854526
 20
51.03570922333749
 10
61.46508966238407
 20
51.24215785243254
 10
61.61722467185969
 20
51.434621407578
 10
61.78749183697523
 20
51.61124635952724
 10
61.97425139185271
 20
51.77033171343952
 10
62.17570473988575
 20
51.910345390392
 10
62.38991177520719
 20
52.02993898213635
 10
62.61480956696908
 20
52.1279607370074
 10
62.84823222649571
 20
52.203466651921865
 10
63.08793176597338
 20
52.25572956364316
 10
63.331599747804425
 20
52.284246151761714
 10
63.57688951612077
 20
52.28874178594515
 10
63.82143879636514
 20
52.269173170778714
 10
64.06289244528372
 20
52.22572876272383
 10
64.29892513224608
 20
52.15882695517913
 10
64.52726373344832
 20
52.069112049123405
 10
64.74570922333783
 20
51.957448048145274
 10
64.95215785243248
 20
51.824910337615975
 10
65.14462140757806
 20
51.67277532814025
 10
65.32124635952692
 20
51.502508163025105
 10
65.4803317134395
 20
51.31574860814732
 10
65.62034539039219
 20
51.114295260113984
 10
65.73993898213628
 20
50.90008822479297
 10
65.83796073700728
 20
50.67519043303125
 10
65.91346665192174
 20
50.44176777350476
 10
65.96572956364315
 20
50.20206823402671
  0
LWPOLYLINE
  5
3D
330
17
100
AcDbEntity
  8
CUT
100
AcDbPolyline
 90
89
 70
1
 10
43.847390040216155
 20
36.28710994829801
 10
44.94678035086163
 20
36.18063264378144
 10
45.97233672456264
 20
36.00470246481374
 10
46.94044532132773
 20
35.75838244342485
 10
47.31785006531701
 20
35.63802004007226
 10
47.851115573299914
 20
35.44166985915657
 10
48.20569564209466
 20
35.29242802967255
 10
48.70335266200468
 20
35.05531919558493
 10
49.03173947520825
 20
34.879556196038855
 10
49.48681236071108
 20
34.60698891051039
 10
49.78705052435661
 20
34.40611441837049
 10
50.200583204779726
 20
34.09762497857096
 10
50.472438355756495
 20
33.87161608874632
 10
50.84169319513468
 20
33.529815189989044
 10
51.08724449995621
 20
33.276500214350264
 10
51.41711553120379
 20
32.89671412112463
 10
51.63149618439936
 20
32.62082546668903
 10
51.92247176731792
 20
32.20107471071481
 10
52.18512808218013
 20
31.764541166541385
 10
52.34876186877157
 20
31.454739500063077
 10
52.50112631956452
 20
31.131519799055816
 10
52.69592800484547
 20
30.652010360989365
 10
52.919434362237716
 20
29.957374433463556
 10
53.0488311515048
 20
29.42764315911952
 10
53.12130942554844
 20
29.05211388902366
 10
53.20275205973329
 20
28.489716223817084
 10
53.24165104032321
 20
28.099130090167208
 10
53.26788265223444
 20
27.693546073204885
 10
53.282224345008686
 20
27.08414533745686
 10
53.24185650429555
 20
26.07723718285221
 10
53.20225608751425
 20
25.682534473415714
 10
53.12058711732881
 20
25.12292302527655
 10
53.04788542977465
 20
24.748798564187858
 10
52.919430496446616
 20
24.224882683576972
 10
52.695946922357216
 20
23.530967624572916
 10
52.5010955220578
 20
23.050814588700852
 10
52.34878157647957
 20
22.72684480748692
 10
52.18518539308955
 20
22.415858560903416
 10
51.9224662667402
 20
21.976745051157657
 10
51.631488087851515
 20
21.554529320283123
 10
51.41711700320798
 20
21.27712819493484
 10
51.087246784817125
 20
20.895383024304785
 10
50.84168529870375
 20
20.640853493228022
 10
50.472452481945325
 20
20.297600593937688
 10
50.20057460108383
 20
20.070710580189882
 10
49.787075563068264
 20
19.761240323168423
 10
49.486799537037605
 20
19.559810063825154
 10
49.17836983968004
 20
19.370806572876695
 10
48.705799888754065
 20
19.112013364689
 10
48.201796791055465
 20
18.87184656578897
 10
47.847226725972895
 20
18.72280901661084
 10
47.31403507541425
 20
18.526692886470485
 10
46.942832848057165
 20
18.408349692639526
 10
45.974588681739874
 20
18.161791060102466
 10
44.94886822589303
 20
17.98566257166081
 10
43.83808676040953
 20
17.878678235226936
 10
43.83809829262029
 20
19.24748044748307
 10
44.35616702536809
 20
19.419228866423033
 10
44.80818586744623
 20
19.642123996886575
 10
45.23698401799059
 20
19.930864045658026
 10
45.62368152056052
 20
20.270433315485235
 10
45.98703922979949
 20
20.672889967846253
 10
46.312281157675
 20
21.123289413410397
 10
46.60428360771793
 20
21.626426464276975
 10
46.86301878286512
 20
22.18225309790604
 10
47.04962852516591
 20
22.67525128473894
 10
47.24248302525365
 20
23.30940836949393
 10
47.37482240674343
 20
23.86627605932909
 10
47.48165671940647
 20
24.44572730933227
 10
47.56575449406117
 20
25.062127098127064
 10
47.62543601848931
 20
25.70510247261906
 10
47.66126754963984
 20
26.378107530245053
 10
47.67325320885067
 20
27.08113146840853
 10
47.66140827175346
 20
27.783848985314528
 10
47.62543601848938
 20
28.46091382049559
 10
47.56575449406117
 20
29.103889194988497
 10
47.481656719406416
 20
29.720288983783696
 10
47.37482240674367
 20
30.299740233785307
 10
47.24248302525335
 20
30.856607923622718
 10
47.049628525166014
 20
31.490765008376286
 10
46.86301878286515
 20
31.983763195209463
 10
46.604283607717896
 20
32.53958982883866
 10
46.31228115767517
 20
33.04272687970491
 10
45.987039229799514
 20
33.49312632526928
 10
45.62368152056118
 20
33.895582977629665
 10
45.23698401799074
 20
34.235152247457414
 10
44.80818586744621
 20
34.52389229622899
 10
44.35616702536809
 20
34.74678742669252
 10
43.83809829262029
 20
34.91853584563248
  0
LWPOLYLINE
  5
3E
330
17
100
AcDbEntity
  8
CUT
100
AcDbPolyline
 90
88
 70
1
 10
40.71814201594979
 20
36.20775425056925
 10
41.635471741599396
 20
36.28874788561408
 10
41.6354615117708
 20
34.921060937663285
 10
41.18732915610451
 20
34.77689675208004
 10
40.7339043257521
 20
34.563737493867755
 10
40.30904857516192
 20
34.290074243630755
 10
39.91315754138931
 20
33.9567411408121
 10
39.5493448691264
 20
33.569322115810685
 10
39.2187156090988
 20
33.12947653326341
 10
38.92121381039608
 20
32.63716281292954
 10
38.654855746645076
 20
32.087783682131786
 10
38.42549722611564
 20
31.494939787788205
 10
38.22854344780721
 20
30.846597305761335
 10
38.06871378301774
 20
30.15133546108671
 10
37.94673492278982
 20
29.414115108492076
 10
37.860951701316196
 20
28.624473010695695
 10
37.812435902425314
 20
27.78790876287077
 10
37.80117919959115
 20
26.90638043474287
 10
37.82700243620735
 20
26.044906367644998
 10
37.874424181094916
 20
25.38752494924961
 10
37.927012204104955
 20
24.902818663637042
 10
38.01609710767276
 20
24.300640696509262
 10
38.12818550880931
 20
23.730943487962506
 10
38.26383933152528
 20
23.190075854733543
 10
38.38663534577859
 20
22.78648274947448
 10
38.5603139462234
 20
22.30633195948038
 10
38.7563993189149
 20
21.85413006522731
 10
39.03333944040299
 20
21.330582858062
 10
39.29112079719181
 20
20.931765882529334
 10
39.626056691619944
 20
20.50750662781566
 10
39.989908648992795
 20
20.13808052064475
 10
40.38538877431708
 20
19.82087121000653
 10
40.75140085544501
 20
19.592676718525198
 10
41.187329156104795
 20
19.389119541035406
 10
41.6354615117708
 20
19.244955355452277
 10
41.63547579219245
 20
17.877272234782275
 10
40.70952872544793
 20
17.959287907751524
 10
39.673918198237814
 20
18.121634895332413
 10
38.70275491790109
 20
18.352735848730724
 10
38.322059440103494
 20
18.467349472650405
 10
37.784079979853445
 20
18.655367236603873
 10
37.084732911988375
 20
18.951135976864514
 10
36.59778064806751
 20
19.195591059320144
 10
36.27657080223795
 20
19.37639319790911
 10
35.8345588875569
 20
19.654361675777025
 10
35.54118918353714
 20
19.86010653685608
 10
35.13760351560475
 20
20.175531104040594
 10
34.87230911905302
 20
20.406395329437075
 10
34.62197807650661
 20
20.64418692441746
 10
34.27633750249905
 20
21.009687715281594
 10
34.050886935845966
 20
21.27563254964268
 10
33.748221764772936
 20
21.674360910702177
 10
33.54950711216842
 20
21.967612947913537
 10
33.28857536988515
 20
22.401475126573935
 10
32.97390168127835
 20
23.03147544049957
 10
32.836880978653056
 20
23.358997887126023
 10
32.66096939620614
 20
23.851756083718243
 10
32.463697102315294
 20
24.564622451074705
 10
32.353588621449276
 20
25.106936694429805
 10
32.29525865043873
 20
25.484310045495356
 10
32.24924444038305
 20
25.87703479291016
 10
32.20610748077632
 20
26.466279701137793
 10
32.19791793262865
 20
27.490946770071588
 10
32.21772757878065
 20
27.897945662503403
 10
32.27064655355392
 20
28.47681518822261
 10
32.32347052934059
 20
28.863302155087
 10
32.42427667371147
 20
29.410096043794255
 10
32.6074173510743
 20
30.12546630566574
 10
32.77390466755164
 20
30.624610939917773
 10
32.9062418964312
 20
30.961234756244323
 10
33.050204470396274
 20
31.284927317284733
 10
33.28447370327049
 20
31.742894304983345
 10
33.463483914577836
 20
32.04962750513476
 10
33.743551645153126
 20
32.47497384159278
 10
33.95199213993228
 20
32.757252507518174
 10
34.273100253864854
 20
33.14619136119661
 10
34.510081933117135
 20
33.40333287091286
 10
34.87230425041825
 20
33.75596723175332
 10
35.137620891962534
 20
33.987776962902124
 10
35.541179488897484
 20
34.30427905352537
 10
35.834586710026265
 20
34.51064432503639
 10
36.28039630005067
 20
34.79148559712451
 10
36.60165475419223
 20
34.972347337617265
 10
37.08857609144821
 20
35.21669255689941
 10
37.43684821803366
 20
35.371531582341795
 10
37.960690516077854
 20
35.57592089413547
 10
38.70650728680473
 20
35.81432729545926
 10
39.67744867136783
 20
36.04508371829649
  0
LWPOLYLINE
  5
3F
330
17
100
AcDbEntity
  8
CUT
100
AcDbPolyline
 90
129
 70
1
 10
7.109168449407924
 20
27.012271028313407
 10
8.502818738354492
 20
27.96604733897476
 10
9.098177497455957
 20
28.32780897895067
 10
9.497286622948055
 20
28.542335830362326
 10
9.905899571925426
 20
28.732748275373503
 10
10.307035015503134
 20
28.886171805107274
 10
10.708189484777453
 20
29.002034233031026
 10
11.09293669485594
 20
29.07424178175357
 10
11.50993488084524
 20
29.105920642420912
 10
11.910171113632607
 20
29.087892129622396
 10
12.309867696557594
 20
29.020312912145783
 10
12.692816225380822
 20
28.907649746927767
 10
12.908621256479917
 20
28.82316545619775
 10
13.30755397428613
 20
28.626775520139127
 10
13.695385715376835
 20
28.385579527187858
 10
14.137794326839975
 20
28.057564669167384
 10
14.322375265229896
 20
27.986061799438012
 10
14.440842903144333
 20
27.97364396039162
 10
14.559429052060228
 20
27.984873797652483
 10
14.788877808608017
 20
28.060995984235795
 10
14.978659543783188
 20
28.099114416618143
 10
15.485201322705203
 20
28.111641023429513
 10
15.599066912789297
 20
28.138017246196554
 10
15.705658364373578
 20
28.185968681856103
 10
15.829532962010141
 20
28.280210615584664
 10
15.943623993402863
 20
28.437427055435187
 10
15.994810745239176
 20
28.584418124718212
 10
16.003050745753985
 20
28.778495106339022
 10
15.97780460775342
 20
28.892616577801284
 10
15.783230933025353
 20
29.46841718753258
 10
15.64515386585534
 20
30.042188381992943
 10
15.506106907995083
 20
30.852822958657853
 10
15.36842641376932
 20
31.897703203248298
 10
16.61729405063096
 20
31.68447265467865
 10
17.213157126715803
 20
31.556391529867007
 10
17.60380505450021
 20
31.452768092650068
 10
17.97184460706697
 20
31.33409027434029
 10
18.319887167715684
 20
31.19589758056656
 10
18.64490767839885
 20
31.035343057845218
 10
18.944083898341752
 20
30.849879249082505
 10
19.214883416734494
 20
30.63734622713678
 10
19.442385754699
 20
30.410525543067365
 10
19.563386196591797
 20
30.26412773739812
 10
19.745437388201488
 20
29.99385426134897
 10
19.906354784690386
 20
29.675404177663474
 10
20.03330299859257
 20
29.323731056254452
 10
20.12581907541826
 20
28.938746413511332
 10
20.17598908695332
 20
28.59951638153256
 10
20.208753678145854
 20
28.48504575709795
 10
20.263477221149152
 20
28.379299002369358
 10
20.3380046660086
 20
28.28644049571981
 10
20.42940107178567
 20
28.21012706763866
 10
20.534067186507407
 20
28.15336399228576
 10
20.64788118813157
 20
28.118386637772332
 10
20.766361004672802
 20
28.10657243586028
 10
26.18411151976819
 20
28.10657243586028
 10
26.391504599208286
 20
28.087597462885384
 10
26.517721180646912
 20
28.056726124334617
 10
26.716327272963195
 20
27.972900242691104
 10
26.889192934799965
 20
27.85674420269696
 10
27.031894987690947
 20
27.71531864594681
 10
27.10987715468099
 20
27.61138382692301
 10
27.210223163789294
 20
27.420591172990733
 10
27.272500024220896
 20
27.206602037872763
 10
27.290752270918897
 20
26.9918610045292
 10
27.266759908469492
 20
26.7776853232414
 10
27.210223163789294
 20
26.592553698729823
 10
27.10987715468099
 20
26.401761044797546
 10
27.031894987690947
 20
26.297826225773747
 10
26.889192934799954
 20
26.156400669023583
 10
26.716327272963195
 20
26.040244629029452
 10
26.517721180646912
 20
25.95641874738594
 10
26.391504599208286
 20
25.925547408835172
 10
26.18411151976819
 20
25.906572435860276
 10
20.766361004672802
 20
25.906572435860276
 10
20.64788118813157
 20
25.894758233948224
 10
20.534067186507407
 20
25.859780879434794
 10
20.42940107178567
 20
25.803017804081897
 10
20.3380046660086
 20
25.726704376000747
 10
20.263477221149152
 20
25.633845869351198
 10
20.208753678145854
 20
25.528099114622606
 10
20.17598908695332
 20
25.413628490187996
 10
20.12581907541826
 20
25.074398458209224
 10
20.03330299859257
 20
24.689413815466104
 10
19.906354784690386
 20
24.337740694057082
 10
19.745437388201488
 20
24.019290610371584
 10
19.563386196591797
 20
23.749017134322436
 10
19.442385754699
 20
23.60261932865319
 10
19.214883416734494
 20
23.375798644583774
 10
18.944083898341752
 20
23.16326562263805
 10
18.64490767839885
 20
22.977801813875338
 10
18.319887167715684
 20
22.817247291153997
 10
17.97184460706697
 20
22.679054597380265
 10
17.60380505450021
 20
22.560376779070488
 10
17.213157126715803
 20
22.45675334185355
 10
16.61729405063096
 20
22.328672217041905
 10
15.368430283756997
 20
22.115437931268588
 10
15.506900532329835
 20
23.16574292243459
 10
15.64515386585534
 20
23.970956489727612
 10
15.783230933025353
 20
24.544727684187976
 10
15.97780460775342
 20
25.12052829391927
 10
16.003050745753985
 20
25.234649765381533
 10
15.994810745239176
 20
25.428726747002344
 10
15.943623993402863
 20
25.57571781628537
 10
15.829532962010141
 20
25.73293425613589
 10
15.705658364373578
 20
25.827176189864453
 10
15.599066912789297
 20
25.875127625524
 10
15.485201322705203
 20
25.901503848291043
 10
14.978659543783188
 20
25.914030455102413
 10
14.788877808608017
 20
25.95214888748476
 10
14.559429052060228
 20
26.028271074068073
 10
14.440842903144333
 20
26.039500911328936
 10
14.322375265229896
 20
26.027083072282544
 10
14.137794326839975
 20
25.955580202553172
 10
13.695385715376835
 20
25.627565344532698
 10
13.30755397428613
 20
25.38636935158143
 10
12.908621256479917
 20
25.189979415522807
 10
12.692816225380822
 20
25.10549512479279
 10
12.309867696557594
 20
24.992831959574772
 10
11.910171113632607
 20
24.92525274209816
 10
11.50993488084524
 20
24.907224229299644
 10
11.09293669485594
 20
24.938903089966985
 10
10.708189484777453
 20
25.01111063868953
 10
10.307035015503134
 20
25.12697306661328
 10
9.905899571925426
 20
25.280396596347053
 10
9.497286622948055
 20
25.47080904135823
 10
9.098177497455957
 20
25.685335892769885
 10
8.49929334671999
 20
26.049358698283136
 10
7.699932321248007
 20
26.587188595819008
  0
LWPOLYLINE
  5
40
330
17
100
AcDbEntity
  8
SCORE_OPTIONAL
100
AcDbPolyline
 90
78
 70
1
 10
4.007626917012617
 20
53.01873298800358
 10
4.007494427212233
 20
7.271232597927636
 10
4.067251034357906
 20
6.817326605686318
 10
4.185743119977426
 20
6.375103666960072
 10
4.266419816683323
 20
6.1607492805463835
 10
4.468908642250737
 20
5.750140248241365
 10
4.589853680366772
 20
5.555643898349459
 10
4.723260453405474
 20
5.369474176660972
 10
5.025123207565776
 20
5.025264386647834
 10
5.369331934393955
 20
4.723400420157191
 10
5.5555011862128065
 20
4.589992991415855
 10
5.749997110126184
 20
4.469047268270117
 10
6.160605429248116
 20
4.266556996508726
 10
6.374959531511214
 20
4.185879544831408
 10
6.817182052896869
 20
4.067385901670889
 10
7.043156801814846
 20
4.030077119626682
 10
7.499999112958813
 20
4.000133762453885
 10
221.09986530013163
 20
4.0000002869642515
 10
221.3287759264519
 20
4.007493890913068
 10
221.78268049418202
 20
4.067251184926107
 10
222.2249019758048
 20
4.185743598123622
 10
222.43925564297464
 20
4.266420325333641
 10
222.84986329729566
 20
4.468908954661387
 10
223.04435900451858
 20
4.589853771889452
 10
223.40757345515968
 20
4.868557115320272
 10
223.7313025309481
 20
5.1922850509130996
 10
224.01000715364523
 20
5.55549851993824
 10
224.23891862366222
 20
5.951982857193414
 10
224.3334427314176
 20
6.160600742322018
 10
224.48060559783357
 20
6.594125114811334
 10
224.56992326497766
 20
7.043149217872582
 10
224.59237307702784
 20
7.271079546879932
 10
224.599998699929
 20
52.78966920346342
 10
224.57005701322097
 20
53.24651115343221
 10
224.5327491033747
 20
53.47248580796101
 10
224.41425725824485
 20
53.91470832490461
 10
224.23905748281115
 20
54.33768126794257
 10
224.13109229907047
 20
54.539671227411716
 10
224.01014749631605
 20
54.7341674466891
 10
223.73144401537402
 20
55.09738286701842
 10
223.4077157378083
 20
55.42111280718237
 10
223.04450174884076
 20
55.699818153511586
 10
222.64801674572848
 20
55.92873017626549
 10
222.43939848426155
 20
56.02325448852962
 10
222.00587329696066
 20
56.17041760833197
 10
221.78282279409095
 20
56.22242624027004
 10
221.32891756635138
 20
56.28218505622968
 10
161.65259026073852
 20
56.28981242153096
 10
161.23882718013837
 20
56.30622545257675
 10
160.5723841162687
 20
56.39422771513762
 10
160.18827029616835
 20
56.48019394700762
 10
159.79133946311418
 20
56.59801975272051
 10
115.42896762887595
 20
71.70372880171574
 10
114.98556939061208
 20
71.82289645146446
 10
114.75896498723725
 20
71.86041950032197
 10
114.30082103739596
 20
71.89053673236536
 10
113.84267675517893
 20
71.86042455685477
 10
113.3924160716412
 20
71.77060115621626
 10
113.1726723841871
 20
71.70374125307167
 10
68.80863037278294
 20
56.598009912204105
 10
68.4117297038317
 20
56.480193947007635
 10
67.75251129073241
 20
56.34867076009091
 10
67.36117281986166
 20
56.30622545257675
 10
66.94740330441242
 20
56.28981233885396
 10
7.5001325127694685
 20
56.28981233885396
 10
7.271221982065926
 20
56.2823185978223
 10
6.817317628877755
 20
56.22256106754587
 10
6.37509638462964
 20
56.104068471137666
 10
6.160742841563072
 20
56.02339167276021
 10
5.750135439981707
 20
55.820902942124384
 10
5.3694708632105295
 20
55.566551601928325
 10
5.025262363706325
 20
55.264689658091456
 10
4.868696808109541
 20
55.09752682124577
 10
4.723399422634006
 20
54.92048203313948
 10
4.469046979582192
 20
54.53981819327354
 10
4.266557059340396
 20
54.12921137834181
 10
4.119394307822551
 20
53.6956871589104
 10
4.0300767112332085
 20
53.246663227245946
  0
ENDSEC
  0
SECTION
  2
OBJECTS
  0
DICTIONARY
  5
A
330
0
100
AcDbDictionary
281
1
  3
ACAD_COLOR
350
B
  3
ACAD_GROUP
350
C
  3
ACAD_LAYOUT
350
D
  3
ACAD_MATERIAL
350
E
  3
ACAD_MLEADERSTYLE
350
F
  3
ACAD_MLINESTYLE
350
10
  3
ACAD_PLOTSETTINGS
350
11
  3
ACAD_PLOTSTYLENAME
350
12
  3
ACAD_SCALELIST
350
14
  3
ACAD_TABLESTYLE
350
15
  3
ACAD_VISUALSTYLE
350
16
  3
EZDXF_META
350
2D
  0
DICTIONARY
  5
B
330
A
100
AcDbDictionary
281
1
  0
DICTIONARY
  5
C
330
A
100
AcDbDictionary
281
1
  0
DICTIONARY
  5
D
330
A
100
AcDbDictionary
281
1
  3
Model
350
1A
  3
Layout1
350
1E
  0
DICTIONARY
  5
E
330
A
100
AcDbDictionary
281
1
  3
ByBlock
350
1F
  3
ByLayer
350
20
  3
Global
350
21
  0
DICTIONARY
  5
F
330
A
100
AcDbDictionary
281
1
  3
Standard
350
2C
  0
DICTIONARY
  5
10
330
A
100
AcDbDictionary
281
1
  3
Standard
350
22
  0
DICTIONARY
  5
11
330
A
100
AcDbDictionary
281
1
  0
ACDBDICTIONARYWDFLT
  5
12
330
A
100
AcDbDictionary
281
1
  3
Normal
350
13
100
AcDbDictionaryWithDefault
340
13
  0
ACDBPLACEHOLDER
  5
13
330
12
  0
DICTIONARY
  5
14
330
A
100
AcDbDictionary
281
1
  0
DICTIONARY
  5
15
330
A
100
AcDbDictionary
281
1
  0
DICTIONARY
  5
16
330
A
100
AcDbDictionary
281
1
  0
LAYOUT
  5
1A
330
D
100
AcDbPlotSettings
  1

  4
A3
  6

 40
7.5
 41
20.0
 42
7.5
 43
20.0
 44
420.0
 45
297.0
 46
0.0
 47
0.0
 48
0.0
 49
0.0
140
0.0
141
0.0
142
1.0
143
1.0
 70
1024
 72
1
 73
0
 74
5
  7

 75
16
 76
0
 77
2
 78
300
147
1.0
148
0.0
149
0.0
100
AcDbLayout
  1
Model
 70
1
 71
0
 10
0.0
 20
0.0
 11
420.0
 21
297.0
 12
0.0
 22
0.0
 32
0.0
 14
1e+20
 24
1e+20
 34
1e+20
 15
-1e+20
 25
-1e+20
 35
-1e+20
146
0.0
 13
0.0
 23
0.0
 33
0.0
 16
1.0
 26
0.0
 36
0.0
 17
0.0
 27
1.0
 37
0.0
 76
1
330
17
  0
LAYOUT
  5
1E
330
D
100
AcDbPlotSettings
  1

  4
A3
  6

 40
7.5
 41
20.0
 42
7.5
 43
20.0
 44
420.0
 45
297.0
 46
0.0
 47
0.0
 48
0.0
 49
0.0
140
0.0
141
0.0
142
1.0
143
1.0
 70
0
 72
1
 73
0
 74
5
  7

 75
16
 76
0
 77
2
 78
300
147
1.0
148
0.0
149
0.0
100
AcDbLayout
  1
Layout1
 70
1
 71
1
 10
0.0
 20
0.0
 11
420.0
 21
297.0
 12
0.0
 22
0.0
 32
0.0
 14
1e+20
 24
1e+20
 34
1e+20
 15
-1e+20
 25
-1e+20
 35
-1e+20
146
0.0
 13
0.0
 23
0.0
 33
0.0
 16
1.0
 26
0.0
 36
0.0
 17
0.0
 27
1.0
 37
0.0
 76
1
330
1B
  0
MATERIAL
  5
1F
102
{ACAD_REACTORS
330
E
102
}
330
E
100
AcDbMaterial
  1
ByBlock
  2

 70
0
 40
1.0
 71
1
 41
1.0
 91
-1023410177
 42
1.0
 72
1
  3

 73
1
 74
1
 75
1
 44
0.5
 73
0
 45
1.0
 46
1.0
 77
1
  4

 78
1
 79
1
170
1
 48
1.0
171
1
  6

172
1
173
1
174
1
140
1.0
141
1.0
175
1
  7

176
1
177
1
178
1
143
1.0
179
1
  8

270
1
271
1
272
1
145
1.0
146
1.0
273
1
  9

274
1
275
1
276
1
 42
1.0
 72
1
  3

 73
1
 74
1
 75
1
 94
63
  0
MATERIAL
  5
20
102
{ACAD_REACTORS
330
E
102
}
330
E
100
AcDbMaterial
  1
ByLayer
  2

 70
0
 40
1.0
 71
1
 41
1.0
 91
-1023410177
 42
1.0
 72
1
  3

 73
1
 74
1
 75
1
 44
0.5
 73
0
 45
1.0
 46
1.0
 77
1
  4

 78
1
 79
1
170
1
 48
1.0
171
1
  6

172
1
173
1
174
1
140
1.0
141
1.0
175
1
  7

176
1
177
1
178
1
143
1.0
179
1
  8

270
1
271
1
272
1
145
1.0
146
1.0
273
1
  9

274
1
275
1
276
1
 42
1.0
 72
1
  3

 73
1
 74
1
 75
1
 94
63
  0
MATERIAL
  5
21
102
{ACAD_REACTORS
330
E
102
}
330
E
100
AcDbMaterial
  1
Global
  2

 70
0
 40
1.0
 71
1
 41
1.0
 91
-1023410177
 42
1.0
 72
1
  3

 73
1
 74
1
 75
1
 44
0.5
 73
0
 45
1.0
 46
1.0
 77
1
  4

 78
1
 79
1
170
1
 48
1.0
171
1
  6

172
1
173
1
174
1
140
1.0
141
1.0
175
1
  7

176
1
177
1
178
1
143
1.0
179
1
  8

270
1
271
1
272
1
145
1.0
146
1.0
273
1
  9

274
1
275
1
276
1
 42
1.0
 72
1
  3

 73
1
 74
1
 75
1
 94
63
  0
MLINESTYLE
  5
22
102
{ACAD_REACTORS
330
10
102
}
330
10
100
AcDbMlineStyle
  2
Standard
 70
0
  3

 62
256
 51
90.0
 52
90.0
 71
2
 49
0.5
 62
256
  6
BYLAYER
 49
-0.5
 62
256
  6
BYLAYER
  0
MLEADERSTYLE
  5
2C
102
{ACAD_REACTORS
330
F
102
}
330
F
100
AcDbMLeaderStyle
179
2
170
2
171
1
172
0
 90
2
 40
0.0
 41
0.0
173
1
 91
-1056964608
 92
-2
290
1
 42
2.0
291
1
 43
8.0
  3
Standard
 44
4.0
300

342
29
174
1
175
1
176
0
178
1
 93
-1056964608
 45
4.0
292
0
297
0
 46
4.0
 94
-1056964608
 47
1.0
 49
1.0
140
1.0
294
1
141
0.0
177
0
142
1.0
295
0
296
0
143
3.75
271
0
272
9
273
9
  0
DICTIONARY
  5
2D
330
A
100
AcDbDictionary
280
1
281
1
  3
CREATED_BY_EZDXF
350
2E
  3
WRITTEN_BY_EZDXF
350
43
  0
DICTIONARYVAR
  5
2E
330
2D
100
DictionaryVariables
280
0
  1
1.4.4 @ 2026-10-05T10:29:47.251788+00:00
  0
DICTIONARYVAR
  5
43
330
2D
100
DictionaryVariables
280
0
  1
1.4.4 @ 2026-10-05T10:29:47.282751+00:00
  0
ENDSEC
  0
EOF
