  0
SECTION
  2
HEADER
  9
$ACADVER
  1
AC1024
  9
$ACADMAINTVER
 70
6
  9
$DWGCODEPAGE
  3
ANSI_1252
  9
$LASTSAVEDBY
  1
ezdxf
  9
$INSBASE
 10
0.0
 20
0.0
 30
0.0
  9
$EXTMIN
 10
1e+20
 20
1e+20
 30
1e+20
  9
$EXTMAX
 10
-1e+20
 20
-1e+20
 30
-1e+20
  9
$LIMMIN
 10
0.0
 20
0.0
  9
$LIMMAX
 10
420.0
 20
297.0
  9
$ORTHOMODE
 70
0
  9
$REGENMODE
 70
1
  9
$FILLMODE
 70
1
  9
$QTEXTMODE
 70
0
  9
$MIRRTEXT
 70
1
  9
$LTSCALE
 40
1.0
  9
$ATTMODE
 70
1
  9
$TEXTSIZE
 40
2.5
  9
$TRACEWID
 40
1.0
  9
$TEXTSTYLE
  7
Standard
  9
$CLAYER
  8
0
  9
$CELTYPE
  6
ByLayer
  9
$CECOLOR
 62
256
  9
$CELTSCALE
 40
1.0
  9
$DISPSILH
 70
0
  9
$DIMSCALE
 40
1.0
  9
$DIMASZ
 40
2.5
  9
$DIMEXO
 40
0.625
  9
$DIMDLI
 40
3.75
  9
$DIMRND
 40
0.0
  9
$DIMDLE
 40
0.0
  9
$DIMEXE
 40
1.25
  9
$DIMTP
 40
0.0
  9
$DIMTM
 40
0.0
  9
$DIMTXT
 40
2.5
  9
$DIMCEN
 40
2.5
  9
$DIMTSZ
 40
0.0
  9
$DIMTOL
 70
0
  9
$DIMLIM
 70
0
  9
$DIMTIH
 70
0
  9
$DIMTOH
 70
0
  9
$DIMSE1
 70
0
  9
$DIMSE2
 70
0
  9
$DIMTAD
 70
1
  9
$DIMZIN
 70
8
  9
$DIMBLK
  1

  9
$DIMASO
 70
1
  9
$DIMSHO
 70
1
  9
$DIMPOST
  1

  9
$DIMAPOST
  1

  9
$DIMALT
 70
0
  9
$DIMALTD
 70
3
  9
$DIMALTF
 40
0.03937007874
  9
$DIMLFAC
 40
1.0
  9
$DIMTOFL
 70
1
  9
$DIMTVP
 40
0.0
  9
$DIMTIX
 70
0
  9
$DIMSOXD
 70
0
  9
$DIMSAH
 70
0
  9
$DIMBLK1
  1

  9
$DIMBLK2
  1

  9
$DIMSTYLE
  2
ISO-25
  9
$DIMCLRD
 70
0
  9
$DIMCLRE
 70
0
  9
$DIMCLRT
 70
0
  9
$DIMTFAC
 40
1.0
  9
$DIMGAP
 40
0.625
  9
$DIMJUST
 70
0
  9
$DIMSD1
 70
0
  9
$DIMSD2
 70
0
  9
$DIMTOLJ
 70
0
  9
$DIMTZIN
 70
8
  9
$DIMALTZ
 70
0
  9
$DIMALTTZ
 70
0
  9
$DIMUPT
 70
0
  9
$DIMDEC
 70
2
  9
$DIMTDEC
 70
2
  9
$DIMALTU
 70
2
  9
$DIMALTTD
 70
3
  9
$DIMTXSTY
  7
Standard
  9
$DIMAUNIT
 70
0
  9
$DIMADEC
 70
0
  9
$DIMALTRND
 40
0.0
  9
$DIMAZIN
 70
0
  9
$DIMDSEP
 70
44
  9
$DIMATFIT
 70
3
  9
$DIMFRAC
 70
0
  9
$DIMLDRBLK
  1

  9
$DIMLUNIT
 70
2
  9
$DIMLWD
 70
-2
  9
$DIMLWE
 70
-2
  9
$DIMTMOVE
 70
0
  9
$DIMFXL
 40
1.0
  9
$DIMFXLON
 70
0
  9
$DIMJOGANG
 40
0.785398163397
  9
$DIMTFILL
 70
0
  9
$DIMTFILLCLR
 70
0
  9
$DIMARCSYM
 70
0
  9
$DIMLTYPE
  6

  9
$DIMLTEX1
  6

  9
$DIMLTEX2
  6

  9
$DIMTXTDIRECTION
 70
0
  9
$LUNITS
 70
2
  9
$LUPREC
 70
4
  9
$SKETCHINC
 40
1.0
  9
$FILLETRAD
 40
10.0
  9
$AUNITS
 70
0
  9
$AUPREC
 70
2
  9
$MENU
  1
.
  9
$ELEVATION
 40
0.0
  9
$PELEVATION
 40
0.0
  9
$THICKNESS
 40
0.0
  9
$LIMCHECK
 70
0
  9
$CHAMFERA
 40
0.0
  9
$CHAMFERB
 40
0.0
  9
$CHAMFERC
 40
0.0
  9
$CHAMFERD
 40
0.0
  9
$SKPOLY
 70
0
  9
$TDCREATE
 40
2461319.437337963
  9
$TDUCREATE
 40
2458532.153996898
  9
$TDUPDATE
 40
2461319.437337963
  9
$TDUUPDATE
 40
2458532.1544311
  9
$TDINDWG
 40
0.0
  9
$TDUSRTIMER
 40
0.0
  9
$USRTIMER
 70
1
  9
$ANGBASE
 50
0.0
  9
$ANGDIR
 70
0
  9
$PDMODE
 70
0
  9
$PDSIZE
 40
0.0
  9
$PLINEWID
 40
0.0
  9
$SPLFRAME
 70
0
  9
$SPLINETYPE
 70
6
  9
$SPLINESEGS
 70
8
  9
$HANDSEED
  5
42
  9
$SURFTAB1
 70
6
  9
$SURFTAB2
 70
6
  9
$SURFTYPE
 70
6
  9
$SURFU
 70
6
  9
$SURFV
 70
6
  9
$UCSBASE
  2

  9
$UCSNAME
  2

  9
$UCSORG
 10
0.0
 20
0.0
 30
0.0
  9
$UCSXDIR
 10
1.0
 20
0.0
 30
0.0
  9
$UCSYDIR
 10
0.0
 20
1.0
 30
0.0
  9
$UCSORTHOREF
  2

  9
$UCSORTHOVIEW
 70
0
  9
$UCSORGTOP
 10
0.0
 20
0.0
 30
0.0
  9
$UCSORGBOTTOM
 10
0.0
 20
0.0
 30
0.0
  9
$UCSORGLEFT
 10
0.0
 20
0.0
 30
0.0
  9
$UCSORGRIGHT
 10
0.0
 20
0.0
 30
0.0
  9
$UCSORGFRONT
 10
0.0
 20
0.0
 30
0.0
  9
$UCSORGBACK
 10
0.0
 20
0.0
 30
0.0
  9
$PUCSBASE
  2

  9
$PUCSNAME
  2

  9
$PUCSORG
 10
0.0
 20
0.0
 30
0.0
  9
$PUCSXDIR
 10
1.0
 20
0.0
 30
0.0
  9
$PUCSYDIR
 10
0.0
 20
1.0
 30
0.0
  9
$PUCSORTHOREF
  2

  9
$PUCSORTHOVIEW
 70
0
  9
$PUCSORGTOP
 10
0.0
 20
0.0
 30
0.0
  9
$PUCSORGBOTTOM
 10
0.0
 20
0.0
 30
0.0
  9
$PUCSORGLEFT
 10
0.0
 20
0.0
 30
0.0
  9
$PUCSORGRIGHT
 10
0.0
 20
0.0
 30
0.0
  9
$PUCSORGFRONT
 10
0.0
 20
0.0
 30
0.0
  9
$PUCSORGBACK
 10
0.0
 20
0.0
 30
0.0
  9
$USERI1
 70
0
  9
$USERI2
 70
0
  9
$USERI3
 70
0
  9
$USERI4
 70
0
  9
$USERI5
 70
0
  9
$USERR1
 40
0.0
  9
$USERR2
 40
0.0
  9
$USERR3
 40
0.0
  9
$USERR4
 40
0.0
  9
$USERR5
 40
0.0
  9
$WORLDVIEW
 70
1
  9
$SHADEDGE
 70
3
  9
$SHADEDIF
 70
70
  9
$TILEMODE
 70
1
  9
$MAXACTVP
 70
64
  9
$PINSBASE
 10
0.0
 20
0.0
 30
0.0
  9
$PLIMCHECK
 70
0
  9
$PEXTMIN
 10
1e+20
 20
1e+20
 30
1e+20
  9
$PEXTMAX
 10
-1e+20
 20
-1e+20
 30
-1e+20
  9
$PLIMMIN
 10
0.0
 20
0.0
  9
$PLIMMAX
 10
420.0
 20
297.0
  9
$UNITMODE
 70
0
  9
$VISRETAIN
 70
1
  9
$PLINEGEN
 70
0
  9
$PSLTSCALE
 70
1
  9
$TREEDEPTH
 70
3020
  9
$CMLSTYLE
  2
Standard
  9
$CMLJUST
 70
0
  9
$CMLSCALE
 40
20.0
  9
$PROXYGRAPHICS
 70
1
  9
$MEASUREMENT
 70
1
  9
$CELWEIGHT
370
-1
  9
$ENDCAPS
280
0
  9
$JOINSTYLE
280
0
  9
$LWDISPLAY
290
0
  9
$INSUNITS
 70
4
  9
$HYPERLINKBASE
  1

  9
$STYLESHEET
  1

  9
$XEDIT
290
1
  9
$CEPSNTYPE
380
0
  9
$PSTYLEMODE
290
1
  9
$FINGERPRINTGUID
  2
{2D6947DB-58A7-47E8-8E45-B0F4B846A8D6}
  9
$VERSIONGUID
  2
{4FA14D46-4055-40A1-8526-C30BB1C41AD7}
  9
$EXTNAMES
290
1
  9
$PSVPSCALE
 40
0.0
  9
$OLESTARTUP
290
0
  9
$SORTENTS
280
127
  9
$INDEXCTL
280
0
  9
$HIDETEXT
280
1
  9
$XCLIPFRAME
280
1
  9
$HALOGAP
280
0
  9
$OBSCOLOR
 70
257
  9
$OBSLTYPE
280
0
  9
$INTERSECTIONDISPLAY
280
0
  9
$INTERSECTIONCOLOR
 70
257
  9
$DIMASSOC
280
2
  9
$PROJECTNAME
  1

  9
$CAMERADISPLAY
290
0
  9
$LENSLENGTH
 40
50.0
  9
$CAMERAHEIGHT
 40
0.0
  9
$STEPSPERSEC
 40
24.0
  9
$STEPSIZE
 40
100.0
  9
$3DDWFPREC
 40
2.0
  9
$PSOLWIDTH
 40
0.005
  9
$PSOLHEIGHT
 40
0.08
  9
$LOFTANG1
 40
1.570796326795
  9
$LOFTANG2
 40
1.570796326795
  9
$LOFTMAG1
 40
0.0
  9
$LOFTMAG2
 40
0.0
  9
$LOFTPARAM
 70
7
  9
$LOFTNORMALS
280
1
  9
$LATITUDE
 40
37.795
  9
$LONGITUDE
 40
-122.394
  9
$NORTHDIRECTION
 40
0.0
  9
$TIMEZONE
 70
-8000
  9
$LIGHTGLYPHDISPLAY
280
1
  9
$TILEMODELIGHTSYNCH
280
1
  9
$CMATERIAL
347
20
  9
$SOLIDHIST
280
0
  9
$SHOWHIST
280
1
  9
$DWFFRAME
280
2
  9
$DGNFRAME
280
2
  9
$REALWORLDSCALE
290
1
  9
$INTERFERECOLOR
 62
256
  9
$CSHADOW
280
0
  9
$SHADOWPLANELOCATION
 40
0.0
  0
ENDSEC
  0
SECTION
  2
CLASSES
  0
CLASS
  1
ACDBDICTIONARYWDFLT
  2
AcDbDictionaryWithDefault
  3
ObjectDBX Classes
 90
0
 91
0
280
0
281
0
  0
CLASS
  1
SUN
  2
AcDbSun
  3
SCENEOE
 90
1153
 91
0
280
0
281
0
  0
CLASS
  1
VISUALSTYLE
  2
AcDbVisualStyle
  3
ObjectDBX Classes
 90
4095
 91
0
280
0
281
0
  0
CLASS
  1
MATERIAL
  2
AcDbMaterial
  3
ObjectDBX Classes
 90
1153
 91
0
280
0
281
0
  0
CLASS
  1
SCALE
  2
AcDbScale
  3
ObjectDBX Classes
 90
1153
 91
0
280
0
281
0
  0
CLASS
  1
TABLESTYLE
  2
AcDbTableStyle
  3
ObjectDBX Classes
 90
4095
 91
0
280
0
281
0
  0
CLASS
  1
MLEADERSTYLE
  2
AcDbMLeaderStyle
  3
ACDB_MLEADERSTYLE_CLASS
 90
4095
 91
0
280
0
281
0
  0
CLASS
  1
DICTIONARYVAR
  2
AcDbDictionaryVar
  3
ObjectDBX Classes
 90
0
 91
0
280
0
281
0
  0
CLASS
  1
CELLSTYLEMAP
  2
AcDbCellStyleMap
  3
ObjectDBX Classes
 90
1152
 91
0
280
0
281
0
  0
CLASS
  1
MENTALRAYRENDERSETTINGS
  2
AcDbMentalRayRenderSettings
  3
SCENEOE
 90
1024
 91
0
280
0
281
0
  0
CLASS
  1
ACDBDETAILVIEWSTYLE
  2
AcDbDetailViewStyle
  3
ObjectDBX Classes
 90
1025
 91
0
280
0
281
0
  0
CLASS
  1
ACDBSECTIONVIEWSTYLE
  2
AcDbSectionViewStyle
  3
ObjectDBX Classes
 90
1025
 91
0
280
0
281
0
  0
CLASS
  1
RASTERVARIABLES
  2
AcDbRasterVariables
  3
ISM
 90
0
 91
0
280
0
281
0
  0
CLASS
  1
LAYOUT
  2
AcDbLayout
  3
ObjectDBX Classes
 90
0
 91
0
280
0
281
0
  0
CLASS
  1
ACDBPLACEHOLDER
  2
AcDbPlaceHolder
  3
ObjectDBX Classes
 90
0
 91
0
280
0
281
0
  0
ENDSEC
  0
SECTION
  2
TABLES
  0
TABLE
  2
VPORT
  5
8
330
0
100
AcDbSymbolTable
 70
1
  0
VPORT
  5
23
330
8
100
AcDbSymbolTableRecord
100
AcDbViewportTableRecord
  2
*Active
 70
0
 10
0.0
 20
0.0
 11
1.0
 21
1.0
 12
0.0
 22
0.0
 13
0.0
 23
0.0
 14
0.5
 24
0.5
 15
0.5
 25
0.5
 16
0.0
 26
0.0
 36
1.0
 17
0.0
 27
0.0
 37
0.0
 40
1000.0
 41
1.34
 42
50.0
 43
0.0
 44
0.0
 50
0.0
 51
0.0
 71
0
 72
1000
 73
1
 74
3
 75
0
 76
0
 77
0
 78
0
281
0
 65
0
146
0.0
  0
ENDTAB
  0
TABLE
  2
LTYPE
  5
2
330
0
100
AcDbSymbolTable
 70
3
  0
LTYPE
  5
24
330
2
100
AcDbSymbolTableRecord
100
AcDbLinetypeTableRecord
  2
ByBlock
 70
0
  3

 72
65
 73
0
 40
0.0
  0
LTYPE
  5
25
330
2
100
AcDbSymbolTableRecord
100
AcDbLinetypeTableRecord
  2
ByLayer
 70
0
  3

 72
65
 73
0
 40
0.0
  0
LTYPE
  5
26
330
2
100
AcDbSymbolTableRecord
100
AcDbLinetypeTableRecord
  2
Continuous
 70
0
  3

 72
65
 73
0
 40
0.0
  0
ENDTAB
  0
TABLE
  2
LAYER
  5
1
330
0
100
AcDbSymbolTable
 70
4
  0
LAYER
  5
27
330
1
100
AcDbSymbolTableRecord
100
AcDbLayerTableRecord
  2
0
 70
0
 62
7
  6
Continuous
370
-3
390
13
347
21
  0
LAYER
  5
28
330
1
100
AcDbSymbolTableRecord
100
AcDbLayerTableRecord
  2
Defpoints
 70
0
 62
7
  6
Continuous
290
0
370
-3
390
13
347
21
  0
LAYER
  5
2F
330
1
100
AcDbSymbolTableRecord
100
AcDbLayerTableRecord
  2
CUT
 70
0
 62
1
  6
Continuous
370
-3
390
13
347
21
  0
LAYER
  5
30
330
1
100
AcDbSymbolTableRecord
100
AcDbLayerTableRecord
  2
SCORE_OPTIONAL
 70
0
 62
5
  6
Continuous
370
-3
390
13
347
21
  0
ENDTAB
  0
TABLE
  2
STYLE
  5
5
330
0
100
AcDbSymbolTable
 70
1
  0
STYLE
  5
29
330
5
100
AcDbSymbolTableRecord
100
AcDbTextStyleTableRecord
  2
Standard
 70
0
 40
0.0
 41
1.0
 50
0.0
 71
0
 42
2.5
  3
txt
  4

  0
ENDTAB
  0
TABLE
  2
VIEW
  5
7
330
0
100
AcDbSymbolTable
 70
0
  0
ENDTAB
  0
TABLE
  2
UCS
  5
6
330
0
100
AcDbSymbolTable
 70
0
  0
ENDTAB
  0
TABLE
  2
APPID
  5
3
330
0
100
AcDbSymbolTable
 70
3
  0
APPID
  5
2A
330
3
100
AcDbSymbolTableRecord
100
AcDbRegAppTableRecord
  2
ACAD
 70
0
  0
APPID
  5
3F
330
3
100
AcDbSymbolTableRecord
100
AcDbRegAppTableRecord
  2
HATCHBACKGROUNDCOLOR
 70
0
  0
APPID
  5
40
330
3
100
AcDbSymbolTableRecord
100
AcDbRegAppTableRecord
  2
EZDXF
 70
0
  0
ENDTAB
  0
TABLE
  2
DIMSTYLE
  5
4
330
0
100
AcDbSymbolTable
 70
1
100
AcDbDimStyleTable
  0
DIMSTYLE
105
2B
330
4
100
AcDbSymbolTableRecord
100
AcDbDimStyleTableRecord
  2
Standard
 70
0
 40
1.0
 41
2.5
 42
0.625
 43
3.75
 44
1.25
 45
0.0
 46
0.0
 47
0.0
 48
0.0
 49
2.5
140
2.5
141
2.5
142
0.0
143
0.03937007874
144
1.0
145
0.0
146
1.0
147
0.625
148
0.0
 69
0
 70
0
 71
0
 72
0
 73
0
 74
0
 75
0
 76
0
 77
1
 78
8
 79
3
170
0
171
3
172
1
173
0
174
0
175
0
176
0
177
0
178
0
179
2
271
2
272
2
273
2
274
3
275
0
276
0
277
2
278
44
279
0
280
0
281
0
282
0
283
0
284
8
285
0
286
0
288
0
289
3
290
0
371
-2
372
-2
  0
ENDTAB
  0
TABLE
  2
BLOCK_RECORD
  5
9
330
0
100
AcDbSymbolTable
 70
2
  0
BLOCK_RECORD
  5
17
330
9
100
AcDbSymbolTableRecord
100
AcDbBlockTableRecord
  2
*Model_Space
340
1A
 70
0
280
1
281
0
  0
BLOCK_RECORD
  5
1B
330
9
100
AcDbSymbolTableRecord
100
AcDbBlockTableRecord
  2
*Paper_Space
340
1E
 70
0
280
1
281
0
  0
ENDTAB
  0
ENDSEC
  0
SECTION
  2
BLOCKS
  0
BLOCK
  5
18
330
17
100
AcDbEntity
  8
0
100
AcDbBlockBegin
  2
*Model_Space
 70
0
 10
0.0
 20
0.0
 30
0.0
  3
*Model_Space
  1

  0
ENDBLK
  5
19
330
17
100
AcDbEntity
  8
0
100
AcDbBlockEnd
  0
BLOCK
  5
1C
330
1B
100
AcDbEntity
  8
0
100
AcDbBlockBegin
  2
*Paper_Space
 70
0
 10
0.0
 20
0.0
 30
0.0
  3
*Paper_Space
  1

  0
ENDBLK
  5
1D
330
1B
100
AcDbEntity
  8
0
100
AcDbBlockEnd
  0
ENDSEC
  0
SECTION
  2
ENTITIES
  0
LWPOLYLINE
  5
31
330
17
100
AcDbEntity
  8
CUT
100
AcDbPolyline
 90
60
 70
1
 10
1.595734298002173
 20
69.84945752815877
 10
1.4334413834351607
 20
69.83938095099393
 10
1.2244552012354508
 20
69.80229223286966
 10
1.0594366474509074
 20
69.75229508707645
 10
0.8652282797372451
 20
69.66722434959567
 10
0.5685201237017065
 20
69.46892799520296
 10
0.41610333909317443
 20
69.32234179084327
 10
0.28442525720150014
 20
69.15716467426043
 10
0.19429315051190976
 20
69.01123190236639
 10
0.10574887948622702
 20
68.81984730554186
 10
0.01614002250680613
 20
68.47629730199878
 10
3.3306690738754696e-16
 20
68.26633441347094
 10
0.007471853552942331
 20
68.09535732605846
 10
0.041868069446524214
 20
67.88756700912081
 10
0.10349100811570344
 20
67.68606009918805
 10
13.945506224322909
 20
35.71426720497523
 10
14.067826579496627
 20
35.32789310958284
 10
14.109165003246694
 20
34.925
 10
14.067826579496627
 20
34.522106890417156
 10
13.945506224322909
 20
34.135732795024765
 10
0.10349100811567113
 20
2.1639399008118545
 10
0.021218126528345427
 20
1.85909993570651
 10
0.0008986787319248402
 20
1.544171356970324
 10
0.04332384615782192
 20
1.2314165866048086
 10
0.14684171360500087
 20
0.9330134047038143
 10
0.3074215901137952
 20
0.660580781376737
 10
0.5188109525925492
 20
0.4247264671419799
 10
0.7727789012617549
 20
0.2346339573288816
 10
1.0594366474507986
 20
0.0977049129235752
 10
1.3283321705824025
 20
0.0257481538369575
 10
1.6289382353747883
 20
0.0
 10
201.57106176462523
 20
0.0
 10
201.8323774451312
 20
0.019270960967944006
 10
202.0777388136736
 20
0.07640260849976244
 10
202.27531357113367
 20
0.15347127699865837
 10
202.5160277481713
 20
0.29241643981157495
 10
202.71012337430878
 20
0.4518743103934213
 10
202.89257840988626
 20
0.6605807813767655
 10
203.02423125313132
 20
0.8737397216048493
 10
203.10798244209454
 20
1.0672351040408756
 10
203.1838599774932
 20
1.3737026980011962
 10
203.19931110588828
 20
1.6495144343434873
 10
203.15813193055345
 20
1.9624329908793072
 10
203.06335578235326
 20
2.2465478780083004
 10
189.2544937756771
 20
34.135732795024765
 10
189.1321734205034
 20
34.522106890417156
 10
189.09083499675333
 20
34.925
 10
189.1321734205034
 20
35.32789310958284
 10
189.2544937756771
 20
35.71426720497523
 10
203.09650899188426
 20
67.68606009918794
 10
203.17878187347165
 20
67.99090006429324
 10
203.1991013212681
 20
68.30582864302917
 10
203.1566761538422
 20
68.61858341339524
 10
203.05315828639516
 20
68.91698659529584
 10
202.89257840988643
 20
69.18941921862297
 10
202.68118904740746
 20
69.42527353285803
 10
202.42722109873847
 20
69.61536604267097
 10
202.14056335254907
 20
69.75229508707645
 10
201.87166782941745
 20
69.82425184616305
 10
201.57106176462565
 20
69.85
  0
LWPOLYLINE
  5
32
330
17
100
AcDbEntity
  8
CUT
100
AcDbPolyline
 90
64
 70
1
 10
179.66793091738538
 20
28.16805815953048
 10
179.6809313281276
 20
27.913245101422127
 10
179.66889309106435
 20
27.6583847747519
 10
179.63193214099906
 20
27.405931623785776
 10
179.57040443208624
 20
27.158316910374566
 10
179.48490250979697
 20
26.917925299566967
 10
179.37624980438272
 20
26.687071893985987
 10
179.24549270079206
 20
26.467979938124785
 10
179.09389046141305
 20
26.2627594072881
 10
178.92290309868451
 20
26.073386687371574
 10
178.73417731437928
 20
25.901685541188264
 10
178.5295306409697
 20
25.749309544638948
 10
178.31093393779162
 20
25.61772616186716
 10
178.08049241059396
 20
25.508202612779925
 10
177.84042533725503
 20
25.42179366902625
 10
177.5930446949259
 20
25.359331495970785
 10
177.34073289442378
 20
25.3214176384852
 10
177.08591983631567
 20
25.30841722774295
 10
176.83105950964534
 20
25.3204554648062
 10
176.57860635867974
 20
25.35741641487133
 10
176.33099164526806
 20
25.418944123784215
 10
176.09060003446055
 20
25.504446046073426
 10
175.85974662887955
 20
25.613098751487634
 10
175.64065467301964
 20
25.743855855077392
 10
175.4354341421817
 20
25.895458094457155
 10
175.24606142226372
 20
26.066445457187015
 10
175.07436027608182
 20
26.255171241490835
 10
174.92198427953173
 20
26.45981791490138
 10
174.79040089675982
 20
26.67841461807982
 10
174.6808773476731
 20
26.90885614527658
 10
174.59446840391934
 20
27.14892321861577
 10
174.5320062308637
 20
27.396303860945977
 10
174.49409237337835
 20
27.648615661446897
 10
174.48109196263613
 20
27.903428719555244
 10
174.49313019969938
 20
28.15828904622547
 10
174.53009114976467
 20
28.410742197191595
 10
174.5916188586775
 20
28.658356910602805
 10
174.67712078096636
 20
28.898748521409473
 10
174.785773486381
 20
29.129601926991384
 10
174.91653058997167
 20
29.348693882852587
 10
175.06813282935067
 20
29.55391441368927
 10
175.23912019208026
 20
29.7432871336069
 10
175.42784597638445
 20
29.914988279789107
 10
175.6324926497935
 20
30.06736427633809
 10
175.8510893529721
 20
30.19894765911021
 10
176.08153088016977
 20
30.308471208197446
 10
176.32159795350887
 20
30.394880151951178
 10
176.56897859583782
 20
30.457342325006586
 10
176.82129039633995
 20
30.49525618249217
 10
177.07610345444806
 20
30.50825659323442
 10
177.33096378111838
 20
30.49621835617117
 10
177.5834169320838
 20
30.459257406106076
 10
177.83103164549567
 20
30.397729697193157
 10
178.07142325630318
 20
30.312227774903945
 10
178.30227666188378
 20
30.20357506948995
 10
178.5213686177441
 20
30.07281796589998
 10
178.72658914858226
 20
29.921215726520032
 10
178.9159618685
 20
29.75022836379035
 10
179.0876630146819
 20
29.561502579486536
 10
179.24003901123166
 20
29.35685590607647
 10
179.3716223940039
 20
29.13825920289755
 10
179.48114594309064
 20
28.90781767570079
 10
179.5675548868444
 20
28.6677506023616
 10
179.63001705990004
 20
28.420369960031394
  0
LWPOLYLINE
  5
33
330
17
100
AcDbEntity
  8
CUT
100
AcDbPolyline
 90
114
 70
1
 10
154.64614137009676
 20
35.52097380873811
 10
164.37573317034747
 20
35.52572713198435
 10
164.99045002505605
 20
35.569491072616714
 10
165.75159681692247
 20
35.67291021465068
 10
166.383715425992
 20
35.792888998198414
 10
166.7652304513142
 20
35.90882019876868
 10
166.76522758374003
 20
31.46782345998396
 10
166.54028197958127
 20
31.47007819107479
 10
166.5501959708131
 20
31.645017391548116
 10
166.53617450125128
 20
31.986484881113824
 10
166.45975457780204
 20
32.48163489020861
 10
166.316669812974
 20
32.92811257737515
 10
166.12902271679837
 20
33.29108369458203
 10
165.91331601282738
 20
33.58308987651404
 10
165.66695138886388
 20
33.82570675894397
 10
165.36514275982572
 20
34.040062975284066
 10
165.03508667667003
 20
34.20500796973518
 10
164.6248947038958
 20
34.33819504506097
 10
164.15133721584436
 20
34.41921910072734
 10
161.447830244102
 20
34.42080206367533
 10
161.25496773212967
 20
34.38766456308011
 10
161.0446075594241
 20
34.28392640609132
 10
160.8946968675888
 20
34.143519721116974
 10
160.79244786949715
 20
33.976668934903806
 10
160.74612240532332
 20
33.83721180439435
 10
160.72725114133158
 20
33.66194685084469
 10
160.72821428178216
 20
29.12524493563147
 10
160.7585085334476
 20
28.941755359258295
 10
160.8184729296993
 20
28.796988500567956
 10
160.9334939585172
 20
28.63867171245311
 10
161.07725346715398
 20
28.520691332734756
 10
161.25496773213013
 20
28.438766473906377
 10
161.44783024410208
 20
28.405628973311302
 10
163.1552748329
 20
28.40737250432221
 10
163.42330674245736
 20
28.43229978406589
 10
163.68800040669868
 20
28.483997277298165
 10
163.93881889665636
 20
28.562041278062004
 10
164.17579804624484
 20
28.666509227192414
 10
164.41673612477732
 20
28.80951721714856
 10
164.65828455675828
 20
28.998592551604006
 10
164.86204968611642
 20
29.20341209278145
 10
165.04748045787267
 20
29.445047255232865
 10
165.2129806483323
 20
29.745990020691465
 10
165.3328237033549
 20
30.090635707807245
 10
165.39422727906913
 20
30.44008604786528
 10
165.40790691225217
 20
30.862574295500508
 10
165.63285207489503
 20
30.860316326032923
 10
165.62288396311368
 20
24.884893562140604
 10
165.62219436984384
 20
24.868424149564035
 10
165.4079085994401
 20
24.868422462376095
 10
165.39232550731577
 20
25.271191918093088
 10
165.32480281173372
 20
25.64800609184485
 10
165.2120883653736
 20
25.973722002192346
 10
165.04076235396795
 20
26.290178955511585
 10
164.87294909850326
 20
26.513325304745784
 10
164.6581923551178
 20
26.733441351956763
 10
164.438758818005
 20
26.908238049169604
 10
164.1911566613175
 20
27.05848261406593
 10
163.98868018404636
 20
27.151173457045644
 10
163.74270570733378
 20
27.233486231730268
 10
163.4903490410553
 20
27.288716939511936
 10
163.20855415236005
 20
27.320702423814417
 10
161.44783024410208
 20
27.32536947175325
 10
161.2643406677292
 20
27.295075220087803
 10
161.11957380903934
 20
27.235110823836344
 10
160.96840581452508
 20
27.126785370889486
 10
160.84327664120562
 20
26.97633028638142
 10
160.77397242776252
 20
26.83579524380631
 10
160.73078219826465
 20
26.64493234393789
 10
160.72757238884574
 20
22.265086788658564
 10
160.73846259363893
 20
22.147961758584522
 10
160.77742260839642
 20
22.006270343419693
 10
160.84327664120556
 20
21.874902210892472
 10
160.92679838264522
 20
21.766054558264287
 10
161.0054966243403
 20
21.69234561132737
 10
161.12821195596015
 20
21.611504487714335
 10
161.26434066772904
 20
21.556157277186074
 10
161.40865140959735
 20
21.528430942003084
 10
163.38416005409587
 20
21.524933633935873
 10
163.8083850958338
 20
21.545397327424354
 10
164.1103797332262
 20
21.585614678532316
 10
164.44505147089507
 20
21.657045098722932
 10
164.72897520046217
 20
21.741389441967648
 10
165.04801071332034
 20
21.864072318723863
 10
165.49610730959205
 20
22.090813171188202
 10
165.92348228192756
 20
22.374287649081417
 10
166.31602077764876
 20
22.705110864996556
 10
166.68306001155264
 20
23.09036221898736
 10
167.05963839342664
 20
23.58546950840612
 10
167.3848742724321
 20
24.14268526142684
 10
167.65171223406523
 20
24.752270058610286
 10
167.86634662633284
 20
25.427768950548916
 10
168.08064757339622
 20
25.427759760173927
 10
167.2613921092995
 20
20.425666812058523
 10
154.64614305728475
 20
20.425689593269873
 10
154.64614137009676
 20
20.639975363673564
 10
155.03807656872937
 20
20.64490715229715
 10
155.29933861076336
 20
20.689918494738407
 10
155.5664790018924
 20
20.798262978989243
 10
155.80867682447345
 20
20.96795782202512
 10
156.00027979423544
 20
21.167562853922668
 10
156.14362129096043
 20
21.383659529283115
 10
156.24055336704137
 20
21.61356742204891
 10
156.295429701598
 20
21.86768995121742
 10
156.30608493663846
 20
22.02598778162004
 10
156.30608493663846
 20
33.92067730757587
 10
156.27461289422828
 20
34.203660197222014
 10
156.19255693679654
 20
34.46176782995946
 10
156.05788248539375
 20
34.70230575077227
 10
155.86646074483272
 20
34.92561413269815
 10
155.61782411870277
 20
35.11880503963299
 10
155.33507371529984
 20
35.246254930719324
 10
155.05817758901065
 20
35.30012107741514
 10
154.64614305728475
 20
35.30668803833442
  0
LWPOLYLINE
  5
34
330
17
100
AcDbEntity
  8
CUT
100
AcDbPolyline
 90
64
 70
1
 10
154.89424615176176
 20
59.518400252195036
 10
154.89874178594516
 20
59.273110483878924
 10
154.8791731707786
 20
59.028561203633764
 10
154.83572876272356
 20
58.787107554715
 10
154.76882695517912
 20
58.55107486775388
 10
154.67911204912355
 20
58.322736266552
 10
154.5674480481453
 20
58.1042907766622
 10
154.43491033761603
 20
57.89784214756759
 10
154.28277532814027
 20
57.705378592421965
 10
154.1125081630252
 20
57.52875364047317
 10
153.92574860814707
 20
57.3696682865603
 10
153.72429526011402
 20
57.22965460960782
 10
153.5100882247932
 20
57.11006101786384
 10
153.28519043303092
 20
57.01203926299258
 10
153.05176777350414
 20
56.936533348078065
 10
152.81206823402636
 20
56.88427043635677
 10
152.5684002521955
 20
56.85575384823825
 10
152.32311048387913
 20
56.851258214054816
 10
152.07856120363488
 20
56.870826829221244
 10
151.8371075547162
 20
56.914271237276154
 10
151.6010748677538
 20
56.98117304482088
 10
151.3727362665512
 20
57.070887950876774
 10
151.15429077666224
 20
57.18255195185464
 10
150.94784214756694
 20
57.315089662384366
 10
150.75537859242218
 20
57.467224671859476
 10
150.57875364047266
 20
57.63749183697529
 10
150.4196682865604
 20
57.824251391852755
 10
150.27965460960849
 20
58.025704739884915
 10
150.16006101786346
 20
58.239911775207496
 10
150.06203926299264
 20
58.46480956696886
 10
149.9865333480783
 20
58.698232226494895
 10
149.9342704363568
 20
58.937931765973275
 10
149.9057538482382
 20
59.18159974780495
 10
149.9012582140548
 20
59.426889516121065
 10
149.92082682922134
 20
59.67143879636616
 10
149.9642712372764
 20
59.91289244528499
 10
150.03117304482112
 20
60.14892513224696
 10
150.1208879508764
 20
60.37726373344799
 10
150.2325519518545
 20
60.595709223337536
 10
150.36508966238392
 20
60.8021578524324
 10
150.51722467185994
 20
60.99462140757831
 10
150.68749183697514
 20
61.17124635952721
 10
150.87425139185225
 20
61.33033171343921
 10
151.07570473988582
 20
61.47034539039209
 10
151.28991177520726
 20
61.58993898213642
 10
151.51480956696903
 20
61.68796073700741
 10
151.74823222649536
 20
61.76346665192179
 10
151.98793176597354
 20
61.8157295636432
 10
152.23159974780447
 20
61.84424615176174
 10
152.47688951612082
 20
61.84874178594517
 10
152.7214387963651
 20
61.82917317077874
 10
152.96289244528393
 20
61.78572876272381
 10
153.1989251322463
 20
61.71882695517907
 10
153.4272637334485
 20
61.629112049123336
 10
153.64570922333772
 20
61.51744804814535
 10
153.85215785243247
 20
61.38491033761599
 10
154.04462140757778
 20
61.23277532814051
 10
154.22124635952704
 20
61.062508163024965
 10
154.38033171343955
 20
60.875748608147234
 10
154.52034539039147
 20
60.67429526011507
 10
154.63993898213607
 20
60.46008822479332
 10
154.73796073700734
 20
60.23519043303108
 10
154.81346665192166
 20
60.001767773505094
 10
154.86572956364319
 20
59.76206823402654
  0
LWPOLYLINE
  5
35
330
17
100
AcDbEntity
  8
CUT
100
AcDbPolyline
 90
86
 70
1
 10
129.6197103331102
 20
20.63997536367357
 10
130.05166376949043
 20
20.642801372640783
 10
130.29864999063167
 20
20.672179059619502
 10
130.57522812300405
 20
20.752198165893013
 10
130.82880869517643
 20
20.878072358652418
 10
131.06689070309048
 20
21.053261161728855
 10
131.2564331618059
 20
21.2608345951596
 10
131.3997174299858
 20
21.504089684995293
 10
131.4972228326114
 20
21.783024582113782
 10
131.53909412771876
 20
22.00403017857991
 10
133.43691584305714
 20
35.82290804265752
 10
133.6210676472691
 20
35.82346000855277
 10
133.6408195738369
 20
35.809392268368896
 10
140.2632937051498
 20
26.764285762148347
 10
140.3977906938808
 20
26.632953263580347
 10
140.52453916867321
 20
26.55549863014093
 10
140.67367884660484
 20
26.502163597678454
 10
140.86048671339847
 20
26.481175837867205
 10
141.0177432588399
 20
26.500087425249035
 10
141.19424881083032
 20
26.564767060950437
 10
141.32649096510914
 20
26.651940920869045
 10
141.45550750788203
 20
26.788661061481058
 10
147.50980930960856
 20
35.80937700153443
 10
147.51972511230414
 20
35.82289507452276
 10
147.71285566318014
 20
35.8229186584001
 10
149.67347480902293
 20
22.017285164327326
 10
149.71247521255154
 20
21.82540823951181
 10
149.80101219654156
 20
21.56206364588777
 10
149.92685085796992
 20
21.326353651140245
 10
150.08319345100784
 20
21.128348602349483
 10
150.27992769487412
 20
20.95492362679021
 10
150.55457117558726
 20
20.790216559476967
 10
150.84695541159843
 20
20.687458613369756
 10
151.1323613660265
 20
20.644504095923097
 10
151.59476049636913
 20
20.639977050861496
 10
151.59476218355704
 20
20.425691280457805
 10
143.9399771906211
 20
20.425689593269873
 10
143.93997550343312
 20
20.618408699260414
 10
144.30343742846236
 20
20.61981762353249
 10
144.4610820141606
 20
20.641871592623964
 10
144.64859547335212
 20
20.716744839260286
 10
144.8031428510238
 20
20.83185354909108
 10
144.94612052114786
 20
20.998758361790493
 10
145.04722920069676
 20
21.176246987282326
 10
145.10628892635145
 20
21.359536103160025
 10
145.12371528757248
 20
21.550260112583814
 10
144.548056289454
 20
25.955084409522406
 10
144.45357749393304
 20
26.179920711389038
 10
144.29192476003783
 20
26.36252958046365
 10
144.08020845765083
 20
26.483582514107198
 10
143.84083800823103
 20
26.530266487634826
 10
143.65595936054498
 20
26.512653914462398
 10
143.50761067001469
 20
26.462877221623877
 10
143.34952556965024
 20
26.365412263067718
 10
143.23842089840673
 20
26.25522694118016
 10
140.62728304404246
 20
22.3890004146266
 10
140.23227279900624
 20
21.716338086826312
 10
140.0675179193392
 20
21.3695699428769
 10
139.90513628605999
 20
20.972654720421495
 10
139.8206714902774
 20
20.700123999906303
 10
139.76672284639523
 20
20.442432033539916
 10
139.73800763622356
 20
20.189882887385572
 10
139.73305088626466
 20
19.90811594341325
 10
139.53428057005993
 20
19.915124302207495
 10
135.0304101281558
 20
26.14940862927331
 10
134.90030105728013
 20
26.27907821048796
 10
134.7776298118197
 20
26.356657116673013
 10
134.63297492835596
 20
26.41168998282084
 10
134.48975868105512
 20
26.435265980287618
 10
134.24962331327995
 20
26.41228417271843
 10
134.12221267944227
 20
26.36613227060755
 10
133.99735010102893
 20
26.29213188101879
 10
133.8281723202607
 20
26.120166661189764
 10
133.7562221494993
 20
25.994111538032435
 10
133.7196436841013
 20
25.894091317279937
 10
133.17781029774264
 20
21.595362764626145
 10
133.19001987446788
 20
21.395166725236955
 10
133.2481085531069
 20
21.194012261107275
 10
133.34787353391482
 20
21.011693405812665
 10
133.48536500305298
 20
20.845867422353777
 10
133.64561523670665
 20
20.721781844888028
 10
133.83210215686364
 20
20.644387212966855
 10
133.98201580398322
 20
20.620685068851316
 10
134.36299563027262
 20
20.618410386448353
 10
134.36299731746055
 20
20.425691280457805
 10
129.6282893531311
 20
20.425128590280323
  0
LWPOLYLINE
  5
36
330
17
100
AcDbEntity
  8
CUT
100
AcDbPolyline
 90
66
 70
1
 10
120.8629439352685
 20
35.78301821162125
 10
121.63540289445244
 20
35.70332210160121
 10
122.50726217387529
 20
35.55332882242497
 10
123.32408722535196
 20
35.34527917039782
 10
124.10427286476485
 20
35.073623062625764
 10
124.8221109758292
 20
34.74789247687618
 10
125.49155657217034
 20
34.364580030957065
 10
126.09800037974644
 20
33.93126594354583
 10
126.64453897951881
 20
33.44639780798857
 10
127.1311790968553
 20
32.91000253994782
 10
127.55793986962834
 20
32.32210016598812
 10
127.91981387656739
 20
31.688543584510093
 10
128.21469224762362
 20
31.006878861370318
 10
128.40512355365533
 20
30.41504797583754
 10
128.57659751987575
 20
29.645742814220675
 10
128.67869996707483
 20
28.83697480761112
 10
128.71319379081476
 20
27.974474510754824
 10
128.6789064266064
 20
27.11887384408722
 10
128.57587776437293
 20
26.307963327991082
 10
128.40511968786427
 20
25.545413788267467
 10
128.21471116513376
 20
24.95420649168929
 10
127.91983358427643
 20
24.271354809614493
 10
127.55793436904948
 20
23.63459547193044
 10
127.13117717980158
 20
23.043327782189053
 10
126.64454184003183
 20
22.504253457126516
 10
126.0980082605306
 20
22.017391982375912
 10
125.49156873453325
 20
21.582770342440142
 10
124.82457202598789
 20
21.20008621619177
 10
124.1004098089234
 20
20.87148499547923
 10
123.32648630206704
 20
20.602105224638706
 10
122.50371064725006
 20
20.392572924833026
 10
121.6354302402408
 20
20.243346685778327
 10
120.85352250519932
 20
20.163293180938794
 10
120.85353233720885
 20
21.361818774147046
 10
121.23084619266767
 20
21.505457409044006
 10
121.60140206433402
 20
21.703948702758723
 10
121.9536115956718
 20
21.957140595395487
 10
122.27927574758837
 20
22.259284801307878
 10
122.57704471384264
 20
22.6063237884527
 10
122.84664135333806
 20
22.997899931124977
 10
123.08811093836795
 20
23.43405994231064
 10
123.30147310589265
 20
23.91485191394456
 10
123.45194660141313
 20
24.331715598905546
 10
123.58331973266722
 20
24.775676970084888
 10
123.69446755377541
 20
25.245093460236802
 10
123.78540631830425
 20
25.74003909500125
 10
123.85613120140627
 20
26.260519647507444
 10
123.90663728531462
 20
26.806538746149272
 10
123.93691996170344
 20
27.378098399240173
 10
123.94697495484479
 20
27.97145586644872
 10
123.93691996170351
 20
28.568566689953727
 10
123.90663728531482
 20
29.140126343043576
 10
123.85613120140592
 20
29.686145441691636
 10
123.78540631830434
 20
30.206625994194177
 10
123.69446755377561
 20
30.701571628958114
 10
123.58331973266735
 20
31.170988119110575
 10
123.45194660141279
 20
31.61494949029141
 10
123.30147310589273
 20
32.03181317525116
 10
123.08811093836795
 20
32.512605146885285
 10
122.8466413533379
 20
32.948765158071204
 10
122.57704471384233
 20
33.340341300743624
 10
122.27927574758837
 20
33.68738028788802
 10
121.95361159567175
 20
33.989524493800474
 10
121.60140206433393
 20
34.24271638643726
 10
121.23084619266797
 20
34.44120768015178
 10
120.85353693559695
 20
34.58484006625036
  0
LWPOLYLINE
  5
37
330
17
100
AcDbEntity
  8
CUT
100
AcDbPolyline
 90
64
 70
1
 10
118.0321798851887
 20
35.726526638835836
 10
118.65089785075754
 20
35.78484247262274
 10
118.65088947556787
 20
34.58689619754983
 10
118.27771378454746
 20
34.44454270936682
 10
117.90220564589944
 20
34.24273907989253
 10
117.5597071096205
 20
33.99673956839547
 10
117.23714341727319
 20
33.69965899466665
 10
116.98075898670716
 20
33.40823662764707
 10
116.70635786097475
 20
33.025619937395874
 10
116.4624776232992
 20
32.603406253685954
 10
116.24627895093023
 20
32.1382479561161
 10
116.05465742417371
 20
31.621222973529186
 10
115.89403009199195
 20
31.065867766545814
 10
115.78473711664142
 20
30.576563894142765
 10
115.68192645293
 20
29.95456383087577
 10
115.60926362713471
 20
29.286532131402737
 10
115.57318339197352
 20
28.711087169162468
 10
115.55756858681539
 20
27.975209222747218
 10
115.57318339197342
 20
27.235577920036057
 10
115.64895780600109
 20
26.255730261230397
 10
115.78725988701436
 20
25.357281751124056
 10
115.98745687059268
 20
24.540194978525918
 10
116.12789771420023
 20
24.113305476380603
 10
116.28800243252063
 20
23.710366725598938
 10
116.50703875624609
 20
23.25910222706095
 10
116.71768846530385
 20
22.903512164875323
 10
116.9908946143466
 20
22.525776184127764
 10
117.28820810413656
 20
22.19521844352294
 10
117.6132952124918
 20
21.907065627874026
 10
117.9189994717016
 20
21.693515510866526
 10
118.27771378454733
 20
21.502122379829146
 10
118.65088491919099
 20
21.359775102542322
 10
118.650902031913
 20
20.16182651497151
 10
117.84893652065202
 20
20.243345806502795
 10
116.97878834521023
 20
20.39334353459006
 10
116.16439913760931
 20
20.60138276078913
 10
115.39366238593759
 20
20.870485787329777
 10
114.80663961868771
 20
21.13175204534369
 10
114.13159437195515
 20
21.503619461600167
 10
113.5190718879527
 20
21.92461091653046
 10
112.9625492286436
 20
22.399166045438335
 10
112.46839506421064
 20
22.9215307884922
 10
112.03163248353141
 20
23.496223773728985
 10
111.65376774263633
 20
24.123844114327532
 10
111.39697821041433
 20
24.667825154064495
 10
111.14503688784491
 20
25.37311647006849
 10
110.98821495136343
 20
25.987910520130534
 10
110.85890606196774
 20
26.777782595613914
 10
110.79689076870585
 20
27.621584688042823
 10
110.8036731180221
 20
28.49091479371984
 10
110.85940043898779
 20
29.16418372660626
 10
110.98912494778791
 20
29.950556203003437
 10
111.18814324113418
 20
30.698166760880127
 10
111.45477031125692
 20
31.398900476636214
 10
111.72398625006905
 20
31.940001182219326
 10
112.11280249505674
 20
32.558805410582316
 10
112.56537377437473
 20
33.131348294141965
 10
113.07268610210616
 20
33.64668943234074
 10
113.64124079313495
 20
34.112161393992025
 10
114.2657103413592
 20
34.523488076169144
 10
114.95246158590747
 20
34.88483223191998
 10
115.69354091020652
 20
35.19010780386444
 10
116.32822644159737
 20
35.392969008583975
 10
117.15237370400538
 20
35.588814844610816
  0
LWPOLYLINE
  5
38
330
17
100
AcDbEntity
  8
CUT
100
AcDbPolyline
 90
136
 70
1
 10
107.41201504459998
 20
30.712425595381916
 10
107.20902600480157
 20
31.3284626015919
 10
107.04459574556635
 20
31.763194845455175
 10
106.8617985810432
 20
32.17469384966617
 10
106.61664556412045
 20
32.634414225047564
 10
106.39459648381234
 20
32.97874522266833
 10
106.11516404262447
 20
33.334872404971094
 10
105.86056200291942
 20
33.598281917149265
 10
105.59910187773964
 20
33.81841951404396
 10
105.24785262849376
 20
34.05518251440106
 10
104.80008199980726
 20
34.29436330743459
 10
104.39862311677014
 20
34.45823839932875
 10
103.98577231439944
 20
34.583508523976136
 10
103.54571282461379
 20
34.67464871019061
 10
103.09186227238104
 20
34.72815643902564
 10
102.53291202624135
 20
34.74433324173666
 10
102.07127425008984
 20
34.71874885416234
 10
101.65404380666995
 20
34.661912910267695
 10
101.24994835704048
 20
34.57186682933584
 10
100.86489402387252
 20
34.44921880398072
 10
100.49249659424765
 20
34.290888028968034
 10
100.14585213282162
 20
34.10253096700353
 10
99.75889995667342
 20
33.83688464013816
 10
99.45130417597493
 20
33.57695712607711
 10
99.15966870094229
 20
33.28076440287185
 10
98.85353360724214
 20
32.90295820738478
 10
98.62066377787787
 20
32.555254113733255
 10
98.40689166975469
 20
32.174322602938766
 10
98.21283199434893
 20
31.75840981685611
 10
98.01501278912968
 20
31.2315236956414
 10
97.87875843322821
 20
30.76763346259215
 10
97.76641599404766
 20
30.273976924438962
 10
97.68049661507389
 20
29.763141247083674
 10
97.6065529636265
 20
29.07992785956381
 10
97.57157440785238
 20
28.35275347891247
 10
97.5798387496209
 20
27.473223531064022
 10
97.62677564426748
 20
26.759634763697584
 10
97.7092224891613
 20
26.09155685933839
 10
97.82839385925726
 20
25.45727474879468
 10
98.0132254749879
 20
24.76593135856932
 10
98.21059205513592
 20
24.21527430691328
 10
98.4442536573721
 20
23.700315815476074
 10
98.74906396909252
 20
23.171162942575656
 10
99.04789479817465
 20
22.7596668275445
 10
99.38150549332205
 20
22.389980065780342
 10
99.80145671178316
 20
22.024156490899422
 10
100.19270651686674
 20
21.761679751386836
 10
100.61784524963262
 20
21.54619115839987
 10
101.06376973032616
 20
21.384538829095412
 10
101.63455498400052
 20
21.256857322164798
 10
102.22519513995515
 20
21.20231523714226
 10
102.96169803686534
 20
21.224999620926575
 10
103.61178792562563
 20
21.295992634608332
 10
104.20439167147423
 20
21.416390397429304
 10
104.72486290795764
 20
21.58353344867585
 10
105.1812145649212
 20
21.799488981392443
 10
105.58966653852242
 20
22.075672268550484
 10
105.89807223894243
 20
22.354761294251944
 10
106.17752378317988
 20
22.678312448873378
 10
106.42811608162583
 20
23.046358585019107
 10
106.65181344865324
 20
23.462930547998717
 10
106.92801806094117
 20
24.118614535636176
 10
107.1824742475995
 20
24.88312592930734
 10
107.4125231344432
 20
25.750475143069337
 10
107.61922461023316
 20
26.72176317521835
 10
107.79056884904178
 20
26.72177734710644
 10
108.30798065160617
 20
22.797517017162328
 10
108.1091820524354
 20
22.498141416818385
 10
107.87507433664626
 20
22.20414900179486
 10
107.57011406954541
 20
21.881750283916134
 10
107.27267919462916
 20
21.612950687741858
 10
106.94376292886447
 20
21.355674141943986
 10
106.64003405681257
 20
21.155764557506608
 10
106.30878256818296
 20
20.970313327494054
 10
105.94591152325604
 20
20.79752454968326
 10
105.56373533349989
 20
20.64278760945421
 10
105.1457664445631
 20
20.49940890497937
 10
104.70655726172146
 20
20.37797189281229
 10
104.32829728530335
 20
20.297030627206695
 10
103.82638627398622
 20
20.21753483053515
 10
103.39464511556912
 20
20.170688146473232
 10
102.83522338566749
 20
20.134892204402334
 10
102.364373183465
 20
20.12352774077197
 10
101.23715445837269
 20
20.159574862059195
 10
100.66058497095246
 20
20.208374994894896
 10
100.09702497347673
 20
20.278025531814585
 10
99.19141115198471
 20
20.44094447254983
 10
98.68012444308823
 20
20.564191116156316
 10
98.18100499715958
 20
20.709164828489058
 10
97.69945659680718
 20
20.874681934049505
 10
97.23549285826898
 20
21.060737558157086
 10
96.50816811078622
 20
21.41440040235681
 10
95.84402663035539
 20
21.820551558639075
 10
95.24421262604139
 20
22.277937543613284
 10
94.70195218264057
 20
22.792475282336518
 10
94.49812824162393
 20
23.01860072148478
 10
94.2216901195674
 20
23.36190793687468
 10
93.9702703745029
 20
23.719740291367785
 10
93.8081896234341
 20
23.980526419235915
 10
93.59794971216886
 20
24.367926858493753
 10
93.46587547765105
 20
24.649048454765605
 10
93.2983406928177
 20
25.066057526028693
 10
93.1979223510912
 20
25.362333105412688
 10
93.00142569700247
 20
26.12697076818384
 10
92.89471896154821
 20
26.787382742970088
 10
92.82962032710059
 20
27.64349149818927
 10
92.83675736281347
 20
28.51243161459442
 10
92.91530620148944
 20
29.341213745054247
 10
93.06624173831096
 20
30.129016849389657
 10
93.28824106899977
 20
30.868567004621354
 10
93.57809187519562
 20
31.555774448999472
 10
93.86984741044192
 20
32.08978735888251
 10
94.28761483317946
 20
32.69839123880451
 10
94.77059113166314
 20
33.257102323713085
 10
95.31302058889004
 20
33.759699117644466
 10
95.91971575741728
 20
34.211246629632804
 10
96.46234060025532
 20
34.541352556580065
 10
97.1791707250161
 20
34.89566123600206
 10
97.64821746505123
 20
35.086146030620874
 10
98.28990531946374
 20
35.30157677230394
 10
98.8047408661186
 20
35.44145805173781
 10
99.50853166858582
 20
35.591541359791194
 10
100.06898407087601
 20
35.681018525487445
 10
100.83500607309846
 20
35.76554209875111
 10
101.64140620206821
 20
35.812907719689484
 10
102.27575683910985
 20
35.823580732391825
 10
103.03245282657791
 20
35.80955962636807
 10
103.75428608317718
 20
35.767756011579806
 10
104.43950353724952
 20
35.69816412075008
 10
105.08809708702948
 20
35.600771531291706
 10
105.79442684653245
 20
35.45522993607851
 10
106.5298640826881
 20
35.27004061602536
 10
107.1827061789662
 20
35.0705949807055
 10
107.68620667282369
 20
34.88430555235046
 10
107.81214734093527
 20
34.82252164437079
 10
107.5974345236935
 20
30.721612868230288
  0
LWPOLYLINE
  5
39
330
17
100
AcDbEntity
  8
CUT
100
AcDbPolyline
 90
54
 70
1
 10
76.63305231335553
 20
35.52097380873811
 10
84.37410396394401
 20
35.52097549592605
 10
84.37410565113196
 20
35.30668972552235
 10
83.98217045249986
 20
35.3017579368988
 10
83.72090841046607
 20
35.256746594457695
 10
83.45376801933644
 20
35.148402110206696
 10
83.2115701967549
 20
34.978707267170456
 10
83.0199672269934
 20
34.779102235273314
 10
82.87662573026755
 20
34.56300555991136
 10
82.77969365418713
 20
34.333097667146255
 10
82.72481731963073
 20
34.078975137978404
 10
82.7141620845903
 20
33.920677307576454
 10
82.7141620845903
 20
22.284718238351495
 10
82.74826272563601
 20
22.05261647586842
 10
82.85770607210964
 20
21.83429472045718
 10
83.02355691997728
 20
21.66844387258947
 10
83.2046994529882
 20
21.5716211715008
 10
83.4347411873606
 20
21.5258630255206
 10
85.43214804389255
 20
21.52542334361351
 10
85.80783893135764
 20
21.546616097700877
 10
86.15477193987051
 20
21.595808921227736
 10
86.49532445587148
 20
21.673934774357406
 10
86.78279089224894
 20
21.76460154026644
 10
87.11184325637602
 20
21.89834390722161
 10
87.55133807898756
 20
22.131401112116194
 10
87.968207130785
 20
22.418419509922302
 10
88.35669405563586
 20
22.756542685594837
 10
88.71268747252968
 20
23.140786881776442
 10
89.08396830370424
 20
23.642234825486526
 10
89.37374664103078
 20
24.14658499375853
 10
89.6407191831078
 20
24.757869250200557
 10
89.8532575695916
 20
25.427768950548923
 10
90.06755851665494
 20
25.427759760173934
 10
89.24830305255824
 20
20.425666812058523
 10
76.63305400054347
 20
20.425689593269873
 10
76.63305231335553
 20
20.63997536367357
 10
77.02498751198779
 20
20.644907152297122
 10
77.28624955402196
 20
20.68991849473838
 10
77.55338994515101
 20
20.798262978989186
 10
77.79558776773196
 20
20.967957822024935
 10
77.98719073749446
 20
21.167562853923066
 10
78.1305322342198
 20
21.38365952928431
 10
78.22746431030055
 20
21.613567422050224
 10
78.28234064485669
 20
21.86768995121701
 10
78.2929958798972
 20
22.025987781619584
 10
78.2929958798972
 20
33.92067730757633
 10
78.26152383748702
 20
34.20366019722199
 10
78.179467880055
 20
34.46176782996011
 10
78.04479342865382
 20
34.702305750770364
 10
77.85337168809245
 20
34.9256141326972
 10
77.60473506196095
 20
35.11880503963332
 10
77.32198465855872
 20
35.246254930719275
 10
77.04508853226916
 20
35.30012107741516
 10
76.63305400054347
 20
35.30668803833442
  0
LWPOLYLINE
  5
3A
330
17
100
AcDbEntity
  8
CUT
100
AcDbPolyline
 90
114
 70
1
 10
60.900942239334434
 20
20.639975363673564
 10
61.29287743796702
 20
20.644907152297144
 10
61.545683696679006
 20
20.687589319378922
 10
61.80765145330576
 20
20.790942550251728
 10
62.0422457813772
 20
20.949792081217048
 10
62.26222151319661
 20
21.176532606534998
 10
62.423014830100406
 20
21.431817666507925
 10
62.523239516882285
 20
21.715297056546717
 10
62.56088580587611
 20
22.02598778161925
 10
62.56088580587611
 20
33.92067730757666
 10
62.55023057083563
 20
34.07897513797865
 10
62.495354236279375
 20
34.33309766714593
 10
62.39842216019851
 20
34.56300555991199
 10
62.255080663473265
 20
34.779102235272994
 10
62.063477693711484
 20
34.97870726717047
 10
61.82127987112969
 20
35.14840211020686
 10
61.554139480000806
 20
35.25674659445756
 10
61.29287743796699
 20
35.30175793689877
 10
60.900943926522366
 20
35.30668803833442
 10
60.900942239334434
 20
35.52097380873811
 10
70.63053403958506
 20
35.52572713198435
 10
71.24525089429409
 20
35.569491072616756
 10
72.00639768616102
 20
35.672910214650834
 10
72.63851629522928
 20
35.79288899819832
 10
73.02003132055188
 20
35.90882019876867
 10
73.0200284529777
 20
31.46782345998396
 10
72.79508284881885
 20
31.470078191074826
 10
72.8049968400507
 20
31.645017391550013
 10
72.79097537048891
 20
31.986484881114215
 10
72.71455544703991
 20
32.48163489020763
 10
72.57147068221215
 20
32.92811257737392
 10
72.38382358603603
 20
33.29108369458199
 10
72.1681168820643
 20
33.58308987651487
 10
71.92175225810144
 20
33.82570675894403
 10
71.6199436290623
 20
34.04006297528471
 10
71.28988754590894
 20
34.205007969734666
 10
70.87969557313313
 20
34.33819504506104
 10
70.4061380850819
 20
34.41921910072735
 10
67.70263111333963
 20
34.42080206367533
 10
67.5097686013673
 20
34.3876645630801
 10
67.29940842866152
 20
34.283926406091155
 10
67.14949773682646
 20
34.14351972111701
 10
67.04724873873528
 20
33.97666893490495
 10
67.00092327456095
 20
33.83721180439438
 10
66.9820520105692
 20
33.66194685084442
 10
66.9830151510198
 20
29.125244935631308
 10
67.01330940268538
 20
28.941755359257918
 10
67.07327379893705
 20
28.796988500567807
 10
67.18159925188375
 20
28.64582050605403
 10
67.33205433639166
 20
28.520691332734728
 10
67.50976860136745
 20
28.438766473906476
 10
67.70263111333972
 20
28.405628973311302
 10
69.41007570213704
 20
28.407372504322176
 10
69.67810761169412
 20
28.432299784065776
 10
69.9428012759365
 20
28.483997277298215
 10
70.19361976589339
 20
28.562041278061777
 10
70.43059891548222
 20
28.666509227192286
 10
70.67153699401584
 20
28.809517217149164
 10
70.91308542599498
 20
28.998592551603203
 10
71.1168505553536
 20
29.20341209278093
 10
71.3022813271117
 20
29.445047255234947
 10
71.4677815175698
 20
29.745990020691202
 10
71.58762457259236
 20
30.090635707806605
 10
71.64902814830694
 20
30.440086047867077
 10
71.66270778148981
 20
30.862574295500508
 10
71.88765294413265
 20
30.860316326032923
 10
71.87768483235132
 20
24.884893562140405
 10
71.87699523908142
 20
24.868424149564028
 10
71.66270946867775
 20
24.868422462376103
 10
71.6471263765533
 20
25.271191918094267
 10
71.57960368097142
 20
25.648006091844714
 10
71.46688923461153
 20
25.973722002191685
 10
71.29556322320528
 20
26.29017895551211
 10
71.12774996774047
 20
26.513325304746303
 10
70.91299322435582
 20
26.733441351956408
 10
70.69355968724315
 20
26.90823804916925
 10
70.44595753055599
 20
27.05848261406549
 10
70.24348105328407
 20
27.151173457045616
 10
69.99750657657137
 20
27.233486231730282
 10
69.74514991029234
 20
27.288716939512035
 10
69.46335502159745
 20
27.32070242381443
 10
67.70263111333972
 20
27.32536947175325
 10
67.51914153696673
 20
27.295075220087774
 10
67.37437467827678
 20
27.23511082383625
 10
67.22320668376271
 20
27.126785370889465
 10
67.09807751044329
 20
26.976330286381476
 10
67.01615265161514
 20
26.798616021406133
 10
66.98558306750233
 20
26.644932343938393
 10
66.98237325808337
 20
22.265086788658678
 10
66.99326346287644
 20
22.147961758585318
 10
67.03222347763366
 20
22.006270343420724
 10
67.09290524863007
 20
21.8832198844826
 10
67.18159925188341
 20
21.766054558263697
 10
67.26029749357832
 20
21.692345611327084
 10
67.38301282519743
 20
21.61150448771452
 10
67.51914153696657
 20
21.55615727718611
 10
67.66345227883465
 20
21.52843094200312
 10
69.63896092333349
 20
21.52493363393588
 10
70.06318596507116
 20
21.545397327424325
 10
70.3651806024647
 20
21.58561467853246
 10
70.69985234013296
 20
21.657045098723003
 10
70.98377606969898
 20
21.741389441967357
 10
71.30281158255814
 20
21.86407231872394
 10
71.75090817882825
 20
22.090813171187392
 10
72.17828315116456
 20
22.374287649080948
 10
72.57082164688602
 20
22.705110864996165
 10
72.93786088078897
 20
23.09036221898583
 10
73.31443926266431
 20
23.58546950840617
 10
73.63967514167035
 20
24.142685261428028
 10
73.90651310330281
 20
24.752270058610122
 10
74.12114749557054
 20
25.427768950548916
 10
74.33544844263386
 20
25.427759760173934
 10
73.51619297853716
 20
20.425666812058523
 10
60.90952125935542
 20
20.425128590280316
  0
LWPOLYLINE
  5
3B
330
17
100
AcDbEntity
  8
CUT
100
AcDbPolyline
 90
84
 70
1
 10
35.11967794788801
 20
35.52097380873812
 10
42.860729598476524
 20
35.520975495926045
 10
42.86073128566445
 20
35.30668972552235
 10
42.55471013632947
 20
35.29905148843035
 10
42.33616859744573
 20
35.24328890354281
 10
42.119425106908146
 20
35.120970974562894
 10
41.93020093462877
 20
34.941067869971235
 10
41.832515812253995
 20
34.780019575931696
 10
41.778059380817176
 20
34.59970475895413
 10
41.768939178735494
 20
34.41159799937883
 10
41.80089782371022
 20
34.19633280131706
 10
41.877267049997194
 20
33.94911971322738
 10
43.61524872193287
 20
29.62181139811824
 10
43.72772672455676
 20
29.45942943609957
 10
43.88708307856141
 20
29.32679810602017
 10
44.10544092064263
 20
29.235299004474214
 10
44.30186330479018
 20
29.214383706993523
 10
44.49692933055484
 20
29.245503608270006
 10
44.67709357218907
 20
29.326497735831268
 10
44.80201789127358
 20
29.4235179252102
 10
44.92508892293746
 20
29.578025930919345
 10
47.947271538900225
 20
35.858344538902415
 10
48.14471631073008
 20
35.86603742243574
 10
48.21552484434034
 20
35.694650767995896
 10
51.59177610241773
 20
29.50126364368156
 10
51.70690317078598
 20
29.35397551428325
 10
51.863411635269536
 20
29.234813848231383
 10
52.04553085638719
 20
29.1604701100229
 10
52.240719817553526
 20
29.136063726636245
 10
52.44500822305383
 20
29.16596729486146
 10
52.666270791441185
 20
29.272299882063535
 10
52.83546837480917
 20
29.43649169497875
 10
52.93523886080275
 20
29.61725072280079
 10
54.15906172946836
 20
33.95715821540087
 10
54.21129623008732
 20
34.20272849417172
 10
54.22776592787643
 20
34.43755421542375
 10
54.205308392447094
 20
34.63999919915287
 10
54.15507189189446
 20
34.794942742737064
 10
54.05252385713262
 20
34.962753300550204
 10
53.87621496220908
 20
35.134034766692494
 10
53.66069190847054
 20
35.25166726180171
 10
53.45737397184341
 20
35.299446824455586
 10
53.1494110844585
 20
35.30668803833442
 10
53.14940939727056
 20
35.52097380873812
 10
57.84956136560675
 20
35.520975495926045
 10
57.84956305279469
 20
35.30668972552235
 10
57.48726603858603
 20
35.29515099119845
 10
57.15643729310138
 20
35.22942762641598
 10
56.7668080300689
 20
35.08540776146234
 10
56.44585496473258
 20
34.90972884406559
 10
56.25304040163752
 20
34.75333148531898
 10
56.08454217635072
 20
34.567941473148984
 10
55.93996493128641
 20
34.35362262527287
 10
55.820080503879
 20
34.10713930590553
 10
52.054675999930275
 20
22.01562787145737
 10
51.89038356775915
 20
21.167575658508397
 10
51.84646971129607
 20
20.81322890962231
 10
51.827180307546335
 20
20.37971094697358
 10
51.85396734139938
 20
19.95120812943376
 10
51.63498725165648
 20
19.958455510716817
 10
47.33354395632995
 20
28.056304061320112
 10
47.21549052368427
 20
28.20956045382136
 10
47.06214837563589
 20
28.327502475313615
 10
46.88372989788402
 20
28.40227534204076
 10
46.69211752675783
 20
28.428899279266084
 10
46.46272985591733
 20
28.39502427212068
 10
46.286992129835234
 20
28.31415161646074
 10
46.131238950934616
 20
28.183880494715048
 10
46.00724913639234
 20
27.9993164780792
 10
43.25961030063508
 20
22.36337544375101
 10
42.99268985298485
 20
21.653058475527345
 10
42.81069717975111
 20
21.020459150940447
 10
42.712857625637426
 20
20.496736399523073
 10
42.66663671645503
 20
19.951249816665083
 10
42.4737333056484
 20
19.951270946497644
 10
37.12201080450073
 20
34.13650233712004
 10
36.99258149934815
 20
34.375731026902166
 10
36.84364942022462
 20
34.58511004360685
 10
36.6723181068758
 20
34.76808786170999
 10
36.485765391234935
 20
34.91806221574993
 10
36.15711436918828
 20
35.09903579655005
 10
35.79988183400471
 20
35.23155322730837
 10
35.475324165664446
 20
35.2958041824214
 10
35.11967963507593
 20
35.30668803833442
  0
LWPOLYLINE
  5
3C
330
17
100
AcDbEntity
  8
CUT
100
AcDbPolyline
 90
64
 70
1
 10
53.29424615176175
 20
59.51840025219546
 10
53.298741785945175
 20
59.27311048387938
 10
53.279173170778755
 20
59.02856120363501
 10
53.235728762723824
 20
58.787107554716144
 10
53.168826955179064
 20
58.551074867753634
 10
53.079112049123424
 20
58.32273626655166
 10
52.9674480481455
 20
58.10429077666252
 10
52.83491033761595
 20
57.897842147567445
 10
52.68277532814015
 20
57.705378592421795
 10
52.51250816302477
 20
57.52875364047273
 10
52.325748608147364
 20
57.36966828656051
 10
52.124295260114245
 20
57.22965460960796
 10
51.91008822479287
 20
57.11006101786366
 10
51.68519043303089
 20
57.01203926299255
 10
51.45176777350429
 20
56.9365333480781
 10
51.21206823402657
 20
56.88427043635681
 10
50.96840025219558
 20
56.85575384823825
 10
50.72311048387913
 20
56.851258214054816
 10
50.47856120363495
 20
56.870826829221244
 10
50.23710755471615
 20
56.91427123727617
 10
50.001074867753616
 20
56.981173044820935
 10
49.77273626655178
 20
57.07088795087652
 10
49.55429077666233
 20
57.182551951854606
 10
49.34784214756745
 20
57.31508966238404
 10
49.15537859242204
 20
57.467224671859626
 10
48.97875364047296
 20
57.63749183697499
 10
48.819668286560315
 20
57.824251391852876
 10
48.67965460960786
 20
58.025704739885924
 10
48.56006101786365
 20
58.23991177520712
 10
48.46203926299255
 20
58.46480956696914
 10
48.386533348078075
 20
58.698232226495804
 10
48.33427043635684
 20
58.93793176597329
 10
48.30575384823825
 20
59.18159974780451
 10
48.30125821405482
 20
59.42688951612061
 10
48.32082682922123
 20
59.671438796364924
 10
48.36427123727617
 20
59.912892445283845
 10
48.43117304482085
 20
60.14892513224612
 10
48.52088795087663
 20
60.37726373344845
 10
48.632551951854715
 20
60.59570922333785
 10
48.76508966238404
 20
60.80215785243254
 10
48.91722467185973
 20
60.99462140757808
 10
49.0874918369752
 20
61.17124635952723
 10
49.27425139185278
 20
61.33033171343959
 10
49.47570473988592
 20
61.47034539039213
 10
49.689911775207065
 20
61.58993898213631
 10
49.914809566969105
 20
61.68796073700744
 10
50.14823222649565
 20
61.76346665192187
 10
50.38793176597343
 20
61.81572956364318
 10
50.631599747804415
 20
61.84424615176174
 10
50.87688951612086
 20
61.84874178594517
 10
51.12143879636496
 20
61.82917317077876
 10
51.36289244528375
 20
61.78572876272385
 10
51.598925132246315
 20
61.718826955179075
 10
51.82726373344823
 20
61.629112049123464
 10
52.045709223337845
 20
61.51744804814528
 10
52.25215785243246
 20
61.384910337616006
 10
52.4446214075781
 20
61.232775328140235
 10
52.621246359527284
 20
61.062508163024745
 10
52.78033171343953
 20
60.87574860814729
 10
52.920345390392136
 20
60.674295260114064
 10
53.039938982136384
 20
60.460088224792784
 10
53.13796073700755
 20
60.23519043303059
 10
53.213466651921856
 20
60.00176777350441
 10
53.26572956364319
 20
59.762068234026515
  0
LWPOLYLINE
  5
3D
330
17
100
AcDbEntity
  8
CUT
100
AcDbPolyline
 90
64
 70
1
 10
28.705907626621606
 20
28.168058159530716
 10
28.718908037363867
 20
27.913245101422483
 10
28.706869800300623
 20
27.658384774752186
 10
28.66990885023557
 20
27.40593162378699
 10
28.60838114132269
 20
27.15831691037519
 10
28.522879219033317
 20
26.917925299567173
 10
28.414226513619276
 20
26.68707189398655
 10
28.283469410029173
 20
26.467979938126057
 10
28.1318671706497
 20
26.262759407288577
 10
27.9608798079204
 20
26.07338668737117
 10
27.77215402361556
 20
25.90168554118827
 10
27.567507350206096
 20
25.74930954463902
 10
27.348910647028138
 20
25.617726161867296
 10
27.118469119830095
 20
25.50820261277986
 10
26.878402046491253
 20
25.421793669026236
 10
26.63102140416244
 20
25.359331495970835
 10
26.378709603660212
 20
25.321417638485222
 10
26.123896545551933
 20
25.30841722774295
 10
25.869036218881764
 20
25.320455464806187
 10
25.616583067916288
 20
25.357416414871274
 10
25.368968354504577
 20
25.418944123784144
 10
25.128576743696755
 20
25.504446046073447
 10
24.897723338115934
 20
25.61309875148757
 10
24.678631382255336
 20
25.743855855077754
 10
24.473410851418258
 20
25.895458094456934
 10
24.284038131500825
 20
26.066445457186227
 10
24.112336985317825
 20
26.255171241491134
 10
23.959960988768422
 20
26.459817914900775
 10
23.828377605996696
 20
26.67841461807876
 10
23.718854056909304
 20
26.908856145276722
 10
23.632445113155725
 20
27.148923218615437
 10
23.569982940100246
 20
27.39630386094459
 10
23.532069082614655
 20
27.64861566144669
 10
23.519068671872397
 20
27.90342871955489
 10
23.53110690893564
 20
28.158289046225185
 10
23.568067859000696
 20
28.41074219719038
 10
23.629595567913576
 20
28.65835691060218
 10
23.715097490202947
 20
28.898748521410198
 10
23.82375019561707
 20
29.129601926990986
 10
23.95450729920709
 20
29.348693882851315
 10
24.106109538586566
 20
29.553914413688794
 10
24.277096901315865
 20
29.743287133606202
 10
24.465822685620783
 20
29.914988279789164
 10
24.67046935903023
 20
30.067364276338395
 10
24.889066062208204
 20
30.198947659110118
 10
25.119507589406215
 20
30.30847120819753
 10
25.35957466274501
 20
30.394880151951135
 10
25.60695530507436
 20
30.457342325006643
 10
25.859267105576052
 20
30.49525618249215
 10
26.11408016368433
 20
30.50825659323442
 10
26.368940490354497
 20
30.496218356171184
 10
26.621393641319976
 20
30.459257406106097
 10
26.869008354731832
 20
30.397729697193185
 10
27.109399965539527
 20
30.312227774903917
 10
27.34025337112033
 20
30.2035750694898
 10
27.559345326980917
 20
30.072817965899624
 10
27.764565857818322
 20
29.921215726520188
 10
27.953938577735645
 20
29.750228363790953
 10
28.12563972391844
 20
29.561502579486238
 10
28.27801572046782
 20
29.356855906076618
 10
28.409599103239678
 20
29.13825920289841
 10
28.51912265232696
 20
28.90781767570065
 10
28.60553159608054
 20
28.667750602361934
 10
28.667993769136018
 20
28.42036996003278
  0
LWPOLYLINE
  5
3E
330
17
100
AcDbEntity
  8
SCORE_OPTIONAL
100
AcDbPolyline
 90
95
 70
1
 10
7.372925038052026
 20
8.891314371060027
 10
7.217848723030768
 20
8.456612300574392
 10
7.121318900459998
 20
8.005284762172927
 10
7.085014121936505
 20
7.545179864762098
 10
7.089684740116095
 20
7.31433397159514
 10
7.144570447850494
 20
6.8560740970135114
 10
7.259276879796488
 20
6.4090204223442555
 10
7.431809412330239
 20
5.980946738520359
 10
7.659167887052309
 20
5.579296794493075
 10
7.792206846075095
 20
5.390584642133021
 10
8.094111818897698
 20
5.041488751366515
 10
8.439325995013924
 20
4.735152781925336
 10
8.821846464741341
 20
4.47690359256633
 10
9.235021601378854
 20
4.271231863761315
 10
9.671666725965233
 20
4.121714009509674
 10
10.124189041253121
 20
4.030949987278618
 10
10.584719662428698
 20
4.000518087490633
 10
192.61503403925994
 20
4.000024294976058
 10
193.0755624480919
 20
4.0304533806458664
 10
193.52808300274523
 20
4.121214012046366
 10
193.7488721354974
 20
4.18876581793063
 10
194.17470800412775
 20
4.3667437873084225
 10
194.57342323719632
 20
4.599205628295394
 10
194.76042221776126
 20
4.734639999440077
 10
194.93808467008097
 20
4.882109117072957
 10
195.2623512916141
 20
5.21053491197263
 10
195.5405845064221
 20
5.578772094741566
 10
195.66089299978324
 20
5.77584303132241
 10
195.86127816896044
 20
6.191605137062965
 10
195.94048278344493
 20
6.40848694050446
 10
196.0052153339933
 20
6.630119033214832
 10
196.0902016056575
 20
7.083759505642739
 10
196.11008547284885
 20
7.313793675811418
 10
196.1042023809903
 20
7.775288782856094
 10
196.0376471334802
 20
8.231997381006884
 10
195.98193832629167
 20
8.456067942262287
 10
195.82686949286287
 20
8.890770140893743
 10
185.54593960238347
 20
32.6363701385922
 10
185.41462543617934
 20
32.9813807140962
 10
185.29547831109068
 20
33.37116213976731
 10
185.15416189292085
 20
34.05269937520646
 10
185.1003800914085
 20
34.57688617559657
 10
185.1003800914085
 20
35.273113824403424
 10
185.13796290966448
 20
35.67920677352638
 10
185.2272965619195
 20
36.198420055360934
 10
185.4146254361792
 20
36.868619285903385
 10
185.56865733372553
 20
37.26863958863566
 10
195.9117862887732
 20
61.17347769623704
 10
196.0378637001693
 20
61.617458596615336
 10
196.10442583895528
 20
62.07416860881707
 10
196.11498587806352
 20
62.30482013523791
 10
196.09043431080997
 20
62.76570165375483
 10
196.00545332358658
 20
63.21934555085432
 10
195.86152064594884
 20
63.65786343860019
 10
195.76819058766978
 20
63.86905326147965
 10
195.5408321129477
 20
64.27070320550693
 10
195.26260121962852
 20
64.63894514169546
 10
194.93833604889818
 20
64.96737573195207
 10
194.7606740049861
 20
65.11484721807466
 10
194.37815353525866
 20
65.37309640743368
 10
194.17495982731947
 20
65.48275021776489
 10
193.7491230821888
 20
65.66073229568727
 10
193.3035698449349
 20
65.78113522894745
 10
193.0758109587469
 20
65.81905001272138
 10
192.6152803375713
 20
65.84948191250938
 10
10.584965960740103
 20
65.84997570502394
 10
10.124437551908144
 20
65.81954661935411
 10
9.671916997254792
 20
65.72878598795363
 10
9.451127864502634
 20
65.66123418206935
 10
9.0252919958723
 20
65.48325621269156
 10
8.626576762803706
 20
65.25079437170459
 10
8.439577782238775
 20
65.11536000055992
 10
8.261915329919066
 20
64.96789088292704
 10
7.937648708385931
 20
64.63946508802736
 10
7.792455723358028
 20
64.45993769535882
 10
7.539107000216802
 20
64.07415696867758
 10
7.432053816877168
 20
63.86958252365444
 10
7.259517216555095
 20
63.44151305949553
 10
7.194784666006727
 20
63.219880966785155
 10
7.109798394342521
 20
62.76624049435725
 10
7.085240822168261
 20
62.305361692235806
 10
7.095797619009735
 20
62.07471121714389
 10
7.121538975282022
 20
61.84525867260159
 10
7.218061673708354
 20
61.3939320577377
 10
7.373130507137173
 20
60.959229859106244
 10
17.654060397616867
 20
37.21362986140696
 10
17.785374563820834
 20
36.86861928590336
 10
17.904521688909245
 20
36.47883786023308
 10
18.045838107079142
 20
35.79730062479369
 10
18.0996199085915
 20
35.273113824404014
 10
18.0996199085915
 20
34.57688617559598
 10
18.06203709033549
 20
34.17079322647333
 10
17.9727034380806
 20
33.6515799446393
 10
17.785374563820806
 20
32.98138071409655
 10
17.631342666274236
 20
32.58136041136379
  0
ENDSEC
  0
SECTION
  2
OBJECTS
  0
DICTIONARY
  5
A
330
0
100
AcDbDictionary
281
1
  3
ACAD_COLOR
350
B
  3
ACAD_GROUP
350
C
  3
ACAD_LAYOUT
350
D
  3
ACAD_MATERIAL
350
E
  3
ACAD_MLEADERSTYLE
350
F
  3
ACAD_MLINESTYLE
350
10
  3
ACAD_PLOTSETTINGS
350
11
  3
ACAD_PLOTSTYLENAME
350
12
  3
ACAD_SCALELIST
350
14
  3
ACAD_TABLESTYLE
350
15
  3
ACAD_VISUALSTYLE
350
16
  3
EZDXF_META
350
2D
  0
DICTIONARY
  5
B
330
A
100
AcDbDictionary
281
1
  0
DICTIONARY
  5
C
330
A
100
AcDbDictionary
281
1
  0
DICTIONARY
  5
D
330
A
100
AcDbDictionary
281
1
  3
Model
350
1A
  3
Layout1
350
1E
  0
DICTIONARY
  5
E
330
A
100
AcDbDictionary
281
1
  3
ByBlock
350
1F
  3
ByLayer
350
20
  3
Global
350
21
  0
DICTIONARY
  5
F
330
A
100
AcDbDictionary
281
1
  3
Standard
350
2C
  0
DICTIONARY
  5
10
330
A
100
AcDbDictionary
281
1
  3
Standard
350
22
  0
DICTIONARY
  5
11
330
A
100
AcDbDictionary
281
1
  0
ACDBDICTIONARYWDFLT
  5
12
330
A
100
AcDbDictionary
281
1
  3
Normal
350
13
100
AcDbDictionaryWithDefault
340
13
  0
ACDBPLACEHOLDER
  5
13
330
12
  0
DICTIONARY
  5
14
330
A
100
AcDbDictionary
281
1
  0
DICTIONARY
  5
15
330
A
100
AcDbDictionary
281
1
  0
DICTIONARY
  5
16
330
A
100
AcDbDictionary
281
1
  0
LAYOUT
  5
1A
330
D
100
AcDbPlotSettings
  1

  4
A3
  6

 40
7.5
 41
20.0
 42
7.5
 43
20.0
 44
420.0
 45
297.0
 46
0.0
 47
0.0
 48
0.0
 49
0.0
140
0.0
141
0.0
142
1.0
143
1.0
 70
1024
 72
1
 73
0
 74
5
  7

 75
16
 76
0
 77
2
 78
300
147
1.0
148
0.0
149
0.0
100
AcDbLayout
  1
Model
 70
1
 71
0
 10
0.0
 20
0.0
 11
420.0
 21
297.0
 12
0.0
 22
0.0
 32
0.0
 14
1e+20
 24
1e+20
 34
1e+20
 15
-1e+20
 25
-1e+20
 35
-1e+20
146
0.0
 13
0.0
 23
0.0
 33
0.0
 16
1.0
 26
0.0
 36
0.0
 17
0.0
 27
1.0
 37
0.0
 76
1
330
17
  0
LAYOUT
  5
1E
330
D
100
AcDbPlotSettings
  1

  4
A3
  6

 40
7.5
 41
20.0
 42
7.5
 43
20.0
 44
420.0
 45
297.0
 46
0.0
 47
0.0
 48
0.0
 49
0.0
140
0.0
141
0.0
142
1.0
143
1.0
 70
0
 72
1
 73
0
 74
5
  7

 75
16
 76
0
 77
2
 78
300
147
1.0
148
0.0
149
0.0
100
AcDbLayout
  1
Layout1
 70
1
 71
1
 10
0.0
 20
0.0
 11
420.0
 21
297.0
 12
0.0
 22
0.0
 32
0.0
 14
1e+20
 24
1e+20
 34
1e+20
 15
-1e+20
 25
-1e+20
 35
-1e+20
146
0.0
 13
0.0
 23
0.0
 33
0.0
 16
1.0
 26
0.0
 36
0.0
 17
0.0
 27
1.0
 37
0.0
 76
1
330
1B
  0
MATERIAL
  5
1F
102
{ACAD_REACTORS
330
E
102
}
330
E
100
AcDbMaterial
  1
ByBlock
  2

 70
0
 40
1.0
 71
1
 41
1.0
 91
-1023410177
 42
1.0
 72
1
  3

 73
1
 74
1
 75
1
 44
0.5
 73
0
 45
1.0
 46
1.0
 77
1
  4

 78
1
 79
1
170
1
 48
1.0
171
1
  6

172
1
173
1
174
1
140
1.0
141
1.0
175
1
  7

176
1
177
1
178
1
143
1.0
179
1
  8

270
1
271
1
272
1
145
1.0
146
1.0
273
1
  9

274
1
275
1
276
1
 42
1.0
 72
1
  3

 73
1
 74
1
 75
1
 94
63
  0
MATERIAL
  5
20
102
{ACAD_REACTORS
330
E
102
}
330
E
100
AcDbMaterial
  1
ByLayer
  2

 70
0
 40
1.0
 71
1
 41
1.0
 91
-1023410177
 42
1.0
 72
1
  3

 73
1
 74
1
 75
1
 44
0.5
 73
0
 45
1.0
 46
1.0
 77
1
  4

 78
1
 79
1
170
1
 48
1.0
171
1
  6

172
1
173
1
174
1
140
1.0
141
1.0
175
1
  7

176
1
177
1
178
1
143
1.0
179
1
  8

270
1
271
1
272
1
145
1.0
146
1.0
273
1
  9

274
1
275
1
276
1
 42
1.0
 72
1
  3

 73
1
 74
1
 75
1
 94
63
  0
MATERIAL
  5
21
102
{ACAD_REACTORS
330
E
102
}
330
E
100
AcDbMaterial
  1
Global
  2

 70
0
 40
1.0
 71
1
 41
1.0
 91
-1023410177
 42
1.0
 72
1
  3

 73
1
 74
1
 75
1
 44
0.5
 73
0
 45
1.0
 46
1.0
 77
1
  4

 78
1
 79
1
170
1
 48
1.0
171
1
  6

172
1
173
1
174
1
140
1.0
141
1.0
175
1
  7

176
1
177
1
178
1
143
1.0
179
1
  8

270
1
271
1
272
1
145
1.0
146
1.0
273
1
  9

274
1
275
1
276
1
 42
1.0
 72
1
  3

 73
1
 74
1
 75
1
 94
63
  0
MLINESTYLE
  5
22
102
{ACAD_REACTORS
330
10
102
}
330
10
100
AcDbMlineStyle
  2
Standard
 70
0
  3

 62
256
 51
90.0
 52
90.0
 71
2
 49
0.5
 62
256
  6
BYLAYER
 49
-0.5
 62
256
  6
BYLAYER
  0
MLEADERSTYLE
  5
2C
102
{ACAD_REACTORS
330
F
102
}
330
F
100
AcDbMLeaderStyle
179
2
170
2
171
1
172
0
 90
2
 40
0.0
 41
0.0
173
1
 91
-1056964608
 92
-2
290
1
 42
2.0
291
1
 43
8.0
  3
Standard
 44
4.0
300

342
29
174
1
175
1
176
0
178
1
 93
-1056964608
 45
4.0
292
0
297
0
 46
4.0
 94
-1056964608
 47
1.0
 49
1.0
140
1.0
294
1
141
0.0
177
0
142
1.0
295
0
296
0
143
3.75
271
0
272
9
273
9
  0
DICTIONARY
  5
2D
330
A
100
AcDbDictionary
280
1
281
1
  3
CREATED_BY_EZDXF
350
2E
  3
WRITTEN_BY_EZDXF
350
41
  0
DICTIONARYVAR
  5
2E
330
2D
100
DictionaryVariables
280
0
  1
1.4.4 @ 2026-10-05T10:29:46.315515+00:00
  0
DICTIONARYVAR
  5
41
330
2D
100
DictionaryVariables
280
0
  1
1.4.4 @ 2026-10-05T10:29:46.341461+00:00
  0
ENDSEC
  0
EOF
